<svg xmlns="http://www.w3.org/2000/svg" viewBox="0 0 285.37 263.25"><defs><style>.cls-1{fill:#00158e;}.cls-2{fill:#0751cf;}.cls-3{fill:gold;}.cls-4{font-size:12px;font-family:MS-UIGothic, MS UI Gothic;}.cls-4,.cls-5,.cls-6{fill:#fff;}.cls-6{font-size:7.41px;font-family:KozGoPr6N-Regular-90ms-RKSJ-H, Kozuka Gothic Pr6N;}</style></defs><g id="Layer_2" data-name="Layer 2"><g id="Layer_2-2" data-name="Layer 2"><polygon class="cls-1" points="102.28 18.46 34.73 26.77 27.68 93.06 102.28 18.46"/><polygon class="cls-1" points="275.79 197.24 236.48 1.94 112.29 17.23 26.63 102.88 9.89 260.34 224.8 248.23 275.79 197.24"/><polygon class="cls-1" points="234.1 247.71 285.37 244.82 277.26 204.55 234.1 247.71"/><path class="cls-2" d="M259.57,37.44H228.14V30.07h31.43ZM229.3,36.28h29.1V31.23H229.3Z"/><path class="cls-2" d="M34.53,229.11H0v-5.05H34.53ZM1.16,227.94H33.37v-2.71H1.16Z"/><path class="cls-2" d="M85.75,263.25H72.17V242.69H85.75Zm-12.42-1.16H84.58V243.85H73.33Z"/><path class="cls-3" d="M268.88,118.14H252.19V101.46h16.69ZM253.36,117h14.35V102.62H253.36Z"/><path class="cls-3" d="M42.48,50.63h-25V46.56h25ZM18.62,49.47h22.7V47.72H18.62Z"/><rect class="cls-3" x="65.76" y="248.31" width="1.94" height="12.8"/><rect class="cls-3" x="267.91" y="145.11" width="2.72" height="44.62"/><rect class="cls-3" x="186.82" width="3.1" height="17.85"/><rect class="cls-3" x="12.61" y="218.44" width="17.85" height="1.94"/><rect class="cls-3" x="267.91" y="235.51" width="5.04" height="19.4"/><rect class="cls-3" x="12.07" y="126.75" width="7.49" height="7.5" transform="translate(96.88 27.02) rotate(44.98)"/><rect class="cls-3" x="27.52" y="126.73" width="7.49" height="7.5" transform="translate(101.39 16.09) rotate(44.98)"/><rect class="cls-3" x="42.97" y="126.71" width="7.49" height="7.5" transform="translate(105.9 5.16) rotate(44.98)"/><rect class="cls-3" x="58.42" y="126.69" width="7.49" height="7.5" transform="translate(110.4 -5.76) rotate(44.98)"/><rect class="cls-3" x="73.86" y="126.67" width="7.49" height="7.5" transform="translate(114.91 -16.69) rotate(44.98)"/><rect class="cls-3" x="89.31" y="126.65" width="7.49" height="7.5" transform="translate(119.41 -27.61) rotate(44.98)"/><rect class="cls-3" x="120.86" y="6.6" width="36.08" height="12.42"/><rect class="cls-3" x="171.3" y="241.72" width="11.64" height="18.62"/><rect class="cls-3" x="251.61" y="56.26" width="6.6" height="34.53"/><polygon class="cls-2" points="248.52 214.75 248.52 193.11 244.6 197.03 244.6 210.84 230.79 210.84 226.88 214.75 248.52 214.75"/><polygon class="cls-2" points="223.21 189.2 223.21 210.84 227.12 206.93 227.12 193.11 240.93 193.11 244.85 189.2 223.21 189.2"/><text class="cls-4" transform="translate(32.89 170.54)">技術<tspan x="0" y="14.4">背景</tspan></text><path class="cls-5" d="M193.7,121.29H161.4a1,1,0,0,0-.8.38l-5.63,6.9v-6.25a1,1,0,0,0-1-1h-2.31a1,1,0,0,0-1,1v6.28l-5.67-6.93a1,1,0,0,0-.8-.38h-3.28A1,1,0,0,0,140,123l4.57,5.65,5.17,6.31.58.7a1.07,1.07,0,0,1,.24.66v3.92a1,1,0,0,1-1,1h-3.68a1,1,0,0,0-.81.38l-5,6.18a1,1,0,0,0,.8,1.69h3.7a1,1,0,0,0,.8-.39l3.41-4.19a1,1,0,0,1,1.84.66v2.88a1,1,0,0,0,1,1h2.31a1,1,0,0,0,1-1V136.26a1,1,0,0,1,.23-.65l.56-.68,5.15-6.3,3.77-4.65a1,1,0,0,1,1.84.65h0a1,1,0,0,0,1,1h21.77a1,1,0,0,1,1,1v9a1,1,0,0,1-1,1H176.44l5.34-6.56a1,1,0,0,0-.81-1.69h-3.7a1,1,0,0,0-.8.38l-6.39,7.87H167.8a1.28,1.28,0,0,0-1.28,1.28v10.41a1,1,0,0,0,1,1H193.7a1,1,0,0,0,1-1v-2.3a1,1,0,0,0-1-1H171.93a1,1,0,0,1-1-1v-1.91a1,1,0,0,1,1-1H193.7a1,1,0,0,0,1-1V122.33A1,1,0,0,0,193.7,121.29Z"/><path class="cls-5" d="M221.77,136.88h-8.19a2.19,2.19,0,0,1-1.7-3.56l6.88-8.46a2.19,2.19,0,0,0-1.7-3.57h-.73a2.17,2.17,0,0,0-1.69.81l-12,14.78h0v-13.4a2.18,2.18,0,0,0-2.18-2.19h0a2.19,2.19,0,0,0-2.19,2.19v13.4h0v4.38h0v6.06a2.19,2.19,0,0,0,2.19,2.19h0a2.18,2.18,0,0,0,2.18-2.19v-3.88a2.19,2.19,0,0,1,2.19-2.18h10.78a.41.41,0,0,1,.32.67l-3.26,4a2.19,2.19,0,0,0,1.7,3.57h.73a2.17,2.17,0,0,0,1.69-.81l6.05-7.44.66-.81A2.19,2.19,0,0,0,221.77,136.88Z"/><path class="cls-5" d="M226.69,136.73a5.39,5.39,0,0,0-4.92-3.11h-5.94l5.46-6.71.3-.41h0c3.95-4.9,3.75-13,1-18.32h0a13.77,13.77,0,0,0-5.61-5.62c6,9.06-5.57,11.86-6.47,3.86-1.45-13-13.66-17.64-13.66-17.64s8.63,7.86,4.47,18.55-18.45,8.21-10-.32c8.17-8.19,5.12-24.75-6.08-27.16-15.43-3.32-12.32-18-12.32-18s-7.23,15.37,3.47,20.79c15.39,7.79,9.18,20.73,1.08,20.28s-16-10-13.16-19.69-5.65-14.4-5.65-14.4,6.09,5.35-1,16.78,4.64,15.87,3.15,21.51-11.62,3.87-7.46-4.89S149.2,88,149.2,88s3.09,7.19-.11,12.38C145.34,105.7,127.7,113,137.51,125l4.59,5.67,5.24,6.4v.9h-1.46a4.25,4.25,0,0,0-3.33,1.59l-5,6.17a4.29,4.29,0,0,0,3.33,7h3.7a4.26,4.26,0,0,0,3.33-1.58l.22-.27a4.28,4.28,0,0,0,3.53,1.85h2.31a4.3,4.3,0,0,0,4.29-4.29V137.06l5.21-6.38,1.92-2.36a4.19,4.19,0,0,0,2.19.6h4.71l-3.74,4.6h-.72a4.55,4.55,0,0,0-4.54,4.54v10.41a4.3,4.3,0,0,0,4.29,4.29H193.7a4.31,4.31,0,0,0,3.13-1.36,5.44,5.44,0,0,0,9-4.08v-2.81h3.8a5.44,5.44,0,0,0,4.67,8.25h.73a5.42,5.42,0,0,0,4.22-2L226,142.5A5.39,5.39,0,0,0,226.69,136.73Zm-1.47,5.14-6.71,8.25a4.41,4.41,0,0,1-3.44,1.64h-.73a4.44,4.44,0,0,1-3.45-7.24l.82-1h-6.84v3.81a4.44,4.44,0,0,1-7.71,3l-.42-.46-.36.51a3.3,3.3,0,0,1-2.68,1.39H167.55a3.29,3.29,0,0,1-3.29-3.29V138.06a3.55,3.55,0,0,1,3.54-3.54H169l5.37-6.6h-6.82a3.27,3.27,0,0,1-2-.67l-.39-.3-7.94,9.75v11.77a3.29,3.29,0,0,1-3.29,3.29h-2.31a3.29,3.29,0,0,1-3-1.94l-.33-.74-1.2,1.47a3.25,3.25,0,0,1-2.55,1.21h-3.7a3.28,3.28,0,0,1-2.55-5.36l5-6.18a3.3,3.3,0,0,1,2.56-1.22h2.46v-2.26l-5.47-6.67-4.58-5.67a3.29,3.29,0,0,1,2.56-5.36h3.28a3.25,3.25,0,0,1,2.54,1.21l1.55,1.89.29-.86a3.29,3.29,0,0,1,3.12-2.24h2.31a3.29,3.29,0,0,1,3.11,2.22l.29.85,1.51-1.86A3.28,3.28,0,0,1,161.4,119h32.3a3.3,3.3,0,0,1,2.68,1.39l.36.51.42-.46a4.44,4.44,0,0,1,7.71,3v7.06l8-9.86a4.41,4.41,0,0,1,3.44-1.64h.73a4.44,4.44,0,0,1,3.45,7.24l-6.79,8.35h8.05a4.43,4.43,0,0,1,3.45,7.24Z"/><path class="cls-5" d="M181.18,134.52h6.92v-6.6h-4.2l.21.66a3.26,3.26,0,0,1-.58,3.06Zm3.12-2.25a4.25,4.25,0,0,0,.92-3.35h1.88v4.6h-3.81Z"/><path class="cls-5" d="M141.13,158.07l-.25-.8a1.12,1.12,0,0,0-.41-.57,1.18,1.18,0,0,0-.66-.21l.91,2.87Z"/><path class="cls-5" d="M145.84,161.55l.25.8a1.12,1.12,0,0,0,1.07.78l-.91-2.87Z"/><polygon class="cls-5" points="142.47 158.25 141.47 161.37 142.29 161.37 143.29 158.25 142.47 158.25"/><path class="cls-5" d="M141.37,158.25l-1.56,4.88a1.12,1.12,0,0,0,1.07-.78l1.31-4.1Z"/><path class="cls-5" d="M146.09,157.27l-1.3,4.1h.82l1.55-4.88A1.12,1.12,0,0,0,146.09,157.27Z"/><polygon class="cls-5" points="143.57 158.25 142.58 161.37 143.4 161.37 144.4 158.25 143.57 158.25"/><polygon class="cls-5" points="144.68 158.25 143.68 161.37 144.5 161.37 145.5 158.25 144.68 158.25"/><path class="cls-5" d="M217.94,158.07l-.26-.8a1.11,1.11,0,0,0-1.07-.78l.92,2.87Z"/><path class="cls-5" d="M222.64,161.55l.25.8a1.13,1.13,0,0,0,1.08.78l-.92-2.87Z"/><polygon class="cls-5" points="219.27 158.25 218.28 161.37 219.1 161.37 220.09 158.25 219.27 158.25"/><path class="cls-5" d="M218.17,158.25l-1.56,4.88a1.12,1.12,0,0,0,1.07-.78l1.31-4.1Z"/><path class="cls-5" d="M222.89,157.27l-1.3,4.1h.82l1.56-4.88A1.13,1.13,0,0,0,222.89,157.27Z"/><polygon class="cls-5" points="220.38 158.25 219.38 161.37 220.2 161.37 221.2 158.25 220.38 158.25"/><polygon class="cls-5" points="221.48 158.25 220.48 161.37 221.3 161.37 222.3 158.25 221.48 158.25"/><text class="cls-6" transform="translate(174.58 162.99)">侵略</text></g></g></svg>