<svg xmlns="http://www.w3.org/2000/svg" viewBox="0 0 279.64 282.1"><defs><style>.cls-1{fill:#00158e;}.cls-2{fill:gold;}.cls-3{fill:#0751cf;}.cls-4{fill:none;}.cls-5{font-size:12px;font-family:MS-UIGothic, MS UI Gothic;}.cls-5,.cls-6,.cls-7{fill:#fff;}.cls-7{font-size:13.76px;font-family:KozGoPr6N-Regular-90ms-RKSJ-H, Kozuka Gothic Pr6N;}</style></defs><g id="Layer_2" data-name="Layer 2"><g id="Layer_2-2" data-name="Layer 2"><path class="cls-1" d="M262.07,44.88V33.24h10V44.88ZM272,21.6V10h-10V21.6Zm-21.6,34.92h11.64V44.88H250.43ZM46.16,257.87H57.8V248H46.16ZM34.52,236.36V248H46.16V236.36ZM262.07,56.52V68.16H250.43V56.52H238.79V68.16H227.15V56.52h11.64V44.88h11.64V33.24h11.64V21.6H250.43V10H238.79V21.6H227.15V10h11.64V3.35H17.51V257.87h17V248H22.88V236.36H34.52V224.72H22.88V213.08H34.52v11.64H46.16v11.64H57.8V248H69.43v9.87H81.07V248H92.71v9.87H272V56.52Zm0-53.17H250.43V10h11.64Z"/><rect class="cls-2" x="90.34" y="261.25" width="11.64" height="11.64"/><rect class="cls-2" x="65.49" y="263.92" width="11.64" height="11.64"/><rect class="cls-2" y="265.16" width="11.64" height="11.64"/><rect class="cls-2" x="53.3" y="251.2" width="11.64" height="11.64"/><rect class="cls-2" x="26.03" y="270.46" width="11.64" height="11.64"/><rect class="cls-2" x="17.64" y="252.12" width="11.64" height="11.64"/><rect class="cls-2" x="7.24" y="220.6" width="11.64" height="11.64"/><rect class="cls-2" x="10.35" y="239.14" width="11.64" height="11.64"/><polygon class="cls-3" points="210.67 12.22 25.99 12.22 25.99 192.25 34.72 183.52 34.72 134.05 48.1 134.05 48.1 64.21 61.68 50.63 61.68 30.84 134.62 30.84 146.85 18.62 210.67 18.62 210.67 12.22"/><rect class="cls-4" x="270.42" y="95.64" width="3.88" height="58.97"/><polygon class="cls-2" points="110.28 268.39 279.63 268.39 279.63 125.22 278.47 125.22 278.47 267.23 110.28 267.23 110.28 268.39 110.28 268.39"/><rect class="cls-2" x="27.54" width="6.79" height="5.43"/><rect class="cls-2" x="42.28" width="6.79" height="5.43"/><rect class="cls-2" x="57.03" width="6.79" height="5.43"/><rect class="cls-2" x="71.77" width="6.79" height="5.43"/><rect class="cls-2" x="86.51" width="6.79" height="5.43"/><rect class="cls-2" x="101.26" width="6.79" height="5.43"/><rect class="cls-2" x="116" width="6.79" height="5.43"/><rect class="cls-2" x="263.92" y="78.37" width="2.91" height="18.62"/><rect class="cls-2" x="263.92" y="126.97" width="2.91" height="122.8"/><polygon class="cls-2" points="94.67 34.02 90.5 29.86 94.67 25.68 92.31 23.32 88.14 27.49 83.97 23.32 81.61 25.68 85.78 29.86 81.61 34.02 83.97 36.38 88.14 32.22 92.31 36.38 94.67 34.02"/><polygon class="cls-2" points="112.13 34.02 107.96 29.86 112.13 25.68 109.77 23.32 105.6 27.49 101.43 23.32 99.07 25.68 103.24 29.86 99.07 34.02 101.43 36.38 105.6 32.22 109.77 36.38 112.13 34.02"/><polygon class="cls-2" points="129.59 34.02 125.42 29.86 129.59 25.68 127.23 23.32 123.06 27.49 118.89 23.32 116.53 25.68 120.7 29.86 116.53 34.02 118.89 36.38 123.06 32.22 127.23 36.38 129.59 34.02"/><polygon class="cls-2" points="147.05 34.02 142.88 29.86 147.05 25.68 144.69 23.32 140.52 27.49 136.35 23.32 133.99 25.68 138.16 29.86 133.99 34.02 136.35 36.38 140.52 32.22 144.69 36.38 147.05 34.02"/><text class="cls-5" transform="translate(223.35 227.32)">技術<tspan x="0" y="14.4">背景</tspan></text><path class="cls-6" d="M153.71,177H135.87v13.42h1.86L133.22,196h20.49a1.12,1.12,0,0,0,1.13-1.13v-4.76a1.13,1.13,0,0,0-1.13-1.13,1.12,1.12,0,0,0,1.13-1.12v-9.7A1.13,1.13,0,0,0,153.71,177Zm-14.9,2.94H151.9v7.54H138.81ZM151.9,193h-12l2.12-2.6h9.89Z"/><polygon class="cls-6" points="123.87 181.89 123.87 176.99 120.93 176.99 120.93 181.91 116.91 176.99 112.92 176.99 116.91 181.93 120.38 186.16 120.93 186.83 120.93 195.96 123.87 195.96 123.87 186.81 124.4 186.16 127.87 181.93 131.86 176.99 127.87 176.99 123.87 181.89"/><polygon class="cls-6" points="90.8 195.96 92.43 195.96 93.74 195.96 106.83 195.96 109.77 195.96 109.77 193.02 109.77 190.41 106.83 190.41 106.83 193.02 94.82 193.02 96.94 190.41 99.33 187.47 95.05 187.47 93.74 189.08 93.74 179.93 106.83 179.93 106.83 182.54 109.77 182.54 109.77 179.93 109.77 176.99 106.83 176.99 93.74 176.99 90.8 176.99 90.8 179.93 90.8 192.7 88.15 195.96 90.8 195.96"/><polygon class="cls-6" points="156.3 195.96 158.95 195.96 160.58 195.96 177.92 195.96 177.92 193.02 162.97 193.02 165.09 190.41 165.09 190.41 172.47 190.41 172.47 187.47 167.48 187.47 167.48 187.47 163.2 187.47 163.2 187.47 161.89 187.47 161.89 179.93 177.92 179.93 177.92 176.99 161.89 176.99 158.95 176.99 158.95 179.93 158.95 190.41 160.81 190.41 160.81 190.41 156.3 195.96"/><path class="cls-6" d="M201.23,190.41V177h-19v19h2.94v-5.55h7.24L197,196h4.28l-4.5-5.54h4.5Zm-6.9-2.94H185.2v-7.54h13.09v7.54Z"/><path class="cls-6" d="M190.45,76.73c-7.6-3.39-25,14.7-37.28,33.84a17.65,17.65,0,0,0-17,0C124,91.43,106.54,73.34,98.93,76.73c-3.79,1.69-4.23,7.41-1.34,17.48,5,17.31,14.35,26.52,21.93,31.32-4.72,6.75-7.44,14.09-7.44,20.39A17.93,17.93,0,0,0,119.65,161c5.55,4,14,6.06,25,6.06s19.49-2,25-6.06a17.93,17.93,0,0,0,7.57-15.08c0-6.3-2.72-13.64-7.44-20.39,7.58-4.81,17-14,21.93-31.32C194.68,84.14,194.24,78.42,190.45,76.73ZM100.94,93.25c-2.56-8.9-1.92-12.75-.59-13.34,3.87-1.73,19.16,11.06,32.8,32.34a45.93,45.93,0,0,0-10,8.67c-.53.6-1,1.21-1.52,1.82C114.54,118.32,105.66,109.71,100.94,93.25Zm14.62,52.67a23.25,23.25,0,0,1,.67-5.35L126.4,147a11.75,11.75,0,0,1,5.53,10v5.42a26.92,26.92,0,0,1-10.23-4.21A14.37,14.37,0,0,1,115.56,145.92Zm18,16.78V157a13.35,13.35,0,0,0-6.28-11.36L116.66,139a43.3,43.3,0,0,1,9.09-15.75c6.15-7,13.41-11.34,18.94-11.34s12.79,4.34,18.94,11.34A43.3,43.3,0,0,1,172.72,139l-10.58,6.64A13.35,13.35,0,0,0,155.86,157v5.73a71.33,71.33,0,0,1-22.34,0Zm34.16-4.52a26.85,26.85,0,0,1-10.23,4.21V157A11.75,11.75,0,0,1,163,147l10.17-6.39a23.28,23.28,0,0,1,.68,5.35A14.38,14.38,0,0,1,167.68,158.18Zm20.77-64.93c-4.73,16.46-13.61,25.07-20.69,29.49-.49-.61-1-1.22-1.52-1.82a45.7,45.7,0,0,0-10-8.67C169.87,91,185.16,78.18,189,79.91,190.36,80.5,191,84.35,188.45,93.25Z"/><path class="cls-6" d="M148.92,149.56a3.44,3.44,0,0,1-3.29-2.45l5-6.33H138.73l5,6.33a3.44,3.44,0,0,1-6.73-1h-1.58a5,5,0,0,0,9.25,2.7,5,5,0,0,0,9.25-2.7h-1.58A3.44,3.44,0,0,1,148.92,149.56Zm-1.55-7.19-2.68,3.38L142,142.37Z"/><path class="cls-6" d="M138.18,83.17l-.7-2.21a3.12,3.12,0,0,0-3-2.16L137,86.74Z"/><path class="cls-6" d="M151.2,92.82l.71,2.21a3.11,3.11,0,0,0,3,2.17l-2.53-7.94Z"/><polygon class="cls-6" points="141.88 83.67 139.12 92.33 141.39 92.33 144.15 83.67 141.88 83.67"/><path class="cls-6" d="M138.82,83.67,134.51,97.2a3.12,3.12,0,0,0,3-2.17l3.62-11.36Z"/><path class="cls-6" d="M151.91,81l-3.62,11.37h2.27l4.31-13.53A3.1,3.1,0,0,0,151.91,81Z"/><polygon class="cls-6" points="144.94 83.67 142.17 92.33 144.45 92.33 147.21 83.67 144.94 83.67"/><polygon class="cls-6" points="147.99 83.67 145.23 92.33 147.5 92.33 150.26 83.67 147.99 83.67"/><path class="cls-6" d="M131.77,138.48h0a2.38,2.38,0,0,1-2.37-2.37v-4.26a2.37,2.37,0,0,1,2.37-2.36h0a2.36,2.36,0,0,1,2.36,2.36v4.26A2.37,2.37,0,0,1,131.77,138.48Z"/><path class="cls-6" d="M157.62,138.48h0a2.38,2.38,0,0,1-2.37-2.37v-4.26a2.37,2.37,0,0,1,2.37-2.36h0a2.36,2.36,0,0,1,2.36,2.36v4.26A2.37,2.37,0,0,1,157.62,138.48Z"/><text class="cls-7" transform="translate(108 213)">ウサギるい</text></g></g></svg>