<svg xmlns="http://www.w3.org/2000/svg" viewBox="0 0 273.53 284.78"><defs><style>.cls-1{fill:#00158e;}.cls-2{fill:gold;}.cls-3{fill:#0751cf;}.cls-4{font-size:12px;font-family:MS-UIGothic, MS UI Gothic;}.cls-4,.cls-5,.cls-7{fill:#fff;}.cls-6{fill:none;stroke:#fff;stroke-miterlimit:10;stroke-width:2.38px;}.cls-7{font-size:28.42px;font-family:KozGoPr6N-Regular-90ms-RKSJ-H, Kozuka Gothic Pr6N;}</style></defs><g id="Layer_2" data-name="Layer 2"><g id="Layer_2-2" data-name="Layer 2"><polygon class="cls-1" points="256.07 237.64 256.07 152.09 250.84 146.85 250.84 36.86 235.12 36.86 235.12 22.45 181.14 22.45 175.76 27.84 109.7 27.84 98.41 16.54 7.63 16.54 7.63 192.89 16 201.27 16 239.97 21.39 245.36 21.39 258.6 85.55 258.6 85.55 266.16 139.09 266.16 139.09 271.06 262.15 271.06 262.15 243.72 256.07 237.64"/><path class="cls-2" d="M264.51,209.18V164.5a3,3,0,0,0,2.48-2.94,3.06,3.06,0,1,0-6.12,0,3,3,0,0,0,2.48,2.94v45.16l9,9v64.94H117.56v-9.89H1.16V11.83H38.8a3,3,0,0,0,3,2.49,3.07,3.07,0,0,0,0-6.13,3,3,0,0,0-3,2.48H0V274.89H116.4v9.89H273.53V218.2Z"/><polygon class="cls-2" points="156.83 258.45 162.67 258.45 168.89 252.23 159.16 252.23 145.13 266.25 149.03 266.25 156.83 258.45"/><polygon class="cls-2" points="169.48 258.45 175.32 258.45 181.54 252.23 171.81 252.23 157.78 266.25 161.68 266.25 169.48 258.45"/><polygon class="cls-2" points="182.13 258.45 187.97 258.45 194.19 252.23 184.46 252.23 170.43 266.25 174.33 266.25 182.13 258.45"/><polygon class="cls-2" points="194.78 258.45 200.62 258.45 206.84 252.23 197.11 252.23 183.09 266.25 186.99 266.25 194.78 258.45"/><polygon class="cls-2" points="207.44 258.45 213.27 258.45 219.5 252.23 209.76 252.23 195.74 266.25 199.64 266.25 207.44 258.45"/><polygon class="cls-2" points="220.09 258.45 225.92 258.45 232.15 252.23 222.41 252.23 208.39 266.25 212.29 266.25 220.09 258.45"/><polygon class="cls-2" points="232.74 258.45 238.57 258.45 244.8 252.23 235.06 252.23 221.04 266.25 224.94 266.25 232.74 258.45"/><polygon class="cls-2" points="245.39 258.45 251.22 258.45 257.45 252.23 247.71 252.23 233.69 266.25 237.59 266.25 245.39 258.45"/><polygon class="cls-3" points="21.79 20.81 16.43 20.81 12.62 27.41 16.43 34.02 21.79 34.02 17.97 27.41 21.79 20.81"/><polygon class="cls-3" points="35.48 20.81 30.12 20.81 26.31 27.41 30.12 34.02 35.48 34.02 31.66 27.41 35.48 20.81"/><polygon class="cls-3" points="49.17 20.81 43.81 20.81 40 27.41 43.81 34.02 49.17 34.02 45.35 27.41 49.17 20.81"/><polygon class="cls-3" points="62.86 20.81 57.5 20.81 53.69 27.41 57.5 34.02 62.86 34.02 59.05 27.41 62.86 20.81"/><polygon class="cls-3" points="76.55 20.81 71.19 20.81 67.38 27.41 71.19 34.02 76.55 34.02 72.73 27.41 76.55 20.81"/><polygon class="cls-3" points="90.24 20.81 84.88 20.81 81.07 27.41 84.88 34.02 90.24 34.02 86.42 27.41 90.24 20.81"/><path class="cls-2" d="M120.26,21.47h5.66L115.78,31.61h-5.65Zm22.72,0h-5.66L127.19,31.61h5.66Zm-8.53,0h-5.66L118.66,31.61h5.66Zm42.66,0h-5.66L161.32,31.61H167Zm-25.6,0h-5.65L135.72,31.61h5.66Zm17.07,0h-5.66L152.79,31.61h5.65Zm-8.54,0h-5.65L144.26,31.61h5.65Z"/><rect class="cls-2" x="229.3" y="128.23" width="38.99" height="5.24"/><rect class="cls-2" x="244.72" y="120.37" width="18.04" height="3.49"/><rect class="cls-2" x="14.55" y="246.96" width="34.92" height="4.66"/><path class="cls-2" d="M204.08,36.47h8.15V28.32h-8.15Zm1.17-7h5.82v5.82h-5.82Z"/><path class="cls-2" d="M244.43,98.36V91.57h-7.37v7.37h7.37Zm-6.2-5.63h5v5h-5Z"/><path class="cls-3" d="M237.06,198.65h8.15V190.5h-8.15Zm1.17-7h5.82v5.82h-5.82Z"/><path class="cls-2" d="M21.34,226.59H31.43V216.5H21.34Zm1.16-8.93h7.76v7.76H22.5Z"/><path class="cls-3" d="M14,178.48h6.21v-6.21H14Zm1.16-5H19v3.88H15.13Z"/><path class="cls-2" d="M54.32,263.83H76.43v-8.92H54.32Zm1.16-7.76H75.27v6.6H55.48Z"/><path class="cls-2" d="M247.93,48.5V90.4h6.59V48.5Zm1.16,1.16h4.27V89.24h-4.27Z"/><path class="cls-2" d="M250.64,32V21.73H239.78V32.59h10.86Zm-9.7-9.12h8.54v8.54h-8.54Z"/><path class="cls-2" d="M65.18,11.45V4.27H57.42V12h7.76Zm-6.59-6H64v5.43H58.59Z"/><path class="cls-3" d="M94.28,9.7H104V0h-9.7Zm1.17-8.54h7.37V8.54H95.45Z"/><polygon class="cls-2" points="32.5 87.42 26.88 87.42 26.88 81.8 23.7 81.8 23.7 87.42 18.09 87.42 18.09 90.6 23.7 90.6 23.7 96.21 26.88 96.21 26.88 90.6 32.5 90.6 32.5 87.42"/><polygon class="cls-2" points="56.87 87.42 51.25 87.42 51.25 81.8 48.07 81.8 48.07 87.42 42.45 87.42 42.45 90.6 48.07 90.6 48.07 96.21 51.25 96.21 51.25 90.6 56.87 90.6 56.87 87.42"/><polygon class="cls-2" points="81.23 87.42 75.62 87.42 75.62 81.8 72.44 81.8 72.44 87.42 66.82 87.42 66.82 90.6 72.44 90.6 72.44 96.21 75.62 96.21 75.62 90.6 81.23 90.6 81.23 87.42"/><polygon class="cls-2" points="105.6 87.42 99.98 87.42 99.98 81.8 96.8 81.8 96.8 87.42 91.19 87.42 91.19 90.6 96.8 90.6 96.8 96.21 99.98 96.21 99.98 90.6 105.6 90.6 105.6 87.42"/><text class="cls-4" transform="translate(213.01 223.33)">技術<tspan x="0" y="14.4">背景</tspan></text><path class="cls-5" d="M98.53,164.15c-.85,1.66,0,3.89,1.45,5s3.41,1.07,4.2-.66-.1-3.89-1.45-5A2.7,2.7,0,0,0,98.53,164.15Zm3.93-.09a3.49,3.49,0,0,1,1.15,4,2.15,2.15,0,0,1-3.36.51,3.42,3.42,0,0,1-1.14-4A2.15,2.15,0,0,1,102.46,164.06Z"/><path class="cls-5" d="M95.86,162.45c-1.67,3.3.33,7.25,3,9.36s6.37,1.64,7.95-1.64-.41-7.25-3-9.36A5,5,0,0,0,95.86,162.45Zm7.7-.95c2.38,1.86,4,5.39,2.6,8.28s-4.64,3.22-7,1.34-4.11-5.38-2.6-8.28S101.19,159.65,103.56,161.5Z"/><path class="cls-5" d="M97.8,155.83a11.36,11.36,0,0,0-5.29,5.44c-2.69,5.38,1.54,10.71,5.64,13.88,1.95,1.5,4.29,2.66,6.76,1.64a11.28,11.28,0,0,0,5.28-5.45c2.7-5.37-1.54-10.7-5.64-13.87C102.61,156,100.27,154.81,97.8,155.83Zm6.65,2.45c3.8,3,7.39,8,4.94,12.91a9.55,9.55,0,0,1-4.87,4.75c-2.26.82-4.49-.2-6.27-1.6-3.79-3-7.38-8-4.93-12.91a9.48,9.48,0,0,1,4.87-4.75C100.46,155.87,102.66,156.86,104.45,158.28Z"/><path class="cls-5" d="M95.2,151.84a35.86,35.86,0,0,0-7.12,10.28,9.56,9.56,0,0,0-1.3,4.66,6.4,6.4,0,0,0,2,3.83,79.2,79.2,0,0,0,10,9c2.68,2.1,5.85,3.93,8.82,1.2s5.33-6.72,7.11-10.28a9.51,9.51,0,0,0,1.3-4.66,6.33,6.33,0,0,0-2-3.83,77.68,77.68,0,0,0-10-9C101.33,150.94,98.17,149.09,95.2,151.84Zm9.07,2.12a50.17,50.17,0,0,1,9,8.64c2.1,2.75,1.9,5.25.42,8.29-1.57,3.24-3.92,6.9-6.8,9.17s-5.91.57-8.46-1.4a50.53,50.53,0,0,1-9-8.64c-2.1-2.74-1.89-5.2-.43-8.29,1.63-3.23,3.93-6.94,6.81-9.17S101.73,152,104.27,154Z"/><path class="cls-5" d="M95.42,144.64c-2.29.15-3.52,2.52-4.42,4.31-1.37,2.75-2.44,5.7-3.83,8.47s-3,5.41-4.31,8.15c-.85,1.75-2,4-1.5,6s2.55,2.81,4.2,3.52a48.28,48.28,0,0,1,7.57,3.72c2.74,1.79,5.2,4,7.76,6,1.65,1.3,3.81,3.14,6.07,3.18h.33c2.29-.14,3.52-2.51,4.42-4.3,1.37-2.75,2.45-5.7,3.82-8.48s2.94-5.4,4.31-8.14c.86-1.76,2-4,1.51-6s-2.55-2.81-4.2-3.52a50.11,50.11,0,0,1-7.57-3.72c-2.74-1.79-5.2-4-7.76-6C100.09,146.46,97.8,144.5,95.42,144.64Zm6.91,4.22c2.42,1.89,4.75,4,7.29,5.74a60.2,60.2,0,0,0,7,4c1.51.79,3.29,1.74,3.69,3.57s-.67,4.06-1.49,5.72c-1.28,2.58-2.79,5.08-4.14,7.65s-2.47,5.26-3.89,7.74c-.93,1.64-2.19,3.62-4.33,3.64s-4.4-1.8-6.07-3.11c-2.42-1.9-4.75-4-7.29-5.74a61.78,61.78,0,0,0-7-4c-1.51-.78-3.29-1.73-3.69-3.56s.67-4,1.49-5.72c1.3-2.59,2.79-5.08,4.14-7.65s2.47-5.26,3.89-7.75c.93-1.64,2.18-3.61,4.33-3.63S100.67,147.56,102.33,148.86Z"/><path class="cls-5" d="M119.12,174c-1.35,3.53-2.09,7.36-3.28,10.95-.3.91-.65,2-1.12,3.06H116c.39-1,.69-2,1-2.84,1.17-3.77,1.81-7.79,3.13-11.5a65.62,65.62,0,0,1,4-8.36v-1.37C122.39,167.23,120.45,170.5,119.12,174ZM90.83,139.25c-2.94,1.31-4.23,5.46-5.09,8.23-1.17,3.76-1.81,7.79-3.14,11.5s-3.36,7.08-5.1,10.57c-1.1,2.22-2.75,5.53-1.35,8s4.61,3.2,7.09,3.65c3.34.63,6.93.72,10.07,2A30.39,30.39,0,0,1,100.7,188h.89a41.35,41.35,0,0,0-8.33-5.74c-3-1.37-6.37-1.66-9.6-2.36-2.26-.49-5.31-1.25-6.47-3.51s.39-5.44,1.41-7.54a112.68,112.68,0,0,0,5-10.18c1.35-3.53,2.08-7.36,3.28-11,.83-2.51,2.08-6.37,4.86-7.39s6,1.64,8,3.24c3.1,2.44,6.13,5.19,9.69,6.83,3,1.37,6.37,1.65,9.6,2.36a13.93,13.93,0,0,1,5,1.84v-1.79a17.09,17.09,0,0,0-4.58-1.38c-3.34-.62-6.93-.72-10.08-2-3.74-1.53-6.89-4.44-10.09-6.95C97.15,140.77,93.79,137.93,90.83,139.25Z"/><path class="cls-5" d="M98.14,137.87c3.47,2.71,7,6.35,11.45,7.18,3.74.7,7.77.06,11.54.61a21.28,21.28,0,0,1,2.92.64v-1.53a20.55,20.55,0,0,0-2.51-.56c-3.83-.6-7.86.26-11.73-.32-4.64-.71-8.18-4.43-11.68-7.18-.59-.46-1.2-.92-1.84-1.35H94.47A25.25,25.25,0,0,1,98.14,137.87Zm23.67,48c-.19.67-.4,1.37-.63,2.09h1.26c.21-.65.41-1.29.58-1.91a42.62,42.62,0,0,0,1-4.61v-7C123.24,178.24,122.86,182.17,121.81,185.89ZM79.68,146.55c-1.23,4.26-1.5,8.76-2.52,13.07s-3.48,7.91-5.4,11.76q-.18.35-.33.69V175a24.8,24.8,0,0,1,1.48-3.64c2-3.84,4.3-7.47,5.38-11.66s1.42-8.74,2.61-13c1.11-3.94,2.85-8.89,6.25-11.37H85.38C82.47,138.24,80.79,142.74,79.68,146.55Zm-8.25,36.72A14.05,14.05,0,0,0,79.14,188H94.71a10.91,10.91,0,0,0-1.59-.41c-3.78-.68-7.77-.06-11.54-.61-3.5-.51-7.61-2-9.58-5.11a7,7,0,0,1-.57-1.12Z"/><path class="cls-5" d="M118.55,135.3l-.44.06c-1.66.23-3.28.76-4.92,1a8.81,8.81,0,0,1-5.73-1h-2.63c2.24,1.62,4.69,2.82,7.49,2.48,1.83-.22,3.62-.73,5.46-.94a14.12,14.12,0,0,1,6,.66l.24.08v-1.57a12.47,12.47,0,0,0-2.68-.71A10.6,10.6,0,0,0,118.55,135.3Zm-45.72,9.5a33.48,33.48,0,0,0-1.4,3.27V157s0,0,0-.07A40.39,40.39,0,0,1,74,145.26a45.09,45.09,0,0,1,5.71-9.9h-1A53.18,53.18,0,0,0,72.83,144.8Z"/><path class="cls-5" d="M99.38,135.36c3.25,2.69,6.74,6.08,11.09,6.3,4,.21,7.93-.84,11.86-.07.58.12,1.15.26,1.72.43v-1.61c-.4-.13-.81-.23-1.21-.33a19.22,19.22,0,0,0-6.15-.35c-1.88.17-3.77.56-5.65.57-3.79,0-6.93-2.5-9.81-4.94ZM76.19,145.88c-1.42,4.11-1.76,8.29-2.44,12.56a21,21,0,0,1-2.32,6.33v2.85A29.42,29.42,0,0,0,75,159.05c.85-4.3,1.09-8.69,2.43-12.88a33.78,33.78,0,0,1,5.41-10.81H81.62A37.59,37.59,0,0,0,76.19,145.88ZM71.43,188h1.89a16.74,16.74,0,0,1-1.89-1.57Z"/><path class="cls-5" d="M121.56,173.23c-1.28,4-1.78,8.21-2.93,12.19-.23.8-.49,1.68-.8,2.56h1.23c.28-.82.51-1.63.72-2.38,1.16-4.11,1.62-8.49,2.81-12.56a29.57,29.57,0,0,1,1.46-3.87v-1.71A40.82,40.82,0,0,0,121.56,173.23ZM88.74,136.79c-3.3,2-4.84,6.75-5.82,10.23-1.15,4.1-1.61,8.49-2.8,12.56s-3.45,7.61-5.3,11.32c-1.35,2.72-3,6.42-1.13,9.34s5.5,3.86,8.57,4.31c3.62.53,7.56.15,11,1.14A16.77,16.77,0,0,1,98,188h1.23a21.28,21.28,0,0,0-5.92-3.32c-3.36-1.12-7.17-.93-10.69-1.48-2.82-.45-6.35-1.34-8-4s0-6.2,1.23-8.76c1.85-3.64,4-7.16,5.24-11.05s1.78-8.2,2.93-12.18c.92-3.19,2.32-7.71,5.48-9.42s6.85,1.27,9.17,3.09c3.34,2.61,6.63,5.75,10.63,7.09,3.36,1.12,7.18.93,10.7,1.48a20.4,20.4,0,0,1,4,1v-1.54a21.13,21.13,0,0,0-3.6-.82c-3.62-.53-7.56-.16-11-1.15-4.18-1.18-7.56-4.47-11-7.15C95.94,137.82,92.05,134.77,88.74,136.79Z"/><path class="cls-5" d="M93.29,142.13c-2.53.63-3.75,3.88-4.58,6-1.27,3.25-2.14,6.69-3.52,9.89s-3.2,6.29-4.75,9.43c-1,2-2.35,4.59-1.48,6.86.8,2.09,3.56,2.85,5.46,3.4,3,.86,6,1.48,8.72,3,3.22,1.75,6,4.27,9,6.55l1,.75h.89c-.86-.58-1.66-1.24-2.36-1.79a81.34,81.34,0,0,0-8.36-6.27,44.1,44.1,0,0,0-8.33-3.35c-1.82-.62-4.26-1.43-4.94-3.47s.62-4.59,1.52-6.43c1.48-2.95,3.15-5.8,4.53-8.8s2.39-6.33,3.71-9.41c.85-2,2.07-4.93,4.56-5.28s5,1.82,6.86,3.25a82.72,82.72,0,0,0,8.36,6.26,42.19,42.19,0,0,0,8.33,3.35c1.82.63,4.26,1.44,4.94,3.48s-.61,4.59-1.52,6.43c-1.46,2.94-3.16,5.79-4.53,8.8s-2.38,6.33-3.71,9.41a14.75,14.75,0,0,1-2.11,3.82h1.5a21.94,21.94,0,0,0,1.62-3.51c1.26-3.25,2.13-6.69,3.5-9.9s3.18-6.27,4.76-9.42c.73-1.5,1.78-3.47,1.78-5.3a3.94,3.94,0,0,0-.3-1.56c-.91-2.09-3.49-2.83-5.46-3.4-3-.86-6-1.48-8.71-2.95-3.23-1.75-6.06-4.28-9-6.55C98.76,143.93,95.9,141.47,93.29,142.13Z"/><path class="cls-5" d="M93.29,150.19a76,76,0,0,0-3.94,6.59c-1.3,2.26-2.69,4.51-3.83,6.83-.77,1.58-1.72,3.47-1.44,5.3s1.63,2.76,3,3.67c2,1.39,4.11,2.71,6.06,4.22,2.23,1.72,4.35,3.62,6.55,5.34,1.56,1.22,3.48,2.81,5.57,3,1.91.13,3.2-1.26,4.21-2.67,1.47-2.05,2.66-4.39,3.93-6.59s2.67-4.5,3.84-6.83c.77-1.6,1.72-3.47,1.44-5.3S117,161,115.68,160c-2-1.39-4.11-2.71-6.06-4.22-2.23-1.72-4.35-3.62-6.55-5.35-1.57-1.22-3.48-2.81-5.58-2.95C95.58,147.39,94.3,148.78,93.29,150.19Zm4.94-1.5c2,.23,3.75,1.65,5.26,2.82,3.88,3,7.78,6.25,11.54,9.39a5.93,5.93,0,0,1,2.51,3.74c.21,1.76-.64,3.52-1.39,5-1.06,2.15-2.36,4.23-3.63,6.29a45.14,45.14,0,0,1-3.91,5.85c-1.07,1.26-2.36,2.31-4.13,2.11-2-.23-3.76-1.65-5.27-2.82-3.87-3-7.77-6.25-11.53-9.39A6,6,0,0,1,85.17,168c-.21-1.76.65-3.51,1.39-5,1.08-2.16,2.36-4.23,3.63-6.29a46.19,46.19,0,0,1,3.91-5.85C95.17,149.54,96.45,148.49,98.23,148.69Z"/><path class="cls-5" d="M96.77,153.94c-2.71,1.57-4.8,4.63-6.19,7.36a7.56,7.56,0,0,0,.14,7.86,31.55,31.55,0,0,0,7.45,7.92c2.28,1.77,5,3.22,7.77,1.6s4.83-4.63,6.19-7.36a7.58,7.58,0,0,0-.14-7.86,31.2,31.2,0,0,0-7.45-7.92C102.25,153.77,99.56,152.32,96.77,153.94Zm7.82,2.4a25.75,25.75,0,0,1,6.71,7.5,7.71,7.71,0,0,1,0,7.56c-1.25,2.5-3.26,5.23-5.83,6.52s-5.23,0-7.37-1.65a25.6,25.6,0,0,1-6.71-7.49,7.69,7.69,0,0,1,0-7.56c1.26-2.51,3.26-5.23,5.82-6.52S102.43,154.69,104.59,156.34Z"/><path class="cls-5" d="M98.6,157.66a7.82,7.82,0,0,0-4.38,4c-2.15,4.34.81,9,4.21,11.75A6.25,6.25,0,0,0,104.1,175a7.79,7.79,0,0,0,4.39-4.05c2.18-4.34-.79-9-4.21-11.74C102.67,157.9,100.66,157,98.6,157.66Zm5.47,2.32c3,2.31,5.55,6.79,3.62,10.6a6.64,6.64,0,0,1-3.94,3.48,5.92,5.92,0,0,1-5.11-1.42C95.55,170.31,93.1,165.87,95,162A6.59,6.59,0,0,1,99,158.56,5.9,5.9,0,0,1,104.07,160Z"/><path class="cls-5" d="M97.09,163.17c-1.29,2.59.16,5.73,2.27,7.4s5,1.41,6.26-1.12-.16-5.73-2.27-7.4S98.35,160.65,97.09,163.17Zm5.92-.32c1.72,1.37,2.85,4,1.8,6.06a3.27,3.27,0,0,1-5.11.86c-1.69-1.37-2.85-4-1.8-6.07S101.37,161.56,103,162.85Z"/><path class="cls-5" d="M98.53,164.15c-.85,1.66,0,3.89,1.45,5s3.41,1.07,4.2-.66-.1-3.89-1.45-5A2.7,2.7,0,0,0,98.53,164.15Zm3.93-.09a3.49,3.49,0,0,1,1.15,4,2.15,2.15,0,0,1-3.36.51,3.42,3.42,0,0,1-1.14-4A2.15,2.15,0,0,1,102.46,164.06Z"/><path class="cls-5" d="M99.77,165.08a2.56,2.56,0,0,0,.8,2.81,1.54,1.54,0,0,0,2.36-.35,2.42,2.42,0,0,0-.79-2.81A1.54,1.54,0,0,0,99.77,165.08Zm2.08.23a1.53,1.53,0,0,1,.51,1.78,1,1,0,0,1-1.51.22,1.56,1.56,0,0,1-.5-1.79A1,1,0,0,1,101.85,165.31Z"/><path class="cls-5" d="M71.43,140.8v1.74c1.7-2.43,3.55-4.86,5.5-7.18H76.1C74.51,137.16,73,139,71.43,140.8Z"/><path class="cls-5" d="M71.43,136.63v1.18c.93-.79,1.84-1.61,2.74-2.45H73C72.51,135.79,72,136.22,71.43,136.63Z"/><path class="cls-5" d="M131.26,152.29s1.52-1,1.62.14a2.7,2.7,0,0,1-.78,2c.06,0,.86-.28,1.22,1.05s-.38,1.86-.44,1.9a1.12,1.12,0,0,1,1.29.9,1.59,1.59,0,0,1-.16,1.59,1.11,1.11,0,0,1,1.32.72,1.85,1.85,0,0,1,.21,1.63,1.19,1.19,0,0,1,1.42.09,1.61,1.61,0,0,1,.75,1.41.86.86,0,0,1,.87-.83,4,4,0,0,1,1.83.92s-.39-.84,0-1.29,1.45.51,1.47.54a2.52,2.52,0,0,1-.22-1.29,2.15,2.15,0,0,1,1.86-1.39s-.77-.3-.18-1.83,3-3.84,3.12-3.91-2.2,1.14-1.87-.51a2.75,2.75,0,0,1,1.52-2.12,1.44,1.44,0,0,1-1.36-1.55,2.66,2.66,0,0,1,1.5-2.18c-.08,0-1.22.32-1.42-1.44a2.61,2.61,0,0,1,.72-2.5s-.94.41-1.43-1.61a6.2,6.2,0,0,1,.54-4c-.11.19-1.2,2.07-1.8.62a3.34,3.34,0,0,1-.17-2.51,1.39,1.39,0,0,1-2-.15c-.9-1-.86-1.58-.86-1.58a1.23,1.23,0,0,1-1.47,1c-1.28-.12-1.62-.73-1.64-.77a2.06,2.06,0,0,1-.53,2.12,3.9,3.9,0,0,1-2.24.77,1.74,1.74,0,0,1,.46,1.86c-.43,1.09-1.91,1.07-1.91,1.07a2,2,0,0,1,.84,2.26c-.44,1.42-1.48,1.23-1.55,1.21s1.23.47,1,1.45a1.47,1.47,0,0,1-1.17,1.14s1.2.19,1.07,2A5.15,5.15,0,0,1,131.26,152.29Zm3.43-5.19c.21-1.86,1.24-.33,1.24-.33s-.75-3-.25-4.31,1.53-.22,1.57-.16-1.12-1.49-.33-2.66,1.22-.23,1.22-.23.51-1.8,1.57-1,.43,1.6.43,1.6a1.4,1.4,0,0,1,1.51,1,1.22,1.22,0,0,1-.56,1.63,2.16,2.16,0,0,1,1.58,2c.27,1.79-1.08,1.46-1.13,1.45a3.67,3.67,0,0,1,1.38,2.68c.06,1.74-.84,1.71-.84,1.71s1.13.36.63,1.77a1.61,1.61,0,0,1-1.26.89s1.49.32,1.2,1.17a1,1,0,0,1-1.18.62,1.38,1.38,0,0,1,.6,1.76c-.46,1.18-1.28.87-1.32.85a2,2,0,0,1-.26,2.39c-1,1.35-1.45-.13-1.45-.13a1.09,1.09,0,0,1-1.62.4c-1-.69-.45-2.07-.43-2.12s-.68.41-1.24-.92a1.54,1.54,0,0,1,.56-2,1.52,1.52,0,0,1-1.37-1.28c-.23-1.22,1.08-1.27,1.08-1.27a2.33,2.33,0,0,1-1.4-1.9c-.09-1.39.81-1.64.81-1.64S134.48,149,134.69,147.1Z"/><rect class="cls-6" x="64.97" y="128.75" width="90.14" height="94.85" rx="9.7"/><path class="cls-5" d="M131.42,166h-2.88v.73h1.6L129,168.56l-.44.73h0v2.6h6.12v-3.34h-4.84l1.15-1.87h3.69V166Zm2.5,3.34v1.87h-4.65V169.3h4.65Z"/><path class="cls-5" d="M138.7,166h-2.88v.73h1.6l-1.16,1.87-.44.73h0v2.6h6.12v-3.34h-4.84l1.15-1.87h3.69V166Zm2.5,3.34v1.87h-4.65V169.3h4.65Z"/><path class="cls-5" d="M146,166H143.1v.73h1.6l-1.15,1.87-.45.73h0v2.6h6.11v-3.34h-4.84l1.16-1.87h3.68V166Zm2.5,3.34v1.87h-4.65V169.3h4.65Z"/><path class="cls-5" d="M131.42,174h-2.88v.73h1.6L129,176.6l-.44.73h0v2.6h6.12V176.6h-4.84l1.15-1.87h3.69V174Zm2.5,3.34v1.87h-4.65v-1.87h4.65Z"/><path class="cls-5" d="M138.7,174h-2.88v.73h1.6l-1.16,1.87-.44.73h0v2.6h6.12V176.6h-4.84l1.15-1.87h3.69V174Zm2.5,3.34v1.87h-4.65v-1.87h4.65Z"/><path class="cls-5" d="M146,174H143.1v.73h1.6l-1.15,1.87-.45.73h0v2.6h6.11V176.6h-4.84l1.16-1.87h3.68V174Zm2.5,3.34v1.87h-4.65v-1.87h4.65Z"/><path class="cls-5" d="M131.42,182h-2.88v.73h1.6L129,184.64l-.44.73h0V188h6.12v-3.34h-4.84l1.15-1.87h3.69V182Zm2.5,3.34v1.87h-4.65v-1.87h4.65Z"/><path class="cls-5" d="M138.7,182h-2.88v.73h1.6l-1.16,1.87-.44.73h0V188h6.12v-3.34h-4.84l1.15-1.87h3.69V182Zm2.5,3.34v1.87h-4.65v-1.87h4.65Z"/><path class="cls-5" d="M146,182H143.1v.73h1.6l-1.15,1.87-.45.73h0V188h6.11v-3.34h-4.84l1.16-1.87h3.68V182Zm2.5,3.34v1.87h-4.65v-1.87h4.65Z"/><text class="cls-7" transform="translate(70.42 216.74)">ボイド</text></g></g></svg>