<svg xmlns="http://www.w3.org/2000/svg" viewBox="0 0 271.59 286.34"><defs><style>.cls-1{fill:#00158e;}.cls-2{fill:#0751cf;}.cls-3{fill:gold;}.cls-4{font-size:12px;font-family:MS-UIGothic, MS UI Gothic;}.cls-4,.cls-5,.cls-6{fill:#fff;}.cls-6{font-size:18.68px;font-family:KozGoPr6N-Regular-90ms-RKSJ-H, Kozuka Gothic Pr6N;}</style></defs><g id="Layer_2" data-name="Layer 2"><g id="Layer_2-2" data-name="Layer 2"><polygon class="cls-1" points="149.88 16.16 136.54 16.16 9.18 143.52 9.18 156.85 149.88 16.16"/><polygon class="cls-1" points="187.36 16.16 174.02 16.16 9.18 181 9.18 194.33 187.36 16.16"/><polygon class="cls-1" points="112.4 16.16 99.06 16.16 9.18 106.04 9.18 119.37 112.4 16.16"/><polygon class="cls-1" points="74.92 16.16 61.58 16.16 9.18 68.56 9.18 81.89 74.92 16.16"/><polygon class="cls-1" points="37.44 16.16 24.11 16.16 9.18 31.08 9.18 44.41 37.44 16.16"/><path class="cls-1" d="M203.89,16.16v7.61L16.4,211.26H9.18v59.42H263.7V16.16Zm0,195.1H179.65L203.89,187Zm0-37.57-37.57,37.57H142.17l61.72-61.72Zm0-37.48-75,75H104.69l99.2-99.2Zm0-37.48L91.36,211.26H67.21L203.89,74.58Zm0-37.48-150,150H29.73L203.89,37.1Z"/><polygon class="cls-2" points="258.11 265.98 258.11 214.49 248.8 223.8 248.8 256.67 215.94 256.67 206.62 265.98 258.11 265.98"/><rect class="cls-3" x="260.92" y="77.4" width="5.82" height="69.45"/><rect class="cls-3" x="260.92" y="160.82" width="5.82" height="9.7"/><rect class="cls-3" x="44.81" y="269.07" width="94.28" height="4.66"/><polygon class="cls-3" points="39.94 250.56 47.46 250.56 55.48 242.54 42.94 242.54 24.86 260.62 29.88 260.62 39.94 250.56"/><polygon class="cls-3" points="56.24 250.56 63.76 250.56 71.79 242.54 59.24 242.54 41.16 260.62 46.19 260.62 56.24 250.56"/><polygon class="cls-3" points="72.55 250.56 80.07 250.56 88.09 242.54 75.55 242.54 57.47 260.62 62.49 260.62 72.55 250.56"/><polygon class="cls-3" points="88.86 250.56 96.37 250.56 104.4 242.54 91.86 242.54 73.78 260.62 78.8 260.62 88.86 250.56"/><polygon class="cls-3" points="105.16 250.56 112.68 250.56 120.71 242.54 108.16 242.54 90.08 260.62 95.11 260.62 105.16 250.56"/><polygon class="cls-3" points="121.47 250.56 128.99 250.56 137.01 242.54 124.47 242.54 106.39 260.62 111.42 260.62 121.47 250.56"/><polygon class="cls-3" points="137.78 250.56 145.29 250.56 153.32 242.54 140.78 242.54 122.69 260.62 127.72 260.62 137.78 250.56"/><polygon class="cls-3" points="154.08 250.56 161.6 250.56 169.63 242.54 157.08 242.54 139 260.62 144.03 260.62 154.08 250.56"/><path class="cls-2" d="M237.06,7H208V0h29.1ZM209.13,5.82H235.9V1.16H209.13Z"/><path class="cls-2" d="M271.59,216.89h-5V194.77h5Zm-3.88-1.17h2.72V195.93h-2.72Z"/><path class="cls-2" d="M191.67,286.34H157.91V279h33.76Zm-32.59-1.17H190.5v-5H159.08Z"/><path class="cls-3" d="M24.83,284.78H12v-4.65h12.8Zm-11.64-1.16H23.67v-2.33H13.19Z"/><path class="cls-3" d="M4.66,262.28H0v-38.8H4.66Zm-3.5-1.16H3.49V224.65H1.16Z"/><polygon class="cls-3" points="177.89 5.22 177.89 4.93 45.88 4.93 45.88 2.25 177.6 2.25 177.6 5.22 177.89 5.22 177.89 4.93 177.89 5.22 178.18 5.22 178.18 1.67 45.3 1.67 45.3 5.51 178.18 5.51 178.18 5.22 177.89 5.22"/><text class="cls-4" transform="translate(211.8 227.82)">技術<tspan x="0" y="14.4">背景</tspan></text><path class="cls-5" d="M144.63,138.59A45.47,45.47,0,0,1,140,144l-.75-.75a45.59,45.59,0,0,0,4-4.65Z"/><path class="cls-5" d="M122.32,151.84c0,.59,0,1.18.05,1.77-.76-1.07-1.49-2.13-2.2-3.25a1.38,1.38,0,0,1,.83,0,1.51,1.51,0,0,1,.69.55Z"/><path class="cls-5" d="M132.36,154.59a1.51,1.51,0,0,1-1.82-.18l-.8-.77c-.09-.59-.18-1.17-.29-1.75C130.4,152.82,131.37,153.71,132.36,154.59Z"/><path class="cls-5" d="M124.9,151.12l-1,.37c.12,1.42.2,2.88.22,4.31.36-.12.7-.26,1-.4C125.15,154,125.05,152.53,124.9,151.12Z"/><path class="cls-5" d="M123.63,151.62l-.48.19-.48.16c0,1.11.08,2.23.08,3.36s0,2.27-.07,3.39a1.54,1.54,0,0,0,.82-.56,1.49,1.49,0,0,0,.32-.89C123.82,155.37,123.77,153.51,123.63,151.62Z"/><path class="cls-5" d="M128.08,147a1.41,1.41,0,0,0-.63,1.51c.36,1.82.67,3.7.9,5.57.34-.14.67-.33,1-.49C129,151.34,128.61,149.17,128.08,147Z"/><path class="cls-5" d="M126.15,150.56l-.93.42c.17,1.43.28,2.84.36,4.28l1-.41C126.5,153.4,126.35,152,126.15,150.56Z"/><path class="cls-5" d="M127.39,150c-.3.16-.61.31-.92.45.21,1.4.38,2.83.51,4.27l1-.46q-.12-1.06-.27-2.13C127.62,151.39,127.51,150.68,127.39,150Z"/><path class="cls-5" d="M108.85,156.91v-1.06a44.75,44.75,0,0,0,6.84-.55,42.54,42.54,0,0,0,6.68-1.63v1.12a46.35,46.35,0,0,1-6.68,1.59A47.66,47.66,0,0,1,108.85,156.91Z"/><path class="cls-5" d="M139.29,143.24l.75.75a48.76,48.76,0,0,1-5,4.31,45.58,45.58,0,0,1-5.59,3.51l-.21-1.09a47.94,47.94,0,0,0,5.3-3.37A48.94,48.94,0,0,0,139.29,143.24Z"/><path class="cls-5" d="M90.76,149.94c-.4.43-.8.86-1.21,1.28.22-1.3.46-2.58.74-3.85a1.21,1.21,0,0,1,.56.6,1.48,1.48,0,0,1,.1.89Z"/><path class="cls-5" d="M95.92,159a1.57,1.57,0,0,1-1.17-1.41v-1.11c.35-.48.69-1,1-1.44Q95.8,157,95.92,159Z"/><path class="cls-5" d="M93.1,151.24l-.47-.19-.46-.21c-.93,1.09-1.89,2.15-2.89,3.2l1,.46C91.27,153.44,92.2,152.37,93.1,151.24Z"/><path class="cls-5" d="M91.85,150.7l-.93-.42q-2.25,2.46-4.76,4.77a1.56,1.56,0,0,0,1.82-.22C89.32,153.51,90.62,152.11,91.85,150.7Z"/><path class="cls-5" d="M98.27,150.57a1.39,1.39,0,0,0-1.51.64q-1.56,2.31-3.31,4.56l1.06.36C95.85,154.34,97.11,152.47,98.27,150.57Z"/><path class="cls-5" d="M94.38,151.75l-.95-.38c-.89,1.12-1.83,2.23-2.78,3.29.34.16.68.3,1,.43Q93.09,153.44,94.38,151.75Z"/><path class="cls-5" d="M95.67,152.19l-1-.32C93.85,153,93,154.13,92,155.24l1,.41C94,154.51,94.85,153.36,95.67,152.19Z"/><path class="cls-5" d="M77.65,144l.75-.75a44.48,44.48,0,0,0,5.24,4.45c.47.33.92.68,1.41,1l1.44.93,1.49.86c.25.15.5.28.76.41l.76.39-.77.8A44.5,44.5,0,0,1,77.65,144Z"/><path class="cls-5" d="M108.85,155.85v1.06a48.35,48.35,0,0,1-6.59-.49A47.58,47.58,0,0,1,95.82,155l.63-.93,1.51.43,1.53.36.77.17.77.14c.52.09,1,.2,1.55.26A47,47,0,0,0,108.85,155.85Z"/><path class="cls-5" d="M78.4,143.24l-.75.75a46.47,46.47,0,0,1-4.3-5c-.1-.14-.2-.26-.29-.4h1.31A48.32,48.32,0,0,0,78.4,143.24Z"/><path class="cls-5" d="M78.4,82.35a46.87,46.87,0,0,0-4,4.65H73.06a47.27,47.27,0,0,1,4.59-5.4Z"/><path class="cls-5" d="M95.37,73.75c0-.59,0-1.18-.05-1.77.77,1.07,1.5,2.14,2.2,3.25a1.35,1.35,0,0,1-.82,0,1.54,1.54,0,0,1-.7-.55Z"/><path class="cls-5" d="M85.33,71a1.51,1.51,0,0,1,1.82.18L88,72c.09.59.19,1.17.29,1.75C87.29,72.77,86.32,71.88,85.33,71Z"/><path class="cls-5" d="M92.79,74.47l.95-.37c-.11-1.42-.2-2.88-.22-4.31-.36.12-.7.26-1,.4C92.54,71.63,92.65,73.06,92.79,74.47Z"/><path class="cls-5" d="M94.07,74l.47-.19.48-.16c0-1.11-.08-2.23-.08-3.36S95,68,95,66.87a1.6,1.6,0,0,0-.82.56,1.44,1.44,0,0,0-.31.89C93.87,70.22,93.93,72.08,94.07,74Z"/><path class="cls-5" d="M89.61,78.6a1.41,1.41,0,0,0,.63-1.5c-.36-1.83-.67-3.71-.9-5.58-.34.15-.67.33-1,.5C88.67,74.25,89.09,76.42,89.61,78.6Z"/><path class="cls-5" d="M91.54,75l.93-.42c-.17-1.43-.28-2.84-.36-4.28l-1,.41C91.19,72.19,91.35,73.62,91.54,75Z"/><path class="cls-5" d="M90.3,75.62c.31-.15.61-.31.92-.44-.21-1.41-.37-2.84-.5-4.28l-1,.46q.12,1.08.27,2.13C90.07,74.2,90.18,74.92,90.3,75.62Z"/><path class="cls-5" d="M108.85,68.68v1.06a47.46,47.46,0,0,0-6.85.55,42.15,42.15,0,0,0-6.67,1.63l0-1.12A46.48,46.48,0,0,1,102,69.21,48.91,48.91,0,0,1,108.85,68.68Z"/><path class="cls-5" d="M78.4,82.35l-.75-.75a46.57,46.57,0,0,1,5-4.3,43.76,43.76,0,0,1,5.59-3.52l.2,1.09a47.94,47.94,0,0,0-5.3,3.37A48.94,48.94,0,0,0,78.4,82.35Z"/><path class="cls-5" d="M126.93,75.65l1.21-1.28c-.21,1.3-.46,2.59-.74,3.85a1.26,1.26,0,0,1-.56-.6,1.55,1.55,0,0,1-.1-.89Z"/><path class="cls-5" d="M121.77,66.62a1.52,1.52,0,0,1,1.17,1.4v1.11l-1,1.44C121.9,69.26,121.85,67.94,121.77,66.62Z"/><path class="cls-5" d="M124.59,74.35l.47.19.47.21q1.38-1.62,2.89-3.2l-1-.46C126.42,72.15,125.49,73.23,124.59,74.35Z"/><path class="cls-5" d="M125.85,74.89l.92.42c1.51-1.64,3.09-3.22,4.77-4.77a1.59,1.59,0,0,0-1.83.22C128.37,72.08,127.07,73.48,125.85,74.89Z"/><path class="cls-5" d="M119.42,75a1.42,1.42,0,0,0,1.52-.63q1.55-2.33,3.3-4.57l-1.06-.36C121.84,71.25,120.58,73.12,119.42,75Z"/><path class="cls-5" d="M123.31,73.85l1,.37c.89-1.12,1.83-2.23,2.78-3.29-.33-.16-.68-.3-1-.43Q124.6,72.15,123.31,73.85Z"/><path class="cls-5" d="M122,73.4l1,.32c.86-1.15,1.74-2.26,2.67-3.36l-1-.41C123.71,71.08,122.84,72.23,122,73.4Z"/><path class="cls-5" d="M140,81.6l-.75.75a46.22,46.22,0,0,0-5.23-4.45c-.47-.32-.93-.68-1.41-1L131.2,76l-1.49-.86c-.25-.15-.5-.28-.76-.41l-.76-.39.78-.79A44.34,44.34,0,0,1,140,81.6Z"/><path class="cls-5" d="M108.85,69.74V68.68a48.32,48.32,0,0,1,6.58.49,47.24,47.24,0,0,1,6.44,1.46l-.63.93-1.51-.43-1.53-.36-.77-.17-.77-.14c-.52-.09-1-.2-1.55-.26A46.84,46.84,0,0,0,108.85,69.74Z"/><path class="cls-5" d="M144.63,87h-1.31a48.13,48.13,0,0,0-4-4.65l.75-.75a48.76,48.76,0,0,1,4.31,5C144.44,86.74,144.54,86.87,144.63,87Z"/><path class="cls-5" d="M54.72,84.46c-19.15-5.24-12.84,4.3-3.21,12.05s-26.22-3.2-14.71,12.14S87.72,120,74.14,124.23c-22.63,7-38.94-21.94-48.94-12.12-7.36,7.23,9.87,19.63,35.24,21.9,16.64,1.49,35.61-8.22,24.42-16S40.66,109.74,52,107.71s8.71-8.77,8.71-8.77,4.85,14.33,16.83,13.86S67.87,88.06,54.72,84.46Z"/><path class="cls-5" d="M163,84.46c19.15-5.24,12.84,4.3,3.21,12.05s26.22-3.2,14.72,12.14S130,120,143.56,124.23c22.62,7,38.93-21.94,48.93-12.12,7.36,7.23-9.87,19.63-35.24,21.9-16.64,1.49-35.61-8.22-24.42-16s44.2-8.22,32.83-10.25-8.72-8.77-8.72-8.77-4.85,14.33-16.83,13.86S149.82,88.06,163,84.46Z"/><path class="cls-5" d="M39.9,91c-7.27-6-16.36-3-6.21,1.89S43.26,93.8,39.9,91Z"/><path class="cls-5" d="M176.89,91c7.27-6,16.36-3,6.2,1.89S173.53,93.8,176.89,91Z"/><polygon class="cls-5" points="100.23 142.47 101.12 142.47 101.83 142.47 108.94 142.47 110.53 142.47 110.53 140.88 110.53 139.46 108.94 139.46 108.94 140.88 102.42 140.88 103.57 139.46 104.87 137.86 102.54 137.86 101.83 138.74 101.83 133.77 108.94 133.77 108.94 135.19 110.53 135.19 110.53 133.77 110.53 132.17 108.94 132.17 101.83 132.17 100.23 132.17 100.23 133.77 100.23 140.7 98.8 142.47 100.23 142.47"/><polygon class="cls-5" points="98.8 142.47 98.8 133.77 98.8 132.17 97.2 132.17 90.09 132.17 88.5 132.17 88.5 133.77 88.5 142.47 90.09 142.47 90.09 133.77 94.88 133.77 93.58 135.37 91.13 138.38 93.45 138.38 95.9 135.37 97.2 133.77 97.2 142.47 98.8 142.47"/><polygon class="cls-5" points="118.94 133.78 127.61 133.78 127.61 137.86 122.53 137.86 122.54 137.84 124.98 134.84 122.67 134.84 120.23 137.84 120.21 137.86 118.94 137.86 118.94 139.45 127.61 139.45 127.61 140.88 118.94 140.88 118.94 142.47 129.2 142.47 129.2 142.47 129.2 140.88 129.2 139.45 129.2 137.86 129.2 133.78 129.2 132.21 129.2 132.19 118.94 132.19 118.94 133.78"/><polygon class="cls-5" points="115.83 132.21 115.83 132.22 114.12 134.32 115.83 134.32 115.83 142.47 117.42 142.47 117.42 132.92 117.42 132.21 115.84 132.21 115.83 132.21"/><path class="cls-5" d="M108.85,79.52A7.48,7.48,0,1,0,116.33,87,7.48,7.48,0,0,0,108.85,79.52Zm1.29,5a.54.54,0,0,1,.54-.53.56.56,0,0,1,.38.15.55.55,0,0,1,.16.38v1.11a.54.54,0,0,1-.54.54.54.54,0,0,1-.54-.54Zm-3.67,0A.54.54,0,0,1,107,84a.56.56,0,0,1,.38.15.55.55,0,0,1,.16.38v1.11a.54.54,0,1,1-1.08,0Zm2.38,7.71A5.24,5.24,0,0,1,103.61,87h.79a4.45,4.45,0,0,0,8.89,0h.79A5.24,5.24,0,0,1,108.85,92.23Z"/><text class="cls-6" transform="translate(81.78 113.67)">ペシー</text><path class="cls-5" d="M94.16,121.4c0-1.33.76-2.15,1.76-2.15s1.77.82,1.77,2.15-.77,2.18-1.77,2.18S94.16,122.73,94.16,121.4Zm3.23,0c0-1.14-.59-1.89-1.47-1.89s-1.46.75-1.46,1.89.59,1.91,1.46,1.91S97.39,122.54,97.39,121.4Zm-2.47,0A1.13,1.13,0,0,1,96,120.17a.91.91,0,0,1,.68.3l-.22.26a.64.64,0,0,0-.44-.2c-.39,0-.66.36-.66.87s.25.93.64.93a.8.8,0,0,0,.53-.22l.19.28a1,1,0,0,1-.74.3C95.39,122.69,94.92,122.21,94.92,121.4Z"/><path class="cls-5" d="M100.34,123l.27-.35a1.71,1.71,0,0,0,1.2.49c.57,0,1-.29,1-.76s-.42-.83-1.51-.83v-.41c1,0,1.37-.34,1.37-.78s-.35-.65-.85-.65a1.61,1.61,0,0,0-1,.42l-.29-.34a2,2,0,0,1,1.34-.52c.78,0,1.37.38,1.37,1a1.09,1.09,0,0,1-.88,1v0a1.16,1.16,0,0,1,1,1.06c0,.74-.68,1.19-1.51,1.19A2,2,0,0,1,100.34,123Z"/><path class="cls-5" d="M106.43,121.41c0-1.39.57-2.14,1.5-2.14s1.49.75,1.49,2.14-.57,2.18-1.49,2.18S106.43,122.8,106.43,121.41Zm2.49,0c0-1.19-.41-1.71-1-1.71s-1,.52-1,1.71.42,1.74,1,1.74S108.92,122.61,108.92,121.41Zm-1.4,0a.41.41,0,1,1,.81,0,.41.41,0,1,1-.81,0Z"/><path class="cls-5" d="M114.82,119.81h-2.39v-.47h3v.34a5.25,5.25,0,0,0-1.43,3.83h-.57A5.62,5.62,0,0,1,114.82,119.81Z"/><path class="cls-5" d="M120.83,119.81h-2.4v-.47h3v.34a5.22,5.22,0,0,0-1.44,3.83h-.57A5.58,5.58,0,0,1,120.83,119.81Z"/></g></g></svg>