<svg xmlns="http://www.w3.org/2000/svg" viewBox="0 0 285.37 263.25"><defs><style>.cls-1{fill:#00158e;}.cls-2{fill:#0751cf;}.cls-3{fill:gold;}.cls-4{font-size:12px;font-family:MS-UIGothic, MS UI Gothic;}.cls-4,.cls-6{fill:#fff;}.cls-5{fill:none;stroke:#fff;stroke-miterlimit:10;stroke-width:1.26px;}</style></defs><g id="Layer_2" data-name="Layer 2"><g id="Layer_2-2" data-name="Layer 2"><polygon class="cls-1" points="102.28 18.46 34.73 26.77 27.68 93.06 102.28 18.46"/><polygon class="cls-1" points="275.79 197.24 236.48 1.94 112.29 17.23 26.63 102.88 9.89 260.34 224.8 248.23 275.79 197.24"/><polygon class="cls-1" points="234.1 247.71 285.37 244.82 277.26 204.55 234.1 247.71"/><path class="cls-2" d="M259.57,37.44H228.14V30.07h31.43ZM229.3,36.28h29.1V31.23H229.3Z"/><path class="cls-2" d="M34.53,229.11H0v-5.05H34.53ZM1.16,227.94H33.37v-2.71H1.16Z"/><path class="cls-2" d="M85.75,263.25H72.17V242.69H85.75Zm-12.42-1.16H84.58V243.85H73.33Z"/><path class="cls-3" d="M268.88,118.14H252.19V101.46h16.69ZM253.36,117h14.35V102.62H253.36Z"/><path class="cls-3" d="M42.48,50.63h-25V46.56h25ZM18.62,49.47h22.7V47.72H18.62Z"/><rect class="cls-3" x="65.76" y="248.31" width="1.94" height="12.8"/><rect class="cls-3" x="267.91" y="145.11" width="2.72" height="44.62"/><rect class="cls-3" x="186.82" width="3.1" height="17.85"/><rect class="cls-3" x="12.61" y="218.44" width="17.85" height="1.94"/><rect class="cls-3" x="267.91" y="235.51" width="5.04" height="19.4"/><rect class="cls-3" x="12.07" y="126.75" width="7.49" height="7.5" transform="translate(96.88 27.02) rotate(44.98)"/><rect class="cls-3" x="27.52" y="126.73" width="7.49" height="7.5" transform="translate(101.39 16.09) rotate(44.98)"/><rect class="cls-3" x="42.97" y="126.71" width="7.49" height="7.5" transform="translate(105.9 5.16) rotate(44.98)"/><rect class="cls-3" x="58.42" y="126.69" width="7.49" height="7.5" transform="translate(110.4 -5.76) rotate(44.98)"/><rect class="cls-3" x="73.86" y="126.67" width="7.49" height="7.5" transform="translate(114.91 -16.69) rotate(44.98)"/><rect class="cls-3" x="89.31" y="126.65" width="7.49" height="7.5" transform="translate(119.41 -27.61) rotate(44.98)"/><rect class="cls-3" x="120.86" y="6.6" width="36.08" height="12.42"/><rect class="cls-3" x="171.3" y="241.72" width="11.64" height="18.62"/><rect class="cls-3" x="251.61" y="56.26" width="6.6" height="34.53"/><polygon class="cls-2" points="248.52 214.75 248.52 193.11 244.6 197.03 244.6 210.84 230.79 210.84 226.88 214.75 248.52 214.75"/><polygon class="cls-2" points="223.21 189.2 223.21 210.84 227.12 206.93 227.12 193.11 240.93 193.11 244.85 189.2 223.21 189.2"/><text class="cls-4" transform="translate(32.89 170.54)">技術<tspan x="0" y="14.4">背景</tspan></text><path class="cls-5" d="M170.78,111.18l-47.53,47.53a1.49,1.49,0,0,0,1.38,2.51h0a78.61,78.61,0,0,0,38.68-21.17l18.17-18.17-.73-8.69-6-6Z"/><path class="cls-6" d="M201.08,78.39l-26.9,26.9a1.33,1.33,0,0,0,0,1.88l6.12,6.12a2.73,2.73,0,0,0,3.87,0l25.9-25.91a2.73,2.73,0,0,0,0-3.87L205,78.39A2.73,2.73,0,0,0,201.08,78.39Z"/><polygon class="cls-6" points="181.15 122.21 174.25 115.31 181.45 121.58 181.15 122.21"/><path class="cls-6" d="M133.42,149.07l-.62.63-.91.26-.24-.39C132.25,149.41,132.84,149.25,133.42,149.07Z"/><path class="cls-6" d="M133.41,148.93l-.23-.36c-1,.26-1.92.5-2.89.7a.62.62,0,0,0,.7.31C131.8,149.38,132.61,149.17,133.41,148.93Z"/><path class="cls-6" d="M132.58,149.91l-.43.44-.17-.26Z"/><path class="cls-6" d="M129.9,143.47l.47-.07a11.18,11.18,0,0,0,.78,2.69,20.69,20.69,0,0,0,1.28,2.53l-.48.12a18.75,18.75,0,0,1-1.26-2.54A11.57,11.57,0,0,1,129.9,143.47Z"/><path class="cls-6" d="M135,140.55c.13-.22.27-.44.4-.67q0,.87-.06,1.74a.45.45,0,0,1-.25-.22A.69.69,0,0,1,135,141Z"/><path class="cls-6" d="M131.53,137.58a.77.77,0,0,1,.91.27c.08.14.16.3.23.44s-.11.52-.15.78a8.46,8.46,0,0,0-.44-.77A7.61,7.61,0,0,0,131.53,137.58Z"/><path class="cls-6" d="M134,140.25c.13,0,.26,0,.39.06a15.92,15.92,0,0,1,.91-1.67l-.47-.11A15.07,15.07,0,0,0,134,140.25Z"/><path class="cls-6" d="M134.54,140.33l.39.09a23.13,23.13,0,0,1,1.63-2.49.66.66,0,0,0-.76.25A21.17,21.17,0,0,0,134.54,140.33Z"/><path class="cls-6" d="M132.63,141.3c.1,0,.2-.23.21-.51a7.45,7.45,0,0,1,.17-1.22,9,9,0,0,1,.34-1.2,4.61,4.61,0,0,0-.52,0c-.06.24-.12.48-.16.73a4.55,4.55,0,0,0-.09.73A5.4,5.4,0,0,0,132.63,141.3Z"/><path class="cls-6" d="M133.51,140.2l.38,0q.17-.43.36-.87c.14-.29.28-.57.43-.86l-.48-.07c-.14.29-.27.58-.38.87S133.6,139.9,133.51,140.2Z"/><path class="cls-6" d="M133,140.2h.36a10.88,10.88,0,0,1,.65-1.78l-.5,0a8.06,8.06,0,0,0-.3.91A7.62,7.62,0,0,0,133,140.2Z"/><path class="cls-6" d="M140.76,141.94l-.26.4a19.24,19.24,0,0,0-5.07-2.48l.27-.41A20,20,0,0,1,140.76,141.94Z"/><path class="cls-6" d="M130.37,143.4l-.47.07a6,6,0,0,1-.05-1.4,3.76,3.76,0,0,1,.36-1.38,2.77,2.77,0,0,1,1-1.08,3.26,3.26,0,0,1,1.34-.5c0,.16,0,.32,0,.49a2.71,2.71,0,0,0-1.11.45,2.37,2.37,0,0,0-.75.91,3.59,3.59,0,0,0-.29,1.18A5.92,5.92,0,0,0,130.37,143.4Z"/><path class="cls-6" d="M146.09,148.09l.7-.36c-.3.5-.6,1-.91,1.49a.52.52,0,0,1-.14-.34.65.65,0,0,1,.1-.37Z"/><path class="cls-6" d="M145.8,143.69a.62.62,0,0,1,.14.74l-.21.44-.68.4C145.31,144.75,145.56,144.22,145.8,143.69Z"/><path class="cls-6" d="M145.38,147.21l.3.3c.55-.3,1.12-.6,1.68-.88l-.31-.33C146.49,146.6,145.93,146.9,145.38,147.21Z"/><path class="cls-6" d="M145.78,147.62l.3.31q1.32-.69,2.67-1.32a.64.64,0,0,0-.75-.14C147.25,146.84,146.52,147.22,145.78,147.62Z"/><path class="cls-6" d="M143.22,146.58a.58.58,0,0,0,.71,0c.7-.43,1.42-.86,2.15-1.27l-.33-.31C144.89,145.53,144,146.05,143.22,146.58Z"/><path class="cls-6" d="M145,146.8l.31.3c.55-.31,1.11-.61,1.67-.91l-.32-.32Z"/><path class="cls-6" d="M144.54,146.4l.32.3c.54-.32,1.09-.63,1.65-.94l-.32-.31Z"/><path class="cls-6" d="M150.74,151.92l-.39.26a34.49,34.49,0,0,0-3.54-4.46l.44-.22A33.73,33.73,0,0,1,150.74,151.92Z"/><path class="cls-6" d="M140.5,142.34l.26-.4a34.42,34.42,0,0,1,4.26,3.34l-.42.26A32.48,32.48,0,0,0,140.5,142.34Z"/><path class="cls-6" d="M152.38,159.52c.26.07.5.15.74.23a7.91,7.91,0,0,1-.85.13,6,6,0,0,1-.85,0c0-.06.07-.11.15-.17a1,1,0,0,1,.34-.11C152.07,159.58,152.23,159.56,152.38,159.52Z"/><path class="cls-6" d="M154.62,155.74a.65.65,0,0,1-.22.76l-.41.28h-.79C153.69,156.45,154.16,156.1,154.62,155.74Z"/><path class="cls-6" d="M152.42,158.54l.05.38a11,11,0,0,1,1.84.45,4.35,4.35,0,0,0,0-.51A13.29,13.29,0,0,0,152.42,158.54Z"/><path class="cls-6" d="M152.48,159.05c0,.13,0,.25,0,.37.24.06.47.13.71.21s.46.16.69.26a7.33,7.33,0,0,1,1.34.74.76.76,0,0,0-.35-.86A11.18,11.18,0,0,0,152.48,159.05Z"/><path class="cls-6" d="M151,157.05a.58.58,0,0,0,.59.33,20.7,20.7,0,0,1,2.49,0c0-.16-.08-.31-.12-.46-.5,0-1,0-1.49,0S151.46,157,151,157.05Z"/><path class="cls-6" d="M152.32,158c0,.13.05.26.08.39a15.27,15.27,0,0,1,1.88.29l-.06-.49A17.46,17.46,0,0,0,152.32,158Z"/><path class="cls-6" d="M152.19,157.49c0,.13.07.26.1.39.63,0,1.27.07,1.9.15l-.05-.24,0-.23c-.32,0-.63-.05-1-.06Z"/><path class="cls-6" d="M149.22,162.78l.06-.46a5.81,5.81,0,0,0,1.38,0,3.19,3.19,0,0,0,1.26-.38,2.41,2.41,0,0,0,.89-.93,3.47,3.47,0,0,0,.34-1.28l.46.18a3.72,3.72,0,0,1-.44,1.42,2.66,2.66,0,0,1-1.08,1,3.57,3.57,0,0,1-1.42.41A5.4,5.4,0,0,1,149.22,162.78Z"/><path class="cls-6" d="M150.35,152.18l.39-.26a25.06,25.06,0,0,1,1.37,2.34,16.39,16.39,0,0,1,1.06,2.52h-.49a16.44,16.44,0,0,0-1-2.37A23.82,23.82,0,0,0,150.35,152.18Z"/><path class="cls-6" d="M142.52,158.33l-.61.48c.19-.55.4-1.09.61-1.63a.51.51,0,0,1,.19.3.75.75,0,0,1,0,.39Z"/><path class="cls-6" d="M143.74,162.58a.65.65,0,0,1-.31-.7l.11-.47.57-.54C144,161.43,143.86,162,143.74,162.58Z"/><path class="cls-6" d="M143.39,159l-.36-.23-1.47,1.2.37.26C142.42,159.87,142.91,159.46,143.39,159Z"/><path class="cls-6" d="M142.91,158.72l-.35-.24c-.77.62-1.56,1.22-2.36,1.81a.63.63,0,0,0,.76,0C141.62,159.78,142.27,159.25,142.91,158.72Z"/><path class="cls-6" d="M145.6,159.17a.58.58,0,0,0-.69.14c-.59.58-1.2,1.15-1.82,1.71l.39.23C144.21,160.58,144.92,159.88,145.6,159.17Z"/><path class="cls-6" d="M143.87,159.35l-.36-.23c-.47.42-1,.83-1.45,1.23l.38.25C142.92,160.2,143.4,159.78,143.87,159.35Z"/><path class="cls-6" d="M144.36,159.65l-.36-.22c-.47.43-.95.85-1.43,1.26l.39.24C143.43,160.51,143.9,160.09,144.36,159.65Z"/><path class="cls-6" d="M141.89,158.83l-.39.3a32.56,32.56,0,0,1-2.58-2.08l.46-.22C140.19,157.53,141,158.2,141.89,158.83Z"/><path class="cls-6" d="M149.28,162.32l-.06.46a11.51,11.51,0,0,1-2.64-.74,21.17,21.17,0,0,1-2.44-1.19l.35-.35a18.53,18.53,0,0,0,2.33,1.13A12,12,0,0,0,149.28,162.32Z"/><path class="cls-6" d="M139.4,136.16c.13-.22.27-.44.4-.67q0,.87-.06,1.74a.45.45,0,0,1-.25-.22.66.66,0,0,1-.09-.36Z"/><path class="cls-6" d="M135.92,133.19a.77.77,0,0,1,.91.27c.08.14.16.3.23.45s-.11.51-.15.77a8.46,8.46,0,0,0-.44-.77C136.3,133.67,136.12,133.42,135.92,133.19Z"/><path class="cls-6" d="M138.41,135.86l.39.06a15.92,15.92,0,0,1,.91-1.67l-.47-.11A15.07,15.07,0,0,0,138.41,135.86Z"/><path class="cls-6" d="M138.93,135.94l.39.09a23.13,23.13,0,0,1,1.63-2.49.66.66,0,0,0-.76.25A21.17,21.17,0,0,0,138.93,135.94Z"/><path class="cls-6" d="M137,136.91c.1,0,.19-.23.21-.51a7.45,7.45,0,0,1,.17-1.22,9,9,0,0,1,.34-1.2,4.61,4.61,0,0,0-.52,0c-.06.24-.12.48-.16.73a6.09,6.09,0,0,0-.1.73A5.84,5.84,0,0,0,137,136.91Z"/><path class="cls-6" d="M137.9,135.81l.38,0q.16-.43.36-.87c.14-.29.28-.57.43-.86l-.48-.07c-.14.29-.27.58-.38.87S138,135.51,137.9,135.81Z"/><path class="cls-6" d="M137.41,135.81h.36a10.88,10.88,0,0,1,.65-1.78l-.51,0c-.11.3-.21.61-.29.91A7.62,7.62,0,0,0,137.41,135.81Z"/><path class="cls-6" d="M145.15,137.55l-.26.4a19.24,19.24,0,0,0-5.07-2.48l.27-.41A20,20,0,0,1,145.15,137.55Z"/><path class="cls-6" d="M136.9,134.72c0,.16,0,.32-.05.49a2.66,2.66,0,0,0-1.11.45,2.45,2.45,0,0,0-.75.91,3.19,3.19,0,0,0-.27,1.05l-.46-.13a3.67,3.67,0,0,1,.34-1.19,2.77,2.77,0,0,1,1-1.08A3.26,3.26,0,0,1,136.9,134.72Z"/><path class="cls-6" d="M150.48,143.7l.69-.36c-.29.5-.59,1-.9,1.49a.52.52,0,0,1-.14-.34.65.65,0,0,1,.1-.37Z"/><path class="cls-6" d="M150.19,139.3a.62.62,0,0,1,.14.74l-.21.44-.68.4C149.7,140.36,150,139.83,150.19,139.3Z"/><path class="cls-6" d="M149.77,142.82l.3.3c.55-.3,1.12-.6,1.68-.88l-.31-.33C150.88,142.21,150.32,142.51,149.77,142.82Z"/><path class="cls-6" d="M150.17,143.23l.3.31q1.32-.69,2.67-1.32a.64.64,0,0,0-.75-.14C151.64,142.45,150.91,142.83,150.17,143.23Z"/><path class="cls-6" d="M147.61,142.19a.58.58,0,0,0,.71,0c.7-.43,1.42-.86,2.15-1.27l-.33-.31C149.28,141.14,148.43,141.66,147.61,142.19Z"/><path class="cls-6" d="M149.35,142.41l.31.3c.55-.31,1.11-.61,1.67-.91l-.32-.32Z"/><path class="cls-6" d="M148.93,142l.32.3c.54-.32,1.09-.63,1.65-.94l-.32-.31Z"/><path class="cls-6" d="M155.13,147.53l-.39.26a34.49,34.49,0,0,0-3.54-4.46l.44-.22A33.73,33.73,0,0,1,155.13,147.53Z"/><path class="cls-6" d="M144.89,138l.26-.4a34.42,34.42,0,0,1,4.26,3.34l-.42.26A32.48,32.48,0,0,0,144.89,138Z"/><path class="cls-6" d="M156.77,155.13c.26.07.5.15.74.23a8.32,8.32,0,0,1-.85.13,6,6,0,0,1-.85,0c0-.06.07-.11.15-.17a1,1,0,0,1,.34-.11C156.46,155.19,156.62,155.17,156.77,155.13Z"/><path class="cls-6" d="M159,151.35a.64.64,0,0,1-.23.76l-.4.28h-.79C158.07,152.06,158.55,151.71,159,151.35Z"/><path class="cls-6" d="M156.81,154.15l.05.38a11,11,0,0,1,1.84.45,4.35,4.35,0,0,0,0-.51A13.29,13.29,0,0,0,156.81,154.15Z"/><path class="cls-6" d="M156.87,154.66c0,.13,0,.25,0,.37l.71.21c.23.08.46.16.69.26a7.33,7.33,0,0,1,1.34.74.74.74,0,0,0-.35-.85A10.67,10.67,0,0,0,156.87,154.66Z"/><path class="cls-6" d="M155.36,152.66a.57.57,0,0,0,.59.33,20.7,20.7,0,0,1,2.49,0c0-.16-.08-.31-.12-.46-.5,0-1,0-1.49,0S155.85,152.61,155.36,152.66Z"/><path class="cls-6" d="M156.71,153.63c0,.13,0,.25.08.38a15.27,15.27,0,0,1,1.88.29l-.06-.49A15.26,15.26,0,0,0,156.71,153.63Z"/><path class="cls-6" d="M156.58,153.1c0,.13.07.26.1.39.63,0,1.27.07,1.9.15l-.05-.24-.05-.23-.95-.06Z"/><path class="cls-6" d="M158,155.55a3.89,3.89,0,0,1-.44,1.43,2.73,2.73,0,0,1-1.08,1.05,3.64,3.64,0,0,1-1.35.41c0-.16-.07-.32-.11-.47h0a3.36,3.36,0,0,0,1.26-.38,2.41,2.41,0,0,0,.89-.93,3.47,3.47,0,0,0,.34-1.29Z"/><path class="cls-6" d="M154.74,147.79l.39-.26a25.06,25.06,0,0,1,1.37,2.34,16.39,16.39,0,0,1,1.06,2.52h-.49a16.44,16.44,0,0,0-1-2.37A23.82,23.82,0,0,0,154.74,147.79Z"/><path class="cls-6" d="M143.79,131.77c.13-.22.27-.44.4-.67,0,.58,0,1.17-.06,1.74a.45.45,0,0,1-.25-.22.59.59,0,0,1-.09-.36Z"/><path class="cls-6" d="M140.31,128.8a.77.77,0,0,1,.91.27c.08.14.16.3.23.45a6.55,6.55,0,0,0-.15.77,8.46,8.46,0,0,0-.44-.77C140.69,129.28,140.51,129,140.31,128.8Z"/><path class="cls-6" d="M142.8,131.47c.13,0,.26,0,.39.06a15.92,15.92,0,0,1,.91-1.67l-.47-.11A15.07,15.07,0,0,0,142.8,131.47Z"/><path class="cls-6" d="M143.32,131.55l.39.09a23.13,23.13,0,0,1,1.63-2.49.66.66,0,0,0-.76.25A21.17,21.17,0,0,0,143.32,131.55Z"/><path class="cls-6" d="M141.41,132.52c.1,0,.19-.23.21-.51a7.45,7.45,0,0,1,.17-1.22,9,9,0,0,1,.34-1.2,4.61,4.61,0,0,0-.52,0c-.06.24-.12.48-.16.73a6.09,6.09,0,0,0-.1.73A5.84,5.84,0,0,0,141.41,132.52Z"/><path class="cls-6" d="M142.29,131.42l.38,0q.17-.44.36-.87c.14-.29.28-.57.43-.86l-.48-.07c-.14.29-.27.58-.38.87S142.38,131.12,142.29,131.42Z"/><path class="cls-6" d="M141.8,131.42h.36a10.66,10.66,0,0,1,.65-1.79l-.51,0c-.11.3-.21.61-.3.91S141.85,131.11,141.8,131.42Z"/><path class="cls-6" d="M149.54,133.16l-.26.4a19.24,19.24,0,0,0-5.07-2.48l.26-.41A19.92,19.92,0,0,1,149.54,133.16Z"/><path class="cls-6" d="M141.29,130.33c0,.16,0,.32,0,.49a2.66,2.66,0,0,0-1.11.45,2.45,2.45,0,0,0-.75.91,3.19,3.19,0,0,0-.27,1l-.46-.13a3.55,3.55,0,0,1,.34-1.18,2.73,2.73,0,0,1,1-1.09A3.26,3.26,0,0,1,141.29,130.33Z"/><path class="cls-6" d="M154.87,139.31l.69-.36c-.29.5-.59,1-.9,1.49a.52.52,0,0,1-.14-.34.65.65,0,0,1,.1-.37Z"/><path class="cls-6" d="M154.58,134.91a.62.62,0,0,1,.14.74l-.21.44-.68.4C154.09,136,154.34,135.44,154.58,134.91Z"/><path class="cls-6" d="M154.16,138.43l.3.3c.55-.3,1.12-.6,1.68-.88l-.31-.33C155.27,137.82,154.71,138.12,154.16,138.43Z"/><path class="cls-6" d="M154.56,138.84l.3.31c.87-.46,1.77-.9,2.67-1.32a.64.64,0,0,0-.75-.14C156,138.06,155.3,138.44,154.56,138.84Z"/><path class="cls-6" d="M152,137.8a.6.6,0,0,0,.72,0c.7-.43,1.42-.86,2.15-1.27l-.33-.31C153.67,136.75,152.82,137.27,152,137.8Z"/><path class="cls-6" d="M153.74,138l.31.3c.55-.31,1.11-.61,1.67-.91l-.32-.32Z"/><path class="cls-6" d="M153.32,137.62l.32.3c.54-.32,1.09-.63,1.65-.94l-.32-.31Z"/><path class="cls-6" d="M159.52,143.14l-.39.26a34.49,34.49,0,0,0-3.54-4.46l.44-.22A33.73,33.73,0,0,1,159.52,143.14Z"/><path class="cls-6" d="M149.28,133.56l.26-.4a34.42,34.42,0,0,1,4.26,3.34l-.42.26A32.48,32.48,0,0,0,149.28,133.56Z"/><path class="cls-6" d="M161.16,150.74c.26.07.5.15.74.23a8.32,8.32,0,0,1-.85.13,6,6,0,0,1-.85,0c0-.06.07-.11.15-.17a1,1,0,0,1,.34-.11C160.85,150.8,161,150.78,161.16,150.74Z"/><path class="cls-6" d="M163.4,147a.64.64,0,0,1-.23.76l-.4.28H162C162.46,147.67,162.94,147.32,163.4,147Z"/><path class="cls-6" d="M161.2,149.76l.05.38a11,11,0,0,1,1.84.45,4.35,4.35,0,0,0,0-.51A13.29,13.29,0,0,0,161.2,149.76Z"/><path class="cls-6" d="M161.26,150.27c0,.13,0,.25,0,.37l.71.21c.23.08.46.16.69.26a7.33,7.33,0,0,1,1.34.74.74.74,0,0,0-.35-.85A10.67,10.67,0,0,0,161.26,150.27Z"/><path class="cls-6" d="M159.75,148.27a.57.57,0,0,0,.59.33,20.7,20.7,0,0,1,2.49,0c0-.16-.08-.31-.12-.46-.5,0-1,0-1.49,0S160.24,148.22,159.75,148.27Z"/><path class="cls-6" d="M161.1,149.24c0,.13.05.25.08.38a15.27,15.27,0,0,1,1.88.29l-.06-.49A15.26,15.26,0,0,0,161.1,149.24Z"/><path class="cls-6" d="M161,148.71c0,.13.07.26.1.39.63,0,1.27.07,1.9.15l-.05-.24,0-.23-1-.06Z"/><path class="cls-6" d="M162.39,151.17a3.85,3.85,0,0,1-.44,1.42,2.73,2.73,0,0,1-1.08,1,3.64,3.64,0,0,1-1.36.41c0-.16-.06-.32-.1-.47h0a3.19,3.19,0,0,0,1.26-.38,2.41,2.41,0,0,0,.89-.93,3.47,3.47,0,0,0,.34-1.28Z"/><path class="cls-6" d="M159.13,143.4l.39-.26a25.06,25.06,0,0,1,1.37,2.34A16.39,16.39,0,0,1,162,148h-.49a16.44,16.44,0,0,0-1-2.37A23.82,23.82,0,0,0,159.13,143.4Z"/><path class="cls-6" d="M148.18,127.38c.13-.22.26-.44.4-.66,0,.57,0,1.16-.06,1.73a.42.42,0,0,1-.25-.22.59.59,0,0,1-.09-.36Z"/><path class="cls-6" d="M144.7,124.41a.77.77,0,0,1,.91.27c.08.14.16.3.23.45a6.55,6.55,0,0,0-.15.77,8.46,8.46,0,0,0-.44-.77C145.08,124.89,144.9,124.64,144.7,124.41Z"/><path class="cls-6" d="M147.19,127.08l.39.06a15.92,15.92,0,0,1,.91-1.67l-.47-.11A15.07,15.07,0,0,0,147.19,127.08Z"/><path class="cls-6" d="M147.71,127.16l.39.09a23.13,23.13,0,0,1,1.63-2.49.66.66,0,0,0-.76.25A21.17,21.17,0,0,0,147.71,127.16Z"/><path class="cls-6" d="M145.8,128.13c.1,0,.19-.23.21-.51a7.45,7.45,0,0,1,.17-1.22,9,9,0,0,1,.34-1.2,4.61,4.61,0,0,0-.52,0c-.06.24-.12.48-.16.73a6,6,0,0,0-.1.74A5.78,5.78,0,0,0,145.8,128.13Z"/><path class="cls-6" d="M146.68,127l.38,0q.16-.44.36-.87c.14-.29.28-.57.43-.86l-.48-.07c-.14.29-.27.58-.38.87S146.77,126.73,146.68,127Z"/><path class="cls-6" d="M146.19,127c.11,0,.24,0,.36,0a10.66,10.66,0,0,1,.65-1.79l-.51,0c-.11.3-.21.61-.3.91S146.24,126.72,146.19,127Z"/><path class="cls-6" d="M153.93,128.77l-.26.4a19.24,19.24,0,0,0-5.07-2.48l.26-.41A19.92,19.92,0,0,1,153.93,128.77Z"/><path class="cls-6" d="M145.68,125.94c0,.16,0,.32-.05.49a2.66,2.66,0,0,0-1.11.45,2.45,2.45,0,0,0-.75.91,3.19,3.19,0,0,0-.27,1l-.46-.13a3.55,3.55,0,0,1,.34-1.18,2.73,2.73,0,0,1,1-1.09A3.26,3.26,0,0,1,145.68,125.94Z"/><path class="cls-6" d="M159.26,134.92l.69-.36c-.29.5-.59,1-.9,1.49a.52.52,0,0,1-.14-.34.65.65,0,0,1,.1-.37Z"/><path class="cls-6" d="M159,130.52a.62.62,0,0,1,.14.74l-.21.44-.68.4C158.48,131.58,158.73,131.05,159,130.52Z"/><path class="cls-6" d="M158.55,134l.3.3c.55-.3,1.12-.6,1.68-.88l-.31-.33C159.66,133.43,159.1,133.73,158.55,134Z"/><path class="cls-6" d="M159,134.45l.3.31c.87-.46,1.77-.9,2.67-1.32a.62.62,0,0,0-.75-.13C160.42,133.67,159.69,134.05,159,134.45Z"/><path class="cls-6" d="M156.38,133.41a.6.6,0,0,0,.72,0c.7-.43,1.42-.86,2.15-1.27l-.33-.31C158.06,132.36,157.21,132.88,156.38,133.41Z"/><path class="cls-6" d="M158.13,133.63l.31.3c.55-.31,1.11-.61,1.67-.91l-.32-.32Z"/><path class="cls-6" d="M157.71,133.23l.32.3c.54-.32,1.09-.63,1.65-.94l-.32-.31Z"/><path class="cls-6" d="M163.91,138.75l-.39.26a34.49,34.49,0,0,0-3.54-4.46l.44-.22A33.73,33.73,0,0,1,163.91,138.75Z"/><path class="cls-6" d="M153.67,129.17l.26-.4a34.42,34.42,0,0,1,4.26,3.34l-.42.26A32.48,32.48,0,0,0,153.67,129.17Z"/><path class="cls-6" d="M165.55,146.35c.26.07.5.15.74.23a8.32,8.32,0,0,1-.85.13,8.1,8.1,0,0,1-.85,0c0-.07.07-.12.15-.18a.91.91,0,0,1,.34-.11A3.55,3.55,0,0,0,165.55,146.35Z"/><path class="cls-6" d="M167.79,142.57a.64.64,0,0,1-.23.76l-.4.28c-.26,0-.52,0-.79,0C166.85,143.28,167.33,142.93,167.79,142.57Z"/><path class="cls-6" d="M165.59,145.37l0,.38a11,11,0,0,1,1.84.45,4.35,4.35,0,0,0,0-.51A13.54,13.54,0,0,0,165.59,145.37Z"/><path class="cls-6" d="M165.65,145.88c0,.13,0,.25,0,.37l.71.21c.23.08.46.16.69.26a7.33,7.33,0,0,1,1.34.74.74.74,0,0,0-.35-.85A10.67,10.67,0,0,0,165.65,145.88Z"/><path class="cls-6" d="M164.14,143.88a.57.57,0,0,0,.59.33,20.7,20.7,0,0,1,2.49,0c0-.16-.08-.31-.12-.46-.5,0-1,0-1.49,0S164.63,143.83,164.14,143.88Z"/><path class="cls-6" d="M165.49,144.85c0,.13,0,.25.08.38a15.27,15.27,0,0,1,1.88.29l-.06-.49A15.26,15.26,0,0,0,165.49,144.85Z"/><path class="cls-6" d="M165.36,144.32c0,.13.07.26.1.39a17.39,17.39,0,0,1,1.9.16l-.05-.24-.05-.24-.95-.06Z"/><path class="cls-6" d="M166.78,146.78a3.85,3.85,0,0,1-.44,1.42,2.73,2.73,0,0,1-1.08,1.05,3.64,3.64,0,0,1-1.36.41c0-.16-.06-.32-.1-.47h0a3.19,3.19,0,0,0,1.26-.38,2.41,2.41,0,0,0,.89-.93,3.47,3.47,0,0,0,.34-1.28Z"/><path class="cls-6" d="M163.52,139l.39-.26a25.06,25.06,0,0,1,1.37,2.34,16.39,16.39,0,0,1,1.06,2.52h-.49a16.44,16.44,0,0,0-1-2.37A23.82,23.82,0,0,0,163.52,139Z"/><path class="cls-6" d="M152.57,123c.13-.22.26-.44.4-.66,0,.57,0,1.16-.06,1.73a.44.44,0,0,1-.25-.21.64.64,0,0,1-.09-.37Z"/><path class="cls-6" d="M149.09,120a.77.77,0,0,1,.91.27c.08.14.16.3.23.45a6.55,6.55,0,0,0-.15.77,8.46,8.46,0,0,0-.44-.77C149.47,120.5,149.29,120.26,149.09,120Z"/><path class="cls-6" d="M151.58,122.69l.39.06a17,17,0,0,1,.91-1.67l-.47-.11A13.56,13.56,0,0,0,151.58,122.69Z"/><path class="cls-6" d="M152.1,122.77l.39.09a23.13,23.13,0,0,1,1.63-2.49.66.66,0,0,0-.76.25A21.17,21.17,0,0,0,152.1,122.77Z"/><path class="cls-6" d="M150.19,123.74c.1,0,.19-.22.21-.51a7.19,7.19,0,0,1,.17-1.21,8.72,8.72,0,0,1,.34-1.21,4.61,4.61,0,0,0-.52,0,5.93,5.93,0,0,0-.16.73,6,6,0,0,0-.1.74A5.78,5.78,0,0,0,150.19,123.74Z"/><path class="cls-6" d="M151.07,122.64l.38,0q.17-.44.36-.87c.14-.29.28-.57.43-.86l-.49-.07c-.13.29-.26.58-.37.87S151.16,122.34,151.07,122.64Z"/><path class="cls-6" d="M150.58,122.64c.11,0,.24,0,.36,0a10.66,10.66,0,0,1,.65-1.79l-.51,0c-.11.3-.21.61-.3.91S150.63,122.33,150.58,122.64Z"/><path class="cls-6" d="M158.32,124.38l-.26.4A19.24,19.24,0,0,0,153,122.3l.26-.41A19.92,19.92,0,0,1,158.32,124.38Z"/><path class="cls-6" d="M150.07,121.55a3.87,3.87,0,0,0,0,.49,2.66,2.66,0,0,0-1.11.45,2.45,2.45,0,0,0-.75.91,3.19,3.19,0,0,0-.27,1l-.46-.12a3.32,3.32,0,0,1,.34-1.19,2.73,2.73,0,0,1,1-1.09A3.26,3.26,0,0,1,150.07,121.55Z"/><path class="cls-6" d="M163.65,130.53l.69-.36c-.29.5-.59,1-.9,1.49a.52.52,0,0,1-.14-.34.65.65,0,0,1,.1-.37Z"/><path class="cls-6" d="M163.36,126.13a.62.62,0,0,1,.14.74l-.21.44-.68.4C162.87,127.19,163.12,126.66,163.36,126.13Z"/><path class="cls-6" d="M162.93,129.65l.31.3c.55-.3,1.12-.59,1.68-.88l-.31-.33Z"/><path class="cls-6" d="M163.34,130.06l.3.31c.87-.46,1.77-.9,2.67-1.32a.62.62,0,0,0-.75-.13C164.81,129.29,164.08,129.66,163.34,130.06Z"/><path class="cls-6" d="M160.77,129a.6.6,0,0,0,.72,0c.7-.43,1.42-.86,2.15-1.27l-.33-.31C162.45,128,161.6,128.49,160.77,129Z"/><path class="cls-6" d="M162.52,129.24l.31.3c.55-.31,1.11-.61,1.67-.91-.11-.1-.21-.21-.32-.32Z"/><path class="cls-6" d="M162.1,128.85l.32.29c.54-.32,1.09-.63,1.65-.94l-.32-.31C163.2,128.2,162.64,128.52,162.1,128.85Z"/><path class="cls-6" d="M168.3,134.36l-.39.26a34.49,34.49,0,0,0-3.54-4.46l.44-.22A34.6,34.6,0,0,1,168.3,134.36Z"/><path class="cls-6" d="M158.06,124.78l.26-.4a34.42,34.42,0,0,1,4.26,3.34l-.42.26A32.48,32.48,0,0,0,158.06,124.78Z"/><path class="cls-6" d="M169.94,142l.74.23a8.32,8.32,0,0,1-.85.13,8.1,8.1,0,0,1-.85,0c0-.07.07-.12.15-.18a.91.91,0,0,1,.34-.11A3.55,3.55,0,0,0,169.94,142Z"/><path class="cls-6" d="M172.18,138.18a.65.65,0,0,1-.23.76l-.4.28h-.79C171.24,138.89,171.72,138.54,172.18,138.18Z"/><path class="cls-6" d="M170,141l.05.38a11,11,0,0,1,1.84.45,4.35,4.35,0,0,0,0-.51A13.54,13.54,0,0,0,170,141Z"/><path class="cls-6" d="M170,141.49c0,.13,0,.25,0,.37l.71.21c.23.08.46.16.69.26a7.33,7.33,0,0,1,1.34.74.74.74,0,0,0-.35-.85A10.67,10.67,0,0,0,170,141.49Z"/><path class="cls-6" d="M168.53,139.49a.57.57,0,0,0,.59.33,20.7,20.7,0,0,1,2.49,0c0-.16-.08-.31-.12-.46-.5,0-1,0-1.49,0S169,139.44,168.53,139.49Z"/><path class="cls-6" d="M169.88,140.46c0,.13.05.25.08.38a15.27,15.27,0,0,1,1.88.29l-.06-.49A15.26,15.26,0,0,0,169.88,140.46Z"/><path class="cls-6" d="M169.75,139.93c0,.13.07.26.1.39a17.39,17.39,0,0,1,1.9.16l-.05-.24,0-.24-1-.06Z"/><path class="cls-6" d="M171.17,142.39a3.85,3.85,0,0,1-.44,1.42,2.73,2.73,0,0,1-1.08,1.05,3.64,3.64,0,0,1-1.36.41c0-.16-.06-.32-.1-.47h0a3,3,0,0,0,1.26-.38,2.41,2.41,0,0,0,.89-.93,3.47,3.47,0,0,0,.34-1.28Z"/><path class="cls-6" d="M167.91,134.62l.39-.26a25.06,25.06,0,0,1,1.37,2.34,16.39,16.39,0,0,1,1.06,2.52h-.49a16.44,16.44,0,0,0-1-2.37A25.17,25.17,0,0,0,167.91,134.62Z"/><path class="cls-6" d="M157,118.6c.13-.22.26-.44.4-.66,0,.57,0,1.16-.06,1.73a.4.4,0,0,1-.25-.21.64.64,0,0,1-.09-.37Z"/><path class="cls-6" d="M153.48,115.63a.77.77,0,0,1,.91.27c.08.14.16.3.23.45a6.55,6.55,0,0,0-.15.77,8.46,8.46,0,0,0-.44-.77C153.86,116.11,153.68,115.87,153.48,115.63Z"/><path class="cls-6" d="M156,118.3l.39.06a17,17,0,0,1,.91-1.67l-.47-.11A13.56,13.56,0,0,0,156,118.3Z"/><path class="cls-6" d="M156.49,118.38l.39.09a23.13,23.13,0,0,1,1.63-2.49.66.66,0,0,0-.76.25A19.46,19.46,0,0,0,156.49,118.38Z"/><path class="cls-6" d="M154.58,119.35c.1,0,.19-.22.21-.51a7.34,7.34,0,0,1,.17-1.21,8.72,8.72,0,0,1,.34-1.21,4.61,4.61,0,0,0-.52,0,6.36,6.36,0,0,0-.16.73,6,6,0,0,0-.1.74A5.78,5.78,0,0,0,154.58,119.35Z"/><path class="cls-6" d="M155.46,118.25l.38,0q.16-.44.36-.87c.14-.29.28-.57.43-.86l-.49-.07c-.13.29-.26.58-.37.88A9.37,9.37,0,0,0,155.46,118.25Z"/><path class="cls-6" d="M155,118.25c.11,0,.24,0,.36,0a10.66,10.66,0,0,1,.65-1.79l-.51,0c-.11.3-.21.61-.3.91S155,117.94,155,118.25Z"/><path class="cls-6" d="M162.71,120l-.26.4a19.24,19.24,0,0,0-5.07-2.48l.26-.41A19.92,19.92,0,0,1,162.71,120Z"/><path class="cls-6" d="M154.46,117.16a3.87,3.87,0,0,0-.05.49,2.8,2.8,0,0,0-1.11.45,2.45,2.45,0,0,0-.75.91,3.19,3.19,0,0,0-.27,1l-.46-.12a3.32,3.32,0,0,1,.34-1.19,2.73,2.73,0,0,1,1-1.09A3.26,3.26,0,0,1,154.46,117.16Z"/><path class="cls-6" d="M168,126.14l.69-.36c-.29.5-.59,1-.9,1.49a.52.52,0,0,1-.14-.33.66.66,0,0,1,.1-.38Z"/><path class="cls-6" d="M167.75,121.74a.62.62,0,0,1,.14.74l-.21.44-.68.4C167.26,122.8,167.51,122.27,167.75,121.74Z"/><path class="cls-6" d="M167.32,125.26l.31.3c.55-.3,1.12-.59,1.68-.88l-.31-.33Z"/><path class="cls-6" d="M167.73,125.67l.3.31c.87-.46,1.77-.9,2.67-1.32a.62.62,0,0,0-.75-.13Q168.83,125.09,167.73,125.67Z"/><path class="cls-6" d="M165.16,124.63a.6.6,0,0,0,.72,0c.7-.43,1.42-.85,2.15-1.27l-.33-.31C166.84,123.58,166,124.1,165.16,124.63Z"/><path class="cls-6" d="M166.91,124.85l.31.3c.55-.31,1.11-.61,1.67-.91l-.32-.32Z"/><path class="cls-6" d="M166.49,124.46l.32.29c.54-.32,1.09-.63,1.65-.94l-.32-.31C167.59,123.81,167,124.13,166.49,124.46Z"/><path class="cls-6" d="M172.69,130l-.39.26a34.49,34.49,0,0,0-3.54-4.46l.44-.22A34.6,34.6,0,0,1,172.69,130Z"/><path class="cls-6" d="M162.45,120.39l.26-.4a34.42,34.42,0,0,1,4.26,3.34l-.42.26A32.48,32.48,0,0,0,162.45,120.39Z"/><path class="cls-6" d="M174.33,137.57l.74.23a8.32,8.32,0,0,1-.85.13,8.1,8.1,0,0,1-.85,0c0-.07.07-.12.15-.18a.91.91,0,0,1,.34-.11A3.55,3.55,0,0,0,174.33,137.57Z"/><path class="cls-6" d="M176.57,133.79a.67.67,0,0,1-.23.76l-.4.28c-.26,0-.52,0-.79,0C175.63,134.5,176.11,134.15,176.57,133.79Z"/><path class="cls-6" d="M174.37,136.59l0,.38a11,11,0,0,1,1.84.45,4.35,4.35,0,0,0,0-.51A13.54,13.54,0,0,0,174.37,136.59Z"/><path class="cls-6" d="M174.42,137.1c0,.13,0,.25,0,.37l.71.21.69.26a7.33,7.33,0,0,1,1.34.74.74.74,0,0,0-.35-.85A10.6,10.6,0,0,0,174.42,137.1Z"/><path class="cls-6" d="M172.92,135.1a.57.57,0,0,0,.59.33,20.7,20.7,0,0,1,2.49,0c0-.16-.08-.31-.12-.46-.5,0-1,0-1.49,0S173.41,135.05,172.92,135.1Z"/><path class="cls-6" d="M174.27,136.07c0,.13,0,.26.08.38a15.27,15.27,0,0,1,1.88.29l-.06-.49A15.44,15.44,0,0,0,174.27,136.07Z"/><path class="cls-6" d="M174.14,135.54c0,.13.07.26.1.39a17.6,17.6,0,0,1,1.9.16l0-.24-.05-.24-.95-.06Z"/><path class="cls-6" d="M175.56,138a3.85,3.85,0,0,1-.44,1.42,2.73,2.73,0,0,1-1.08,1.05,3.64,3.64,0,0,1-1.36.41c0-.16-.06-.31-.1-.47h0a3.08,3.08,0,0,0,1.26-.38,2.32,2.32,0,0,0,.88-.93,3.3,3.3,0,0,0,.35-1.28Z"/><path class="cls-6" d="M172.3,130.23l.39-.26a25.06,25.06,0,0,1,1.37,2.34,16.39,16.39,0,0,1,1.06,2.52h-.49a16.44,16.44,0,0,0-1-2.37C173.21,131.7,172.77,131,172.3,130.23Z"/><path class="cls-6" d="M161.35,114.21c.13-.22.26-.44.4-.66,0,.57,0,1.16-.06,1.73a.4.4,0,0,1-.25-.21.64.64,0,0,1-.09-.37Z"/><path class="cls-6" d="M157.87,111.24a.77.77,0,0,1,.91.27c.08.14.16.3.23.45a6.33,6.33,0,0,0-.15.78,7.44,7.44,0,0,0-.44-.78C158.25,111.72,158.07,111.48,157.87,111.24Z"/><path class="cls-6" d="M160.36,113.91l.39.06a17,17,0,0,1,.91-1.67l-.48-.11A15,15,0,0,0,160.36,113.91Z"/><path class="cls-6" d="M160.88,114l.39.09a23.13,23.13,0,0,1,1.63-2.49.67.67,0,0,0-.76.25A19.46,19.46,0,0,0,160.88,114Z"/><path class="cls-6" d="M159,115c.1,0,.19-.22.21-.51a7.34,7.34,0,0,1,.17-1.21,8.72,8.72,0,0,1,.34-1.21,4.61,4.61,0,0,0-.52,0,6.36,6.36,0,0,0-.16.73,6,6,0,0,0-.1.74A5.78,5.78,0,0,0,159,115Z"/><path class="cls-6" d="M159.85,113.86l.38,0q.17-.44.36-.87c.14-.29.28-.57.43-.86l-.49-.07c-.13.29-.26.58-.37.88A9.37,9.37,0,0,0,159.85,113.86Z"/><path class="cls-6" d="M159.36,113.86c.11,0,.24,0,.36,0a11.57,11.57,0,0,1,.64-1.79l-.5,0c-.11.3-.21.61-.3.91S159.41,113.55,159.36,113.86Z"/><path class="cls-6" d="M167.1,115.6l-.26.4a19.24,19.24,0,0,0-5.07-2.48l.26-.41A20.09,20.09,0,0,1,167.1,115.6Z"/><path class="cls-6" d="M158.85,112.77a4.07,4.07,0,0,0,0,.49,2.67,2.67,0,0,0-1.11.46,2.34,2.34,0,0,0-.75.9,3.18,3.18,0,0,0-.27,1.06l-.47-.13a3.55,3.55,0,0,1,.35-1.19,2.73,2.73,0,0,1,1-1.09A3.26,3.26,0,0,1,158.85,112.77Z"/><path class="cls-6" d="M172.43,121.75l.69-.36c-.29.5-.59,1-.9,1.49a.52.52,0,0,1-.14-.33.66.66,0,0,1,.1-.38Z"/><path class="cls-6" d="M172.14,117.35a.62.62,0,0,1,.14.74l-.21.44-.68.4C171.65,118.41,171.9,117.88,172.14,117.35Z"/><path class="cls-6" d="M171.71,120.87l.31.31c.55-.31,1.12-.6,1.68-.89l-.31-.32C172.82,120.26,172.27,120.56,171.71,120.87Z"/><path class="cls-6" d="M172.12,121.28l.3.31c.87-.46,1.77-.9,2.67-1.32a.62.62,0,0,0-.75-.13Q173.22,120.7,172.12,121.28Z"/><path class="cls-6" d="M169.55,120.24a.6.6,0,0,0,.72,0c.7-.43,1.42-.85,2.15-1.27l-.33-.31C171.23,119.19,170.38,119.71,169.55,120.24Z"/><path class="cls-6" d="M171.3,120.46l.31.3c.55-.31,1.11-.61,1.67-.91-.11-.1-.21-.21-.32-.32Z"/><path class="cls-6" d="M170.88,120.07l.31.29c.55-.32,1.1-.63,1.66-.93l-.32-.32C172,119.42,171.42,119.74,170.88,120.07Z"/><path class="cls-6" d="M177.08,125.58l-.39.26a34.49,34.49,0,0,0-3.54-4.46l.44-.22A34.6,34.6,0,0,1,177.08,125.58Z"/><path class="cls-6" d="M166.84,116l.26-.4a35.4,35.4,0,0,1,4.26,3.34l-.42.26A32.48,32.48,0,0,0,166.84,116Z"/><path class="cls-6" d="M178.72,133.18c.25.07.5.15.74.24-.28.05-.57.09-.85.12a8.1,8.1,0,0,1-.85,0c0-.07.07-.12.15-.18a.91.91,0,0,1,.34-.11A3.55,3.55,0,0,0,178.72,133.18Z"/><path class="cls-6" d="M181,129.4a.67.67,0,0,1-.23.76l-.4.28h-.79C180,130.11,180.5,129.76,181,129.4Z"/><path class="cls-6" d="M178.76,132.2l.05.38a11,11,0,0,1,1.84.45,4.35,4.35,0,0,0,0-.51A13.54,13.54,0,0,0,178.76,132.2Z"/><path class="cls-6" d="M178.81,132.71c0,.13,0,.25,0,.37l.71.21.69.26a7.33,7.33,0,0,1,1.34.74.74.74,0,0,0-.35-.85A10.6,10.6,0,0,0,178.81,132.71Z"/><path class="cls-6" d="M177.31,130.71a.57.57,0,0,0,.59.33,20.72,20.72,0,0,1,2.49,0c0-.16-.08-.31-.12-.46-.5,0-1,0-1.49,0S177.8,130.66,177.31,130.71Z"/><path class="cls-6" d="M178.66,131.68c0,.13.05.26.08.38a15.27,15.27,0,0,1,1.88.29c0-.16,0-.33-.07-.49A15.1,15.1,0,0,0,178.66,131.68Z"/><path class="cls-6" d="M178.53,131.15c0,.13.07.26.1.39a17.6,17.6,0,0,1,1.9.16l-.05-.24,0-.24-1-.06Z"/><path class="cls-6" d="M180,133.61a3.85,3.85,0,0,1-.44,1.42,2.73,2.73,0,0,1-1.08,1.05,3.64,3.64,0,0,1-1.36.41c0-.16-.06-.31-.1-.47h0a3.08,3.08,0,0,0,1.26-.38,2.32,2.32,0,0,0,.88-.93,3.3,3.3,0,0,0,.35-1.28Z"/><path class="cls-6" d="M176.69,125.84l.39-.26a25.06,25.06,0,0,1,1.37,2.34,16.39,16.39,0,0,1,1.06,2.52H179a16.44,16.44,0,0,0-1-2.37C177.6,127.31,177.16,126.57,176.69,125.84Z"/><path class="cls-6" d="M161.86,96.62c-16-4.87-21.62-7.31-5.51-6.3,8.94.56,12.36-4.86-10.33-15.19-17.28-7.87-22.28,1.16-20.29,18,2,16.65,21.2,4.41,11.18-.7h0c-.17-.11-5.21-2.22-5.74-6.7-.85-7.26,4-2.37,6.17-4.4,3.62-3.4-.24-7,4.74-4.94,12.5,5.3,13.88,9.26-2.93,7.93-11.59-.91-1.94,10.71,16.39,14.59.43.09.8.17,1.11.25-12.24-.08-28,2.61-28.79,7h0c-.72,2.51,4.27,5,12.12,4.18C161.81,108.05,177.18,101.3,161.86,96.62Z"/><path class="cls-6" d="M192.52,131.85a24,24,0,0,0-7.71,6.71A47.32,47.32,0,0,0,176,158.33c-.42,2.46-.71,5.34.1,7.74a3.61,3.61,0,0,0,3.89,2.75c3.92-.39,5.94-4.29,7.31-9.39.87,2.47,4.49,5.12,11.51,7.51,14.24,4.84,23.86.23,20.88-7.3s-32.29,3.71-8.94-4.9l.3-.12h0c5.76-2.16,6.59-5.49,4.47-7.55-1.81-1.73-4.19-1.74-6.36-1.94a1.39,1.39,0,0,1-.66-.18.32.32,0,0,1-.12-.14c-.06-.16.07-.32.18-.42,1.33-1.21,3.48-2.11,3.86-4.34s-1.79-4-3.06-5.08a20.21,20.21,0,0,0-6.55-3.86,13.76,13.76,0,0,0-3.42-.69A13.13,13.13,0,0,0,192.52,131.85Zm.32,20.88a16,16,0,0,0-2.81,1.4,9.71,9.71,0,0,0-1.08.77c-.25.21-.67.78-.75.27a6,6,0,0,1,.28-1.43l.54-2.85c.4-2.11.8-4.23,1.27-6.32.79-3.59,1.87-7.65,4.35-10,2.75-2.67,7.58-2.1,10.34.26a4.62,4.62,0,0,1,1.83,3.82c-.2,2-1.95,3.33-3.31,4.11a23.88,23.88,0,0,0-3.91,2.66c-.79.68-2.69,2.32-1.64,3.69a4,4,0,0,0,2.57,1,8,8,0,0,0,2.88.09c-.84.22-1.7.4-2.55.57A46.86,46.86,0,0,0,192.84,152.73Z"/></g></g></svg>