<svg xmlns="http://www.w3.org/2000/svg" viewBox="0 0 279.64 282.1"><defs><style>.cls-1{fill:#00158e;}.cls-2{fill:gold;}.cls-3{fill:#0751cf;}.cls-4{fill:none;}.cls-5{font-size:12px;font-family:MS-UIGothic, MS UI Gothic;}.cls-5,.cls-6,.cls-7,.cls-8{fill:#fff;}.cls-7{font-size:4.27px;}.cls-7,.cls-8{font-family:KozGoPr6N-Regular-90ms-RKSJ-H, Kozuka Gothic Pr6N;}.cls-8{font-size:5.86px;}</style></defs><g id="Layer_2" data-name="Layer 2"><g id="Layer_2-2" data-name="Layer 2"><path class="cls-1" d="M262.07,44.88V33.24h10V44.88ZM272,21.6V10h-10V21.6Zm-21.6,34.92h11.64V44.88H250.43ZM46.16,257.87H57.8V248H46.16ZM34.52,236.36V248H46.16V236.36ZM262.07,56.52V68.16H250.43V56.52H238.79V68.16H227.15V56.52h11.64V44.88h11.64V33.24h11.64V21.6H250.43V10H238.79V21.6H227.15V10h11.64V3.35H17.51V257.87h17V248H22.88V236.36H34.52V224.72H22.88V213.08H34.52v11.64H46.16v11.64H57.8V248H69.43v9.87H81.07V248H92.71v9.87H272V56.52Zm0-53.17H250.43V10h11.64Z"/><rect class="cls-2" x="90.34" y="261.25" width="11.64" height="11.64"/><rect class="cls-2" x="65.49" y="263.92" width="11.64" height="11.64"/><rect class="cls-2" y="265.16" width="11.64" height="11.64"/><rect class="cls-2" x="53.3" y="251.2" width="11.64" height="11.64"/><rect class="cls-2" x="26.03" y="270.46" width="11.64" height="11.64"/><rect class="cls-2" x="17.64" y="252.12" width="11.64" height="11.64"/><rect class="cls-2" x="7.24" y="220.6" width="11.64" height="11.64"/><rect class="cls-2" x="10.35" y="239.14" width="11.64" height="11.64"/><polygon class="cls-3" points="210.67 12.22 25.99 12.22 25.99 192.25 34.72 183.52 34.72 134.05 48.1 134.05 48.1 64.21 61.68 50.63 61.68 30.84 134.62 30.84 146.85 18.62 210.67 18.62 210.67 12.22"/><rect class="cls-4" x="270.42" y="95.64" width="3.88" height="58.97"/><polygon class="cls-2" points="110.28 268.39 279.63 268.39 279.63 125.22 278.47 125.22 278.47 267.23 110.28 267.23 110.28 268.39 110.28 268.39"/><rect class="cls-2" x="27.54" width="6.79" height="5.43"/><rect class="cls-2" x="42.28" width="6.79" height="5.43"/><rect class="cls-2" x="57.03" width="6.79" height="5.43"/><rect class="cls-2" x="71.77" width="6.79" height="5.43"/><rect class="cls-2" x="86.51" width="6.79" height="5.43"/><rect class="cls-2" x="101.26" width="6.79" height="5.43"/><rect class="cls-2" x="116" width="6.79" height="5.43"/><rect class="cls-2" x="263.92" y="78.37" width="2.91" height="18.62"/><rect class="cls-2" x="263.92" y="126.97" width="2.91" height="122.8"/><polygon class="cls-2" points="94.67 34.02 90.5 29.86 94.67 25.68 92.31 23.32 88.14 27.49 83.97 23.32 81.61 25.68 85.78 29.86 81.61 34.02 83.97 36.38 88.14 32.22 92.31 36.38 94.67 34.02"/><polygon class="cls-2" points="112.13 34.02 107.96 29.86 112.13 25.68 109.77 23.32 105.6 27.49 101.43 23.32 99.07 25.68 103.24 29.86 99.07 34.02 101.43 36.38 105.6 32.22 109.77 36.38 112.13 34.02"/><polygon class="cls-2" points="129.59 34.02 125.42 29.86 129.59 25.68 127.23 23.32 123.06 27.49 118.89 23.32 116.53 25.68 120.7 29.86 116.53 34.02 118.89 36.38 123.06 32.22 127.23 36.38 129.59 34.02"/><polygon class="cls-2" points="147.05 34.02 142.88 29.86 147.05 25.68 144.69 23.32 140.52 27.49 136.35 23.32 133.99 25.68 138.16 29.86 133.99 34.02 136.35 36.38 140.52 32.22 144.69 36.38 147.05 34.02"/><text class="cls-5" transform="translate(223.35 227.32)">技術<tspan x="0" y="14.4">背景</tspan></text><path class="cls-6" d="M101.07,100.11v19h19v-19Zm2.94,2.94h10.64l-8.25,10.18-2.39,3Zm4.28,13.13,2.39-3,6.42-7.92v10.87Z"/><polygon class="cls-6" points="95.7 110.59 86.31 110.59 86.34 110.56 90.85 105.01 86.57 105.01 82.61 109.88 82.61 100.14 79.67 100.14 79.67 110.59 79.67 113.53 82.61 113.53 95.7 113.53 95.7 119.11 98.64 119.11 98.64 113.53 98.64 110.59 98.64 100.14 95.7 100.14 95.7 110.59"/><polygon class="cls-6" points="138.51 110.59 129.13 110.59 129.16 110.56 133.66 105.01 129.38 105.01 125.42 109.88 125.42 100.14 122.48 100.14 122.48 110.59 122.48 113.53 125.42 113.53 138.51 113.53 138.51 119.11 141.46 119.11 141.46 113.53 141.46 110.59 141.46 100.14 138.51 100.14 138.51 110.59"/><path class="cls-6" d="M104.12,122.68h-2.93v13.4H103l-4.5,5.53h4.27l4.5-5.53h9.88v5.53h2.93V122.68h-16Zm13.07,10.46H104.12v-7.53h13.07Z"/><path class="cls-6" d="M122.54,141.61H140a1.44,1.44,0,0,0,1.44-1.44v-16a1.44,1.44,0,0,0-1.44-1.45H122.54v15.67l-2.65,3.25Zm16-16v13.05h-12l2.12-2.6,2.38-2.93h-4.27l-1.3,1.6v-9.12Z"/><polygon class="cls-6" points="79.67 122.68 79.67 136.08 82.61 136.08 91.94 136.08 89.82 138.68 79.67 138.68 79.67 141.62 91.46 141.62 91.46 141.6 91.72 141.6 96.21 136.08 98.61 136.08 98.61 133.14 98.6 133.14 98.61 133.13 82.61 133.14 82.61 125.61 98.61 125.61 98.61 122.68 82.61 122.68 79.67 122.68"/><path class="cls-6" d="M68.06,71.6V189.76H215.24V71.6Zm144.73,11H125l6.29-8.57h81.49ZM100.13,81.31a3.66,3.66,0,1,1-3.66-3.66A3.66,3.66,0,0,1,100.13,81.31Zm-9.34,0a3.66,3.66,0,1,1-3.66-3.66A3.66,3.66,0,0,1,90.79,81.31Zm-9.34,0a3.66,3.66,0,1,1-3.66-3.66A3.66,3.66,0,0,1,81.45,81.31Zm-10.93,106V89.79h49.23l3.88-5.28h89.16V187.3Z"/><path class="cls-6" d="M213.9,202.29h-5.1a5.22,5.22,0,0,0-5-3.79h-4.59a5.23,5.23,0,0,0-5,3.79h-.4a5.23,5.23,0,0,0-5-3.79h-4.59a5.23,5.23,0,0,0-5,3.79h-.4a5.24,5.24,0,0,0-5-3.79h-4.59a5.24,5.24,0,0,0-5,3.79h-.4a5.23,5.23,0,0,0-5-3.79h-4.59a5.23,5.23,0,0,0-5,3.79h-.37a5.23,5.23,0,0,0-5-3.79h-4.6a5.23,5.23,0,0,0-5,3.79h-.4a5.23,5.23,0,0,0-5-3.79h-4.59a5.23,5.23,0,0,0-5,3.79h-.4a5.23,5.23,0,0,0-5-3.79h-4.59a5.23,5.23,0,0,0-5,3.79h-.41a5.23,5.23,0,0,0-5-3.79H94.28a5.23,5.23,0,0,0-5,3.79H88.9a5.23,5.23,0,0,0-5-3.79H79.31a5.23,5.23,0,0,0-5,3.79h-4.9a1.3,1.3,0,0,0-1.29,1.3v.21a1.29,1.29,0,0,0,1.29,1.29h4.9a5.23,5.23,0,0,0,5,3.8H83.9a5.23,5.23,0,0,0,5-3.8h.38a5.23,5.23,0,0,0,5,3.8h4.59a5.23,5.23,0,0,0,5-3.8h.41a5.23,5.23,0,0,0,5,3.8h4.59a5.23,5.23,0,0,0,5-3.8h.4a5.23,5.23,0,0,0,5,3.8h4.59a5.23,5.23,0,0,0,5-3.8h.4a5.23,5.23,0,0,0,5,3.8h4.6a5.23,5.23,0,0,0,5-3.8h.37a5.23,5.23,0,0,0,5,3.8h4.59a5.23,5.23,0,0,0,5-3.8h.4a5.24,5.24,0,0,0,5,3.8h4.59a5.24,5.24,0,0,0,5-3.8h.4a5.23,5.23,0,0,0,5,3.8h4.59a5.23,5.23,0,0,0,5-3.8h.4a5.23,5.23,0,0,0,5,3.8h4.59a5.22,5.22,0,0,0,5-3.8h5.1a1.29,1.29,0,0,0,1.29-1.29v-.21A1.3,1.3,0,0,0,213.9,202.29Zm-14.69-3.07h4.59a4.51,4.51,0,0,1,4.25,3.07h-1.46a3.12,3.12,0,0,0-2.79-1.72h-4.59a3.1,3.1,0,0,0-2.78,1.72H195A4.51,4.51,0,0,1,199.21,199.22Zm5.07,5.87h1.46a2.36,2.36,0,0,1-1.94,1h-4.59a2.35,2.35,0,0,1-1.93-1h1.65a1.29,1.29,0,0,0,1.29-1.29v-.21a1.3,1.3,0,0,0-1.29-1.3h-1.65a2.38,2.38,0,0,1,1.93-1h4.59a2.38,2.38,0,0,1,1.94,1h-1.46a1.3,1.3,0,0,0-1.29,1.3v.21A1.29,1.29,0,0,0,204.28,205.09Zm-20.06-5.87h4.59a4.5,4.5,0,0,1,4.24,3.07h-1.46a3.09,3.09,0,0,0-2.78-1.72h-4.59a3.12,3.12,0,0,0-2.79,1.72H180A4.49,4.49,0,0,1,184.22,199.22Zm5.07,5.87h1.46a2.38,2.38,0,0,1-1.94,1h-4.59a2.37,2.37,0,0,1-1.94-1h1.65a1.3,1.3,0,0,0,1.3-1.29v-.21a1.3,1.3,0,0,0-1.3-1.3h-1.65a2.4,2.4,0,0,1,1.94-1h4.59a2.41,2.41,0,0,1,1.94,1h-1.46a1.3,1.3,0,0,0-1.29,1.3v.21A1.29,1.29,0,0,0,189.29,205.09Zm-20.07-5.87h4.59a4.51,4.51,0,0,1,4.25,3.07H176.6a3.12,3.12,0,0,0-2.79-1.72h-4.59a3.1,3.1,0,0,0-2.78,1.72H165A4.51,4.51,0,0,1,169.22,199.22Zm5.08,5.87h1.45a2.36,2.36,0,0,1-1.94,1h-4.59a2.35,2.35,0,0,1-1.93-1h1.65a1.29,1.29,0,0,0,1.29-1.29v-.21a1.3,1.3,0,0,0-1.29-1.3h-1.65a2.38,2.38,0,0,1,1.93-1h4.59a2.38,2.38,0,0,1,1.94,1H174.3a1.3,1.3,0,0,0-1.3,1.3v.21A1.3,1.3,0,0,0,174.3,205.09Zm-20.07-5.87h4.59a4.5,4.5,0,0,1,4.24,3.07h-1.45a3.12,3.12,0,0,0-2.79-1.72h-4.59a3.12,3.12,0,0,0-2.79,1.72H150A4.5,4.5,0,0,1,154.23,199.22Zm5.07,5.87h1.46a2.37,2.37,0,0,1-1.94,1h-4.59a2.37,2.37,0,0,1-1.94-1H154a1.3,1.3,0,0,0,1.3-1.29v-.21a1.3,1.3,0,0,0-1.3-1.3h-1.66a2.4,2.4,0,0,1,1.94-1h4.59a2.4,2.4,0,0,1,1.94,1H159.3a1.3,1.3,0,0,0-1.29,1.3v.21A1.29,1.29,0,0,0,159.3,205.09Zm-15.45-5.87a4.5,4.5,0,0,1,4.24,3.07h-1.45a3.1,3.1,0,0,0-2.78-1.72h-4.6a3.12,3.12,0,0,0-2.79,1.72H135a4.51,4.51,0,0,1,4.25-3.07Zm.48,3.07a1.3,1.3,0,0,0-1.29,1.3v.21a1.29,1.29,0,0,0,1.29,1.29h1.46a2.38,2.38,0,0,1-1.94,1h-4.58a2.36,2.36,0,0,1-1.94-1H139a1.29,1.29,0,0,0,1.29-1.29v-.21a1.3,1.3,0,0,0-1.29-1.3h-1.65a2.38,2.38,0,0,1,1.94-1h4.58a2.41,2.41,0,0,1,1.94,1h-1.46Zm-20.06-3.07h4.59a4.49,4.49,0,0,1,4.24,3.07h-1.45a3.12,3.12,0,0,0-2.79-1.72h-4.59a3.09,3.09,0,0,0-2.78,1.72H120A4.5,4.5,0,0,1,124.27,199.22Zm5.07,3.07a1.3,1.3,0,0,0-1.29,1.3v.21a1.29,1.29,0,0,0,1.29,1.29h1.46a2.37,2.37,0,0,1-1.94,1h-4.59a2.38,2.38,0,0,1-1.94-1H124a1.29,1.29,0,0,0,1.29-1.29v-.21a1.3,1.3,0,0,0-1.29-1.3h-1.66a2.41,2.41,0,0,1,1.94-1h4.59a2.4,2.4,0,0,1,1.94,1h-1.46Zm-20.06-3.07h4.59a4.5,4.5,0,0,1,4.24,3.07h-1.46a3.09,3.09,0,0,0-2.78-1.72h-4.59a3.12,3.12,0,0,0-2.79,1.72H105A4.51,4.51,0,0,1,109.28,199.22Zm5.07,5.87h1.46a2.38,2.38,0,0,1-1.94,1h-4.59a2.36,2.36,0,0,1-1.94-1H109a1.3,1.3,0,0,0,1.3-1.29v-.21a1.3,1.3,0,0,0-1.3-1.3h-1.65a2.38,2.38,0,0,1,1.94-1h4.59a2.41,2.41,0,0,1,1.94,1h-1.46a1.3,1.3,0,0,0-1.3,1.3v.21A1.3,1.3,0,0,0,114.35,205.09Zm-20.07-5.87h4.59a4.51,4.51,0,0,1,4.25,3.07h-1.46a3.12,3.12,0,0,0-2.79-1.72H94.28a3.09,3.09,0,0,0-2.78,1.72H90A4.5,4.5,0,0,1,94.28,199.22Zm5.07,5.87h1.46a2.36,2.36,0,0,1-1.94,1H94.28a2.38,2.38,0,0,1-1.94-1H94a1.29,1.29,0,0,0,1.29-1.29v-.21a1.3,1.3,0,0,0-1.29-1.3H92.34a2.41,2.41,0,0,1,1.94-1h4.59a2.38,2.38,0,0,1,1.94,1H99.35a1.3,1.3,0,0,0-1.29,1.3v.21A1.29,1.29,0,0,0,99.35,205.09Zm-20-5.87H83.9a4.49,4.49,0,0,1,4.24,3.07H86.69a3.12,3.12,0,0,0-2.79-1.72H79.31a3.09,3.09,0,0,0-2.78,1.72H75.07A4.5,4.5,0,0,1,79.31,199.22Zm5.07,5.87h1.46a2.37,2.37,0,0,1-1.94,1H79.31a2.38,2.38,0,0,1-1.94-1H79a1.3,1.3,0,0,0,1.3-1.29v-.21a1.3,1.3,0,0,0-1.3-1.3H77.37a2.41,2.41,0,0,1,1.94-1H83.9a2.4,2.4,0,0,1,1.94,1H84.38a1.3,1.3,0,0,0-1.29,1.3v.21A1.29,1.29,0,0,0,84.38,205.09Zm-15-.72a.58.58,0,0,1-.57-.57v-.21a.57.57,0,0,1,.57-.57H79a.56.56,0,0,1,.57.57v.21a.57.57,0,0,1-.57.57Zm14.49,3.79H79.31a4.5,4.5,0,0,1-4.24-3.07h1.46a3.09,3.09,0,0,0,2.78,1.72H83.9a3.12,3.12,0,0,0,2.79-1.72h1.45A4.49,4.49,0,0,1,83.9,208.16Zm.48-3.79a.58.58,0,0,1-.57-.57v-.21a.57.57,0,0,1,.57-.57H94a.56.56,0,0,1,.56.57v.21a.57.57,0,0,1-.56.57Zm14.49,3.79H94.28A4.5,4.5,0,0,1,90,205.09H91.5a3.09,3.09,0,0,0,2.78,1.72h4.59a3.12,3.12,0,0,0,2.79-1.72h1.46A4.51,4.51,0,0,1,98.87,208.16Zm.51-3.79a.57.57,0,0,1-.57-.57v-.21a.56.56,0,0,1,.57-.57H109a.57.57,0,0,1,.57.57v.21a.58.58,0,0,1-.57.57Zm14.49,3.79h-4.59a4.51,4.51,0,0,1-4.25-3.07h1.46a3.12,3.12,0,0,0,2.79,1.72h4.59a3.09,3.09,0,0,0,2.78-1.72h1.46A4.5,4.5,0,0,1,113.87,208.16Zm.5-3.79a.58.58,0,0,1-.57-.57v-.21a.57.57,0,0,1,.57-.57H124a.56.56,0,0,1,.57.57v.21a.57.57,0,0,1-.57.57Zm14.49,3.79h-4.59a4.5,4.5,0,0,1-4.24-3.07h1.46a3.09,3.09,0,0,0,2.78,1.72h4.59a3.12,3.12,0,0,0,2.79-1.72h1.45A4.49,4.49,0,0,1,128.86,208.16Zm.51-3.79a.57.57,0,0,1-.57-.57v-.21a.56.56,0,0,1,.57-.57H139a.56.56,0,0,1,.56.57v.21a.57.57,0,0,1-.56.57Zm9.9,3.79a4.51,4.51,0,0,1-4.25-3.07h1.45a3.12,3.12,0,0,0,2.79,1.72h4.6a3.1,3.1,0,0,0,2.78-1.72h1.45a4.5,4.5,0,0,1-4.24,3.07Zm5.07-3.79a.57.57,0,0,1-.57-.57v-.21a.56.56,0,0,1,.57-.57h9.6a.56.56,0,0,1,.57.57v.21a.57.57,0,0,1-.57.57Zm14.48,3.79h-4.59a4.5,4.5,0,0,1-4.24-3.07h1.45a3.12,3.12,0,0,0,2.79,1.72h4.59a3.12,3.12,0,0,0,2.79-1.72h1.45A4.5,4.5,0,0,1,158.82,208.16Zm.5-3.79a.57.57,0,0,1-.56-.57v-.21a.56.56,0,0,1,.56-.57h9.6a.56.56,0,0,1,.56.57v.21a.57.57,0,0,1-.56.57Zm14.49,3.79h-4.59a4.51,4.51,0,0,1-4.24-3.07h1.46a3.1,3.1,0,0,0,2.78,1.72h4.59a3.12,3.12,0,0,0,2.79-1.72h1.46A4.51,4.51,0,0,1,173.81,208.16Zm.51-3.79a.58.58,0,0,1-.57-.57v-.21a.57.57,0,0,1,.57-.57h9.59a.57.57,0,0,1,.57.57v.21a.58.58,0,0,1-.57.57Zm14.49,3.79h-4.59a4.49,4.49,0,0,1-4.24-3.07h1.45a3.12,3.12,0,0,0,2.79,1.72h4.59a3.09,3.09,0,0,0,2.78-1.72h1.46A4.5,4.5,0,0,1,188.81,208.16Zm.5-3.79a.57.57,0,0,1-.56-.57v-.21a.56.56,0,0,1,.56-.57h9.59a.56.56,0,0,1,.57.57v.21a.57.57,0,0,1-.57.57Zm14.49,3.79h-4.59a4.51,4.51,0,0,1-4.24-3.07h1.46a3.1,3.1,0,0,0,2.78,1.72h4.59a3.12,3.12,0,0,0,2.79-1.72h1.46A4.51,4.51,0,0,1,203.8,208.16Zm10.67-4.36a.58.58,0,0,1-.57.57h-9.62a.57.57,0,0,1-.56-.57v-.21a.56.56,0,0,1,.56-.57h9.62a.57.57,0,0,1,.57.57Z"/><rect class="cls-6" x="142.68" y="157.17" width="2.86" height="21.39"/><rect class="cls-6" x="134.6" y="157.17" width="2.86" height="21.39"/><rect class="cls-6" x="140.23" y="157.17" width="1.43" height="21.39"/><rect class="cls-6" x="138.49" y="157.17" width="0.71" height="21.39"/><rect class="cls-6" x="130.69" y="157.17" width="2.86" height="21.39"/><rect class="cls-6" x="128.23" y="157.17" width="1.43" height="21.39"/><rect class="cls-6" x="126.49" y="157.17" width="0.71" height="21.39"/><rect class="cls-6" x="79.67" y="157.17" width="2.86" height="21.39"/><rect class="cls-6" x="87.75" y="157.17" width="2.86" height="21.39"/><rect class="cls-6" x="83.55" y="157.17" width="1.43" height="21.39"/><rect class="cls-6" x="86.01" y="157.17" width="0.71" height="21.39"/><rect class="cls-6" x="91.66" y="157.17" width="2.86" height="21.39"/><rect class="cls-6" x="95.55" y="157.17" width="1.43" height="21.39"/><rect class="cls-6" x="98" y="157.17" width="0.71" height="21.39"/><rect class="cls-6" x="119.8" y="157.17" width="5.71" height="21.39"/><rect class="cls-6" x="115.92" y="157.17" width="2.86" height="21.39"/><rect class="cls-6" x="107.84" y="157.17" width="2.86" height="21.39"/><rect class="cls-6" x="113.47" y="157.17" width="1.43" height="21.39"/><rect class="cls-6" x="111.73" y="157.17" width="0.71" height="21.39"/><rect class="cls-6" x="103.93" y="157.17" width="2.86" height="21.39"/><rect class="cls-6" x="101.47" y="157.17" width="1.43" height="21.39"/><rect class="cls-6" x="99.73" y="157.17" width="0.71" height="21.39"/><rect class="cls-6" x="195.13" y="157.17" width="1.43" height="21.39"/><rect class="cls-6" x="193.39" y="157.17" width="0.71" height="21.39"/><rect class="cls-6" x="154.64" y="157.17" width="2.86" height="21.39"/><polygon class="cls-6" points="150.45 157.17 149.42 157.17 146.56 157.17 146.56 178.56 149.42 178.56 150.45 178.56 151.88 178.56 152.28 178.56 152.28 157.17 151.88 157.17 150.45 157.17"/><rect class="cls-6" x="152.9" y="157.17" width="0.71" height="21.39"/><rect class="cls-6" x="158.56" y="157.17" width="2.86" height="21.39"/><rect class="cls-6" x="162.44" y="157.17" width="1.43" height="21.39"/><rect class="cls-6" x="164.9" y="157.17" width="0.71" height="21.39"/><rect class="cls-6" x="186.7" y="157.17" width="5.71" height="21.39"/><rect class="cls-6" x="182.82" y="157.17" width="2.86" height="21.39"/><rect class="cls-6" x="174.74" y="157.17" width="2.86" height="21.39"/><rect class="cls-6" x="180.36" y="157.17" width="1.43" height="21.39"/><rect class="cls-6" x="178.62" y="157.17" width="0.71" height="21.39"/><rect class="cls-6" x="170.82" y="157.17" width="2.86" height="21.39"/><rect class="cls-6" x="168.37" y="157.17" width="1.43" height="21.39"/><rect class="cls-6" x="166.63" y="157.17" width="0.71" height="21.39"/><text class="cls-7" transform="translate(149.66 101.61)">見つかりませんでした<tspan x="0" y="10.25">見つかりませんでした</tspan><tspan x="0" y="20.5">見つかりませんでした</tspan><tspan x="0" y="30.75">見つかりませんでした</tspan><tspan x="0" y="41">見つかりませんでした</tspan></text><text class="cls-8" transform="translate(90.65 149.92)">見当たらない</text></g></g></svg>