<svg xmlns="http://www.w3.org/2000/svg" viewBox="0 0 273.53 284.78"><defs><style>.cls-1{fill:#00158e;}.cls-2{fill:gold;}.cls-3{fill:#0751cf;}.cls-4{font-size:12px;font-family:MS-UIGothic, MS UI Gothic;}.cls-4,.cls-5{fill:#fff;}.cls-6{fill:none;stroke:#fff;stroke-miterlimit:10;stroke-width:2.38px;}</style></defs><g id="Layer_2" data-name="Layer 2"><g id="Layer_2-2" data-name="Layer 2"><polygon class="cls-1" points="256.07 237.64 256.07 152.09 250.84 146.85 250.84 36.86 235.12 36.86 235.12 22.45 181.14 22.45 175.76 27.84 109.7 27.84 98.41 16.54 7.63 16.54 7.63 192.89 16 201.27 16 239.97 21.39 245.36 21.39 258.6 85.55 258.6 85.55 266.16 139.09 266.16 139.09 271.06 262.15 271.06 262.15 243.72 256.07 237.64"/><path class="cls-2" d="M264.51,209.18V164.5a3,3,0,0,0,2.48-2.94,3.06,3.06,0,1,0-6.12,0,3,3,0,0,0,2.48,2.94v45.16l9,9v64.94H117.56v-9.89H1.16V11.83H38.8a3,3,0,0,0,3,2.49,3.07,3.07,0,0,0,0-6.13,3,3,0,0,0-3,2.48H0V274.89H116.4v9.89H273.53V218.2Z"/><polygon class="cls-2" points="156.83 258.45 162.67 258.45 168.89 252.23 159.16 252.23 145.13 266.25 149.03 266.25 156.83 258.45"/><polygon class="cls-2" points="169.48 258.45 175.32 258.45 181.54 252.23 171.81 252.23 157.78 266.25 161.68 266.25 169.48 258.45"/><polygon class="cls-2" points="182.13 258.45 187.97 258.45 194.19 252.23 184.46 252.23 170.43 266.25 174.33 266.25 182.13 258.45"/><polygon class="cls-2" points="194.78 258.45 200.62 258.45 206.84 252.23 197.11 252.23 183.09 266.25 186.99 266.25 194.78 258.45"/><polygon class="cls-2" points="207.44 258.45 213.27 258.45 219.5 252.23 209.76 252.23 195.74 266.25 199.64 266.25 207.44 258.45"/><polygon class="cls-2" points="220.09 258.45 225.92 258.45 232.15 252.23 222.41 252.23 208.39 266.25 212.29 266.25 220.09 258.45"/><polygon class="cls-2" points="232.74 258.45 238.57 258.45 244.8 252.23 235.06 252.23 221.04 266.25 224.94 266.25 232.74 258.45"/><polygon class="cls-2" points="245.39 258.45 251.22 258.45 257.45 252.23 247.71 252.23 233.69 266.25 237.59 266.25 245.39 258.45"/><polygon class="cls-3" points="21.79 20.81 16.43 20.81 12.62 27.41 16.43 34.02 21.79 34.02 17.97 27.41 21.79 20.81"/><polygon class="cls-3" points="35.48 20.81 30.12 20.81 26.31 27.41 30.12 34.02 35.48 34.02 31.66 27.41 35.48 20.81"/><polygon class="cls-3" points="49.17 20.81 43.81 20.81 40 27.41 43.81 34.02 49.17 34.02 45.35 27.41 49.17 20.81"/><polygon class="cls-3" points="62.86 20.81 57.5 20.81 53.69 27.41 57.5 34.02 62.86 34.02 59.05 27.41 62.86 20.81"/><polygon class="cls-3" points="76.55 20.81 71.19 20.81 67.38 27.41 71.19 34.02 76.55 34.02 72.73 27.41 76.55 20.81"/><polygon class="cls-3" points="90.24 20.81 84.88 20.81 81.07 27.41 84.88 34.02 90.24 34.02 86.42 27.41 90.24 20.81"/><path class="cls-2" d="M120.26,21.47h5.66L115.78,31.61h-5.65Zm22.72,0h-5.66L127.19,31.61h5.66Zm-8.53,0h-5.66L118.66,31.61h5.66Zm42.66,0h-5.66L161.32,31.61H167Zm-25.6,0h-5.65L135.72,31.61h5.66Zm17.07,0h-5.66L152.79,31.61h5.65Zm-8.54,0h-5.65L144.26,31.61h5.65Z"/><rect class="cls-2" x="229.3" y="128.23" width="38.99" height="5.24"/><rect class="cls-2" x="244.72" y="120.37" width="18.04" height="3.49"/><rect class="cls-2" x="14.55" y="246.96" width="34.92" height="4.66"/><path class="cls-2" d="M204.08,36.47h8.15V28.32h-8.15Zm1.17-7h5.82v5.82h-5.82Z"/><path class="cls-2" d="M244.43,98.36V91.57h-7.37v7.37h7.37Zm-6.2-5.63h5v5h-5Z"/><path class="cls-3" d="M237.06,198.65h8.15V190.5h-8.15Zm1.17-7h5.82v5.82h-5.82Z"/><path class="cls-2" d="M21.34,226.59H31.43V216.5H21.34Zm1.16-8.93h7.76v7.76H22.5Z"/><path class="cls-3" d="M14,178.48h6.21v-6.21H14Zm1.16-5H19v3.88H15.13Z"/><path class="cls-2" d="M54.32,263.83H76.43v-8.92H54.32Zm1.16-7.76H75.27v6.6H55.48Z"/><path class="cls-2" d="M247.93,48.5V90.4h6.59V48.5Zm1.16,1.16h4.27V89.24h-4.27Z"/><path class="cls-2" d="M250.64,32V21.73H239.78V32.59h10.86Zm-9.7-9.12h8.54v8.54h-8.54Z"/><path class="cls-2" d="M65.18,11.45V4.27H57.42V12h7.76Zm-6.59-6H64v5.43H58.59Z"/><path class="cls-3" d="M94.28,9.7H104V0h-9.7Zm1.17-8.54h7.37V8.54H95.45Z"/><polygon class="cls-2" points="32.5 87.42 26.88 87.42 26.88 81.8 23.7 81.8 23.7 87.42 18.09 87.42 18.09 90.6 23.7 90.6 23.7 96.21 26.88 96.21 26.88 90.6 32.5 90.6 32.5 87.42"/><polygon class="cls-2" points="56.87 87.42 51.25 87.42 51.25 81.8 48.07 81.8 48.07 87.42 42.45 87.42 42.45 90.6 48.07 90.6 48.07 96.21 51.25 96.21 51.25 90.6 56.87 90.6 56.87 87.42"/><polygon class="cls-2" points="81.23 87.42 75.62 87.42 75.62 81.8 72.44 81.8 72.44 87.42 66.82 87.42 66.82 90.6 72.44 90.6 72.44 96.21 75.62 96.21 75.62 90.6 81.23 90.6 81.23 87.42"/><polygon class="cls-2" points="105.6 87.42 99.98 87.42 99.98 81.8 96.8 81.8 96.8 87.42 91.19 87.42 91.19 90.6 96.8 90.6 96.8 96.21 99.98 96.21 99.98 90.6 105.6 90.6 105.6 87.42"/><text class="cls-4" transform="translate(213.01 223.33)">技術<tspan x="0" y="14.4">背景</tspan></text><path class="cls-5" d="M142.15,194.12h-2.47a2.52,2.52,0,0,0-2.41-1.83h-2.21a2.51,2.51,0,0,0-2.41,1.83h-.18a2.53,2.53,0,0,0-2.42-1.83h-2.21a2.52,2.52,0,0,0-2.41,1.83h-.19a2.52,2.52,0,0,0-2.42-1.83h-2.21a2.52,2.52,0,0,0-2.41,1.83H118a2.52,2.52,0,0,0-2.41-1.83h-2.22a2.53,2.53,0,0,0-2.41,1.83h-.19a2.52,2.52,0,0,0-2.41-1.83h-2.21a2.52,2.52,0,0,0-2.42,1.83h-.18a2.52,2.52,0,0,0-2.41-1.83H98.94a2.51,2.51,0,0,0-2.41,1.83H94.16a.62.62,0,0,0-.62.62v.11a.62.62,0,0,0,.62.62h2.37a2.51,2.51,0,0,0,2.41,1.83h2.21a2.52,2.52,0,0,0,2.41-1.83h.18a2.52,2.52,0,0,0,2.42,1.83h2.21a2.52,2.52,0,0,0,2.41-1.83H111a2.53,2.53,0,0,0,2.41,1.83h2.22a2.52,2.52,0,0,0,2.41-1.83h.19a2.52,2.52,0,0,0,2.41,1.83h2.21a2.52,2.52,0,0,0,2.42-1.83h.19a2.52,2.52,0,0,0,2.41,1.83h2.21a2.53,2.53,0,0,0,2.42-1.83h.18a2.51,2.51,0,0,0,2.41,1.83h2.21a2.52,2.52,0,0,0,2.41-1.83h2.47a.62.62,0,0,0,.62-.62v-.11A.62.62,0,0,0,142.15,194.12Zm-7.09-1.48h2.21a2.16,2.16,0,0,1,2,1.48h-.7a1.49,1.49,0,0,0-1.34-.83h-2.21a1.5,1.5,0,0,0-1.35.83H133A2.18,2.18,0,0,1,135.06,192.64Zm2.44,2.83h.7a1.12,1.12,0,0,1-.93.48h-2.21a1.14,1.14,0,0,1-.94-.48h.8a.63.63,0,0,0,.63-.62v-.11a.63.63,0,0,0-.63-.62h-.8a1.14,1.14,0,0,1,.94-.48h2.21a1.12,1.12,0,0,1,.93.48h-.7a.62.62,0,0,0-.62.62v.11A.62.62,0,0,0,137.5,195.47Zm-9.66-2.83h2.21a2.18,2.18,0,0,1,2,1.48h-.7a1.5,1.5,0,0,0-1.35-.83h-2.21a1.48,1.48,0,0,0-1.34.83h-.7A2.15,2.15,0,0,1,127.84,192.64Zm2.44,2.83H131a1.16,1.16,0,0,1-.94.48h-2.21a1.12,1.12,0,0,1-.93-.48h.79a.63.63,0,0,0,.63-.62v-.11a.63.63,0,0,0-.63-.62h-.79a1.12,1.12,0,0,1,.93-.48h2.21a1.16,1.16,0,0,1,.94.48h-.71a.62.62,0,0,0-.62.62v.11A.62.62,0,0,0,130.28,195.47Zm-9.67-2.83h2.21a2.17,2.17,0,0,1,2.05,1.48h-.7a1.5,1.5,0,0,0-1.35-.83h-2.21a1.49,1.49,0,0,0-1.34.83h-.7A2.16,2.16,0,0,1,120.61,192.64Zm2.45,2.83h.7a1.14,1.14,0,0,1-.94.48h-2.21a1.14,1.14,0,0,1-.93-.48h.79a.63.63,0,0,0,.63-.62v-.11a.63.63,0,0,0-.63-.62h-.79a1.14,1.14,0,0,1,.93-.48h2.21a1.14,1.14,0,0,1,.94.48h-.7a.63.63,0,0,0-.63.62v.11A.63.63,0,0,0,123.06,195.47Zm-9.68-2.83h2.22a2.16,2.16,0,0,1,2,1.48h-.7a1.49,1.49,0,0,0-1.34-.83h-2.22a1.49,1.49,0,0,0-1.34.83h-.7A2.17,2.17,0,0,1,113.38,192.64Zm2.45,2.83h.7a1.14,1.14,0,0,1-.93.48h-2.22a1.14,1.14,0,0,1-.93-.48h.79a.63.63,0,0,0,.63-.62v-.11a.63.63,0,0,0-.63-.62h-.79a1.14,1.14,0,0,1,.93-.48h2.22a1.14,1.14,0,0,1,.93.48h-.7a.63.63,0,0,0-.63.62v.11A.63.63,0,0,0,115.83,195.47Zm-9.67-2.83h2.21a2.16,2.16,0,0,1,2,1.48h-.7a1.49,1.49,0,0,0-1.34-.83h-2.21a1.5,1.5,0,0,0-1.35.83h-.7A2.17,2.17,0,0,1,106.16,192.64Zm2.44,2.83h.7a1.14,1.14,0,0,1-.93.48h-2.21a1.14,1.14,0,0,1-.94-.48h.8a.62.62,0,0,0,.62-.62v-.11a.62.62,0,0,0-.62-.62h-.8a1.14,1.14,0,0,1,.94-.48h2.21a1.14,1.14,0,0,1,.93.48h-.7a.62.62,0,0,0-.62.62v.11A.62.62,0,0,0,108.6,195.47Zm-9.66-2.83h2.21a2.18,2.18,0,0,1,2,1.48h-.71a1.49,1.49,0,0,0-1.34-.83H98.94a1.5,1.5,0,0,0-1.35.83h-.7A2.18,2.18,0,0,1,98.94,192.64Zm2.44,2.83h.7a1.12,1.12,0,0,1-.93.48H98.94a1.16,1.16,0,0,1-.94-.48h.8a.62.62,0,0,0,.62-.62v-.11a.62.62,0,0,0-.62-.62H98a1.16,1.16,0,0,1,.94-.48h2.21a1.12,1.12,0,0,1,.93.48h-.7a.62.62,0,0,0-.62.62v.11A.62.62,0,0,0,101.38,195.47Zm-7.22-.35a.27.27,0,0,1-.27-.27v-.11a.27.27,0,0,1,.27-.27H98.8a.27.27,0,0,1,.27.27v.11a.27.27,0,0,1-.27.27Zm7,1.83H98.94a2.18,2.18,0,0,1-2-1.48h.7a1.5,1.5,0,0,0,1.35.83h2.21a1.49,1.49,0,0,0,1.34-.83h.71A2.18,2.18,0,0,1,101.15,197Zm.23-1.83a.27.27,0,0,1-.27-.27v-.11a.27.27,0,0,1,.27-.27H106a.27.27,0,0,1,.27.27v.11a.27.27,0,0,1-.27.27Zm7,1.83h-2.21a2.17,2.17,0,0,1-2-1.48h.7a1.5,1.5,0,0,0,1.35.83h2.21a1.49,1.49,0,0,0,1.34-.83h.7A2.16,2.16,0,0,1,108.37,197Zm.24-1.83a.27.27,0,0,1-.27-.27v-.11a.27.27,0,0,1,.27-.27h4.62a.27.27,0,0,1,.28.27v.11a.27.27,0,0,1-.28.27Zm7,1.83h-2.22a2.17,2.17,0,0,1-2-1.48h.7a1.49,1.49,0,0,0,1.34.83h2.22a1.49,1.49,0,0,0,1.34-.83h.7A2.16,2.16,0,0,1,115.6,197Zm.24-1.83a.27.27,0,0,1-.27-.27v-.11a.27.27,0,0,1,.27-.27h4.62a.28.28,0,0,1,.28.27v.11a.28.28,0,0,1-.28.27Zm7,1.83h-2.21a2.16,2.16,0,0,1-2-1.48h.7a1.49,1.49,0,0,0,1.34.83h2.21a1.5,1.5,0,0,0,1.35-.83h.7A2.17,2.17,0,0,1,122.82,197Zm.25-1.83a.28.28,0,0,1-.28-.27v-.11a.28.28,0,0,1,.28-.27h4.62a.28.28,0,0,1,.28.27v.11a.28.28,0,0,1-.28.27Zm7,1.83h-2.21a2.15,2.15,0,0,1-2-1.48h.7a1.48,1.48,0,0,0,1.34.83h2.21a1.5,1.5,0,0,0,1.35-.83h.7A2.18,2.18,0,0,1,130.05,197Zm.24-1.83a.28.28,0,0,1-.28-.27v-.11a.28.28,0,0,1,.28-.27h4.63a.27.27,0,0,1,.27.27v.11a.27.27,0,0,1-.27.27Zm7,1.83h-2.21a2.18,2.18,0,0,1-2.05-1.48h.7a1.5,1.5,0,0,0,1.35.83h2.21a1.49,1.49,0,0,0,1.34-.83h.7A2.16,2.16,0,0,1,137.27,197Zm5.14-2.1a.27.27,0,0,1-.27.27h-4.63a.27.27,0,0,1-.27-.27v-.11a.27.27,0,0,1,.27-.27h4.63a.27.27,0,0,1,.27.27Z"/><rect class="cls-5" x="104.44" y="167.01" width="7.45" height="19.76"/><path class="cls-5" d="M129.79,167H114.31v19.76h15.48a2.08,2.08,0,0,0,2.08-2.08v-15.6A2.08,2.08,0,0,0,129.79,167Zm-.41,17.27h-7.62V169.5h7.62Z"/><polygon class="cls-5" points="99.53 167.01 99.53 179.37 91.91 179.37 91.91 167.01 84.47 167.01 84.47 179.37 84.47 181.86 84.47 186.77 91.91 186.77 91.91 181.86 96.71 181.86 99.2 186.77 102.02 186.77 99.53 181.86 102.02 181.86 102.02 179.37 102.02 167.01 99.53 167.01"/><polygon class="cls-5" points="151.84 169.5 151.84 167.01 141.74 167.01 134.29 167.01 134.29 169.5 134.29 179.37 134.29 181.86 141.74 181.86 149.35 181.86 149.35 184.28 134.29 184.28 134.29 186.77 151.84 186.77 151.84 186.65 151.84 184.28 151.84 181.86 151.84 179.37 149.35 179.37 141.74 179.37 141.74 169.5 151.84 169.5"/><rect class="cls-6" x="70.59" y="117.65" width="95.12" height="112.97" rx="4.7"/><path class="cls-5" d="M161,117.65H75.3a4.71,4.71,0,0,0-4.71,4.71V135.7h95.13V122.36A4.71,4.71,0,0,0,161,117.65ZM79.14,130.06a3.39,3.39,0,1,1,3.38-3.38A3.38,3.38,0,0,1,79.14,130.06Zm8.82,0a3.39,3.39,0,1,1,3.39-3.38A3.38,3.38,0,0,1,88,130.06Zm8.83,0a3.39,3.39,0,1,1,3.38-3.38A3.38,3.38,0,0,1,96.79,130.06Z"/><rect class="cls-5" x="121.29" y="202.82" width="1.96" height="14.66"/><rect class="cls-5" x="115.75" y="202.82" width="1.96" height="14.66"/><rect class="cls-5" x="119.6" y="202.82" width="0.98" height="14.66"/><rect class="cls-5" x="118.41" y="202.82" width="0.49" height="14.66"/><rect class="cls-5" x="113.07" y="202.82" width="1.96" height="14.66"/><rect class="cls-5" x="111.38" y="202.82" width="0.98" height="14.66"/><rect class="cls-5" x="110.19" y="202.82" width="0.49" height="14.66"/><rect class="cls-5" x="78.1" y="202.82" width="1.96" height="14.66"/><rect class="cls-5" x="83.64" y="202.82" width="1.96" height="14.66"/><rect class="cls-5" x="80.76" y="202.82" width="0.98" height="14.66"/><rect class="cls-5" x="82.44" y="202.82" width="0.49" height="14.66"/><rect class="cls-5" x="86.32" y="202.82" width="1.96" height="14.66"/><rect class="cls-5" x="88.98" y="202.82" width="0.98" height="14.66"/><rect class="cls-5" x="90.66" y="202.82" width="0.49" height="14.66"/><rect class="cls-5" x="105.61" y="202.82" width="3.92" height="14.66"/><rect class="cls-5" x="102.95" y="202.82" width="1.96" height="14.66"/><rect class="cls-5" x="97.41" y="202.82" width="1.96" height="14.66"/><rect class="cls-5" x="101.26" y="202.82" width="0.98" height="14.66"/><rect class="cls-5" x="100.07" y="202.82" width="0.49" height="14.66"/><rect class="cls-5" x="94.73" y="202.82" width="1.96" height="14.66"/><rect class="cls-5" x="93.04" y="202.82" width="0.98" height="14.66"/><rect class="cls-5" x="91.85" y="202.82" width="0.49" height="14.66"/><rect class="cls-5" x="157.23" y="202.82" width="0.98" height="14.66"/><rect class="cls-5" x="156.04" y="202.82" width="0.49" height="14.66"/><rect class="cls-5" x="129.48" y="202.82" width="1.96" height="14.66"/><polygon class="cls-5" points="126.61 202.81 125.91 202.81 123.95 202.81 123.95 217.48 125.91 217.48 126.61 217.48 127.59 217.48 127.86 217.48 127.86 202.81 127.59 202.81 126.61 202.81"/><rect class="cls-5" x="128.29" y="202.82" width="0.49" height="14.66"/><rect class="cls-5" x="132.17" y="202.82" width="1.96" height="14.66"/><rect class="cls-5" x="134.83" y="202.82" width="0.98" height="14.66"/><rect class="cls-5" x="136.51" y="202.82" width="0.49" height="14.66"/><rect class="cls-5" x="151.45" y="202.82" width="3.92" height="14.66"/><rect class="cls-5" x="148.79" y="202.82" width="1.96" height="14.66"/><rect class="cls-5" x="143.26" y="202.82" width="1.96" height="14.66"/><rect class="cls-5" x="147.11" y="202.82" width="0.98" height="14.66"/><rect class="cls-5" x="145.92" y="202.82" width="0.49" height="14.66"/><rect class="cls-5" x="140.57" y="202.82" width="1.96" height="14.66"/><rect class="cls-5" x="138.89" y="202.82" width="0.98" height="14.66"/><rect class="cls-5" x="137.7" y="202.82" width="0.49" height="14.66"/><path class="cls-5" d="M104.24,237.27c0-1.25.72-2,1.66-2s1.65.77,1.65,2-.71,2-1.65,2S104.24,238.52,104.24,237.27Zm3,0c0-1.07-.55-1.77-1.37-1.77s-1.38.7-1.38,1.77.56,1.79,1.38,1.79S107.27,238.34,107.27,237.27Zm-2.32,0a1.07,1.07,0,0,1,1-1.16.82.82,0,0,1,.63.29l-.21.24a.55.55,0,0,0-.41-.19c-.37,0-.62.34-.62.82s.24.87.6.87a.76.76,0,0,0,.5-.21l.18.27a1,1,0,0,1-.69.28C105.39,238.48,105,238,105,237.27Z"/><path class="cls-5" d="M110.05,238.77l.25-.33a1.57,1.57,0,0,0,1.13.46c.53,0,.93-.27.93-.71s-.39-.78-1.42-.78V237c.93,0,1.28-.31,1.28-.73s-.32-.61-.79-.61a1.53,1.53,0,0,0-1,.39l-.27-.32a1.93,1.93,0,0,1,1.26-.49c.73,0,1.29.37,1.29,1,0,.47-.35.77-.83.93v0a1.09,1.09,0,0,1,1,1c0,.69-.63,1.12-1.41,1.12A1.91,1.91,0,0,1,110.05,238.77Z"/><path class="cls-5" d="M115.77,237.28c0-1.31.54-2,1.41-2s1.4.71,1.4,2-.53,2.05-1.4,2.05S115.77,238.58,115.77,237.28Zm2.34,0c0-1.12-.39-1.61-.93-1.61s-.94.49-.94,1.61.39,1.63.94,1.63S118.11,238.4,118.11,237.28Zm-1.31,0a.38.38,0,0,1,.38-.41.39.39,0,0,1,.38.41.38.38,0,0,1-.38.41A.38.38,0,0,1,116.8,237.24Z"/><path class="cls-5" d="M123.66,235.78H121.4v-.44h2.84v.31a4.93,4.93,0,0,0-1.35,3.6h-.53A5.18,5.18,0,0,1,123.66,235.78Z"/><path class="cls-5" d="M129.3,235.78h-2.25v-.44h2.83v.31a4.93,4.93,0,0,0-1.35,3.6H128A5.18,5.18,0,0,1,129.3,235.78Z"/><path class="cls-5" d="M82.51,222.13H83l.24,2.09c0,.28,0,.44.07.77h0c.06-.33.1-.49.16-.77L83.8,223h.4l.32,1.23c.07.28.1.44.16.77h0c0-.33,0-.49.06-.77l.23-2.09h.46L85,225.46h-.52l-.33-1.34c0-.2-.09-.39-.12-.59h0c0,.2-.06.39-.11.59l-.33,1.34H83Z"/><path class="cls-5" d="M87.14,225.1H88v-2.6h-.83v-.36h2.08v.36h-.83v2.6h.83v.36H87.14Z"/><path class="cls-5" d="M92.17,222.5h-1.1v-.36h2.62v.36h-1.1v3h-.42Z"/><path class="cls-5" d="M95.46,222.14h.43v1.39h1.38v-1.39h.43v3.32h-.43V223.9H95.89v1.56h-.43Z"/><path class="cls-5" d="M103.8,224.64a1,1,0,0,1,.7-.87v0a.83.83,0,0,1,.5-1.58c.64,0,1,.36,1,.86a1,1,0,0,1-.5.77v0c.36.18.64.38.64.84s-.42.86-1.16.86S103.8,225.15,103.8,224.64Zm2,0c0-.45-.45-.57-1-.75-.31.16-.55.37-.55.69s.32.62.82.62S105.75,225,105.75,224.65Zm-.11-1.6a.58.58,0,0,0-.65-.57.53.53,0,0,0-.6.52c0,.38.37.55.85.7A.82.82,0,0,0,105.64,223.05Z"/><path class="cls-5" d="M108.92,223.74l-.93-1.6h.47l.47.84c.08.16.16.29.27.49h0c.09-.2.15-.33.24-.49l.45-.84h.45l-.92,1.62,1,1.7H110l-.49-.89c-.1-.17-.19-.33-.3-.54h0c-.09.21-.18.37-.27.54l-.49.89h-.45Z"/><path class="cls-5" d="M116.4,225l.25-.29a1.39,1.39,0,0,0,1,.41c.46,0,.72-.22.72-.53s-.26-.45-.59-.59l-.48-.22a.94.94,0,0,1-.72-.85c0-.51.46-.88,1.09-.88a1.44,1.44,0,0,1,1,.41l-.23.27a1.18,1.18,0,0,0-.81-.31c-.39,0-.65.18-.65.48s.31.44.6.55l.46.21c.41.16.74.39.74.88s-.45,1-1.18,1A1.67,1.67,0,0,1,116.4,225Z"/><path class="cls-5" d="M120.59,223.8a1.52,1.52,0,0,1,1.48-1.72,1.28,1.28,0,0,1,.92.4l-.25.27a.9.9,0,0,0-.67-.3c-.63,0-1,.51-1,1.34s.41,1.36,1,1.36a1,1,0,0,0,.75-.37l.24.26a1.3,1.3,0,0,1-1,.48C121.21,225.52,120.59,224.88,120.59,223.8Z"/><path class="cls-5" d="M124.7,223.78c0-1.07.52-1.7,1.27-1.7s1.28.63,1.28,1.7-.53,1.74-1.28,1.74S124.7,224.87,124.7,223.78Zm2.11,0c0-.83-.33-1.33-.84-1.33s-.83.5-.83,1.33.33,1.37.83,1.37S126.81,224.64,126.81,223.78Z"/><path class="cls-5" d="M129.17,222.14h1c.73,0,1.23.25,1.23,1s-.51,1-1.23,1h-.58v1.32h-.43Zm1,1.66c.58,0,.86-.21.86-.68s-.28-.64-.86-.64h-.52v1.32Z"/><path class="cls-5" d="M133.43,222.14h2.06v.36h-1.63v1h1.38v.36h-1.38v1.2h1.68v.36h-2.11Z"/><path class="cls-5" d="M141.59,225l.26-.29a1.37,1.37,0,0,0,1,.41c.46,0,.72-.22.72-.53s-.26-.45-.59-.59l-.48-.22a.94.94,0,0,1-.72-.85c0-.51.46-.88,1.09-.88a1.42,1.42,0,0,1,1,.41l-.22.27a1.18,1.18,0,0,0-.82-.31c-.38,0-.64.18-.64.48s.31.44.59.55l.47.21c.41.16.73.39.73.88s-.44,1-1.17,1A1.69,1.69,0,0,1,141.59,225Z"/><path class="cls-5" d="M145.82,222.14h.51l.47,1.42.16.53h0l.16-.53.47-1.42h.52v3.32h-.41V223.8c0-.32.05-.89.07-1.18h0l-.19.65-.47,1.31h-.31l-.46-1.31-.2-.65h0c0,.29.07.86.07,1.18v1.66h-.39Z"/><path class="cls-5" d="M149.92,223.8a1.51,1.51,0,0,1,1.48-1.72,1.22,1.22,0,0,1,.91.4l-.24.27a.85.85,0,0,0-.67-.3c-.63,0-1,.51-1,1.34s.37,1.36,1,1.36a.79.79,0,0,0,.57-.2v-.86h-.66v-.35h1v1.4a1.39,1.39,0,0,1-1,.38C150.52,225.52,149.92,224.88,149.92,223.8Z"/><path class="cls-5" d="M84.67,154.22c0-4.74,2.76-7.64,6.6-7.64a5.53,5.53,0,0,1,4,1.8l-1.08,1.19a3.94,3.94,0,0,0-3-1.33c-2.81,0-4.65,2.27-4.65,5.93s1.84,6,4.65,6a4.24,4.24,0,0,0,3.3-1.61l1.08,1.14a5.71,5.71,0,0,1-4.56,2.14C87.45,161.86,84.67,159,84.67,154.22Z"/><path class="cls-5" d="M97.76,154.15c0-4.76,2.34-7.57,5.66-7.57s5.66,2.81,5.66,7.57-2.33,7.71-5.66,7.71S97.76,159,97.76,154.15Zm9.37,0c0-3.7-1.49-5.91-3.71-5.91s-3.7,2.21-3.7,5.91,1.48,6,3.7,6S107.13,157.92,107.13,154.15Z"/><path class="cls-5" d="M111.24,154.15c0-4.76,2.34-7.57,5.66-7.57s5.66,2.81,5.66,7.57-2.34,7.71-5.66,7.71S111.24,159,111.24,154.15Zm9.37,0c0-3.7-1.49-5.91-3.71-5.91s-3.71,2.21-3.71,5.91,1.49,6,3.71,6S120.61,157.92,120.61,154.15Z"/><path class="cls-5" d="M126.65,146.85h1.86V160h7.28v1.6h-9.14Z"/></g></g></svg>