<svg xmlns="http://www.w3.org/2000/svg" viewBox="0 0 271.59 286.34"><defs><style>.cls-1{fill:#00158e;}.cls-2{fill:#0751cf;}.cls-3{fill:gold;}.cls-4{font-size:12px;font-family:MS-UIGothic, MS UI Gothic;}.cls-4,.cls-5{fill:#fff;}</style></defs><g id="Layer_2" data-name="Layer 2"><g id="Layer_2-2" data-name="Layer 2"><polygon class="cls-1" points="149.88 16.16 136.54 16.16 9.18 143.52 9.18 156.85 149.88 16.16"/><polygon class="cls-1" points="187.36 16.16 174.02 16.16 9.18 181 9.18 194.33 187.36 16.16"/><polygon class="cls-1" points="112.4 16.16 99.06 16.16 9.18 106.04 9.18 119.37 112.4 16.16"/><polygon class="cls-1" points="74.92 16.16 61.58 16.16 9.18 68.56 9.18 81.89 74.92 16.16"/><polygon class="cls-1" points="37.44 16.16 24.11 16.16 9.18 31.08 9.18 44.41 37.44 16.16"/><path class="cls-1" d="M203.89,16.16v7.61L16.4,211.26H9.18v59.42H263.7V16.16Zm0,195.1H179.65L203.89,187Zm0-37.57-37.57,37.57H142.17l61.72-61.72Zm0-37.48-75,75H104.69l99.2-99.2Zm0-37.48L91.36,211.26H67.21L203.89,74.58Zm0-37.48-150,150H29.73L203.89,37.1Z"/><polygon class="cls-2" points="258.11 265.98 258.11 214.49 248.8 223.8 248.8 256.67 215.94 256.67 206.62 265.98 258.11 265.98"/><rect class="cls-3" x="260.92" y="77.4" width="5.82" height="69.45"/><rect class="cls-3" x="260.92" y="160.82" width="5.82" height="9.7"/><rect class="cls-3" x="44.81" y="269.07" width="94.28" height="4.66"/><polygon class="cls-3" points="39.94 250.56 47.46 250.56 55.48 242.54 42.94 242.54 24.86 260.62 29.88 260.62 39.94 250.56"/><polygon class="cls-3" points="56.24 250.56 63.76 250.56 71.79 242.54 59.24 242.54 41.16 260.62 46.19 260.62 56.24 250.56"/><polygon class="cls-3" points="72.55 250.56 80.07 250.56 88.09 242.54 75.55 242.54 57.47 260.62 62.49 260.62 72.55 250.56"/><polygon class="cls-3" points="88.86 250.56 96.37 250.56 104.4 242.54 91.86 242.54 73.78 260.62 78.8 260.62 88.86 250.56"/><polygon class="cls-3" points="105.16 250.56 112.68 250.56 120.71 242.54 108.16 242.54 90.08 260.62 95.11 260.62 105.16 250.56"/><polygon class="cls-3" points="121.47 250.56 128.99 250.56 137.01 242.54 124.47 242.54 106.39 260.62 111.42 260.62 121.47 250.56"/><polygon class="cls-3" points="137.78 250.56 145.29 250.56 153.32 242.54 140.78 242.54 122.69 260.62 127.72 260.62 137.78 250.56"/><polygon class="cls-3" points="154.08 250.56 161.6 250.56 169.63 242.54 157.08 242.54 139 260.62 144.03 260.62 154.08 250.56"/><path class="cls-2" d="M237.06,7H208V0h29.1ZM209.13,5.82H235.9V1.16H209.13Z"/><path class="cls-2" d="M271.59,216.89h-5V194.77h5Zm-3.88-1.17h2.72V195.93h-2.72Z"/><path class="cls-2" d="M191.67,286.34H157.91V279h33.76Zm-32.59-1.17H190.5v-5H159.08Z"/><path class="cls-3" d="M24.83,284.78H12v-4.65h12.8Zm-11.64-1.16H23.67v-2.33H13.19Z"/><path class="cls-3" d="M4.66,262.28H0v-38.8H4.66Zm-3.5-1.16H3.49V224.65H1.16Z"/><polygon class="cls-3" points="177.89 5.22 177.89 4.93 45.88 4.93 45.88 2.25 177.6 2.25 177.6 5.22 177.89 5.22 177.89 4.93 177.89 5.22 178.18 5.22 178.18 1.67 45.3 1.67 45.3 5.51 178.18 5.51 178.18 5.22 177.89 5.22"/><text class="cls-4" transform="translate(211.8 227.82)">技術<tspan x="0" y="14.4">背景</tspan></text><polygon class="cls-5" points="123.15 182.96 113.75 182.96 113.75 162.94 110.07 162.94 110.07 182.96 110.07 186.63 113.75 186.63 120.16 186.63 123.33 186.63 125.15 186.63 130.78 179.71 133.77 176.03 128.78 176.03 123.15 182.96"/><polygon class="cls-5" points="123.77 176.03 128.76 176.03 134.39 169.1 139.38 162.94 134.39 162.94 123.77 176.03"/><polygon class="cls-5" points="132.62 186.63 135.93 186.63 137.97 186.63 159.63 186.63 159.63 182.96 140.95 182.96 143.6 179.71 143.6 179.7 159.63 179.7 159.63 176.03 146.59 176.03 146.59 176.03 141.24 176.03 141.24 176.03 139.6 176.03 139.6 166.61 159.63 166.61 159.63 162.94 139.6 162.94 135.93 162.94 135.93 166.61 135.93 179.7 138.25 179.7 138.25 179.71 132.62 186.63"/><polygon class="cls-5" points="64.13 179.71 67.12 176.03 61.77 176.03 60.14 178.04 60.14 162.94 56.47 162.94 56.47 182.56 53.15 186.63 58.5 186.63 58.5 186.63 60.14 186.63 80.16 186.63 80.16 182.96 61.49 182.96 64.13 179.71"/><path class="cls-5" d="M87.14,186.63h20V162.94H83.47v19.61l-3.31,4.07h7Zm16.36-20V183h-15l2.66-3.27,3-3.67H88.78l-1.64,2V166.61Z"/><path class="cls-5" d="M188,87.15a9.74,9.74,0,0,0-6.43-10.62c3.47,1.76,4.35,9.38-.62,10.52s-8.87-4.15-5.55-11.35-6-13.51-6.22-13.68c.12.28,5.78,13.44-1.24,15.39s-2.65-7.83-2.65-7.83c-7.57,5.88-2,17.35-10.58,21.9a11.76,11.76,0,0,1-9.48.66l-.11,0c-8.41-3.34-7.32-13-2.46-19.88l0,0h0a12.07,12.07,0,0,0,2.48-6.58c.77-8.45-6.43-10.62-6.43-10.62,3.47,1.76,4.36,9.38-.62,10.52s-8.87-4.15-5.55-11.35-6-13.51-6.21-13.68c.11.28,5.78,13.44-1.25,15.39S122.46,48,122.46,48c-7.57,5.88-2,17.35-10.58,21.9a11.76,11.76,0,0,1-11,0c-8.61-4.55-3-16-10.58-21.9,0,0,4.45,9.8-2.64,7.83s-1.37-15.11-1.25-15.39c-.25.17-9.49,6.57-6.22,13.68s-.57,12.49-5.55,11.35S70.58,56.73,74.05,55c0,0-7.2,2.17-6.42,10.62a12,12,0,0,0,2.47,6.58l0,0c4.87,6.9,6,16.54-2.46,19.88l-.1,0a11.78,11.78,0,0,1-9.49-.66c-8.6-4.55-3-16-10.58-21.9,0,0,4.46,9.8-2.64,7.83S43.49,62.3,43.61,62c-.25.17-9.49,6.57-6.22,13.68s-.57,12.49-5.54,11.35-4.1-8.76-.63-10.52c0,0-7.2,2.17-6.42,10.62s7,8.35,7.36,15.09a6.87,6.87,0,0,1-.08,1.53c-.08.28-.16.57-.22.85a18.12,18.12,0,0,0,4.83,16.83l25.89,25.89,1,1,1-1,25.88-25.88A18,18,0,0,0,94.6,115l10.29,10.3a15,15,0,1,0,3,0L118.19,115a17.93,17.93,0,0,0,4.16,6.48l25.88,25.88,1,1,1-1,25.89-25.89a18.07,18.07,0,0,0,4.83-16.83c-.06-.28-.14-.57-.22-.85a7.56,7.56,0,0,1-.07-1.53C181,95.5,187.21,95.6,188,87.15ZM86.08,117.1,63.57,139.61,41.05,117.1a11.93,11.93,0,1,1,16.87-16.87l5.65,5.64,5.64-5.65A11.82,11.82,0,0,1,77,96.75a18.21,18.21,0,0,0,2.51,3.14l10,10A11.9,11.9,0,0,1,86.08,117.1Zm26.67,15H107v-5.56h0C109.39,126.86,111.44,129,112.75,132.08Zm7.25,7.43h-4.49a22.58,22.58,0,0,0-1-6.18h3.68A13.53,13.53,0,0,1,120,139.51Zm-12.94,14.24h0V148.2h5.73C111.44,151.3,109.39,153.41,107.06,153.75Zm-7-5.55h5.74v5.55h0C103.39,153.41,101.35,151.3,100,148.2Zm-7.25-7.44h4.49a22.72,22.72,0,0,0,1,6.19H94.59A13.57,13.57,0,0,1,92.78,140.76Zm12.94-14.24h0v5.56H100C101.35,129,103.39,126.86,105.72,126.52Zm0,6.81v6.18H98.52a21.53,21.53,0,0,1,1-6.18Zm-8.5,6.18H92.78a13.53,13.53,0,0,1,1.81-6.18h3.68A22.58,22.58,0,0,0,97.27,139.51Zm1.25,1.25h7.25V147H99.56A21.6,21.6,0,0,1,98.52,140.76ZM107,147v-6.19h7.24a21.6,21.6,0,0,1-1,6.19Zm8.49-6.19H120a13.57,13.57,0,0,1-1.81,6.19h-3.68A22.72,22.72,0,0,0,115.51,140.76Zm-1.25-1.25H107v-6.18h6.2A21.53,21.53,0,0,1,114.26,139.51Zm-12.55-12.18a13.73,13.73,0,0,0-3,4.75h-3.3A13.66,13.66,0,0,1,101.71,127.33Zm-6.3,20.87h3.3a13.68,13.68,0,0,0,3,4.74A13.71,13.71,0,0,1,95.41,148.2Zm15.66,4.74a13.68,13.68,0,0,0,3-4.74h3.3A13.66,13.66,0,0,1,111.07,152.94Zm6.3-20.86h-3.3a13.73,13.73,0,0,0-3-4.75A13.61,13.61,0,0,1,117.37,132.08Zm-.26-24.75h0l-10.72,10.72L95.67,107.33,83.87,95.54A12,12,0,0,1,81.7,81.66a11.77,11.77,0,0,1,2.17-3,11.92,11.92,0,0,1,6-3.25,12.59,12.59,0,0,1,2.46-.25,11.89,11.89,0,0,1,8.44,3.5l5.65,5.64L112,78.66A11.92,11.92,0,0,1,123,75.44l.71.17.1,0a13.13,13.13,0,0,1,1.56.57h0a12,12,0,0,1,2.86,1.83l0,0c.21.19.42.38.62.58s.39.41.58.62l.11.14a8.38,8.38,0,0,1,.52.66l0,0c.16.22.32.45.46.68l.06.1c.15.25.29.49.42.75l0,.07c.08.15.15.3.22.45l.06.14c.06.13.12.26.17.39a1.07,1.07,0,0,0,.07.19l.13.36.07.22c0,.11.07.22.1.33A2.17,2.17,0,0,0,132,84c0,.11.05.22.08.33s0,.16,0,.24.05.22.07.33a2,2,0,0,0,0,.24c0,.12,0,.23,0,.34l0,.23,0,.36c0,.07,0,.14,0,.21s0,.26,0,.38v.76l0,.45V88c0,.17,0,.33-.05.5v.07c0,.18-.05.36-.08.54v0a14.91,14.91,0,0,1-.43,1.72,12.56,12.56,0,0,1-.8,1.86l0,.06c-.09.16-.18.33-.28.49l-.1.15c-.08.14-.17.27-.25.39l-.13.18-.26.36-.14.18c-.1.12-.2.25-.31.37l-.12.14c-.15.16-.3.33-.46.49Zm54.63,9.77-22.52,22.51L126.7,117.1a11.83,11.83,0,0,1-3.42-7.22h0l10-10a17.68,17.68,0,0,0,2.5-3.14h0a11.8,11.8,0,0,1,7.8,3.47l5.64,5.65,5.65-5.64a11.93,11.93,0,1,1,16.88,16.87Z"/><rect class="cls-5" x="56.08" y="110.93" width="1.79" height="14.48"/><rect class="cls-5" x="69.2" y="117.28" width="1.79" height="8.13"/><rect class="cls-5" x="62.64" y="104.38" width="1.79" height="14.9" transform="translate(175.36 48.29) rotate(90)"/><rect class="cls-5" x="62.64" y="110.72" width="1.79" height="14.9" transform="translate(181.71 54.64) rotate(90)"/><rect class="cls-5" x="62.64" y="117.07" width="1.79" height="14.9" transform="translate(188.06 60.98) rotate(90)"/><rect class="cls-5" x="142.22" y="110.93" width="1.79" height="14.48"/><rect class="cls-5" x="155.34" y="117.28" width="1.79" height="8.13"/><rect class="cls-5" x="148.78" y="104.38" width="1.79" height="14.9" transform="translate(261.5 -37.85) rotate(90)"/><rect class="cls-5" x="148.78" y="110.72" width="1.79" height="14.9" transform="translate(267.85 -31.5) rotate(90)"/><rect class="cls-5" x="148.78" y="117.07" width="1.79" height="14.9" transform="translate(274.2 -25.16) rotate(90)"/><rect class="cls-5" x="98.94" y="89.37" width="1.79" height="14.48"/><rect class="cls-5" x="112.06" y="95.72" width="1.79" height="8.13"/><rect class="cls-5" x="105.5" y="82.82" width="1.79" height="14.9" transform="translate(196.66 -16.13) rotate(90)"/><rect class="cls-5" x="105.5" y="89.16" width="1.79" height="14.9" transform="translate(203.01 -9.78) rotate(90)"/><rect class="cls-5" x="105.5" y="95.51" width="1.79" height="14.9" transform="translate(209.35 -3.44) rotate(90)"/></g></g></svg>