<svg xmlns="http://www.w3.org/2000/svg" viewBox="0 0 285.37 263.25"><defs><style>.cls-1{fill:#00158e;}.cls-2{fill:#0751cf;}.cls-3{fill:gold;}.cls-4{font-size:12px;font-family:MS-UIGothic, MS UI Gothic;}.cls-4,.cls-5,.cls-6{fill:#fff;}.cls-6{font-size:10.92px;font-family:KozGoPr6N-Regular-90ms-RKSJ-H, Kozuka Gothic Pr6N;}</style></defs><g id="Layer_2" data-name="Layer 2"><g id="Layer_2-2" data-name="Layer 2"><polygon class="cls-1" points="102.28 18.46 34.73 26.77 27.68 93.06 102.28 18.46"/><polygon class="cls-1" points="275.79 197.24 236.48 1.94 112.29 17.23 26.63 102.88 9.89 260.34 224.8 248.23 275.79 197.24"/><polygon class="cls-1" points="234.1 247.71 285.37 244.82 277.26 204.55 234.1 247.71"/><path class="cls-2" d="M259.57,37.44H228.14V30.07h31.43ZM229.3,36.28h29.1V31.23H229.3Z"/><path class="cls-2" d="M34.53,229.11H0v-5.05H34.53ZM1.16,227.94H33.37v-2.71H1.16Z"/><path class="cls-2" d="M85.75,263.25H72.17V242.69H85.75Zm-12.42-1.16H84.58V243.85H73.33Z"/><path class="cls-3" d="M268.88,118.14H252.19V101.46h16.69ZM253.36,117h14.35V102.62H253.36Z"/><path class="cls-3" d="M42.48,50.63h-25V46.56h25ZM18.62,49.47h22.7V47.72H18.62Z"/><rect class="cls-3" x="65.76" y="248.31" width="1.94" height="12.8"/><rect class="cls-3" x="267.91" y="145.11" width="2.72" height="44.62"/><rect class="cls-3" x="186.82" width="3.1" height="17.85"/><rect class="cls-3" x="12.61" y="218.44" width="17.85" height="1.94"/><rect class="cls-3" x="267.91" y="235.51" width="5.04" height="19.4"/><rect class="cls-3" x="27.52" y="126.73" width="7.49" height="7.5" transform="translate(101.39 16.09) rotate(44.98)"/><rect class="cls-3" x="42.97" y="126.71" width="7.49" height="7.5" transform="translate(105.9 5.16) rotate(44.98)"/><rect class="cls-3" x="58.42" y="126.69" width="7.49" height="7.5" transform="translate(110.4 -5.76) rotate(44.98)"/><rect class="cls-3" x="73.86" y="126.67" width="7.49" height="7.5" transform="translate(114.91 -16.69) rotate(44.98)"/><rect class="cls-3" x="89.31" y="126.65" width="7.49" height="7.5" transform="translate(119.41 -27.61) rotate(44.98)"/><rect class="cls-3" x="120.86" y="6.6" width="36.08" height="12.42"/><rect class="cls-3" x="171.3" y="241.72" width="11.64" height="18.62"/><rect class="cls-3" x="251.61" y="56.26" width="6.6" height="34.53"/><polygon class="cls-2" points="248.52 214.75 248.52 193.11 244.6 197.03 244.6 210.84 230.79 210.84 226.88 214.75 248.52 214.75"/><polygon class="cls-2" points="223.21 189.2 223.21 210.84 227.12 206.93 227.12 193.11 240.93 193.11 244.85 189.2 223.21 189.2"/><text class="cls-4" transform="translate(32.89 170.54)">技術<tspan x="0" y="14.4">背景</tspan></text><rect class="cls-5" x="153.78" y="141.9" width="34.17" height="5.7" transform="translate(341.74 289.5) rotate(180)"/><rect class="cls-5" x="110.18" y="140.39" width="35.95" height="5.7" transform="translate(271.39 15.08) rotate(90)"/><rect class="cls-5" x="121.57" y="109.69" width="35.95" height="5.7" transform="translate(252.08 -27.01) rotate(90)"/><rect class="cls-5" x="184.22" y="109.69" width="35.95" height="5.7" transform="translate(314.73 -89.66) rotate(90)"/><rect class="cls-5" x="195.61" y="140.39" width="35.95" height="5.7" transform="translate(356.82 -70.35) rotate(90)"/><rect class="cls-5" x="131" y="119.56" width="5.7" height="5.7"/><rect class="cls-5" x="136.7" y="166.91" width="68.35" height="5.7" transform="translate(341.74 339.51) rotate(180)"/><rect class="cls-5" x="142.39" y="88.79" width="56.96" height="5.7" transform="translate(341.74 183.27) rotate(180)"/><rect class="cls-5" x="205.04" y="161.21" width="5.7" height="5.7" transform="translate(415.78 328.12) rotate(180)"/><rect class="cls-5" x="131" y="161.21" width="5.7" height="5.7" transform="translate(267.69 328.12) rotate(180)"/><rect class="cls-5" x="136.7" y="124.81" width="5.7" height="5.7"/><rect class="cls-5" x="142.39" y="130.51" width="5.7" height="5.7"/><rect class="cls-5" x="148.09" y="136.21" width="5.7" height="5.7"/><rect class="cls-5" x="205.04" y="119.56" width="5.7" height="5.7" transform="translate(415.78 244.82) rotate(180)"/><rect class="cls-5" x="199.35" y="124.81" width="5.7" height="5.7" transform="translate(404.39 255.32) rotate(180)"/><rect class="cls-5" x="193.65" y="130.51" width="5.7" height="5.7" transform="translate(393 266.72) rotate(180)"/><rect class="cls-5" x="187.95" y="136.21" width="5.7" height="5.7" transform="translate(381.61 278.11) rotate(180)"/><rect class="cls-5" x="154.2" y="113.39" width="5.35" height="16.03"/><rect class="cls-5" x="171.81" y="113.39" width="5.35" height="16.03"/><rect class="cls-5" x="182.2" y="113.39" width="5.35" height="14.17"/><rect class="cls-5" x="164.58" y="113.39" width="5.35" height="16.03"/><rect class="cls-5" x="159.39" y="119.81" width="5.35" height="13.89" transform="translate(288.81 -35.31) rotate(90)"/><rect class="cls-5" x="177" y="108.2" width="5.35" height="15.73" transform="translate(295.74 -63.61) rotate(90)"/><rect class="cls-5" x="177" y="117.03" width="5.35" height="15.73" transform="translate(304.57 -54.78) rotate(90)"/><polygon class="cls-5" points="145.1 160.87 143.18 160.87 142.39 159.77 142.39 157.04 145.1 160.87"/><polygon class="cls-5" points="147.35 160.87 149.28 160.87 144.38 153.95 142.45 153.95 147.35 160.87"/><polygon class="cls-5" points="151.52 160.87 153.45 160.87 148.55 153.95 146.62 153.95 151.52 160.87"/><polygon class="cls-5" points="155.69 160.87 157.62 160.87 152.72 153.95 150.79 153.95 155.69 160.87"/><polygon class="cls-5" points="159.86 160.87 161.79 160.87 156.89 153.95 154.96 153.95 159.86 160.87"/><polygon class="cls-5" points="164.04 160.87 165.97 160.87 161.06 153.95 159.13 153.95 164.04 160.87"/><polygon class="cls-5" points="168.21 160.87 170.14 160.87 165.24 153.95 163.31 153.95 168.21 160.87"/><polygon class="cls-5" points="172.38 160.87 174.31 160.87 169.41 153.95 167.48 153.95 172.38 160.87"/><polygon class="cls-5" points="176.55 160.87 178.48 160.87 173.58 153.95 171.65 153.95 176.55 160.87"/><polygon class="cls-5" points="180.72 160.87 182.66 160.87 177.75 153.95 175.82 153.95 180.72 160.87"/><polygon class="cls-5" points="184.9 160.87 186.83 160.87 181.93 153.95 180 153.95 184.9 160.87"/><polygon class="cls-5" points="189.07 160.87 191 160.87 186.1 153.95 184.17 153.95 189.07 160.87"/><polygon class="cls-5" points="193.24 160.87 195.17 160.87 190.27 153.95 188.34 153.95 193.24 160.87"/><polygon class="cls-5" points="197.41 160.87 199.34 160.87 194.44 153.95 192.51 153.95 197.41 160.87"/><polygon class="cls-5" points="199.34 154.98 199.34 157.7 196.68 153.94 198.61 153.94 199.34 154.98"/><text class="cls-6" transform="translate(145.81 107.76)">ブレーク</text></g></g></svg>