<svg xmlns="http://www.w3.org/2000/svg" viewBox="0 0 279.64 282.1"><defs><style>.cls-1{fill:#00158e;}.cls-2{fill:gold;}.cls-3{fill:#0751cf;}.cls-4,.cls-7{fill:none;}.cls-5{font-size:12px;font-family:MS-UIGothic, MS UI Gothic;}.cls-5,.cls-6,.cls-8{fill:#fff;}.cls-7{stroke:#fff;stroke-miterlimit:10;stroke-width:2.38px;}.cls-8{font-size:12.07px;font-family:KozGoPr6N-Regular-90ms-RKSJ-H, Kozuka Gothic Pr6N;}</style></defs><g id="Layer_2" data-name="Layer 2"><g id="Layer_2-2" data-name="Layer 2"><path class="cls-1" d="M262.07,44.88V33.24h10V44.88ZM272,21.6V10h-10V21.6Zm-21.6,34.92h11.64V44.88H250.43ZM46.16,257.87H57.8V248H46.16ZM34.52,236.36V248H46.16V236.36ZM262.07,56.52V68.16H250.43V56.52H238.79V68.16H227.15V56.52h11.64V44.88h11.64V33.24h11.64V21.6H250.43V10H238.79V21.6H227.15V10h11.64V3.35H17.51V257.87h17V248H22.88V236.36H34.52V224.72H22.88V213.08H34.52v11.64H46.16v11.64H57.8V248H69.43v9.87H81.07V248H92.71v9.87H272V56.52Zm0-53.17H250.43V10h11.64Z"/><rect class="cls-2" x="90.34" y="261.25" width="11.64" height="11.64"/><rect class="cls-2" x="65.49" y="263.92" width="11.64" height="11.64"/><rect class="cls-2" y="265.16" width="11.64" height="11.64"/><rect class="cls-2" x="53.3" y="251.2" width="11.64" height="11.64"/><rect class="cls-2" x="26.03" y="270.46" width="11.64" height="11.64"/><rect class="cls-2" x="17.64" y="252.12" width="11.64" height="11.64"/><rect class="cls-2" x="7.24" y="220.6" width="11.64" height="11.64"/><rect class="cls-2" x="10.35" y="239.14" width="11.64" height="11.64"/><polygon class="cls-3" points="210.67 12.22 25.99 12.22 25.99 192.25 34.72 183.52 34.72 134.05 48.1 134.05 48.1 64.21 61.68 50.63 61.68 30.84 134.62 30.84 146.85 18.62 210.67 18.62 210.67 12.22"/><rect class="cls-4" x="270.42" y="95.64" width="3.88" height="58.97"/><polygon class="cls-2" points="110.28 268.39 279.63 268.39 279.63 125.22 278.47 125.22 278.47 267.23 110.28 267.23 110.28 268.39 110.28 268.39"/><rect class="cls-2" x="27.54" width="6.79" height="5.43"/><rect class="cls-2" x="42.28" width="6.79" height="5.43"/><rect class="cls-2" x="57.03" width="6.79" height="5.43"/><rect class="cls-2" x="71.77" width="6.79" height="5.43"/><rect class="cls-2" x="86.51" width="6.79" height="5.43"/><rect class="cls-2" x="101.26" width="6.79" height="5.43"/><rect class="cls-2" x="116" width="6.79" height="5.43"/><rect class="cls-2" x="263.92" y="78.37" width="2.91" height="18.62"/><rect class="cls-2" x="263.92" y="126.97" width="2.91" height="122.8"/><polygon class="cls-2" points="94.67 34.02 90.5 29.86 94.67 25.68 92.31 23.32 88.14 27.49 83.97 23.32 81.61 25.68 85.78 29.86 81.61 34.02 83.97 36.38 88.14 32.22 92.31 36.38 94.67 34.02"/><polygon class="cls-2" points="112.13 34.02 107.96 29.86 112.13 25.68 109.77 23.32 105.6 27.49 101.43 23.32 99.07 25.68 103.24 29.86 99.07 34.02 101.43 36.38 105.6 32.22 109.77 36.38 112.13 34.02"/><polygon class="cls-2" points="129.59 34.02 125.42 29.86 129.59 25.68 127.23 23.32 123.06 27.49 118.89 23.32 116.53 25.68 120.7 29.86 116.53 34.02 118.89 36.38 123.06 32.22 127.23 36.38 129.59 34.02"/><polygon class="cls-2" points="147.05 34.02 142.88 29.86 147.05 25.68 144.69 23.32 140.52 27.49 136.35 23.32 133.99 25.68 138.16 29.86 133.99 34.02 136.35 36.38 140.52 32.22 144.69 36.38 147.05 34.02"/><text class="cls-5" transform="translate(223.35 227.32)">技術<tspan x="0" y="14.4">背景</tspan></text><path class="cls-6" d="M127.6,130.69c-4.24-10.72-46,5.28-12.73-7l.43-.16,0,0c8.21-3.07,9.38-7.82,6.36-10.75-2.57-2.47-6-2.47-9.06-2.76a2,2,0,0,1-.93-.26.42.42,0,0,1-.17-.2c-.09-.22.09-.45.25-.6,1.9-1.71,5-3,5.51-6.18s-2.57-5.7-4.36-7.23A29,29,0,0,0,103.6,90a19,19,0,0,0-4.88-1,18.71,18.71,0,0,0-9.78,2,34.39,34.39,0,0,0-11,9.56,64.35,64.35,0,0,0-8.14,13.84,62.73,62.73,0,0,0-4.44,14.32c-.61,3.51-1,7.61.13,11,1,2.85,3.08,4.16,5.54,3.92,4.68-.46,7.46-4.42,9.38-10,0-.05,0-.1,0-.15.77-2.41,1.59-5.9,2.32-9.33.12-.59.28-1.51.39-2,.25-1.36.51-2.71.77-4.06.33-1.72.65-3.44,1-5.15V113s0,0,0,0a.09.09,0,0,1,0,0c.25-1.24.5-2.47.77-3.7,1.14-5.11,2.68-10.9,6.2-14.31,3.92-3.81,10.81-3,14.74.37a6.59,6.59,0,0,1,2.59,5.45c-.27,2.9-2.76,4.74-4.71,5.85A33.87,33.87,0,0,0,99,110.36c-1.12,1-3.84,3.3-2.34,5.26.8,1,2.55,1.31,3.66,1.47a11.6,11.6,0,0,0,4.11.13c-1.21.3-2.42.56-3.64.8-1.51.31-3,.58-4.54.89l-.49.11-.28.06c-9,2.22-17.37,13.88-.83,20.84,1,.4,2.07.79,3.2,1.17C118.15,148,131.85,141.41,127.6,130.69Z"/><path class="cls-6" d="M130.48,93.9a3.89,3.89,0,0,0-3.89,3.89V140a3.89,3.89,0,0,0,3.89,3.89H168a3.06,3.06,0,0,0,3.06-3.06v-.18a3.06,3.06,0,0,0-3.06-3.06H148.5a3.06,3.06,0,0,1-3.06-3.07h0a3.06,3.06,0,0,1,3.06-3.06H168a3.06,3.06,0,0,0,3.06-3.06v-.18a3.06,3.06,0,0,0-3.06-3.06H148.5a3.06,3.06,0,0,1-3.06-3.06V103.27a3.06,3.06,0,0,1,3.06-3.06H168A3.06,3.06,0,0,0,171,97.15V97A3.06,3.06,0,0,0,168,93.9H130.48Z"/><path class="cls-6" d="M181.46,93.9a6.24,6.24,0,0,0-6.23,6.24v37.54a6.23,6.23,0,0,0,6.23,6.24h32a6.24,6.24,0,0,0,6.24-6.24V100.21h0A6.24,6.24,0,0,0,213.45,94l-19.37-.07Zm31.9,12.54v24.94a6.24,6.24,0,0,1-6.24,6.24h-6.8a6.25,6.25,0,0,1-6.24-6.24V106.44a6.24,6.24,0,0,1,6.24-6.23h6.8A6.23,6.23,0,0,1,213.36,106.44Z"/><path class="cls-6" d="M83.2,117.8a.43.43,0,0,1,0,0,.12.12,0,0,1,0,0Z"/><path class="cls-7" d="M74.57,183.93h0a7.87,7.87,0,0,1,2.26-12.28h0a57.73,57.73,0,0,1,23.22-6.23l86-4.48a38.38,38.38,0,0,1,22.58,5.95h0a8.83,8.83,0,0,1,3.82,9.59h0A17,17,0,0,1,196,189.33H86.69A16.28,16.28,0,0,1,74.57,183.93Z"/><circle class="cls-7" cx="99.68" cy="179.36" r="9.96" transform="translate(-98.93 127.78) rotate(-46.38)"/><path class="cls-7" d="M105.27,179.36a5.59,5.59,0,1,1-5.59-5.59A5.59,5.59,0,0,1,105.27,179.36Z"/><path class="cls-7" d="M191,179.36a5.59,5.59,0,1,1-5.58-5.59A5.58,5.58,0,0,1,191,179.36Z"/><circle class="cls-7" cx="185.43" cy="179.36" r="9.96" transform="translate(-21.49 333.45) rotate(-80.72)"/><path class="cls-7" d="M106.05,165.11,121.32,158a71.85,71.85,0,0,1,30.18-6.66h0a71.87,71.87,0,0,1,20.76,3.07l25.51,7.72"/><path class="cls-7" d="M108.85,165l17.27,14.72a19.56,19.56,0,0,0,12.69,4.68h38"/><path class="cls-7" d="M190.58,161l14.58-6a4.73,4.73,0,0,1,5.49,7.33l-3.12,3.9"/><line class="cls-7" x1="72.6" y1="177.7" x2="89.86" y2="177.7"/><line class="cls-7" x1="109.64" y1="177.7" x2="175.61" y2="177.7"/><line class="cls-7" x1="195.25" y1="177.7" x2="212.08" y2="177.7"/><polygon class="cls-6" points="140.69 173.24 138.85 173.24 138.11 172.19 138.11 169.6 140.69 173.24"/><polygon class="cls-6" points="142.82 173.24 144.65 173.24 139.99 166.65 138.16 166.65 142.82 173.24"/><polygon class="cls-6" points="146.78 173.24 148.62 173.24 143.96 166.65 142.12 166.65 146.78 173.24"/><polygon class="cls-6" points="150.75 173.24 152.59 173.24 147.93 166.65 146.09 166.65 150.75 173.24"/><polygon class="cls-6" points="154.72 173.24 156.55 173.24 151.89 166.65 150.06 166.65 154.72 173.24"/><polygon class="cls-6" points="158.69 173.24 160.52 173.24 155.86 166.65 154.03 166.65 158.69 173.24"/><polygon class="cls-6" points="162.65 173.24 164.49 173.24 159.83 166.65 157.99 166.65 162.65 173.24"/><polygon class="cls-6" points="166.62 173.24 168.45 173.24 163.79 166.65 161.96 166.65 166.62 173.24"/><polygon class="cls-6" points="170.55 173.24 172.38 173.24 167.72 166.65 165.88 166.65 170.55 173.24"/><polygon class="cls-6" points="172.38 167.63 172.38 170.23 169.85 166.65 171.69 166.65 172.38 167.63"/><line class="cls-7" x1="146.81" y1="151.36" x2="165.21" y2="162.03"/><line class="cls-7" x1="125.3" y1="156.32" x2="119.72" y2="164.4"/><line class="cls-7" x1="99.68" y1="173.77" x2="99.68" y2="184.95"/><line class="cls-7" x1="185.43" y1="173.77" x2="185.43" y2="184.95"/><text class="cls-8" transform="translate(64.59 208.3)">サイバーワイヤーシティ</text></g></g></svg>