<svg xmlns="http://www.w3.org/2000/svg" viewBox="0 0 273.53 284.78"><defs><style>.cls-1{fill:#00158e;}.cls-2{fill:gold;}.cls-3{fill:#0751cf;}.cls-4{font-size:12px;font-family:MS-UIGothic, MS UI Gothic;}.cls-4,.cls-5,.cls-6{fill:#fff;}.cls-6{font-size:19.34px;font-family:KozGoPr6N-Regular-90ms-RKSJ-H, Kozuka Gothic Pr6N;}</style></defs><g id="Layer_2" data-name="Layer 2"><g id="Layer_2-2" data-name="Layer 2"><polygon class="cls-1" points="256.07 237.64 256.07 152.09 250.84 146.85 250.84 36.86 235.12 36.86 235.12 22.45 181.14 22.45 175.76 27.84 109.7 27.84 98.41 16.54 7.63 16.54 7.63 192.89 16 201.27 16 239.97 21.39 245.36 21.39 258.6 85.55 258.6 85.55 266.16 139.09 266.16 139.09 271.06 262.15 271.06 262.15 243.72 256.07 237.64"/><path class="cls-2" d="M264.51,209.18V164.5a3,3,0,0,0,2.48-2.94,3.06,3.06,0,1,0-6.12,0,3,3,0,0,0,2.48,2.94v45.16l9,9v64.94H117.56v-9.89H1.16V11.83H38.8a3,3,0,0,0,3,2.49,3.07,3.07,0,0,0,0-6.13,3,3,0,0,0-3,2.48H0V274.89H116.4v9.89H273.53V218.2Z"/><polygon class="cls-2" points="156.83 258.45 162.67 258.45 168.89 252.23 159.16 252.23 145.13 266.25 149.03 266.25 156.83 258.45"/><polygon class="cls-2" points="169.48 258.45 175.32 258.45 181.54 252.23 171.81 252.23 157.78 266.25 161.68 266.25 169.48 258.45"/><polygon class="cls-2" points="182.13 258.45 187.97 258.45 194.19 252.23 184.46 252.23 170.43 266.25 174.33 266.25 182.13 258.45"/><polygon class="cls-2" points="194.78 258.45 200.62 258.45 206.84 252.23 197.11 252.23 183.09 266.25 186.99 266.25 194.78 258.45"/><polygon class="cls-2" points="207.44 258.45 213.27 258.45 219.5 252.23 209.76 252.23 195.74 266.25 199.64 266.25 207.44 258.45"/><polygon class="cls-2" points="220.09 258.45 225.92 258.45 232.15 252.23 222.41 252.23 208.39 266.25 212.29 266.25 220.09 258.45"/><polygon class="cls-2" points="232.74 258.45 238.57 258.45 244.8 252.23 235.06 252.23 221.04 266.25 224.94 266.25 232.74 258.45"/><polygon class="cls-2" points="245.39 258.45 251.22 258.45 257.45 252.23 247.71 252.23 233.69 266.25 237.59 266.25 245.39 258.45"/><polygon class="cls-3" points="21.79 20.81 16.43 20.81 12.62 27.41 16.43 34.02 21.79 34.02 17.97 27.41 21.79 20.81"/><polygon class="cls-3" points="35.48 20.81 30.12 20.81 26.31 27.41 30.12 34.02 35.48 34.02 31.66 27.41 35.48 20.81"/><polygon class="cls-3" points="49.17 20.81 43.81 20.81 40 27.41 43.81 34.02 49.17 34.02 45.35 27.41 49.17 20.81"/><polygon class="cls-3" points="62.86 20.81 57.5 20.81 53.69 27.41 57.5 34.02 62.86 34.02 59.05 27.41 62.86 20.81"/><polygon class="cls-3" points="76.55 20.81 71.19 20.81 67.38 27.41 71.19 34.02 76.55 34.02 72.73 27.41 76.55 20.81"/><polygon class="cls-3" points="90.24 20.81 84.88 20.81 81.07 27.41 84.88 34.02 90.24 34.02 86.42 27.41 90.24 20.81"/><path class="cls-2" d="M120.26,21.47h5.66L115.78,31.61h-5.65Zm22.72,0h-5.66L127.19,31.61h5.66Zm-8.53,0h-5.66L118.66,31.61h5.66Zm42.66,0h-5.66L161.32,31.61H167Zm-25.6,0h-5.65L135.72,31.61h5.66Zm17.07,0h-5.66L152.79,31.61h5.65Zm-8.54,0h-5.65L144.26,31.61h5.65Z"/><rect class="cls-2" x="229.3" y="128.23" width="38.99" height="5.24"/><rect class="cls-2" x="244.72" y="120.37" width="18.04" height="3.49"/><rect class="cls-2" x="14.55" y="246.96" width="34.92" height="4.66"/><path class="cls-2" d="M204.08,36.47h8.15V28.32h-8.15Zm1.17-7h5.82v5.82h-5.82Z"/><path class="cls-2" d="M244.43,98.36V91.57h-7.37v7.37h7.37Zm-6.2-5.63h5v5h-5Z"/><path class="cls-3" d="M237.06,198.65h8.15V190.5h-8.15Zm1.17-7h5.82v5.82h-5.82Z"/><path class="cls-2" d="M21.34,226.59H31.43V216.5H21.34Zm1.16-8.93h7.76v7.76H22.5Z"/><path class="cls-3" d="M14,178.48h6.21v-6.21H14Zm1.16-5H19v3.88H15.13Z"/><path class="cls-2" d="M54.32,263.83H76.43v-8.92H54.32Zm1.16-7.76H75.27v6.6H55.48Z"/><path class="cls-2" d="M247.93,48.5V90.4h6.59V48.5Zm1.16,1.16h4.27V89.24h-4.27Z"/><path class="cls-2" d="M250.64,32V21.73H239.78V32.59h10.86Zm-9.7-9.12h8.54v8.54h-8.54Z"/><path class="cls-2" d="M65.18,11.45V4.27H57.42V12h7.76Zm-6.59-6H64v5.43H58.59Z"/><path class="cls-3" d="M94.28,9.7H104V0h-9.7Zm1.17-8.54h7.37V8.54H95.45Z"/><polygon class="cls-2" points="32.5 87.42 26.88 87.42 26.88 81.8 23.7 81.8 23.7 87.42 18.09 87.42 18.09 90.6 23.7 90.6 23.7 96.21 26.88 96.21 26.88 90.6 32.5 90.6 32.5 87.42"/><polygon class="cls-2" points="56.87 87.42 51.25 87.42 51.25 81.8 48.07 81.8 48.07 87.42 42.45 87.42 42.45 90.6 48.07 90.6 48.07 96.21 51.25 96.21 51.25 90.6 56.87 90.6 56.87 87.42"/><polygon class="cls-2" points="81.23 87.42 75.62 87.42 75.62 81.8 72.44 81.8 72.44 87.42 66.82 87.42 66.82 90.6 72.44 90.6 72.44 96.21 75.62 96.21 75.62 90.6 81.23 90.6 81.23 87.42"/><polygon class="cls-2" points="105.6 87.42 99.98 87.42 99.98 81.8 96.8 81.8 96.8 87.42 91.19 87.42 91.19 90.6 96.8 90.6 96.8 96.21 99.98 96.21 99.98 90.6 105.6 90.6 105.6 87.42"/><text class="cls-4" transform="translate(213.01 223.33)">技術<tspan x="0" y="14.4">背景</tspan></text><path class="cls-5" d="M178,160.43c-16.89,1.46-10.13-7.68-19.82-.74s-5-3.9.54-7.05,11,8.17,11.33-6.43-5.49-20-10-7-6.35,5.37-8.35,13.58c-1.27,5.18-8.31,3.87-2.84-5.81s-5.67-19.64-10.53-6.06c-4.78,13.34,11.82,18.89,1.85,30.85-.17-4.49-2.93-6.82-10.26-2.56-15.79,9.15-18.22,14.25-10.46,11.42s-1.56,4.08-6.66,7.18-10.14-1.48-1.62-8.88,10.25-13.57,5.1-11.2-3-2.35,4.67-7.65,14.1-20.64-1.25-16.88a34.79,34.79,0,0,0-16.3,8.55h0a40.85,40.85,0,0,0-7.09,7.64c2.66-9.31,3.57-20.92-3.53-9.32-8.28,13.52-7.89,16.46-10.22,18.54-2.83,2.54-2.77-.8-1.2-3.69s-1.19-4.13-3.38-3.57-4.23-2.35-2.27-4.65c8.35-6.83,9-20.19-5.92-12.87s-17.77,10.47-6.54,6c9.2-3.66,5.25,1.15,3.52,3q-.33.31-.63.66l0,0h0c-4,4.72-2.92,14.39,2.31,14.5,6,.14,11.6-5.2,10-1.09s-6.5,11.69-1.7,8.91,7.66-7.4,4.28-.67C79.66,178,77.27,181.43,75,185l0,0c-5.13,8.14-7.44,7.18-6.33,3,1.91-7.21,7-16.91-.06-8.86s-6.66,25.1,6.61,23.78h0c5.24-.38,12.17-4.83,11.7-11.7-.72-10.77-.43-30.92.77-25.23.87,4.13,2.41,5.88,4.55,3-.67,5.3,2.12,8.75,7.57,7.76,7.67-1.4,4.47-9,10.36-14.93,6.35-5.52,10.56-7,10.56-7-6.17,6.66-17.36,16.18-11.54,16.82s-12.52,7.48-10.83,19.75,25.85,8.45,35.2-2.24a25.79,25.79,0,0,0,3.31-5c2.68,2.83,8.89,2.93,13.47-.2,8.25-5.63-10.35-17.42-1-24.17,4.42-3.21-5.59,14.18,6.1,6.85,6.66-4.18,3.61,3.53,2.3,9.59-1.06,3.76-6.69,22.57,6.4,19.6,18.4-4.17,19.67-15.12,6.67-11.27s-14,.89-3.71-5.76h0C179.87,171,193.16,159.13,178,160.43Z"/><path class="cls-5" d="M179.39,144.27c-4.71,2.76-7.19,7.3-5.53,10.14s6.83,2.9,11.54.14,7.2-7.3,5.54-10.14S184.11,141.51,179.39,144.27Z"/><path class="cls-5" d="M123.1,163.07l-.77.55-1,.74.73,1,.14.21a4.68,4.68,0,0,1,.66,1.6l.37,1.81,1.57-1c1.06-.66,2.21-1.34,3.41-2h0c1.59-.92,5.83-3.39,9.8-2.58l2.15.43-.66-2.09a30.12,30.12,0,0,0-2-4.37,36.55,36.55,0,0,1-2.83-6.56l-1.2-4.11-1.27,4.09A25.44,25.44,0,0,1,123.1,163.07Zm10.23-8.26c.61,1.41,1.26,2.68,1.84,3.79.39.75.75,1.45,1.06,2.1-4.1,0-7.81,2.19-9.36,3.09l-1.86,1.1A28.59,28.59,0,0,0,133.33,154.81Z"/><path class="cls-5" d="M196.32,141.26c-3.51-6-12.14-7-20.08-2.37l-.26.16c-1-7.72-4.18-12.44-9-13.31-3.5-.63-8.28.54-11.89,9.11a13,13,0,0,0-.89-1.53,11.09,11.09,0,0,0-10.64-5.21c-2.82.35-8,2.2-11,10.68-.07.19-.14.38-.2.57-2.28-2.21-6.47-4.1-14-2.24a43.68,43.68,0,0,0-14.52,6.33,7,7,0,0,0-3.74-3.91c-1.36-.6-4.93-1.6-8.65,2.08a26.44,26.44,0,0,0-3.51,4.61,11.12,11.12,0,0,0-1.65-6.15c-1.65-2.57-6.81-7.89-19.11-1.87-4.43,2.17-8.11,4.13-10.66,5.67A28.32,28.32,0,0,0,53.3,146c-4.24,3.39-3,7.19-2.52,8.28.58,1.32,2.39,4.17,7,3.75a17.56,17.56,0,0,0,1.17,9.56,11.17,11.17,0,0,0,6.28,6c-.45.48-.87,1-1.26,1.4-6.14,7-7.9,18.41-4,26a14.67,14.67,0,0,0,9,7.56l.12,0c.89.21,8.88,2,16-2.69A17.49,17.49,0,0,0,92.86,195c1.52,4.42,5.11,7.71,10.19,9.23a27.53,27.53,0,0,0,10.6.81c9.49-.94,19.15-5.58,24.61-11.83.32-.36.64-.75,1-1.16a18.79,18.79,0,0,0,10.37-.83,13.47,13.47,0,0,0,3.38,7.58c1.75,1.85,4.93,3.94,10.17,3.42a19.67,19.67,0,0,0,2.36-.39c10.72-2.43,18.12-7.38,19.8-13.24a8.35,8.35,0,0,0-2.09-8.37,9.31,9.31,0,0,0-3.87-2.26c1.72-1.3,3.28-2.58,4.61-3.78,4.05-3.66,8.48-8.57,6.69-14.1a8.58,8.58,0,0,0-.43-1.05l-.1-.13C196.91,154.21,199.59,146.85,196.32,141.26Zm-103.45,43c0-.75,0-1.48-.05-2.17l.74.31C93.3,183,93.06,183.66,92.87,184.28Zm94.6-26.71-1,.56a16,16,0,0,1,1.4,2.07,5.7,5.7,0,0,1,.29.72c1.33,4.11-2.49,8.25-6,11.38a76.89,76.89,0,0,1-6.87,5.42l-3.11,2.2,3.8.14a7.72,7.72,0,0,1,5.35,2,5.83,5.83,0,0,1,1.43,5.83c-1.42,4.94-8.11,9.21-17.89,11.43a16.38,16.38,0,0,1-2,.34c-4.2.41-6.7-1.2-8-2.62-1.7-1.8-2.66-4.41-2.84-7.74l-.11-1.93-1.73.83A16.3,16.3,0,0,1,139,189.39l-.87-.24-.52.73a21.13,21.13,0,0,1-1.32,1.67c-5.06,5.78-14,10.09-22.93,11a25.38,25.38,0,0,1-9.6-.72c-5.09-1.53-8.39-5.15-9.05-9.93a15.72,15.72,0,0,1,1.78-9.66l.79-1.5-1.65-.36a9.22,9.22,0,0,1-3.4-1.53l-2.07-1.53,0,2.58c0,2.89.11,7.17.37,11.1.34,5-2.24,9.74-6.91,12.78-6.09,4-13.13,2.53-13.9,2.35l-.08,0a12.09,12.09,0,0,1-7.47-6.26c-3.44-6.68-1.83-16.82,3.67-23.1a24.38,24.38,0,0,1,2.76-2.82l2.43-2-3.14-.28a8.1,8.1,0,0,1-6.67-5.09,15.19,15.19,0,0,1-.72-9.47l.28-1.22-2.17-.56-.29.05c-2.63.51-4.39-.2-5.23-2.1-.47-1-.85-3.12,1.77-5.21a28.13,28.13,0,0,1,2.88-1.93c2.49-1.5,6.11-3.43,10.47-5.56,10.43-5.11,14.52-1,15.8.95,2.34,3.65,1.26,9.67-2.63,14.64l-1,1.33,1.56.65c.2.09.39.17.55.26l1.16.62.6-1.17c1.53-3,3.32-6.15,5.48-9.68a24.82,24.82,0,0,1,3.47-4.67c2.5-2.48,4.7-2,5.79-1.56a4.92,4.92,0,0,1,2.81,3.92l.41,2.08,1.66-1.33.14-.1.15-.12h0a40.6,40.6,0,0,1,14.73-6.72c8-2,11.45.67,12.89,3.23l1.73,3.08.66-3.47a19.66,19.66,0,0,1,.78-2.8c2.57-7.18,6.69-8.71,8.93-9l.18,0a8.61,8.61,0,0,1,8,4.1,11.61,11.61,0,0,1,1.74,4.16l.93,4.39,1.55-4.21c.12-.34.25-.7.38-1.09,1.71-4.94,4.8-10.63,9.87-9.72,3.71.67,6.18,4.82,7,11.69l.14,4s.21-.15,1.37-1.09a19.38,19.38,0,0,1,2.54-1.76,18.21,18.21,0,0,1,7.3-2.5c4-.39,7.5.95,9.25,3.95C196.83,147.24,194,153.65,187.47,157.57Z"/><text class="cls-6" transform="translate(94.86 223.66)">キッズ</text></g></g></svg>