<svg xmlns="http://www.w3.org/2000/svg" viewBox="0 0 271.59 286.34"><defs><style>.cls-1{fill:#00158e;}.cls-2{fill:#0751cf;}.cls-3{fill:gold;}.cls-4{font-size:12px;font-family:MS-UIGothic, MS UI Gothic;}.cls-4,.cls-6{fill:#fff;}.cls-5{fill:#56f163;}.cls-7{fill:none;stroke:#fff;stroke-miterlimit:10;stroke-width:1.41px;}</style></defs><g id="Layer_2" data-name="Layer 2"><g id="Layer_2-2" data-name="Layer 2"><polygon class="cls-1" points="149.88 16.16 136.54 16.16 9.18 143.52 9.18 156.85 149.88 16.16"/><polygon class="cls-1" points="187.36 16.16 174.02 16.16 9.18 181 9.18 194.33 187.36 16.16"/><polygon class="cls-1" points="112.4 16.16 99.06 16.16 9.18 106.04 9.18 119.37 112.4 16.16"/><polygon class="cls-1" points="74.92 16.16 61.58 16.16 9.18 68.56 9.18 81.89 74.92 16.16"/><polygon class="cls-1" points="37.44 16.16 24.11 16.16 9.18 31.08 9.18 44.41 37.44 16.16"/><path class="cls-1" d="M203.89,16.16v7.61L16.4,211.26H9.18v59.42H263.7V16.16Zm0,195.1H179.65L203.89,187Zm0-37.57-37.57,37.57H142.17l61.72-61.72Zm0-37.48-75,75H104.69l99.2-99.2Zm0-37.48L91.36,211.26H67.21L203.89,74.58Zm0-37.48-150,150H29.73L203.89,37.1Z"/><polygon class="cls-2" points="258.11 265.98 258.11 214.49 248.8 223.8 248.8 256.67 215.94 256.67 206.62 265.98 258.11 265.98"/><rect class="cls-3" x="260.92" y="77.4" width="5.82" height="69.45"/><rect class="cls-3" x="260.92" y="160.82" width="5.82" height="9.7"/><rect class="cls-3" x="44.81" y="269.07" width="94.28" height="4.66"/><polygon class="cls-3" points="39.94 250.56 47.46 250.56 55.48 242.54 42.94 242.54 24.86 260.62 29.88 260.62 39.94 250.56"/><polygon class="cls-3" points="56.24 250.56 63.76 250.56 71.79 242.54 59.24 242.54 41.16 260.62 46.19 260.62 56.24 250.56"/><polygon class="cls-3" points="72.55 250.56 80.07 250.56 88.09 242.54 75.55 242.54 57.47 260.62 62.49 260.62 72.55 250.56"/><polygon class="cls-3" points="88.86 250.56 96.37 250.56 104.4 242.54 91.86 242.54 73.78 260.62 78.8 260.62 88.86 250.56"/><polygon class="cls-3" points="105.16 250.56 112.68 250.56 120.71 242.54 108.16 242.54 90.08 260.62 95.11 260.62 105.16 250.56"/><polygon class="cls-3" points="121.47 250.56 128.99 250.56 137.01 242.54 124.47 242.54 106.39 260.62 111.42 260.62 121.47 250.56"/><polygon class="cls-3" points="137.78 250.56 145.29 250.56 153.32 242.54 140.78 242.54 122.69 260.62 127.72 260.62 137.78 250.56"/><polygon class="cls-3" points="154.08 250.56 161.6 250.56 169.63 242.54 157.08 242.54 139 260.62 144.03 260.62 154.08 250.56"/><path class="cls-2" d="M237.06,7H208V0h29.1ZM209.13,5.82H235.9V1.16H209.13Z"/><path class="cls-2" d="M271.59,216.89h-5V194.77h5Zm-3.88-1.17h2.72V195.93h-2.72Z"/><path class="cls-2" d="M191.67,286.34H157.91V279h33.76Zm-32.59-1.17H190.5v-5H159.08Z"/><path class="cls-3" d="M24.83,284.78H12v-4.65h12.8Zm-11.64-1.16H23.67v-2.33H13.19Z"/><path class="cls-3" d="M4.66,262.28H0v-38.8H4.66Zm-3.5-1.16H3.49V224.65H1.16Z"/><polygon class="cls-3" points="177.89 5.22 177.89 4.93 45.88 4.93 45.88 2.25 177.6 2.25 177.6 5.22 177.89 5.22 177.89 4.93 177.89 5.22 178.18 5.22 178.18 1.67 45.3 1.67 45.3 5.51 178.18 5.51 178.18 5.22 177.89 5.22"/><text class="cls-4" transform="translate(211.8 227.82)">技術<tspan x="0" y="14.4">背景</tspan></text><path class="cls-5" d="M73.89,102.83l-1.12-1.06c1.14.19,2.26.4,3.37.65a1.06,1.06,0,0,1-.53.49,1.33,1.33,0,0,1-.77.08Z"/><path class="cls-5" d="M66,107.35a1.34,1.34,0,0,1,1.23-1h1c.42.31.83.61,1.26.91C68.3,107.23,67.15,107.27,66,107.35Z"/><path class="cls-5" d="M72.75,104.88c.06-.14.11-.28.17-.41l.18-.41c-.95-.81-1.88-1.65-2.8-2.53l-.4.89C70.83,103.27,71.77,104.09,72.75,104.88Z"/><path class="cls-5" d="M73.23,103.78l.36-.81c-1.43-1.32-2.82-2.7-4.17-4.17a1.36,1.36,0,0,0,.19,1.59C70.76,101.57,72,102.71,73.23,103.78Z"/><path class="cls-5" d="M73.34,109.4a1.22,1.22,0,0,0-.56-1.32q-2-1.36-4-2.9l-.32.93C70,107.28,71.68,108.38,73.34,109.4Z"/><path class="cls-5" d="M72.31,106l.33-.83c-1-.78-2-1.6-2.88-2.44-.14.3-.26.6-.38.91C70.34,104.46,71.32,105.24,72.31,106Z"/><path class="cls-5" d="M71.92,107.13l.28-.85c-1-.74-2-1.52-2.94-2.33l-.36.91C69.89,105.65,70.9,106.41,71.92,107.13Z"/><path class="cls-6" d="M79.1,91.35l.65.66a40.41,40.41,0,0,0-3.89,4.58c-.29.41-.59.81-.86,1.24l-.81,1.26-.75,1.31a7,7,0,0,0-.36.66l-.34.67-.7-.68A39.17,39.17,0,0,1,79.1,91.35Z"/><path class="cls-5" d="M70.31,107.81l-.38,1.32c-.11.44-.2.88-.3,1.31h-.95c.23-1.07.5-2.13.82-3.18Z"/><path class="cls-6" d="M94.61,84.48c0-.51,0-1,0-1.54.67.93,1.31,1.86,1.93,2.84a1.26,1.26,0,0,1-.72,0,1.31,1.31,0,0,1-.61-.49Z"/><path class="cls-6" d="M85.82,82.08a1.33,1.33,0,0,1,1.59.16l.7.67c.08.52.16,1,.25,1.53C87.53,83.63,86.69,82.85,85.82,82.08Z"/><path class="cls-6" d="M92.35,85.12l.83-.33C93.08,83.55,93,82.27,93,81c-.32.1-.62.23-.92.35C92.13,82.63,92.22,83.88,92.35,85.12Z"/><path class="cls-6" d="M93.46,84.68l.42-.17.42-.14c0-1-.07-2-.07-2.94s0-2,.06-3a1.4,1.4,0,0,0-.72.48,1.32,1.32,0,0,0-.27.78C93.29,81.39,93.34,83,93.46,84.68Z"/><path class="cls-6" d="M89.57,88.73a1.25,1.25,0,0,0,.55-1.32c-.32-1.59-.59-3.24-.79-4.88-.3.13-.58.29-.88.44C88.74,84.92,89.11,86.83,89.57,88.73Z"/><path class="cls-6" d="M91.25,85.61l.82-.37c-.15-1.25-.25-2.49-.32-3.75l-.91.36C91,83.12,91.08,84.37,91.25,85.61Z"/><path class="cls-6" d="M90.17,86.12c.27-.13.53-.27.8-.39-.18-1.23-.32-2.48-.44-3.74l-.89.4c.07.63.15,1.25.24,1.87S90.06,85.51,90.17,86.12Z"/><path class="cls-6" d="M106.4,80V81a42.81,42.81,0,0,0-6,.48,37.42,37.42,0,0,0-5.84,1.43l0-1a40.77,40.77,0,0,1,5.85-1.39A43.06,43.06,0,0,1,106.4,80Z"/><path class="cls-6" d="M79.75,92l-.65-.66a41.34,41.34,0,0,1,4.38-3.76,39.39,39.39,0,0,1,4.89-3.08l.18,1a40.85,40.85,0,0,0-4.64,3A41.66,41.66,0,0,0,79.75,92Z"/><path class="cls-6" d="M122.23,86.15c.34-.38.7-.75,1.06-1.12-.19,1.14-.41,2.26-.65,3.37a1.06,1.06,0,0,1-.49-.53,1.33,1.33,0,0,1-.09-.77Z"/><path class="cls-6" d="M117.71,78.24a1.34,1.34,0,0,1,1,1.23l0,1-.91,1.26C117.83,80.56,117.78,79.4,117.71,78.24Z"/><path class="cls-6" d="M120.18,85l.41.16.41.19c.81-1,1.65-1.88,2.53-2.8l-.9-.4C121.78,83.09,121,84,120.18,85Z"/><path class="cls-6" d="M121.28,85.48l.81.37c1.31-1.44,2.7-2.82,4.17-4.17a1.36,1.36,0,0,0-1.6.19C123.49,83,122.35,84.25,121.28,85.48Z"/><path class="cls-6" d="M115.66,85.59A1.22,1.22,0,0,0,117,85c.91-1.35,1.87-2.68,2.9-4l-.93-.31C117.77,82.3,116.67,83.94,115.66,85.59Z"/><path class="cls-6" d="M119.06,84.57l.83.33c.78-1,1.6-2,2.44-2.88-.3-.14-.6-.26-.91-.38C120.6,82.6,119.81,83.58,119.06,84.57Z"/><path class="cls-6" d="M117.93,84.18l.84.28c.75-1,1.52-2,2.34-2.95l-.92-.36C119.41,82.15,118.65,83.16,117.93,84.18Z"/><path class="cls-6" d="M133.7,91.35,133,92a38.73,38.73,0,0,0-4.58-3.89c-.41-.29-.81-.6-1.23-.86L126,86.44l-1.3-.75c-.22-.13-.44-.24-.66-.35l-.67-.35.68-.69A38.89,38.89,0,0,1,133.7,91.35Z"/><path class="cls-6" d="M106.4,81V80a46.22,46.22,0,0,1,5.76.43,43.45,43.45,0,0,1,5.64,1.29l-.55.81-1.33-.38-1.34-.31c-.22,0-.44-.11-.67-.15l-.67-.13c-.46-.07-.9-.17-1.36-.22A41.84,41.84,0,0,0,106.4,81Z"/><path class="cls-5" d="M140.57,106.86l1.55,0c-.93.67-1.87,1.31-2.84,1.93a1.22,1.22,0,0,1,0-.73,1.31,1.31,0,0,1,.48-.6Z"/><path class="cls-5" d="M143,98.08a1.32,1.32,0,0,1-.15,1.59l-.68.7-1.53.25C141.43,99.79,142.21,99,143,98.08Z"/><path class="cls-5" d="M139.94,104.61l.33.83c1.24-.1,2.52-.17,3.76-.2-.1-.31-.22-.61-.34-.92C142.43,104.38,141.18,104.48,139.94,104.61Z"/><path class="cls-5" d="M140.38,105.72l.16.42.15.42c1,0,1.95-.07,2.94-.07s2,0,3,.06a1.32,1.32,0,0,0-.49-.72,1.26,1.26,0,0,0-.77-.27C143.66,105.55,142,105.6,140.38,105.72Z"/><path class="cls-5" d="M136.32,101.83a1.25,1.25,0,0,0,1.32.54c1.6-.31,3.25-.58,4.88-.78-.13-.3-.29-.59-.43-.88C140.13,101,138.23,101.36,136.32,101.83Z"/><path class="cls-5" d="M139.45,103.51l.37.81c1.25-.14,2.48-.24,3.75-.31l-.36-.91C141.94,103.2,140.69,103.34,139.45,103.51Z"/><path class="cls-5" d="M138.93,102.43a8.43,8.43,0,0,1,.39.8c1.24-.18,2.48-.33,3.75-.44l-.41-.89-1.86.23C140.17,102.22,139.55,102.32,138.93,102.43Z"/><path class="cls-5" d="M144.13,110.44h-.95c-.28-1.22-.62-2.43-1-3.62h1C143.53,108,143.86,109.22,144.13,110.44Z"/><path class="cls-6" d="M133,92l.66-.66a41.38,41.38,0,0,1,3.77,4.39,38.59,38.59,0,0,1,3.07,4.89l-.95.18a40.85,40.85,0,0,0-3-4.64A43.11,43.11,0,0,0,133,92Z"/><path class="cls-6" d="M170.88,62.25,132.8,100.34a1.86,1.86,0,0,0,0,2.65l8.66,8.67a3.88,3.88,0,0,0,5.48,0L183.61,75a3.86,3.86,0,0,0,0-5.48l-7.25-7.25A3.88,3.88,0,0,0,170.88,62.25Z"/><path class="cls-7" d="M128,108.67,60.69,176a2.12,2.12,0,0,0,2,3.56h0a111.24,111.24,0,0,0,54.77-30l25.72-25.72-1-12.3L133.61,103Z"/><polygon class="cls-6" points="142.66 124.28 132.9 114.51 143.09 123.39 142.66 124.28"/><path class="cls-6" d="M36.21,62.25,29,69.5A3.86,3.86,0,0,0,29,75l36.67,36.68a3.88,3.88,0,0,0,5.48,0L79.78,103a1.88,1.88,0,0,0,0-2.65L41.69,62.25A3.88,3.88,0,0,0,36.21,62.25Z"/><path class="cls-7" d="M121.43,145.51,151.88,176a2.11,2.11,0,0,1-1.95,3.56h0a111.2,111.2,0,0,1-43.64-20.25"/><polyline class="cls-7" points="91.14 145.51 69.45 123.82 70.47 111.52 78.96 103.04 84.59 108.67 106.29 130.37"/><polygon class="cls-6" points="69.91 124.28 79.68 114.51 69.48 123.39 69.91 124.28"/><path class="cls-6" d="M163,141.85c0,9.59-25.81,17.36-57.64,17.36s-57.66-7.77-57.66-17.36c0-3.41,3.27-6.59,8.91-9.27-2.75,1.93-4.27,4.06-4.27,6.29,0,8.81,23.74,16,53,16s53-7.15,53-16c0-2.24-1.52-4.36-4.27-6.29C159.77,135.26,163,138.44,163,141.85Z"/><path class="cls-6" d="M163,129.39c0,9.58-25.81,17.35-57.64,17.35S47.73,139,47.73,129.39c0-3.42,3.27-6.6,8.91-9.28-2.75,1.93-4.27,4.06-4.27,6.29,0,8.81,23.74,16,53,16s53-7.15,53-16c0-2.24-1.52-4.36-4.27-6.29C159.77,122.79,163,126,163,129.39Z"/><path class="cls-6" d="M105.38,94.09a10.28,10.28,0,1,0,10.28,10.27A10.27,10.27,0,0,0,105.38,94.09Zm1.79,6.87a.73.73,0,0,1,.73-.73.72.72,0,0,1,.74.73v1.53a.74.74,0,1,1-1.47,0Zm-5,0a.74.74,0,0,1,1.26-.52.73.73,0,0,1,.22.52v1.53a.74.74,0,1,1-1.48,0Zm3.26,10.59a7.2,7.2,0,0,1-7.18-7.19h1.08a6.11,6.11,0,1,0,12.21,0h1.08A7.2,7.2,0,0,1,105.38,111.55Z"/></g></g></svg>