<svg xmlns="http://www.w3.org/2000/svg" viewBox="0 0 285.37 263.25"><defs><style>.cls-1{fill:#00158e;}.cls-2{fill:#0751cf;}.cls-3{fill:gold;}.cls-4{font-size:12px;font-family:MS-UIGothic, MS UI Gothic;}.cls-4,.cls-5,.cls-8{fill:#fff;}.cls-6,.cls-7{fill:none;stroke:#fff;stroke-miterlimit:10;}.cls-6{stroke-width:2.99px;}.cls-7{stroke-width:1px;}.cls-8{font-size:11.56px;font-family:KozGoPr6N-Regular-90ms-RKSJ-H, Kozuka Gothic Pr6N;}</style></defs><g id="Layer_2" data-name="Layer 2"><g id="Layer_2-2" data-name="Layer 2"><polygon class="cls-1" points="102.28 18.46 34.73 26.77 27.68 93.06 102.28 18.46"/><polygon class="cls-1" points="275.79 197.24 236.48 1.94 112.29 17.23 26.63 102.88 9.89 260.34 224.8 248.23 275.79 197.24"/><polygon class="cls-1" points="234.1 247.71 285.37 244.82 277.26 204.55 234.1 247.71"/><path class="cls-2" d="M259.57,37.44H228.14V30.07h31.43ZM229.3,36.28h29.1V31.23H229.3Z"/><path class="cls-2" d="M34.53,229.11H0v-5.05H34.53ZM1.16,227.94H33.37v-2.71H1.16Z"/><path class="cls-2" d="M85.75,263.25H72.17V242.69H85.75Zm-12.42-1.16H84.58V243.85H73.33Z"/><path class="cls-3" d="M268.88,118.14H252.19V101.46h16.69ZM253.36,117h14.35V102.62H253.36Z"/><path class="cls-3" d="M42.48,50.63h-25V46.56h25ZM18.62,49.47h22.7V47.72H18.62Z"/><rect class="cls-3" x="65.76" y="248.31" width="1.94" height="12.8"/><rect class="cls-3" x="267.91" y="145.11" width="2.72" height="44.62"/><rect class="cls-3" x="186.82" width="3.1" height="17.85"/><rect class="cls-3" x="12.61" y="218.44" width="17.85" height="1.94"/><rect class="cls-3" x="267.91" y="235.51" width="5.04" height="19.4"/><rect class="cls-3" x="12.07" y="126.75" width="7.49" height="7.5" transform="translate(96.88 27.02) rotate(44.98)"/><rect class="cls-3" x="27.52" y="126.73" width="7.49" height="7.5" transform="translate(101.39 16.09) rotate(44.98)"/><rect class="cls-3" x="42.97" y="126.71" width="7.49" height="7.5" transform="translate(105.9 5.16) rotate(44.98)"/><rect class="cls-3" x="58.42" y="126.69" width="7.49" height="7.5" transform="translate(110.4 -5.76) rotate(44.98)"/><rect class="cls-3" x="73.86" y="126.67" width="7.49" height="7.5" transform="translate(114.91 -16.69) rotate(44.98)"/><rect class="cls-3" x="89.31" y="126.65" width="7.49" height="7.5" transform="translate(119.41 -27.61) rotate(44.98)"/><rect class="cls-3" x="120.86" y="6.6" width="36.08" height="12.42"/><rect class="cls-3" x="171.3" y="241.72" width="11.64" height="18.62"/><rect class="cls-3" x="251.61" y="56.26" width="6.6" height="34.53"/><polygon class="cls-2" points="248.52 214.75 248.52 193.11 244.6 197.03 244.6 210.84 230.79 210.84 226.88 214.75 248.52 214.75"/><polygon class="cls-2" points="223.21 189.2 223.21 210.84 227.12 206.93 227.12 193.11 240.93 193.11 244.85 189.2 223.21 189.2"/><text class="cls-4" transform="translate(32.89 170.54)">技術<tspan x="0" y="14.4">背景</tspan></text><path class="cls-5" d="M174.16,132.37l-9.47,15.78a7,7,0,0,1-6,3.39H154V124a3.24,3.24,0,0,1,3.24-3.23h9.09v7H161V139.9l11.5-19.17h8.66v16.74l-7,11.6Z"/><path class="cls-5" d="M197.81,126.55l-4,6.67h13.65v5.83H190.31l-4,6.67h19.63l-3.51,5.82H174.16v-.09l7-11.6v.05l4.95-8.27,4.51-7.51a7,7,0,0,1,6-3.39h10.85v5.82Z"/><path class="cls-5" d="M231,120.73v27.58a3.23,3.23,0,0,1-3.24,3.23h-9.09v-7h5.35V132.37l-11.51,19.17h-8.68l3.51-5.82h0l2-3.34,6.12-10.19,4.84-8.07a7,7,0,0,1,6-3.39Z"/><polygon class="cls-5" points="215.53 132.21 209.39 142.38 215.51 132.19 215.53 132.21"/><path class="cls-5" d="M135.88,113.72a18.91,18.91,0,1,0,18.91,18.91A18.94,18.94,0,0,0,135.88,113.72Zm.84,36.13h-.05v-7h7.25C142.26,146.75,139.67,149.42,136.72,149.85Zm-8.88-7h7.25v7H135C132.08,149.42,129.49,146.75,127.84,142.83Zm-9.18-9.41h5.68a28.39,28.39,0,0,0,1.27,7.83H121A17.13,17.13,0,0,1,118.66,133.42Zm16.37-18h.06v7h-7.25C129.49,118.51,132.08,115.84,135,115.41Zm8.89,7h-7.25v-7h.05C139.67,115.84,142.26,118.51,143.92,122.43Zm.59,1.58a26.89,26.89,0,0,1,1.32,7.83h-9.16V124Zm-9.42,0v7.83h-9.17a27.57,27.57,0,0,1,1.32-7.83Zm-10.75,7.83h-5.68A17.13,17.13,0,0,1,121,124h4.66A28.39,28.39,0,0,0,124.34,131.84Zm1.58,1.58h9.17v7.83h-7.85A27.57,27.57,0,0,1,125.92,133.42Zm10.75,7.83v-7.83h9.16a26.89,26.89,0,0,1-1.32,7.83Zm10.74-7.83h5.69a17.13,17.13,0,0,1-2.3,7.83h-4.65A28.77,28.77,0,0,0,147.41,133.42Zm0-1.58a28.77,28.77,0,0,0-1.26-7.83h4.65a17.13,17.13,0,0,1,2.3,7.83Zm2.36-9.41h-4.18a17.49,17.49,0,0,0-3.79-6A17.38,17.38,0,0,1,149.77,122.43Zm-19.81-6a17.2,17.2,0,0,0-3.79,6H122A17.4,17.4,0,0,1,130,116.43Zm-8,26.4h4.19a17.2,17.2,0,0,0,3.79,6A17.4,17.4,0,0,1,122,142.83Zm19.82,6a17.49,17.49,0,0,0,3.79-6h4.18A17.38,17.38,0,0,1,141.8,148.83Z"/><path class="cls-6" d="M166.88,94.2c6.13-3.1,9.84-6.2,9.2-8.11-1-3-12.09-1.91-24.81,2.34S129,98.51,130,101.47c.64,1.91,5.47,2.16,12.23,1"/><path class="cls-6" d="M141.19,92.42a11.19,11.19,0,0,1,21.24-7"/><path class="cls-7" d="M193.31,122.79l-30-32.43c-1-1.1-5.39-.86-11.06,1s-9.3,4.33-9.47,5.81l-1.85,18.2"/><path class="cls-5" d="M167.5,107.29c-.07-1.62.48-4.31-1.07-5.05s-6-2.63-8.61-1.63c-4,1.53-5.71,2.28-5.91,4.56s-.7,4.86-1.49,5.41l-.51.35a1.37,1.37,0,0,1-.81-.67,1.4,1.4,0,0,0,.42,1.12,1.27,1.27,0,0,0,0,.43c.11.64-1.64.27-1.64.27a1.29,1.29,0,0,0,1.61.69,1.91,1.91,0,0,1,1.32,1.76c.23,1.54.05,1.45,1.05,1.16s1.52-1.6,1.51-2.67.63-2.92,1.78-2.33.65,1.21,1.61,1.27-.35,1.43.62,2.1,1.75.24,1.26-.34,1.54-.31.74-1-1.47-.75-1.31-1.39-.63-.31-.79-1.26,1.41-1,1.46-1.79c0,0,1.29.86,2,.47s-.36,1.65.41,1.15.48.68.87.37.28,2.69,1.18,3.69.88-.17.61-.91a3.71,3.71,0,0,1-.31-2.83c.46-1.08.78,1,.77,2.26s.29,3,.65,1.93-.29-2.13,0-3,.9-1.79.3-3,1.1-1,1.35-3.16c0,0,.36,3.29,1.6,4.14S167.58,108.92,167.5,107.29Z"/><text class="cls-8" transform="translate(136.23 165.24)">アポカリプス</text><path class="cls-5" d="M163.8,174.05c0-1.18.68-1.91,1.56-1.91s1.56.73,1.56,1.91-.68,1.93-1.56,1.93S163.8,175.23,163.8,174.05Zm2.85,0c0-1-.52-1.67-1.29-1.67s-1.29.66-1.29,1.67.52,1.68,1.29,1.68S166.65,175.06,166.65,174.05Zm-2.18,0a1,1,0,0,1,.95-1.09.77.77,0,0,1,.6.27l-.19.22a.6.6,0,0,0-.39-.17c-.35,0-.58.32-.58.77s.22.82.56.82a.67.67,0,0,0,.46-.2l.18.25a.93.93,0,0,1-.66.27C164.89,175.19,164.47,174.76,164.47,174.05Z"/><path class="cls-5" d="M169.26,175.46l.24-.31a1.52,1.52,0,0,0,1.06.43c.5,0,.88-.26.88-.67s-.37-.73-1.34-.73v-.36c.88,0,1.21-.3,1.21-.69s-.31-.57-.75-.57a1.42,1.42,0,0,0-.91.36l-.25-.3a1.81,1.81,0,0,1,1.18-.46c.69,0,1.21.34,1.21.94,0,.44-.32.72-.78.87v0a1,1,0,0,1,.91.93c0,.65-.6,1-1.33,1A1.81,1.81,0,0,1,169.26,175.46Z"/><path class="cls-5" d="M174.65,174.06c0-1.23.5-1.9,1.32-1.9s1.32.67,1.32,1.9S176.79,176,176,176,174.65,175.28,174.65,174.06Zm2.2,0c0-1.06-.37-1.51-.88-1.51s-.88.45-.88,1.51.37,1.53.88,1.53S176.85,175.12,176.85,174.06Zm-1.24,0a.36.36,0,1,1,.72,0,.36.36,0,1,1-.72,0Z"/><path class="cls-5" d="M182.06,172.65H180v-.42h2.66v.3a4.67,4.67,0,0,0-1.27,3.38h-.5A5,5,0,0,1,182.06,172.65Z"/><path class="cls-5" d="M187.37,172.65h-2.12v-.42h2.67v.3a4.63,4.63,0,0,0-1.27,3.38h-.5A4.86,4.86,0,0,1,187.37,172.65Z"/></g></g></svg>