<svg xmlns="http://www.w3.org/2000/svg" viewBox="0 0 279.64 282.1"><defs><style>.cls-1{fill:#00158e;}.cls-2{fill:gold;}.cls-3{fill:#0751cf;}.cls-4{fill:none;}.cls-5{font-size:12px;font-family:MS-UIGothic, MS UI Gothic;}.cls-5,.cls-6,.cls-7{fill:#fff;}.cls-7{font-size:14.47px;font-family:KozGoPr6N-Regular-90ms-RKSJ-H, Kozuka Gothic Pr6N;}</style></defs><g id="Layer_2" data-name="Layer 2"><g id="Layer_2-2" data-name="Layer 2"><path class="cls-1" d="M262.07,44.88V33.24h10V44.88ZM272,21.6V10h-10V21.6Zm-21.6,34.92h11.64V44.88H250.43ZM46.16,257.87H57.8V248H46.16ZM34.52,236.36V248H46.16V236.36ZM262.07,56.52V68.16H250.43V56.52H238.79V68.16H227.15V56.52h11.64V44.88h11.64V33.24h11.64V21.6H250.43V10H238.79V21.6H227.15V10h11.64V3.35H17.51V257.87h17V248H22.88V236.36H34.52V224.72H22.88V213.08H34.52v11.64H46.16v11.64H57.8V248H69.43v9.87H81.07V248H92.71v9.87H272V56.52Zm0-53.17H250.43V10h11.64Z"/><rect class="cls-2" x="90.34" y="261.25" width="11.64" height="11.64"/><rect class="cls-2" x="65.49" y="263.92" width="11.64" height="11.64"/><rect class="cls-2" y="265.16" width="11.64" height="11.64"/><rect class="cls-2" x="53.3" y="251.2" width="11.64" height="11.64"/><rect class="cls-2" x="26.03" y="270.46" width="11.64" height="11.64"/><rect class="cls-2" x="17.64" y="252.12" width="11.64" height="11.64"/><rect class="cls-2" x="7.24" y="220.6" width="11.64" height="11.64"/><rect class="cls-2" x="10.35" y="239.14" width="11.64" height="11.64"/><polygon class="cls-3" points="210.67 12.22 25.99 12.22 25.99 192.25 34.72 183.52 34.72 134.05 48.1 134.05 48.1 64.21 61.68 50.63 61.68 30.84 134.62 30.84 146.85 18.62 210.67 18.62 210.67 12.22"/><rect class="cls-4" x="270.42" y="95.64" width="3.88" height="58.97"/><polygon class="cls-2" points="110.28 268.39 279.63 268.39 279.63 125.22 278.47 125.22 278.47 267.23 110.28 267.23 110.28 268.39 110.28 268.39"/><rect class="cls-2" x="27.54" width="6.79" height="5.43"/><rect class="cls-2" x="42.28" width="6.79" height="5.43"/><rect class="cls-2" x="57.03" width="6.79" height="5.43"/><rect class="cls-2" x="71.77" width="6.79" height="5.43"/><rect class="cls-2" x="86.51" width="6.79" height="5.43"/><rect class="cls-2" x="101.26" width="6.79" height="5.43"/><rect class="cls-2" x="116" width="6.79" height="5.43"/><rect class="cls-2" x="263.92" y="78.37" width="2.91" height="18.62"/><rect class="cls-2" x="263.92" y="126.97" width="2.91" height="122.8"/><polygon class="cls-2" points="94.67 34.02 90.5 29.86 94.67 25.68 92.31 23.32 88.14 27.49 83.97 23.32 81.61 25.68 85.78 29.86 81.61 34.02 83.97 36.38 88.14 32.22 92.31 36.38 94.67 34.02"/><polygon class="cls-2" points="112.13 34.02 107.96 29.86 112.13 25.68 109.77 23.32 105.6 27.49 101.43 23.32 99.07 25.68 103.24 29.86 99.07 34.02 101.43 36.38 105.6 32.22 109.77 36.38 112.13 34.02"/><polygon class="cls-2" points="129.59 34.02 125.42 29.86 129.59 25.68 127.23 23.32 123.06 27.49 118.89 23.32 116.53 25.68 120.7 29.86 116.53 34.02 118.89 36.38 123.06 32.22 127.23 36.38 129.59 34.02"/><polygon class="cls-2" points="147.05 34.02 142.88 29.86 147.05 25.68 144.69 23.32 140.52 27.49 136.35 23.32 133.99 25.68 138.16 29.86 133.99 34.02 136.35 36.38 140.52 32.22 144.69 36.38 147.05 34.02"/><text class="cls-5" transform="translate(223.35 227.32)">技術<tspan x="0" y="14.4">背景</tspan></text><path class="cls-6" d="M151.35,129.35l-1.23,1a19.68,19.68,0,0,1-3.49,2.08h3.53a11,11,0,0,1,.64-1.51l.8-1.53Zm-53.06,0a4.46,4.46,0,0,0,.38,3h19.1l.34-.16c3.1-1.46,5.26-2.38,6.71-2.88Zm53.06,0-1.23,1a19.68,19.68,0,0,1-3.49,2.08h3.53a11,11,0,0,1,.64-1.51l.8-1.53Zm60.3,12a10.5,10.5,0,0,1-10.49-10.48v-1.52H177.57c-.71,1.11-1.43,2.12-2.13,3h22.77A13.54,13.54,0,0,0,208,143.88H81.42a13.55,13.55,0,0,0,9.77-11.49H96a7,7,0,0,1-.22-3H88.23v1.52a10.49,10.49,0,0,1-10.48,10.48H75.49v49h2.26a10.49,10.49,0,0,1,10.48,10.48v1.52H201.16v-1.52a10.5,10.5,0,0,1,10.49-10.48h2.25v-49Zm-13.44,58h-107a13.57,13.57,0,0,0-9.78-11.5H208A13.56,13.56,0,0,0,198.21,199.34Zm12.64-12.51H78.53V144.9H210.85Zm-36.29-57.48H154.81c-.41.52-.8,1.07-1.19,1.66a10,10,0,0,0-.78,1.38h19.39A35.08,35.08,0,0,0,174.56,129.35Zm-24.4,3a11,11,0,0,1,.64-1.51l.8-1.53h-.25l-1.23,1a19.68,19.68,0,0,1-3.49,2.08Zm-22.65-3a14.43,14.43,0,0,1-1.91,3h14.34a45.16,45.16,0,0,0,7.12-3Z"/><path class="cls-6" d="M186.65,162.72H179a8.83,8.83,0,0,0-16.5,0h-9.24a8.83,8.83,0,0,0-16.5,0h-9.25a8.83,8.83,0,0,0-16.5,0h-7.69a3.15,3.15,0,1,0,0,6.29H111a8.83,8.83,0,0,0,16.5,0h9.25a8.83,8.83,0,0,0,16.5,0h9.24a8.83,8.83,0,0,0,16.5,0h7.7a3.15,3.15,0,1,0,0-6.29Zm0,5.28h-8.42l-.12.34a7.81,7.81,0,0,1-14.82,0l-.11-.34H152.49l-.12.34a7.81,7.81,0,0,1-14.82,0l-.12-.34H126.74l-.12.34a7.81,7.81,0,0,1-14.82,0l-.11-.34h-8.42a2.14,2.14,0,1,1,0-4.27h8.42l.11-.34a7.81,7.81,0,0,1,14.82,0l.12.34h10.69l.12-.34a7.81,7.81,0,0,1,14.82,0l.12.34h10.69l.11-.34a7.81,7.81,0,0,1,14.82,0l.12.34h8.42a2.14,2.14,0,0,1,0,4.27Z"/><path class="cls-6" d="M147.06,129.35a45.16,45.16,0,0,1-7.12,3,87.37,87.37,0,0,1-11.59,3.09c-5,.94-4.13-1-2.75-3.09a14.43,14.43,0,0,0,1.91-3c.11-.62-.51-.77-2.69,0-1.45.5-3.61,1.42-6.71,2.88l-.34.16c-10.2,4.71-17.24,3.49-19.1,0a4.46,4.46,0,0,1-.38-3c.73-3.61,5.24-8.11,14.62-11.56,7.17-2.63,11.22-4.79,13.14-6.45,7-5,7.63-10.72,2.71-8.36s-13.56,2-6.52-5.37-3.86-11.25-12.26,2.48-29.39,6.09-14.93-6,25.45-15.63,34.08-9.42-9.08,16.07,2.5,13.19,10.91,3.76,2.52,12.21c-3.65,4.5-11.49,7.58-18.15,11-10.42,5.33,3.35,2.89,19.94-2.75s-6.89,4,8.29,5.75C151.54,125,151,127.11,147.06,129.35Z"/><path class="cls-6" d="M187.62,101.12a10.86,10.86,0,0,1-1.23,4.2s-5.41,14.77-11.83,24a35.08,35.08,0,0,1-2.33,3c-1.8,2.08-3.63,3.58-5.42,4.06-8.46,2.32-16.68,1.79-14-4.06a10,10,0,0,1,.78-1.38c.39-.59.78-1.14,1.19-1.66,3.56-4.54,7.87-6.72,13.27-11.41a50.64,50.64,0,0,0,6.3-6.63c4-5,7.58-8.16,5.39-7.1-4.93,2.35-13.56,2-6.52-5.37s-3.86-11.25-12.27,2.49-29.38,6.08-14.92-6c.7-.58,1.39-1.14,2.08-1.68.28-.22,10.69-8.49,0-5s-12.27,1.27-3.24-5.68c5.18-4,8.48-2.65,2.12,1.74s5.75-2.42,17.35-5.45c7.36-1.92,5.38,1.4,3,4.08A15.75,15.75,0,0,1,180.14,86c8.64,6.21-9.12,16,2.5,13.18C186.21,98.29,187.62,99.18,187.62,101.12Z"/><path class="cls-6" d="M152.93,120.41c6.23-1.7,13.61-8.29,2.71-6.59C145.51,115.41,146.69,122.12,152.93,120.41Z"/><path class="cls-6" d="M113.07,104.39c-8,2.74-8.25,11.06,0,6.9S118.6,102.5,113.07,104.39Z"/><path class="cls-6" d="M173,107.93a5.62,5.62,0,0,1-4.13-2.09c-1.64-2.27-.75-5.28,2.56-8.73a7.43,7.43,0,0,0,1.33-1.78l.36-.73-.81.07c-.47,0-4.73.63-9.22,8a16.82,16.82,0,0,1-16.35,8.4,10.06,10.06,0,0,1-6.5-3.29l-.37-.44-.34.46a43.55,43.55,0,0,1-3.55,4,24.33,24.33,0,0,1-6.05,4.94l-3.12,1.91,3.49-1.09c1.58-.49,3.2-1,4.81-1.57,2.38-.81,3.89-1.29,4.91-1.56,1.57-.42,3.29-.64,4.26.94,1.14,1.88-.46,3.42-1.33,4.26-.21.2-.54.52-.85.86l-.53.55.74.2a17.47,17.47,0,0,0,2.19.38c.42.05.94.11,1.5.2l1.08.17-.64-.89a4.38,4.38,0,0,1-.56-4.07c1-2.84,4.38-4.91,9.35-5.69,2.07-.32,7.57-1.18,8.39,2.63.93,4.34-7.16,8-10.06,8.84a9.16,9.16,0,0,1-2,.34l-1,.07.71.71a3.53,3.53,0,0,1,1,3.13l-.24,1.63,1-1.28a42.4,42.4,0,0,1,7.93-7.11c1.69-1.28,3.44-2.6,5.35-4.25a48.66,48.66,0,0,0,6-6.31c.29-.37.59-.73.88-1.08l.54-.65Zm-28.39,12.8c-.47-.06-.89-.12-1.28-.19l.26-.25a9.24,9.24,0,0,0,1.13-1.25,5.42,5.42,0,0,0,.48,1.76Zm.84-5a4.1,4.1,0,0,0-.4-.86,3.46,3.46,0,0,0-3.16-1.69,8.08,8.08,0,0,0-2.1.34c-1,.28-2.57.77-5,1.58l-1.74.58a20.67,20.67,0,0,0,3.57-3.3,44.92,44.92,0,0,0,3.26-3.67,11.28,11.28,0,0,0,6.71,3.18,14.84,14.84,0,0,0,3.15.08A9.37,9.37,0,0,0,145.47,115.77Zm7.8,10.12a4.37,4.37,0,0,0-.73-1.92,10.22,10.22,0,0,0,1.29-.27,20.93,20.93,0,0,0,2.77-1A32.4,32.4,0,0,0,153.27,125.89Zm18.46-16.72a46.92,46.92,0,0,1-5.88,6.2c-.6.52-1.18,1-1.76,1.47a4.52,4.52,0,0,0,.44-3c-.64-3-3.41-3.67-5.92-3.67a18.46,18.46,0,0,0-2.5.19,18.62,18.62,0,0,0,7.78-7.2c2.81-4.6,5.68-6.61,7.47-7.27a7.36,7.36,0,0,1-.57.64c-4.61,4.8-4,8-2.64,9.89a6.23,6.23,0,0,0,4,2.34Z"/><path class="cls-6" d="M121.32,93.44c-2.08.19-5.71,2.33-9.09,7.77l-.63,1,1.14-.34a8.88,8.88,0,0,1,3.91-.31l.44.07.09-.43a11.33,11.33,0,0,1,3.26-5.33,7,7,0,0,0,1.33-1.79l.36-.72Zm-1.53,1.81a12.86,12.86,0,0,0-3.41,5.36,9.61,9.61,0,0,0-2.76.13c2.57-3.8,5.1-5.53,6.73-6.14C120.2,94.8,120,95,119.79,95.25Z"/><path class="cls-6" d="M151.35,129.35h.25l.16-.33Zm0,0h.25l.16-.33Zm0,0h.25l.16-.33Zm38.45-31.9a6.08,6.08,0,0,0-5.25-2,12.9,12.9,0,0,0,1.26-3.33,8.4,8.4,0,0,0-3.67-8.91,18.85,18.85,0,0,0-9.2-3.53,4.31,4.31,0,0,0-.63-2.2c-2-3.29-6.6-2.08-8.81-1.51a96.17,96.17,0,0,0-10,3.31,3.8,3.8,0,0,0-1.89-1.73c-2.9-1.25-6.74,1.17-8.76,2.73-5.37,4.13-8.58,7.58-6.79,11,1.31,2.48,4.13,2.65,6.86,2.24L141,95c-1.74-1.06-4.21-1.37-7.36-.92a12.9,12.9,0,0,0,1.15-3.15A8.41,8.41,0,0,0,131.13,82c-12.86-9.26-28,1-38.25,9.56-6.68,5.56-6.55,10.31-5.88,12.64,1,3.5,4.23,5.94,8.63,6.54a16.67,16.67,0,0,0,8-1,5.3,5.3,0,0,0,2.08,5.06,5.64,5.64,0,0,0,3,1c-8.12,3.56-13.1,8.34-13.82,13.36,0,.06,0,.11,0,.17a8.11,8.11,0,0,0,.19,3,7.83,7.83,0,0,0,3,4.29c4.54,3.36,12.6,2.85,21.55-1.37l1.54-.72a4.19,4.19,0,0,0,.67,2.45,5,5,0,0,0,4.49,2.1,14.6,14.6,0,0,0,2.71-.31,87.08,87.08,0,0,0,14.84-4.24,36.51,36.51,0,0,0,4.77-2.2l.76-.44c0,.14-.1.29-.14.44A6.15,6.15,0,0,0,150,138c1.54,2.12,4.36,3.19,8.39,3.19a37.65,37.65,0,0,0,9.31-1.41c2.85-.78,5.78-3.21,8.85-7.35.69-.93,1.38-1.94,2.08-3a88.08,88.08,0,0,0,4.35-7.77,158.59,158.59,0,0,0,6.53-14.93C190.74,104,192.08,100.25,189.8,97.45Zm-1.11,8.85a159,159,0,0,1-6.5,14.88,86.39,86.39,0,0,1-4.62,8.17c-.71,1.11-1.43,2.12-2.13,3-2.78,3.64-5.41,5.78-8,6.48a37.05,37.05,0,0,1-9.06,1.37c-3.72,0-6.29-.94-7.65-2.81a5.39,5.39,0,0,1-.6-5,11,11,0,0,1,.64-1.51l.8-1.53.16-.33-.41.33-1.23,1a19.68,19.68,0,0,1-3.49,2.08c-.92.44-2,.9-3.14,1.35a86.13,86.13,0,0,1-14.68,4.2,13.4,13.4,0,0,1-2.54.29,4.09,4.09,0,0,1-3.72-1.68,3.33,3.33,0,0,1-.44-2.61l.19-.88-.82.37-2.3,1.06c-8.64,4.07-16.35,4.62-20.62,1.46A6.94,6.94,0,0,1,96,132.39a7,7,0,0,1-.22-3v0c.75-5.28,6.69-10.34,16.29-13.86,8.2-3,11.27-5,12.36-6l.18-.14a20.87,20.87,0,0,0,2.64-2.26l1.1-1.14-1.54.38a13.15,13.15,0,0,1-5.55.27l-.45-.09-.09.45c-.45,2.39-2.7,4.67-6.5,6.59-3.34,1.68-6.12,1.85-8,.52a4.42,4.42,0,0,1-1.7-4.36,5.6,5.6,0,0,1,.12-.59l.22-.89-.84.36a15.78,15.78,0,0,1-8.29,1.23c-4-.54-7-2.74-7.88-5.88-.61-2.12-.69-6.46,5.59-11.69,10-8.34,24.79-18.41,37.13-9.52a7.55,7.55,0,0,1,3.33,8,13.22,13.22,0,0,1-1.51,3.72l-.48.84,1-.18c3.53-.64,6.19-.37,7.89.82l.28.19,5.43-4.28-2,.44c-4.31,1-6.68.54-7.7-1.41-1.5-2.86,1.52-6,6.54-9.86,1.86-1.44,5.36-3.69,7.84-2.61a2.94,2.94,0,0,1,1.6,1.63l.16.43.42-.17a98.47,98.47,0,0,1,10.34-3.43c2-.52,6.15-1.61,7.8,1.1A3.3,3.3,0,0,1,172,80l0,.46.46,0a17.91,17.91,0,0,1,9.17,3.41,7.52,7.52,0,0,1,3.32,8,12.84,12.84,0,0,1-1.57,3.81l-.45.78.89-.1c2.42-.27,4.2.27,5.31,1.63a4.78,4.78,0,0,1,1,3.09A13.11,13.11,0,0,1,188.69,106.3Zm-70.19,5.54a8.69,8.69,0,0,0,3-4.3,13.08,13.08,0,0,0,3.94-.05c-.44.38-.9.74-1.4,1.11l-.21.16A23.46,23.46,0,0,1,118.5,111.84Zm32.85,17.51h.25l.16-.33Zm0,0h.25l.16-.33Z"/><polygon class="cls-6" points="106.94 152.81 107.47 153.57 108.79 153.57 106.94 150.95 106.94 152.81"/><polygon class="cls-6" points="106.97 148.83 110.33 153.57 111.64 153.57 108.29 148.83 106.97 148.83"/><polygon class="cls-6" points="109.83 148.83 113.18 153.57 114.5 153.57 111.14 148.83 109.83 148.83"/><polygon class="cls-6" points="112.68 148.83 116.03 153.57 117.35 153.57 114 148.83 112.68 148.83"/><polygon class="cls-6" points="115.53 148.83 118.89 153.57 120.2 153.57 116.85 148.83 115.53 148.83"/><polygon class="cls-6" points="118.39 148.83 121.74 153.57 123.06 153.57 119.71 148.83 118.39 148.83"/><polygon class="cls-6" points="121.24 148.83 124.59 153.57 125.91 153.57 122.56 148.83 121.24 148.83"/><polygon class="cls-6" points="124.09 148.83 127.45 153.57 128.77 153.57 125.41 148.83 124.09 148.83"/><polygon class="cls-6" points="126.95 148.83 130.3 153.57 131.62 153.57 128.27 148.83 126.95 148.83"/><polygon class="cls-6" points="129.8 148.83 133.15 153.57 134.47 153.57 131.12 148.83 129.8 148.83"/><polygon class="cls-6" points="132.65 148.83 136.01 153.57 137.33 153.57 133.97 148.83 132.65 148.83"/><polygon class="cls-6" points="135.51 148.83 138.86 153.57 140.18 153.57 136.83 148.83 135.51 148.83"/><polygon class="cls-6" points="138.36 148.83 141.71 153.57 143.03 153.57 139.68 148.83 138.36 148.83"/><polygon class="cls-6" points="141.21 148.83 144.03 152.81 144.03 152.81 144.56 153.57 144.57 153.57 145.88 153.57 145.89 153.57 142.53 148.83 141.21 148.83"/><polygon class="cls-6" points="145.89 149.53 145.39 148.83 144.07 148.83 144.07 148.83 144.06 148.83 147.42 153.57 148.74 153.57 145.89 149.54 145.89 149.53"/><polygon class="cls-6" points="146.92 148.83 150.27 153.57 151.59 153.57 148.24 148.83 146.92 148.83"/><polygon class="cls-6" points="149.77 148.83 153.13 153.57 154.44 153.57 151.09 148.83 149.77 148.83"/><polygon class="cls-6" points="152.63 148.83 155.98 153.57 157.3 153.57 153.94 148.83 152.63 148.83"/><polygon class="cls-6" points="155.48 148.83 158.83 153.57 160.15 153.57 156.8 148.83 155.48 148.83"/><polygon class="cls-6" points="158.33 148.83 161.69 153.57 163 153.57 159.65 148.83 158.33 148.83"/><polygon class="cls-6" points="161.19 148.83 164.54 153.57 165.86 153.57 162.51 148.83 161.19 148.83"/><polygon class="cls-6" points="164.04 148.83 167.39 153.57 168.71 153.57 165.36 148.83 164.04 148.83"/><polygon class="cls-6" points="166.89 148.83 170.25 153.57 171.57 153.57 168.21 148.83 166.89 148.83"/><polygon class="cls-6" points="169.75 148.83 173.1 153.57 174.42 153.57 171.07 148.83 169.75 148.83"/><polygon class="cls-6" points="172.6 148.83 175.95 153.57 177.27 153.57 173.92 148.83 172.6 148.83"/><polygon class="cls-6" points="175.45 148.83 178.81 153.57 180.13 153.57 176.77 148.83 175.45 148.83"/><polygon class="cls-6" points="178.31 148.83 181.66 153.57 182.98 153.57 179.63 148.83 178.31 148.83"/><polygon class="cls-6" points="182.48 148.83 181.16 148.83 182.98 151.4 182.98 149.53 182.48 148.83"/><polygon class="cls-6" points="106.94 182.21 107.47 182.97 108.79 182.97 106.94 180.35 106.94 182.21"/><polygon class="cls-6" points="106.97 178.23 110.33 182.97 111.64 182.97 108.29 178.23 106.97 178.23"/><polygon class="cls-6" points="109.83 178.23 113.18 182.97 114.5 182.97 111.14 178.23 109.83 178.23"/><polygon class="cls-6" points="112.68 178.23 116.03 182.97 117.35 182.97 114 178.23 112.68 178.23"/><polygon class="cls-6" points="115.53 178.23 118.89 182.97 120.2 182.97 116.85 178.23 115.53 178.23"/><polygon class="cls-6" points="118.39 178.23 121.74 182.97 123.06 182.97 119.71 178.23 118.39 178.23"/><polygon class="cls-6" points="121.24 178.23 124.59 182.97 125.91 182.97 122.56 178.23 121.24 178.23"/><polygon class="cls-6" points="124.09 178.23 127.45 182.97 128.77 182.97 125.41 178.23 124.09 178.23"/><polygon class="cls-6" points="126.95 178.23 130.3 182.97 131.62 182.97 128.27 178.23 126.95 178.23"/><polygon class="cls-6" points="129.8 178.23 133.15 182.97 134.47 182.97 131.12 178.23 129.8 178.23"/><polygon class="cls-6" points="132.65 178.23 136.01 182.97 137.33 182.97 133.97 178.23 132.65 178.23"/><polygon class="cls-6" points="135.51 178.23 138.86 182.97 140.18 182.97 136.83 178.23 135.51 178.23"/><polygon class="cls-6" points="138.36 178.23 141.71 182.97 143.03 182.97 139.68 178.23 138.36 178.23"/><polygon class="cls-6" points="141.21 178.23 144.03 182.21 144.03 182.21 144.56 182.97 144.57 182.97 145.88 182.97 145.89 182.97 142.53 178.23 141.21 178.23"/><polygon class="cls-6" points="145.89 178.93 145.39 178.23 144.07 178.23 144.07 178.23 144.06 178.23 147.42 182.97 148.74 182.97 145.89 178.94 145.89 178.93"/><polygon class="cls-6" points="146.92 178.23 150.27 182.97 151.59 182.97 148.24 178.23 146.92 178.23"/><polygon class="cls-6" points="149.77 178.23 153.13 182.97 154.44 182.97 151.09 178.23 149.77 178.23"/><polygon class="cls-6" points="152.63 178.23 155.98 182.97 157.3 182.97 153.94 178.23 152.63 178.23"/><polygon class="cls-6" points="155.48 178.23 158.83 182.97 160.15 182.97 156.8 178.23 155.48 178.23"/><polygon class="cls-6" points="158.33 178.23 161.69 182.97 163 182.97 159.65 178.23 158.33 178.23"/><polygon class="cls-6" points="161.19 178.23 164.54 182.97 165.86 182.97 162.51 178.23 161.19 178.23"/><polygon class="cls-6" points="164.04 178.23 167.39 182.97 168.71 182.97 165.36 178.23 164.04 178.23"/><polygon class="cls-6" points="166.89 178.23 170.25 182.97 171.57 182.97 168.21 178.23 166.89 178.23"/><polygon class="cls-6" points="169.75 178.23 173.1 182.97 174.42 182.97 171.07 178.23 169.75 178.23"/><polygon class="cls-6" points="172.6 178.23 175.95 182.97 177.27 182.97 173.92 178.23 172.6 178.23"/><polygon class="cls-6" points="175.45 178.23 178.81 182.97 180.13 182.97 176.77 178.23 175.45 178.23"/><polygon class="cls-6" points="178.31 178.23 181.66 182.97 182.98 182.97 179.63 178.23 178.31 178.23"/><polygon class="cls-6" points="182.48 178.23 181.16 178.23 182.98 180.8 182.98 178.93 182.48 178.23"/><path class="cls-6" d="M94.17,162.89a2.79,2.79,0,0,0-4,0l-.3.29-.29-.29a2.79,2.79,0,0,0-3.95,4l.29.3,4,4,4-4,.29-.3A2.79,2.79,0,0,0,94.17,162.89Z"/><path class="cls-6" d="M203.71,162.89a2.79,2.79,0,0,0-4,0l-.3.29-.29-.29a2.79,2.79,0,0,0-3.95,0,2.79,2.79,0,0,0,0,4l.29.3,4,4,4-4,.29-.3A2.79,2.79,0,0,0,203.71,162.89Z"/><path class="cls-6" d="M118,195.43l.35-.4a1.87,1.87,0,0,0,1.31.56c.62,0,1-.3,1-.71s-.34-.61-.8-.81l-.65-.28a1.29,1.29,0,0,1-1-1.16c0-.69.61-1.19,1.47-1.19a2,2,0,0,1,1.38.55l-.3.37a1.58,1.58,0,0,0-1.1-.42c-.52,0-.87.25-.87.65s.42.59.8.74l.63.29c.56.21,1,.53,1,1.19s-.6,1.29-1.59,1.29A2.29,2.29,0,0,1,118,195.43Z"/><path class="cls-6" d="M125,192h-1.48v-.49h3.54V192h-1.48v4H125Z"/><path class="cls-6" d="M129.75,191.52h2.78V192h-2.21v1.4h1.86v.49h-1.86v1.63h2.28V196h-2.85Z"/><path class="cls-6" d="M135.44,191.52h2.78V192H136v1.4h1.86v.49H136v1.63h2.28V196h-2.85Z"/><path class="cls-6" d="M141.26,191.52h.57v4h2.22V196h-2.79Z"/><path class="cls-6" d="M152,191.52h.62l.72,2.42c.15.53.26,1,.43,1.48h0c.16-.52.28-.95.43-1.48l.72-2.42h.59L154.12,196h-.67Z"/><path class="cls-6" d="M158.2,191.52H161V192h-2.21v1.4h1.86v.49h-1.86v1.63H161V196H158.2Z"/><path class="cls-6" d="M163.75,195.53h1.12V192h-1.12v-.49h2.81V192h-1.11v3.52h1.11V196h-2.81Z"/><path class="cls-6" d="M169.36,191.52H170l1.43,2.82.44.93h0c0-.44-.08-1-.08-1.42v-2.33h.55V196h-.63l-1.44-2.82-.43-.93h0c0,.46.07.94.07,1.4V196h-.54Z"/><text class="cls-7" transform="translate(190.1 86.5) rotate(90)">倶楽部</text></g></g></svg>