<svg xmlns="http://www.w3.org/2000/svg" viewBox="0 0 273.53 284.78"><defs><style>.cls-1{fill:#00158e;}.cls-2{fill:gold;}.cls-3{fill:#0751cf;}.cls-4{font-size:12px;font-family:MS-UIGothic, MS UI Gothic;}.cls-4,.cls-5,.cls-6{fill:#fff;}.cls-6{font-size:10.79px;font-family:KozGoPr6N-Regular-90ms-RKSJ-H, Kozuka Gothic Pr6N;}</style></defs><g id="Layer_2" data-name="Layer 2"><g id="Layer_2-2" data-name="Layer 2"><polygon class="cls-1" points="256.07 237.64 256.07 152.09 250.84 146.85 250.84 36.86 235.12 36.86 235.12 22.45 181.14 22.45 175.76 27.84 109.7 27.84 98.41 16.54 7.63 16.54 7.63 192.89 16 201.27 16 239.97 21.39 245.36 21.39 258.6 85.55 258.6 85.55 266.16 139.09 266.16 139.09 271.06 262.15 271.06 262.15 243.72 256.07 237.64"/><path class="cls-2" d="M264.51,209.18V164.5a3,3,0,0,0,2.48-2.94,3.06,3.06,0,1,0-6.12,0,3,3,0,0,0,2.48,2.94v45.16l9,9v64.94H117.56v-9.89H1.16V11.83H38.8a3,3,0,0,0,3,2.49,3.07,3.07,0,0,0,0-6.13,3,3,0,0,0-3,2.48H0V274.89H116.4v9.89H273.53V218.2Z"/><polygon class="cls-2" points="156.83 258.45 162.67 258.45 168.89 252.23 159.16 252.23 145.13 266.25 149.03 266.25 156.83 258.45"/><polygon class="cls-2" points="169.48 258.45 175.32 258.45 181.54 252.23 171.81 252.23 157.78 266.25 161.68 266.25 169.48 258.45"/><polygon class="cls-2" points="182.13 258.45 187.97 258.45 194.19 252.23 184.46 252.23 170.43 266.25 174.33 266.25 182.13 258.45"/><polygon class="cls-2" points="194.78 258.45 200.62 258.45 206.84 252.23 197.11 252.23 183.09 266.25 186.99 266.25 194.78 258.45"/><polygon class="cls-2" points="207.44 258.45 213.27 258.45 219.5 252.23 209.76 252.23 195.74 266.25 199.64 266.25 207.44 258.45"/><polygon class="cls-2" points="220.09 258.45 225.92 258.45 232.15 252.23 222.41 252.23 208.39 266.25 212.29 266.25 220.09 258.45"/><polygon class="cls-2" points="232.74 258.45 238.57 258.45 244.8 252.23 235.06 252.23 221.04 266.25 224.94 266.25 232.74 258.45"/><polygon class="cls-2" points="245.39 258.45 251.22 258.45 257.45 252.23 247.71 252.23 233.69 266.25 237.59 266.25 245.39 258.45"/><polygon class="cls-3" points="21.79 20.81 16.43 20.81 12.62 27.41 16.43 34.02 21.79 34.02 17.97 27.41 21.79 20.81"/><polygon class="cls-3" points="35.48 20.81 30.12 20.81 26.31 27.41 30.12 34.02 35.48 34.02 31.66 27.41 35.48 20.81"/><polygon class="cls-3" points="49.17 20.81 43.81 20.81 40 27.41 43.81 34.02 49.17 34.02 45.35 27.41 49.17 20.81"/><polygon class="cls-3" points="62.86 20.81 57.5 20.81 53.69 27.41 57.5 34.02 62.86 34.02 59.05 27.41 62.86 20.81"/><polygon class="cls-3" points="76.55 20.81 71.19 20.81 67.38 27.41 71.19 34.02 76.55 34.02 72.73 27.41 76.55 20.81"/><polygon class="cls-3" points="90.24 20.81 84.88 20.81 81.07 27.41 84.88 34.02 90.24 34.02 86.42 27.41 90.24 20.81"/><path class="cls-2" d="M120.26,21.47h5.66L115.78,31.61h-5.65Zm22.72,0h-5.66L127.19,31.61h5.66Zm-8.53,0h-5.66L118.66,31.61h5.66Zm42.66,0h-5.66L161.32,31.61H167Zm-25.6,0h-5.65L135.72,31.61h5.66Zm17.07,0h-5.66L152.79,31.61h5.65Zm-8.54,0h-5.65L144.26,31.61h5.65Z"/><rect class="cls-2" x="229.3" y="128.23" width="38.99" height="5.24"/><rect class="cls-2" x="244.72" y="120.37" width="18.04" height="3.49"/><rect class="cls-2" x="14.55" y="246.96" width="34.92" height="4.66"/><path class="cls-2" d="M204.08,36.47h8.15V28.32h-8.15Zm1.17-7h5.82v5.82h-5.82Z"/><path class="cls-2" d="M244.43,98.36V91.57h-7.37v7.37h7.37Zm-6.2-5.63h5v5h-5Z"/><path class="cls-3" d="M237.06,198.65h8.15V190.5h-8.15Zm1.17-7h5.82v5.82h-5.82Z"/><path class="cls-2" d="M21.34,226.59H31.43V216.5H21.34Zm1.16-8.93h7.76v7.76H22.5Z"/><path class="cls-3" d="M14,178.48h6.21v-6.21H14Zm1.16-5H19v3.88H15.13Z"/><path class="cls-2" d="M54.32,263.83H76.43v-8.92H54.32Zm1.16-7.76H75.27v6.6H55.48Z"/><path class="cls-2" d="M247.93,48.5V90.4h6.59V48.5Zm1.16,1.16h4.27V89.24h-4.27Z"/><path class="cls-2" d="M250.64,32V21.73H239.78V32.59h10.86Zm-9.7-9.12h8.54v8.54h-8.54Z"/><path class="cls-2" d="M65.18,11.45V4.27H57.42V12h7.76Zm-6.59-6H64v5.43H58.59Z"/><path class="cls-3" d="M94.28,9.7H104V0h-9.7Zm1.17-8.54h7.37V8.54H95.45Z"/><polygon class="cls-2" points="32.5 87.42 26.88 87.42 26.88 81.8 23.7 81.8 23.7 87.42 18.09 87.42 18.09 90.6 23.7 90.6 23.7 96.21 26.88 96.21 26.88 90.6 32.5 90.6 32.5 87.42"/><polygon class="cls-2" points="56.87 87.42 51.25 87.42 51.25 81.8 48.07 81.8 48.07 87.42 42.45 87.42 42.45 90.6 48.07 90.6 48.07 96.21 51.25 96.21 51.25 90.6 56.87 90.6 56.87 87.42"/><polygon class="cls-2" points="81.23 87.42 75.62 87.42 75.62 81.8 72.44 81.8 72.44 87.42 66.82 87.42 66.82 90.6 72.44 90.6 72.44 96.21 75.62 96.21 75.62 90.6 81.23 90.6 81.23 87.42"/><polygon class="cls-2" points="105.6 87.42 99.98 87.42 99.98 81.8 96.8 81.8 96.8 87.42 91.19 87.42 91.19 90.6 96.8 90.6 96.8 96.21 99.98 96.21 99.98 90.6 105.6 90.6 105.6 87.42"/><text class="cls-4" transform="translate(213.01 223.33)">技術<tspan x="0" y="14.4">背景</tspan></text><path class="cls-5" d="M74.15,150.26c-9.63.71,1.18-9.75-14.31-4.36-15.24,5.31-6.28,15.4-.83,14.43s-13.27,10-4.65,10.16-6.4,8.38,2,8.18,12.33.39,8.61-4.55-.36-5.37,6.32,1.34S94.84,148.74,74.15,150.26ZM76.26,170c-4,4.87-4.3-4.85-14.57-3s7.22-7.79-.95-8.42-4.18-8.22,4.9-7.1c4,.49-2.9,5.54,5.9,5.63S80.28,165.1,76.26,170Z"/><path class="cls-5" d="M186.05,169.42c-9.45-.56-11.11-1.73-3-5.82s3.55,8.72,9.89,3.33,8.1-14.76,1.41-10.64-15.58,8.15-13.27,5.21,1.21-5.27-1.58-3.93.68-5.86,7.18-7.22-5.5,5.91,1.76,5.07,16-9.91,2.52-9.6S170,165,176.88,161.6s-12,11-2.35,11.2,10.43,7.28,16.72,6.2C201.51,177.22,195.5,170,186.05,169.42Z"/><path class="cls-5" d="M95.59,174.73c-9.45-.56-11.12-1.73-3-5.81s3.55,8.71,9.89,3.33,8.1-14.77,1.41-10.65-15.58,8.16-13.28,5.21,1.22-5.26-1.57-3.92.68-5.86,7.18-7.22-5.51,5.9,1.75,5.06,16-9.91,2.53-9.6c-13.59.32-20.95,19.17-14,15.78s-12,11-2.35,11.21,10.43,7.28,16.72,6.19C111.05,182.54,105,175.3,95.59,174.73Z"/><path class="cls-5" d="M79,148.18c4.09,1.58,4.76-1.54,1.36-3.69C75.13,141.17,74.92,146.6,79,148.18Z"/><path class="cls-5" d="M128.81,172.58c-2.16,1.62-.21-3.73-4.84-2.91s-5.66,1-5.58-1,0-2.7-3.74-3.18c-6-.76,11.75-6.9,8.27-1.69s8.82,7.19,9.08,2.44c.17-3.06-1.23-10.34-11.53-9.56-12.93,1-12.83,10.28-8,11.29s.17,5,4.39,4.9,5.77-2.91,7,.85,3.73,2.65,5.19,1.31,4.79,6.7-9.58,2.63-15.08,5.95-3.65,9,21.31-1.82,20.37-7.38S131,171,128.81,172.58Z"/><path class="cls-5" d="M133.36,154.23c3.7-.09,6.66-2,6.61-4.19s-3.1-4-6.8-3.88-6.66,2-6.6,4.19S129.66,154.31,133.36,154.23Z"/><path class="cls-5" d="M146.05,173.6l-.09,0c-2.48-.45-.78-2.43.69-4.41a3,3,0,0,1,3.47-1,12.07,12.07,0,0,0,2.23.51c8.28,1.11-7.06,5.93-1.33,6.92s-3.49,4.61,1.5,5.55-9.6,6.55-.48,6.22,18.64-4.41,10-6.13-8.42-1.48-7.28-3.37a5.19,5.19,0,0,0,.54-1.23h0c.82-2.87-1.22-2.6.52-3.89s4.63-.89,3.28,1.94-.24,3.33,3.46,2.53c4.36-.94-3.17,5.52,2.6,3.48s-2.79,8.44,4,5.26S188,175,178.12,175.77s-12.29,3.39-11.18.9-6.16.11-5.26-1.08c.39-.51,1.18-1.39,1.94-2.22a2.93,2.93,0,0,1,.84-.64c5.36-2.81,10.17-8,8-12.92-2.65-6-7-7.61-14.75-4.73h0c-.39.15-.79.3-1.19.47l-.18.07c-1.58.53-3.81.95-2.59-1.42,1.8-3.52-6.45,1.11-4.87-.15s1.5-3.54-.92-1.57-2.51,4.27,1.24,3.27.48,2.78-1.39,5.79h0a5,5,0,0,0-.86,3.34c-.15,0-.31-.09-.48-.12-5.8-1.23,4.43-12.26-5.77-10.57-9.53,1.58-11.43,12.77-2.31,12.74s-5.64,5.72.13,8.38-5.85,7.21-.18,8.19c5.22.91,11.41-7.49,8.6-9.53Zm11.79-5.82h0c-2.94-2.21-7.72-3.18-3.6-5.81,4.34-2.77,14.66-2.26,9.34,4.07-.53.63-1.08,1.23-1.63,1.79C160.81,169,159.22,168.85,157.84,167.78Z"/><path class="cls-5" d="M71.52,159.19c-1.71,0-3.86-.18-5.32-1.26l-.93-.69-.4-1a4.42,4.42,0,0,1-.25-1.93l.07-.84h-.85a7.47,7.47,0,0,0-4.63,1.29l-1.25.94,1.51.43a6.74,6.74,0,0,0,1.43.24,5.88,5.88,0,0,1,2.81.82l.92.59.36,1.05c.44,1.31,0,2.68-1.38,4.45l-1,1.27h1.61a12.61,12.61,0,0,1,8.85,3.71l.45.39.62.52.5-.62c1.85-2.28,2.57-5.27,1.7-7.12C75.68,160,74,159.21,71.52,159.19Zm-8.74-4.12.26,0a.34.34,0,0,1,0,.1ZM73.9,166.9A14.18,14.18,0,0,0,65.69,163a6.27,6.27,0,0,0,1-3,13.41,13.41,0,0,0,4.78.76c1,0,2.9.19,3.42,1.32h0C75.45,163.22,75,165.22,73.9,166.9Z"/><path class="cls-5" d="M185.92,164.85l-.63.16a6.15,6.15,0,0,0-1.3.51l-2.6,1.37,2.68.22,1.62.12,1.16.07-.37-1.1a6.78,6.78,0,0,0-.29-.76Z"/><path class="cls-5" d="M196.29,168.88c4.68-4.51,7.7-11.44,4.93-15.27a5.29,5.29,0,0,0-1-1,7,7,0,0,0,1.42-4.45,6,6,0,0,0-4-5.1,16.62,16.62,0,0,0-6.87-1c-8.45.19-14.84,6.09-18,11.46-3.61-3.8-8.86-4.57-15.64-2.25a3.86,3.86,0,0,0-.55-.77,4.56,4.56,0,0,0-4.22-1.35,4.26,4.26,0,0,0-1.43-.93c-1.69-.65-3.5-.2-5.39,1.32a11.13,11.13,0,0,0-1,.92,8.44,8.44,0,0,0-.9-.15,2.64,2.64,0,0,0,0-.4c-.1-4.42-4.66-7.65-10.61-7.51s-10.35,3.57-10.24,8a6.4,6.4,0,0,0,.58,2.51,21.79,21.79,0,0,0-3.23,0,20.17,20.17,0,0,0-9.29,2.73,5.62,5.62,0,0,0,.29-2.2,6,6,0,0,0-4-5.11,16.82,16.82,0,0,0-6.87-1,20.38,20.38,0,0,0-13.49,5.85,10.24,10.24,0,0,0-1.68-2.82,4.14,4.14,0,0,0,.54-.84c1.17-2.3.57-5.75-3.38-8.26-3.66-2.31-6.13-1.75-7.56-.88a5,5,0,0,0-2.35,3.86,5.55,5.55,0,0,0-2.39-2.82c-2.36-1.38-5.68-1.12-11.44.88C46.52,146.58,47.4,153.9,48,156a11.07,11.07,0,0,0,4.82,6.38c-3.06,2.79-5.31,5.42-4.16,8.52a4.61,4.61,0,0,0,2.86,2.8c-1.09,1.5-2.19,3.59-1,5.9.94,1.9,3,2.82,6,2.75l2.61,0h.11l1.86,0c4-.1,7.18-.39,8.58-3.26a.61.61,0,0,0,.05-.12c2.27,1.57,5.14,1.53,7.91-.16l.44-.28c.65,1.47,2.23,3.24,6,3.34s5.68,1.47,7.78,3.07c1.94,1.48,4.36,3.32,8,3.23h0a12.08,12.08,0,0,0,1.69-.16,14.06,14.06,0,0,0,5.42-2,17.67,17.67,0,0,0,8,4.25,30.84,30.84,0,0,0,8.67,1.06c5.31-.13,10.07-1.74,13.09-4.42a8.59,8.59,0,0,0,1.11.27,10.53,10.53,0,0,0,7.93-2.24,4,4,0,0,0-.11,3.13c1.14,3.14,4.92,3.05,6.16,3l.53,0a39.72,39.72,0,0,0,10.08-1.68c.45-.15,1-.33,1.59-.56.12.13.26.26.4.39,2.38,2,5.49.58,6.52.09a66.82,66.82,0,0,0,9-5.13,23.38,23.38,0,0,0,4.08-3.4,10.41,10.41,0,0,0,6.37,2.06,11.12,11.12,0,0,0,1.69-.17c7.92-1.37,8.54-5.76,8.44-7.59C200.19,172.77,198.77,170.6,196.29,168.88Zm-4.67,12.23a9.65,9.65,0,0,1-1.46.15,9.48,9.48,0,0,1-6-2.18,1.46,1.46,0,0,1-.57-.73,8.84,8.84,0,0,1-.51.89,19.56,19.56,0,0,1-4.21,3.64,67,67,0,0,1-8.76,5c-1.49.7-3.39,1.34-4.82.12a3.2,3.2,0,0,1-.53-.58l-.36-.54-.6.26c-.71.31-1.44.55-2,.73a38.57,38.57,0,0,1-9.67,1.62h-.5c-2.69.06-4.12-.55-4.65-2-.6-1.67.47-3,2.4-4.48l.64-.5-.53-.62a2.8,2.8,0,0,1-.5-.9l-.49-1.37-.88,1.15c-2,2.65-5.77,5.5-9.65,4.82a6.5,6.5,0,0,1-1.29-.34l-.51-.18-.33.35a2,2,0,0,1-.21.2c-2.74,2.49-7.18,4-12.18,4.1a29.16,29.16,0,0,1-8.22-1,15.67,15.67,0,0,1-7.68-4.31,2.45,2.45,0,0,1-.49-.69,3.7,3.7,0,0,1-.6.6,11.53,11.53,0,0,1-5.28,2.08,10.44,10.44,0,0,1-1.47.14h0c-3.06.07-5.05-1.45-7-2.92-2.13-1.61-4.32-3.27-8.68-3.38-2.36-.06-4-.9-4.62-2.42a3.81,3.81,0,0,1-.23-.62v0h0a5.33,5.33,0,0,1-.12-1.54l-1.16,1a10,10,0,0,1-1.17.83c-2.56,1.56-5.09,1.41-7-.41L68.7,176l-.25,1.48a3.22,3.22,0,0,1-.29.91c-.94,1.91-3,2.28-7.21,2.38l-1.83,0H59l-2.63,0c-1.53,0-3.66-.12-4.53-1.88s.24-3.47,1.58-5.17l.81-1L53,172.51a3.41,3.41,0,0,1-2.87-2.11c-.9-2.44,1.53-4.86,4.55-7.53l.86-.76-1-.53a9.68,9.68,0,0,1-5-5.93c-.47-1.82-1.17-8,9.65-11.8,5.28-1.84,8.22-2.12,10.14-1a5,5,0,0,1,2.19,3.83v0c0,.24.1.53.16.75l.12.45.46.11a6.11,6.11,0,0,0,1.68.07h0l1.27,0L74.54,147h0a5,5,0,0,1-.52-1.79,3.49,3.49,0,0,1,1.59-3.38c1.51-.92,3.55-.62,5.9.87,3.13,2,3.67,4.55,2.83,6.23a3.14,3.14,0,0,1-.72.94h0a2.53,2.53,0,0,1-.72.53s.48.39.68.6h0a9.16,9.16,0,0,1,2.12,3.62,2.46,2.46,0,0,1,.09.29h0a12.36,12.36,0,0,1,.3,1.41s.66-.7,1-1.06v0A19.3,19.3,0,0,1,100.41,149a15.69,15.69,0,0,1,6.22.84,4.51,4.51,0,0,1,3,3.78,5.9,5.9,0,0,1-1.59,4l-.63.75.87.45a1.55,1.55,0,0,1,.22.12h0a2.45,2.45,0,0,1,.63.64,3.06,3.06,0,0,1,.55-.94c1.63-1.68,4.77-3.69,10.63-4.13a18.27,18.27,0,0,1,4.22.12l.43,0a12.36,12.36,0,0,1,2.35.34,23.36,23.36,0,0,1-1.76-1.62,4.79,4.79,0,0,1-1.14-3c-.09-3.53,3.66-6.28,8.71-6.39s8.92,2.45,9,6a4.08,4.08,0,0,1-.07.94,3.47,3.47,0,0,1-.47,1.13,3.17,3.17,0,0,1,1.23-.2,6.94,6.94,0,0,1,1.79.27l.49.15.34-.38a8.55,8.55,0,0,1,1.14-1.1q2.13-1.72,3.84-1.07a2.57,2.57,0,0,1,1.08.79l.3.37.46-.09a3.21,3.21,0,0,1,3.21.79,2.73,2.73,0,0,1,.55.95l.25.77L157,153c7-2.57,12-1.79,15.31,2.38a4.43,4.43,0,0,1,.73,1.33,9.49,9.49,0,0,1,.58-1.46c2.76-5.23,8.94-11.42,17.23-11.62a15.45,15.45,0,0,1,6.22.85,4.49,4.49,0,0,1,3,3.77,5.86,5.86,0,0,1-1.59,4l-.62.75.86.45a3.41,3.41,0,0,1,1.21,1c2.38,3.28-1,9.94-5.46,13.86l-.82.72.93.55c2.53,1.49,4,3.49,4.16,5.48C198.83,176.56,198.29,180,191.62,181.11Z"/><path class="cls-5" d="M95.47,170.16l-.64.16a6.84,6.84,0,0,0-1.3.51l-.1,0-.1.05-2.63,1.25,2.91.24,1.61.12,1.19.09L96,171.5c-.12-.32-.21-.55-.29-.74Z"/><path class="cls-5" d="M113.87,174.48l-.68-1.12a4.48,4.48,0,0,1-.49-2.5v-.56l-.52-.19-.11,0-.07,0a5.74,5.74,0,0,1-2.71-1.37,9.23,9.23,0,0,1-.71-.7,5,5,0,0,1-.48.88,21.67,21.67,0,0,1-4.08,4.85l-.82.71.93.55a11.37,11.37,0,0,1,2,1.52l.53.55a4.09,4.09,0,0,1,.54-.56,8.26,8.26,0,0,1,5.31-1.94Zm-7.14.41c-.29-.24-.59-.47-.91-.69a22.85,22.85,0,0,0,3.14-3.78,7.49,7.49,0,0,0,2.17,1,6.12,6.12,0,0,0,.24,1.63A9.54,9.54,0,0,0,106.73,174.89Z"/><path class="cls-5" d="M122.56,176.34l-.65-1.54-.31-.73-.66.18-.17.06-2.54,1,2.71.48Z"/><path class="cls-5" d="M162.52,163.86l.61-1-1.1-.25a10.82,10.82,0,0,0-5.2.44l-1.64.58,1.52.85a21.3,21.3,0,0,1,2.41,1.5l0,0a2.31,2.31,0,0,0,.47.29l.5.22.39-.39c.52-.54,1-1.05,1.4-1.55A7.62,7.62,0,0,0,162.52,163.86Z"/><path class="cls-5" d="M128.77,122.16l.62-1.93,1.37,4.3a1.68,1.68,0,0,1-1-.32,1.7,1.7,0,0,1-.61-.85Z"/><path class="cls-5" d="M119.74,114.57a1.69,1.69,0,0,1,1.6,1.17l.38,1.2-.61,1.93Z"/><polygon class="cls-5" points="125.54 121.9 126.77 121.9 128.26 117.21 127.03 117.21 125.54 121.9"/><path class="cls-5" d="M127.19,121.9h1.23l2.34-7.33h0a1.7,1.7,0,0,0-1.61,1.17Z"/><path class="cls-5" d="M119.74,124.53h0a1.67,1.67,0,0,0,1.6-1.17l2-6.15h-1.23Z"/><polygon class="cls-5" points="123.88 121.9 125.11 121.9 126.61 117.21 125.38 117.21 123.88 121.9"/><polygon class="cls-5" points="122.23 121.9 123.46 121.9 124.95 117.21 123.72 117.21 122.23 121.9"/><polygon class="cls-5" points="145.43 118.95 145.43 120.17 129.41 120.17 129.8 118.95 145.43 118.95"/><polygon class="cls-5" points="106.05 120.17 106.05 118.95 121.07 118.95 120.69 120.17 106.05 120.17"/><path class="cls-5" d="M89.44,203.72l.62-1.93,1.37,4.3a1.67,1.67,0,0,1-1.61-1.17Z"/><path class="cls-5" d="M80.41,196.13A1.67,1.67,0,0,1,82,197.3l.38,1.2-.61,1.93Z"/><polygon class="cls-5" points="86.21 203.45 87.44 203.45 88.94 198.77 87.7 198.77 86.21 203.45"/><path class="cls-5" d="M87.86,203.45h1.23l2.34-7.32h0a1.7,1.7,0,0,0-1.61,1.17Z"/><path class="cls-5" d="M80.41,206.09h0a1.67,1.67,0,0,0,1.6-1.17l2-6.15H82.74Z"/><polygon class="cls-5" points="84.56 203.45 85.79 203.45 87.28 198.77 86.05 198.77 84.56 203.45"/><polygon class="cls-5" points="82.9 203.45 84.13 203.45 85.63 198.77 84.4 198.77 82.9 203.45"/><polygon class="cls-5" points="106.1 200.51 106.1 201.72 90.09 201.72 90.47 200.51 106.1 200.51"/><polygon class="cls-5" points="66.72 201.72 66.72 200.51 81.74 200.51 81.36 201.72 66.72 201.72"/><path class="cls-5" d="M128.82,203.72l.62-1.93,1.37,4.3a1.75,1.75,0,0,1-1-.32,1.7,1.7,0,0,1-.61-.85Z"/><path class="cls-5" d="M119.79,196.13a1.67,1.67,0,0,1,1.6,1.17l.38,1.2-.61,1.93Z"/><polygon class="cls-5" points="125.59 203.45 126.82 203.45 128.31 198.77 127.08 198.77 125.59 203.45"/><path class="cls-5" d="M127.24,203.45h1.23l2.34-7.32h0a1.69,1.69,0,0,0-1.61,1.17Z"/><path class="cls-5" d="M119.79,206.09h0a1.67,1.67,0,0,0,1.6-1.17l2-6.15h-1.23Z"/><polygon class="cls-5" points="123.93 203.45 125.16 203.45 126.66 198.77 125.43 198.77 123.93 203.45"/><polygon class="cls-5" points="122.28 203.45 123.51 203.45 125 198.77 123.78 198.77 122.28 203.45"/><polygon class="cls-5" points="145.48 200.51 145.48 201.72 129.47 201.72 129.85 200.51 145.48 200.51"/><polygon class="cls-5" points="106.1 201.72 106.1 200.51 121.12 200.51 120.74 201.72 106.1 201.72"/><path class="cls-5" d="M168.2,203.72l.61-1.93,1.38,4.3a1.73,1.73,0,0,1-1-.32,1.7,1.7,0,0,1-.61-.85Z"/><path class="cls-5" d="M159.16,196.13a1.68,1.68,0,0,1,1.61,1.17l.38,1.2-.62,1.93Z"/><polygon class="cls-5" points="164.97 203.45 166.2 203.45 167.69 198.77 166.46 198.77 164.97 203.45"/><path class="cls-5" d="M166.62,203.45h1.23l2.34-7.32h0a1.68,1.68,0,0,0-1.61,1.17Z"/><path class="cls-5" d="M159.16,206.09h0a1.68,1.68,0,0,0,1.61-1.17l2-6.15H161.5Z"/><polygon class="cls-5" points="163.31 203.45 164.54 203.45 166.04 198.77 164.81 198.77 163.31 203.45"/><polygon class="cls-5" points="161.66 203.45 162.89 203.45 164.38 198.77 163.15 198.77 161.66 203.45"/><polygon class="cls-5" points="184.86 200.51 184.86 201.72 168.84 201.72 169.23 200.51 184.86 200.51"/><polygon class="cls-5" points="145.48 201.72 145.48 200.51 160.5 200.51 160.12 201.72 145.48 201.72"/><text class="cls-6" transform="translate(93.04 137.88)">これは私の</text></g></g></svg>