<svg xmlns="http://www.w3.org/2000/svg" viewBox="0 0 271.59 286.34"><defs><style>.cls-1{fill:#00158e;}.cls-2{fill:#0751cf;}.cls-3{fill:gold;}.cls-4{font-size:12px;font-family:MS-UIGothic, MS UI Gothic;}.cls-4,.cls-5,.cls-6{fill:#fff;}.cls-6{font-size:20.86px;font-family:KozGoPr6N-Regular-90ms-RKSJ-H, Kozuka Gothic Pr6N;}</style></defs><g id="Layer_2" data-name="Layer 2"><g id="Layer_2-2" data-name="Layer 2"><polygon class="cls-1" points="149.88 16.16 136.54 16.16 9.18 143.52 9.18 156.85 149.88 16.16"/><polygon class="cls-1" points="187.36 16.16 174.02 16.16 9.18 181 9.18 194.33 187.36 16.16"/><polygon class="cls-1" points="112.4 16.16 99.06 16.16 9.18 106.04 9.18 119.37 112.4 16.16"/><polygon class="cls-1" points="74.92 16.16 61.58 16.16 9.18 68.56 9.18 81.89 74.92 16.16"/><polygon class="cls-1" points="37.44 16.16 24.11 16.16 9.18 31.08 9.18 44.41 37.44 16.16"/><path class="cls-1" d="M203.89,16.16v7.61L16.4,211.26H9.18v59.42H263.7V16.16Zm0,195.1H179.65L203.89,187Zm0-37.57-37.57,37.57H142.17l61.72-61.72Zm0-37.48-75,75H104.69l99.2-99.2Zm0-37.48L91.36,211.26H67.21L203.89,74.58Zm0-37.48-150,150H29.73L203.89,37.1Z"/><polygon class="cls-2" points="258.11 265.98 258.11 214.49 248.8 223.8 248.8 256.67 215.94 256.67 206.62 265.98 258.11 265.98"/><rect class="cls-3" x="260.92" y="77.4" width="5.82" height="69.45"/><rect class="cls-3" x="260.92" y="160.82" width="5.82" height="9.7"/><rect class="cls-3" x="44.81" y="269.07" width="94.28" height="4.66"/><polygon class="cls-3" points="39.94 250.56 47.46 250.56 55.48 242.54 42.94 242.54 24.86 260.62 29.88 260.62 39.94 250.56"/><polygon class="cls-3" points="56.24 250.56 63.76 250.56 71.79 242.54 59.24 242.54 41.16 260.62 46.19 260.62 56.24 250.56"/><polygon class="cls-3" points="72.55 250.56 80.07 250.56 88.09 242.54 75.55 242.54 57.47 260.62 62.49 260.62 72.55 250.56"/><polygon class="cls-3" points="88.86 250.56 96.37 250.56 104.4 242.54 91.86 242.54 73.78 260.62 78.8 260.62 88.86 250.56"/><polygon class="cls-3" points="105.16 250.56 112.68 250.56 120.71 242.54 108.16 242.54 90.08 260.62 95.11 260.62 105.16 250.56"/><polygon class="cls-3" points="121.47 250.56 128.99 250.56 137.01 242.54 124.47 242.54 106.39 260.62 111.42 260.62 121.47 250.56"/><polygon class="cls-3" points="137.78 250.56 145.29 250.56 153.32 242.54 140.78 242.54 122.69 260.62 127.72 260.62 137.78 250.56"/><polygon class="cls-3" points="154.08 250.56 161.6 250.56 169.63 242.54 157.08 242.54 139 260.62 144.03 260.62 154.08 250.56"/><path class="cls-2" d="M237.06,7H208V0h29.1ZM209.13,5.82H235.9V1.16H209.13Z"/><path class="cls-2" d="M271.59,216.89h-5V194.77h5Zm-3.88-1.17h2.72V195.93h-2.72Z"/><path class="cls-2" d="M191.67,286.34H157.91V279h33.76Zm-32.59-1.17H190.5v-5H159.08Z"/><path class="cls-3" d="M24.83,284.78H12v-4.65h12.8Zm-11.64-1.16H23.67v-2.33H13.19Z"/><path class="cls-3" d="M4.66,262.28H0v-38.8H4.66Zm-3.5-1.16H3.49V224.65H1.16Z"/><polygon class="cls-3" points="177.89 5.22 177.89 4.93 45.88 4.93 45.88 2.25 177.6 2.25 177.6 5.22 177.89 5.22 177.89 4.93 177.89 5.22 178.18 5.22 178.18 1.67 45.3 1.67 45.3 5.51 178.18 5.51 178.18 5.22 177.89 5.22"/><text class="cls-4" transform="translate(211.8 227.82)">技術<tspan x="0" y="14.4">背景</tspan></text><path class="cls-5" d="M104.9,116.66,86.74,142.43l1.92,1.7,17.56-25.63Zm1.31-1.86,1.28,1.86,15.73-23,4.21-9Zm58.45-25.26a14.37,14.37,0,0,0-20.3-.53l-14,13.27,8.51,9,11.57-11,0-.61a3,3,0,1,1,5,2.08,2.9,2.9,0,0,1-2.23.8l-.62,0-11.57,11L148.2,121l-23.51,20.74,1.61,2.36,23.87-21,14-13.26a14.36,14.36,0,0,0,.53-20.3Zm1.14,10.18a11.46,11.46,0,0,1-3.6,8.08l-11.93,11.34L145,113.57l8.67-8.24a5.76,5.76,0,1,0-6-6.29L139,107.28l-4.65-4.89,11.94-11.34a11.55,11.55,0,0,1,19.51,8.67ZM123.07,143.2,94.62,168.3a11.4,11.4,0,0,0-13.87-12.62l6.41-9.35-2-1.65-9.83,13.95a11.42,11.42,0,0,0,15.8,16.49l33.62-29.62ZM89.24,173.05a8.62,8.62,0,1,1,.31-12.18A8.63,8.63,0,0,1,89.24,173.05Z"/><path class="cls-5" d="M139.64,158.63,87.54,84.68l4.21,9,42.47,62a11.41,11.41,0,0,0-13.87,12.62L107.49,157l-2.14,1.88,18.49,16.29a11.42,11.42,0,0,0,15.8-16.49Zm-1.73,14.11a8.62,8.62,0,1,1-.31-12.18A8.63,8.63,0,0,1,137.91,172.74ZM66.77,121,74,113.47l-11.57-11-.63,0a2.9,2.9,0,0,1-2.23-.8,3,3,0,1,1,5-2.08l0,.61,11.57,11,8.51-9L70.61,89a14.36,14.36,0,1,0-19.77,20.83l14,13.26,38.69,34.09,2.07-1.94Zm-2.07-1.89L52.77,107.8A11.55,11.55,0,1,1,68.68,91.05l11.94,11.34L76,107.28,67.3,99a5.76,5.76,0,1,0-6,6.29L70,113.57Z"/><path class="cls-5" d="M114,79a4.32,4.32,0,0,0-6.1,0l-.45.45L107,79a4.31,4.31,0,0,0-6.1,6.1l.45.46,6.11,6.1,6.1-6.1.45-.46A4.3,4.3,0,0,0,114,79Z"/><path class="cls-5" d="M48,135.7l-.68-2.15a3,3,0,0,0-1.1-1.52,3,3,0,0,0-1.78-.58l2.46,7.71Z"/><path class="cls-5" d="M60.68,145.07l.69,2.15a3,3,0,0,0,2.88,2.1l-2.46-7.71Z"/><polygon class="cls-5" points="51.63 136.18 48.95 144.59 51.15 144.59 53.84 136.18 51.63 136.18"/><path class="cls-5" d="M48.66,136.18l-4.19,13.14a3,3,0,0,0,2.88-2.1l3.52-11Z"/><path class="cls-5" d="M61.37,133.55l-3.52,11h2.21l4.19-13.14A3,3,0,0,0,61.37,133.55Z"/><polygon class="cls-5" points="54.6 136.18 51.91 144.59 54.12 144.59 56.8 136.18 54.6 136.18"/><polygon class="cls-5" points="57.57 136.18 54.88 144.59 57.09 144.59 59.77 136.18 57.57 136.18"/><path class="cls-5" d="M151.75,135.7l-.69-2.15a3,3,0,0,0-2.87-2.1l2.46,7.71Z"/><path class="cls-5" d="M164.4,145.07l.68,2.15a3,3,0,0,0,2.88,2.1l-2.46-7.71Z"/><polygon class="cls-5" points="155.34 136.18 152.66 144.59 154.87 144.59 157.55 136.18 155.34 136.18"/><path class="cls-5" d="M152.38,136.18l-4.19,13.14a3,3,0,0,0,2.87-2.1l3.52-11Z"/><path class="cls-5" d="M165.08,133.55l-3.51,11h2.2L168,131.45A3,3,0,0,0,165.08,133.55Z"/><polygon class="cls-5" points="158.31 136.18 155.63 144.59 157.84 144.59 160.52 136.18 158.31 136.18"/><polygon class="cls-5" points="161.28 136.18 158.6 144.59 160.81 144.59 163.49 136.18 161.28 136.18"/><text class="cls-6" transform="translate(48.86 80.86) rotate(-48.48)">私の痛みを取る</text><path class="cls-5" d="M87.7,68.55c0-1.77,1-2.87,2.35-2.87s2.35,1.1,2.35,2.87-1,2.91-2.35,2.91S87.7,70.33,87.7,68.55Zm4.3,0c0-1.52-.79-2.51-2-2.51s-2,1-2,2.51.78,2.54,2,2.54S92,70.07,92,68.55Zm-3.29,0a1.51,1.51,0,0,1,1.43-1.64,1.19,1.19,0,0,1,.91.41l-.3.34a.8.8,0,0,0-.58-.26c-.53,0-.88.47-.88,1.15s.33,1.24.84,1.24a1,1,0,0,0,.71-.3l.26.38a1.4,1.4,0,0,1-1,.4C89.33,70.27,88.71,69.63,88.71,68.55Z"/><path class="cls-5" d="M95.93,70.68l.37-.47a2.21,2.21,0,0,0,1.59.66c.75,0,1.32-.39,1.32-1s-.56-1.11-2-1.11V68.2c1.31,0,1.82-.45,1.82-1s-.46-.87-1.13-.87a2.08,2.08,0,0,0-1.37.56l-.38-.46a2.68,2.68,0,0,1,1.77-.69c1,0,1.84.51,1.84,1.41,0,.67-.5,1.09-1.18,1.32v0a1.54,1.54,0,0,1,1.37,1.41c0,1-.9,1.59-2,1.59A2.71,2.71,0,0,1,95.93,70.68Z"/><path class="cls-5" d="M104.05,68.57c0-1.86.76-2.86,2-2.86s2,1,2,2.86-.75,2.9-2,2.9S104.05,70.41,104.05,68.57Zm3.31,0c0-1.59-.54-2.28-1.32-2.28s-1.32.69-1.32,2.28.55,2.31,1.32,2.31S107.36,70.16,107.36,68.57Zm-1.86-.06a.54.54,0,1,1,1.08,0,.54.54,0,1,1-1.08,0Z"/><path class="cls-5" d="M115.23,66.44H112v-.63h4v.45a7,7,0,0,0-1.92,5.1h-.75A7.4,7.4,0,0,1,115.23,66.44Z"/><path class="cls-5" d="M123.23,66.44H120v-.63h4v.45a7,7,0,0,0-1.91,5.1h-.76A7.46,7.46,0,0,1,123.23,66.44Z"/></g></g></svg>