<svg xmlns="http://www.w3.org/2000/svg" viewBox="0 0 270.43 276.52"><defs><style>.cls-1{fill:#2c2c30;}.cls-2{fill:#9bf424;}.cls-3{fill:#097f00;}.cls-4{font-size:12px;font-family:MS-UIGothic, MS UI Gothic;}.cls-4,.cls-5,.cls-6{fill:#fff;}.cls-6{font-size:10.39px;font-family:KozGoPr6N-Regular-90ms-RKSJ-H, Kozuka Gothic Pr6N;}</style></defs><g id="Layer_2" data-name="Layer 2"><g id="Layer_2-2" data-name="Layer 2"><path class="cls-1" d="M258.66,244.43H246.31L262.73,228V24.11h-6.68V37.46h-6.67v6.68h-20V37.46H242.7V24.11h13.35V10.75h6.68V7.81H8.21V262.34H48.33v-6.07H55v6.07H262.73v-22ZM23.88,257.69H17.2V251h6.68Zm16.94-6.42H34.14v-6.68h6.68ZM50,251H43.34v-6.67H50ZM60.64,255H54v-6.68h6.67Zm0-17.5H54v-6.68h6.67Zm4.88-9.68H58.9v-6.68h6.67Zm69,16.66,22.12-22.11H169l-22.11,22.11Zm18.62,0,22.12-22.11h12.35l-22.12,22.11Zm18.63,0,22.11-22.11h12.35l-22.12,22.11Zm18.62,0,22.12-22.11H224.9l-22.11,22.11Zm18.62,0,22.12-22.11h12.35l-22.12,22.11Zm18.63,0,22.11-22.11h12.35L240,244.43Z"/><path class="cls-2" d="M19.21,36.53H17.29L38.74,15.08h6l-9.51,9.51H31.15ZM40.36,24.59h4.08L54,15.08h-6L26.49,36.53h1.93Zm9.2,0h4.09l9.51-9.51h-6L35.7,36.53h1.92Zm9.21,0h4.09l9.51-9.51h-6L44.91,36.53h1.92Zm9.21,0h4.09l9.51-9.51h-6L54.12,36.53H56Zm9.21,0h4.08l9.51-9.51h-6L63.32,36.53h1.93Zm9.2,0h4.09L100,15.08H94L72.53,36.53h1.92Zm9.21,0h4.09l9.51-9.51h-6L81.74,36.53h1.92Z"/><polygon class="cls-2" points="258.36 271.69 249.84 263.18 258.36 254.65 253.54 249.83 245.02 258.35 236.5 249.83 231.67 254.65 240.19 263.17 231.67 271.69 236.5 276.52 245.02 268 253.54 276.52 258.36 271.69"/><polygon class="cls-3" points="36.94 63.85 30.82 57.73 36.94 51.6 33.48 48.14 27.36 54.27 21.23 48.15 17.77 51.62 23.89 57.73 17.77 63.86 21.23 67.32 27.36 61.2 33.48 67.32 36.94 63.85"/><path class="cls-3" d="M182.63,36.18a2.19,2.19,0,0,1-2.19,2.18,2.15,2.15,0,0,1-2.07-1.6H138.81l-17,17H63.36l-39,39V229.43H17.84a2.15,2.15,0,0,1-2.07,1.6,2.19,2.19,0,1,1,0-4.37,2.15,2.15,0,0,1,2.07,1.6h5.38v-136L62.87,52.59h58.47l17-17h40a2.15,2.15,0,0,1,2.07-1.6A2.19,2.19,0,0,1,182.63,36.18Z"/><rect class="cls-2" x="256.23" y="40.99" width="6.68" height="6.68"/><rect class="cls-2" x="256.18" y="58.48" width="6.68" height="6.68"/><rect class="cls-2" x="250.54" y="66.48" width="6.68" height="6.68"/><rect class="cls-2" x="221.3" y="76.06" width="6.68" height="6.68"/><rect class="cls-2" x="261.11" y="31.31" width="6.68" height="6.68"/><rect class="cls-2" x="245.55" y="54.55" width="6.68" height="6.68"/><rect class="cls-2" x="236.35" y="54.81" width="6.68" height="6.68"/><rect class="cls-2" x="219.42" y="61.23" width="6.68" height="6.68"/><rect class="cls-2" x="248.84" y="81.16" width="6.68" height="6.68"/><rect class="cls-3" x="20.54" y="5.04" width="41.69" height="5.43"/><rect class="cls-3" x="257.22" y="147.44" width="10.57" height="63.24"/><rect class="cls-3" x="200.2" y="257.69" width="5.43" height="11.58"/><rect class="cls-2" x="129.59" width="5.88" height="23.28"/><rect class="cls-2" x="3.88" y="135.07" width="8.54" height="60.08"/><rect class="cls-2" x="259.57" y="130.75" width="4.88" height="4.88"/><rect class="cls-2" x="267.78" y="93.12" width="2.64" height="26.38"/><rect class="cls-2" x="147.05" y="3.88" width="35.31" height="1.16"/><rect class="cls-2" x="2.33" y="105.92" width="0.78" height="15.52"/><rect class="cls-2" x="1.16" y="64.41" width="1.94" height="26.77"/><rect class="cls-2" y="32.98" width="3.1" height="18.24"/><text class="cls-4" transform="translate(82.07 232.88)">技術<tspan x="0" y="14.4">背景</tspan></text><path class="cls-5" d="M153,149.34H107.71a1.45,1.45,0,0,0-1.13.53l-7.88,9.67v-8.75a1.45,1.45,0,0,0-1.45-1.45H94a1.45,1.45,0,0,0-1.45,1.45v8.8l-7.94-9.72a1.45,1.45,0,0,0-1.12-.53h-4.6a1.45,1.45,0,0,0-1.13,2.36l6.41,7.92,7.24,8.83.81,1a1.46,1.46,0,0,1,.33.92v5.49a1.44,1.44,0,0,1-1.45,1.45H86a1.46,1.46,0,0,0-1.12.54l-7,8.66a1.45,1.45,0,0,0,1.13,2.36H84.1a1.43,1.43,0,0,0,1.12-.53L90,182.46a1.45,1.45,0,0,1,2.58.91v4A1.45,1.45,0,0,0,94,188.86h3.23a1.45,1.45,0,0,0,1.45-1.45v-17.1a1.45,1.45,0,0,1,.32-.92l.78-.95,7.22-8.82,5.28-6.52a1.45,1.45,0,0,1,2.57.91h0a1.45,1.45,0,0,0,1.45,1.45h30.5a1.44,1.44,0,0,1,1.45,1.45v12.67a1.44,1.44,0,0,1-1.45,1.45h-18l7.47-9.2a1.45,1.45,0,0,0-1.13-2.36h-5.18a1.43,1.43,0,0,0-1.12.54l-9,11h-3.19a1.8,1.8,0,0,0-1.8,1.79v14.59a1.45,1.45,0,0,0,1.45,1.45H153a1.45,1.45,0,0,0,1.45-1.45v-3.22a1.45,1.45,0,0,0-1.45-1.45h-30.5a1.45,1.45,0,0,1-1.45-1.45v-2.68a1.45,1.45,0,0,1,1.45-1.45H153a1.45,1.45,0,0,0,1.45-1.45V150.79A1.45,1.45,0,0,0,153,149.34Z"/><path class="cls-5" d="M192.29,171.17H180.8a3.06,3.06,0,0,1-2.38-5l9.64-11.85a3.06,3.06,0,0,0-2.38-5h-1a3.07,3.07,0,0,0-2.38,1.13l-16.84,20.7h0V152.4a3.06,3.06,0,0,0-3.06-3.06h0a3.06,3.06,0,0,0-3.06,3.06v18.77h0v6.13h0v8.5a3.06,3.06,0,0,0,3.06,3.06h0a3.06,3.06,0,0,0,3.06-3.06v-5.43a3.07,3.07,0,0,1,3.07-3.07H183.6a.58.58,0,0,1,.45.95l-4.56,5.62a3.06,3.06,0,0,0,2.37,5h1a3.07,3.07,0,0,0,2.38-1.13l8.47-10.43.92-1.13A3.06,3.06,0,0,0,192.29,171.17Z"/><path class="cls-5" d="M199.17,171a7.55,7.55,0,0,0-6.88-4.35H184l7.64-9.4c.15-.19.29-.38.42-.58h0c5.54-6.86,5.26-18.26,1.48-25.66h0c-2.43-5.13-7.86-7.88-7.86-7.88,8.43,12.69-7.8,16.62-9.06,5.41-2-18.18-19.14-24.71-19.14-24.71s12.09,11,6.27,26-25.86,11.49-14-.45c11.44-11.47,7.17-34.68-8.52-38.06C119.61,86.62,124,66.11,124,66.11s-10.12,21.52,4.87,29.11c21.56,10.92,12.87,29,1.51,28.42S108,109.57,111.9,96.05,104,75.88,104,75.88s8.52,7.49-1.46,23.5,6.5,22.23,4.42,30.14S90.69,135,96.51,122.68s-5.89-20-5.89-20,4.33,10.07-.16,17.34c-5.26,7.44-30,17.66-16.23,34.52l6.43,7.94,7.35,9v1.27H86A6,6,0,0,0,81.29,175l-7,8.66a6,6,0,0,0,4.67,9.81H84.1a6,6,0,0,0,4.66-2.22l.31-.38a6.05,6.05,0,0,0,5,2.6h3.23a6,6,0,0,0,6-6v-16l7.31-8.93,2.68-3.31a6,6,0,0,0,3.07.85h6.6l-5.24,6.44h-1a6.36,6.36,0,0,0-6.36,6.35v14.59a6,6,0,0,0,6,6H153a6,6,0,0,0,4.39-1.92A7.61,7.61,0,0,0,170,185.8v-3.93h5.32a7.63,7.63,0,0,0,6.53,11.56h1a7.6,7.6,0,0,0,5.92-2.82l9.39-11.56A7.55,7.55,0,0,0,199.17,171Zm-2.06,7.2-9.39,11.56a6.21,6.21,0,0,1-4.83,2.3h-1A6.23,6.23,0,0,1,177,181.88l1.15-1.42H168.6v5.34a6.21,6.21,0,0,1-10.8,4.2l-.59-.64-.5.71a4.63,4.63,0,0,1-3.76,2H116.32a4.62,4.62,0,0,1-4.61-4.61V172.82a5,5,0,0,1,5-4.95h1.68l7.52-9.25h-9.55a4.56,4.56,0,0,1-2.79-.94l-.54-.42-11.13,13.66v16.49A4.62,4.62,0,0,1,97.25,192H94a4.64,4.64,0,0,1-4.21-2.72l-.46-1-1.68,2.06A4.57,4.57,0,0,1,84.1,192H78.92a4.62,4.62,0,0,1-3.58-7.52l7-8.65a4.59,4.59,0,0,1,3.57-1.7h3.46V171l-7.66-9.35-6.42-7.93a4.61,4.61,0,0,1,3.58-7.51h4.6a4.6,4.6,0,0,1,3.56,1.69l2.17,2.66.41-1.21A4.6,4.6,0,0,1,94,146.18h3.23a4.61,4.61,0,0,1,4.35,3.1l.42,1.19,2.12-2.59a4.59,4.59,0,0,1,3.57-1.7H153a4.63,4.63,0,0,1,3.76,1.95l.5.71.59-.64a6.21,6.21,0,0,1,10.8,4.2v9.88l11.23-13.81a6.2,6.2,0,0,1,4.83-2.29h1a6.22,6.22,0,0,1,4.83,10.14L181,168h11.29a6.22,6.22,0,0,1,4.82,10.14Z"/><path class="cls-5" d="M135.41,167.87h9.7v-9.25h-5.88l.29.92a4.57,4.57,0,0,1-.82,4.29Zm4.38-3.16a6,6,0,0,0,1.28-4.68h2.64v6.44h-5.35Z"/><path class="cls-5" d="M79.31,200.85,79,199.73a1.59,1.59,0,0,0-.58-.79,1.56,1.56,0,0,0-.92-.3l1.28,4Z"/><path class="cls-5" d="M85.9,205.74l.36,1.12a1.57,1.57,0,0,0,1.5,1.09l-1.28-4Z"/><polygon class="cls-5" points="81.19 201.1 79.79 205.49 80.94 205.49 82.33 201.1 81.19 201.1"/><path class="cls-5" d="M79.64,201.1,77.46,208a1.58,1.58,0,0,0,1.5-1.09l1.83-5.76Z"/><path class="cls-5" d="M86.26,199.73l-1.83,5.76h1.15l2.18-6.85A1.57,1.57,0,0,0,86.26,199.73Z"/><polygon class="cls-5" points="82.73 201.1 81.33 205.49 82.48 205.49 83.88 201.1 82.73 201.1"/><polygon class="cls-5" points="84.28 201.1 82.88 205.49 84.03 205.49 85.43 201.1 84.28 201.1"/><path class="cls-5" d="M186.91,200.85l-.36-1.12a1.57,1.57,0,0,0-1.5-1.09l1.28,4Z"/><path class="cls-5" d="M193.5,205.74l.35,1.12a1.58,1.58,0,0,0,1.5,1.09l-1.28-4Z"/><polygon class="cls-5" points="188.78 201.1 187.38 205.49 188.53 205.49 189.93 201.1 188.78 201.1"/><path class="cls-5" d="M187.23,201.1,185.05,208a1.57,1.57,0,0,0,1.5-1.09l1.83-5.76Z"/><path class="cls-5" d="M193.86,199.73,192,205.49h1.15l2.18-6.85A1.56,1.56,0,0,0,193.86,199.73Z"/><polygon class="cls-5" points="190.33 201.1 188.93 205.49 190.08 205.49 191.48 201.1 190.33 201.1"/><polygon class="cls-5" points="191.87 201.1 190.48 205.49 191.63 205.49 193.02 201.1 191.87 201.1"/><text class="cls-6" transform="translate(126.17 207.75)">侵略</text></g></g></svg>