<svg xmlns="http://www.w3.org/2000/svg" viewBox="0 0 265.11 274.01"><defs><style>.cls-1{fill:#2c2c30;}.cls-2{fill:#097f00;}.cls-3{fill:#9bf424;}.cls-4{font-size:12px;font-family:MS-UIGothic, MS UI Gothic;}.cls-4,.cls-5,.cls-6{fill:#fff;}.cls-6{font-size:13.76px;font-family:KozGoPr6N-Regular-90ms-RKSJ-H, Kozuka Gothic Pr6N;}</style></defs><g id="Layer_2" data-name="Layer 2"><g id="Layer_2-2" data-name="Layer 2"><polygon class="cls-1" points="8.13 10.32 8.13 84.83 22.62 99.31 22.62 183.7 30.48 191.56 30.48 225.6 15.64 225.6 15.64 249.47 8.13 249.47 8.13 264.85 262.65 264.85 262.65 91.36 181.62 10.32 8.13 10.32"/><polygon class="cls-1" points="193.14 10.32 262.65 79.84 262.65 10.32 193.14 10.32"/><path class="cls-2" d="M253.3,99.1,174.93,20.72l-.41-.17H27.86l-.41.17-.17.41V32.77l.17.42.41.17H156.58a2.59,2.59,0,0,0,2.51,2,2.63,2.63,0,1,0,0-5.25,2.59,2.59,0,0,0-2.51,2H28.44V21.72H174.28l78,78V251.21H113.41l-.41.17L93.58,270.81H19.41a2.59,2.59,0,0,0-2.51-2.05,2.63,2.63,0,0,0,0,5.25,2.58,2.58,0,0,0,2.51-2H93.82l.41-.17,19.42-19.42H252.89l.41-.17.17-.42V99.51Z"/><rect class="cls-2" x="5.74" y="32.77" width="4.27" height="27.94"/><rect class="cls-2" x="19.32" y="129.77" width="4.66" height="26.38"/><circle class="cls-3" cx="158.66" cy="242.19" r="3.35"/><circle class="cls-3" cx="175.25" cy="242.19" r="3.35"/><circle class="cls-3" cx="191.83" cy="242.19" r="3.35"/><circle class="cls-3" cx="208.42" cy="242.19" r="3.35"/><circle class="cls-3" cx="225.01" cy="242.19" r="3.35"/><circle class="cls-3" cx="241.59" cy="242.19" r="3.35"/><polygon class="cls-3" points="264.53 161.2 264.53 160.62 260.46 160.62 260.46 110.95 263.95 110.95 263.95 161.2 264.53 161.2 264.53 160.62 264.53 161.2 265.11 161.2 265.11 109.79 259.29 109.79 259.29 161.78 265.11 161.78 265.11 161.2 264.53 161.2"/><polygon class="cls-3" points="53.85 250.44 53.85 249.85 50.56 249.85 50.56 247.14 53.27 247.14 53.27 250.44 53.85 250.44 53.85 249.85 53.85 250.44 54.44 250.44 54.44 245.97 49.39 245.97 49.39 251.02 54.44 251.02 54.44 250.44 53.85 250.44"/><polygon class="cls-3" points="49.2 189.91 49.2 189.33 41.24 189.33 41.24 181.96 48.62 181.96 48.62 189.91 49.2 189.91 49.2 189.33 49.2 189.91 49.78 189.91 49.78 180.79 40.08 180.79 40.08 190.49 49.78 190.49 49.78 189.91 49.2 189.91"/><polygon class="cls-3" points="30.57 81.66 30.57 81.08 23.01 81.08 23.01 74.09 29.99 74.09 29.99 81.66 30.57 81.66 30.57 81.08 30.57 81.66 31.16 81.66 31.16 72.93 21.84 72.93 21.84 82.24 31.16 82.24 31.16 81.66 30.57 81.66"/><polygon class="cls-3" points="247.07 28.51 247.07 27.93 239.12 27.93 239.12 20.55 246.49 20.55 246.49 28.51 247.07 28.51 247.07 27.93 247.07 28.51 247.66 28.51 247.66 19.39 237.96 19.39 237.96 29.09 247.66 29.09 247.66 28.51 247.07 28.51"/><path class="cls-2" d="M55,49.46h-.58a4.85,4.85,0,1,1-4.85-4.85,4.87,4.87,0,0,1,4.85,4.85H55.6a6,6,0,1,0-6,6,6,6,0,0,0,6-6Z"/><path class="cls-2" d="M242.81,186.61h-.59a4.66,4.66,0,1,1-4.65-4.65,4.66,4.66,0,0,1,4.65,4.65h1.17a5.82,5.82,0,1,0-5.82,5.82,5.83,5.83,0,0,0,5.82-5.82Z"/><path class="cls-2" d="M263.37,55.67h-.58a2.91,2.91,0,1,1-2.91-2.91,2.93,2.93,0,0,1,2.91,2.91H264a4.08,4.08,0,1,0-4.07,4.07A4.07,4.07,0,0,0,264,55.67Z"/><path class="cls-2" d="M14.28,224.25H13.7A2.72,2.72,0,1,1,11,221.53a2.72,2.72,0,0,1,2.72,2.72h1.16A3.88,3.88,0,1,0,11,228.13a3.88,3.88,0,0,0,3.88-3.88Z"/><polygon class="cls-2" points="263.06 261.84 257.16 261.84 257.16 255.94 253.82 255.94 253.82 261.84 247.93 261.84 247.93 265.18 253.82 265.18 253.82 271.08 257.16 271.08 257.16 265.18 263.06 265.18 263.06 261.84"/><polygon class="cls-2" points="15.13 8.53 9.23 8.53 9.23 2.63 5.9 2.63 5.9 8.53 0 8.53 0 11.86 5.9 11.86 5.9 17.76 9.23 17.76 9.23 11.86 15.13 11.86 15.13 8.53"/><rect class="cls-2" x="229.81" y="105.72" width="11.06" height="50.05"/><rect class="cls-3" x="222.82" y="140.64" width="11.06" height="15.13"/><rect class="cls-3" x="33.68" y="72.93" width="53.15" height="9.31"/><path class="cls-3" d="M90,0h8.38l-15,15H75Zm33.66,0h-8.38l-15,15h8.38ZM111,0H102.6l-15,15H96Zm63.19,0h-8.38l-15,15h8.38ZM136.25,0h-8.37l-15,15h8.38Zm25.28,0h-8.38l-15,15h8.38ZM148.89,0h-8.38l-15,15h8.37Z"/><text class="cls-4" transform="translate(204.4 207.47)">技術<tspan x="0" y="14.4">背景</tspan></text><path class="cls-5" d="M125.86,196.54H108V210h1.86l-4.51,5.55h20.49a1.13,1.13,0,0,0,1.13-1.13v-4.76a1.13,1.13,0,0,0-1.13-1.13,1.12,1.12,0,0,0,1.13-1.13v-9.7A1.12,1.12,0,0,0,125.86,196.54ZM111,199.48h13.09V207H111Zm13.09,13.09H112l2.12-2.61h9.89Z"/><polygon class="cls-5" points="96.02 201.44 96.02 196.54 93.08 196.54 93.08 201.46 89.06 196.54 85.06 196.54 89.06 201.47 92.53 205.71 93.08 206.38 93.08 215.51 96.02 215.51 96.02 206.35 96.55 205.71 100.02 201.47 104.01 196.54 100.02 196.54 96.02 201.44"/><polygon class="cls-5" points="62.95 215.51 64.58 215.51 65.89 215.51 78.98 215.51 81.92 215.51 81.92 212.57 81.92 209.96 78.98 209.96 78.98 212.57 66.97 212.57 69.09 209.96 71.48 207.02 67.2 207.02 65.89 208.63 65.89 199.48 78.98 199.48 78.98 202.09 81.92 202.09 81.92 199.48 81.92 196.54 78.98 196.54 65.89 196.54 62.95 196.54 62.95 199.48 62.95 212.25 60.3 215.51 62.95 215.51"/><polygon class="cls-5" points="128.45 215.51 131.1 215.51 132.73 215.51 150.07 215.51 150.07 212.57 135.12 212.57 137.24 209.96 137.24 209.96 144.62 209.96 144.62 207.02 139.63 207.02 139.63 207.02 135.35 207.02 135.35 207.02 134.04 207.02 134.04 199.48 150.07 199.48 150.07 196.54 134.04 196.54 131.1 196.54 131.1 199.48 131.1 209.96 132.96 209.96 132.96 209.96 128.45 215.51"/><path class="cls-5" d="M173.38,210V196.54h-19v19h2.94V210h7.24l4.51,5.55h4.28L168.87,210h4.51Zm-6.9-2.94h-9.13v-7.54h13.09V207Z"/><path class="cls-5" d="M162.6,96.28c-7.61-3.4-25,14.7-37.28,33.84a20,20,0,0,0-8.48-2.18,20,20,0,0,0-8.48,2.18C96.11,111,78.69,92.88,71.08,96.28c-3.79,1.69-4.23,7.41-1.34,17.48,5,17.31,14.35,26.51,21.93,31.32-4.72,6.75-7.44,14.08-7.44,20.39a17.93,17.93,0,0,0,7.57,15.07c5.55,4,14,6.06,25,6.06s19.49-2,25-6.06a17.93,17.93,0,0,0,7.57-15.07c0-6.31-2.72-13.64-7.44-20.4,7.58-4.8,17-14,21.93-31.31C166.83,103.69,166.39,98,162.6,96.28ZM73.09,112.8c-2.56-8.91-1.92-12.75-.59-13.35,3.87-1.72,19.16,11.07,32.8,32.35a45.43,45.43,0,0,0-10,8.67c-.53.59-1,1.2-1.52,1.82C86.69,137.86,77.81,129.26,73.09,112.8Zm14.62,52.67a23.11,23.11,0,0,1,.67-5.35l10.17,6.38a11.77,11.77,0,0,1,5.53,10v5.42a27,27,0,0,1-10.23-4.2A14.38,14.38,0,0,1,87.71,165.47Zm18,16.77v-5.73a13.34,13.34,0,0,0-6.28-11.35l-10.58-6.65a43.38,43.38,0,0,1,9.09-15.75c6.15-7,13.41-11.34,18.94-11.34s12.79,4.35,18.94,11.34a43.38,43.38,0,0,1,9.09,15.75l-10.58,6.65A13.34,13.34,0,0,0,128,176.51v5.73a63.84,63.84,0,0,1-11.17.88A63.84,63.84,0,0,1,105.67,182.24Zm34.16-4.51a27.08,27.08,0,0,1-10.23,4.2v-5.42a11.77,11.77,0,0,1,5.53-10l10.17-6.38a23.11,23.11,0,0,1,.67,5.35A14.38,14.38,0,0,1,139.83,177.73ZM160.6,112.8c-4.73,16.45-13.61,25.06-20.69,29.48-.49-.61-1-1.22-1.52-1.81a45.66,45.66,0,0,0-10-8.67c13.64-21.28,28.93-34.07,32.8-32.35C162.51,100.05,163.15,103.9,160.6,112.8Z"/><path class="cls-5" d="M121.07,169.1a3.44,3.44,0,0,1-3.29-2.44l5-6.33H110.88l5,6.33a3.44,3.44,0,0,1-6.73-1h-1.58a5,5,0,0,0,9.25,2.7,5,5,0,0,0,9.25-2.7h-1.58A3.44,3.44,0,0,1,121.07,169.1Zm-1.55-7.18-2.68,3.37-2.68-3.37Z"/><path class="cls-5" d="M110.33,102.72l-.71-2.21a3,3,0,0,0-1.12-1.57,3.12,3.12,0,0,0-1.84-.6l2.53,8Z"/><path class="cls-5" d="M123.35,112.37l.7,2.21a3.12,3.12,0,0,0,3,2.16l-2.53-7.94Z"/><polygon class="cls-5" points="114.03 103.22 111.27 111.87 113.54 111.87 116.3 103.22 114.03 103.22"/><path class="cls-5" d="M111,103.21l-4.31,13.53a3.1,3.1,0,0,0,3-2.16l3.63-11.37Z"/><path class="cls-5" d="M124.06,100.51l-3.63,11.36h2.28L127,98.34A3.1,3.1,0,0,0,124.06,100.51Z"/><polygon class="cls-5" points="117.08 103.22 114.32 111.87 116.59 111.87 119.36 103.22 117.08 103.22"/><polygon class="cls-5" points="120.14 103.22 117.38 111.87 119.65 111.87 122.41 103.22 120.14 103.22"/><path class="cls-5" d="M103.91,158h0a2.36,2.36,0,0,1-2.36-2.36V151.4a2.37,2.37,0,0,1,2.36-2.37h0a2.38,2.38,0,0,1,2.37,2.37v4.26A2.37,2.37,0,0,1,103.91,158Z"/><path class="cls-5" d="M129.76,158h0a2.36,2.36,0,0,1-2.36-2.36V151.4a2.37,2.37,0,0,1,2.36-2.37h0a2.38,2.38,0,0,1,2.37,2.37v4.26A2.37,2.37,0,0,1,129.76,158Z"/><text class="cls-6" transform="translate(80.15 232.55)">ウサギるい</text></g></g></svg>