<svg xmlns="http://www.w3.org/2000/svg" viewBox="0 0 295.09 282.22"><defs><style>.cls-1{fill:#2c2c30;}.cls-2{fill:#9bf424;}.cls-3{fill:#097f00;}.cls-4{font-size:12px;font-family:MS-UIGothic, MS UI Gothic;}.cls-4,.cls-5,.cls-7{fill:#fff;}.cls-6{fill:none;stroke:#fff;stroke-miterlimit:10;stroke-width:2.38px;}.cls-7{font-size:39.97px;font-family:KozGoPr6N-Regular-90ms-RKSJ-H, Kozuka Gothic Pr6N;}</style></defs><g id="Layer_2" data-name="Layer 2"><g id="Layer_2-2" data-name="Layer 2"><polygon class="cls-1" points="273.79 133.03 273.79 14.36 238.52 14.36 238.52 0.34 162.33 0.34 162.33 14.36 63.7 14.36 63.7 37.59 39.7 37.59 39.7 14.36 19.27 14.36 19.27 268.88 39.7 268.88 39.7 278.73 78.34 278.73 78.34 268.88 231.05 268.88 231.05 238.96 255.75 238.96 255.75 268.88 273.79 268.88 273.79 218 283.43 218 283.43 133.03 273.79 133.03"/><path class="cls-2" d="M91.2,0l3,3-3,3L88.25,3Zm5.65,3,3,3,3-2.95L99.8,0Zm8.6,0,3,3L111.34,3,108.4,0Zm8.6,0,2.94,3,3-2.95L117,0Zm8.59,0,3,3L128.54,3,125.59,0ZM134.19,0l-2.95,3,2.95,3L137.14,3Z"/><path class="cls-2" d="M124.46,262.87h-2.15l23.93-23.93h6.7l-10.6,10.61h-4.56Zm23.59-13.32h4.56l10.6-10.61h-6.7l-23.93,23.93h2.15Zm10.27,0h4.56l10.61-10.61h-6.71l-23.92,23.93H145Zm10.27,0h4.56l10.61-10.61h-6.71l-23.92,23.93h2.14Zm10.27,0h4.56L194,238.94h-6.71L163.4,262.87h2.14Zm10.27,0h4.56l10.61-10.61h-6.71l-23.92,23.93h2.14Zm10.27,0H204l10.61-10.61h-6.71l-23.92,23.93h2.14Zm10.27,0h4.56l10.61-10.61h-6.71l-23.92,23.93h2.14Z"/><path class="cls-3" d="M196.7,9.24h9.79L189,26.78h-9.79Zm39.32,0h-9.79L208.7,26.78h9.78Zm-14.77,0h-9.79L193.93,26.78h9.79Zm73.84,0H285.3L267.76,26.78h9.79Zm-44.3,0H241L223.46,26.78h9.79Zm29.53,0h-9.79L253,26.78h9.78Zm-14.77,0h-9.79L238.23,26.78H248Z"/><polygon class="cls-3" points="11.93 144.09 3.49 144.09 0 144.09 0 147.58 0 156.02 3.49 156.02 3.49 147.58 11.93 147.58 11.93 144.09"/><rect class="cls-3" x="7.27" y="150.93" width="4.66" height="46.85"/><rect class="cls-3" x="280.32" y="66.11" width="3.11" height="47.14"/><rect class="cls-3" x="280.32" y="197.78" width="5.99" height="5.99"/><rect class="cls-3" x="82.35" y="9.24" width="69" height="8.77"/><rect class="cls-2" x="87.3" y="275.91" width="37.25" height="2.81"/><rect class="cls-2" x="132.58" y="275.91" width="37.94" height="2.81"/><rect class="cls-2" x="181.29" y="277.32" width="28.23" height="1.41"/><rect class="cls-2" x="222.03" y="277.32" width="16.3" height="1.41"/><rect class="cls-2" x="34.63" y="94.91" width="9.31" height="9.31"/><rect class="cls-2" x="276.44" y="168.73" width="6.98" height="6.98"/><rect class="cls-2" x="260.15" y="217.23" width="6.51" height="6.51"/><rect class="cls-3" x="34.63" y="220.48" width="118.5" height="3.26"/><polyline class="cls-2" points="252.19 37.3 252.19 164.37 252.78 164.37 252.78 37.3"/><polyline class="cls-2" points="258.46 37.3 258.46 164.37 259.04 164.37 259.04 37.3"/><polyline class="cls-2" points="264.72 37.3 264.72 164.37 265.3 164.37 265.3 37.3"/><rect class="cls-2" x="47.72" y="26.78" width="6.79" height="39.33"/><rect class="cls-3" x="264.72" y="250.91" width="3.04" height="31.31"/><text class="cls-4" transform="translate(42.69 195.43)">技術<tspan x="0" y="14.4">背景</tspan></text><path class="cls-5" d="M140.17,107.22c-1.19,2.34,0,5.48,2.05,7s4.79,1.49,5.9-.93-.15-5.47-2-7S141.33,105,140.17,107.22Zm5.53-.13a4.89,4.89,0,0,1,1.61,5.61c-.9,1.87-3.23,1.92-4.72.72s-2.61-3.71-1.61-5.61S144.21,105.93,145.7,107.09Z"/><path class="cls-5" d="M136.41,104.82c-2.35,4.65.48,10.21,4.28,13.17s9,2.31,11.19-2.3c2.41-4.66-.58-10.2-4.28-13.17C143.74,99.43,138.67,100.35,136.41,104.82Zm10.84-1.32c3.34,2.61,5.67,7.57,3.66,11.64s-6.53,4.53-9.87,1.88-5.78-7.57-3.65-11.64S143.91,100.89,147.25,103.5Z"/><path class="cls-5" d="M139.14,95.51c-3.27,1.34-5.88,4.58-7.43,7.66-3.79,7.57,2.17,15.07,7.94,19.52,2.73,2.11,6,3.74,9.5,2.31,3.27-1.34,5.88-4.58,7.43-7.66,3.79-7.57-2.17-15.06-7.93-19.52C145.91,95.71,142.62,94.08,139.14,95.51ZM148.5,99c5.34,4.21,10.39,11.29,6.94,18.16-1.4,2.8-3.82,5.59-6.85,6.69s-6.31-.29-8.81-2.26c-5.33-4.21-10.38-11.28-6.93-18.16,1.4-2.79,3.82-5.61,6.85-6.68C142.89,95.58,146,97,148.5,99Z"/><path class="cls-5" d="M135.49,89.9c-4.14,3.84-7.57,9.45-10,14.46-1,2-2,4.23-1.83,6.55a9,9,0,0,0,2.75,5.39,111.07,111.07,0,0,0,14,12.62c3.77,3,8.23,5.52,12.4,1.69s7.5-9.45,10-14.45c1-2,2-4.24,1.83-6.56a9,9,0,0,0-2.75-5.39,111.6,111.6,0,0,0-14-12.62C144.12,88.63,139.67,86,135.49,89.9Zm12.75,3A70.09,70.09,0,0,1,160.91,105c3,3.88,2.68,7.4.6,11.67-2.21,4.56-5.51,9.7-9.57,12.9s-8.31.8-11.89-2a70.83,70.83,0,0,1-12.67-12.15c-3-3.85-2.67-7.32-.6-11.67,2.28-4.54,5.52-9.76,9.57-12.89S144.67,90.11,148.24,92.89Z"/><path class="cls-5" d="M135.8,79.78c-3.22.2-5,3.54-6.21,6.06-1.94,3.87-3.45,8-5.39,11.92s-4.16,7.61-6.06,11.46c-1.21,2.45-2.87,5.61-2.12,8.45s3.59,4,5.91,5a69.14,69.14,0,0,1,10.65,5.23c3.85,2.52,7.32,5.6,10.91,8.41,2.32,1.83,5.36,4.42,8.54,4.48h.46c3.22-.2,4.95-3.54,6.22-6.06,1.93-3.86,3.44-8,5.38-11.92s4.13-7.6,6.06-11.46c1.21-2.47,2.87-5.61,2.12-8.45s-3.59-3.94-5.9-4.94a69.66,69.66,0,0,1-10.65-5.24c-3.85-2.52-7.32-5.6-10.92-8.41C142.37,82.34,139.15,79.58,135.8,79.78Zm9.72,5.93c3.4,2.67,6.68,5.58,10.25,8.08a86.63,86.63,0,0,0,9.83,5.56c2.13,1.1,4.63,2.45,5.2,5,.59,2.74-1,5.71-2.11,8-1.79,3.63-3.91,7.15-5.81,10.75s-3.48,7.41-5.48,10.9c-1.31,2.31-3.07,5.09-6.08,5.11-3.2,0-6.2-2.53-8.54-4.37-3.41-2.66-6.69-5.58-10.26-8.08a86.63,86.63,0,0,0-9.83-5.56c-2.13-1.1-4.63-2.44-5.19-5-.6-2.74,1-5.67,2.1-8.05,1.82-3.64,3.92-7.15,5.81-10.75s3.48-7.41,5.48-10.9c1.31-2.31,3.07-5.08,6.09-5.11C140.16,81.31,143.19,83.89,145.52,85.71Z"/><path class="cls-5" d="M169.14,121c-1.91,5-2.94,10.36-4.62,15.4-.42,1.28-.92,2.81-1.57,4.31h1.82c.53-1.4,1-2.79,1.34-4,1.64-5.31,2.55-11,4.41-16.19a91,91,0,0,1,5.55-11.74v-1.94C173.74,111.56,171,116.15,169.14,121ZM129.34,72.2c-4.13,1.84-6,7.67-7.16,11.57-1.64,5.3-2.54,11-4.41,16.18s-4.73,10-7.17,14.86c-1.56,3.13-3.88,7.78-1.91,11.26s6.49,4.49,10,5.14c4.71.87,9.76,1,14.18,2.81a42.88,42.88,0,0,1,10.38,6.72h1.26c-3.71-3-7.45-6.11-11.72-8.08s-9-2.33-13.5-3.32c-3.19-.69-7.46-1.76-9.11-4.93s.55-7.66,2-10.61c2.41-4.75,5.12-9.38,7-14.32s2.94-10.36,4.62-15.4c1.17-3.53,2.92-9,6.84-10.4S139,76,141.9,78.25c4.36,3.42,8.63,7.3,13.63,9.6,4.21,1.93,9,2.33,13.5,3.32,2.18.48,5,1.14,7,2.59V91.24a24.26,24.26,0,0,0-6.44-1.94c-4.71-.87-9.75-1-14.18-2.81-5.26-2.16-9.69-6.25-14.2-9.78C138.23,74.34,133.5,70.34,129.34,72.2Z"/><path class="cls-5" d="M139.63,70.25c4.87,3.82,9.84,8.94,16.09,10.1,5.27,1,10.94.09,16.24.86a29.73,29.73,0,0,1,4.11.9V80a28.41,28.41,0,0,0-3.53-.8c-5.39-.84-11.06.37-16.51-.45-6.51-1-11.49-6.22-16.42-10.09-.83-.65-1.69-1.3-2.58-1.91h-2.57A37.34,37.34,0,0,1,139.63,70.25Zm33.28,67.54c-.26.94-.56,1.94-.88,3h1.77c.3-.92.57-1.82.82-2.69a60,60,0,0,0,1.45-6.48v-9.85C174.92,127,174.39,132.56,172.91,137.79ZM113.66,82.47c-1.73,6-2.11,12.32-3.54,18.37s-4.9,11.13-7.6,16.56c-.16.31-.32.63-.47.95v4.13a35.27,35.27,0,0,1,2.09-5.12c2.75-5.39,6-10.5,7.57-16.39s2-12.3,3.67-18.25c1.56-5.54,4-12.51,8.78-16h-2.48C117.58,70.77,115.22,77.11,113.66,82.47Zm-11.61,51.64c2.56,3.4,6.71,5.53,10.85,6.63h21.9a14.33,14.33,0,0,0-2.23-.58c-5.32-1-10.93-.09-16.23-.86-4.93-.72-10.72-2.77-13.49-7.19a10.11,10.11,0,0,1-.8-1.57Z"/><path class="cls-5" d="M168.34,66.64l-.63.08c-2.33.34-4.61,1.07-6.92,1.48a12.29,12.29,0,0,1-8.06-1.48H149c3.16,2.29,6.6,4,10.54,3.5,2.57-.31,5.1-1,7.68-1.32a19.6,19.6,0,0,1,8.48.92l.34.12V67.73a17.81,17.81,0,0,0-3.77-1A15.39,15.39,0,0,0,168.34,66.64ZM104,80a49.31,49.31,0,0,0-2,4.6V97.13a.28.28,0,0,0,0-.09c.66-5.75,1.35-11,3.62-16.39a64.43,64.43,0,0,1,8-13.93h-1.39A75.81,75.81,0,0,0,104,80Z"/><path class="cls-5" d="M141.37,66.72c4.57,3.79,9.47,8.56,15.59,8.87,5.6.29,11.16-1.19,16.69-.1.81.17,1.62.36,2.42.61V73.83c-.56-.18-1.14-.33-1.71-.46a27,27,0,0,0-8.65-.5c-2.64.24-5.3.79-8,.81-5.33,0-9.75-3.53-13.79-7ZM108.75,81.53c-2,5.78-2.47,11.66-3.44,17.66a28.79,28.79,0,0,1-3.26,8.9v4c2.14-3.85,4.22-7.68,5.08-12,1.2-6,1.54-12.22,3.43-18.13,1.64-5.15,4-10.8,7.6-15.2h-1.77A52.8,52.8,0,0,0,108.75,81.53Zm-6.7,59.21h2.67a24.66,24.66,0,0,1-2.67-2.21Z"/><path class="cls-5" d="M172.57,120c-1.81,5.56-2.51,11.54-4.13,17.14-.32,1.12-.68,2.35-1.12,3.6h1.73c.39-1.16.72-2.29,1-3.36,1.63-5.76,2.27-11.93,3.94-17.66a41.06,41.06,0,0,1,2.06-5.44v-2.4A56,56,0,0,0,172.57,120ZM126.4,68.74c-4.64,2.84-6.8,9.5-8.18,14.39-1.63,5.76-2.27,11.93-3.94,17.66s-4.86,10.7-7.46,15.93c-1.9,3.82-4.24,9-1.59,13.12s7.74,5.44,12.06,6.07c5.09.75,10.63.22,15.54,1.61a23.59,23.59,0,0,1,6.64,3.22h1.72a29.62,29.62,0,0,0-8.31-4.67c-4.73-1.58-10.09-1.32-15-2.09-4-.62-8.93-1.88-11.22-5.61s0-8.72,1.74-12.31c2.61-5.13,5.61-10.09,7.36-15.55s2.51-11.53,4.13-17.14c1.29-4.47,3.27-10.83,7.7-13.24s9.64,1.78,12.91,4.34c4.69,3.68,9.32,8.1,14.95,10,4.73,1.57,10.1,1.31,15,2.09a27.29,27.29,0,0,1,5.62,1.39V85.76A30,30,0,0,0,171,84.6c-5.09-.75-10.62-.22-15.54-1.61-5.87-1.67-10.63-6.3-15.42-10.06C136.53,70.18,131.06,65.89,126.4,68.74Z"/><path class="cls-5" d="M132.8,76.25c-3.55.89-5.28,5.45-6.45,8.46-1.77,4.57-3,9.42-4.93,13.92s-4.52,8.84-6.7,13.26c-1.38,2.8-3.3,6.45-2.07,9.65,1.13,2.94,5,4,7.68,4.78,4.17,1.21,8.44,2.08,12.26,4.15,4.53,2.46,8.51,6,12.6,9.21l1.34,1.06h1.26c-1.22-.82-2.34-1.75-3.33-2.52-3.83-3-7.54-6.3-11.76-8.81-3.68-2.2-7.72-3.34-11.72-4.72-2.56-.88-6-2-6.94-4.88s.88-6.46,2.14-9c2.08-4.15,4.43-8.15,6.37-12.37s3.36-8.91,5.21-13.24c1.21-2.81,2.92-6.93,6.42-7.43s7.09,2.57,9.65,4.57c3.83,3,7.54,6.3,11.76,8.81,3.69,2.2,7.71,3.35,11.72,4.72,2.55.87,6,2,6.94,4.89s-.86,6.46-2.14,9.05c-2,4.13-4.43,8.14-6.37,12.36s-3.35,8.91-5.21,13.25a20.86,20.86,0,0,1-3,5.37h2.11a30.73,30.73,0,0,0,2.27-4.94c1.77-4.57,3-9.42,4.93-13.92s4.48-8.83,6.7-13.26c1-2.1,2.5-4.88,2.5-7.46a5.52,5.52,0,0,0-.43-2.19c-1.28-2.93-4.9-4-7.68-4.78-4.17-1.2-8.43-2.08-12.25-4.14-4.54-2.46-8.52-6-12.61-9.21C140.49,78.78,136.47,75.33,132.8,76.25Z"/><path class="cls-5" d="M132.8,87.58c-2.07,2.88-3.74,6.17-5.53,9.28s-3.79,6.33-5.4,9.6c-1.08,2.22-2.42,4.88-2,7.45.38,2.4,2.29,3.88,4.14,5.17,2.83,2,5.78,3.8,8.53,5.93,3.14,2.42,6.12,5.09,9.21,7.52,2.2,1.71,4.9,3.95,7.85,4.15,2.68.18,4.49-1.77,5.91-3.75,2.07-2.88,3.74-6.17,5.53-9.27s3.75-6.33,5.4-9.61c1.08-2.24,2.42-4.87,2-7.45-.37-2.4-2.29-3.88-4.14-5.17-2.83-2-5.78-3.8-8.53-5.93-3.14-2.42-6.12-5.09-9.21-7.52-2.2-1.72-4.89-4-7.85-4.15C136,83.65,134.22,85.6,132.8,87.58Zm6.95-2.11c2.8.32,5.28,2.32,7.4,4,5.46,4.25,10.94,8.79,16.23,13.2,1.66,1.39,3.27,3,3.53,5.27.29,2.47-.91,5-1.95,7.08-1.49,3-3.32,6-5.11,8.86a64.09,64.09,0,0,1-5.5,8.23c-1.51,1.76-3.32,3.24-5.81,3-2.79-.32-5.28-2.32-7.41-4-5.45-4.25-10.93-8.79-16.21-13.2-1.67-1.39-3.28-3-3.54-5.26-.29-2.48.91-4.93,2-7.09,1.51-3,3.32-6,5.1-8.85A63.8,63.8,0,0,1,134,88.44C135.44,86.67,137.25,85.19,139.75,85.47Z"/><path class="cls-5" d="M137.69,92.85c-3.8,2.21-6.75,6.53-8.69,10.36s-2,7.43.18,11.05a44.35,44.35,0,0,0,10.49,11.15c3.2,2.49,7,4.53,10.93,2.25,3.79-2.2,6.79-6.52,8.7-10.36s2.06-7.4-.19-11a44,44,0,0,0-10.49-11.14C145.4,92.62,141.62,90.58,137.69,92.85Zm11,3.39a36.1,36.1,0,0,1,9.45,10.54,10.82,10.82,0,0,1,0,10.63c-1.76,3.53-4.59,7.36-8.2,9.17-3.76,1.9-7.35,0-10.36-2.31a36,36,0,0,1-9.44-10.53,10.79,10.79,0,0,1,0-10.64c1.77-3.53,4.59-7.36,8.19-9.17C142.09,92,145.66,93.91,148.69,96.24Z"/><path class="cls-5" d="M140.28,98.09a11,11,0,0,0-6.18,5.69c-3,6.1,1.15,12.71,5.93,16.52,2.24,1.79,5.11,3,8,2.12a11,11,0,0,0,6.18-5.69c3.06-6.11-1.11-12.71-5.93-16.51C146,98.42,143.16,97.2,140.28,98.09Zm7.69,3.26c4.26,3.25,7.81,9.55,5.09,14.92a9.37,9.37,0,0,1-5.54,4.88c-2.66.72-5.14-.43-7.2-2-4.34-3.27-7.78-9.52-5.08-14.92a9.15,9.15,0,0,1,5.53-4.88C143.43,98.64,145.93,99.79,148,101.35Z"/><path class="cls-5" d="M138.15,105.84c-1.82,3.65.22,8.06,3.19,10.42s7,2,8.8-1.59-.21-8.06-3.19-10.41S139.92,102.3,138.15,105.84Zm8.32-.45c2.43,1.92,4,5.58,2.54,8.53s-4.88,3.07-7.19,1.2-4-5.57-2.54-8.53S144.17,103.57,146.47,105.39Z"/><path class="cls-5" d="M140.17,107.22c-1.19,2.34,0,5.48,2.05,7s4.79,1.49,5.9-.93-.15-5.47-2-7S141.33,105,140.17,107.22Zm5.53-.13a4.89,4.89,0,0,1,1.61,5.61c-.9,1.87-3.23,1.92-4.72.72s-2.61-3.71-1.61-5.61S144.21,105.93,145.7,107.09Z"/><path class="cls-5" d="M141.92,108.52a3.59,3.59,0,0,0,1.13,4,2.17,2.17,0,0,0,3.32-.49,3.43,3.43,0,0,0-1.12-4C144.25,107.23,142.52,107.21,141.92,108.52Zm2.93.33a2.16,2.16,0,0,1,.71,2.51,1.36,1.36,0,0,1-2.12.31,2.2,2.2,0,0,1-.71-2.52A1.35,1.35,0,0,1,144.85,108.85Z"/><path class="cls-5" d="M102.05,74.38v2.44c2.4-3.42,5-6.83,7.74-10.1h-1.16C106.39,69.25,104.21,71.82,102.05,74.38Z"/><path class="cls-5" d="M102.05,68.52v1.66c1.32-1.11,2.6-2.27,3.86-3.46h-1.59C103.58,67.34,102.82,67.93,102.05,68.52Z"/><path class="cls-5" d="M186.21,90.54c.06,0,2.13-1.4,2.28.19a3.78,3.78,0,0,1-1.1,2.79c.08,0,1.2-.4,1.71,1.48s-.53,2.61-.61,2.66a1.61,1.61,0,0,1,1.82,1.27,2.27,2.27,0,0,1-.23,2.24s1.13-.37,1.86,1a2.58,2.58,0,0,1,.29,2.28,1.68,1.68,0,0,1,2,.13,2.26,2.26,0,0,1,1.06,2c0-.14.18-1.21,1.22-1.17a5.65,5.65,0,0,1,2.58,1.29s-.56-1.18,0-1.81,2,.72,2.08.75a3.49,3.49,0,0,1-.32-1.81,3,3,0,0,1,2.62-2s-1.08-.42-.25-2.58,4.28-5.39,4.39-5.49c-.11.05-3.09,1.6-2.64-.72a3.85,3.85,0,0,1,2.14-3,2,2,0,0,1-1.9-2.18,3.74,3.74,0,0,1,2.1-3.07c-.12,0-1.71.45-2-2s1-3.48,1-3.51-1.32.58-2-2.26a8.71,8.71,0,0,1,.75-5.58c-.15.26-1.68,2.9-2.53.86a4.59,4.59,0,0,1-.23-3.53,2,2,0,0,1-2.75-.21c-1.27-1.42-1.21-2.22-1.21-2.22a1.74,1.74,0,0,1-2.07,1.38c-1.8-.17-2.27-1-2.3-1.08a2.91,2.91,0,0,1-.75,3,5.39,5.39,0,0,1-3.14,1.09,2.47,2.47,0,0,1,.63,2.62c-.59,1.52-2.68,1.5-2.68,1.5A2.8,2.8,0,0,1,189.23,78c-.61,2-2.08,1.73-2.17,1.72.1,0,1.72.65,1.43,2a2.06,2.06,0,0,1-1.65,1.61s1.69.28,1.5,2.83A7.2,7.2,0,0,1,186.21,90.54Zm4.83-7.3c.29-2.61,1.73-.47,1.73-.47s-1.05-4.16-.35-6.06,2.15-.3,2.22-.23c-.07-.09-1.58-2.09-.47-3.74s1.71-.31,1.71-.31.73-2.54,2.22-1.4.6,2.25.6,2.25a2,2,0,0,1,2.12,1.45A1.73,1.73,0,0,1,200,77s1.84.28,2.23,2.84-1.52,2.06-1.59,2a5.17,5.17,0,0,1,1.93,3.78c.1,2.44-1.17,2.41-1.17,2.41s1.59.5.89,2.49a2.3,2.3,0,0,1-1.78,1.25s2.1.44,1.69,1.63a1.38,1.38,0,0,1-1.66.87,2,2,0,0,1,.84,2.49c-.64,1.66-1.8,1.21-1.85,1.19a2.86,2.86,0,0,1-.37,3.36c-1.42,1.9-2-.19-2-.19a1.53,1.53,0,0,1-2.28.57c-1.4-1-.63-2.91-.61-3s-.95.57-1.73-1.31a2.17,2.17,0,0,1,.78-2.82,2.14,2.14,0,0,1-1.92-1.8c-.33-1.72,1.51-1.79,1.51-1.79a3.26,3.26,0,0,1-2-2.67c-.13-2,1.13-2.3,1.13-2.3S190.74,85.84,191,83.24Z"/><rect class="cls-6" x="92.97" y="57.43" width="126.79" height="133.41" rx="9.7"/><path class="cls-5" d="M186.43,109.76h-4.05v1h2.25L183,113.43l-.63,1v0h0v3.66H191v-4.7h-6.82l1.63-2.64H191v-1Zm3.52,4.7v2.63H183.4v-2.63H190Z"/><path class="cls-5" d="M196.67,109.76h-4v1h2.26l-1.63,2.64-.63,1v0h0v3.66h8.6v-4.7H194.4l1.63-2.64h5.19v-1Zm3.52,4.7v2.63h-6.54v-2.63h6.54Z"/><path class="cls-5" d="M206.91,109.76h-4v1h2.26l-1.63,2.64-.63,1v0h0v3.66h8.6v-4.7h-6.81l1.62-2.64h5.19v-1Zm3.52,4.7v2.63h-6.54v-2.63h6.54Z"/><path class="cls-5" d="M186.43,121.07h-4.05v1h2.25L183,124.73l-.63,1v0h0v3.66H191v-4.7h-6.82l1.63-2.63H191v-1Zm3.52,4.7v2.63H183.4v-2.63H190Z"/><path class="cls-5" d="M196.67,121.07h-4v1h2.26l-1.63,2.63-.63,1v0h0v3.66h8.6v-4.7H194.4L196,122.1h5.19v-1Zm3.52,4.7v2.63h-6.54v-2.63h6.54Z"/><path class="cls-5" d="M206.91,121.07h-4v1h2.26l-1.63,2.63-.63,1v0h0v3.66h8.6v-4.7h-6.81l1.62-2.63h5.19v-1Zm3.52,4.7v2.63h-6.54v-2.63h6.54Z"/><path class="cls-5" d="M186.43,132.38h-4.05v1h2.25L183,136l-.63,1h0v3.67H191V136h-6.82l1.63-2.63H191v-1Zm3.52,4.69v2.64H183.4v-2.64H190Z"/><path class="cls-5" d="M196.67,132.38h-4v1h2.26L193.25,136l-.63,1h0v3.67h8.6V136H194.4l1.63-2.63h5.19v-1Zm3.52,4.69v2.64h-6.54v-2.64h6.54Z"/><path class="cls-5" d="M206.91,132.38h-4v1h2.26L203.49,136l-.63,1h0v3.67h8.6V136h-6.81l1.62-2.63h5.19v-1Zm3.52,4.69v2.64h-6.54v-2.64h6.54Z"/><text class="cls-7" transform="translate(100.64 181.19)">ボイド</text></g></g></svg>