<svg xmlns="http://www.w3.org/2000/svg" viewBox="0 0 268.88 271.59"><defs><style>.cls-1{fill:#2c2c30;}.cls-2{fill:#097f00;}.cls-3{fill:#9bf424;}.cls-4{font-size:12px;font-family:MS-UIGothic, MS UI Gothic;}.cls-4,.cls-5,.cls-6{fill:#fff;}.cls-6{font-size:18.68px;font-family:KozGoPr6N-Regular-90ms-RKSJ-H, Kozuka Gothic Pr6N;}</style></defs><g id="Layer_2" data-name="Layer 2"><g id="Layer_2-2" data-name="Layer 2"><path class="cls-1" d="M79.73,253.07l7.52-7.52v17.37H10.34v-8.3h4.21v-1.55ZM258.21,147.73V95.64H253v-46L224.16,20.85H216V13.29H198.26V8.4H162.57v2.66h21.72v1.65H152.38l-3.2,3.2H130.36V12H98.16v3.49H92.54V11.45H51.41v3.68h-27L17.71,8.4H10.34V58.78H23v3.88H10.34v5.63H23v3.88H10.34v5.62H23v3.88H10.34V87.3H23v3.88H10.34V96.8H23v3.88H10.34v5.63H23v3.88H10.34v138h4.21v1.7H66.94l8.72-8.72h64.6v5.47h21V241.2h4.85v3.86h2.33V241.2h2.33v3.86H173V241.2h2.33v3.86h2.33V241.2H180v3.86h2.33V241.2h2.32v3.86H187V241.2h2.33v3.86h2.33V241.2H194v3.86h2.33V241.2h2.33v3.86H201V241.2h2.33v3.86h2.32V241.2H208v3.86h2.33V241.2h2.33v3.86H215V241.2h2.32v3.86h2.33V241.2h2.94l7.21,7.21h35.11v-94ZM239.49,259.18H209.22v-9.9H168.78v2.62H139.09v7.28h-3v3.74H264.86V250.74H247.93Z"/><rect class="cls-2" x="213.52" y="252.9" width="2.33" height="2.33" transform="translate(242.53 -77.39) rotate(45)"/><rect class="cls-2" x="218.32" y="252.9" width="2.33" height="2.33" transform="translate(243.93 -80.78) rotate(45)"/><rect class="cls-2" x="223.12" y="252.9" width="2.33" height="2.33" transform="translate(245.34 -84.18) rotate(45)"/><rect class="cls-2" x="227.92" y="252.9" width="2.33" height="2.33" transform="translate(246.75 -87.57) rotate(45)"/><rect class="cls-2" x="232.72" y="252.9" width="2.33" height="2.33" transform="translate(248.15 -90.97) rotate(45)"/><rect class="cls-2" x="237.52" y="252.9" width="2.33" height="2.33" transform="translate(249.56 -94.36) rotate(45)"/><rect class="cls-2" x="257.82" y="167.42" width="10.09" height="69.06"/><rect class="cls-2" x="96.03" y="7.18" width="37.25" height="2.33"/><rect class="cls-2" x="82.45" y="7.18" width="6.6" height="2.33" transform="translate(171.49 16.68) rotate(180)"/><rect class="cls-2" x="30.65" y="7.18" width="44.81" height="2.33"/><polygon class="cls-2" points="16.12 242.12 67.61 242.12 58.3 232.81 25.43 232.81 25.43 199.94 16.12 190.63 16.12 242.12"/><rect class="cls-2" x="254.72" y="62.76" width="2.62" height="10.48"/><rect class="cls-2" x="254.72" y="76.73" width="2.62" height="10.48"/><path class="cls-2" d="M153.26,18.62v13.2h13.19V18.62Zm10.86,10.87h-8.54V21h8.54Z"/><path class="cls-2" d="M172.27,18.62v13.2h13.19V18.62Zm10.86,10.87H174.6V21h8.53Z"/><path class="cls-2" d="M191.28,18.62v13.2h13.19V18.62Zm10.86,10.87h-8.53V21h8.53Z"/><polygon class="cls-3" points="257.65 46.79 257.65 44.45 255.31 44.45 255.31 42.11 252.97 42.11 252.97 39.77 250.63 39.77 250.63 37.43 248.29 37.43 248.29 35.09 245.95 35.09 245.95 32.75 243.61 32.75 243.61 30.41 241.27 30.41 241.27 28.07 238.93 28.07 238.93 25.73 236.59 25.73 236.59 23.39 234.25 23.39 234.25 21.05 231.91 21.05 231.91 18.7 229.56 18.7 229.56 16.36 227.22 16.36 227.22 14.02 224.88 14.02 224.88 11.68 222.01 11.68 222.01 14.55 224.35 14.55 224.35 16.89 226.7 16.89 226.7 19.23 229.04 19.23 229.04 21.57 231.38 21.57 231.38 23.91 233.72 23.91 233.72 26.25 236.06 26.25 236.06 28.6 238.4 28.6 238.4 30.94 240.74 30.94 240.74 33.28 243.08 33.28 243.08 35.62 245.42 35.62 245.42 37.96 247.76 37.96 247.76 40.3 250.1 40.3 250.1 42.64 252.44 42.64 252.44 44.98 254.78 44.98 254.78 47.32 257.12 47.32 257.12 49.66 259.99 49.66 259.99 46.79 257.65 46.79"/><path class="cls-3" d="M45.39,142.2v-6.79H38v7.37h7.37Zm-6.2-5.63h5v5.05h-5Zm150.15,93.9h42.29V225H189.34Zm1.16-4.27h40v3.1h-40Zm52.38-106.31h6.6v-6.6h-6.6Zm1.17-5.43h4.26v4.27h-4.26Zm-19.4-29.3V79.54h-6.21v6.21h6.21ZM219.6,80.7h3.88v3.88H219.6ZM6.21,52.38H14V18.24H6.21Zm1.16-33H12.8V51.21H7.37Zm100.1,227.75h9.7v-9.7h-9.7Zm1.17-8.54H116V246h-7.37ZM27.94,268.1H69.45v-5.82H27.94Zm1.16-4.65H68.29v3.49H29.1Zm134.63,8.14h6.21v-6.2h-6.21Zm1.17-5h3.88v3.88H164.9Zm97.77-135.41v6.21h6.21v-6.21Zm1.16,1.17h3.88v3.87h-3.88ZM209.13,6.4V0h-7V7h7Zm-5.82-5.24H208V5.82h-4.65ZM0,127.65H6.21v-6.21H0Zm1.16-5.05H5v3.89H1.16Z"/><text class="cls-4" transform="translate(24.74 36.11)">技術<tspan x="0" y="14.4">背景</tspan></text><path class="cls-5" d="M178.88,161.18a45.39,45.39,0,0,1-4.58,5.4l-.75-.75a45.49,45.49,0,0,0,4-4.65Z"/><path class="cls-5" d="M156.58,174.44c0,.58,0,1.17,0,1.76-.77-1.07-1.5-2.13-2.21-3.25a1.38,1.38,0,0,1,.83,0,1.47,1.47,0,0,1,.69.55Z"/><path class="cls-5" d="M166.62,177.18a1.53,1.53,0,0,1-1.83-.18l-.79-.77c-.09-.59-.19-1.17-.29-1.75C164.66,175.41,165.62,176.31,166.62,177.18Z"/><path class="cls-5" d="M159.16,173.71l-.95.37c.11,1.43.19,2.88.22,4.31.36-.11.7-.26,1-.39C159.41,176.55,159.3,175.12,159.16,173.71Z"/><path class="cls-5" d="M157.88,174.21l-.47.19-.48.16c0,1.12.07,2.24.08,3.36s0,2.27-.07,3.39a1.54,1.54,0,0,0,.82-.56,1.41,1.41,0,0,0,.31-.88C158.08,178,158,176.1,157.88,174.21Z"/><path class="cls-5" d="M162.33,169.58a1.39,1.39,0,0,0-.62,1.51c.36,1.82.67,3.71.89,5.57.35-.14.67-.33,1-.49C163.28,173.93,162.86,171.76,162.33,169.58Z"/><path class="cls-5" d="M160.41,173.15l-.93.42c.16,1.43.28,2.84.36,4.28l1-.41C160.76,176,160.6,174.57,160.41,173.15Z"/><path class="cls-5" d="M161.64,172.56c-.3.16-.6.31-.91.45.2,1.41.37,2.83.5,4.27l1-.46q-.12-1.06-.27-2.13C161.88,174,161.77,173.27,161.64,172.56Z"/><path class="cls-5" d="M143.1,179.51v-1.07a46.07,46.07,0,0,0,6.85-.54,44.46,44.46,0,0,0,6.67-1.63l0,1.11A45.19,45.19,0,0,1,150,179,49.15,49.15,0,0,1,143.1,179.51Z"/><path class="cls-5" d="M173.55,165.83l.75.75a47.82,47.82,0,0,1-5,4.31,45.58,45.58,0,0,1-5.59,3.51l-.2-1.09a47.94,47.94,0,0,0,5.3-3.37A48.75,48.75,0,0,0,173.55,165.83Z"/><path class="cls-5" d="M125,172.53c-.4.43-.8.86-1.21,1.28.21-1.3.46-2.58.74-3.85a1.24,1.24,0,0,1,.56.61,1.62,1.62,0,0,1,.1.88Z"/><path class="cls-5" d="M130.18,181.57a1.54,1.54,0,0,1-1.17-1.41l0-1.11c.36-.48.7-1,1-1.44C130.05,178.92,130.09,180.24,130.18,181.57Z"/><path class="cls-5" d="M127.36,173.83l-.47-.18-.47-.21c-.92,1.08-1.89,2.14-2.89,3.19l1,.46C125.52,176,126.45,175,127.36,173.83Z"/><path class="cls-5" d="M126.1,173.29l-.93-.42c-1.5,1.64-3.08,3.23-4.76,4.77a1.56,1.56,0,0,0,1.82-.22C123.57,176.1,124.88,174.7,126.1,173.29Z"/><path class="cls-5" d="M132.53,173.17a1.42,1.42,0,0,0-1.52.63c-1,1.54-2.14,3.07-3.31,4.57l1.07.35C130.1,176.93,131.36,175.06,132.53,173.17Z"/><path class="cls-5" d="M128.64,174.34l-.95-.38c-.89,1.12-1.83,2.23-2.78,3.29.33.16.68.3,1,.44C126.88,176.58,127.77,175.47,128.64,174.34Z"/><path class="cls-5" d="M129.93,174.79l-1-.33c-.85,1.15-1.73,2.26-2.66,3.37l1,.41C128.24,177.11,129.11,176,129.93,174.79Z"/><path class="cls-5" d="M111.91,166.58l.75-.75a45.21,45.21,0,0,0,5.23,4.45c.47.33.93.68,1.41,1l1.45.92,1.49.86c.24.15.5.28.75.41l.77.39-.78.8A44.63,44.63,0,0,1,111.91,166.58Z"/><path class="cls-5" d="M143.1,178.44v1.07a50,50,0,0,1-6.58-.5,47.24,47.24,0,0,1-6.44-1.46l.63-.93,1.51.43,1.53.36c.26.06.51.13.77.18l.77.13c.52.09,1,.2,1.55.27A48.55,48.55,0,0,0,143.1,178.44Z"/><path class="cls-5" d="M112.66,165.83l-.75.75a47.71,47.71,0,0,1-4.31-5c-.1-.14-.19-.26-.28-.4h1.31A47,47,0,0,0,112.66,165.83Z"/><path class="cls-5" d="M112.66,104.94a44.38,44.38,0,0,0-4,4.65h-1.32a47.27,47.27,0,0,1,4.59-5.4Z"/><path class="cls-5" d="M129.63,96.34c0-.59,0-1.18,0-1.77.76,1.07,1.49,2.14,2.2,3.25a1.38,1.38,0,0,1-.83,0,1.51,1.51,0,0,1-.69-.55Z"/><path class="cls-5" d="M119.59,93.6a1.53,1.53,0,0,1,1.82.17l.8.77c.09.59.18,1.17.28,1.76C121.55,95.36,120.58,94.47,119.59,93.6Z"/><path class="cls-5" d="M127.05,97.06l1-.37c-.12-1.42-.2-2.88-.23-4.3-.35.11-.7.25-1,.39C126.79,94.22,126.9,95.65,127.05,97.06Z"/><path class="cls-5" d="M128.32,96.56l.48-.19.48-.16c-.05-1.11-.08-2.23-.08-3.36s0-2.26.07-3.38a1.49,1.49,0,0,0-.82.55,1.47,1.47,0,0,0-.32.89C128.13,92.81,128.18,94.67,128.32,96.56Z"/><path class="cls-5" d="M123.87,101.2a1.43,1.43,0,0,0,.63-1.51c-.36-1.83-.67-3.71-.9-5.58-.34.15-.67.33-1,.5C122.93,96.84,123.34,99,123.87,101.2Z"/><path class="cls-5" d="M125.8,97.62l.92-.42c-.16-1.43-.27-2.84-.35-4.28l-1.05.41Q125.5,95.51,125.8,97.62Z"/><path class="cls-5" d="M124.56,98.21c.3-.15.6-.31.92-.44-.21-1.41-.38-2.84-.51-4.28L124,94q.12,1.08.27,2.13C124.32,96.8,124.44,97.51,124.56,98.21Z"/><path class="cls-5" d="M143.1,91.27v1.06a47.69,47.69,0,0,0-6.85.55,42.69,42.69,0,0,0-6.67,1.63V93.39a46.35,46.35,0,0,1,6.68-1.59A49.14,49.14,0,0,1,143.1,91.27Z"/><path class="cls-5" d="M112.66,104.94l-.75-.75a46.47,46.47,0,0,1,5-4.3,45.65,45.65,0,0,1,5.59-3.52l.21,1.09a46.59,46.59,0,0,0-5.3,3.38A47.5,47.5,0,0,0,112.66,104.94Z"/><path class="cls-5" d="M161.19,98.24c.39-.43.8-.85,1.21-1.28-.22,1.3-.46,2.59-.74,3.86a1.19,1.19,0,0,1-.56-.61,1.47,1.47,0,0,1-.1-.89Z"/><path class="cls-5" d="M156,89.21a1.52,1.52,0,0,1,1.16,1.4l0,1.12c-.35.47-.69,1-1,1.43C156.16,91.85,156.11,90.53,156,89.21Z"/><path class="cls-5" d="M158.84,96.94l.48.19.46.21q1.4-1.62,2.89-3.2l-1-.46C160.68,94.74,159.75,95.82,158.84,96.94Z"/><path class="cls-5" d="M160.1,97.48l.93.42c1.5-1.64,3.09-3.22,4.76-4.77a1.58,1.58,0,0,0-1.82.22C162.63,94.67,161.33,96.07,160.1,97.48Z"/><path class="cls-5" d="M153.68,97.61a1.4,1.4,0,0,0,1.51-.63q1.56-2.33,3.31-4.57l-1.06-.36C156.1,93.84,154.84,95.72,153.68,97.61Z"/><path class="cls-5" d="M157.57,96.44l1,.37c.89-1.12,1.82-2.23,2.78-3.29-.34-.16-.69-.3-1-.43Q158.86,94.74,157.57,96.44Z"/><path class="cls-5" d="M156.27,96l1,.33c.86-1.15,1.74-2.26,2.67-3.37l-1-.41C158,93.67,157.1,94.83,156.27,96Z"/><path class="cls-5" d="M174.3,104.19l-.75.75a45.46,45.46,0,0,0-5.24-4.45c-.47-.32-.92-.67-1.41-1l-1.44-.93L164,97.72c-.25-.14-.5-.28-.76-.41l-.76-.39.77-.79A44.39,44.39,0,0,1,174.3,104.19Z"/><path class="cls-5" d="M143.1,92.33V91.27a48.47,48.47,0,0,1,6.59.49,47.1,47.1,0,0,1,6.43,1.46l-.62.93L154,93.72c-.5-.13-1-.24-1.53-.36l-.76-.17-.77-.14c-.52-.08-1-.2-1.55-.26A47,47,0,0,0,143.1,92.33Z"/><path class="cls-5" d="M178.89,109.59h-1.32a48,48,0,0,0-4-4.65l.75-.75a46.57,46.57,0,0,1,4.3,5Z"/><path class="cls-5" d="M89,107.05c-19.15-5.24-12.84,4.31-3.21,12.06s-26.23-3.21-14.72,12.13,50.92,11.35,37.34,15.58c-22.62,7-38.94-21.93-48.93-12.12-7.36,7.23,9.87,19.63,35.23,21.9,16.65,1.49,35.62-8.22,24.43-16s-44.2-8.22-32.83-10.26S95,121.53,95,121.53s4.85,14.33,16.83,13.86S102.13,110.65,89,107.05Z"/><path class="cls-5" d="M197.23,107.05c19.14-5.24,12.83,4.31,3.21,12.06s26.22-3.21,14.71,12.13-50.92,11.35-37.34,15.58c22.63,7,38.94-21.93,48.94-12.12,7.36,7.23-9.88,19.63-35.24,21.9-16.64,1.49-35.62-8.22-24.42-16s44.2-8.22,32.82-10.26-8.71-8.77-8.71-8.77-4.86,14.33-16.83,13.86S184.07,110.65,197.23,107.05Z"/><path class="cls-5" d="M74.15,113.63c-7.27-6-16.35-3-6.2,1.89S77.52,116.39,74.15,113.63Z"/><path class="cls-5" d="M211.14,113.63c7.27-6,16.36-3,6.21,1.89S207.78,116.39,211.14,113.63Z"/><polygon class="cls-5" points="134.49 165.06 135.38 165.06 136.09 165.06 143.19 165.06 144.79 165.06 144.79 163.47 144.79 162.05 143.19 162.05 143.19 163.47 136.67 163.47 137.82 162.05 139.12 160.46 136.8 160.46 136.09 161.33 136.09 156.36 143.19 156.36 143.19 157.78 144.79 157.78 144.79 156.36 144.79 154.76 143.19 154.76 136.09 154.76 134.49 154.76 134.49 156.36 134.49 163.29 133.05 165.06 134.49 165.06"/><polygon class="cls-5" points="133.05 165.06 133.05 156.36 133.05 154.76 131.46 154.76 124.35 154.76 122.75 154.76 122.75 156.36 122.75 165.06 124.35 165.06 124.35 156.36 129.13 156.36 127.83 157.96 125.39 160.97 127.71 160.97 130.16 157.96 131.46 156.36 131.46 165.06 133.05 165.06"/><polygon class="cls-5" points="153.19 156.37 161.86 156.37 161.86 160.45 156.78 160.45 156.8 160.44 159.24 157.43 156.92 157.43 154.49 160.44 154.47 160.45 153.19 160.45 153.19 162.04 161.86 162.04 161.86 163.47 153.19 163.47 153.19 165.06 163.45 165.06 163.45 165.06 163.45 163.47 163.45 162.04 163.45 160.45 163.45 156.37 163.45 154.8 163.45 154.78 153.19 154.78 153.19 156.37"/><polygon class="cls-5" points="150.09 154.8 150.09 154.81 148.38 156.92 150.09 156.92 150.09 165.06 151.68 165.06 151.68 155.51 151.68 154.8 150.09 154.8 150.09 154.8"/><path class="cls-5" d="M143.1,102.11a7.48,7.48,0,1,0,7.48,7.48A7.48,7.48,0,0,0,143.1,102.11Zm1.3,5a.54.54,0,0,1,.54-.54.53.53,0,0,1,.38.16.51.51,0,0,1,.16.38v1.1a.54.54,0,0,1-.54.54.54.54,0,0,1-.54-.54Zm-3.67,0a.54.54,0,0,1,.54-.54.53.53,0,0,1,.53.54v1.1a.54.54,0,1,1-1.07,0Zm2.37,7.7a5.24,5.24,0,0,1-5.23-5.23h.79a4.45,4.45,0,1,0,8.89,0h.78A5.23,5.23,0,0,1,143.1,114.82Z"/><text class="cls-6" transform="translate(116.03 136.26)">ペシー</text><path class="cls-5" d="M128.42,144c0-1.33.76-2.15,1.76-2.15s1.76.82,1.76,2.15-.76,2.18-1.76,2.18S128.42,145.33,128.42,144Zm3.22,0c0-1.14-.59-1.88-1.46-1.88s-1.46.74-1.46,1.88.58,1.91,1.46,1.91S131.64,145.14,131.64,144Zm-2.47,0a1.14,1.14,0,0,1,1.08-1.23.88.88,0,0,1,.68.31l-.22.25a.64.64,0,0,0-.44-.2c-.4,0-.66.36-.66.87s.25.93.63.93a.8.8,0,0,0,.53-.22l.2.28a1,1,0,0,1-.74.31C129.64,145.29,129.17,144.8,129.17,144Z"/><path class="cls-5" d="M134.59,145.59l.28-.35a1.68,1.68,0,0,0,1.19.49c.57,0,1-.29,1-.76s-.42-.83-1.51-.83v-.41c1,0,1.36-.34,1.36-.77s-.34-.66-.85-.66a1.57,1.57,0,0,0-1,.42l-.29-.34a2,2,0,0,1,1.33-.52c.79,0,1.38.38,1.38,1.06,0,.5-.37.82-.89,1v0a1.15,1.15,0,0,1,1,1.06c0,.74-.67,1.19-1.5,1.19A2.05,2.05,0,0,1,134.59,145.59Z"/><path class="cls-5" d="M140.69,144c0-1.4.57-2.15,1.49-2.15s1.5.75,1.5,2.15-.57,2.17-1.5,2.17S140.69,145.39,140.69,144Zm2.49,0c0-1.2-.42-1.72-1-1.72s-1,.52-1,1.72.41,1.73,1,1.73S143.18,145.2,143.18,144Zm-1.4,0a.41.41,0,1,1,.81,0,.41.41,0,1,1-.81,0Z"/><path class="cls-5" d="M149.08,142.41h-2.4v-.47h3v.33a5.3,5.3,0,0,0-1.44,3.83h-.56A5.53,5.53,0,0,1,149.08,142.41Z"/><path class="cls-5" d="M155.08,142.41h-2.39v-.47h3v.33a5.25,5.25,0,0,0-1.43,3.83h-.57A5.58,5.58,0,0,1,155.08,142.41Z"/></g></g></svg>