<svg xmlns="http://www.w3.org/2000/svg" viewBox="0 0 270.43 276.52"><defs><style>.cls-1{fill:#2c2c30;}.cls-2{fill:#9bf424;}.cls-3{fill:#097f00;}.cls-4{font-size:12px;font-family:MS-UIGothic, MS UI Gothic;}.cls-4,.cls-6{fill:#fff;}.cls-5{fill:none;stroke:#fff;stroke-miterlimit:10;stroke-width:1.26px;}</style></defs><g id="Layer_2" data-name="Layer 2"><g id="Layer_2-2" data-name="Layer 2"><path class="cls-1" d="M258.66,244.43H246.31L262.73,228V24.11h-6.68V37.46h-6.67v6.68h-20V37.46H242.7V24.11h13.35V10.75h6.68V7.81H8.21V262.34H48.33v-6.07H55v6.07H262.73v-22ZM23.88,257.69H17.2V251h6.68Zm16.94-6.42H34.14v-6.68h6.68ZM50,251H43.34v-6.67H50ZM60.64,255H54v-6.68h6.67Zm0-17.5H54v-6.68h6.67Zm4.88-9.68H58.9v-6.68h6.67Zm69,16.66,22.12-22.11H169l-22.11,22.11Zm18.62,0,22.12-22.11h12.35l-22.12,22.11Zm18.63,0,22.11-22.11h12.35l-22.12,22.11Zm18.62,0,22.12-22.11H224.9l-22.11,22.11Zm18.62,0,22.12-22.11h12.35l-22.12,22.11Zm18.63,0,22.11-22.11h12.35L240,244.43Z"/><path class="cls-2" d="M19.21,36.53H17.29L38.74,15.08h6l-9.51,9.51H31.15ZM40.36,24.59h4.08L54,15.08h-6L26.49,36.53h1.93Zm9.2,0h4.09l9.51-9.51h-6L35.7,36.53h1.92Zm9.21,0h4.09l9.51-9.51h-6L44.91,36.53h1.92Zm9.21,0h4.09l9.51-9.51h-6L54.12,36.53H56Zm9.21,0h4.08l9.51-9.51h-6L63.32,36.53h1.93Zm9.2,0h4.09L100,15.08H94L72.53,36.53h1.92Zm9.21,0h4.09l9.51-9.51h-6L81.74,36.53h1.92Z"/><polygon class="cls-2" points="258.36 271.69 249.84 263.18 258.36 254.65 253.54 249.83 245.02 258.35 236.5 249.83 231.67 254.65 240.19 263.17 231.67 271.69 236.5 276.52 245.02 268 253.54 276.52 258.36 271.69"/><polygon class="cls-3" points="36.94 63.85 30.82 57.73 36.94 51.6 33.48 48.14 27.36 54.27 21.23 48.15 17.77 51.62 23.89 57.73 17.77 63.86 21.23 67.32 27.36 61.2 33.48 67.32 36.94 63.85"/><path class="cls-3" d="M182.63,36.18a2.19,2.19,0,0,1-2.19,2.18,2.15,2.15,0,0,1-2.07-1.6H138.81l-17,17H63.36l-39,39V229.43H17.84a2.15,2.15,0,0,1-2.07,1.6,2.19,2.19,0,1,1,0-4.37,2.15,2.15,0,0,1,2.07,1.6h5.38v-136L62.87,52.59h58.47l17-17h40a2.15,2.15,0,0,1,2.07-1.6A2.19,2.19,0,0,1,182.63,36.18Z"/><rect class="cls-2" x="256.23" y="40.99" width="6.68" height="6.68"/><rect class="cls-2" x="256.18" y="58.48" width="6.68" height="6.68"/><rect class="cls-2" x="250.54" y="66.48" width="6.68" height="6.68"/><rect class="cls-2" x="221.3" y="76.06" width="6.68" height="6.68"/><rect class="cls-2" x="261.11" y="31.31" width="6.68" height="6.68"/><rect class="cls-2" x="245.55" y="54.55" width="6.68" height="6.68"/><rect class="cls-2" x="236.35" y="54.81" width="6.68" height="6.68"/><rect class="cls-2" x="219.42" y="61.23" width="6.68" height="6.68"/><rect class="cls-2" x="248.84" y="81.16" width="6.68" height="6.68"/><rect class="cls-3" x="20.54" y="5.04" width="41.69" height="5.43"/><rect class="cls-3" x="257.22" y="147.44" width="10.57" height="63.24"/><rect class="cls-3" x="200.2" y="257.69" width="5.43" height="11.58"/><rect class="cls-2" x="129.59" width="5.88" height="23.28"/><rect class="cls-2" x="3.88" y="135.07" width="8.54" height="60.08"/><rect class="cls-2" x="259.57" y="130.75" width="4.88" height="4.88"/><rect class="cls-2" x="267.78" y="93.12" width="2.64" height="26.38"/><rect class="cls-2" x="147.05" y="3.88" width="35.31" height="1.16"/><rect class="cls-2" x="2.33" y="105.92" width="0.78" height="15.52"/><rect class="cls-2" x="1.16" y="64.41" width="1.94" height="26.77"/><rect class="cls-2" y="32.98" width="3.1" height="18.24"/><text class="cls-4" transform="translate(82.07 232.88)">技術<tspan x="0" y="14.4">背景</tspan></text><path class="cls-5" d="M130.73,127.06l-61.8,61.8a1.94,1.94,0,0,0,1.79,3.27h0A102.11,102.11,0,0,0,121,164.59L144.64,141l-.94-11.3-7.79-7.79Z"/><path class="cls-6" d="M170.14,84.43l-35,35a1.73,1.73,0,0,0,0,2.44l8,8a3.55,3.55,0,0,0,5,0l33.69-33.68a3.55,3.55,0,0,0,0-5l-6.66-6.66A3.55,3.55,0,0,0,170.14,84.43Z"/><polygon class="cls-6" points="144.22 141.4 135.25 132.43 144.61 140.58 144.22 141.4"/><path class="cls-6" d="M82.16,176.33l-.81.81-1.18.34-.31-.5C80.63,176.78,81.4,176.56,82.16,176.33Z"/><path class="cls-6" d="M82.14,176.15l-.29-.47c-1.24.34-2.5.65-3.77.91a.83.83,0,0,0,.92.4C80.05,176.74,81.1,176.45,82.14,176.15Z"/><path class="cls-6" d="M81.07,177.42l-.57.57-.22-.34Z"/><path class="cls-6" d="M77.58,169l.61-.09a14.9,14.9,0,0,0,1,3.5,26.67,26.67,0,0,0,1.66,3.29l-.62.16a28.15,28.15,0,0,1-1.64-3.3A15,15,0,0,1,77.58,169Z"/><path class="cls-6" d="M84.23,165.25c.17-.29.34-.58.52-.87,0,.75,0,1.51-.09,2.26a.59.59,0,0,1-.32-.28.9.9,0,0,1-.12-.48Z"/><path class="cls-6" d="M79.7,161.39a1,1,0,0,1,1.18.35,6.36,6.36,0,0,1,.3.58c-.08.33-.15.67-.2,1a11.29,11.29,0,0,0-.57-1A10,10,0,0,0,79.7,161.39Z"/><path class="cls-6" d="M82.94,164.86a4.71,4.71,0,0,1,.5.08,24.22,24.22,0,0,1,1.18-2.18l-.61-.13A17.53,17.53,0,0,0,82.94,164.86Z"/><path class="cls-6" d="M83.61,165l.51.11a29,29,0,0,1,2.12-3.24.85.85,0,0,0-1,.32A25.78,25.78,0,0,0,83.61,165Z"/><path class="cls-6" d="M81.13,166.23c.13,0,.25-.3.27-.66a10.85,10.85,0,0,1,.22-1.59,13.16,13.16,0,0,1,.44-1.57c-.22,0-.44,0-.67,0-.08.31-.15.63-.21.95a7.63,7.63,0,0,0-.12,1A7.39,7.39,0,0,0,81.13,166.23Z"/><path class="cls-6" d="M82.27,164.79l.49,0c.15-.38.31-.76.48-1.13s.36-.75.56-1.11c-.21,0-.42-.08-.64-.1-.17.38-.34.75-.49,1.14S82.39,164.41,82.27,164.79Z"/><path class="cls-6" d="M81.63,164.8a3.69,3.69,0,0,1,.47,0,16.64,16.64,0,0,1,.84-2.33l-.65,0c-.14.38-.28.79-.39,1.18A12.24,12.24,0,0,0,81.63,164.8Z"/><path class="cls-6" d="M91.7,167.06l-.33.51a25.21,25.21,0,0,0-6.6-3.21l.34-.55A26.1,26.1,0,0,1,91.7,167.06Z"/><path class="cls-6" d="M78.19,169l-.61.09a7.8,7.8,0,0,1-.07-1.81,4.9,4.9,0,0,1,.47-1.79A3.64,3.64,0,0,1,79.23,164a4.44,4.44,0,0,1,1.74-.65c0,.22,0,.43-.07.64a3.56,3.56,0,0,0-1.43.59,3,3,0,0,0-1,1.19,4.4,4.4,0,0,0-.37,1.53A7.42,7.42,0,0,0,78.19,169Z"/><path class="cls-6" d="M98.63,175.05l.9-.46c-.38.65-.77,1.29-1.18,1.93a.68.68,0,0,1-.17-.43.9.9,0,0,1,.12-.5Z"/><path class="cls-6" d="M98.26,169.33a.82.82,0,0,1,.18,1l-.28.57-.88.52C97.61,170.71,97.94,170,98.26,169.33Z"/><path class="cls-6" d="M97.7,173.91l.4.39c.72-.39,1.45-.78,2.19-1.15l-.41-.42C99.15,173.12,98.42,173.5,97.7,173.91Z"/><path class="cls-6" d="M98.23,174.44l.39.4c1.14-.59,2.3-1.17,3.47-1.72a.82.82,0,0,0-1-.17C100.14,173.43,99.18,173.93,98.23,174.44Z"/><path class="cls-6" d="M94.89,173.09a.78.78,0,0,0,.93,0q1.38-.84,2.79-1.65l-.42-.4C97.08,171.72,96,172.4,94.89,173.09Z"/><path class="cls-6" d="M97.16,173.38l.4.39c.72-.4,1.45-.8,2.18-1.18l-.42-.42Z"/><path class="cls-6" d="M96.62,172.86l.41.38c.71-.41,1.42-.81,2.15-1.21l-.42-.41C98,172,97.32,172.44,96.62,172.86Z"/><path class="cls-6" d="M104.68,180l-.51.34a44.29,44.29,0,0,0-4.6-5.79l.57-.29A44.91,44.91,0,0,1,104.68,180Z"/><path class="cls-6" d="M91.37,167.57l.33-.51a43.94,43.94,0,0,1,5.54,4.34l-.55.34A42.84,42.84,0,0,0,91.37,167.57Z"/><path class="cls-6" d="M106.81,189.92c.33.09.65.19,1,.3a11,11,0,0,1-1.11.16,8.29,8.29,0,0,1-1.11,0c0-.09.09-.15.2-.22a1,1,0,0,1,.44-.15Z"/><path class="cls-6" d="M109.72,185a.84.84,0,0,1-.29,1l-.52.37h-1C108.51,185.92,109.13,185.47,109.72,185Z"/><path class="cls-6" d="M106.86,188.64l.06.5a13.85,13.85,0,0,1,2.41.58c0-.23,0-.44,0-.66A17.3,17.3,0,0,0,106.86,188.64Z"/><path class="cls-6" d="M106.93,189.3a2.72,2.72,0,0,1,0,.49l.93.27c.3.1.6.21.9.34a9.85,9.85,0,0,1,1.74.95,1,1,0,0,0-.46-1.1A13.74,13.74,0,0,0,106.93,189.3Z"/><path class="cls-6" d="M105,186.7a.74.74,0,0,0,.77.43,27,27,0,0,1,3.24,0,5.87,5.87,0,0,0-.16-.6c-.64,0-1.29,0-1.93,0S105.61,186.64,105,186.7Z"/><path class="cls-6" d="M106.73,188a4.91,4.91,0,0,1,.1.5,18.87,18.87,0,0,1,2.45.38c0-.22,0-.43-.08-.64A20.64,20.64,0,0,0,106.73,188Z"/><path class="cls-6" d="M106.56,187.28c0,.17.1.34.13.5.82,0,1.65.09,2.47.2l-.06-.31-.07-.3c-.41,0-.82-.06-1.23-.08S107,187.27,106.56,187.28Z"/><path class="cls-6" d="M102.7,194.16l.08-.61a7.18,7.18,0,0,0,1.79.06,4.18,4.18,0,0,0,1.64-.5,2.91,2.91,0,0,0,1.15-1.21,4.27,4.27,0,0,0,.45-1.67l.6.24a4.79,4.79,0,0,1-.57,1.85,3.62,3.62,0,0,1-1.4,1.37,4.91,4.91,0,0,1-1.85.53A7.94,7.94,0,0,1,102.7,194.16Z"/><path class="cls-6" d="M104.17,180.37l.51-.34a31.07,31.07,0,0,1,1.78,3.05,22.4,22.4,0,0,1,1.38,3.27l-.64,0a22.08,22.08,0,0,0-1.32-3.09C105.36,182.28,104.78,181.31,104.17,180.37Z"/><path class="cls-6" d="M94,188.36l-.8.63c.26-.71.52-1.41.79-2.12a.73.73,0,0,1,.26.39.82.82,0,0,1,0,.51Z"/><path class="cls-6" d="M95.58,193.9a.84.84,0,0,1-.41-.91l.14-.62.75-.7C95.88,192.4,95.73,193.15,95.58,193.9Z"/><path class="cls-6" d="M95.12,189.3l-.46-.31q-.94.8-1.92,1.56l.48.34C93.86,190.37,94.5,189.83,95.12,189.3Z"/><path class="cls-6" d="M94.5,188.88l-.46-.31c-1,.8-2,1.59-3.07,2.35a.81.81,0,0,0,1,0C92.82,190.25,93.67,189.57,94.5,188.88Z"/><path class="cls-6" d="M98,189.46a.77.77,0,0,0-.89.18q-1.16,1.14-2.37,2.22l.51.31C96.19,191.29,97.11,190.39,98,189.46Z"/><path class="cls-6" d="M95.75,189.7l-.47-.3c-.62.54-1.25,1.08-1.89,1.6l.49.33C94.51,190.8,95.14,190.25,95.75,189.7Z"/><path class="cls-6" d="M96.38,190.08c-.16-.09-.32-.18-.47-.28-.61.55-1.23,1.1-1.86,1.64l.5.31C95.17,191.21,95.79,190.65,96.38,190.08Z"/><path class="cls-6" d="M93.16,189l-.5.4c-1.16-.85-2.28-1.76-3.36-2.71l.61-.28C91,187.33,92,188.2,93.16,189Z"/><path class="cls-6" d="M102.78,193.55l-.08.61a15.47,15.47,0,0,1-3.43-1,26.68,26.68,0,0,1-3.18-1.55l.46-.45a24.81,24.81,0,0,0,3,1.46A14,14,0,0,0,102.78,193.55Z"/><path class="cls-6" d="M89.94,159.55c.16-.3.34-.59.52-.87,0,.75,0,1.51-.09,2.25a.6.6,0,0,1-.33-.28,1,1,0,0,1-.11-.48Z"/><path class="cls-6" d="M85.4,155.68a1,1,0,0,1,1.19.35c.11.19.21.39.3.58-.08.33-.15.67-.2,1a11.13,11.13,0,0,0-.57-1A7.83,7.83,0,0,0,85.4,155.68Z"/><path class="cls-6" d="M88.64,159.15a4.5,4.5,0,0,1,.51.08,20.73,20.73,0,0,1,1.18-2.17l-.61-.14A19.07,19.07,0,0,0,88.64,159.15Z"/><path class="cls-6" d="M89.32,159.26l.51.12A28.16,28.16,0,0,1,92,156.14a.85.85,0,0,0-1,.32A27.27,27.27,0,0,0,89.32,159.26Z"/><path class="cls-6" d="M86.84,160.52c.13,0,.25-.3.27-.66a11,11,0,0,1,.22-1.59,12.51,12.51,0,0,1,.44-1.56,5,5,0,0,0-.67,0,8.09,8.09,0,0,0-.21,1,7.87,7.87,0,0,0-.12,1A7.37,7.37,0,0,0,86.84,160.52Z"/><path class="cls-6" d="M88,159.09a4,4,0,0,1,.49,0q.23-.57.48-1.14c.17-.38.36-.74.55-1.11a5.93,5.93,0,0,0-.63-.1c-.18.38-.34.76-.49,1.14S88.1,158.7,88,159.09Z"/><path class="cls-6" d="M87.34,159.09c.15,0,.32,0,.47,0a15.35,15.35,0,0,1,.84-2.32c-.21,0-.43,0-.65,0-.15.39-.28.79-.39,1.18A12.24,12.24,0,0,0,87.34,159.09Z"/><path class="cls-6" d="M97.41,161.35l-.34.52a25,25,0,0,0-6.59-3.22l.34-.54A26.07,26.07,0,0,1,97.41,161.35Z"/><path class="cls-6" d="M86.68,157.67c0,.21-.05.42-.07.63a3.68,3.68,0,0,0-1.44.6,3,3,0,0,0-1,1.18,4.2,4.2,0,0,0-.36,1.37l-.6-.17a4.75,4.75,0,0,1,.45-1.55,3.59,3.59,0,0,1,1.24-1.41A4.19,4.19,0,0,1,86.68,157.67Z"/><path class="cls-6" d="M104.34,169.35l.9-.47c-.38.65-.78,1.29-1.18,1.93a.68.68,0,0,1-.17-.43.87.87,0,0,1,.12-.49Z"/><path class="cls-6" d="M104,163.62a.81.81,0,0,1,.18,1l-.27.57-.88.53C103.32,165,103.65,164.31,104,163.62Z"/><path class="cls-6" d="M103.41,168.2l.39.4c.73-.4,1.46-.78,2.19-1.16l-.4-.42C104.85,167.41,104.13,167.8,103.41,168.2Z"/><path class="cls-6" d="M103.94,168.73l.39.41c1.13-.6,2.3-1.18,3.46-1.72a.79.79,0,0,0-1-.17C105.85,167.73,104.89,168.22,103.94,168.73Z"/><path class="cls-6" d="M100.6,167.38a.76.76,0,0,0,.93,0q1.38-.84,2.79-1.65l-.42-.4Q102.22,166.35,100.6,167.38Z"/><path class="cls-6" d="M102.87,167.67l.4.39c.72-.4,1.44-.8,2.18-1.18l-.42-.42C104.3,166.86,103.58,167.26,102.87,167.67Z"/><path class="cls-6" d="M102.33,167.15l.4.39c.72-.42,1.43-.82,2.16-1.22l-.42-.41C103.75,166.32,103,166.73,102.33,167.15Z"/><path class="cls-6" d="M110.39,174.33l-.52.33a43.39,43.39,0,0,0-4.59-5.79l.57-.29A44.32,44.32,0,0,1,110.39,174.33Z"/><path class="cls-6" d="M97.07,161.87l.34-.52A44,44,0,0,1,103,165.7l-.55.33A42.86,42.86,0,0,0,97.07,161.87Z"/><path class="cls-6" d="M112.52,184.21q.49.14,1,.3a10.41,10.41,0,0,1-1.1.16,8.29,8.29,0,0,1-1.11,0c0-.08.09-.15.2-.22a1,1,0,0,1,.44-.15Z"/><path class="cls-6" d="M115.43,179.29a.85.85,0,0,1-.29,1l-.52.36h-1C114.21,180.22,114.83,179.76,115.43,179.29Z"/><path class="cls-6" d="M112.57,182.93l.06.5a14.46,14.46,0,0,1,2.4.58c0-.22,0-.44,0-.66A17.3,17.3,0,0,0,112.57,182.93Z"/><path class="cls-6" d="M112.64,183.6c0,.16,0,.32,0,.48.31.08.62.17.92.27s.61.21.91.34a9.49,9.49,0,0,1,1.73,1,1,1,0,0,0-.46-1.11A13.64,13.64,0,0,0,112.64,183.6Z"/><path class="cls-6" d="M110.68,181a.74.74,0,0,0,.77.42,27,27,0,0,1,3.24,0,5.87,5.87,0,0,0-.16-.6c-.64,0-1.29,0-1.93,0S111.32,180.93,110.68,181Z"/><path class="cls-6" d="M112.44,182.25c0,.17.07.34.1.51a18.84,18.84,0,0,1,2.45.37c0-.21,0-.43-.08-.64A20.64,20.64,0,0,0,112.44,182.25Z"/><path class="cls-6" d="M112.27,181.57a4.77,4.77,0,0,1,.13.51,20.56,20.56,0,0,1,2.47.2l-.06-.32-.07-.3c-.41,0-.82-.06-1.24-.08S112.68,181.56,112.27,181.57Z"/><path class="cls-6" d="M114.11,184.76a5,5,0,0,1-.56,1.85,3.61,3.61,0,0,1-1.4,1.37,5,5,0,0,1-1.77.53c0-.21-.09-.41-.14-.61h0a4,4,0,0,0,1.64-.5,3,3,0,0,0,1.15-1.21,4.27,4.27,0,0,0,.45-1.66Z"/><path class="cls-6" d="M109.87,174.66l.52-.33a34,34,0,0,1,1.78,3,21.31,21.31,0,0,1,1.37,3.27l-.63,0a21,21,0,0,0-1.33-3.09A31.62,31.62,0,0,0,109.87,174.66Z"/><path class="cls-6" d="M95.64,153.84c.17-.29.34-.58.52-.87,0,.75,0,1.51-.08,2.25a.56.56,0,0,1-.33-.28.86.86,0,0,1-.11-.47Z"/><path class="cls-6" d="M91.11,150a1,1,0,0,1,1.19.35c.11.19.2.39.3.58-.08.33-.15.67-.2,1-.17-.33-.36-.67-.57-1S91.37,150.28,91.11,150Z"/><path class="cls-6" d="M94.35,153.44a4,4,0,0,1,.5.08A22.86,22.86,0,0,1,96,151.35l-.61-.14A19.87,19.87,0,0,0,94.35,153.44Z"/><path class="cls-6" d="M95,153.55l.51.12a29,29,0,0,1,2.12-3.24.86.86,0,0,0-1,.32A25.56,25.56,0,0,0,95,153.55Z"/><path class="cls-6" d="M92.55,154.81c.12,0,.25-.29.27-.66a10.69,10.69,0,0,1,.21-1.58,14.08,14.08,0,0,1,.45-1.57,5,5,0,0,0-.67,0c-.09.32-.16.63-.22.95s-.09.64-.12,1A7.86,7.86,0,0,0,92.55,154.81Z"/><path class="cls-6" d="M93.69,153.38a4.22,4.22,0,0,1,.49,0c.15-.38.3-.76.48-1.14s.35-.74.55-1.11l-.63-.1c-.18.38-.34.76-.49,1.14S93.8,153,93.69,153.38Z"/><path class="cls-6" d="M93.05,153.38h.47a15.75,15.75,0,0,1,.84-2.32c-.21,0-.43,0-.65-.05-.15.39-.28.79-.39,1.19A9.75,9.75,0,0,0,93.05,153.38Z"/><path class="cls-6" d="M103.12,155.64l-.34.52a25.18,25.18,0,0,0-6.59-3.22l.34-.54A26.41,26.41,0,0,1,103.12,155.64Z"/><path class="cls-6" d="M92.39,152c0,.21-.06.42-.07.63a3.68,3.68,0,0,0-1.44.6,3,3,0,0,0-1,1.18,4.2,4.2,0,0,0-.36,1.37l-.6-.17A4.75,4.75,0,0,1,89.4,154a3.66,3.66,0,0,1,1.24-1.41A4.33,4.33,0,0,1,92.39,152Z"/><path class="cls-6" d="M110,163.64l.91-.47c-.38.65-.78,1.3-1.18,1.94a.72.72,0,0,1-.18-.44.9.9,0,0,1,.13-.49Z"/><path class="cls-6" d="M109.67,157.91a.82.82,0,0,1,.18,1l-.28.57-.87.52C109,159.29,109.35,158.6,109.67,157.91Z"/><path class="cls-6" d="M109.12,162.49l.39.4c.72-.39,1.46-.78,2.19-1.15-.13-.15-.27-.28-.41-.42C110.56,161.7,109.84,162.09,109.12,162.49Z"/><path class="cls-6" d="M109.65,163c.13.13.26.26.38.4,1.14-.59,2.3-1.18,3.47-1.72a.79.79,0,0,0-1-.17C111.56,162,110.6,162.51,109.65,163Z"/><path class="cls-6" d="M106.31,161.68a.78.78,0,0,0,.93,0c.91-.56,1.85-1.11,2.79-1.65l-.43-.4C108.49,160.31,107.39,161,106.31,161.68Z"/><path class="cls-6" d="M108.58,162l.4.4c.72-.41,1.44-.8,2.17-1.19l-.41-.42C110,161.15,109.29,161.55,108.58,162Z"/><path class="cls-6" d="M108,161.45l.41.38c.71-.41,1.43-.82,2.16-1.22l-.42-.41C109.46,160.61,108.74,161,108,161.45Z"/><path class="cls-6" d="M116.1,168.62l-.52.34a43.39,43.39,0,0,0-4.6-5.8l.58-.29A45.19,45.19,0,0,1,116.1,168.62Z"/><path class="cls-6" d="M102.78,156.16l.34-.52a44.75,44.75,0,0,1,5.54,4.35l-.55.33A43.61,43.61,0,0,0,102.78,156.16Z"/><path class="cls-6" d="M118.23,178.5c.33.09.64.19,1,.3a8.48,8.48,0,0,1-1.11.16,10.17,10.17,0,0,1-1.1,0c0-.09.09-.16.19-.23a1.25,1.25,0,0,1,.45-.15A6,6,0,0,0,118.23,178.5Z"/><path class="cls-6" d="M121.14,173.58a.85.85,0,0,1-.29,1l-.53.36h-1C119.92,174.51,120.54,174.05,121.14,173.58Z"/><path class="cls-6" d="M118.28,177.22l.06.5a14.7,14.7,0,0,1,2.4.58,4.86,4.86,0,0,0,0-.66A18.72,18.72,0,0,0,118.28,177.22Z"/><path class="cls-6" d="M118.35,177.89c0,.16,0,.33,0,.48l.92.27c.3.1.6.22.9.34a10.21,10.21,0,0,1,1.74,1,1,1,0,0,0-.46-1.11A13.64,13.64,0,0,0,118.35,177.89Z"/><path class="cls-6" d="M116.39,175.29a.76.76,0,0,0,.77.43,25,25,0,0,1,3.24,0c0-.2-.11-.4-.16-.6-.64,0-1.29,0-1.94,0S117,175.23,116.39,175.29Z"/><path class="cls-6" d="M118.15,176.54c0,.17.07.34.1.51a19.1,19.1,0,0,1,2.45.37c0-.21,0-.43-.09-.64A23,23,0,0,0,118.15,176.54Z"/><path class="cls-6" d="M118,175.86c0,.17.09.34.13.51a20.39,20.39,0,0,1,2.46.2l0-.31-.07-.31c-.42,0-.83-.06-1.24-.07S118.39,175.86,118,175.86Z"/><path class="cls-6" d="M119.82,179.05a4.69,4.69,0,0,1-.57,1.85,3.48,3.48,0,0,1-1.4,1.37,4.84,4.84,0,0,1-1.76.53c0-.21-.09-.41-.14-.61h0a4.17,4.17,0,0,0,1.64-.49,3,3,0,0,0,1.15-1.21,4.31,4.31,0,0,0,.44-1.67Z"/><path class="cls-6" d="M115.58,169l.52-.34a34,34,0,0,1,1.78,3,21.31,21.31,0,0,1,1.37,3.27l-.64,0a19.43,19.43,0,0,0-1.32-3.08A30.35,30.35,0,0,0,115.58,169Z"/><path class="cls-6" d="M101.35,148.13c.17-.29.34-.58.52-.87,0,.75,0,1.51-.08,2.25a.58.58,0,0,1-.33-.27.83.83,0,0,1-.11-.48Z"/><path class="cls-6" d="M96.82,144.26a1,1,0,0,1,1.19.36c.11.18.2.38.3.57a9.18,9.18,0,0,0-.2,1,11.29,11.29,0,0,0-.57-1C97.32,144.88,97.08,144.57,96.82,144.26Z"/><path class="cls-6" d="M100.06,147.73l.5.08a21.89,21.89,0,0,1,1.19-2.17l-.62-.14A21.68,21.68,0,0,0,100.06,147.73Z"/><path class="cls-6" d="M100.74,147.84l.5.12a30.63,30.63,0,0,1,2.13-3.24.86.86,0,0,0-1,.32A24.05,24.05,0,0,0,100.74,147.84Z"/><path class="cls-6" d="M98.25,149.11c.13-.05.26-.3.28-.67a9.51,9.51,0,0,1,.21-1.58,14.72,14.72,0,0,1,.45-1.57c-.23,0-.45,0-.68,0-.08.32-.15.64-.21.95s-.09.64-.12,1A8,8,0,0,0,98.25,149.11Z"/><path class="cls-6" d="M99.4,147.67a4.22,4.22,0,0,1,.49,0q.21-.57.48-1.14c.17-.37.35-.74.55-1.11q-.32-.06-.63-.09c-.18.38-.34.75-.49,1.14A12.23,12.23,0,0,0,99.4,147.67Z"/><path class="cls-6" d="M98.76,147.68c.15,0,.31,0,.47,0a15.75,15.75,0,0,1,.84-2.32c-.21,0-.44,0-.65-.05-.15.39-.28.79-.39,1.19A9.9,9.9,0,0,0,98.76,147.68Z"/><path class="cls-6" d="M108.83,149.94l-.34.51a25.09,25.09,0,0,0-6.6-3.22l.35-.54A26.26,26.26,0,0,1,108.83,149.94Z"/><path class="cls-6" d="M98.1,146.25c0,.21-.06.42-.07.64a3.6,3.6,0,0,0-1.44.59,3,3,0,0,0-1,1.18,4.2,4.2,0,0,0-.36,1.37l-.6-.17a4.74,4.74,0,0,1,.44-1.55,3.69,3.69,0,0,1,1.25-1.41A4.48,4.48,0,0,1,98.1,146.25Z"/><path class="cls-6" d="M115.75,157.93l.91-.46c-.39.64-.78,1.29-1.18,1.93a.72.72,0,0,1-.18-.44.82.82,0,0,1,.13-.49Z"/><path class="cls-6" d="M115.38,152.2a.82.82,0,0,1,.18,1l-.28.57-.87.52C114.74,153.58,115.06,152.9,115.38,152.2Z"/><path class="cls-6" d="M114.83,156.78l.39.4c.72-.39,1.46-.78,2.19-1.15-.13-.15-.27-.28-.41-.42C116.27,156,115.55,156.38,114.83,156.78Z"/><path class="cls-6" d="M115.35,157.32c.13.13.27.26.39.4,1.14-.59,2.3-1.17,3.47-1.72a.82.82,0,0,0-1-.17C117.27,156.31,116.31,156.8,115.35,157.32Z"/><path class="cls-6" d="M112,156a.76.76,0,0,0,.92,0c.92-.57,1.85-1.12,2.8-1.66l-.43-.4C114.2,154.6,113.09,155.28,112,156Z"/><path class="cls-6" d="M114.29,156.26l.4.39c.72-.41,1.44-.8,2.17-1.19l-.41-.41C115.72,155.44,115,155.85,114.29,156.26Z"/><path class="cls-6" d="M113.74,155.74l.41.38c.71-.41,1.43-.82,2.15-1.21l-.42-.42C115.16,154.9,114.45,155.32,113.74,155.74Z"/><path class="cls-6" d="M121.8,162.91l-.51.34a44.21,44.21,0,0,0-4.6-5.8l.57-.29A44.82,44.82,0,0,1,121.8,162.91Z"/><path class="cls-6" d="M108.49,150.45l.34-.51a43.65,43.65,0,0,1,5.53,4.34l-.54.33A43.61,43.61,0,0,0,108.49,150.45Z"/><path class="cls-6" d="M123.94,172.8a8.2,8.2,0,0,1,1,.3c-.37.07-.74.12-1.11.16a10.28,10.28,0,0,1-1.11,0c0-.09.1-.15.2-.23a1.25,1.25,0,0,1,.45-.15C123.53,172.88,123.74,172.84,123.94,172.8Z"/><path class="cls-6" d="M126.85,167.87a.86.86,0,0,1-.3,1l-.52.36h-1C125.63,168.8,126.25,168.34,126.85,167.87Z"/><path class="cls-6" d="M124,171.51l.06.5a14.74,14.74,0,0,1,2.4.59c0-.23,0-.44,0-.66A17.2,17.2,0,0,0,124,171.51Z"/><path class="cls-6" d="M124.06,172.18a4,4,0,0,1,0,.49c.31.07.62.16.93.26s.6.22.9.35a9.51,9.51,0,0,1,1.74.95,1,1,0,0,0-.46-1.11A13.64,13.64,0,0,0,124.06,172.18Z"/><path class="cls-6" d="M122.1,169.58a.74.74,0,0,0,.77.43,27,27,0,0,1,3.24,0c0-.2-.11-.4-.16-.6-.65,0-1.3,0-1.94,0S122.74,169.52,122.1,169.58Z"/><path class="cls-6" d="M123.86,170.84c0,.16.06.33.1.5a18.69,18.69,0,0,1,2.44.37c0-.21,0-.43-.08-.63A20.68,20.68,0,0,0,123.86,170.84Z"/><path class="cls-6" d="M123.68,170.15c0,.17.1.34.14.51a20.39,20.39,0,0,1,2.46.2l0-.31-.07-.31c-.42,0-.83-.06-1.24-.07S124.09,170.15,123.68,170.15Z"/><path class="cls-6" d="M125.53,173.34a4.69,4.69,0,0,1-.57,1.85,3.48,3.48,0,0,1-1.4,1.37,4.65,4.65,0,0,1-1.77.53c0-.21-.08-.4-.13-.6h0a4,4,0,0,0,1.65-.49,3.11,3.11,0,0,0,1.15-1.21,4.31,4.31,0,0,0,.44-1.67Z"/><path class="cls-6" d="M121.29,163.25l.51-.34a32,32,0,0,1,1.79,3.05,20.79,20.79,0,0,1,1.37,3.26l-.64,0a22,22,0,0,0-1.32-3.08A32.59,32.59,0,0,0,121.29,163.25Z"/><path class="cls-6" d="M107.06,142.42c.17-.29.34-.58.52-.87,0,.75,0,1.51-.09,2.26a.62.62,0,0,1-.32-.28.92.92,0,0,1-.12-.48Z"/><path class="cls-6" d="M102.53,138.56a1,1,0,0,1,1.19.35c.1.18.2.38.29.58-.08.33-.15.67-.2,1a7.85,7.85,0,0,0-.57-1A8.81,8.81,0,0,0,102.53,138.56Z"/><path class="cls-6" d="M105.77,142l.5.08c.35-.74.75-1.45,1.18-2.17l-.61-.14A20.66,20.66,0,0,0,105.77,142Z"/><path class="cls-6" d="M106.44,142.14l.51.11a27.8,27.8,0,0,1,2.13-3.24.86.86,0,0,0-1,.32A24.87,24.87,0,0,0,106.44,142.14Z"/><path class="cls-6" d="M104,143.4c.13-.05.25-.3.27-.67a10.91,10.91,0,0,1,.22-1.58,11.57,11.57,0,0,1,.45-1.57c-.23,0-.45,0-.68,0-.08.32-.15.64-.21,1a8.12,8.12,0,0,0-.12,1A7.94,7.94,0,0,0,104,143.4Z"/><path class="cls-6" d="M105.1,142l.5,0c.14-.38.3-.76.47-1.14s.36-.74.56-1.1c-.21,0-.42-.08-.63-.1-.18.38-.35.75-.5,1.14S105.22,141.57,105.1,142Z"/><path class="cls-6" d="M104.46,142a3.81,3.81,0,0,1,.48,0,14.44,14.44,0,0,1,.84-2.33l-.66,0c-.14.38-.28.79-.39,1.18A12.24,12.24,0,0,0,104.46,142Z"/><path class="cls-6" d="M114.54,144.23l-.34.51a25.24,25.24,0,0,0-6.6-3.22L108,141A26.43,26.43,0,0,1,114.54,144.23Z"/><path class="cls-6" d="M103.8,140.54c0,.22,0,.43-.06.64a3.54,3.54,0,0,0-1.44.59,3,3,0,0,0-1,1.18,4.26,4.26,0,0,0-.35,1.37l-.6-.17a4.68,4.68,0,0,1,.44-1.54,3.64,3.64,0,0,1,1.25-1.42A4.49,4.49,0,0,1,103.8,140.54Z"/><path class="cls-6" d="M121.46,152.22l.91-.46c-.39.65-.78,1.29-1.19,1.93a.75.75,0,0,1-.17-.44.82.82,0,0,1,.13-.49Z"/><path class="cls-6" d="M121.09,146.5a.82.82,0,0,1,.18,1L121,148l-.88.52C120.44,147.87,120.77,147.19,121.09,146.5Z"/><path class="cls-6" d="M120.53,151.07l.4.4c.72-.39,1.45-.78,2.19-1.15l-.41-.42C122,150.28,121.25,150.67,120.53,151.07Z"/><path class="cls-6" d="M121.06,151.61l.39.4c1.14-.59,2.3-1.17,3.47-1.72a.82.82,0,0,0-1-.17C123,150.6,122,151.1,121.06,151.61Z"/><path class="cls-6" d="M117.72,150.26a.78.78,0,0,0,.93,0c.92-.56,1.85-1.12,2.8-1.65l-.43-.41C119.91,148.89,118.8,149.57,117.72,150.26Z"/><path class="cls-6" d="M120,150.55l.4.39c.72-.41,1.44-.8,2.17-1.18-.14-.14-.27-.29-.41-.42C121.43,149.73,120.71,150.14,120,150.55Z"/><path class="cls-6" d="M119.45,150l.41.38c.71-.41,1.43-.81,2.15-1.21l-.42-.41C120.87,149.19,120.16,149.61,119.45,150Z"/><path class="cls-6" d="M127.51,157.2l-.51.34a45.06,45.06,0,0,0-4.6-5.8l.57-.28A44.91,44.91,0,0,1,127.51,157.2Z"/><path class="cls-6" d="M114.2,144.74l.34-.51a44.57,44.57,0,0,1,5.53,4.34l-.54.34A42.73,42.73,0,0,0,114.2,144.74Z"/><path class="cls-6" d="M129.65,167.09c.32.09.64.18,1,.3a10.6,10.6,0,0,1-1.11.16,8.23,8.23,0,0,1-1.11,0c0-.09.1-.15.2-.23a1.2,1.2,0,0,1,.44-.14Z"/><path class="cls-6" d="M132.55,162.16a.85.85,0,0,1-.29,1l-.52.37c-.34,0-.69,0-1,0C131.34,163.09,132,162.64,132.55,162.16Z"/><path class="cls-6" d="M129.69,165.81l.07.49a15,15,0,0,1,2.4.59c0-.23,0-.44,0-.66A17.06,17.06,0,0,0,129.69,165.81Z"/><path class="cls-6" d="M129.77,166.47a4,4,0,0,1,0,.49,8.14,8.14,0,0,1,.93.27c.3.1.6.21.9.34a9.85,9.85,0,0,1,1.74,1,1,1,0,0,0-.46-1.1A13.33,13.33,0,0,0,129.77,166.47Z"/><path class="cls-6" d="M127.8,163.87a.74.74,0,0,0,.77.43,29.38,29.38,0,0,1,3.25,0c0-.2-.11-.39-.16-.6-.65,0-1.3,0-1.94,0S128.44,163.81,127.8,163.87Z"/><path class="cls-6" d="M129.56,165.13a4.42,4.42,0,0,1,.1.5,17.08,17.08,0,0,1,2.45.38c0-.22-.05-.43-.08-.64A20.64,20.64,0,0,0,129.56,165.13Z"/><path class="cls-6" d="M129.39,164.45a4.07,4.07,0,0,1,.13.5c.82,0,1.65.09,2.47.2l-.06-.31-.06-.3c-.42,0-.83-.07-1.24-.08S129.8,164.44,129.39,164.45Z"/><path class="cls-6" d="M131.24,167.64a4.7,4.7,0,0,1-.57,1.84,3.48,3.48,0,0,1-1.4,1.37,4.48,4.48,0,0,1-1.77.53c0-.2-.09-.4-.13-.6h0a4.18,4.18,0,0,0,1.64-.5,2.91,2.91,0,0,0,1.15-1.21,4.27,4.27,0,0,0,.45-1.67Z"/><path class="cls-6" d="M127,157.54l.51-.34a33.31,33.31,0,0,1,1.79,3.05,21.91,21.91,0,0,1,1.37,3.27l-.64,0a22.08,22.08,0,0,0-1.32-3.09A32.59,32.59,0,0,0,127,157.54Z"/><path class="cls-6" d="M112.77,136.71c.16-.29.34-.58.52-.87,0,.75,0,1.51-.09,2.26a.59.59,0,0,1-.32-.28.9.9,0,0,1-.12-.48Z"/><path class="cls-6" d="M108.24,132.85a1,1,0,0,1,1.18.35,6.36,6.36,0,0,1,.3.58c-.08.33-.15.67-.2,1a9.9,9.9,0,0,0-.57-1A8.91,8.91,0,0,0,108.24,132.85Z"/><path class="cls-6" d="M111.48,136.32a4.71,4.71,0,0,1,.5.08,24.22,24.22,0,0,1,1.18-2.18l-.61-.13A17.53,17.53,0,0,0,111.48,136.32Z"/><path class="cls-6" d="M112.15,136.43l.51.11a30,30,0,0,1,2.12-3.24.85.85,0,0,0-1,.32A25.78,25.78,0,0,0,112.15,136.43Z"/><path class="cls-6" d="M109.67,137.69c.13,0,.25-.3.27-.66a10.85,10.85,0,0,1,.22-1.59,13.16,13.16,0,0,1,.44-1.57c-.22,0-.44,0-.67,0a7.66,7.66,0,0,0-.21.95,7.87,7.87,0,0,0-.12,1A7.37,7.37,0,0,0,109.67,137.69Z"/><path class="cls-6" d="M110.81,136.26c.17,0,.33,0,.49,0,.15-.38.31-.76.48-1.13s.36-.74.56-1.11c-.21,0-.42-.08-.64-.1-.17.38-.34.75-.49,1.14S110.93,135.87,110.81,136.26Z"/><path class="cls-6" d="M110.17,136.26a3.69,3.69,0,0,1,.47,0,17.11,17.11,0,0,1,.84-2.33l-.65,0c-.14.38-.28.79-.39,1.18A12.24,12.24,0,0,0,110.17,136.26Z"/><path class="cls-6" d="M120.24,138.52l-.33.51a25.21,25.21,0,0,0-6.6-3.21l.34-.55A26.1,26.1,0,0,1,120.24,138.52Z"/><path class="cls-6" d="M109.51,134.84c0,.21-.05.42-.07.63a3.54,3.54,0,0,0-1.44.6,3,3,0,0,0-1,1.18,4.41,4.41,0,0,0-.36,1.36l-.6-.16a5,5,0,0,1,.45-1.55,3.64,3.64,0,0,1,1.25-1.42A4.27,4.27,0,0,1,109.51,134.84Z"/><path class="cls-6" d="M127.17,146.51l.9-.46c-.38.65-.77,1.29-1.18,1.93a.68.68,0,0,1-.17-.43.85.85,0,0,1,.12-.49Z"/><path class="cls-6" d="M126.8,140.79a.82.82,0,0,1,.18,1l-.28.57-.88.52C126.15,142.17,126.48,141.48,126.8,140.79Z"/><path class="cls-6" d="M126.24,145.37l.39.4c.73-.4,1.46-.78,2.2-1.16l-.41-.42C127.68,144.58,127,145,126.24,145.37Z"/><path class="cls-6" d="M126.77,145.9l.39.41c1.14-.6,2.3-1.18,3.47-1.73a.82.82,0,0,0-1-.17C128.68,144.89,127.72,145.39,126.77,145.9Z"/><path class="cls-6" d="M123.43,144.55a.78.78,0,0,0,.93,0q1.38-.84,2.79-1.65l-.42-.4C125.61,143.18,124.51,143.86,123.43,144.55Z"/><path class="cls-6" d="M125.7,144.84l.4.39c.72-.4,1.45-.8,2.18-1.18l-.42-.42Z"/><path class="cls-6" d="M125.16,144.32l.41.39c.71-.42,1.42-.82,2.15-1.22l-.42-.41C126.58,143.48,125.86,143.9,125.16,144.32Z"/><path class="cls-6" d="M133.22,151.5l-.51.33a44.29,44.29,0,0,0-4.6-5.79l.57-.29A44.32,44.32,0,0,1,133.22,151.5Z"/><path class="cls-6" d="M119.91,139l.33-.51a43.94,43.94,0,0,1,5.54,4.34l-.55.34A42.84,42.84,0,0,0,119.91,139Z"/><path class="cls-6" d="M135.35,161.38c.33.09.65.19,1,.3a11,11,0,0,1-1.11.16,8.29,8.29,0,0,1-1.11,0c0-.09.09-.15.2-.22a1,1,0,0,1,.44-.15Z"/><path class="cls-6" d="M138.26,156.46a.85.85,0,0,1-.29,1l-.52.36h-1C137.05,157.38,137.67,156.93,138.26,156.46Z"/><path class="cls-6" d="M135.4,160.1l.06.5a13.53,13.53,0,0,1,2.4.58c0-.23,0-.44,0-.66A17.3,17.3,0,0,0,135.4,160.1Z"/><path class="cls-6" d="M135.47,160.77a3.85,3.85,0,0,1,0,.48c.31.08.62.17.92.27s.61.21.91.34a10.55,10.55,0,0,1,1.74.95,1,1,0,0,0-.46-1.1A13.23,13.23,0,0,0,135.47,160.77Z"/><path class="cls-6" d="M133.51,158.16a.74.74,0,0,0,.77.43,27,27,0,0,1,3.24,0,5.87,5.87,0,0,0-.16-.6c-.64,0-1.29,0-1.93,0S134.15,158.1,133.51,158.16Z"/><path class="cls-6" d="M135.27,159.42a4.91,4.91,0,0,1,.1.5,18.87,18.87,0,0,1,2.45.38c0-.22,0-.43-.08-.64A20.64,20.64,0,0,0,135.27,159.42Z"/><path class="cls-6" d="M135.1,158.74c.05.17.1.34.13.5.82,0,1.65.09,2.47.2l-.06-.31-.07-.3c-.41,0-.82-.06-1.23-.08S135.51,158.73,135.1,158.74Z"/><path class="cls-6" d="M136.94,161.93a4.61,4.61,0,0,1-.56,1.85,3.62,3.62,0,0,1-1.4,1.37,4.69,4.69,0,0,1-1.77.52c0-.2-.09-.4-.14-.6h0a4.18,4.18,0,0,0,1.64-.5,2.91,2.91,0,0,0,1.15-1.21,4.27,4.27,0,0,0,.45-1.67C136.55,161.77,136.75,161.84,136.94,161.93Z"/><path class="cls-6" d="M132.71,151.83l.51-.33a31.77,31.77,0,0,1,1.78,3,22.4,22.4,0,0,1,1.38,3.27l-.64,0a22.08,22.08,0,0,0-1.32-3.09C133.9,153.74,133.32,152.77,132.71,151.83Z"/><path class="cls-6" d="M118.48,131c.16-.29.34-.58.52-.87,0,.75,0,1.51-.09,2.25a.6.6,0,0,1-.33-.28,1,1,0,0,1-.11-.47Z"/><path class="cls-6" d="M113.94,127.14a1,1,0,0,1,1.19.35c.11.19.21.39.3.58-.08.33-.15.67-.2,1a11.13,11.13,0,0,0-.57-1A8.71,8.71,0,0,0,113.94,127.14Z"/><path class="cls-6" d="M117.18,130.61a4.5,4.5,0,0,1,.51.08,20.73,20.73,0,0,1,1.18-2.17l-.61-.14A19.07,19.07,0,0,0,117.18,130.61Z"/><path class="cls-6" d="M117.86,130.72l.51.12a28.16,28.16,0,0,1,2.12-3.24.85.85,0,0,0-1,.32A25.56,25.56,0,0,0,117.86,130.72Z"/><path class="cls-6" d="M115.38,132c.13,0,.25-.3.27-.66a9.8,9.8,0,0,1,.22-1.59,12.51,12.51,0,0,1,.44-1.56,5,5,0,0,0-.67,0,8.09,8.09,0,0,0-.21.95c-.06.32-.1.64-.13,1A7.86,7.86,0,0,0,115.38,132Z"/><path class="cls-6" d="M116.52,130.55a4.22,4.22,0,0,1,.49,0q.22-.57.48-1.14c.17-.38.36-.74.55-1.11l-.63-.1c-.18.38-.34.76-.49,1.14S116.64,130.16,116.52,130.55Z"/><path class="cls-6" d="M115.88,130.55c.15,0,.32,0,.47,0a15.75,15.75,0,0,1,.84-2.32c-.21,0-.43,0-.65-.05-.15.39-.28.79-.39,1.18A12.24,12.24,0,0,0,115.88,130.55Z"/><path class="cls-6" d="M126,132.81l-.34.52a25,25,0,0,0-6.59-3.22l.34-.54A26.07,26.07,0,0,1,126,132.81Z"/><path class="cls-6" d="M115.22,129.13c0,.21,0,.42-.07.63a3.68,3.68,0,0,0-1.44.6,3,3,0,0,0-1,1.18,4.2,4.2,0,0,0-.36,1.37l-.6-.17a4.75,4.75,0,0,1,.45-1.55,3.66,3.66,0,0,1,1.24-1.41A4.19,4.19,0,0,1,115.22,129.13Z"/><path class="cls-6" d="M132.88,140.81l.9-.47c-.38.65-.78,1.29-1.18,1.93a.69.69,0,0,1-.18-.43,1,1,0,0,1,.13-.49Z"/><path class="cls-6" d="M132.5,135.08a.81.81,0,0,1,.18,1l-.27.58-.88.52C131.86,136.46,132.19,135.77,132.5,135.08Z"/><path class="cls-6" d="M132,139.66l.39.4,2.19-1.16-.4-.42C133.39,138.87,132.67,139.26,132,139.66Z"/><path class="cls-6" d="M132.48,140.19l.39.41c1.13-.6,2.3-1.18,3.46-1.72a.79.79,0,0,0-1-.17C134.39,139.19,133.43,139.68,132.48,140.19Z"/><path class="cls-6" d="M129.14,138.85a.78.78,0,0,0,.93,0q1.38-.84,2.79-1.65l-.43-.4C131.32,137.48,130.22,138.15,129.14,138.85Z"/><path class="cls-6" d="M131.41,139.13l.4.39c.72-.4,1.44-.8,2.17-1.18l-.41-.42C132.84,138.32,132.12,138.72,131.41,139.13Z"/><path class="cls-6" d="M130.87,138.61l.4.39c.71-.42,1.43-.82,2.16-1.22l-.42-.41C132.29,137.78,131.57,138.19,130.87,138.61Z"/><path class="cls-6" d="M138.93,145.79l-.52.33a43.39,43.39,0,0,0-4.59-5.79l.57-.29A44.32,44.32,0,0,1,138.93,145.79Z"/><path class="cls-6" d="M125.61,133.33l.34-.52a44.75,44.75,0,0,1,5.54,4.35l-.55.33A42.86,42.86,0,0,0,125.61,133.33Z"/><path class="cls-6" d="M141.06,155.67q.49.14,1,.3a10.8,10.8,0,0,1-1.1.16,10.42,10.42,0,0,1-1.11,0c0-.09.09-.16.2-.23a1.13,1.13,0,0,1,.44-.15Z"/><path class="cls-6" d="M144,150.75a.85.85,0,0,1-.29,1l-.53.36h-1C142.75,151.68,143.37,151.22,144,150.75Z"/><path class="cls-6" d="M141.11,154.39l.06.5a14.46,14.46,0,0,1,2.4.58c0-.22,0-.44,0-.66A17.3,17.3,0,0,0,141.11,154.39Z"/><path class="cls-6" d="M141.18,155.06c0,.16,0,.32,0,.48.31.08.61.17.92.27s.61.21.9.34a9.57,9.57,0,0,1,1.74,1,1,1,0,0,0-.46-1.11A13.64,13.64,0,0,0,141.18,155.06Z"/><path class="cls-6" d="M139.22,152.46a.74.74,0,0,0,.77.42,27,27,0,0,1,3.24,0,5.87,5.87,0,0,0-.16-.6c-.64,0-1.29,0-1.93,0S139.86,152.39,139.22,152.46Z"/><path class="cls-6" d="M141,153.71c0,.17.07.34.1.51a18.84,18.84,0,0,1,2.45.37c0-.21-.05-.43-.09-.64A20.48,20.48,0,0,0,141,153.71Z"/><path class="cls-6" d="M140.81,153c0,.17.09.34.13.51a20.56,20.56,0,0,1,2.47.2l-.06-.32-.07-.3c-.41,0-.83-.06-1.24-.08Z"/><path class="cls-6" d="M142.65,156.22a4.9,4.9,0,0,1-.56,1.85,3.64,3.64,0,0,1-1.41,1.37,4.84,4.84,0,0,1-1.76.53c0-.21-.09-.41-.14-.61h0a4,4,0,0,0,1.64-.5,3,3,0,0,0,1.15-1.21,4.27,4.27,0,0,0,.45-1.66Z"/><path class="cls-6" d="M138.41,146.12l.52-.33a34,34,0,0,1,1.78,3,21.31,21.31,0,0,1,1.37,3.27l-.64,0a19.94,19.94,0,0,0-1.32-3.09A33,33,0,0,0,138.41,146.12Z"/><path class="cls-6" d="M119.13,108.13C98.39,101.79,91,98.62,112,99.94c11.61.73,16.06-6.32-13.45-19.76-22.46-10.23-29,1.51-26.37,23.46,2.55,21.65,27.57,5.74,14.53-.91h0c-.22-.13-6.77-2.88-7.45-8.71-1.11-9.44,5.2-3.08,8-5.72,4.71-4.42-.31-9.07,6.16-6.42,16.26,6.89,18,12-3.8,10.31-15.08-1.19-2.52,13.92,21.31,19,.56.12,1,.23,1.45.34-15.92-.11-36.39,3.38-37.44,9.14h0c-.94,3.26,5.54,6.53,15.76,5.43C119.07,123,139.06,114.22,119.13,108.13Z"/><path class="cls-6" d="M159,153.94a31.23,31.23,0,0,0-10,8.72,58.23,58.23,0,0,0-7.44,12.64,57.23,57.23,0,0,0-4,13.07c-.56,3.2-.93,6.94.12,10.06.88,2.6,2.81,3.8,5.06,3.58,5.1-.51,7.73-5.58,9.51-12.22,1.12,3.23,5.83,6.67,15,9.78,18.51,6.29,31,.29,27.14-9.49s-42,4.81-11.62-6.38l.39-.16h0c7.49-2.81,8.56-7.14,5.8-9.82-2.34-2.25-5.44-2.25-8.26-2.52a1.84,1.84,0,0,1-.86-.23.44.44,0,0,1-.15-.18c-.08-.21.08-.42.23-.55,1.73-1.57,4.52-2.74,5-5.64s-2.33-5.21-4-6.61a26.3,26.3,0,0,0-8.52-5,17.4,17.4,0,0,0-4.45-.89A17,17,0,0,0,159,153.94Zm.41,27.15a22.13,22.13,0,0,0-3.65,1.81,13.67,13.67,0,0,0-1.39,1c-.33.27-.89,1-1,.35a7.71,7.71,0,0,1,.35-1.86c.24-1.23.47-2.47.71-3.7.52-2.75,1-5.5,1.65-8.23,1-4.66,2.44-9.94,5.65-13.06,3.58-3.47,9.87-2.73,13.46.34a6,6,0,0,1,2.37,5c-.25,2.65-2.53,4.33-4.3,5.34a32,32,0,0,0-5.08,3.45c-1,.89-3.51,3-2.13,4.81.72.94,2.32,1.19,3.33,1.34a10.53,10.53,0,0,0,3.75.11c-1.1.28-2.21.52-3.32.74A60.55,60.55,0,0,0,159.41,181.09Z"/></g></g></svg>