<svg xmlns="http://www.w3.org/2000/svg" viewBox="0 0 265.11 274.01"><defs><style>.cls-1{fill:#2c2c30;}.cls-2{fill:#097f00;}.cls-3{fill:#9bf424;}.cls-4{font-size:12px;font-family:MS-UIGothic, MS UI Gothic;}.cls-4,.cls-5,.cls-6,.cls-7{fill:#fff;}.cls-6{font-size:3.57px;}.cls-6,.cls-7{font-family:KozGoPr6N-Regular-90ms-RKSJ-H, Kozuka Gothic Pr6N;}.cls-7{font-size:4.9px;}</style></defs><g id="Layer_2" data-name="Layer 2"><g id="Layer_2-2" data-name="Layer 2"><polygon class="cls-1" points="8.13 10.32 8.13 84.83 22.62 99.31 22.62 183.7 30.48 191.56 30.48 225.6 15.64 225.6 15.64 249.47 8.13 249.47 8.13 264.85 262.65 264.85 262.65 91.36 181.62 10.32 8.13 10.32"/><polygon class="cls-1" points="193.14 10.32 262.65 79.84 262.65 10.32 193.14 10.32"/><path class="cls-2" d="M253.3,99.1,174.93,20.72l-.41-.17H27.86l-.41.17-.17.41V32.77l.17.42.41.17H156.58a2.59,2.59,0,0,0,2.51,2,2.63,2.63,0,1,0,0-5.25,2.59,2.59,0,0,0-2.51,2H28.44V21.72H174.28l78,78V251.21H113.41l-.41.17L93.58,270.81H19.41a2.59,2.59,0,0,0-2.51-2.05,2.63,2.63,0,0,0,0,5.25,2.58,2.58,0,0,0,2.51-2H93.82l.41-.17,19.42-19.42H252.89l.41-.17.17-.42V99.51Z"/><rect class="cls-2" x="5.74" y="32.77" width="4.27" height="27.94"/><rect class="cls-2" x="19.32" y="129.77" width="4.66" height="26.38"/><circle class="cls-3" cx="158.66" cy="242.19" r="3.35"/><circle class="cls-3" cx="175.25" cy="242.19" r="3.35"/><circle class="cls-3" cx="191.83" cy="242.19" r="3.35"/><circle class="cls-3" cx="208.42" cy="242.19" r="3.35"/><circle class="cls-3" cx="225.01" cy="242.19" r="3.35"/><circle class="cls-3" cx="241.59" cy="242.19" r="3.35"/><polygon class="cls-3" points="264.53 161.2 264.53 160.62 260.46 160.62 260.46 110.95 263.95 110.95 263.95 161.2 264.53 161.2 264.53 160.62 264.53 161.2 265.11 161.2 265.11 109.79 259.29 109.79 259.29 161.78 265.11 161.78 265.11 161.2 264.53 161.2"/><polygon class="cls-3" points="53.85 250.44 53.85 249.85 50.56 249.85 50.56 247.14 53.27 247.14 53.27 250.44 53.85 250.44 53.85 249.85 53.85 250.44 54.44 250.44 54.44 245.97 49.39 245.97 49.39 251.02 54.44 251.02 54.44 250.44 53.85 250.44"/><polygon class="cls-3" points="49.2 189.91 49.2 189.33 41.24 189.33 41.24 181.96 48.62 181.96 48.62 189.91 49.2 189.91 49.2 189.33 49.2 189.91 49.78 189.91 49.78 180.79 40.08 180.79 40.08 190.49 49.78 190.49 49.78 189.91 49.2 189.91"/><polygon class="cls-3" points="30.57 81.66 30.57 81.08 23.01 81.08 23.01 74.09 29.99 74.09 29.99 81.66 30.57 81.66 30.57 81.08 30.57 81.66 31.16 81.66 31.16 72.93 21.84 72.93 21.84 82.24 31.16 82.24 31.16 81.66 30.57 81.66"/><polygon class="cls-3" points="247.07 28.51 247.07 27.93 239.12 27.93 239.12 20.55 246.49 20.55 246.49 28.51 247.07 28.51 247.07 27.93 247.07 28.51 247.66 28.51 247.66 19.39 237.96 19.39 237.96 29.09 247.66 29.09 247.66 28.51 247.07 28.51"/><path class="cls-2" d="M55,49.46h-.58a4.85,4.85,0,1,1-4.85-4.85,4.87,4.87,0,0,1,4.85,4.85H55.6a6,6,0,1,0-6,6,6,6,0,0,0,6-6Z"/><path class="cls-2" d="M242.81,186.61h-.59a4.66,4.66,0,1,1-4.65-4.65,4.66,4.66,0,0,1,4.65,4.65h1.17a5.82,5.82,0,1,0-5.82,5.82,5.83,5.83,0,0,0,5.82-5.82Z"/><path class="cls-2" d="M263.37,55.67h-.58a2.91,2.91,0,1,1-2.91-2.91,2.93,2.93,0,0,1,2.91,2.91H264a4.08,4.08,0,1,0-4.07,4.07A4.07,4.07,0,0,0,264,55.67Z"/><path class="cls-2" d="M14.28,224.25H13.7A2.72,2.72,0,1,1,11,221.53a2.72,2.72,0,0,1,2.72,2.72h1.16A3.88,3.88,0,1,0,11,228.13a3.88,3.88,0,0,0,3.88-3.88Z"/><polygon class="cls-2" points="263.06 261.84 257.16 261.84 257.16 255.94 253.82 255.94 253.82 261.84 247.93 261.84 247.93 265.18 253.82 265.18 253.82 271.08 257.16 271.08 257.16 265.18 263.06 265.18 263.06 261.84"/><polygon class="cls-2" points="15.13 8.53 9.23 8.53 9.23 2.63 5.9 2.63 5.9 8.53 0 8.53 0 11.86 5.9 11.86 5.9 17.76 9.23 17.76 9.23 11.86 15.13 11.86 15.13 8.53"/><rect class="cls-2" x="229.81" y="105.72" width="11.06" height="50.05"/><rect class="cls-3" x="222.82" y="140.64" width="11.06" height="15.13"/><rect class="cls-3" x="33.68" y="72.93" width="53.15" height="9.31"/><path class="cls-3" d="M90,0h8.38l-15,15H75Zm33.66,0h-8.38l-15,15h8.38ZM111,0H102.6l-15,15H96Zm63.19,0h-8.38l-15,15h8.38ZM136.25,0h-8.37l-15,15h8.38Zm25.28,0h-8.38l-15,15h8.38ZM148.89,0h-8.38l-15,15h8.37Z"/><text class="cls-4" transform="translate(204.4 207.47)">技術<tspan x="0" y="14.4">背景</tspan></text><path class="cls-5" d="M94,128.51v15.88h15.85V128.51ZM96.41,131h8.9l-6.9,8.52-2,2.46Zm3.58,11,2-2.46,5.37-6.63v9.09Z"/><polygon class="cls-5" points="89.47 137.27 81.62 137.27 81.64 137.24 85.41 132.6 81.84 132.6 78.53 136.68 78.53 128.54 76.07 128.54 76.07 137.27 76.07 139.73 78.53 139.73 89.47 139.73 89.47 144.39 91.92 144.39 91.92 139.73 91.92 137.27 91.92 128.54 89.47 128.54 89.47 137.27"/><polygon class="cls-5" points="125.25 137.27 117.41 137.27 117.43 137.24 121.2 132.6 117.62 132.6 114.31 136.68 114.31 128.54 111.86 128.54 111.86 137.27 111.86 139.73 114.31 139.73 125.25 139.73 125.25 144.39 127.71 144.39 127.71 139.73 127.71 137.27 127.71 128.54 125.25 128.54 125.25 137.27"/><path class="cls-5" d="M96.51,147.37H94.05v11.2H95.6l-3.76,4.63h3.57l3.76-4.63h8.26v4.63h2.45V147.37H96.51Zm10.92,8.75H96.51v-6.29h10.92Z"/><path class="cls-5" d="M111.9,163.2h14.6a1.21,1.21,0,0,0,1.21-1.21v-13.4a1.21,1.21,0,0,0-1.21-1.21H111.9v13.1l-2.21,2.72Zm13.36-13.36v10.91h-10l1.77-2.18,2-2.45h-3.57l-1.09,1.34v-7.62Z"/><polygon class="cls-5" points="76.07 147.37 76.07 158.57 78.52 158.57 86.32 158.57 84.55 160.75 76.07 160.75 76.07 163.2 85.93 163.2 85.93 163.19 86.14 163.19 89.89 158.57 91.9 158.57 91.9 156.12 91.89 156.12 91.9 156.11 78.52 156.12 78.52 149.83 91.9 149.83 91.9 147.37 78.52 147.37 76.07 147.37"/><path class="cls-5" d="M66.37,104.67v98.77h123V104.67Zm121,9.22H114l5.25-7.16h68.12Zm-94.17-1.1a3.06,3.06,0,1,1-3.06-3.06A3.06,3.06,0,0,1,93.17,112.79Zm-7.81,0a3.06,3.06,0,1,1-3.06-3.06A3.06,3.06,0,0,1,85.36,112.79Zm-7.8,0a3.06,3.06,0,1,1-3.06-3.06A3.06,3.06,0,0,1,77.56,112.79Zm-9.14,88.6V119.88h41.15l3.24-4.41h74.53v85.92Z"/><path class="cls-5" d="M188.27,213.92H184a4.37,4.37,0,0,0-4.18-3.17H176a4.37,4.37,0,0,0-4.18,3.17h-.33a4.37,4.37,0,0,0-4.18-3.17h-3.84a4.37,4.37,0,0,0-4.18,3.17h-.34a4.37,4.37,0,0,0-4.18-3.17h-3.83a4.37,4.37,0,0,0-4.19,3.17h-.33a4.37,4.37,0,0,0-4.18-3.17h-3.84a4.37,4.37,0,0,0-4.18,3.17h-.31a4.37,4.37,0,0,0-4.18-3.17h-3.84a4.37,4.37,0,0,0-4.18,3.17h-.33a4.37,4.37,0,0,0-4.18-3.17h-3.84a4.37,4.37,0,0,0-4.18,3.17h-.34a4.37,4.37,0,0,0-4.18-3.17h-3.83a4.37,4.37,0,0,0-4.18,3.17H96.3a4.37,4.37,0,0,0-4.18-3.17H88.28a4.37,4.37,0,0,0-4.18,3.17h-.31a4.38,4.38,0,0,0-4.19-3.17H75.77a4.37,4.37,0,0,0-4.18,3.17h-4.1A1.08,1.08,0,0,0,66.41,215v.18a1.08,1.08,0,0,0,1.08,1.08h4.1a4.37,4.37,0,0,0,4.18,3.17H79.6a4.38,4.38,0,0,0,4.19-3.17h.31a4.37,4.37,0,0,0,4.18,3.17h3.84a4.37,4.37,0,0,0,4.18-3.17h.34a4.37,4.37,0,0,0,4.18,3.17h3.83a4.37,4.37,0,0,0,4.18-3.17h.34a4.37,4.37,0,0,0,4.18,3.17h3.84a4.37,4.37,0,0,0,4.18-3.17h.33a4.37,4.37,0,0,0,4.18,3.17h3.84a4.37,4.37,0,0,0,4.18-3.17h.31a4.37,4.37,0,0,0,4.18,3.17h3.84a4.37,4.37,0,0,0,4.18-3.17h.33a4.37,4.37,0,0,0,4.19,3.17h3.83a4.37,4.37,0,0,0,4.18-3.17h.34a4.37,4.37,0,0,0,4.18,3.17h3.84a4.37,4.37,0,0,0,4.18-3.17h.33a4.37,4.37,0,0,0,4.18,3.17h3.84a4.37,4.37,0,0,0,4.18-3.17h4.26a1.08,1.08,0,0,0,1.08-1.08V215A1.08,1.08,0,0,0,188.27,213.92ZM176,211.36h3.84a3.76,3.76,0,0,1,3.55,2.56h-1.22a2.6,2.6,0,0,0-2.33-1.44H176a2.6,2.6,0,0,0-2.33,1.44h-1.21A3.75,3.75,0,0,1,176,211.36Zm4.24,4.9h1.22a2,2,0,0,1-1.62.83H176a2,2,0,0,1-1.62-.83h1.38a1.08,1.08,0,0,0,1.09-1.08V215a1.08,1.08,0,0,0-1.09-1.08h-1.38a2,2,0,0,1,1.62-.83h3.84a2,2,0,0,1,1.62.83h-1.22a1.08,1.08,0,0,0-1.08,1.08v.18A1.08,1.08,0,0,0,180.23,216.26Zm-16.77-4.9h3.84a3.75,3.75,0,0,1,3.54,2.56h-1.22a2.59,2.59,0,0,0-2.32-1.44h-3.84a2.59,2.59,0,0,0-2.33,1.44h-1.22A3.76,3.76,0,0,1,163.46,211.36Zm4.24,4.9h1.22a2,2,0,0,1-1.62.83h-3.84a2,2,0,0,1-1.62-.83h1.38a1.08,1.08,0,0,0,1.08-1.08V215a1.08,1.08,0,0,0-1.08-1.08h-1.38a2,2,0,0,1,1.62-.83h3.84a2,2,0,0,1,1.62.83H167.7a1.08,1.08,0,0,0-1.08,1.08v.18A1.08,1.08,0,0,0,167.7,216.26Zm-16.77-4.9h3.83a3.76,3.76,0,0,1,3.55,2.56h-1.22a2.59,2.59,0,0,0-2.33-1.44h-3.83a2.59,2.59,0,0,0-2.33,1.44h-1.22A3.75,3.75,0,0,1,150.93,211.36Zm4.23,4.9h1.22a2,2,0,0,1-1.62.83h-3.83a2,2,0,0,1-1.62-.83h1.38a1.08,1.08,0,0,0,1.08-1.08V215a1.08,1.08,0,0,0-1.08-1.08h-1.38a2,2,0,0,1,1.62-.83h3.83a2,2,0,0,1,1.62.83h-1.22a1.08,1.08,0,0,0-1.08,1.08v.18A1.08,1.08,0,0,0,155.16,216.26Zm-16.77-4.9h3.84a3.75,3.75,0,0,1,3.54,2.56h-1.21a2.6,2.6,0,0,0-2.33-1.44h-3.84a2.6,2.6,0,0,0-2.33,1.44h-1.22A3.76,3.76,0,0,1,138.39,211.36Zm4.24,4.9h1.22a2,2,0,0,1-1.62.83h-3.84a2,2,0,0,1-1.62-.83h1.39a1.08,1.08,0,0,0,1.08-1.08V215a1.08,1.08,0,0,0-1.08-1.08h-1.39a2,2,0,0,1,1.62-.83h3.84a2,2,0,0,1,1.62.83h-1.22a1.08,1.08,0,0,0-1.08,1.08v.18A1.08,1.08,0,0,0,142.63,216.26Zm-12.92-4.9a3.75,3.75,0,0,1,3.55,2.56h-1.21a2.59,2.59,0,0,0-2.33-1.44h-3.84a2.59,2.59,0,0,0-2.33,1.44h-1.21a3.75,3.75,0,0,1,3.54-2.56Zm.41,2.56A1.08,1.08,0,0,0,129,215v.18a1.08,1.08,0,0,0,1.09,1.08h1.21a2,2,0,0,1-1.62.83h-3.83a2,2,0,0,1-1.62-.83h1.38a1.08,1.08,0,0,0,1.09-1.08V215a1.08,1.08,0,0,0-1.09-1.08h-1.38a2,2,0,0,1,1.62-.83h3.83a2,2,0,0,1,1.62.83Zm-16.77-2.56h3.84a3.75,3.75,0,0,1,3.54,2.56h-1.21a2.62,2.62,0,0,0-2.33-1.44h-3.84a2.59,2.59,0,0,0-2.33,1.44H109.8A3.76,3.76,0,0,1,113.35,211.36Zm4.24,2.56a1.08,1.08,0,0,0-1.08,1.08v.18a1.08,1.08,0,0,0,1.08,1.08h1.22a2,2,0,0,1-1.62.83h-3.84a2,2,0,0,1-1.62-.83h1.38a1.08,1.08,0,0,0,1.08-1.08V215a1.08,1.08,0,0,0-1.08-1.08h-1.38a2,2,0,0,1,1.62-.83h3.84a2,2,0,0,1,1.62.83h-1.22Zm-16.77-2.56h3.83a3.76,3.76,0,0,1,3.55,2.56H107a2.59,2.59,0,0,0-2.33-1.44h-3.83a2.59,2.59,0,0,0-2.33,1.44H97.27A3.75,3.75,0,0,1,100.82,211.36Zm4.24,4.9h1.21a2,2,0,0,1-1.62.83h-3.83a2,2,0,0,1-1.62-.83h1.38a1.08,1.08,0,0,0,1.08-1.08V215a1.08,1.08,0,0,0-1.08-1.08H99.2a2,2,0,0,1,1.62-.83h3.83a2,2,0,0,1,1.62.83h-1.21A1.08,1.08,0,0,0,104,215v.18A1.08,1.08,0,0,0,105.06,216.26Zm-16.78-4.9h3.84a3.76,3.76,0,0,1,3.55,2.56H94.45a2.6,2.6,0,0,0-2.33-1.44H88.28A2.6,2.6,0,0,0,86,213.92H84.74A3.75,3.75,0,0,1,88.28,211.36Zm4.24,4.9h1.22a2,2,0,0,1-1.62.83H88.28a2,2,0,0,1-1.62-.83H88a1.08,1.08,0,0,0,1.09-1.08V215A1.08,1.08,0,0,0,88,213.92H86.66a2,2,0,0,1,1.62-.83h3.84a2,2,0,0,1,1.62.83H92.52A1.08,1.08,0,0,0,91.44,215v.18A1.08,1.08,0,0,0,92.52,216.26Zm-16.75-4.9H79.6a3.75,3.75,0,0,1,3.55,2.56H81.93a2.59,2.59,0,0,0-2.33-1.44H75.77a2.59,2.59,0,0,0-2.33,1.44H72.22A3.76,3.76,0,0,1,75.77,211.36Zm4.24,4.9h1.21a2,2,0,0,1-1.62.83H75.77a2,2,0,0,1-1.62-.83h1.38a1.08,1.08,0,0,0,1.08-1.08V215a1.08,1.08,0,0,0-1.08-1.08H74.15a2,2,0,0,1,1.62-.83H79.6a2,2,0,0,1,1.62.83H80A1.08,1.08,0,0,0,78.92,215v.18A1.08,1.08,0,0,0,80,216.26Zm-12.52-.61a.47.47,0,0,1-.47-.47V215a.47.47,0,0,1,.47-.47h8A.47.47,0,0,1,76,215v.18a.47.47,0,0,1-.47.47Zm12.11,3.17H75.77a3.76,3.76,0,0,1-3.55-2.56h1.22a2.59,2.59,0,0,0,2.33,1.44H79.6a2.59,2.59,0,0,0,2.33-1.44h1.22A3.75,3.75,0,0,1,79.6,218.82Zm.41-3.17a.48.48,0,0,1-.48-.47V215a.48.48,0,0,1,.48-.47h8a.48.48,0,0,1,.48.47v.18a.48.48,0,0,1-.48.47Zm12.11,3.17H88.28a3.75,3.75,0,0,1-3.54-2.56H86a2.6,2.6,0,0,0,2.33,1.44h3.84a2.6,2.6,0,0,0,2.33-1.44h1.22A3.76,3.76,0,0,1,92.12,218.82Zm.42-3.17a.47.47,0,0,1-.47-.47V215a.47.47,0,0,1,.47-.47h8a.47.47,0,0,1,.47.47v.18a.47.47,0,0,1-.47.47Zm12.11,3.17h-3.83a3.75,3.75,0,0,1-3.55-2.56h1.22a2.59,2.59,0,0,0,2.33,1.44h3.83a2.59,2.59,0,0,0,2.33-1.44h1.22A3.76,3.76,0,0,1,104.65,218.82Zm.42-3.17a.47.47,0,0,1-.47-.47V215a.47.47,0,0,1,.47-.47h8a.48.48,0,0,1,.48.47v.18a.48.48,0,0,1-.48.47Zm12.12,3.17h-3.84a3.76,3.76,0,0,1-3.55-2.56H111a2.59,2.59,0,0,0,2.33,1.44h3.84a2.62,2.62,0,0,0,2.33-1.44h1.21A3.75,3.75,0,0,1,117.19,218.82Zm.42-3.17a.48.48,0,0,1-.48-.47V215a.48.48,0,0,1,.48-.47h8a.47.47,0,0,1,.48.47v.18a.47.47,0,0,1-.48.47Zm8.27,3.17a3.75,3.75,0,0,1-3.54-2.56h1.21a2.59,2.59,0,0,0,2.33,1.44h3.84a2.59,2.59,0,0,0,2.33-1.44h1.21a3.75,3.75,0,0,1-3.55,2.56Zm4.24-3.17a.47.47,0,0,1-.47-.47V215a.47.47,0,0,1,.47-.47h8a.48.48,0,0,1,.48.47v.18a.48.48,0,0,1-.48.47Zm12.11,3.17h-3.84a3.76,3.76,0,0,1-3.55-2.56h1.22a2.6,2.6,0,0,0,2.33,1.44h3.84a2.6,2.6,0,0,0,2.33-1.44h1.21A3.75,3.75,0,0,1,142.23,218.82Zm.42-3.17a.47.47,0,0,1-.47-.47V215a.47.47,0,0,1,.47-.47h8a.47.47,0,0,1,.47.47v.18a.47.47,0,0,1-.47.47Zm12.11,3.17h-3.83a3.75,3.75,0,0,1-3.55-2.56h1.22a2.59,2.59,0,0,0,2.33,1.44h3.83a2.59,2.59,0,0,0,2.33-1.44h1.22A3.76,3.76,0,0,1,154.76,218.82Zm.42-3.17a.47.47,0,0,1-.47-.47V215a.47.47,0,0,1,.47-.47h8a.48.48,0,0,1,.48.47v.18a.48.48,0,0,1-.48.47Zm12.12,3.17h-3.84a3.76,3.76,0,0,1-3.55-2.56h1.22a2.59,2.59,0,0,0,2.33,1.44h3.84a2.59,2.59,0,0,0,2.32-1.44h1.22A3.75,3.75,0,0,1,167.3,218.82Zm.42-3.17a.48.48,0,0,1-.48-.47V215a.48.48,0,0,1,.48-.47h8a.47.47,0,0,1,.48.47v.18a.47.47,0,0,1-.48.47Zm12.11,3.17H176a3.75,3.75,0,0,1-3.54-2.56h1.21A2.6,2.6,0,0,0,176,217.7h3.84a2.6,2.6,0,0,0,2.33-1.44h1.22A3.76,3.76,0,0,1,179.83,218.82Zm8.91-3.64a.47.47,0,0,1-.47.47h-8a.47.47,0,0,1-.47-.47V215a.47.47,0,0,1,.47-.47h8a.47.47,0,0,1,.47.47Z"/><rect class="cls-5" x="128.74" y="176.2" width="2.39" height="17.88"/><rect class="cls-5" x="121.99" y="176.2" width="2.39" height="17.88"/><rect class="cls-5" x="126.69" y="176.2" width="1.19" height="17.88"/><rect class="cls-5" x="125.23" y="176.2" width="0.6" height="17.88"/><rect class="cls-5" x="118.71" y="176.2" width="2.39" height="17.88"/><rect class="cls-5" x="116.66" y="176.2" width="1.19" height="17.88"/><rect class="cls-5" x="115.21" y="176.2" width="0.6" height="17.88"/><rect class="cls-5" x="76.07" y="176.2" width="2.39" height="17.88"/><rect class="cls-5" x="82.82" y="176.2" width="2.39" height="17.88"/><rect class="cls-5" x="79.31" y="176.2" width="1.19" height="17.88"/><rect class="cls-5" x="81.37" y="176.2" width="0.6" height="17.88"/><rect class="cls-5" x="86.09" y="176.2" width="2.39" height="17.88"/><rect class="cls-5" x="89.34" y="176.2" width="1.19" height="17.88"/><rect class="cls-5" x="91.39" y="176.2" width="0.6" height="17.88"/><rect class="cls-5" x="109.62" y="176.2" width="4.78" height="17.88"/><rect class="cls-5" x="106.37" y="176.2" width="2.39" height="17.88"/><rect class="cls-5" x="99.62" y="176.2" width="2.39" height="17.88"/><rect class="cls-5" x="104.32" y="176.2" width="1.19" height="17.88"/><rect class="cls-5" x="102.86" y="176.2" width="0.6" height="17.88"/><rect class="cls-5" x="96.34" y="176.2" width="2.39" height="17.88"/><rect class="cls-5" x="94.29" y="176.2" width="1.19" height="17.88"/><rect class="cls-5" x="92.84" y="176.2" width="0.6" height="17.88"/><rect class="cls-5" x="172.58" y="176.2" width="1.19" height="17.88"/><rect class="cls-5" x="171.12" y="176.2" width="0.6" height="17.88"/><rect class="cls-5" x="138.74" y="176.2" width="2.39" height="17.88"/><polygon class="cls-5" points="135.23 176.2 134.37 176.2 131.98 176.2 131.98 194.09 134.37 194.09 135.23 194.09 136.42 194.09 136.76 194.09 136.76 176.2 136.42 176.2 135.23 176.2"/><rect class="cls-5" x="137.28" y="176.2" width="0.6" height="17.88"/><rect class="cls-5" x="142.01" y="176.2" width="2.39" height="17.88"/><rect class="cls-5" x="145.26" y="176.2" width="1.19" height="17.88"/><rect class="cls-5" x="147.31" y="176.2" width="0.6" height="17.88"/><rect class="cls-5" x="165.53" y="176.2" width="4.78" height="17.88"/><rect class="cls-5" x="162.29" y="176.2" width="2.39" height="17.88"/><rect class="cls-5" x="155.53" y="176.2" width="2.39" height="17.88"/><rect class="cls-5" x="160.23" y="176.2" width="1.19" height="17.88"/><rect class="cls-5" x="158.78" y="176.2" width="0.6" height="17.88"/><rect class="cls-5" x="152.26" y="176.2" width="2.39" height="17.88"/><rect class="cls-5" x="150.21" y="176.2" width="1.19" height="17.88"/><rect class="cls-5" x="148.75" y="176.2" width="0.6" height="17.88"/><text class="cls-6" transform="translate(134.57 129.76)">見つかりませんでした<tspan x="0" y="8.57">見つかりませんでした</tspan><tspan x="0" y="17.14">見つかりませんでした</tspan><tspan x="0" y="25.7">見つかりませんでした</tspan><tspan x="0" y="34.27">見つかりませんでした</tspan></text><text class="cls-7" transform="translate(85.24 170.14)">見当たらない</text></g></g></svg>