<svg xmlns="http://www.w3.org/2000/svg" viewBox="0 0 295.09 282.22"><defs><style>.cls-1{fill:#2c2c30;}.cls-2{fill:#9bf424;}.cls-3{fill:#097f00;}.cls-4{font-size:12px;font-family:MS-UIGothic, MS UI Gothic;}.cls-4,.cls-5{fill:#fff;}.cls-6{fill:none;stroke:#fff;stroke-miterlimit:10;stroke-width:2.38px;}</style></defs><g id="Layer_2" data-name="Layer 2"><g id="Layer_2-2" data-name="Layer 2"><polygon class="cls-1" points="273.79 133.03 273.79 14.36 238.52 14.36 238.52 0.34 162.33 0.34 162.33 14.36 63.7 14.36 63.7 37.59 39.7 37.59 39.7 14.36 19.27 14.36 19.27 268.88 39.7 268.88 39.7 278.73 78.34 278.73 78.34 268.88 231.05 268.88 231.05 238.96 255.75 238.96 255.75 268.88 273.79 268.88 273.79 218 283.43 218 283.43 133.03 273.79 133.03"/><path class="cls-2" d="M91.2,0l3,3-3,3L88.25,3Zm5.65,3,3,3,3-2.95L99.8,0Zm8.6,0,3,3L111.34,3,108.4,0Zm8.6,0,2.94,3,3-2.95L117,0Zm8.59,0,3,3L128.54,3,125.59,0ZM134.19,0l-2.95,3,2.95,3L137.14,3Z"/><path class="cls-2" d="M124.46,262.87h-2.15l23.93-23.93h6.7l-10.6,10.61h-4.56Zm23.59-13.32h4.56l10.6-10.61h-6.7l-23.93,23.93h2.15Zm10.27,0h4.56l10.61-10.61h-6.71l-23.92,23.93H145Zm10.27,0h4.56l10.61-10.61h-6.71l-23.92,23.93h2.14Zm10.27,0h4.56L194,238.94h-6.71L163.4,262.87h2.14Zm10.27,0h4.56l10.61-10.61h-6.71l-23.92,23.93h2.14Zm10.27,0H204l10.61-10.61h-6.71l-23.92,23.93h2.14Zm10.27,0h4.56l10.61-10.61h-6.71l-23.92,23.93h2.14Z"/><path class="cls-3" d="M196.7,9.24h9.79L189,26.78h-9.79Zm39.32,0h-9.79L208.7,26.78h9.78Zm-14.77,0h-9.79L193.93,26.78h9.79Zm73.84,0H285.3L267.76,26.78h9.79Zm-44.3,0H241L223.46,26.78h9.79Zm29.53,0h-9.79L253,26.78h9.78Zm-14.77,0h-9.79L238.23,26.78H248Z"/><polygon class="cls-3" points="11.93 144.09 3.49 144.09 0 144.09 0 147.58 0 156.02 3.49 156.02 3.49 147.58 11.93 147.58 11.93 144.09"/><rect class="cls-3" x="7.27" y="150.93" width="4.66" height="46.85"/><rect class="cls-3" x="280.32" y="66.11" width="3.11" height="47.14"/><rect class="cls-3" x="280.32" y="197.78" width="5.99" height="5.99"/><rect class="cls-3" x="82.35" y="9.24" width="69" height="8.77"/><rect class="cls-2" x="87.3" y="275.91" width="37.25" height="2.81"/><rect class="cls-2" x="132.58" y="275.91" width="37.94" height="2.81"/><rect class="cls-2" x="181.29" y="277.32" width="28.23" height="1.41"/><rect class="cls-2" x="222.03" y="277.32" width="16.3" height="1.41"/><rect class="cls-2" x="34.63" y="94.91" width="9.31" height="9.31"/><rect class="cls-2" x="276.44" y="168.73" width="6.98" height="6.98"/><rect class="cls-2" x="260.15" y="217.23" width="6.51" height="6.51"/><rect class="cls-3" x="34.63" y="220.48" width="118.5" height="3.26"/><polyline class="cls-2" points="252.19 37.3 252.19 164.37 252.78 164.37 252.78 37.3"/><polyline class="cls-2" points="258.46 37.3 258.46 164.37 259.04 164.37 259.04 37.3"/><polyline class="cls-2" points="264.72 37.3 264.72 164.37 265.3 164.37 265.3 37.3"/><rect class="cls-2" x="47.72" y="26.78" width="6.79" height="39.33"/><rect class="cls-3" x="264.72" y="250.91" width="3.04" height="31.31"/><text class="cls-4" transform="translate(42.69 195.43)">技術<tspan x="0" y="14.4">背景</tspan></text><path class="cls-5" d="M181.9,146h-3.22a3.3,3.3,0,0,0-3.15-2.39h-2.88a3.29,3.29,0,0,0-3.14,2.39h-.24a3.29,3.29,0,0,0-3.14-2.39h-2.89a3.31,3.31,0,0,0-3.15,2.39h-.24a3.31,3.31,0,0,0-3.15-2.39h-2.88a3.3,3.3,0,0,0-3.15,2.39h-.25a3.3,3.3,0,0,0-3.14-2.39h-2.89a3.29,3.29,0,0,0-3.14,2.39H141a3.29,3.29,0,0,0-3.14-2.39H135a3.29,3.29,0,0,0-3.15,2.39h-.24a3.29,3.29,0,0,0-3.14-2.39h-2.89a3.29,3.29,0,0,0-3.14,2.39h-3.08a.81.81,0,0,0-.81.81V147a.81.81,0,0,0,.81.81h3.08a3.28,3.28,0,0,0,3.14,2.38h2.89a3.28,3.28,0,0,0,3.14-2.38h.24a3.28,3.28,0,0,0,3.15,2.38h2.88A3.28,3.28,0,0,0,141,147.8h.26a3.28,3.28,0,0,0,3.14,2.38h2.89a3.29,3.29,0,0,0,3.14-2.38h.25a3.29,3.29,0,0,0,3.15,2.38h2.88a3.3,3.3,0,0,0,3.15-2.38h.24a3.3,3.3,0,0,0,3.15,2.38h2.89a3.28,3.28,0,0,0,3.14-2.38h.24a3.28,3.28,0,0,0,3.14,2.38h2.88a3.29,3.29,0,0,0,3.15-2.38h3.22a.81.81,0,0,0,.81-.81v-.14A.81.81,0,0,0,181.9,146Zm-9.25-1.93h2.88A2.82,2.82,0,0,1,178.2,146h-.91a2,2,0,0,0-1.76-1.08h-2.88A2,2,0,0,0,170.9,146H170A2.84,2.84,0,0,1,172.65,144.11Zm3.19,3.69h.91a1.47,1.47,0,0,1-1.22.62h-2.88a1.49,1.49,0,0,1-1.22-.62h1a.82.82,0,0,0,.82-.81v-.14a.82.82,0,0,0-.82-.81h-1a1.5,1.5,0,0,1,1.22-.63h2.88a1.47,1.47,0,0,1,1.22.63h-.91a.82.82,0,0,0-.82.81V147A.82.82,0,0,0,175.84,147.8Zm-12.6-3.69h2.88a2.84,2.84,0,0,1,2.67,1.93h-.91a2,2,0,0,0-1.75-1.08h-2.89a2,2,0,0,0-1.75,1.08h-.91A2.82,2.82,0,0,1,163.24,144.11Zm3.19,3.69h.91a1.48,1.48,0,0,1-1.22.62h-2.88a1.49,1.49,0,0,1-1.22-.62h1a.82.82,0,0,0,.82-.81v-.14a.82.82,0,0,0-.82-.81h-1a1.5,1.5,0,0,1,1.22-.63h2.88a1.49,1.49,0,0,1,1.22.63h-.91a.82.82,0,0,0-.82.81V147A.82.82,0,0,0,166.43,147.8Zm-12.61-3.69h2.88a2.84,2.84,0,0,1,2.67,1.93h-.92A2,2,0,0,0,156.7,145h-2.88a2,2,0,0,0-1.75,1.08h-.92A2.83,2.83,0,0,1,153.82,144.11ZM157,147.8h.92a1.49,1.49,0,0,1-1.22.62h-2.88a1.49,1.49,0,0,1-1.22-.62h1a.81.81,0,0,0,.81-.81v-.14a.81.81,0,0,0-.81-.81h-1a1.5,1.5,0,0,1,1.22-.63h2.88a1.5,1.5,0,0,1,1.22.63H157a.81.81,0,0,0-.81.81V147A.81.81,0,0,0,157,147.8Zm-12.61-3.69h2.89a2.82,2.82,0,0,1,2.66,1.93H149a2,2,0,0,0-1.75-1.08h-2.89a2,2,0,0,0-1.75,1.08h-.92A2.84,2.84,0,0,1,144.39,144.11Zm3.19,3.69h.91a1.46,1.46,0,0,1-1.21.62h-2.89a1.49,1.49,0,0,1-1.22-.62h1A.81.81,0,0,0,145,147v-.14a.81.81,0,0,0-.81-.81h-1a1.5,1.5,0,0,1,1.22-.63h2.89a1.47,1.47,0,0,1,1.21.63h-.91a.82.82,0,0,0-.82.81V147A.82.82,0,0,0,147.58,147.8ZM135,144.11h2.88a2.84,2.84,0,0,1,2.67,1.93h-.92a2,2,0,0,0-1.75-1.08H135a2,2,0,0,0-1.76,1.08h-.91A2.82,2.82,0,0,1,135,144.11Zm3.18,3.69h.92a1.49,1.49,0,0,1-1.22.62H135a1.47,1.47,0,0,1-1.22-.62h1a.82.82,0,0,0,.82-.81v-.14a.82.82,0,0,0-.82-.81h-1a1.47,1.47,0,0,1,1.22-.63h2.88a1.5,1.5,0,0,1,1.22.63h-.92a.81.81,0,0,0-.81.81V147A.81.81,0,0,0,138.15,147.8Zm-12.6-3.69h2.89a2.84,2.84,0,0,1,2.67,1.93h-.92a2,2,0,0,0-1.75-1.08h-2.89A2,2,0,0,0,123.8,146h-.92A2.84,2.84,0,0,1,125.55,144.11Zm3.19,3.69h.92a1.49,1.49,0,0,1-1.22.62h-2.89a1.49,1.49,0,0,1-1.22-.62h1a.82.82,0,0,0,.82-.81v-.14a.82.82,0,0,0-.82-.81h-1a1.5,1.5,0,0,1,1.22-.63h2.89a1.5,1.5,0,0,1,1.22.63h-.92a.81.81,0,0,0-.81.81V147A.81.81,0,0,0,128.74,147.8Zm-9.41-.46A.36.36,0,0,1,119,147v-.14a.36.36,0,0,1,.36-.35h6a.36.36,0,0,1,.36.35V147a.36.36,0,0,1-.36.35Zm9.11,2.39h-2.89a2.84,2.84,0,0,1-2.67-1.93h.92a2,2,0,0,0,1.75,1.08h2.89a2,2,0,0,0,1.75-1.08h.92A2.84,2.84,0,0,1,128.44,149.73Zm.3-2.39a.36.36,0,0,1-.36-.35v-.14a.36.36,0,0,1,.36-.35h6a.36.36,0,0,1,.36.35V147a.36.36,0,0,1-.36.35Zm9.11,2.39H135a2.82,2.82,0,0,1-2.67-1.93h.91a2,2,0,0,0,1.76,1.08h2.88a2,2,0,0,0,1.75-1.08h.92A2.84,2.84,0,0,1,137.85,149.73Zm.32-2.39a.36.36,0,0,1-.36-.35v-.14a.36.36,0,0,1,.36-.35h6a.35.35,0,0,1,.35.35V147a.35.35,0,0,1-.35.35Zm9.11,2.39h-2.89a2.84,2.84,0,0,1-2.67-1.93h.92a2,2,0,0,0,1.75,1.08h2.89A2,2,0,0,0,149,147.8h.91A2.82,2.82,0,0,1,147.28,149.73Zm.31-2.39a.35.35,0,0,1-.35-.35v-.14a.35.35,0,0,1,.35-.35h6a.36.36,0,0,1,.36.35V147a.36.36,0,0,1-.36.35Zm9.11,2.39h-2.88a2.83,2.83,0,0,1-2.67-1.93h.92a2,2,0,0,0,1.75,1.08h2.88a2,2,0,0,0,1.75-1.08h.92A2.84,2.84,0,0,1,156.7,149.73Zm.32-2.39a.36.36,0,0,1-.36-.35v-.14a.36.36,0,0,1,.36-.35h6a.36.36,0,0,1,.36.35V147a.36.36,0,0,1-.36.35Zm9.1,2.39h-2.88a2.82,2.82,0,0,1-2.66-1.93h.91a2,2,0,0,0,1.75,1.08h2.89a2,2,0,0,0,1.75-1.08h.91A2.84,2.84,0,0,1,166.12,149.73Zm.31-2.39a.36.36,0,0,1-.36-.35v-.14a.36.36,0,0,1,.36-.35h6a.36.36,0,0,1,.36.35V147a.36.36,0,0,1-.36.35Zm9.1,2.39h-2.88A2.84,2.84,0,0,1,170,147.8h.92a2,2,0,0,0,1.75,1.08h2.88a2,2,0,0,0,1.76-1.08h.91A2.82,2.82,0,0,1,175.53,149.73Zm6.71-2.74a.36.36,0,0,1-.36.35h-6a.35.35,0,0,1-.35-.35v-.14a.35.35,0,0,1,.35-.35h6a.36.36,0,0,1,.36.35Z"/><rect class="cls-5" x="132.73" y="110.69" width="9.71" height="25.76"/><path class="cls-5" d="M165.78,110.69H145.6v25.77h20.18a2.71,2.71,0,0,0,2.71-2.72V113.41A2.71,2.71,0,0,0,165.78,110.69Zm-.53,22.52h-9.93V113.94h9.93Z"/><polygon class="cls-5" points="126.32 110.69 126.32 126.81 116.39 126.81 116.39 110.69 106.68 110.69 106.68 126.81 106.68 130.06 106.68 136.46 116.39 136.46 116.39 130.06 122.65 130.06 125.9 136.46 129.57 136.46 126.33 130.06 129.57 130.06 129.57 126.81 129.57 110.69 126.32 110.69"/><polygon class="cls-5" points="194.54 113.94 194.54 110.69 181.37 110.69 171.65 110.69 171.65 113.94 171.65 126.81 171.65 130.06 181.37 130.06 191.29 130.06 191.29 133.21 171.65 133.21 171.65 136.46 194.54 136.46 194.54 136.3 194.54 133.21 194.54 130.06 194.54 126.81 191.29 126.81 181.37 126.81 181.37 113.94 194.54 113.94"/><path class="cls-6" d="M94.73,46.33H206.49a6.13,6.13,0,0,1,6.13,6.13v135a6.13,6.13,0,0,1-6.13,6.13H94.73a6.13,6.13,0,0,1-6.13-6.13v-135A6.14,6.14,0,0,1,94.73,46.33Z"/><path class="cls-5" d="M206.49,46.33H94.73a6.14,6.14,0,0,0-6.14,6.14V69.86h124V52.47A6.14,6.14,0,0,0,206.49,46.33ZM99.74,62.51a4.41,4.41,0,1,1,4.41-4.41A4.41,4.41,0,0,1,99.74,62.51Zm11.5,0a4.41,4.41,0,1,1,4.42-4.41A4.4,4.4,0,0,1,111.24,62.51Zm11.51,0a4.41,4.41,0,1,1,4.41-4.41A4.4,4.4,0,0,1,122.75,62.51Z"/><rect class="cls-5" x="154.69" y="157.38" width="2.55" height="19.12"/><rect class="cls-5" x="147.48" y="157.38" width="2.55" height="19.12"/><rect class="cls-5" x="152.5" y="157.38" width="1.28" height="19.12"/><rect class="cls-5" x="150.95" y="157.38" width="0.64" height="19.12"/><rect class="cls-5" x="143.98" y="157.38" width="2.55" height="19.12"/><rect class="cls-5" x="141.78" y="157.38" width="1.28" height="19.12"/><rect class="cls-5" x="140.23" y="157.38" width="0.64" height="19.12"/><rect class="cls-5" x="98.38" y="157.38" width="2.55" height="19.12"/><rect class="cls-5" x="105.6" y="157.38" width="2.55" height="19.12"/><rect class="cls-5" x="101.85" y="157.38" width="1.28" height="19.12"/><rect class="cls-5" x="104.05" y="157.38" width="0.64" height="19.12"/><rect class="cls-5" x="109.1" y="157.38" width="2.55" height="19.12"/><rect class="cls-5" x="112.57" y="157.38" width="1.28" height="19.12"/><rect class="cls-5" x="114.77" y="157.38" width="0.64" height="19.12"/><rect class="cls-5" x="134.25" y="157.38" width="5.11" height="19.12"/><rect class="cls-5" x="130.78" y="157.38" width="2.55" height="19.12"/><rect class="cls-5" x="123.56" y="157.38" width="2.55" height="19.12"/><rect class="cls-5" x="128.59" y="157.38" width="1.28" height="19.12"/><rect class="cls-5" x="127.03" y="157.38" width="0.64" height="19.12"/><rect class="cls-5" x="120.06" y="157.38" width="2.55" height="19.12"/><rect class="cls-5" x="117.87" y="157.38" width="1.28" height="19.12"/><rect class="cls-5" x="116.31" y="157.38" width="0.64" height="19.12"/><rect class="cls-5" x="201.56" y="157.38" width="1.28" height="19.12"/><rect class="cls-5" x="200.01" y="157.38" width="0.64" height="19.12"/><rect class="cls-5" x="165.38" y="157.38" width="2.55" height="19.12"/><polygon class="cls-5" points="161.63 157.38 160.72 157.38 158.16 157.38 158.16 176.5 160.72 176.5 161.63 176.5 162.91 176.5 163.27 176.5 163.27 157.38 162.91 157.38 161.63 157.38"/><rect class="cls-5" x="163.83" y="157.38" width="0.64" height="19.12"/><rect class="cls-5" x="168.88" y="157.38" width="2.55" height="19.12"/><rect class="cls-5" x="172.35" y="157.38" width="1.28" height="19.12"/><rect class="cls-5" x="174.55" y="157.38" width="0.64" height="19.12"/><rect class="cls-5" x="194.03" y="157.38" width="5.11" height="19.12"/><rect class="cls-5" x="190.56" y="157.38" width="2.55" height="19.12"/><rect class="cls-5" x="183.34" y="157.38" width="2.55" height="19.12"/><rect class="cls-5" x="188.37" y="157.38" width="1.28" height="19.12"/><rect class="cls-5" x="186.81" y="157.38" width="0.64" height="19.12"/><rect class="cls-5" x="179.84" y="157.38" width="2.55" height="19.12"/><rect class="cls-5" x="177.65" y="157.38" width="1.28" height="19.12"/><rect class="cls-5" x="176.09" y="157.38" width="0.64" height="19.12"/><path class="cls-5" d="M132.47,202.31c0-1.63.94-2.64,2.16-2.64s2.16,1,2.16,2.64-.94,2.67-2.16,2.67S132.47,203.94,132.47,202.31Zm3.95,0c0-1.4-.72-2.31-1.79-2.31s-1.79.91-1.79,2.31.72,2.33,1.79,2.33S136.42,203.71,136.42,202.31Zm-3,0a1.38,1.38,0,0,1,1.32-1.51,1.12,1.12,0,0,1,.83.37l-.27.31a.77.77,0,0,0-.54-.24c-.49,0-.81.44-.81,1.07s.31,1.13.78,1.13a1,1,0,0,0,.65-.27l.24.34a1.27,1.27,0,0,1-.91.38C134,203.89,133.4,203.3,133.4,202.31Z"/><path class="cls-5" d="M140,204.27l.33-.44a2.08,2.08,0,0,0,1.47.6c.69,0,1.21-.36,1.21-.92s-.51-1-1.84-1V202c1.2,0,1.67-.42,1.67-1s-.43-.8-1-.8a1.92,1.92,0,0,0-1.26.51l-.35-.42a2.46,2.46,0,0,1,1.63-.64c1,0,1.69.47,1.69,1.3,0,.61-.46,1-1.09,1.21v0a1.4,1.4,0,0,1,1.26,1.29c0,.9-.83,1.46-1.84,1.46A2.52,2.52,0,0,1,140,204.27Z"/><path class="cls-5" d="M147.5,202.32c0-1.71.7-2.63,1.83-2.63s1.84.92,1.84,2.63-.7,2.67-1.84,2.67S147.5,204,147.5,202.32Zm3.05,0c0-1.46-.5-2.09-1.22-2.09s-1.21.63-1.21,2.09.5,2.13,1.21,2.13S150.55,203.79,150.55,202.32Zm-1.71,0a.5.5,0,1,1,.49.53A.5.5,0,0,1,148.84,202.27Z"/><path class="cls-5" d="M157.78,200.36h-2.93v-.57h3.69v.41a6.45,6.45,0,0,0-1.76,4.69h-.69A6.84,6.84,0,0,1,157.78,200.36Z"/><path class="cls-5" d="M165.14,200.36H162.2v-.57h3.7v.41a6.45,6.45,0,0,0-1.76,4.69h-.7A6.85,6.85,0,0,1,165.14,200.36Z"/><path class="cls-5" d="M104.13,182.58h.62l.32,2.71c0,.37.07.58.09,1h0c.08-.42.13-.63.22-1l.42-1.61h.52l.41,1.61a8.16,8.16,0,0,1,.21,1h0c0-.42,0-.63.08-1l.3-2.72h.6l-.64,4.33h-.68l-.42-1.74a7.72,7.72,0,0,1-.16-.78h0c-.05.26-.09.51-.15.78l-.43,1.74h-.67Z"/><path class="cls-5" d="M110.17,186.44h1.07v-3.39h-1.07v-.47h2.7v.47H111.8v3.39h1.07v.47h-2.7Z"/><path class="cls-5" d="M116.72,183.05h-1.43v-.47h3.41v.47h-1.43v3.86h-.55Z"/><path class="cls-5" d="M121,182.58h.56v1.81h1.79v-1.81h.56v4.33h-.56v-2h-1.79v2H121Z"/><path class="cls-5" d="M131.9,185.83a1.28,1.28,0,0,1,.9-1.12v0a1.18,1.18,0,0,1-.64-1,1.16,1.16,0,0,1,1.3-1.08,1.14,1.14,0,0,1,1.3,1.12,1.34,1.34,0,0,1-.64,1v0c.47.23.83.5.83,1.1s-.55,1.12-1.51,1.12S131.9,186.5,131.9,185.83Zm2.53,0c0-.58-.59-.73-1.32-1-.41.22-.72.49-.72.91s.42.8,1.06.8S134.43,186.28,134.43,185.85Zm-.14-2.08a.75.75,0,0,0-.84-.74.7.7,0,0,0-.79.67c0,.5.48.72,1.11.91A1.07,1.07,0,0,0,134.29,183.77Z"/><path class="cls-5" d="M138.57,184.67l-1.21-2.09H138l.61,1.1.35.64h0c.12-.26.21-.44.31-.64l.6-1.1h.58l-1.2,2.12,1.29,2.21h-.62l-.65-1.16c-.11-.22-.23-.44-.38-.7h0l-.35.7-.65,1.16h-.59Z"/><path class="cls-5" d="M148.32,186.35l.33-.38a1.81,1.81,0,0,0,1.26.53c.6,0,.94-.28.94-.68s-.34-.59-.77-.78l-.63-.27a1.25,1.25,0,0,1-.93-1.12,1.26,1.26,0,0,1,1.42-1.15,1.88,1.88,0,0,1,1.33.54l-.29.35a1.51,1.51,0,0,0-1.06-.4c-.5,0-.84.24-.84.63s.4.57.77.71l.61.27c.53.21,1,.52,1,1.15s-.58,1.24-1.53,1.24A2.19,2.19,0,0,1,148.32,186.35Z"/><path class="cls-5" d="M153.78,184.75a2,2,0,0,1,1.94-2.25,1.66,1.66,0,0,1,1.19.53l-.32.35a1.16,1.16,0,0,0-.87-.39c-.82,0-1.37.67-1.37,1.74s.55,1.77,1.37,1.77a1.26,1.26,0,0,0,1-.47l.31.33a1.64,1.64,0,0,1-1.33.63C154.6,187,153.78,186.16,153.78,184.75Z"/><path class="cls-5" d="M159.14,184.73c0-1.4.69-2.23,1.67-2.23s1.66.83,1.66,2.23-.69,2.26-1.66,2.26S159.14,186.14,159.14,184.73Zm2.75,0c0-1.09-.43-1.74-1.08-1.74s-1.09.65-1.09,1.74.43,1.77,1.09,1.77S161.89,185.83,161.89,184.73Z"/><path class="cls-5" d="M165,182.58h1.3c1,0,1.6.33,1.6,1.28s-.65,1.33-1.6,1.33h-.75v1.72H165Zm1.24,2.17c.75,0,1.11-.28,1.11-.89s-.37-.83-1.11-.83h-.69v1.72Z"/><path class="cls-5" d="M170.53,182.58h2.68v.47h-2.13v1.35h1.8v.47h-1.8v1.57h2.19v.47h-2.74Z"/><path class="cls-5" d="M181.17,186.35l.33-.38a1.84,1.84,0,0,0,1.27.53c.59,0,.93-.28.93-.68s-.33-.59-.77-.78l-.62-.27a1.25,1.25,0,0,1-.93-1.12,1.26,1.26,0,0,1,1.42-1.15,1.88,1.88,0,0,1,1.33.54l-.29.35a1.54,1.54,0,0,0-1.06-.4c-.51,0-.84.24-.84.63s.4.57.77.71l.61.27c.53.21,1,.52,1,1.15s-.58,1.24-1.53,1.24A2.2,2.2,0,0,1,181.17,186.35Z"/><path class="cls-5" d="M186.68,182.58h.68l.6,1.85.21.7h0l.2-.7.62-1.85h.67v4.33h-.53v-2.16c0-.43.07-1.16.09-1.53h0l-.24.84-.62,1.7H188l-.61-1.7-.25-.84h0c0,.37.09,1.1.09,1.53v2.16h-.52Z"/><path class="cls-5" d="M192,184.75c0-1.4.8-2.25,1.92-2.25a1.63,1.63,0,0,1,1.2.53l-.32.35A1.13,1.13,0,0,0,194,183c-.81,0-1.34.67-1.34,1.74s.48,1.77,1.33,1.77a1,1,0,0,0,.74-.25v-1.13h-.85v-.45h1.37v1.82a1.84,1.84,0,0,1-1.29.5C192.82,187,192,186.16,192,184.75Z"/><path class="cls-5" d="M106.94,94c0-6.18,3.61-10,8.62-10a7.2,7.2,0,0,1,5.27,2.34l-1.41,1.55a5.15,5.15,0,0,0-3.86-1.73c-3.66,0-6.07,3-6.07,7.74s2.41,7.85,6.07,7.85a5.52,5.52,0,0,0,4.3-2.11l1.41,1.5a7.45,7.45,0,0,1-6,2.78C110.58,104,106.94,100.28,106.94,94Z"/><path class="cls-5" d="M124,93.92c0-6.21,3-9.87,7.38-9.87s7.39,3.66,7.39,9.87-3,10-7.39,10S124,100.22,124,93.92Zm12.22,0c0-4.83-1.94-7.71-4.84-7.71s-4.83,2.88-4.83,7.71,1.93,7.88,4.83,7.88S136.24,98.84,136.24,93.92Z"/><path class="cls-5" d="M141.6,93.92c0-6.21,3-9.87,7.38-9.87s7.38,3.66,7.38,9.87-3.05,10-7.38,10S141.6,100.22,141.6,93.92Zm12.21,0c0-4.83-1.93-7.71-4.83-7.71s-4.84,2.88-4.84,7.71,1.94,7.88,4.84,7.88S153.81,98.84,153.81,93.92Z"/><path class="cls-5" d="M161.69,84.4h2.43v17.14h9.49v2.08H161.69Z"/></g></g></svg>