<svg xmlns="http://www.w3.org/2000/svg" viewBox="0 0 268.88 271.59"><defs><style>.cls-1{fill:#2c2c30;}.cls-2{fill:#097f00;}.cls-3{fill:#9bf424;}.cls-4{font-size:12px;font-family:MS-UIGothic, MS UI Gothic;}.cls-4,.cls-5{fill:#fff;}</style></defs><g id="Layer_2" data-name="Layer 2"><g id="Layer_2-2" data-name="Layer 2"><path class="cls-1" d="M79.73,253.07l7.52-7.52v17.37H10.34v-8.3h4.21v-1.55ZM258.21,147.73V95.64H253v-46L224.16,20.85H216V13.29H198.26V8.4H162.57v2.66h21.72v1.65H152.38l-3.2,3.2H130.36V12H98.16v3.49H92.54V11.45H51.41v3.68h-27L17.71,8.4H10.34V58.78H23v3.88H10.34v5.63H23v3.88H10.34v5.62H23v3.88H10.34V87.3H23v3.88H10.34V96.8H23v3.88H10.34v5.63H23v3.88H10.34v138h4.21v1.7H66.94l8.72-8.72h64.6v5.47h21V241.2h4.85v3.86h2.33V241.2h2.33v3.86H173V241.2h2.33v3.86h2.33V241.2H180v3.86h2.33V241.2h2.32v3.86H187V241.2h2.33v3.86h2.33V241.2H194v3.86h2.33V241.2h2.33v3.86H201V241.2h2.33v3.86h2.32V241.2H208v3.86h2.33V241.2h2.33v3.86H215V241.2h2.32v3.86h2.33V241.2h2.94l7.21,7.21h35.11v-94ZM239.49,259.18H209.22v-9.9H168.78v2.62H139.09v7.28h-3v3.74H264.86V250.74H247.93Z"/><rect class="cls-2" x="213.52" y="252.9" width="2.33" height="2.33" transform="translate(242.53 -77.39) rotate(45)"/><rect class="cls-2" x="218.32" y="252.9" width="2.33" height="2.33" transform="translate(243.93 -80.78) rotate(45)"/><rect class="cls-2" x="223.12" y="252.9" width="2.33" height="2.33" transform="translate(245.34 -84.18) rotate(45)"/><rect class="cls-2" x="227.92" y="252.9" width="2.33" height="2.33" transform="translate(246.75 -87.57) rotate(45)"/><rect class="cls-2" x="232.72" y="252.9" width="2.33" height="2.33" transform="translate(248.15 -90.97) rotate(45)"/><rect class="cls-2" x="237.52" y="252.9" width="2.33" height="2.33" transform="translate(249.56 -94.36) rotate(45)"/><rect class="cls-2" x="257.82" y="167.42" width="10.09" height="69.06"/><rect class="cls-2" x="96.03" y="7.18" width="37.25" height="2.33"/><rect class="cls-2" x="82.45" y="7.18" width="6.6" height="2.33" transform="translate(171.49 16.68) rotate(180)"/><rect class="cls-2" x="30.65" y="7.18" width="44.81" height="2.33"/><polygon class="cls-2" points="16.12 242.12 67.61 242.12 58.3 232.81 25.43 232.81 25.43 199.94 16.12 190.63 16.12 242.12"/><rect class="cls-2" x="254.72" y="62.76" width="2.62" height="10.48"/><rect class="cls-2" x="254.72" y="76.73" width="2.62" height="10.48"/><path class="cls-2" d="M153.26,18.62v13.2h13.19V18.62Zm10.86,10.87h-8.54V21h8.54Z"/><path class="cls-2" d="M172.27,18.62v13.2h13.19V18.62Zm10.86,10.87H174.6V21h8.53Z"/><path class="cls-2" d="M191.28,18.62v13.2h13.19V18.62Zm10.86,10.87h-8.53V21h8.53Z"/><polygon class="cls-3" points="257.65 46.79 257.65 44.45 255.31 44.45 255.31 42.11 252.97 42.11 252.97 39.77 250.63 39.77 250.63 37.43 248.29 37.43 248.29 35.09 245.95 35.09 245.95 32.75 243.61 32.75 243.61 30.41 241.27 30.41 241.27 28.07 238.93 28.07 238.93 25.73 236.59 25.73 236.59 23.39 234.25 23.39 234.25 21.05 231.91 21.05 231.91 18.7 229.56 18.7 229.56 16.36 227.22 16.36 227.22 14.02 224.88 14.02 224.88 11.68 222.01 11.68 222.01 14.55 224.35 14.55 224.35 16.89 226.7 16.89 226.7 19.23 229.04 19.23 229.04 21.57 231.38 21.57 231.38 23.91 233.72 23.91 233.72 26.25 236.06 26.25 236.06 28.6 238.4 28.6 238.4 30.94 240.74 30.94 240.74 33.28 243.08 33.28 243.08 35.62 245.42 35.62 245.42 37.96 247.76 37.96 247.76 40.3 250.1 40.3 250.1 42.64 252.44 42.64 252.44 44.98 254.78 44.98 254.78 47.32 257.12 47.32 257.12 49.66 259.99 49.66 259.99 46.79 257.65 46.79"/><path class="cls-3" d="M45.39,142.2v-6.79H38v7.37h7.37Zm-6.2-5.63h5v5.05h-5Zm150.15,93.9h42.29V225H189.34Zm1.16-4.27h40v3.1h-40Zm52.38-106.31h6.6v-6.6h-6.6Zm1.17-5.43h4.26v4.27h-4.26Zm-19.4-29.3V79.54h-6.21v6.21h6.21ZM219.6,80.7h3.88v3.88H219.6ZM6.21,52.38H14V18.24H6.21Zm1.16-33H12.8V51.21H7.37Zm100.1,227.75h9.7v-9.7h-9.7Zm1.17-8.54H116V246h-7.37ZM27.94,268.1H69.45v-5.82H27.94Zm1.16-4.65H68.29v3.49H29.1Zm134.63,8.14h6.21v-6.2h-6.21Zm1.17-5h3.88v3.88H164.9Zm97.77-135.41v6.21h6.21v-6.21Zm1.16,1.17h3.88v3.87h-3.88ZM209.13,6.4V0h-7V7h7Zm-5.82-5.24H208V5.82h-4.65ZM0,127.65H6.21v-6.21H0Zm1.16-5.05H5v3.89H1.16Z"/><text class="cls-4" transform="translate(24.74 36.11)">技術<tspan x="0" y="14.4">背景</tspan></text><polygon class="cls-5" points="152.4 207.55 143 207.55 143 187.53 139.33 187.53 139.33 207.55 139.33 211.23 143 211.23 149.42 211.23 152.58 211.23 154.41 211.23 160.04 204.3 163.03 200.62 158.04 200.62 152.4 207.55"/><polygon class="cls-5" points="153.03 200.62 158.01 200.62 163.65 193.69 168.63 187.53 163.64 187.53 153.03 200.62"/><polygon class="cls-5" points="161.88 211.23 165.19 211.23 167.22 211.23 188.88 211.23 188.88 207.55 170.21 207.55 172.86 204.3 172.86 204.3 188.88 204.3 188.88 200.62 175.84 200.62 175.84 200.62 170.5 200.62 170.5 200.62 168.86 200.62 168.86 191.2 188.88 191.2 188.88 187.53 168.86 187.53 165.19 187.53 165.19 191.2 165.19 204.3 167.51 204.3 167.51 204.3 161.88 211.23"/><polygon class="cls-5" points="93.39 204.3 96.38 200.62 91.03 200.62 89.39 202.63 89.39 187.53 85.72 187.53 85.72 207.15 82.41 211.23 87.76 211.23 87.76 211.23 89.39 211.23 109.42 211.23 109.42 207.55 90.74 207.55 93.39 204.3"/><path class="cls-5" d="M116.4,211.23h20v-23.7H112.73v19.61l-3.31,4.07h3.31v0Zm16.35-20v16.35h-15l2.66-3.27,3-3.67H118l-1.64,2V191.2Z"/><path class="cls-5" d="M217.24,111.75c.78-8.45-6.42-10.63-6.42-10.63,3.47,1.76,4.35,9.38-.63,10.52s-8.86-4.15-5.54-11.35-6-13.51-6.22-13.68c.12.28,5.78,13.44-1.25,15.39s-2.64-7.83-2.64-7.83c-7.57,5.88-2,17.35-10.58,21.9a11.74,11.74,0,0,1-9.49.66l-.1,0c-8.41-3.34-7.33-13-2.46-19.88l0,0h0a12,12,0,0,0,2.47-6.58c.78-8.45-6.42-10.62-6.42-10.62,3.47,1.76,4.35,9.38-.62,10.52s-8.87-4.15-5.55-11.35-6-13.51-6.22-13.68c.12.28,5.78,13.44-1.25,15.39s-2.64-7.83-2.64-7.83c-7.57,5.88-2,17.35-10.58,21.9a11.76,11.76,0,0,1-11,0c-8.6-4.55-3-16-10.58-21.9,0,0,4.46,9.8-2.64,7.83s-1.36-15.11-1.25-15.39c-.25.17-9.48,6.57-6.21,13.68s-.57,12.49-5.55,11.35-4.1-8.76-.62-10.52a9.74,9.74,0,0,0-6.43,10.62,12,12,0,0,0,2.48,6.58l0,0c4.86,6.9,6,16.54-2.46,19.88l-.11,0a11.72,11.72,0,0,1-9.48-.66c-8.61-4.55-3-16-10.59-21.9,0,0,4.46,9.8-2.64,7.83s-1.36-15.11-1.24-15.39c-.25.17-9.49,6.57-6.22,13.68s-.57,12.49-5.55,11.35-4.09-8.76-.62-10.52a9.76,9.76,0,0,0-6.43,10.63c.78,8.44,7,8.34,7.36,15.08a6.87,6.87,0,0,1-.08,1.53c-.07.28-.15.57-.21.85A18.09,18.09,0,0,0,66,146.05l25.89,25.88,1,1,1-1,25.88-25.87a18,18,0,0,0,4.16-6.49l10.3,10.29a15,15,0,1,0,3,0l10.29-10.29a18.32,18.32,0,0,0,4.16,6.49l25.89,25.87,1,1,1-1,25.89-25.88a18.14,18.14,0,0,0,4.83-16.84c-.07-.28-.14-.57-.22-.85a6.87,6.87,0,0,1-.08-1.53C210.24,120.09,216.46,120.19,217.24,111.75Zm-101.9,29.94L92.82,164.2,70.3,141.69a11.93,11.93,0,1,1,16.87-16.87l5.66,5.64,5.64-5.64a11.71,11.71,0,0,1,7.8-3.47,18,18,0,0,0,2.51,3.13l10,10A11.81,11.81,0,0,1,115.34,141.69Zm26.66,15h-5.73v-5.56h0C138.65,151.46,140.69,153.56,142,156.67Zm7.26,7.43h-4.49a22.65,22.65,0,0,0-1-6.18h3.68A13.53,13.53,0,0,1,149.26,164.1Zm-12.95,14.24h0v-5.55H142C140.69,175.89,138.65,178,136.31,178.34Zm-7-5.55H135v5.55h0C132.65,178,130.6,175.89,129.29,172.79ZM122,165.35h4.5a22.34,22.34,0,0,0,1,6.19h-3.68A13.46,13.46,0,0,1,122,165.35ZM135,151.11h0v5.56h-5.73C130.6,153.56,132.65,151.46,135,151.11Zm0,6.81v6.18h-7.24a21.53,21.53,0,0,1,1-6.18Zm-8.49,6.18H122a13.42,13.42,0,0,1,1.82-6.18h3.68A22.27,22.27,0,0,0,126.53,164.1Zm1.25,1.25H135v6.19h-6.2A21.6,21.6,0,0,1,127.78,165.35Zm8.49,6.19v-6.19h7.25a21.6,21.6,0,0,1-1.05,6.19Zm8.5-6.19h4.49a13.57,13.57,0,0,1-1.81,6.19h-3.68A22.72,22.72,0,0,0,144.77,165.35Zm-1.25-1.25h-7.25v-6.18h6.2A21.53,21.53,0,0,1,143.52,164.1ZM131,151.92a13.67,13.67,0,0,0-3,4.75h-3.31A13.76,13.76,0,0,1,131,151.92Zm-6.31,20.87H128a13.53,13.53,0,0,0,3,4.74A13.74,13.74,0,0,1,124.66,172.79Zm15.67,4.74a13.66,13.66,0,0,0,3-4.74h3.31A13.71,13.71,0,0,1,140.33,177.53Zm6.3-20.86h-3.31a13.81,13.81,0,0,0-3-4.75A13.73,13.73,0,0,1,146.63,156.67Zm-.26-24.75h0l-10.72,10.71-10.72-10.72-11.8-11.79a11.88,11.88,0,0,1-2.88-4.67,11.91,11.91,0,0,1,2.88-12.2,11.91,11.91,0,0,1,16.87,0l5.65,5.64,5.65-5.65a11.82,11.82,0,0,1,8.43-3.49,12.39,12.39,0,0,1,2.52.27c.24,0,.48.11.71.18l.1,0a12.73,12.73,0,0,1,1.56.58h0a12.19,12.19,0,0,1,2.86,1.83l.05,0,.61.58a6.87,6.87,0,0,1,.58.63l.12.13c.18.21.35.43.52.66l0,0c.16.22.31.45.46.69l.06.09c.15.25.29.49.42.75l0,.07c.08.15.15.3.22.45l.06.14c.06.13.11.26.16.39s.05.13.07.19.09.24.13.36a1.87,1.87,0,0,1,.07.22,3.38,3.38,0,0,1,.11.34l.06.23c0,.11.06.22.08.33l.06.24.06.33a2,2,0,0,1,0,.24c0,.12,0,.23,0,.34l0,.23c0,.12,0,.24,0,.36s0,.14,0,.21,0,.26,0,.39a1.09,1.09,0,0,0,0,.18v.42s0,.1,0,.15,0,.3,0,.45a.49.49,0,0,1,0,.12c0,.16,0,.32-.05.49v.07c0,.18-.05.36-.08.54v0a11.39,11.39,0,0,1-.43,1.72,12.07,12.07,0,0,1-.79,1.86l0,.06-.29.49-.09.16-.26.39-.12.18-.27.35-.13.18c-.1.13-.21.25-.31.37l-.12.14c-.15.17-.31.33-.47.49ZM201,141.69,178.47,164.2,156,141.69a11.88,11.88,0,0,1-3.43-7.22h0l10-10a18.14,18.14,0,0,0,2.5-3.14h0a11.73,11.73,0,0,1,7.8,3.47l5.64,5.64,5.65-5.64A11.93,11.93,0,0,1,201,141.69Z"/><rect class="cls-5" x="85.34" y="135.52" width="1.79" height="14.48"/><rect class="cls-5" x="98.45" y="141.87" width="1.79" height="8.13"/><rect class="cls-5" x="91.9" y="128.97" width="1.79" height="14.9" transform="translate(229.21 43.62) rotate(90)"/><rect class="cls-5" x="91.9" y="135.32" width="1.79" height="14.9" transform="translate(235.56 49.97) rotate(90)"/><rect class="cls-5" x="91.9" y="141.66" width="1.79" height="14.9" transform="translate(241.9 56.32) rotate(90)"/><rect class="cls-5" x="171.48" y="135.52" width="1.79" height="14.48"/><rect class="cls-5" x="184.6" y="141.87" width="1.79" height="8.13"/><rect class="cls-5" x="178.04" y="128.97" width="1.79" height="14.9" transform="translate(315.35 -42.52) rotate(90)"/><rect class="cls-5" x="178.04" y="135.32" width="1.79" height="14.9" transform="translate(321.7 -36.17) rotate(90)"/><rect class="cls-5" x="178.04" y="141.66" width="1.79" height="14.9" transform="translate(328.04 -29.82) rotate(90)"/><rect class="cls-5" x="128.2" y="113.96" width="1.79" height="14.48"/><rect class="cls-5" x="141.31" y="120.31" width="1.79" height="8.13"/><rect class="cls-5" x="134.76" y="107.41" width="1.79" height="14.9" transform="translate(250.51 -20.8) rotate(90)"/><rect class="cls-5" x="134.76" y="113.75" width="1.79" height="14.9" transform="translate(256.85 -14.45) rotate(90)"/><rect class="cls-5" x="134.76" y="120.1" width="1.79" height="14.9" transform="translate(263.2 -8.1) rotate(90)"/></g></g></svg>