<svg xmlns="http://www.w3.org/2000/svg" viewBox="0 0 270.43 276.52"><defs><style>.cls-1{fill:#2c2c30;}.cls-2{fill:#9bf424;}.cls-3{fill:#097f00;}.cls-4{font-size:12px;font-family:MS-UIGothic, MS UI Gothic;}.cls-4,.cls-5,.cls-6{fill:#fff;}.cls-6{font-size:15.7px;font-family:KozGoPr6N-Regular-90ms-RKSJ-H, Kozuka Gothic Pr6N;}</style></defs><g id="Layer_2" data-name="Layer 2"><g id="Layer_2-2" data-name="Layer 2"><path class="cls-1" d="M258.66,244.43H246.31L262.73,228V24.11h-6.68V37.46h-6.67v6.68h-20V37.46H242.7V24.11h13.35V10.75h6.68V7.81H8.21V262.34H48.33v-6.07H55v6.07H262.73v-22ZM23.88,257.69H17.2V251h6.68Zm16.94-6.42H34.14v-6.68h6.68ZM50,251H43.34v-6.67H50ZM60.64,255H54v-6.68h6.67Zm0-17.5H54v-6.68h6.67Zm4.88-9.68H58.9v-6.68h6.67Zm69,16.66,22.12-22.11H169l-22.11,22.11Zm18.62,0,22.12-22.11h12.35l-22.12,22.11Zm18.63,0,22.11-22.11h12.35l-22.12,22.11Zm18.62,0,22.12-22.11H224.9l-22.11,22.11Zm18.62,0,22.12-22.11h12.35l-22.12,22.11Zm18.63,0,22.11-22.11h12.35L240,244.43Z"/><path class="cls-2" d="M19.21,36.53H17.29L38.74,15.08h6l-9.51,9.51H31.15ZM40.36,24.59h4.08L54,15.08h-6L26.49,36.53h1.93Zm9.2,0h4.09l9.51-9.51h-6L35.7,36.53h1.92Zm9.21,0h4.09l9.51-9.51h-6L44.91,36.53h1.92Zm9.21,0h4.09l9.51-9.51h-6L54.12,36.53H56Zm9.21,0h4.08l9.51-9.51h-6L63.32,36.53h1.93Zm9.2,0h4.09L100,15.08H94L72.53,36.53h1.92Zm9.21,0h4.09l9.51-9.51h-6L81.74,36.53h1.92Z"/><polygon class="cls-2" points="258.36 271.69 249.84 263.18 258.36 254.65 253.54 249.83 245.02 258.35 236.5 249.83 231.67 254.65 240.19 263.17 231.67 271.69 236.5 276.52 245.02 268 253.54 276.52 258.36 271.69"/><polygon class="cls-3" points="36.94 63.85 30.82 57.73 36.94 51.6 33.48 48.14 27.36 54.27 21.23 48.15 17.77 51.62 23.89 57.73 17.77 63.86 21.23 67.32 27.36 61.2 33.48 67.32 36.94 63.85"/><path class="cls-3" d="M182.63,36.18a2.19,2.19,0,0,1-2.19,2.18,2.15,2.15,0,0,1-2.07-1.6H138.81l-17,17H63.36l-39,39V229.43H17.84a2.15,2.15,0,0,1-2.07,1.6,2.19,2.19,0,1,1,0-4.37,2.15,2.15,0,0,1,2.07,1.6h5.38v-136L62.87,52.59h58.47l17-17h40a2.15,2.15,0,0,1,2.07-1.6A2.19,2.19,0,0,1,182.63,36.18Z"/><rect class="cls-2" x="256.23" y="40.99" width="6.68" height="6.68"/><rect class="cls-2" x="256.18" y="58.48" width="6.68" height="6.68"/><rect class="cls-2" x="250.54" y="66.48" width="6.68" height="6.68"/><rect class="cls-2" x="221.3" y="76.06" width="6.68" height="6.68"/><rect class="cls-2" x="261.11" y="31.31" width="6.68" height="6.68"/><rect class="cls-2" x="245.55" y="54.55" width="6.68" height="6.68"/><rect class="cls-2" x="236.35" y="54.81" width="6.68" height="6.68"/><rect class="cls-2" x="219.42" y="61.23" width="6.68" height="6.68"/><rect class="cls-2" x="248.84" y="81.16" width="6.68" height="6.68"/><rect class="cls-3" x="20.54" y="5.04" width="41.69" height="5.43"/><rect class="cls-3" x="257.22" y="147.44" width="10.57" height="63.24"/><rect class="cls-3" x="200.2" y="257.69" width="5.43" height="11.58"/><rect class="cls-2" x="129.59" width="5.88" height="23.28"/><rect class="cls-2" x="3.88" y="135.07" width="8.54" height="60.08"/><rect class="cls-2" x="259.57" y="130.75" width="4.88" height="4.88"/><rect class="cls-2" x="267.78" y="93.12" width="2.64" height="26.38"/><rect class="cls-2" x="147.05" y="3.88" width="35.31" height="1.16"/><rect class="cls-2" x="2.33" y="105.92" width="0.78" height="15.52"/><rect class="cls-2" x="1.16" y="64.41" width="1.94" height="26.77"/><rect class="cls-2" y="32.98" width="3.1" height="18.24"/><text class="cls-4" transform="translate(82.07 232.88)">技術<tspan x="0" y="14.4">背景</tspan></text><rect class="cls-5" x="109.79" y="152.68" width="49.13" height="8.19" transform="translate(268.72 313.56) rotate(180)"/><rect class="cls-5" x="47.1" y="150.51" width="51.69" height="8.19" transform="translate(227.55 81.66) rotate(90)"/><rect class="cls-5" x="63.48" y="106.37" width="51.69" height="8.19" transform="translate(199.79 21.14) rotate(90)"/><rect class="cls-5" x="153.55" y="106.37" width="51.69" height="8.19" transform="translate(289.86 -68.93) rotate(90)"/><rect class="cls-5" x="169.93" y="150.51" width="51.69" height="8.19" transform="translate(350.38 -41.17) rotate(90)"/><rect class="cls-5" x="77.04" y="120.57" width="8.19" height="8.19"/><rect class="cls-5" x="85.23" y="188.64" width="98.26" height="8.19" transform="translate(268.72 385.46) rotate(180)"/><rect class="cls-5" x="93.42" y="76.32" width="81.88" height="8.19" transform="translate(268.72 160.84) rotate(180)"/><rect class="cls-5" x="183.49" y="180.45" width="8.19" height="8.19" transform="translate(375.17 369.09) rotate(180)"/><rect class="cls-5" x="77.04" y="180.45" width="8.19" height="8.19" transform="translate(162.27 369.09) rotate(180)"/><rect class="cls-5" x="85.23" y="128.12" width="8.19" height="8.19"/><rect class="cls-5" x="93.42" y="136.31" width="8.19" height="8.19"/><rect class="cls-5" x="101.61" y="144.5" width="8.19" height="8.19"/><rect class="cls-5" x="183.49" y="120.57" width="8.19" height="8.19" transform="translate(375.17 249.33) rotate(180)"/><rect class="cls-5" x="175.3" y="128.12" width="8.19" height="8.19" transform="translate(358.79 264.43) rotate(180)"/><rect class="cls-5" x="167.11" y="136.31" width="8.19" height="8.19" transform="translate(342.41 280.8) rotate(180)"/><rect class="cls-5" x="158.92" y="144.5" width="8.19" height="8.19" transform="translate(326.04 297.18) rotate(180)"/><rect class="cls-5" x="110.39" y="111.7" width="7.69" height="23.04"/><rect class="cls-5" x="135.71" y="111.7" width="7.68" height="23.04"/><rect class="cls-5" x="150.64" y="111.7" width="7.69" height="20.38"/><rect class="cls-5" x="125.32" y="111.7" width="7.69" height="23.04"/><rect class="cls-5" x="117.86" y="120.92" width="7.69" height="19.97" transform="translate(252.6 9.21) rotate(90)"/><rect class="cls-5" x="143.18" y="104.23" width="7.69" height="22.62" transform="translate(262.56 -31.48) rotate(90)"/><rect class="cls-5" x="143.18" y="116.92" width="7.69" height="22.62" transform="translate(275.25 -18.79) rotate(90)"/><polygon class="cls-5" points="97.32 179.96 94.55 179.96 93.42 178.37 93.42 174.45 97.32 179.96"/><polygon class="cls-5" points="100.55 179.96 103.32 179.96 96.27 170 93.5 170 100.55 179.96"/><polygon class="cls-5" points="106.54 179.96 109.32 179.96 102.27 170 99.5 170 106.54 179.96"/><polygon class="cls-5" points="112.54 179.96 115.32 179.96 108.27 170 105.49 170 112.54 179.96"/><polygon class="cls-5" points="118.54 179.96 121.31 179.96 114.27 170 111.49 170 118.54 179.96"/><polygon class="cls-5" points="124.54 179.96 127.31 179.96 120.26 170 117.49 170 124.54 179.96"/><polygon class="cls-5" points="130.54 179.96 133.31 179.96 126.26 170 123.49 170 130.54 179.96"/><polygon class="cls-5" points="136.53 179.96 139.31 179.96 132.26 170 129.49 170 136.53 179.96"/><polygon class="cls-5" points="142.53 179.96 145.31 179.96 138.26 170 135.48 170 142.53 179.96"/><polygon class="cls-5" points="148.53 179.96 151.31 179.96 144.26 170 141.48 170 148.53 179.96"/><polygon class="cls-5" points="154.53 179.96 157.3 179.96 150.25 170 147.48 170 154.53 179.96"/><polygon class="cls-5" points="160.53 179.96 163.3 179.96 156.25 170 153.48 170 160.53 179.96"/><polygon class="cls-5" points="166.53 179.96 169.3 179.96 162.25 170 159.48 170 166.53 179.96"/><polygon class="cls-5" points="172.52 179.96 175.3 179.96 168.25 170 165.47 170 172.52 179.96"/><polygon class="cls-5" points="175.3 171.48 175.3 175.4 171.47 170 174.25 170 175.3 171.48"/><text class="cls-6" transform="translate(98.34 103.6)">ブレーク</text></g></g></svg>