<svg xmlns="http://www.w3.org/2000/svg" viewBox="0 0 265.11 274.01"><defs><style>.cls-1{fill:#2c2c30;}.cls-2{fill:#097f00;}.cls-3{fill:#9bf424;}.cls-4{font-size:12px;font-family:MS-UIGothic, MS UI Gothic;}.cls-4,.cls-5,.cls-7{fill:#fff;}.cls-6{fill:none;stroke:#fff;stroke-miterlimit:10;stroke-width:2.38px;}.cls-7{font-size:9.39px;font-family:KozGoPr6N-Regular-90ms-RKSJ-H, Kozuka Gothic Pr6N;}</style></defs><g id="Layer_2" data-name="Layer 2"><g id="Layer_2-2" data-name="Layer 2"><polygon class="cls-1" points="8.13 10.32 8.13 84.83 22.62 99.31 22.62 183.7 30.48 191.56 30.48 225.6 15.64 225.6 15.64 249.47 8.13 249.47 8.13 264.85 262.65 264.85 262.65 91.36 181.62 10.32 8.13 10.32"/><polygon class="cls-1" points="193.14 10.32 262.65 79.84 262.65 10.32 193.14 10.32"/><path class="cls-2" d="M253.3,99.1,174.93,20.72l-.41-.17H27.86l-.41.17-.17.41V32.77l.17.42.41.17H156.58a2.59,2.59,0,0,0,2.51,2,2.63,2.63,0,1,0,0-5.25,2.59,2.59,0,0,0-2.51,2H28.44V21.72H174.28l78,78V251.21H113.41l-.41.17L93.58,270.81H19.41a2.59,2.59,0,0,0-2.51-2.05,2.63,2.63,0,0,0,0,5.25,2.58,2.58,0,0,0,2.51-2H93.82l.41-.17,19.42-19.42H252.89l.41-.17.17-.42V99.51Z"/><rect class="cls-2" x="5.74" y="32.77" width="4.27" height="27.94"/><rect class="cls-2" x="19.32" y="129.77" width="4.66" height="26.38"/><circle class="cls-3" cx="158.66" cy="242.19" r="3.35"/><circle class="cls-3" cx="175.25" cy="242.19" r="3.35"/><circle class="cls-3" cx="191.83" cy="242.19" r="3.35"/><circle class="cls-3" cx="208.42" cy="242.19" r="3.35"/><circle class="cls-3" cx="225.01" cy="242.19" r="3.35"/><circle class="cls-3" cx="241.59" cy="242.19" r="3.35"/><polygon class="cls-3" points="264.53 161.2 264.53 160.62 260.46 160.62 260.46 110.95 263.95 110.95 263.95 161.2 264.53 161.2 264.53 160.62 264.53 161.2 265.11 161.2 265.11 109.79 259.29 109.79 259.29 161.78 265.11 161.78 265.11 161.2 264.53 161.2"/><polygon class="cls-3" points="53.85 250.44 53.85 249.85 50.56 249.85 50.56 247.14 53.27 247.14 53.27 250.44 53.85 250.44 53.85 249.85 53.85 250.44 54.44 250.44 54.44 245.97 49.39 245.97 49.39 251.02 54.44 251.02 54.44 250.44 53.85 250.44"/><polygon class="cls-3" points="49.2 189.91 49.2 189.33 41.24 189.33 41.24 181.96 48.62 181.96 48.62 189.91 49.2 189.91 49.2 189.33 49.2 189.91 49.78 189.91 49.78 180.79 40.08 180.79 40.08 190.49 49.78 190.49 49.78 189.91 49.2 189.91"/><polygon class="cls-3" points="30.57 81.66 30.57 81.08 23.01 81.08 23.01 74.09 29.99 74.09 29.99 81.66 30.57 81.66 30.57 81.08 30.57 81.66 31.16 81.66 31.16 72.93 21.84 72.93 21.84 82.24 31.16 82.24 31.16 81.66 30.57 81.66"/><polygon class="cls-3" points="247.07 28.51 247.07 27.93 239.12 27.93 239.12 20.55 246.49 20.55 246.49 28.51 247.07 28.51 247.07 27.93 247.07 28.51 247.66 28.51 247.66 19.39 237.96 19.39 237.96 29.09 247.66 29.09 247.66 28.51 247.07 28.51"/><path class="cls-2" d="M55,49.46h-.58a4.85,4.85,0,1,1-4.85-4.85,4.87,4.87,0,0,1,4.85,4.85H55.6a6,6,0,1,0-6,6,6,6,0,0,0,6-6Z"/><path class="cls-2" d="M242.81,186.61h-.59a4.66,4.66,0,1,1-4.65-4.65,4.66,4.66,0,0,1,4.65,4.65h1.17a5.82,5.82,0,1,0-5.82,5.82,5.83,5.83,0,0,0,5.82-5.82Z"/><path class="cls-2" d="M263.37,55.67h-.58a2.91,2.91,0,1,1-2.91-2.91,2.93,2.93,0,0,1,2.91,2.91H264a4.08,4.08,0,1,0-4.07,4.07A4.07,4.07,0,0,0,264,55.67Z"/><path class="cls-2" d="M14.28,224.25H13.7A2.72,2.72,0,1,1,11,221.53a2.72,2.72,0,0,1,2.72,2.72h1.16A3.88,3.88,0,1,0,11,228.13a3.88,3.88,0,0,0,3.88-3.88Z"/><polygon class="cls-2" points="263.06 261.84 257.16 261.84 257.16 255.94 253.82 255.94 253.82 261.84 247.93 261.84 247.93 265.18 253.82 265.18 253.82 271.08 257.16 271.08 257.16 265.18 263.06 265.18 263.06 261.84"/><polygon class="cls-2" points="15.13 8.53 9.23 8.53 9.23 2.63 5.9 2.63 5.9 8.53 0 8.53 0 11.86 5.9 11.86 5.9 17.76 9.23 17.76 9.23 11.86 15.13 11.86 15.13 8.53"/><rect class="cls-2" x="229.81" y="105.72" width="11.06" height="50.05"/><rect class="cls-3" x="222.82" y="140.64" width="11.06" height="15.13"/><rect class="cls-3" x="33.68" y="72.93" width="53.15" height="9.31"/><path class="cls-3" d="M90,0h8.38l-15,15H75Zm33.66,0h-8.38l-15,15h8.38ZM111,0H102.6l-15,15H96Zm63.19,0h-8.38l-15,15h8.38ZM136.25,0h-8.37l-15,15h8.38Zm25.28,0h-8.38l-15,15h8.38ZM148.89,0h-8.38l-15,15h8.37Z"/><text class="cls-4" transform="translate(204.4 207.47)">技術<tspan x="0" y="14.4">背景</tspan></text><path class="cls-5" d="M114.21,139.4c-3.3-8.34-35.77,4.1-9.9-5.44l.34-.13h0c6.38-2.39,7.29-6.08,4.94-8.36-2-1.92-4.64-1.92-7-2.15a1.46,1.46,0,0,1-.73-.2.38.38,0,0,1-.13-.15c-.07-.17.07-.36.2-.47,1.47-1.33,3.86-2.33,4.28-4.81s-2-4.43-3.39-5.62a22.46,22.46,0,0,0-7.26-4.28,14.83,14.83,0,0,0-3.79-.76,14.52,14.52,0,0,0-7.61,1.59,26.63,26.63,0,0,0-8.54,7.44,49.45,49.45,0,0,0-6.33,10.76A48.92,48.92,0,0,0,65.82,138c-.47,2.72-.79,5.91.11,8.56a4,4,0,0,0,4.31,3.05c3.63-.36,5.79-3.44,7.29-7.74,0,0,0-.08,0-.12.6-1.88,1.24-4.59,1.8-7.26.09-.45.22-1.17.3-1.58l.6-3.15c.26-1.34.51-2.68.78-4v-.09s0,0,0,0c.2-1,.4-1.92.61-2.87.88-4,2.08-8.47,4.82-11.13,3-3,8.4-2.33,11.46.29a5.13,5.13,0,0,1,2,4.24c-.22,2.25-2.16,3.68-3.67,4.54a26.21,26.21,0,0,0-4.32,3c-.88.75-3,2.57-1.82,4.09.62.8,2,1,2.84,1.14a9.07,9.07,0,0,0,3.2.1c-.94.24-1.89.44-2.83.63l-3.53.69-.39.08-.21.05c-7,1.73-13.51,10.79-.65,16.21.78.3,1.61.61,2.49.9C106.86,152.85,117.52,147.74,114.21,139.4Z"/><path class="cls-5" d="M116.45,110.79a3,3,0,0,0-3,3v32.85a3,3,0,0,0,3,3H145.6A2.39,2.39,0,0,0,148,147.3v-.14a2.39,2.39,0,0,0-2.38-2.38H130.47a2.37,2.37,0,0,1-2.38-2.38h0a2.38,2.38,0,0,1,2.38-2.38H145.6a2.39,2.39,0,0,0,2.38-2.38v-.14a2.38,2.38,0,0,0-2.38-2.38H130.47a2.38,2.38,0,0,1-2.38-2.38V118.07a2.38,2.38,0,0,1,2.38-2.38H145.6a2.39,2.39,0,0,0,2.38-2.38v-.14a2.38,2.38,0,0,0-2.38-2.38H116.45Z"/><path class="cls-5" d="M156.1,110.79a4.85,4.85,0,0,0-4.85,4.85v29.2a4.86,4.86,0,0,0,4.85,4.85H181a4.85,4.85,0,0,0,4.85-4.85V115.69h0a4.85,4.85,0,0,0-4.83-4.85l-15.06,0Zm24.81,9.75v19.39a4.85,4.85,0,0,1-4.85,4.85h-5.29a4.85,4.85,0,0,1-4.85-4.85V120.54a4.85,4.85,0,0,1,4.85-4.85h5.29A4.85,4.85,0,0,1,180.91,120.54Z"/><path class="cls-5" d="M79.68,129.37s0,0,0,0a.1.1,0,0,0,0,0Z"/><path class="cls-6" d="M73,180.8h0a6.12,6.12,0,0,1,1.76-9.55h0a44.76,44.76,0,0,1,18-4.84l66.88-3.48a29.72,29.72,0,0,1,17.56,4.62h0a6.85,6.85,0,0,1,3,7.46h0a13.2,13.2,0,0,1-12.8,10h-85A12.68,12.68,0,0,1,73,180.8Z"/><circle class="cls-6" cx="92.5" cy="177.25" r="7.75" transform="translate(-97.07 113.69) rotate(-43.91)"/><path class="cls-6" d="M96.84,177.25a4.35,4.35,0,1,1-4.34-4.35A4.34,4.34,0,0,1,96.84,177.25Z"/><path class="cls-6" d="M163.53,177.25a4.35,4.35,0,1,1-4.35-4.35A4.35,4.35,0,0,1,163.53,177.25Z"/><circle class="cls-6" cx="159.18" cy="177.25" r="7.75" transform="translate(-41.99 304.87) rotate(-80.47)"/><path class="cls-6" d="M97.45,166.16l11.88-5.51a55.77,55.77,0,0,1,23.47-5.18h0A55.94,55.94,0,0,1,149,157.86l19.84,6"/><path class="cls-6" d="M99.63,166.05l13.43,11.45a15.23,15.23,0,0,0,9.87,3.63h29.55"/><path class="cls-6" d="M163.19,163l11.34-4.65A3.68,3.68,0,0,1,178.8,164l-2.42,3"/><line class="cls-6" x1="71.44" y1="175.95" x2="84.86" y2="175.95"/><line class="cls-6" x1="100.24" y1="175.95" x2="151.55" y2="175.95"/><line class="cls-6" x1="166.82" y1="175.95" x2="179.92" y2="175.95"/><polygon class="cls-5" points="124.39 172.49 122.96 172.49 122.38 171.67 122.38 169.66 124.39 172.49"/><polygon class="cls-5" points="126.05 172.49 127.47 172.49 123.85 167.37 122.42 167.37 126.05 172.49"/><polygon class="cls-5" points="129.13 172.49 130.56 172.49 126.94 167.37 125.51 167.37 129.13 172.49"/><polygon class="cls-5" points="132.22 172.49 133.65 172.49 130.02 167.37 128.59 167.37 132.22 172.49"/><polygon class="cls-5" points="135.3 172.49 136.73 172.49 133.1 167.37 131.68 167.37 135.3 172.49"/><polygon class="cls-5" points="138.39 172.49 139.81 172.49 136.19 167.37 134.76 167.37 138.39 172.49"/><polygon class="cls-5" points="141.47 172.49 142.9 172.49 139.28 167.37 137.85 167.37 141.47 172.49"/><polygon class="cls-5" points="144.56 172.49 145.99 172.49 142.36 167.37 140.93 167.37 144.56 172.49"/><polygon class="cls-5" points="147.61 172.49 149.04 172.49 145.41 167.37 143.99 167.37 147.61 172.49"/><polygon class="cls-5" points="149.04 168.13 149.04 170.15 147.07 167.37 148.5 167.37 149.04 168.13"/><line class="cls-6" x1="129.15" y1="155.47" x2="143.46" y2="163.77"/><line class="cls-6" x1="112.42" y1="159.33" x2="108.09" y2="165.61"/><line class="cls-6" x1="92.5" y1="172.9" x2="92.5" y2="181.6"/><line class="cls-6" x1="159.18" y1="172.9" x2="159.18" y2="181.6"/><text class="cls-7" transform="translate(65.21 199.75)">サイバーワイヤーシティ</text></g></g></svg>