<svg xmlns="http://www.w3.org/2000/svg" viewBox="0 0 295.09 282.22"><defs><style>.cls-1{fill:#2c2c30;}.cls-2{fill:#9bf424;}.cls-3{fill:#097f00;}.cls-4{font-size:12px;font-family:MS-UIGothic, MS UI Gothic;}.cls-4,.cls-5,.cls-6{fill:#fff;}.cls-6{font-size:19.34px;font-family:KozGoPr6N-Regular-90ms-RKSJ-H, Kozuka Gothic Pr6N;}</style></defs><g id="Layer_2" data-name="Layer 2"><g id="Layer_2-2" data-name="Layer 2"><polygon class="cls-1" points="273.79 133.03 273.79 14.36 238.52 14.36 238.52 0.34 162.33 0.34 162.33 14.36 63.7 14.36 63.7 37.59 39.7 37.59 39.7 14.36 19.27 14.36 19.27 268.88 39.7 268.88 39.7 278.73 78.34 278.73 78.34 268.88 231.05 268.88 231.05 238.96 255.75 238.96 255.75 268.88 273.79 268.88 273.79 218 283.43 218 283.43 133.03 273.79 133.03"/><path class="cls-2" d="M91.2,0l3,3-3,3L88.25,3Zm5.65,3,3,3,3-2.95L99.8,0Zm8.6,0,3,3L111.34,3,108.4,0Zm8.6,0,2.94,3,3-2.95L117,0Zm8.59,0,3,3L128.54,3,125.59,0ZM134.19,0l-2.95,3,2.95,3L137.14,3Z"/><path class="cls-2" d="M124.46,262.87h-2.15l23.93-23.93h6.7l-10.6,10.61h-4.56Zm23.59-13.32h4.56l10.6-10.61h-6.7l-23.93,23.93h2.15Zm10.27,0h4.56l10.61-10.61h-6.71l-23.92,23.93H145Zm10.27,0h4.56l10.61-10.61h-6.71l-23.92,23.93h2.14Zm10.27,0h4.56L194,238.94h-6.71L163.4,262.87h2.14Zm10.27,0h4.56l10.61-10.61h-6.71l-23.92,23.93h2.14Zm10.27,0H204l10.61-10.61h-6.71l-23.92,23.93h2.14Zm10.27,0h4.56l10.61-10.61h-6.71l-23.92,23.93h2.14Z"/><path class="cls-3" d="M196.7,9.24h9.79L189,26.78h-9.79Zm39.32,0h-9.79L208.7,26.78h9.78Zm-14.77,0h-9.79L193.93,26.78h9.79Zm73.84,0H285.3L267.76,26.78h9.79Zm-44.3,0H241L223.46,26.78h9.79Zm29.53,0h-9.79L253,26.78h9.78Zm-14.77,0h-9.79L238.23,26.78H248Z"/><polygon class="cls-3" points="11.93 144.09 3.49 144.09 0 144.09 0 147.58 0 156.02 3.49 156.02 3.49 147.58 11.93 147.58 11.93 144.09"/><rect class="cls-3" x="7.27" y="150.93" width="4.66" height="46.85"/><rect class="cls-3" x="280.32" y="66.11" width="3.11" height="47.14"/><rect class="cls-3" x="280.32" y="197.78" width="5.99" height="5.99"/><rect class="cls-3" x="82.35" y="9.24" width="69" height="8.77"/><rect class="cls-2" x="87.3" y="275.91" width="37.25" height="2.81"/><rect class="cls-2" x="132.58" y="275.91" width="37.94" height="2.81"/><rect class="cls-2" x="181.29" y="277.32" width="28.23" height="1.41"/><rect class="cls-2" x="222.03" y="277.32" width="16.3" height="1.41"/><rect class="cls-2" x="34.63" y="94.91" width="9.31" height="9.31"/><rect class="cls-2" x="276.44" y="168.73" width="6.98" height="6.98"/><rect class="cls-2" x="260.15" y="217.23" width="6.51" height="6.51"/><rect class="cls-3" x="34.63" y="220.48" width="118.5" height="3.26"/><polyline class="cls-2" points="252.19 37.3 252.19 164.37 252.78 164.37 252.78 37.3"/><polyline class="cls-2" points="258.46 37.3 258.46 164.37 259.04 164.37 259.04 37.3"/><polyline class="cls-2" points="264.72 37.3 264.72 164.37 265.3 164.37 265.3 37.3"/><rect class="cls-2" x="47.72" y="26.78" width="6.79" height="39.33"/><rect class="cls-3" x="264.72" y="250.91" width="3.04" height="31.31"/><text class="cls-4" transform="translate(42.69 195.43)">技術<tspan x="0" y="14.4">背景</tspan></text><path class="cls-5" d="M204,101.11c-16.89,1.45-10.13-7.68-19.82-.74s-5-3.9.54-7.05,11,8.17,11.33-6.43-5.49-20-10-7-6.35,5.37-8.35,13.58c-1.27,5.18-8.31,3.87-2.84-5.81S169.27,68,164.41,81.57c-4.78,13.35,11.82,18.9,1.85,30.86-.17-4.49-2.93-6.82-10.26-2.57-15.79,9.16-18.22,14.26-10.46,11.43s-1.56,4.08-6.66,7.17-10.14-1.48-1.62-8.87,10.25-13.57,5.1-11.2-3-2.35,4.67-7.65,14.1-20.64-1.25-16.89a34.89,34.89,0,0,0-16.3,8.56h0a40.89,40.89,0,0,0-7.09,7.65c2.66-9.31,3.57-20.92-3.53-9.33-8.28,13.52-7.89,16.46-10.22,18.55-2.83,2.54-2.77-.8-1.2-3.69s-1.19-4.13-3.38-3.57-4.23-2.35-2.27-4.65c8.35-6.83,9-20.19-5.92-12.87S78.1,95,89.33,90.49c9.2-3.66,5.25,1.14,3.52,3q-.33.32-.63.66l0,0h0c-4,4.72-2.92,14.38,2.31,14.5,6,.14,11.6-5.2,10-1.09s-6.5,11.68-1.7,8.91,7.66-7.4,4.28-.67c-1.43,2.84-3.82,6.29-6.06,9.87l0,0c-5.13,8.14-7.44,7.18-6.33,3,1.91-7.22,7-16.91-.06-8.86s-6.66,25.1,6.61,23.78h0c5.25-.38,12.17-4.83,11.71-11.7-.73-10.77-.44-30.92.76-25.23.87,4.13,2.41,5.87,4.55,3-.67,5.3,2.12,8.75,7.57,7.75,7.67-1.39,4.47-9,10.36-14.92,6.35-5.52,10.56-7,10.56-7-6.17,6.66-17.36,16.17-11.54,16.81s-12.51,7.49-10.83,19.76,25.85,8.45,35.2-2.24a25.79,25.79,0,0,0,3.31-5c2.68,2.83,8.89,2.93,13.47-.2,8.25-5.63-10.35-17.43-1-24.18,4.42-3.2-5.59,14.18,6.1,6.86,6.66-4.18,3.61,3.53,2.3,9.59-1.06,3.76-6.68,22.57,6.4,19.6,18.4-4.17,19.67-15.12,6.67-11.27s-14,.89-3.71-5.76h0C205.87,111.72,219.16,99.81,204,101.11Z"/><path class="cls-5" d="M205.39,85c-4.71,2.76-7.19,7.3-5.53,10.13s6.83,2.9,11.55.14,7.19-7.29,5.53-10.13S210.11,82.19,205.39,85Z"/><path class="cls-5" d="M149.1,103.75c-.27.18-.53.37-.77.55l-1,.74.73,1,.14.21a4.84,4.84,0,0,1,.66,1.6l.37,1.82,1.57-1c1.06-.65,2.21-1.33,3.41-2h0c1.59-.93,5.83-3.39,9.8-2.58l2.15.43-.66-2.09a30.12,30.12,0,0,0-2-4.37,36.87,36.87,0,0,1-2.83-6.56l-1.2-4.11-1.27,4.09A25.48,25.48,0,0,1,149.1,103.75Zm10.23-8.27c.61,1.42,1.26,2.69,1.84,3.8.39.75.75,1.45,1.06,2.1-4.1,0-7.81,2.19-9.36,3.09-.64.37-1.26.73-1.86,1.1A28.52,28.52,0,0,0,159.33,95.48Z"/><path class="cls-5" d="M222.32,81.94c-3.51-6-12.14-7-20.08-2.37l-.26.16c-1-7.72-4.18-12.44-9-13.31-3.5-.63-8.28.54-11.89,9.11a13,13,0,0,0-.89-1.53,11.07,11.07,0,0,0-10.64-5.21c-2.82.35-8,2.2-11,10.68-.07.19-.14.38-.2.57-2.28-2.21-6.47-4.1-14-2.24a43.54,43.54,0,0,0-14.51,6.33A7.11,7.11,0,0,0,126,80.21c-1.36-.6-4.93-1.59-8.65,2.09a26.44,26.44,0,0,0-3.51,4.61,11.1,11.1,0,0,0-1.65-6.15c-1.65-2.57-6.81-7.89-19.11-1.87C88.7,81.06,85,83,82.46,84.55a30.69,30.69,0,0,0-3.16,2.13c-4.24,3.38-3,7.19-2.52,8.28.58,1.32,2.39,4.17,7,3.75a17.51,17.51,0,0,0,1.17,9.55,11.15,11.15,0,0,0,6.28,6.06c-.45.48-.87,1-1.26,1.4-6.14,7-7.89,18.41-4,26a14.67,14.67,0,0,0,9,7.56l.12,0c.89.21,8.88,2,16-2.69a17.49,17.49,0,0,0,7.77-10.87c1.52,4.42,5.12,7.71,10.19,9.23a27.53,27.53,0,0,0,10.6.81c9.49-.94,19.15-5.59,24.61-11.83.32-.37.64-.75,1-1.16a18.79,18.79,0,0,0,10.37-.83,13.47,13.47,0,0,0,3.38,7.58c1.75,1.84,4.93,3.93,10.17,3.41a17.82,17.82,0,0,0,2.36-.38c10.72-2.43,18.12-7.38,19.8-13.24a8.35,8.35,0,0,0-2.09-8.37,9.2,9.2,0,0,0-3.87-2.26c1.72-1.3,3.28-2.59,4.61-3.78,4.05-3.66,8.48-8.57,6.69-14.1a8.58,8.58,0,0,0-.43-1l-.1-.14C222.91,94.88,225.59,87.53,222.32,81.94ZM118.87,125c0-.75,0-1.48-.05-2.17.24.11.49.21.75.31A16.81,16.81,0,0,0,118.87,125Zm94.6-26.71-1,.56a16,16,0,0,1,1.4,2.07,5.7,5.7,0,0,1,.29.72c1.33,4.11-2.49,8.24-6,11.38a76.89,76.89,0,0,1-6.87,5.42l-3.11,2.2,3.8.14a7.72,7.72,0,0,1,5.35,2,5.83,5.83,0,0,1,1.43,5.83c-1.42,4.94-8.11,9.21-17.89,11.43a16.38,16.38,0,0,1-2,.34c-4.2.41-6.69-1.2-8-2.63-1.7-1.79-2.66-4.4-2.84-7.74l-.11-1.92-1.73.83A16.3,16.3,0,0,1,165,130.07l-.87-.24-.52.73a19.25,19.25,0,0,1-1.32,1.66c-5.06,5.79-14,10.09-22.93,11a25.12,25.12,0,0,1-9.59-.71c-5.1-1.53-8.4-5.15-9.05-9.93a15.61,15.61,0,0,1,1.78-9.67l.78-1.49-1.65-.36a9.22,9.22,0,0,1-3.4-1.53L116.19,118l0,2.58c0,2.89.11,7.17.37,11.1.34,5-2.24,9.74-6.91,12.78-6.09,4-13.13,2.53-13.9,2.35l-.08,0a12.09,12.09,0,0,1-7.47-6.26c-3.44-6.68-1.83-16.82,3.68-23.11a24.18,24.18,0,0,1,2.75-2.81l2.43-2-3.14-.27a8.1,8.1,0,0,1-6.67-5.09,15.26,15.26,0,0,1-.72-9.47l.28-1.22L84.66,96l-.29.06c-2.63.51-4.39-.2-5.23-2.1-.47-1-.85-3.12,1.77-5.21a26.57,26.57,0,0,1,2.88-1.93c2.49-1.51,6.11-3.43,10.47-5.56,10.43-5.11,14.52-1,15.8,1,2.34,3.65,1.26,9.67-2.63,14.63l-1,1.34,1.56.65c.2.09.39.17.55.26l1.16.62.6-1.17c1.53-3,3.32-6.15,5.48-9.68a24.82,24.82,0,0,1,3.47-4.67c2.5-2.48,4.7-2,5.79-1.56a4.9,4.9,0,0,1,2.81,3.91l.41,2.09,1.66-1.33.14-.11.16-.11h0a40.57,40.57,0,0,1,14.74-6.72c8-2,11.44.67,12.88,3.23l1.73,3.08.66-3.47a19.66,19.66,0,0,1,.78-2.8c2.57-7.18,6.69-8.71,8.93-9l.18,0a8.61,8.61,0,0,1,8,4.1,11.61,11.61,0,0,1,1.74,4.16l.93,4.39,1.55-4.21.39-1.09c1.7-4.94,4.79-10.63,9.87-9.72,3.7.67,6.17,4.82,6.95,11.69l.15,4s.2-.15,1.36-1.09a19.38,19.38,0,0,1,2.54-1.76,18.21,18.21,0,0,1,7.3-2.5c4-.4,7.5,1,9.25,3.94C222.83,87.92,220,94.33,213.47,98.25Z"/><text class="cls-6" transform="translate(120.86 164.34)">キッズ</text></g></g></svg>