<svg xmlns="http://www.w3.org/2000/svg" viewBox="0 0 268.88 271.59"><defs><style>.cls-1{fill:#2c2c30;}.cls-2{fill:#097f00;}.cls-3{fill:#9bf424;}.cls-4{font-size:12px;font-family:MS-UIGothic, MS UI Gothic;}.cls-4,.cls-6{fill:#fff;}.cls-5{fill:#56f163;}.cls-7{fill:none;stroke:#fff;stroke-miterlimit:10;stroke-width:1.41px;}</style></defs><g id="Layer_2" data-name="Layer 2"><g id="Layer_2-2" data-name="Layer 2"><path class="cls-1" d="M79.73,253.07l7.52-7.52v17.37H10.34v-8.3h4.21v-1.55ZM258.21,147.73V95.64H253v-46L224.16,20.85H216V13.29H198.26V8.4H162.57v2.66h21.72v1.65H152.38l-3.2,3.2H130.36V12H98.16v3.49H92.54V11.45H51.41v3.68h-27L17.71,8.4H10.34V58.78H23v3.88H10.34v5.63H23v3.88H10.34v5.62H23v3.88H10.34V87.3H23v3.88H10.34V96.8H23v3.88H10.34v5.63H23v3.88H10.34v138h4.21v1.7H66.94l8.72-8.72h64.6v5.47h21V241.2h4.85v3.86h2.33V241.2h2.33v3.86H173V241.2h2.33v3.86h2.33V241.2H180v3.86h2.33V241.2h2.32v3.86H187V241.2h2.33v3.86h2.33V241.2H194v3.86h2.33V241.2h2.33v3.86H201V241.2h2.33v3.86h2.32V241.2H208v3.86h2.33V241.2h2.33v3.86H215V241.2h2.32v3.86h2.33V241.2h2.94l7.21,7.21h35.11v-94ZM239.49,259.18H209.22v-9.9H168.78v2.62H139.09v7.28h-3v3.74H264.86V250.74H247.93Z"/><rect class="cls-2" x="213.52" y="252.9" width="2.33" height="2.33" transform="translate(242.53 -77.39) rotate(45)"/><rect class="cls-2" x="218.32" y="252.9" width="2.33" height="2.33" transform="translate(243.93 -80.78) rotate(45)"/><rect class="cls-2" x="223.12" y="252.9" width="2.33" height="2.33" transform="translate(245.34 -84.18) rotate(45)"/><rect class="cls-2" x="227.92" y="252.9" width="2.33" height="2.33" transform="translate(246.75 -87.57) rotate(45)"/><rect class="cls-2" x="232.72" y="252.9" width="2.33" height="2.33" transform="translate(248.15 -90.97) rotate(45)"/><rect class="cls-2" x="237.52" y="252.9" width="2.33" height="2.33" transform="translate(249.56 -94.36) rotate(45)"/><rect class="cls-2" x="257.82" y="167.42" width="10.09" height="69.06"/><rect class="cls-2" x="96.03" y="7.18" width="37.25" height="2.33"/><rect class="cls-2" x="82.45" y="7.18" width="6.6" height="2.33" transform="translate(171.49 16.68) rotate(180)"/><rect class="cls-2" x="30.65" y="7.18" width="44.81" height="2.33"/><polygon class="cls-2" points="16.12 242.12 67.61 242.12 58.3 232.81 25.43 232.81 25.43 199.94 16.12 190.63 16.12 242.12"/><rect class="cls-2" x="254.72" y="62.76" width="2.62" height="10.48"/><rect class="cls-2" x="254.72" y="76.73" width="2.62" height="10.48"/><path class="cls-2" d="M153.26,18.62v13.2h13.19V18.62Zm10.86,10.87h-8.54V21h8.54Z"/><path class="cls-2" d="M172.27,18.62v13.2h13.19V18.62Zm10.86,10.87H174.6V21h8.53Z"/><path class="cls-2" d="M191.28,18.62v13.2h13.19V18.62Zm10.86,10.87h-8.53V21h8.53Z"/><polygon class="cls-3" points="257.65 46.79 257.65 44.45 255.31 44.45 255.31 42.11 252.97 42.11 252.97 39.77 250.63 39.77 250.63 37.43 248.29 37.43 248.29 35.09 245.95 35.09 245.95 32.75 243.61 32.75 243.61 30.41 241.27 30.41 241.27 28.07 238.93 28.07 238.93 25.73 236.59 25.73 236.59 23.39 234.25 23.39 234.25 21.05 231.91 21.05 231.91 18.7 229.56 18.7 229.56 16.36 227.22 16.36 227.22 14.02 224.88 14.02 224.88 11.68 222.01 11.68 222.01 14.55 224.35 14.55 224.35 16.89 226.7 16.89 226.7 19.23 229.04 19.23 229.04 21.57 231.38 21.57 231.38 23.91 233.72 23.91 233.72 26.25 236.06 26.25 236.06 28.6 238.4 28.6 238.4 30.94 240.74 30.94 240.74 33.28 243.08 33.28 243.08 35.62 245.42 35.62 245.42 37.96 247.76 37.96 247.76 40.3 250.1 40.3 250.1 42.64 252.44 42.64 252.44 44.98 254.78 44.98 254.78 47.32 257.12 47.32 257.12 49.66 259.99 49.66 259.99 46.79 257.65 46.79"/><path class="cls-3" d="M45.39,142.2v-6.79H38v7.37h7.37Zm-6.2-5.63h5v5.05h-5Zm150.15,93.9h42.29V225H189.34Zm1.16-4.27h40v3.1h-40Zm52.38-106.31h6.6v-6.6h-6.6Zm1.17-5.43h4.26v4.27h-4.26Zm-19.4-29.3V79.54h-6.21v6.21h6.21ZM219.6,80.7h3.88v3.88H219.6ZM6.21,52.38H14V18.24H6.21Zm1.16-33H12.8V51.21H7.37Zm100.1,227.75h9.7v-9.7h-9.7Zm1.17-8.54H116V246h-7.37ZM27.94,268.1H69.45v-5.82H27.94Zm1.16-4.65H68.29v3.49H29.1Zm134.63,8.14h6.21v-6.2h-6.21Zm1.17-5h3.88v3.88H164.9Zm97.77-135.41v6.21h6.21v-6.21Zm1.16,1.17h3.88v3.87h-3.88ZM209.13,6.4V0h-7V7h7Zm-5.82-5.24H208V5.82h-4.65ZM0,127.65H6.21v-6.21H0Zm1.16-5.05H5v3.89H1.16Z"/><text class="cls-4" transform="translate(24.74 36.11)">技術<tspan x="0" y="14.4">背景</tspan></text><path class="cls-5" d="M93.15,117.42,92,116.36c1.14.19,2.26.41,3.37.65a1.06,1.06,0,0,1-.53.49,1.36,1.36,0,0,1-.78.08Z"/><path class="cls-5" d="M85.24,121.94a1.34,1.34,0,0,1,1.23-1l1,0,1.26.91C87.56,121.82,86.4,121.86,85.24,121.94Z"/><path class="cls-5" d="M92,119.47c0-.14.1-.28.16-.41l.19-.41c-1-.81-1.88-1.65-2.8-2.53l-.41.89C90.08,117.86,91,118.68,92,119.47Z"/><path class="cls-5" d="M92.48,118.37l.37-.81c-1.44-1.32-2.82-2.7-4.18-4.17a1.38,1.38,0,0,0,.2,1.6C90,116.16,91.25,117.3,92.48,118.37Z"/><path class="cls-5" d="M92.59,124a1.22,1.22,0,0,0-.55-1.32c-1.35-.91-2.69-1.87-4-2.9l-.31.93C89.29,121.87,90.94,123,92.59,124Z"/><path class="cls-5" d="M91.57,120.59l.33-.83c-1-.78-2-1.6-2.88-2.44-.14.3-.26.6-.38.91C89.6,119.05,90.58,119.83,91.57,120.59Z"/><path class="cls-5" d="M91.18,121.72l.28-.85c-1-.74-2-1.52-2.95-2.33l-.36.91C89.14,120.24,90.16,121,91.18,121.72Z"/><path class="cls-6" d="M98.35,106l.66.65a40.41,40.41,0,0,0-3.89,4.58c-.29.42-.6.81-.86,1.24l-.82,1.26L92.69,115c-.13.21-.24.44-.35.66l-.35.67-.69-.68A38.64,38.64,0,0,1,98.35,106Z"/><path class="cls-5" d="M89.57,122.4l-.38,1.32c-.11.44-.2.88-.31,1.31h-.95c.23-1.07.51-2.13.83-3.18Z"/><path class="cls-6" d="M113.86,99.07c0-.51,0-1,0-1.54.67.93,1.31,1.87,1.93,2.84a1.29,1.29,0,0,1-.73,0,1.38,1.38,0,0,1-.6-.48Z"/><path class="cls-6" d="M105.08,96.67a1.34,1.34,0,0,1,1.59.16l.7.67c.08.52.16,1,.25,1.54C106.79,98.22,106,97.44,105.08,96.67Z"/><path class="cls-6" d="M111.6,99.71l.83-.33c-.09-1.24-.17-2.52-.19-3.77-.31.1-.61.23-.92.35C111.38,97.22,111.48,98.47,111.6,99.71Z"/><path class="cls-6" d="M112.72,99.27l.41-.17.43-.14c0-1-.07-1.95-.07-2.94s0-2,.06-3a1.36,1.36,0,0,0-.72.48,1.4,1.4,0,0,0-.28.78C112.55,96,112.6,97.61,112.72,99.27Z"/><path class="cls-6" d="M108.82,103.32a1.22,1.22,0,0,0,.55-1.32c-.31-1.59-.59-3.24-.78-4.88-.3.13-.59.29-.88.44C108,99.51,108.36,101.42,108.82,103.32Z"/><path class="cls-6" d="M110.51,100.2l.81-.37c-.14-1.25-.24-2.48-.31-3.75l-.91.36C110.2,97.71,110.34,99,110.51,100.2Z"/><path class="cls-6" d="M109.43,100.71c.26-.13.53-.27.8-.39-.18-1.23-.33-2.48-.44-3.74l-.89.4c.07.63.14,1.25.23,1.87S109.32,100.1,109.43,100.71Z"/><path class="cls-6" d="M125.66,94.64v.93a40.12,40.12,0,0,0-6,.48,36.83,36.83,0,0,0-5.84,1.42v-1a40.48,40.48,0,0,1,5.85-1.4A43.05,43.05,0,0,1,125.66,94.64Z"/><path class="cls-6" d="M99,106.6l-.66-.65a42.29,42.29,0,0,1,4.38-3.77,40.72,40.72,0,0,1,4.9-3.08l.18,1a40.85,40.85,0,0,0-4.64,3A43,43,0,0,0,99,106.6Z"/><path class="cls-6" d="M141.48,100.74c.35-.38.7-.75,1.06-1.12-.19,1.14-.4,2.26-.64,3.37a1,1,0,0,1-.5-.53,1.33,1.33,0,0,1-.08-.77Z"/><path class="cls-6" d="M137,92.83a1.34,1.34,0,0,1,1,1.23v1c-.31.41-.61.83-.9,1.25C137.08,95.15,137,94,137,92.83Z"/><path class="cls-6" d="M139.43,99.6l.42.17.4.18c.81-1,1.66-1.88,2.53-2.8l-.89-.4C141,97.68,140.23,98.62,139.43,99.6Z"/><path class="cls-6" d="M140.53,100.08l.82.36q2-2.14,4.16-4.17a1.36,1.36,0,0,0-1.59.19C142.75,97.61,141.61,98.84,140.53,100.08Z"/><path class="cls-6" d="M134.91,100.19a1.25,1.25,0,0,0,1.33-.56c.9-1.35,1.87-2.68,2.89-4l-.93-.31C137,96.89,135.93,98.53,134.91,100.19Z"/><path class="cls-6" d="M138.32,99.16l.83.33c.78-1,1.59-2,2.43-2.88-.29-.14-.6-.26-.9-.38C139.86,97.19,139.07,98.17,138.32,99.16Z"/><path class="cls-6" d="M137.18,98.77l.85.28c.75-1,1.52-2,2.33-2.94l-.91-.36C138.66,96.74,137.91,97.75,137.18,98.77Z"/><path class="cls-6" d="M153,106l-.66.65a39.55,39.55,0,0,0-4.58-3.89c-.41-.29-.81-.59-1.23-.86l-1.27-.81-1.3-.76c-.22-.12-.44-.24-.67-.35l-.67-.35.68-.69A39,39,0,0,1,153,106Z"/><path class="cls-6" d="M125.66,95.57v-.93a42.82,42.82,0,0,1,5.76.43,41.69,41.69,0,0,1,5.63,1.28l-.55.81-1.32-.38-1.34-.31c-.22,0-.44-.11-.67-.15l-.68-.12c-.45-.08-.9-.18-1.35-.23A40.29,40.29,0,0,0,125.66,95.57Z"/><path class="cls-5" d="M159.83,121.46c.51,0,1,0,1.55,0-.94.67-1.87,1.31-2.85,1.93a1.22,1.22,0,0,1,0-.73,1.25,1.25,0,0,1,.48-.6Z"/><path class="cls-5" d="M162.23,112.67a1.3,1.3,0,0,1-.16,1.59l-.67.7-1.53.25C160.68,114.38,161.47,113.54,162.23,112.67Z"/><path class="cls-5" d="M159.2,119.2l.32.83c1.25-.1,2.52-.17,3.77-.2-.1-.31-.23-.61-.34-.91C161.68,119,160.43,119.07,159.2,119.2Z"/><path class="cls-5" d="M159.64,120.31l.16.42.14.42c1,0,2-.07,2.94-.07s2,0,3,.06a1.32,1.32,0,0,0-.49-.72,1.29,1.29,0,0,0-.78-.27C162.92,120.14,161.29,120.19,159.64,120.31Z"/><path class="cls-5" d="M155.58,116.42a1.25,1.25,0,0,0,1.32.55c1.6-.32,3.25-.59,4.88-.79-.13-.3-.29-.59-.44-.88C159.39,115.59,157.49,116,155.58,116.42Z"/><path class="cls-5" d="M158.71,118.1l.36.81c1.26-.14,2.49-.24,3.75-.31l-.36-.91C161.2,117.79,159.94,117.93,158.71,118.1Z"/><path class="cls-5" d="M158.19,117c.14.26.27.53.39.8,1.23-.18,2.48-.32,3.74-.44l-.4-.89-1.87.23Q159.12,116.86,158.19,117Z"/><path class="cls-5" d="M163.38,125h-.95c-.27-1.22-.61-2.43-1-3.62h1C162.79,122.6,163.11,123.81,163.38,125Z"/><path class="cls-6" d="M152.3,106.6,153,106a42.63,42.63,0,0,1,3.77,4.38,38.59,38.59,0,0,1,3.07,4.89l-1,.18a42.38,42.38,0,0,0-3-4.64A41.66,41.66,0,0,0,152.3,106.6Z"/><path class="cls-6" d="M190.14,76.84l-38.09,38.09a1.89,1.89,0,0,0,0,2.66l8.66,8.66a3.89,3.89,0,0,0,5.49,0l36.67-36.68a3.88,3.88,0,0,0,0-5.48l-7.25-7.25A3.88,3.88,0,0,0,190.14,76.84Z"/><path class="cls-7" d="M147.23,123.26,80,190.55a2.11,2.11,0,0,0,2,3.56h0a111.24,111.24,0,0,0,54.77-30l25.71-25.72-1-12.3-8.49-8.48Z"/><polygon class="cls-6" points="161.92 138.87 152.15 129.1 162.35 137.98 161.92 138.87"/><path class="cls-6" d="M55.46,76.84l-7.25,7.25a3.88,3.88,0,0,0,0,5.48l36.68,36.68a3.88,3.88,0,0,0,5.48,0L99,117.59a1.87,1.87,0,0,0,0-2.66L61,76.84A3.89,3.89,0,0,0,55.46,76.84Z"/><path class="cls-7" d="M140.69,160.1l30.45,30.45a2.12,2.12,0,0,1-1.95,3.56h0a111.24,111.24,0,0,1-43.65-20.25"/><polyline class="cls-7" points="110.39 160.1 88.7 138.41 89.73 126.11 98.21 117.63 103.85 123.26 125.54 144.96"/><polygon class="cls-6" points="89.16 138.87 98.93 129.1 88.74 137.98 89.16 138.87"/><path class="cls-6" d="M182.29,156.45c0,9.58-25.81,17.35-57.65,17.35S67,166,67,156.45c0-3.42,3.26-6.6,8.9-9.28-2.75,1.93-4.27,4.06-4.27,6.29,0,8.82,23.74,16,53,16s53-7.14,53-16c0-2.24-1.52-4.36-4.27-6.29C179,149.85,182.29,153,182.29,156.45Z"/><path class="cls-6" d="M182.29,144c0,9.58-25.81,17.35-57.65,17.35S67,153.56,67,144c0-3.42,3.26-6.6,8.9-9.28-2.75,1.94-4.27,4.06-4.27,6.29,0,8.82,23.74,16,53,16s53-7.14,53-16c0-2.24-1.52-4.36-4.27-6.29C179,137.38,182.29,140.56,182.29,144Z"/><path class="cls-6" d="M124.64,108.68A10.28,10.28,0,1,0,134.91,119,10.27,10.27,0,0,0,124.64,108.68Zm1.78,6.88a.74.74,0,1,1,1.48,0v1.52a.74.74,0,1,1-1.48,0Zm-5,0a.74.74,0,0,1,.74-.74.76.76,0,0,1,.52.21.77.77,0,0,1,.22.53v1.52a.74.74,0,0,1-1.48,0Zm3.26,10.58a7.2,7.2,0,0,1-7.19-7.18h1.08a6.11,6.11,0,0,0,12.21,0h1.08A7.19,7.19,0,0,1,124.64,126.14Z"/></g></g></svg>