<svg xmlns="http://www.w3.org/2000/svg" viewBox="0 0 270.43 276.52"><defs><style>.cls-1{fill:#2c2c30;}.cls-2{fill:#9bf424;}.cls-3{fill:#097f00;}.cls-4{font-size:12px;font-family:MS-UIGothic, MS UI Gothic;}.cls-4,.cls-5,.cls-8{fill:#fff;}.cls-6,.cls-7{fill:none;stroke:#fff;stroke-miterlimit:10;}.cls-6{stroke-width:2.99px;}.cls-7{stroke-width:1px;}.cls-8{font-size:15.91px;font-family:KozGoPr6N-Regular-90ms-RKSJ-H, Kozuka Gothic Pr6N;}</style></defs><g id="Layer_2" data-name="Layer 2"><g id="Layer_2-2" data-name="Layer 2"><path class="cls-1" d="M258.66,244.43H246.31L262.73,228V24.11h-6.68V37.46h-6.67v6.68h-20V37.46H242.7V24.11h13.35V10.75h6.68V7.81H8.21V262.34H48.33v-6.07H55v6.07H262.73v-22ZM23.88,257.69H17.2V251h6.68Zm16.94-6.42H34.14v-6.68h6.68ZM50,251H43.34v-6.67H50ZM60.64,255H54v-6.68h6.67Zm0-17.5H54v-6.68h6.67Zm4.88-9.68H58.9v-6.68h6.67Zm69,16.66,22.12-22.11H169l-22.11,22.11Zm18.62,0,22.12-22.11h12.35l-22.12,22.11Zm18.63,0,22.11-22.11h12.35l-22.12,22.11Zm18.62,0,22.12-22.11H224.9l-22.11,22.11Zm18.62,0,22.12-22.11h12.35l-22.12,22.11Zm18.63,0,22.11-22.11h12.35L240,244.43Z"/><path class="cls-2" d="M19.21,36.53H17.29L38.74,15.08h6l-9.51,9.51H31.15ZM40.36,24.59h4.08L54,15.08h-6L26.49,36.53h1.93Zm9.2,0h4.09l9.51-9.51h-6L35.7,36.53h1.92Zm9.21,0h4.09l9.51-9.51h-6L44.91,36.53h1.92Zm9.21,0h4.09l9.51-9.51h-6L54.12,36.53H56Zm9.21,0h4.08l9.51-9.51h-6L63.32,36.53h1.93Zm9.2,0h4.09L100,15.08H94L72.53,36.53h1.92Zm9.21,0h4.09l9.51-9.51h-6L81.74,36.53h1.92Z"/><polygon class="cls-2" points="258.36 271.69 249.84 263.18 258.36 254.65 253.54 249.83 245.02 258.35 236.5 249.83 231.67 254.65 240.19 263.17 231.67 271.69 236.5 276.52 245.02 268 253.54 276.52 258.36 271.69"/><polygon class="cls-3" points="36.94 63.85 30.82 57.73 36.94 51.6 33.48 48.14 27.36 54.27 21.23 48.15 17.77 51.62 23.89 57.73 17.77 63.86 21.23 67.32 27.36 61.2 33.48 67.32 36.94 63.85"/><path class="cls-3" d="M182.63,36.18a2.19,2.19,0,0,1-2.19,2.18,2.15,2.15,0,0,1-2.07-1.6H138.81l-17,17H63.36l-39,39V229.43H17.84a2.15,2.15,0,0,1-2.07,1.6,2.19,2.19,0,1,1,0-4.37,2.15,2.15,0,0,1,2.07,1.6h5.38v-136L62.87,52.59h58.47l17-17h40a2.15,2.15,0,0,1,2.07-1.6A2.19,2.19,0,0,1,182.63,36.18Z"/><rect class="cls-2" x="256.23" y="40.99" width="6.68" height="6.68"/><rect class="cls-2" x="256.18" y="58.48" width="6.68" height="6.68"/><rect class="cls-2" x="250.54" y="66.48" width="6.68" height="6.68"/><rect class="cls-2" x="221.3" y="76.06" width="6.68" height="6.68"/><rect class="cls-2" x="261.11" y="31.31" width="6.68" height="6.68"/><rect class="cls-2" x="245.55" y="54.55" width="6.68" height="6.68"/><rect class="cls-2" x="236.35" y="54.81" width="6.68" height="6.68"/><rect class="cls-2" x="219.42" y="61.23" width="6.68" height="6.68"/><rect class="cls-2" x="248.84" y="81.16" width="6.68" height="6.68"/><rect class="cls-3" x="20.54" y="5.04" width="41.69" height="5.43"/><rect class="cls-3" x="257.22" y="147.44" width="10.57" height="63.24"/><rect class="cls-3" x="200.2" y="257.69" width="5.43" height="11.58"/><rect class="cls-2" x="129.59" width="5.88" height="23.28"/><rect class="cls-2" x="3.88" y="135.07" width="8.54" height="60.08"/><rect class="cls-2" x="259.57" y="130.75" width="4.88" height="4.88"/><rect class="cls-2" x="267.78" y="93.12" width="2.64" height="26.38"/><rect class="cls-2" x="147.05" y="3.88" width="35.31" height="1.16"/><rect class="cls-2" x="2.33" y="105.92" width="0.78" height="15.52"/><rect class="cls-2" x="1.16" y="64.41" width="1.94" height="26.77"/><rect class="cls-2" y="32.98" width="3.1" height="18.24"/><text class="cls-4" transform="translate(82.07 232.88)">技術<tspan x="0" y="14.4">背景</tspan></text><path class="cls-5" d="M134.19,151l-13,21.7a9.64,9.64,0,0,1-8.25,4.67h-6.46V139.4a4.45,4.45,0,0,1,4.45-4.45h12.5v9.69h-7.34v16.68L131.89,135H143.8v23l-9.61,15.95Z"/><path class="cls-5" d="M166.72,143l-5.51,9.18H180v8H156.41l-5.51,9.18h27l-4.84,8H134.19v-.12l9.61-16v.07l6.82-11.38,6.19-10.32a9.65,9.65,0,0,1,8.26-4.67H180v8Z"/><path class="cls-5" d="M212.43,135v37.93a4.45,4.45,0,0,1-4.45,4.45H195.47v-9.7h7.35V151L187,177.33H175.06l4.83-8h0l2.75-4.59,8.41-14,6.66-11.09A9.62,9.62,0,0,1,206,135Z"/><polygon class="cls-5" points="191.09 150.73 182.65 164.73 191.06 150.71 191.09 150.73"/><path class="cls-5" d="M81.53,125.3a26,26,0,1,0,26,26A26,26,0,0,0,81.53,125.3ZM82.69,175h-.07v-9.67h10C90.31,170.74,86.75,174.41,82.69,175Zm-12.22-9.66h10V175h-.07C76.31,174.41,72.75,170.74,70.47,165.34ZM57.84,152.4h7.82a39.61,39.61,0,0,0,1.74,10.77H61A23.63,23.63,0,0,1,57.84,152.4Zm22.53-24.77h.07v9.66h-10C72.75,131.89,76.31,128.22,80.37,127.63Zm12.22,9.66h-10v-9.66h.07C86.75,128.22,90.31,131.89,92.59,137.29Zm.82,2.17a37.5,37.5,0,0,1,1.81,10.77H82.62V139.46Zm-13,0v10.77H67.84a37.5,37.5,0,0,1,1.81-10.77ZM65.66,150.23H57.84A23.63,23.63,0,0,1,61,139.46h6.4A39.61,39.61,0,0,0,65.66,150.23Zm2.18,2.17h12.6v10.77H69.65A37.5,37.5,0,0,1,67.84,152.4Zm14.78,10.77V152.4h12.6a37.5,37.5,0,0,1-1.81,10.77ZM97.4,152.4h7.82a23.63,23.63,0,0,1-3.16,10.77h-6.4A39.61,39.61,0,0,0,97.4,152.4Zm0-2.17a39.61,39.61,0,0,0-1.74-10.77h6.4a23.63,23.63,0,0,1,3.16,10.77Zm3.24-12.94H94.88A23.64,23.64,0,0,0,89.67,129,23.85,23.85,0,0,1,100.64,137.29ZM73.39,129a23.8,23.8,0,0,0-5.22,8.25H62.42A23.8,23.8,0,0,1,73.39,129Zm-11,36.3h5.75a23.8,23.8,0,0,0,5.22,8.25A23.8,23.8,0,0,1,62.42,165.34Zm27.25,8.25a23.64,23.64,0,0,0,5.21-8.25h5.76A23.85,23.85,0,0,1,89.67,173.59Z"/><path class="cls-6" d="M124.17,98.46c8.43-4.27,13.54-8.53,12.66-11.16-1.36-4.07-16.63-2.63-34.13,3.21s-30.57,13.88-29.21,17.95c.87,2.62,7.52,3,16.82,1.31"/><path class="cls-6" d="M88.84,96a15.39,15.39,0,0,1,29.21-9.63"/><path class="cls-7" d="M160.53,137.78,119.28,93.17c-1.4-1.51-7.42-1.18-15.22,1.43s-12.79,6-13,8l-2.55,25"/><path class="cls-5" d="M125,116.47c-.11-2.24.65-5.93-1.47-7s-8.28-3.63-11.85-2.25c-5.48,2.11-7.85,3.13-8.13,6.27s-1,6.69-2,7.45l-.71.48a1.92,1.92,0,0,1-1.12-.93,2,2,0,0,0,.59,1.55,1.42,1.42,0,0,0,0,.58c.15.89-2.26.38-2.26.38a1.78,1.78,0,0,0,2.21,1,2.6,2.6,0,0,1,1.82,2.41c.33,2.13.07,2,1.45,1.61s2.08-2.2,2.07-3.68.87-4,2.46-3.2.88,1.66,2.21,1.74-.48,2,.85,2.89,2.41.33,1.74-.46,2.12-.43,1-1.35-2-1-1.8-1.92-.88-.42-1.1-1.73,2-1.41,2-2.46c0,0,1.78,1.18,2.76.65s-.49,2.27.57,1.58.66.93,1.2.51.38,3.7,1.62,5.07,1.21-.23.84-1.25-1-2.41-.42-3.9,1.07,1.4,1.06,3.12.4,4.17.88,2.65-.39-2.93,0-4.14,1.24-2.46.41-4.18,1.51-1.43,1.86-4.34c0,0,.49,4.52,2.2,5.68S125.14,118.7,125,116.47Z"/><text class="cls-8" transform="translate(82.01 196.17)">アポカリプス</text><path class="cls-5" d="M119.94,208.29c0-1.62.93-2.62,2.14-2.62s2.14,1,2.14,2.62-.92,2.65-2.14,2.65S119.94,209.91,119.94,208.29Zm3.92,0c0-1.39-.72-2.29-1.78-2.29s-1.78.9-1.78,2.29.72,2.31,1.78,2.31S123.86,209.68,123.86,208.29Zm-3,0a1.38,1.38,0,0,1,1.31-1.5,1.08,1.08,0,0,1,.82.37l-.27.31a.73.73,0,0,0-.53-.24c-.48,0-.8.44-.8,1.06s.3,1.12.77,1.12a.9.9,0,0,0,.64-.27l.24.35a1.28,1.28,0,0,1-.89.37C121.43,209.86,120.86,209.27,120.86,208.29Z"/><path class="cls-5" d="M127.45,210.23l.33-.43a2.07,2.07,0,0,0,1.46.6c.69,0,1.2-.36,1.2-.92s-.51-1-1.83-1V208c1.2,0,1.66-.41,1.66-.94s-.42-.8-1-.8a1.93,1.93,0,0,0-1.25.51l-.35-.41a2.44,2.44,0,0,1,1.62-.64c1,0,1.67.47,1.67,1.29a1.31,1.31,0,0,1-1.07,1.2v0a1.39,1.39,0,0,1,1.25,1.28c0,.9-.83,1.45-1.83,1.45A2.49,2.49,0,0,1,127.45,210.23Z"/><path class="cls-5" d="M134.86,208.3c0-1.69.69-2.61,1.82-2.61s1.81.92,1.81,2.61-.69,2.65-1.81,2.65S134.86,210,134.86,208.3Zm3,0c0-1.45-.5-2.08-1.2-2.08s-1.21.63-1.21,2.08.5,2.11,1.21,2.11S137.88,209.76,137.88,208.3Zm-1.7-.05a.5.5,0,1,1,.5.53A.5.5,0,0,1,136.18,208.25Z"/><path class="cls-5" d="M145.06,206.36h-2.91v-.57h3.67v.4a6.38,6.38,0,0,0-1.75,4.66h-.69A6.78,6.78,0,0,1,145.06,206.36Z"/><path class="cls-5" d="M152.36,206.36h-2.91v-.57h3.66v.4a6.42,6.42,0,0,0-1.74,4.66h-.69A6.73,6.73,0,0,1,152.36,206.36Z"/></g></g></svg>