<svg xmlns="http://www.w3.org/2000/svg" viewBox="0 0 265.11 274.01"><defs><style>.cls-1{fill:#2c2c30;}.cls-2{fill:#097f00;}.cls-3{fill:#9bf424;}.cls-4{font-size:12px;font-family:MS-UIGothic, MS UI Gothic;}.cls-4,.cls-5,.cls-6{fill:#fff;}.cls-6{font-size:12.59px;font-family:KozGoPr6N-Regular-90ms-RKSJ-H, Kozuka Gothic Pr6N;}</style></defs><g id="Layer_2" data-name="Layer 2"><g id="Layer_2-2" data-name="Layer 2"><polygon class="cls-1" points="8.13 10.32 8.13 84.83 22.62 99.31 22.62 183.7 30.48 191.56 30.48 225.6 15.64 225.6 15.64 249.47 8.13 249.47 8.13 264.85 262.65 264.85 262.65 91.36 181.62 10.32 8.13 10.32"/><polygon class="cls-1" points="193.14 10.32 262.65 79.84 262.65 10.32 193.14 10.32"/><path class="cls-2" d="M253.3,99.1,174.93,20.72l-.41-.17H27.86l-.41.17-.17.41V32.77l.17.42.41.17H156.58a2.59,2.59,0,0,0,2.51,2,2.63,2.63,0,1,0,0-5.25,2.59,2.59,0,0,0-2.51,2H28.44V21.72H174.28l78,78V251.21H113.41l-.41.17L93.58,270.81H19.41a2.59,2.59,0,0,0-2.51-2.05,2.63,2.63,0,0,0,0,5.25,2.58,2.58,0,0,0,2.51-2H93.82l.41-.17,19.42-19.42H252.89l.41-.17.17-.42V99.51Z"/><rect class="cls-2" x="5.74" y="32.77" width="4.27" height="27.94"/><rect class="cls-2" x="19.32" y="129.77" width="4.66" height="26.38"/><circle class="cls-3" cx="158.66" cy="242.19" r="3.35"/><circle class="cls-3" cx="175.25" cy="242.19" r="3.35"/><circle class="cls-3" cx="191.83" cy="242.19" r="3.35"/><circle class="cls-3" cx="208.42" cy="242.19" r="3.35"/><circle class="cls-3" cx="225.01" cy="242.19" r="3.35"/><circle class="cls-3" cx="241.59" cy="242.19" r="3.35"/><polygon class="cls-3" points="264.53 161.2 264.53 160.62 260.46 160.62 260.46 110.95 263.95 110.95 263.95 161.2 264.53 161.2 264.53 160.62 264.53 161.2 265.11 161.2 265.11 109.79 259.29 109.79 259.29 161.78 265.11 161.78 265.11 161.2 264.53 161.2"/><polygon class="cls-3" points="53.85 250.44 53.85 249.85 50.56 249.85 50.56 247.14 53.27 247.14 53.27 250.44 53.85 250.44 53.85 249.85 53.85 250.44 54.44 250.44 54.44 245.97 49.39 245.97 49.39 251.02 54.44 251.02 54.44 250.44 53.85 250.44"/><polygon class="cls-3" points="49.2 189.91 49.2 189.33 41.24 189.33 41.24 181.96 48.62 181.96 48.62 189.91 49.2 189.91 49.2 189.33 49.2 189.91 49.78 189.91 49.78 180.79 40.08 180.79 40.08 190.49 49.78 190.49 49.78 189.91 49.2 189.91"/><polygon class="cls-3" points="30.57 81.66 30.57 81.08 23.01 81.08 23.01 74.09 29.99 74.09 29.99 81.66 30.57 81.66 30.57 81.08 30.57 81.66 31.16 81.66 31.16 72.93 21.84 72.93 21.84 82.24 31.16 82.24 31.16 81.66 30.57 81.66"/><polygon class="cls-3" points="247.07 28.51 247.07 27.93 239.12 27.93 239.12 20.55 246.49 20.55 246.49 28.51 247.07 28.51 247.07 27.93 247.07 28.51 247.66 28.51 247.66 19.39 237.96 19.39 237.96 29.09 247.66 29.09 247.66 28.51 247.07 28.51"/><path class="cls-2" d="M55,49.46h-.58a4.85,4.85,0,1,1-4.85-4.85,4.87,4.87,0,0,1,4.85,4.85H55.6a6,6,0,1,0-6,6,6,6,0,0,0,6-6Z"/><path class="cls-2" d="M242.81,186.61h-.59a4.66,4.66,0,1,1-4.65-4.65,4.66,4.66,0,0,1,4.65,4.65h1.17a5.82,5.82,0,1,0-5.82,5.82,5.83,5.83,0,0,0,5.82-5.82Z"/><path class="cls-2" d="M263.37,55.67h-.58a2.91,2.91,0,1,1-2.91-2.91,2.93,2.93,0,0,1,2.91,2.91H264a4.08,4.08,0,1,0-4.07,4.07A4.07,4.07,0,0,0,264,55.67Z"/><path class="cls-2" d="M14.28,224.25H13.7A2.72,2.72,0,1,1,11,221.53a2.72,2.72,0,0,1,2.72,2.72h1.16A3.88,3.88,0,1,0,11,228.13a3.88,3.88,0,0,0,3.88-3.88Z"/><polygon class="cls-2" points="263.06 261.84 257.16 261.84 257.16 255.94 253.82 255.94 253.82 261.84 247.93 261.84 247.93 265.18 253.82 265.18 253.82 271.08 257.16 271.08 257.16 265.18 263.06 265.18 263.06 261.84"/><polygon class="cls-2" points="15.13 8.53 9.23 8.53 9.23 2.63 5.9 2.63 5.9 8.53 0 8.53 0 11.86 5.9 11.86 5.9 17.76 9.23 17.76 9.23 11.86 15.13 11.86 15.13 8.53"/><rect class="cls-2" x="229.81" y="105.72" width="11.06" height="50.05"/><rect class="cls-3" x="222.82" y="140.64" width="11.06" height="15.13"/><rect class="cls-3" x="33.68" y="72.93" width="53.15" height="9.31"/><path class="cls-3" d="M90,0h8.38l-15,15H75Zm33.66,0h-8.38l-15,15h8.38ZM111,0H102.6l-15,15H96Zm63.19,0h-8.38l-15,15h8.38ZM136.25,0h-8.37l-15,15h8.38Zm25.28,0h-8.38l-15,15h8.38ZM148.89,0h-8.38l-15,15h8.37Z"/><text class="cls-4" transform="translate(204.4 207.47)">技術<tspan x="0" y="14.4">背景</tspan></text><path class="cls-5" d="M135.61,149.35l-1.08.84a16.23,16.23,0,0,1-3,1.81h3.08a8.3,8.3,0,0,1,.56-1.31l.69-1.34Zm-46.19,0a3.88,3.88,0,0,0,.33,2.65h16.62l.3-.13c2.7-1.27,4.58-2.07,5.84-2.52Zm46.19,0-1.08.84a16.23,16.23,0,0,1-3,1.81h3.08a8.3,8.3,0,0,1,.56-1.31l.69-1.34Zm52.48,10.45a9.13,9.13,0,0,1-9.13-9.12v-1.33H158.43c-.62,1-1.25,1.85-1.85,2.65h19.81a11.8,11.8,0,0,0,8.5,10H74.73a11.81,11.81,0,0,0,8.51-10h4.17a6.15,6.15,0,0,1-.2-2.65H80.66v1.33a9.13,9.13,0,0,1-9.12,9.12h-2v42.68h2a9.13,9.13,0,0,1,9.12,9.12v1.33H179V211.6a9.13,9.13,0,0,1,9.13-9.12h2V159.8Zm-11.7,50.48H83.24a11.81,11.81,0,0,0-8.51-10H184.89A11.8,11.8,0,0,0,176.39,210.28Zm11-10.89H72.22v-36.5H187.4Zm-31.59-50H138.62c-.36.46-.7.94-1,1.46a8.84,8.84,0,0,0-.68,1.19h16.88A31.63,31.63,0,0,0,155.81,149.35ZM134.57,152a8.3,8.3,0,0,1,.56-1.31l.69-1.34h-.21l-1.08.84a16.23,16.23,0,0,1-3,1.81Zm-19.72-2.65a12.19,12.19,0,0,1-1.66,2.65h12.48a37.84,37.84,0,0,0,6.2-2.65Z"/><path class="cls-5" d="M166.33,178.4h-6.7a7.69,7.69,0,0,0-14.36,0h-8.05a7.69,7.69,0,0,0-14.36,0h-8a7.69,7.69,0,0,0-14.36,0h-6.7a2.74,2.74,0,0,0,0,5.48h6.7a7.68,7.68,0,0,0,14.36,0h8a7.68,7.68,0,0,0,14.36,0h8.05a7.68,7.68,0,0,0,14.36,0h6.7a2.74,2.74,0,0,0,0-5.48Zm0,4.6H159l-.1.3a6.8,6.8,0,0,1-12.9,0l-.1-.3h-9.31l-.1.3a6.8,6.8,0,0,1-12.9,0l-.1-.3h-9.31l-.1.3a6.8,6.8,0,0,1-12.9,0l-.1-.3H93.75a1.86,1.86,0,1,1,0-3.71h7.33l.1-.3a6.8,6.8,0,0,1,12.9,0l.1.3h9.31l.1-.3a6.8,6.8,0,0,1,12.9,0l.1.3h9.31l.1-.3a6.8,6.8,0,0,1,12.9,0l.1.3h7.33a1.86,1.86,0,0,1,0,3.71Z"/><path class="cls-5" d="M131.87,149.35a37.84,37.84,0,0,1-6.2,2.65,74.78,74.78,0,0,1-10.09,2.7c-4.34.82-3.6-.91-2.39-2.7a12.19,12.19,0,0,0,1.66-2.65c.1-.53-.44-.66-2.34,0-1.26.45-3.14,1.25-5.84,2.52l-.3.13c-8.87,4.1-15,3-16.62,0a3.88,3.88,0,0,1-.33-2.65c.63-3.13,4.56-7,12.72-10,6.24-2.29,9.77-4.17,11.45-5.61,6-4.38,6.63-9.34,2.35-7.29s-11.8,1.71-5.67-4.67-3.36-9.79-10.68,2.16-25.58,5.3-13-5.18,22.15-13.6,29.67-8.19-7.92,14,2.17,11.48,9.49,3.26,2.19,10.62c-3.18,3.91-10,6.6-15.8,9.57-9.06,4.64,2.92,2.51,17.36-2.39s-6,3.44,7.21,5C135.77,145.55,135.29,147.41,131.87,149.35Z"/><path class="cls-5" d="M167.17,124.79a9.44,9.44,0,0,1-1.07,3.65s-4.71,12.86-10.29,20.91a31.63,31.63,0,0,1-2,2.65,10.56,10.56,0,0,1-4.72,3.54c-7.36,2-14.52,1.55-12.16-3.54a8.84,8.84,0,0,1,.68-1.19c.34-.52.68-1,1-1.46,3.09-3.95,6.84-5.84,11.55-9.92a44,44,0,0,0,5.48-5.77c3.47-4.32,6.6-7.1,4.69-6.19-4.29,2.05-11.81,1.71-5.67-4.67S151.3,113,144,125s-25.58,5.29-13-5.18c.61-.51,1.21-1,1.81-1.47.24-.19,9.3-7.39,0-4.4S122.12,115,130,109c4.51-3.47,7.38-2.31,1.84,1.52s5-2.11,15.11-4.75c6.4-1.67,4.68,1.22,2.57,3.56a13.72,13.72,0,0,1,11.17,2.28c7.51,5.41-7.94,13.9,2.17,11.48C166,122.32,167.17,123.1,167.17,124.79Z"/><path class="cls-5" d="M137,141.58c5.42-1.48,11.85-7.22,2.35-5.74C130.52,137.22,131.55,143.06,137,141.58Z"/><path class="cls-5" d="M102.29,127.64c-7,2.38-7.19,9.62,0,6S107.1,126,102.29,127.64Z"/><path class="cls-5" d="M154.46,130.71a4.86,4.86,0,0,1-3.59-1.82c-1.42-2-.65-4.59,2.23-7.59a6.43,6.43,0,0,0,1.16-1.56l.31-.63-.71.07c-.4,0-4.11.54-8,6.92a14.64,14.64,0,0,1-14.23,7.31,8.77,8.77,0,0,1-5.66-2.86l-.32-.38-.3.39a35.73,35.73,0,0,1-3.09,3.53,21,21,0,0,1-5.27,4.3l-2.71,1.66,3-1c1.37-.42,2.78-.88,4.19-1.36,2.07-.7,3.38-1.12,4.27-1.36,1.36-.37,2.86-.56,3.71.82,1,1.63-.4,3-1.16,3.71-.18.17-.47.45-.74.74l-.46.49.64.17a15.84,15.84,0,0,0,1.91.33l1.3.17.94.15-.55-.77a3.8,3.8,0,0,1-.49-3.54c.85-2.48,3.81-4.28,8.14-5,1.8-.28,6.59-1,7.3,2.29.81,3.77-6.23,7-8.75,7.7a8.16,8.16,0,0,1-1.71.29L135,144l.62.61a3,3,0,0,1,.93,2.13,4.27,4.27,0,0,1,0,.59l-.21,1.42.91-1.11a36.83,36.83,0,0,1,6.9-6.19c1.47-1.11,3-2.26,4.66-3.7A42.5,42.5,0,0,0,154,132.3l.76-.94.47-.57Zm-24.71,11.15c-.4-.05-.77-.11-1.11-.17l.22-.22a7.45,7.45,0,0,0,1-1.09,4.58,4.58,0,0,0,.42,1.54Zm.73-4.32a3.07,3.07,0,0,0-.34-.75,3,3,0,0,0-2.75-1.47,6.78,6.78,0,0,0-1.83.3c-.91.24-2.24.66-4.33,1.37l-1.51.51a18.3,18.3,0,0,0,3.11-2.88,41.38,41.38,0,0,0,2.84-3.19,9.74,9.74,0,0,0,5.83,2.76,13.07,13.07,0,0,0,2.75.08A8.1,8.1,0,0,0,130.48,137.54Zm6.79,8.81a3.66,3.66,0,0,0-.63-1.67c.37-.06.74-.14,1.12-.24a19.74,19.74,0,0,0,2.42-.9A29.42,29.42,0,0,0,137.27,146.35Zm16.07-14.55a41,41,0,0,1-5.12,5.39c-.52.45-1,.87-1.52,1.28a4,4,0,0,0,.38-2.66c-.56-2.6-3-3.18-5.15-3.18a15.82,15.82,0,0,0-2.19.16,16.3,16.3,0,0,0,6.78-6.27c2.45-4,4.94-5.76,6.5-6.33a7,7,0,0,1-.49.56c-4,4.18-3.47,7-2.3,8.6a5.39,5.39,0,0,0,3.44,2Z"/><path class="cls-5" d="M109.47,118.1c-1.82.17-5,2-7.92,6.76l-.54.88,1-.29a7.59,7.59,0,0,1,3.4-.27l.38.06.08-.38a9.86,9.86,0,0,1,2.84-4.63,6.43,6.43,0,0,0,1.16-1.56l.31-.63Zm-1.34,1.57a11.2,11.2,0,0,0-3,4.68,7.9,7.9,0,0,0-2.41.11c2.24-3.31,4.44-4.82,5.86-5.34A7,7,0,0,1,108.13,119.67Z"/><path class="cls-5" d="M135.61,149.35h.21l.14-.27Zm0,0h.21l.14-.27Zm0,0h.21l.14-.27Zm33.46-27.75a5.25,5.25,0,0,0-4.57-1.76,11.66,11.66,0,0,0,1.1-2.9,7.32,7.32,0,0,0-3.2-7.76,16.53,16.53,0,0,0-8-3.08,3.76,3.76,0,0,0-.54-1.91c-1.74-2.86-5.75-1.81-7.67-1.31a84.73,84.73,0,0,0-8.74,2.88,3.4,3.4,0,0,0-1.64-1.51c-2.53-1.09-5.87,1-7.63,2.38-4.67,3.59-7.47,6.6-5.91,9.58,1.14,2.16,3.59,2.3,6,1.94l-1.63,1.28c-1.51-.93-3.66-1.2-6.41-.8a11.17,11.17,0,0,0,1-2.75,7.31,7.31,0,0,0-3.2-7.77c-11.19-8.06-24.36.89-33.29,8.33-5.81,4.83-5.7,9-5.12,11,.87,3,3.68,5.16,7.51,5.68a14.5,14.5,0,0,0,7-.85,4.6,4.6,0,0,0,1.81,4.4,5,5,0,0,0,2.59.91c-7.06,3.1-11.4,7.26-12,11.63,0,0,0,.1,0,.14a7.07,7.07,0,0,0,.17,2.65,6.79,6.79,0,0,0,2.6,3.74c4,2.93,11,2.48,18.76-1.19l1.35-.63a3.51,3.51,0,0,0,.58,2.13,4.3,4.3,0,0,0,3.91,1.83,12.18,12.18,0,0,0,2.35-.27,75.29,75.29,0,0,0,12.92-3.69A31.85,31.85,0,0,0,133.2,152l.66-.38-.12.38a5.39,5.39,0,0,0,.71,4.86c1.34,1.84,3.79,2.77,7.3,2.77a32.8,32.8,0,0,0,8.1-1.23c2.48-.68,5-2.79,7.7-6.4.6-.8,1.2-1.69,1.81-2.65a73.87,73.87,0,0,0,3.79-6.75,135.83,135.83,0,0,0,5.68-13C169.89,127.33,171.06,124,169.07,121.6Zm-1,7.69a137.93,137.93,0,0,1-5.66,13,75.25,75.25,0,0,1-4,7.11c-.62,1-1.25,1.85-1.85,2.65-2.42,3.17-4.72,5-6.94,5.64a32,32,0,0,1-7.89,1.2c-3.24,0-5.48-.82-6.66-2.45a4.65,4.65,0,0,1-.52-4.39,8.3,8.3,0,0,1,.56-1.31l.69-1.34.14-.27-.35.27-1.08.84a16.23,16.23,0,0,1-3,1.81c-.8.39-1.71.79-2.73,1.18A74.56,74.56,0,0,1,116,156.83a11,11,0,0,1-2.2.26,3.56,3.56,0,0,1-3.25-1.47,2.91,2.91,0,0,1-.38-2.26l.17-.77-.72.32-2,.92c-7.52,3.55-14.23,4-17.95,1.28A6,6,0,0,1,87.41,152a6.15,6.15,0,0,1-.2-2.65s0,0,0,0c.65-4.59,5.82-9,14.17-12.06,7.14-2.62,9.82-4.4,10.76-5.21l.16-.13a17.59,17.59,0,0,0,2.3-2l1-1-1.34.33a11.36,11.36,0,0,1-4.83.23l-.4-.08-.07.39c-.4,2.09-2.36,4.07-5.66,5.74-2.91,1.46-5.33,1.61-6.93.45a3.85,3.85,0,0,1-1.48-3.8,4,4,0,0,1,.1-.5l.19-.78-.73.32a13.92,13.92,0,0,1-7.21,1.07c-3.51-.48-6.07-2.39-6.86-5.12-.53-1.85-.6-5.63,4.86-10.18,8.73-7.26,21.58-16,32.33-8.29a6.59,6.59,0,0,1,2.89,7,11.48,11.48,0,0,1-1.31,3.23l-.42.74.84-.16c3.07-.56,5.38-.32,6.86.71l.24.17,4.74-3.73-1.71.39c-3.75.85-5.81.47-6.71-1.23-1.3-2.49,1.33-5.23,5.69-8.58,1.63-1.26,4.68-3.21,6.83-2.28a2.57,2.57,0,0,1,1.39,1.43l.14.37.37-.15a84.54,84.54,0,0,1,9-3c1.74-.46,5.36-1.41,6.79.95a2.94,2.94,0,0,1,.42,1.83l0,.4.4,0a15.6,15.6,0,0,1,8,3,6.55,6.55,0,0,1,2.88,7,11.26,11.26,0,0,1-1.36,3.32l-.4.68.78-.09c2.11-.24,3.66.24,4.62,1.42a4.09,4.09,0,0,1,.89,2.68A11.34,11.34,0,0,1,168.11,129.29ZM107,134.11a7.48,7.48,0,0,0,2.61-3.74,11.64,11.64,0,0,0,3.43,0c-.38.32-.79.64-1.22,1l-.18.14A20.91,20.91,0,0,1,107,134.11Zm28.6,15.24h.21l.14-.27Zm0,0h.21l.14-.27Z"/><polygon class="cls-5" points="96.94 169.78 97.41 170.44 98.56 170.44 96.94 168.16 96.94 169.78"/><polygon class="cls-5" points="96.98 166.31 99.89 170.44 101.04 170.44 98.13 166.31 96.98 166.31"/><polygon class="cls-5" points="99.46 166.31 102.38 170.44 103.53 170.44 100.61 166.31 99.46 166.31"/><polygon class="cls-5" points="101.94 166.31 104.86 170.44 106.01 170.44 103.09 166.31 101.94 166.31"/><polygon class="cls-5" points="104.43 166.31 107.34 170.44 108.49 170.44 105.58 166.31 104.43 166.31"/><polygon class="cls-5" points="106.91 166.31 109.83 170.44 110.98 170.44 108.06 166.31 106.91 166.31"/><polygon class="cls-5" points="109.39 166.31 112.31 170.44 113.46 170.44 110.54 166.31 109.39 166.31"/><polygon class="cls-5" points="111.88 166.31 114.8 170.44 115.95 170.44 113.03 166.31 111.88 166.31"/><polygon class="cls-5" points="114.36 166.31 117.28 170.44 118.43 170.44 115.51 166.31 114.36 166.31"/><polygon class="cls-5" points="116.85 166.31 119.76 170.44 120.91 170.44 118 166.31 116.85 166.31"/><polygon class="cls-5" points="119.33 166.31 122.25 170.44 123.4 170.44 120.48 166.31 119.33 166.31"/><polygon class="cls-5" points="121.81 166.31 124.73 170.44 125.88 170.44 122.96 166.31 121.81 166.31"/><polygon class="cls-5" points="124.3 166.31 127.22 170.44 128.36 170.44 125.45 166.31 124.3 166.31"/><polygon class="cls-5" points="126.78 166.31 129.23 169.78 129.23 169.78 129.7 170.44 129.7 170.44 130.85 170.44 130.85 170.44 127.93 166.31 126.78 166.31"/><polygon class="cls-5" points="130.85 166.93 130.41 166.31 129.26 166.31 129.26 166.31 129.26 166.31 132.18 170.44 133.33 170.44 130.85 166.93 130.85 166.93"/><polygon class="cls-5" points="131.75 166.31 134.66 170.44 135.81 170.44 132.9 166.31 131.75 166.31"/><polygon class="cls-5" points="134.23 166.31 137.15 170.44 138.3 170.44 135.38 166.31 134.23 166.31"/><polygon class="cls-5" points="136.71 166.31 139.63 170.44 140.78 170.44 137.86 166.31 136.71 166.31"/><polygon class="cls-5" points="139.2 166.31 142.12 170.44 143.26 170.44 140.35 166.31 139.2 166.31"/><polygon class="cls-5" points="141.68 166.31 144.6 170.44 145.75 170.44 142.83 166.31 141.68 166.31"/><polygon class="cls-5" points="144.16 166.31 147.08 170.44 148.23 170.44 145.31 166.31 144.16 166.31"/><polygon class="cls-5" points="146.65 166.31 149.57 170.44 150.72 170.44 147.8 166.31 146.65 166.31"/><polygon class="cls-5" points="149.13 166.31 152.05 170.44 153.2 170.44 150.28 166.31 149.13 166.31"/><polygon class="cls-5" points="151.62 166.31 154.53 170.44 155.68 170.44 152.76 166.31 151.62 166.31"/><polygon class="cls-5" points="154.1 166.31 157.02 170.44 158.17 170.44 155.25 166.31 154.1 166.31"/><polygon class="cls-5" points="156.58 166.31 159.5 170.44 160.65 170.44 157.73 166.31 156.58 166.31"/><polygon class="cls-5" points="159.07 166.31 161.99 170.44 163.13 170.44 160.22 166.31 159.07 166.31"/><polygon class="cls-5" points="162.7 166.31 161.55 166.31 163.13 168.55 163.13 166.93 162.7 166.31"/><polygon class="cls-5" points="96.94 195.37 97.41 196.03 98.56 196.03 96.94 193.75 96.94 195.37"/><polygon class="cls-5" points="96.98 191.9 99.89 196.03 101.04 196.03 98.13 191.9 96.98 191.9"/><polygon class="cls-5" points="99.46 191.9 102.38 196.03 103.53 196.03 100.61 191.9 99.46 191.9"/><polygon class="cls-5" points="101.94 191.9 104.86 196.03 106.01 196.03 103.09 191.9 101.94 191.9"/><polygon class="cls-5" points="104.43 191.9 107.34 196.03 108.49 196.03 105.58 191.9 104.43 191.9"/><polygon class="cls-5" points="106.91 191.9 109.83 196.03 110.98 196.03 108.06 191.9 106.91 191.9"/><polygon class="cls-5" points="109.39 191.9 112.31 196.03 113.46 196.03 110.54 191.9 109.39 191.9"/><polygon class="cls-5" points="111.88 191.9 114.8 196.03 115.95 196.03 113.03 191.9 111.88 191.9"/><polygon class="cls-5" points="114.36 191.9 117.28 196.03 118.43 196.03 115.51 191.9 114.36 191.9"/><polygon class="cls-5" points="116.85 191.9 119.76 196.03 120.91 196.03 118 191.9 116.85 191.9"/><polygon class="cls-5" points="119.33 191.9 122.25 196.03 123.4 196.03 120.48 191.9 119.33 191.9"/><polygon class="cls-5" points="121.81 191.9 124.73 196.03 125.88 196.03 122.96 191.9 121.81 191.9"/><polygon class="cls-5" points="124.3 191.9 127.22 196.03 128.36 196.03 125.45 191.9 124.3 191.9"/><polygon class="cls-5" points="126.78 191.9 129.23 195.37 129.23 195.37 129.7 196.03 129.7 196.03 130.85 196.03 130.85 196.03 127.93 191.9 126.78 191.9"/><polygon class="cls-5" points="130.85 192.52 130.41 191.9 129.26 191.9 129.26 191.9 129.26 191.9 132.18 196.03 133.33 196.03 130.85 192.52 130.85 192.52"/><polygon class="cls-5" points="131.75 191.9 134.66 196.03 135.81 196.03 132.9 191.9 131.75 191.9"/><polygon class="cls-5" points="134.23 191.9 137.15 196.03 138.3 196.03 135.38 191.9 134.23 191.9"/><polygon class="cls-5" points="136.71 191.9 139.63 196.03 140.78 196.03 137.86 191.9 136.71 191.9"/><polygon class="cls-5" points="139.2 191.9 142.12 196.03 143.26 196.03 140.35 191.9 139.2 191.9"/><polygon class="cls-5" points="141.68 191.9 144.6 196.03 145.75 196.03 142.83 191.9 141.68 191.9"/><polygon class="cls-5" points="144.16 191.9 147.08 196.03 148.23 196.03 145.31 191.9 144.16 191.9"/><polygon class="cls-5" points="146.65 191.9 149.57 196.03 150.72 196.03 147.8 191.9 146.65 191.9"/><polygon class="cls-5" points="149.13 191.9 152.05 196.03 153.2 196.03 150.28 191.9 149.13 191.9"/><polygon class="cls-5" points="151.62 191.9 154.53 196.03 155.68 196.03 152.76 191.9 151.62 191.9"/><polygon class="cls-5" points="154.1 191.9 157.02 196.03 158.17 196.03 155.25 191.9 154.1 191.9"/><polygon class="cls-5" points="156.58 191.9 159.5 196.03 160.65 196.03 157.73 191.9 156.58 191.9"/><polygon class="cls-5" points="159.07 191.9 161.99 196.03 163.13 196.03 160.22 191.9 159.07 191.9"/><polygon class="cls-5" points="162.7 191.9 161.55 191.9 163.13 194.14 163.13 192.52 162.7 191.9"/><path class="cls-5" d="M85.83,178.55a2.44,2.44,0,0,0-3.44,0l-.25.26-.26-.26A2.43,2.43,0,0,0,78.44,182l.25.26,3.45,3.44,3.44-3.44.25-.26A2.43,2.43,0,0,0,85.83,178.55Z"/><path class="cls-5" d="M181.18,178.55a2.44,2.44,0,0,0-3.44,0l-.26.26-.25-.26a2.43,2.43,0,0,0-3.44,3.44l.25.26,3.44,3.44,3.45-3.44.25-.26A2.43,2.43,0,0,0,181.18,178.55Z"/><path class="cls-5" d="M106.61,206.88l.3-.35a1.67,1.67,0,0,0,1.15.48c.53,0,.84-.25.84-.61s-.3-.54-.69-.7l-.57-.26a1.09,1.09,0,0,1-.84-1,1.14,1.14,0,0,1,1.28-1,1.75,1.75,0,0,1,1.21.48l-.27.32a1.38,1.38,0,0,0-1-.36c-.45,0-.75.21-.75.57s.36.51.69.64l.55.25c.49.19.87.46.87,1s-.53,1.12-1.39,1.12A2,2,0,0,1,106.61,206.88Z"/><path class="cls-5" d="M112.7,203.89h-1.29v-.42h3.09v.42h-1.29v3.49h-.51Z"/><path class="cls-5" d="M116.8,203.47h2.42v.42H117.3v1.23h1.62v.42H117.3V207h2v.42H116.8Z"/><path class="cls-5" d="M121.75,203.47h2.42v.42h-1.92v1.23h1.62v.42h-1.62V207h2v.42h-2.48Z"/><path class="cls-5" d="M126.82,203.47h.5V207h1.93v.42h-2.43Z"/><path class="cls-5" d="M136.18,203.47h.54l.62,2.11c.14.46.23.84.38,1.29h0c.15-.45.25-.83.38-1.29l.62-2.11h.52L138,207.38h-.59Z"/><path class="cls-5" d="M141.56,203.47H144v.42h-1.92v1.23h1.63v.42h-1.63V207h2v.42h-2.48Z"/><path class="cls-5" d="M146.4,207h1v-3.07h-1v-.42h2.45v.42h-1V207h1v.42H146.4Z"/><path class="cls-5" d="M151.28,203.47h.54l1.26,2.46.37.81h0c0-.39-.07-.83-.07-1.24v-2h.48v3.91h-.55l-1.25-2.45-.38-.82h0c0,.4.06.82.06,1.23v2h-.47Z"/><text class="cls-6" transform="translate(169.33 112.06) rotate(90)">倶楽部</text></g></g></svg>