<svg xmlns="http://www.w3.org/2000/svg" viewBox="0 0 295.09 282.22"><defs><style>.cls-1{fill:#2c2c30;}.cls-2{fill:#9bf424;}.cls-3{fill:#097f00;}.cls-4{font-size:12px;font-family:MS-UIGothic, MS UI Gothic;}.cls-4,.cls-5,.cls-6{fill:#fff;}.cls-6{font-size:10.79px;font-family:KozGoPr6N-Regular-90ms-RKSJ-H, Kozuka Gothic Pr6N;}</style></defs><g id="Layer_2" data-name="Layer 2"><g id="Layer_2-2" data-name="Layer 2"><polygon class="cls-1" points="273.79 133.03 273.79 14.36 238.52 14.36 238.52 0.34 162.33 0.34 162.33 14.36 63.7 14.36 63.7 37.59 39.7 37.59 39.7 14.36 19.27 14.36 19.27 268.88 39.7 268.88 39.7 278.73 78.34 278.73 78.34 268.88 231.05 268.88 231.05 238.96 255.75 238.96 255.75 268.88 273.79 268.88 273.79 218 283.43 218 283.43 133.03 273.79 133.03"/><path class="cls-2" d="M91.2,0l3,3-3,3L88.25,3Zm5.65,3,3,3,3-2.95L99.8,0Zm8.6,0,3,3L111.34,3,108.4,0Zm8.6,0,2.94,3,3-2.95L117,0Zm8.59,0,3,3L128.54,3,125.59,0ZM134.19,0l-2.95,3,2.95,3L137.14,3Z"/><path class="cls-2" d="M124.46,262.87h-2.15l23.93-23.93h6.7l-10.6,10.61h-4.56Zm23.59-13.32h4.56l10.6-10.61h-6.7l-23.93,23.93h2.15Zm10.27,0h4.56l10.61-10.61h-6.71l-23.92,23.93H145Zm10.27,0h4.56l10.61-10.61h-6.71l-23.92,23.93h2.14Zm10.27,0h4.56L194,238.94h-6.71L163.4,262.87h2.14Zm10.27,0h4.56l10.61-10.61h-6.71l-23.92,23.93h2.14Zm10.27,0H204l10.61-10.61h-6.71l-23.92,23.93h2.14Zm10.27,0h4.56l10.61-10.61h-6.71l-23.92,23.93h2.14Z"/><path class="cls-3" d="M196.7,9.24h9.79L189,26.78h-9.79Zm39.32,0h-9.79L208.7,26.78h9.78Zm-14.77,0h-9.79L193.93,26.78h9.79Zm73.84,0H285.3L267.76,26.78h9.79Zm-44.3,0H241L223.46,26.78h9.79Zm29.53,0h-9.79L253,26.78h9.78Zm-14.77,0h-9.79L238.23,26.78H248Z"/><polygon class="cls-3" points="11.93 144.09 3.49 144.09 0 144.09 0 147.58 0 156.02 3.49 156.02 3.49 147.58 11.93 147.58 11.93 144.09"/><rect class="cls-3" x="7.27" y="150.93" width="4.66" height="46.85"/><rect class="cls-3" x="280.32" y="66.11" width="3.11" height="47.14"/><rect class="cls-3" x="280.32" y="197.78" width="5.99" height="5.99"/><rect class="cls-3" x="82.35" y="9.24" width="69" height="8.77"/><rect class="cls-2" x="87.3" y="275.91" width="37.25" height="2.81"/><rect class="cls-2" x="132.58" y="275.91" width="37.94" height="2.81"/><rect class="cls-2" x="181.29" y="277.32" width="28.23" height="1.41"/><rect class="cls-2" x="222.03" y="277.32" width="16.3" height="1.41"/><rect class="cls-2" x="34.63" y="94.91" width="9.31" height="9.31"/><rect class="cls-2" x="276.44" y="168.73" width="6.98" height="6.98"/><rect class="cls-2" x="260.15" y="217.23" width="6.51" height="6.51"/><rect class="cls-3" x="34.63" y="220.48" width="118.5" height="3.26"/><polyline class="cls-2" points="252.19 37.3 252.19 164.37 252.78 164.37 252.78 37.3"/><polyline class="cls-2" points="258.46 37.3 258.46 164.37 259.04 164.37 259.04 37.3"/><polyline class="cls-2" points="264.72 37.3 264.72 164.37 265.3 164.37 265.3 37.3"/><rect class="cls-2" x="47.72" y="26.78" width="6.79" height="39.33"/><rect class="cls-3" x="264.72" y="250.91" width="3.04" height="31.31"/><text class="cls-4" transform="translate(42.69 195.43)">技術<tspan x="0" y="14.4">背景</tspan></text><path class="cls-5" d="M100.15,100.94c-9.63.71,1.18-9.75-14.31-4.36C70.6,101.89,79.56,112,85,111s-13.28,10-4.66,10.16-6.4,8.38,2,8.18,12.33.39,8.61-4.55-.36-5.37,6.32,1.34S120.84,99.41,100.15,100.94Zm2.11,19.71c-4,4.87-4.3-4.85-14.57-3s7.22-7.8-1-8.42-4.18-8.22,4.9-7.1c4,.49-2.9,5.54,5.9,5.62S106.28,115.78,102.26,120.65Z"/><path class="cls-5" d="M212.05,120.1c-9.45-.56-11.11-1.73-3-5.82s3.55,8.72,9.89,3.33,8.1-14.76,1.41-10.64-15.58,8.15-13.27,5.21,1.21-5.27-1.58-3.93.68-5.86,7.19-7.22-5.51,5.91,1.75,5.07,16-9.91,2.52-9.6-20.94,19.16-14,15.78-12,11-2.35,11.2,10.43,7.28,16.72,6.19C227.51,127.9,221.5,120.66,212.05,120.1Z"/><path class="cls-5" d="M121.59,125.41c-9.45-.56-11.12-1.73-3-5.81s3.55,8.71,9.89,3.33,8.1-14.77,1.41-10.65-15.58,8.16-13.28,5.21,1.22-5.26-1.57-3.92.68-5.86,7.18-7.22-5.5,5.9,1.75,5.06,16-9.91,2.53-9.6-20.95,19.16-14,15.78-12,11-2.35,11.21,10.43,7.28,16.72,6.19C137.05,133.21,131,126,121.59,125.41Z"/><path class="cls-5" d="M105,98.86c4.09,1.58,4.76-1.54,1.36-3.69C101.13,91.85,100.92,97.28,105,98.86Z"/><path class="cls-5" d="M154.82,123.26c-2.17,1.62-.22-3.73-4.85-2.91s-5.66,1-5.58-1,0-2.69-3.74-3.17c-6-.76,11.75-6.9,8.27-1.69s8.82,7.19,9.08,2.44c.17-3.06-1.23-10.34-11.53-9.56-12.93,1-12.83,10.28-8,11.28s.17,5,4.39,4.91,5.77-2.91,7,.85,3.73,2.64,5.19,1.31,4.79,6.7-9.58,2.63-15.08,5.95-3.65,9,21.31-1.82,20.37-7.38S157,121.63,154.82,123.26Z"/><path class="cls-5" d="M159.36,104.91c3.7-.09,6.66-2,6.61-4.19s-3.1-4-6.8-3.88-6.66,2-6.6,4.19S155.66,105,159.36,104.91Z"/><path class="cls-5" d="M172.05,124.28l-.09,0c-2.48-.45-.78-2.43.69-4.41a3,3,0,0,1,3.47-1,11.28,11.28,0,0,0,2.23.52c8.28,1.11-7.06,5.93-1.33,6.92s-3.49,4.61,1.5,5.55-9.6,6.55-.48,6.22,18.64-4.41,10-6.13-8.42-1.48-7.28-3.37a5.37,5.37,0,0,0,.54-1.23h0c.82-2.87-1.22-2.61.52-3.89s4.63-.89,3.28,1.94-.24,3.33,3.46,2.53c4.36-.94-3.17,5.52,2.6,3.48s-2.78,8.44,4,5.26,18.84-10.92,8.94-10.17-12.29,3.39-11.18.89-6.16.12-5.26-1.07c.39-.51,1.18-1.39,1.94-2.22a2.93,2.93,0,0,1,.84-.64c5.36-2.81,10.17-8,8-12.92-2.65-6-7-7.61-14.75-4.73h0c-.39.14-.79.3-1.19.47l-.18.07c-1.58.53-3.81,1-2.59-1.42,1.8-3.52-6.45,1.11-4.87-.16s1.5-3.53-.92-1.57-2.51,4.28,1.24,3.28.48,2.78-1.39,5.79h0a5,5,0,0,0-.86,3.34l-.48-.13c-5.8-1.23,4.43-12.25-5.77-10.56-9.53,1.58-11.43,12.77-2.31,12.74s-5.64,5.72.13,8.37-5.85,7.22-.18,8.2c5.22.91,11.41-7.49,8.6-9.53Zm11.79-5.82h0c-2.94-2.21-7.72-3.18-3.6-5.81,4.34-2.77,14.66-2.27,9.34,4.07-.53.63-1.08,1.23-1.63,1.79C186.81,119.67,185.22,119.53,183.84,118.46Z"/><path class="cls-5" d="M97.52,109.86c-1.71,0-3.86-.17-5.32-1.25l-.93-.69-.4-1a4.42,4.42,0,0,1-.25-1.93l.07-.85h-.85a7.63,7.63,0,0,0-4.63,1.29l-1.25,1,1.51.43a6.86,6.86,0,0,0,1.43.24,6,6,0,0,1,2.81.81l.93.6.35,1c.44,1.31,0,2.68-1.38,4.45l-1,1.27h1.61a12.65,12.65,0,0,1,8.85,3.72l.45.39.62.52.5-.62c1.85-2.28,2.57-5.27,1.7-7.13C101.68,110.66,100,109.89,97.52,109.86Zm-8.74-4.11.26,0a.34.34,0,0,1,0,.1ZM99.9,117.57a14.18,14.18,0,0,0-8.21-3.85,6.27,6.27,0,0,0,1-3,13.17,13.17,0,0,0,4.78.75c1,0,2.9.2,3.42,1.33h0C101.45,113.9,101,115.9,99.9,117.57Z"/><path class="cls-5" d="M211.92,115.53l-.63.16a6.15,6.15,0,0,0-1.3.51l-2.6,1.37,2.68.22,1.62.12,1.16.07-.37-1.1a6.78,6.78,0,0,0-.29-.76Z"/><path class="cls-5" d="M222.29,119.56c4.68-4.51,7.7-11.45,4.93-15.27a4.76,4.76,0,0,0-1-1,7,7,0,0,0,1.42-4.45,6,6,0,0,0-4-5.11,17,17,0,0,0-6.87-1c-8.45.2-14.84,6.1-18,11.47-3.61-3.81-8.86-4.57-15.63-2.25a4.41,4.41,0,0,0-.56-.78,4.58,4.58,0,0,0-4.22-1.34,4.11,4.11,0,0,0-1.43-.93c-1.69-.65-3.5-.21-5.39,1.32a11.13,11.13,0,0,0-1,.92,6.5,6.5,0,0,0-.9-.15,2.64,2.64,0,0,0,0-.4c-.1-4.42-4.66-7.65-10.61-7.51s-10.34,3.57-10.24,8a6.4,6.4,0,0,0,.58,2.51,20.51,20.51,0,0,0-3.23,0,20,20,0,0,0-9.29,2.73,5.62,5.62,0,0,0,.29-2.2,6,6,0,0,0-3.95-5.11,16.82,16.82,0,0,0-6.87-1,20.42,20.42,0,0,0-13.49,5.84,10.56,10.56,0,0,0-1.67-2.81,4.58,4.58,0,0,0,.53-.84c1.17-2.3.57-5.75-3.38-8.26-3.66-2.31-6.13-1.75-7.56-.88A4.91,4.91,0,0,0,98.46,95a5.62,5.62,0,0,0-2.4-2.82c-2.36-1.38-5.68-1.13-11.44.88C72.52,97.26,73.4,104.58,74,106.72a11.07,11.07,0,0,0,4.82,6.38c-3.06,2.79-5.31,5.42-4.16,8.52a4.6,4.6,0,0,0,2.86,2.79c-1.09,1.51-2.19,3.6-1,5.91.94,1.9,3,2.82,6,2.75L85,133h.11L87,133c4-.1,7.18-.4,8.58-3.27a.37.37,0,0,0,.05-.11c2.27,1.56,5.14,1.53,7.91-.16l.44-.29c.65,1.48,2.23,3.25,6,3.35s5.68,1.47,7.78,3.06c1.94,1.49,4.36,3.33,8,3.24h0a12.08,12.08,0,0,0,1.69-.16,13.9,13.9,0,0,0,5.42-2,17.58,17.58,0,0,0,8,4.26,30.84,30.84,0,0,0,8.67,1.06c5.31-.13,10.07-1.74,13.09-4.42a8.59,8.59,0,0,0,1.11.27,10.52,10.52,0,0,0,7.93-2.24,4,4,0,0,0-.11,3.13c1.14,3.14,4.92,3,6.16,3l.53,0a39.72,39.72,0,0,0,10.08-1.68c.45-.15,1-.33,1.59-.56a4.83,4.83,0,0,0,.4.38c2.39,2,5.49.59,6.52.1a65.8,65.8,0,0,0,9-5.14,22.88,22.88,0,0,0,4.08-3.39,10.41,10.41,0,0,0,6.37,2.06,11,11,0,0,0,1.69-.17c7.92-1.37,8.55-5.76,8.44-7.6C226.19,123.44,224.77,121.28,222.29,119.56Zm-4.67,12.23a9.65,9.65,0,0,1-1.46.15,9.54,9.54,0,0,1-6-2.18,1.51,1.51,0,0,1-.57-.73,8.84,8.84,0,0,1-.51.89,19.25,19.25,0,0,1-4.21,3.63,65.91,65.91,0,0,1-8.76,5c-1.49.69-3.39,1.34-4.82.12a2.82,2.82,0,0,1-.52-.58l-.37-.54-.6.26c-.71.31-1.44.55-2,.73a38.12,38.12,0,0,1-9.67,1.61l-.5,0c-2.69.06-4.12-.55-4.65-2-.6-1.67.47-3,2.4-4.48l.64-.51-.53-.62a2.75,2.75,0,0,1-.5-.89l-.49-1.37-.88,1.15c-2,2.65-5.77,5.5-9.65,4.82a6.47,6.47,0,0,1-1.29-.35l-.51-.18-.33.36a2,2,0,0,1-.21.2c-2.74,2.49-7.18,4-12.18,4.1a29.53,29.53,0,0,1-8.22-1,15.75,15.75,0,0,1-7.68-4.31,2.43,2.43,0,0,1-.49-.7,3.75,3.75,0,0,1-.59.61,11.62,11.62,0,0,1-5.29,2.08,10.44,10.44,0,0,1-1.47.14h0c-3.06.07-5.05-1.45-7-2.92-2.13-1.61-4.32-3.28-8.68-3.39-2.36-.05-4-.89-4.62-2.42a3.76,3.76,0,0,1-.23-.61v0h0a5.33,5.33,0,0,1-.12-1.54l-1.16,1a10,10,0,0,1-1.17.83c-2.56,1.56-5.09,1.41-7-.41l-1.07-1-.25,1.48a3.22,3.22,0,0,1-.29.91c-.94,1.91-3,2.28-7.21,2.38l-1.83,0H85l-2.63,0c-1.53,0-3.66-.12-4.53-1.88s.24-3.47,1.58-5.17l.81-1L79,123.19a3.41,3.41,0,0,1-2.87-2.11c-.9-2.44,1.53-4.86,4.55-7.53l.86-.77-1-.52a9.7,9.7,0,0,1-5-5.93c-.47-1.82-1.17-8,9.65-11.8,5.28-1.84,8.22-2.13,10.14-1a5,5,0,0,1,2.19,3.83v0c0,.24.1.53.16.74l.12.46.46.11a6.11,6.11,0,0,0,1.68.07h0l1.27,0-.62-1.11h0a5,5,0,0,1-.52-1.79,3.47,3.47,0,0,1,1.6-3.38c1.5-.92,3.54-.62,5.9.86,3.12,2,3.67,4.56,2.82,6.24a3.14,3.14,0,0,1-.72.94h0a2.53,2.53,0,0,1-.72.53s.48.39.68.6h0a9.16,9.16,0,0,1,2.12,3.62,2.46,2.46,0,0,1,.09.29h0a12,12,0,0,1,.3,1.4s.66-.69,1-1v0a19.26,19.26,0,0,1,13.29-6.23,15.48,15.48,0,0,1,6.22.84,4.51,4.51,0,0,1,3,3.78,5.9,5.9,0,0,1-1.59,4l-.63.75.87.45a1.14,1.14,0,0,1,.22.12h0a2.59,2.59,0,0,1,.64.64,2.92,2.92,0,0,1,.54-.94c1.63-1.68,4.77-3.69,10.63-4.14a18.82,18.82,0,0,1,4.22.13l.43,0a11.74,11.74,0,0,1,2.35.33,22.48,22.48,0,0,1-1.76-1.61,4.81,4.81,0,0,1-1.14-3c-.08-3.53,3.66-6.28,8.71-6.4s8.92,2.46,9,6a4.08,4.08,0,0,1-.07.94,3.22,3.22,0,0,1-.47,1.13,3.17,3.17,0,0,1,1.23-.2,6.53,6.53,0,0,1,1.79.27l.49.15.34-.38a8.55,8.55,0,0,1,1.14-1.1q2.13-1.73,3.84-1.07a2.57,2.57,0,0,1,1.08.79l.3.37.46-.09a3.19,3.19,0,0,1,3.21.79,2.76,2.76,0,0,1,.55.94l.25.78.76-.29c7-2.56,12-1.78,15.31,2.39a4.31,4.31,0,0,1,.73,1.33,9.49,9.49,0,0,1,.58-1.46c2.76-5.23,8.94-11.42,17.23-11.62a15.45,15.45,0,0,1,6.22.85,4.49,4.49,0,0,1,3,3.77,5.88,5.88,0,0,1-1.59,4l-.62.75.86.45a3.41,3.41,0,0,1,1.21,1c2.38,3.28-1,9.94-5.46,13.86l-.82.72.93.55c2.53,1.49,4,3.49,4.16,5.48C224.83,127.24,224.29,130.64,217.62,131.79Z"/><path class="cls-5" d="M121.47,120.84l-.64.16a6.23,6.23,0,0,0-1.3.51l-.1,0-.09,0-2.64,1.25,2.91.24,1.61.12,1.19.09-.39-1.13c-.12-.32-.21-.55-.29-.74Z"/><path class="cls-5" d="M139.87,125.15l-.68-1.11a4.48,4.48,0,0,1-.49-2.5V121l-.52-.19-.11,0-.07,0a5.75,5.75,0,0,1-2.7-1.37,8.3,8.3,0,0,1-.72-.7,4.69,4.69,0,0,1-.48.87A21.5,21.5,0,0,1,130,124.4l-.82.71.93.55a11.37,11.37,0,0,1,2.05,1.52l.54.55a3.55,3.55,0,0,1,.53-.56,8.26,8.26,0,0,1,5.31-1.94Zm-7.14.42a10.85,10.85,0,0,0-.91-.69A23.85,23.85,0,0,0,135,121.1a7.32,7.32,0,0,0,2.16,1,6.12,6.12,0,0,0,.24,1.63A9.44,9.44,0,0,0,132.73,125.57Z"/><path class="cls-5" d="M148.56,127l-.65-1.54-.31-.73-.66.18-.17.06-2.54,1,2.71.48Z"/><path class="cls-5" d="M188.52,114.53l.61-.94-1.1-.25a10.77,10.77,0,0,0-5.19.44l-1.65.58,1.52.85a21.3,21.3,0,0,1,2.41,1.5l0,0a2.31,2.31,0,0,0,.47.29l.51.22.38-.39c.52-.55,1-1.05,1.4-1.55A6.75,6.75,0,0,0,188.52,114.53Z"/><path class="cls-5" d="M154.77,72.84l.62-1.93,1.37,4.3a1.75,1.75,0,0,1-1-.32,1.7,1.7,0,0,1-.61-.85Z"/><path class="cls-5" d="M145.74,65.25a1.67,1.67,0,0,1,1.6,1.17l.38,1.2-.61,1.93Z"/><polygon class="cls-5" points="151.54 72.58 152.77 72.58 154.26 67.89 153.03 67.89 151.54 72.58"/><path class="cls-5" d="M153.19,72.57h1.23l2.34-7.32h0a1.69,1.69,0,0,0-1.61,1.17Z"/><path class="cls-5" d="M145.74,75.21h0a1.67,1.67,0,0,0,1.6-1.17l2-6.15h-1.23Z"/><polygon class="cls-5" points="149.88 72.58 151.12 72.58 152.61 67.89 151.38 67.89 149.88 72.58"/><polygon class="cls-5" points="148.23 72.58 149.46 72.58 150.96 67.89 149.72 67.89 148.23 72.58"/><polygon class="cls-5" points="171.43 69.63 171.43 70.85 155.41 70.85 155.8 69.63 171.43 69.63"/><polygon class="cls-5" points="132.05 70.85 132.05 69.63 147.07 69.63 146.69 70.85 132.05 70.85"/><path class="cls-5" d="M115.44,154.4l.62-1.93,1.37,4.3a1.73,1.73,0,0,1-1.61-1.17Z"/><path class="cls-5" d="M106.41,146.81A1.67,1.67,0,0,1,108,148l.38,1.2-.61,1.93Z"/><polygon class="cls-5" points="112.21 154.13 113.44 154.13 114.94 149.44 113.7 149.44 112.21 154.13"/><path class="cls-5" d="M113.86,154.13h1.23l2.34-7.32h0a1.7,1.7,0,0,0-1.61,1.17Z"/><path class="cls-5" d="M106.41,156.77h0a1.67,1.67,0,0,0,1.6-1.17l2-6.16h-1.23Z"/><polygon class="cls-5" points="110.56 154.13 111.79 154.13 113.28 149.44 112.05 149.44 110.56 154.13"/><polygon class="cls-5" points="108.9 154.13 110.13 154.13 111.63 149.44 110.4 149.44 108.9 154.13"/><polygon class="cls-5" points="132.1 151.19 132.1 152.4 116.09 152.4 116.47 151.19 132.1 151.19"/><polygon class="cls-5" points="92.72 152.4 92.72 151.19 107.74 151.19 107.36 152.4 92.72 152.4"/><path class="cls-5" d="M154.82,154.4l.62-1.93,1.37,4.3a1.69,1.69,0,0,1-1-.33,1.63,1.63,0,0,1-.61-.84Z"/><path class="cls-5" d="M145.79,146.81a1.67,1.67,0,0,1,1.6,1.17l.38,1.2-.61,1.93Z"/><polygon class="cls-5" points="151.59 154.13 152.82 154.13 154.31 149.44 153.08 149.44 151.59 154.13"/><path class="cls-5" d="M153.24,154.13h1.23l2.34-7.32h0A1.69,1.69,0,0,0,155.2,148Z"/><path class="cls-5" d="M145.79,156.77h0a1.67,1.67,0,0,0,1.6-1.17l2-6.16h-1.23Z"/><polygon class="cls-5" points="149.93 154.13 151.16 154.13 152.66 149.44 151.43 149.44 149.93 154.13"/><polygon class="cls-5" points="148.28 154.13 149.51 154.13 151 149.44 149.78 149.44 148.28 154.13"/><polygon class="cls-5" points="171.48 151.19 171.48 152.4 155.47 152.4 155.85 151.19 171.48 151.19"/><polygon class="cls-5" points="132.1 152.4 132.1 151.19 147.12 151.19 146.74 152.4 132.1 152.4"/><path class="cls-5" d="M194.2,154.4l.62-1.93,1.37,4.3a1.67,1.67,0,0,1-1-.33,1.63,1.63,0,0,1-.61-.84Z"/><path class="cls-5" d="M185.17,146.81a1.67,1.67,0,0,1,1.6,1.17l.38,1.2-.61,1.93Z"/><polygon class="cls-5" points="190.97 154.13 192.2 154.13 193.69 149.44 192.46 149.44 190.97 154.13"/><path class="cls-5" d="M192.62,154.13h1.23l2.34-7.32h0a1.68,1.68,0,0,0-1.61,1.17Z"/><path class="cls-5" d="M185.17,156.77h0a1.67,1.67,0,0,0,1.6-1.17l2-6.16H187.5Z"/><polygon class="cls-5" points="189.31 154.13 190.54 154.13 192.04 149.44 190.81 149.44 189.31 154.13"/><polygon class="cls-5" points="187.66 154.13 188.89 154.13 190.38 149.44 189.15 149.44 187.66 154.13"/><polygon class="cls-5" points="210.86 151.19 210.86 152.4 194.84 152.4 195.23 151.19 210.86 151.19"/><polygon class="cls-5" points="171.48 152.4 171.48 151.19 186.5 151.19 186.12 152.4 171.48 152.4"/><text class="cls-6" transform="translate(119.04 88.56)">これは私の</text></g></g></svg>