<svg xmlns="http://www.w3.org/2000/svg" viewBox="0 0 268.88 271.59"><defs><style>.cls-1{fill:#2c2c30;}.cls-2{fill:#097f00;}.cls-3{fill:#9bf424;}.cls-4{font-size:12px;font-family:MS-UIGothic, MS UI Gothic;}.cls-4,.cls-5,.cls-6{fill:#fff;}.cls-6{font-size:20.86px;font-family:KozGoPr6N-Regular-90ms-RKSJ-H, Kozuka Gothic Pr6N;}</style></defs><g id="Layer_2" data-name="Layer 2"><g id="Layer_2-2" data-name="Layer 2"><path class="cls-1" d="M79.73,253.07l7.52-7.52v17.37H10.34v-8.3h4.21v-1.55ZM258.21,147.73V95.64H253v-46L224.16,20.85H216V13.29H198.26V8.4H162.57v2.66h21.72v1.65H152.38l-3.2,3.2H130.36V12H98.16v3.49H92.54V11.45H51.41v3.68h-27L17.71,8.4H10.34V58.78H23v3.88H10.34v5.63H23v3.88H10.34v5.62H23v3.88H10.34V87.3H23v3.88H10.34V96.8H23v3.88H10.34v5.63H23v3.88H10.34v138h4.21v1.7H66.94l8.72-8.72h64.6v5.47h21V241.2h4.85v3.86h2.33V241.2h2.33v3.86H173V241.2h2.33v3.86h2.33V241.2H180v3.86h2.33V241.2h2.32v3.86H187V241.2h2.33v3.86h2.33V241.2H194v3.86h2.33V241.2h2.33v3.86H201V241.2h2.33v3.86h2.32V241.2H208v3.86h2.33V241.2h2.33v3.86H215V241.2h2.32v3.86h2.33V241.2h2.94l7.21,7.21h35.11v-94ZM239.49,259.18H209.22v-9.9H168.78v2.62H139.09v7.28h-3v3.74H264.86V250.74H247.93Z"/><rect class="cls-2" x="213.52" y="252.9" width="2.33" height="2.33" transform="translate(242.53 -77.39) rotate(45)"/><rect class="cls-2" x="218.32" y="252.9" width="2.33" height="2.33" transform="translate(243.93 -80.78) rotate(45)"/><rect class="cls-2" x="223.12" y="252.9" width="2.33" height="2.33" transform="translate(245.34 -84.18) rotate(45)"/><rect class="cls-2" x="227.92" y="252.9" width="2.33" height="2.33" transform="translate(246.75 -87.57) rotate(45)"/><rect class="cls-2" x="232.72" y="252.9" width="2.33" height="2.33" transform="translate(248.15 -90.97) rotate(45)"/><rect class="cls-2" x="237.52" y="252.9" width="2.33" height="2.33" transform="translate(249.56 -94.36) rotate(45)"/><rect class="cls-2" x="257.82" y="167.42" width="10.09" height="69.06"/><rect class="cls-2" x="96.03" y="7.18" width="37.25" height="2.33"/><rect class="cls-2" x="82.45" y="7.18" width="6.6" height="2.33" transform="translate(171.49 16.68) rotate(180)"/><rect class="cls-2" x="30.65" y="7.18" width="44.81" height="2.33"/><polygon class="cls-2" points="16.12 242.12 67.61 242.12 58.3 232.81 25.43 232.81 25.43 199.94 16.12 190.63 16.12 242.12"/><rect class="cls-2" x="254.72" y="62.76" width="2.62" height="10.48"/><rect class="cls-2" x="254.72" y="76.73" width="2.62" height="10.48"/><path class="cls-2" d="M153.26,18.62v13.2h13.19V18.62Zm10.86,10.87h-8.54V21h8.54Z"/><path class="cls-2" d="M172.27,18.62v13.2h13.19V18.62Zm10.86,10.87H174.6V21h8.53Z"/><path class="cls-2" d="M191.28,18.62v13.2h13.19V18.62Zm10.86,10.87h-8.53V21h8.53Z"/><polygon class="cls-3" points="257.65 46.79 257.65 44.45 255.31 44.45 255.31 42.11 252.97 42.11 252.97 39.77 250.63 39.77 250.63 37.43 248.29 37.43 248.29 35.09 245.95 35.09 245.95 32.75 243.61 32.75 243.61 30.41 241.27 30.41 241.27 28.07 238.93 28.07 238.93 25.73 236.59 25.73 236.59 23.39 234.25 23.39 234.25 21.05 231.91 21.05 231.91 18.7 229.56 18.7 229.56 16.36 227.22 16.36 227.22 14.02 224.88 14.02 224.88 11.68 222.01 11.68 222.01 14.55 224.35 14.55 224.35 16.89 226.7 16.89 226.7 19.23 229.04 19.23 229.04 21.57 231.38 21.57 231.38 23.91 233.72 23.91 233.72 26.25 236.06 26.25 236.06 28.6 238.4 28.6 238.4 30.94 240.74 30.94 240.74 33.28 243.08 33.28 243.08 35.62 245.42 35.62 245.42 37.96 247.76 37.96 247.76 40.3 250.1 40.3 250.1 42.64 252.44 42.64 252.44 44.98 254.78 44.98 254.78 47.32 257.12 47.32 257.12 49.66 259.99 49.66 259.99 46.79 257.65 46.79"/><path class="cls-3" d="M45.39,142.2v-6.79H38v7.37h7.37Zm-6.2-5.63h5v5.05h-5Zm150.15,93.9h42.29V225H189.34Zm1.16-4.27h40v3.1h-40Zm52.38-106.31h6.6v-6.6h-6.6Zm1.17-5.43h4.26v4.27h-4.26Zm-19.4-29.3V79.54h-6.21v6.21h6.21ZM219.6,80.7h3.88v3.88H219.6ZM6.21,52.38H14V18.24H6.21Zm1.16-33H12.8V51.21H7.37Zm100.1,227.75h9.7v-9.7h-9.7Zm1.17-8.54H116V246h-7.37ZM27.94,268.1H69.45v-5.82H27.94Zm1.16-4.65H68.29v3.49H29.1Zm134.63,8.14h6.21v-6.2h-6.21Zm1.17-5h3.88v3.88H164.9Zm97.77-135.41v6.21h6.21v-6.21Zm1.16,1.17h3.88v3.87h-3.88ZM209.13,6.4V0h-7V7h7Zm-5.82-5.24H208V5.82h-4.65ZM0,127.65H6.21v-6.21H0Zm1.16-5.05H5v3.89H1.16Z"/><text class="cls-4" transform="translate(24.74 36.11)">技術<tspan x="0" y="14.4">背景</tspan></text><path class="cls-5" d="M134.15,141.25,116,167l1.92,1.7,17.55-25.63Zm1.31-1.86,1.28,1.86,15.74-23,4.21-9Zm58.46-25.26a14.38,14.38,0,0,0-20.31-.52l-14,13.26,8.5,9,11.57-11v-.62a3,3,0,1,1,5,2.08,2.88,2.88,0,0,1-2.24.8l-.62,0-11.57,11,7.18,7.57-23.51,20.74,1.62,2.35,23.86-21,14-13.27a14.36,14.36,0,0,0,.53-20.3Zm1.13,10.18a11.49,11.49,0,0,1-3.59,8.08l-11.94,11.34-5.28-5.57,8.67-8.24a5.72,5.72,0,0,0,3.72-1.57,5.76,5.76,0,1,0-9.7-4.72l-8.67,8.24L163.61,127l11.94-11.34a11.56,11.56,0,0,1,16.33.42A11.44,11.44,0,0,1,195.05,124.31Zm-42.73,43.48-28.45,25.1A11.4,11.4,0,0,0,110,180.27l6.41-9.35-2-1.65-9.84,14a11.42,11.42,0,0,0,15.81,16.48L154,170.09Zm-33.83,29.85a8.61,8.61,0,1,1,.32-12.18A8.63,8.63,0,0,1,118.49,197.64Z"/><path class="cls-5" d="M168.9,183.23l-52.11-74,4.21,9,42.47,62a11.4,11.4,0,0,0-13.86,12.62l-12.87-11.35-2.13,1.88,18.49,16.29a11.42,11.42,0,0,0,15.8-16.48Zm-1.73,14.1a8.62,8.62,0,1,1-.31-12.18A8.63,8.63,0,0,1,167.17,197.33ZM96,145.63l7.18-7.57-11.57-11-.62,0a2.84,2.84,0,0,1-2.23-.8,3,3,0,1,1,5-2.08v.62l11.57,11,8.51-9-14-13.26a14.36,14.36,0,1,0-19.78,20.82l14,13.27,38.69,34.08,2.06-1.94ZM94,143.73,82,132.39a11.55,11.55,0,1,1,15.92-16.75L109.87,127l-4.64,4.89-8.68-8.24a5.76,5.76,0,1,0-6,6.29l8.68,8.24Z"/><path class="cls-5" d="M143.3,103.57a4.33,4.33,0,0,0-6.11,0l-.45.45-.45-.45a4.32,4.32,0,0,0-6.11,6.11l.45.45,6.11,6.1,6.11-6.1.45-.45A4.32,4.32,0,0,0,143.3,103.57Z"/><path class="cls-5" d="M77.29,160.29l-.68-2.15a3,3,0,0,0-1.1-1.52,3,3,0,0,0-1.78-.58l2.46,7.72Z"/><path class="cls-5" d="M89.94,169.66l.69,2.15a3,3,0,0,0,2.87,2.1L91,166.2Z"/><polygon class="cls-5" points="80.89 160.77 78.2 169.18 80.41 169.18 83.09 160.77 80.89 160.77"/><path class="cls-5" d="M77.92,160.77l-4.19,13.15a3,3,0,0,0,2.88-2.11l3.51-11Z"/><path class="cls-5" d="M90.63,158.14l-3.52,11h2.21L93.5,156A3,3,0,0,0,90.63,158.14Z"/><polygon class="cls-5" points="83.85 160.77 81.17 169.18 83.38 169.18 86.06 160.77 83.85 160.77"/><polygon class="cls-5" points="86.82 160.77 84.14 169.18 86.35 169.18 89.03 160.77 86.82 160.77"/><path class="cls-5" d="M181,160.29l-.69-2.15a3,3,0,0,0-2.88-2.1l2.46,7.72Z"/><path class="cls-5" d="M193.66,169.66l.68,2.15a3,3,0,0,0,2.88,2.1l-2.46-7.71Z"/><polygon class="cls-5" points="184.6 160.77 181.92 169.18 184.13 169.18 186.81 160.77 184.6 160.77"/><path class="cls-5" d="M181.63,160.77l-4.19,13.15a3,3,0,0,0,2.88-2.11l3.52-11Z"/><path class="cls-5" d="M194.34,158.14l-3.52,11H193L197.22,156A3,3,0,0,0,194.34,158.14Z"/><polygon class="cls-5" points="187.57 160.77 184.89 169.18 187.09 169.18 189.78 160.77 187.57 160.77"/><polygon class="cls-5" points="190.54 160.77 187.85 169.18 190.06 169.18 192.74 160.77 190.54 160.77"/><text class="cls-6" transform="translate(78.11 105.46) rotate(-48.48)">私の痛みを取る</text><path class="cls-5" d="M117,93.14c0-1.77,1-2.87,2.35-2.87s2.35,1.1,2.35,2.87-1,2.91-2.35,2.91S117,94.92,117,93.14Zm4.3,0c0-1.52-.78-2.51-2-2.51s-1.94,1-1.94,2.51.78,2.54,1.94,2.54S121.25,94.67,121.25,93.14Zm-3.29,0a1.51,1.51,0,0,1,1.44-1.64,1.15,1.15,0,0,1,.9.41l-.29.34a.82.82,0,0,0-.58-.26c-.54,0-.88.48-.88,1.15s.33,1.24.84,1.24a1,1,0,0,0,.7-.3l.27.38a1.43,1.43,0,0,1-1,.41C118.59,94.87,118,94.22,118,93.14Z"/><path class="cls-5" d="M125.19,95.27l.36-.47a2.25,2.25,0,0,0,1.59.66c.76,0,1.33-.39,1.33-1s-.56-1.11-2-1.11V92.8c1.31,0,1.81-.46,1.81-1s-.46-.87-1.13-.87a2.09,2.09,0,0,0-1.36.56L125.4,91a2.69,2.69,0,0,1,1.77-.7c1,0,1.83.51,1.83,1.41,0,.67-.49,1.09-1.18,1.32v0a1.53,1.53,0,0,1,1.38,1.4c0,1-.91,1.59-2,1.59A2.71,2.71,0,0,1,125.19,95.27Z"/><path class="cls-5" d="M133.31,93.16c0-1.86.75-2.86,2-2.86s2,1,2,2.86-.76,2.9-2,2.9S133.31,95,133.31,93.16Zm3.31,0c0-1.59-.55-2.28-1.32-2.28s-1.32.69-1.32,2.28.54,2.31,1.32,2.31S136.62,94.75,136.62,93.16Zm-1.86-.06a.53.53,0,0,1,.54-.57.58.58,0,1,1-.54.57Z"/><path class="cls-5" d="M144.49,91h-3.2V90.4h4v.45A7,7,0,0,0,143.4,96h-.76A7.46,7.46,0,0,1,144.49,91Z"/><path class="cls-5" d="M152.48,91h-3.19V90.4h4v.45A7,7,0,0,0,151.4,96h-.76A7.45,7.45,0,0,1,152.48,91Z"/></g></g></svg>