<svg xmlns="http://www.w3.org/2000/svg" viewBox="0 0 267.95 282.71"><defs><style>.cls-1{fill:#491d7f;}.cls-2{fill:#f46188;}.cls-3{fill:#642ab6;}.cls-4{font-size:12px;font-family:MS-UIGothic, MS UI Gothic;}.cls-4,.cls-5,.cls-6{fill:#fff;}.cls-6{font-size:7.41px;font-family:KozGoPr6N-Regular-90ms-RKSJ-H, Kozuka Gothic Pr6N;}</style></defs><g id="Layer_2" data-name="Layer 2"><g id="Layer_2-2" data-name="Layer 2"><path class="cls-1" d="M268,45.82V13.24H11.87V269.32H199.54l17.9-17.9h37.64V204.86L268,192V169.91L255.33,157.3V145L268,157.56v-6.27l-12.62-12.62V126.33L268,138.94v-6.28l-12.62-12.61V107.7L268,120.32V114l-12.62-12.61V89.08L268,101.69V95.42L255.33,82.8V70.46L268,83.07V76.79L255.33,64.18V51.83L268,64.45V58.17L255.33,45.56V33.21ZM20.35,240.17V48.5H89.41v7.37H77.33v3.78H89.41v4.66H77.33v3.78H89.41v4.66H77.33v3.78H89.41v4.66H77.33V85H89.41v4.66H77.33v3.78H89.41v4.65H77.33v3.79H89.41v4.65H77.33v3.79H89.41v4.65H77.33v3.79H89.41v4.65H77.33v3.78H89.41v4.66H77.33v3.78H89.41v4.66H77.33V144H89.41v4.66H77.33v3.78H89.41v4.66H77.33v3.78H89.41v4.65H77.33v3.79H89.41V174H77.33v3.79H89.41v4.65H77.33v3.79H89.41v4.65H77.33v3.78H89.41v4.66H77.33v3.78H89.41v4.66H77.33v3.78H89.41v4.66H77.33V220H89.41v4.66H77.33v3.78H89.41v4.66H77.33v3.78H89.41v3.3Z"/><path class="cls-2" d="M21.05,38.93H19.5L36.83,21.6h4.85L34,29.28H30.7Zm17.09-9.65h3.3l7.68-7.68H44.27L26.94,38.93h1.55Zm7.43,0h3.31l7.68-7.68H51.7L34.38,38.93h1.55Zm7.44,0h3.3L64,21.6H59.14L41.81,38.93h1.56Zm7.44,0h3.3l7.69-7.68H66.58L49.25,38.93h1.56Zm7.44,0h3.3l7.68-7.68H74L56.69,38.93h1.55Zm7.44,0h3.3l7.68-7.68H81.46L64.13,38.93h1.55Zm7.44,0h3.3l7.68-7.68H88.9L71.57,38.93h1.55Z"/><circle class="cls-2" cx="30.09" cy="251.03" r="5.01"/><circle class="cls-2" cx="47.78" cy="251.03" r="5.01"/><circle class="cls-2" cx="65.47" cy="251.03" r="5.01"/><circle class="cls-2" cx="83.16" cy="251.03" r="5.01"/><polygon class="cls-3" points="105.12 9.6 8.22 9.6 8.22 87.59 4.29 83.66 4.29 39.58 0 35.28 0 0 21.02 0 24.95 3.93 77.28 3.93 80.51 7.16 105.12 7.16 105.12 9.6"/><polygon class="cls-2" points="188.4 15.3 184.23 11.13 188.4 6.96 186.04 4.6 181.87 8.77 177.7 4.6 175.34 6.96 179.51 11.13 175.34 15.3 177.7 17.66 181.87 13.49 186.04 17.66 188.4 15.3"/><polygon class="cls-2" points="214 15.3 209.84 11.13 214 6.96 211.64 4.6 207.47 8.77 203.3 4.6 200.94 6.96 205.11 11.13 200.94 15.3 203.3 17.66 207.47 13.49 211.64 17.66 214 15.3"/><polygon class="cls-2" points="239.61 15.3 235.44 11.13 239.61 6.96 237.25 4.6 233.08 8.77 228.91 4.6 226.55 6.96 230.72 11.13 226.55 15.3 228.91 17.66 233.08 13.49 237.25 17.66 239.61 15.3"/><polygon class="cls-3" points="251.08 247.03 251.08 215.5 245.38 221.2 245.38 241.33 225.25 241.33 219.55 247.03 251.08 247.03"/><path class="cls-2" d="M259.73,21a2.19,2.19,0,0,1-2.18,2.19,2.15,2.15,0,0,1-2.07-1.61h-8.94V204.91l-53.3,53.3H114.48L91.59,281.1H36.24a2.15,2.15,0,0,1-2.07,1.61,2.19,2.19,0,0,1,0-4.38,2.16,2.16,0,0,1,2.07,1.61H91.11L114,257h78.76l52.62-52.62v-184h10.1a2.15,2.15,0,0,1,2.07-1.61A2.19,2.19,0,0,1,259.73,21Z"/><rect class="cls-2" x="2.69" y="116.98" width="4.36" height="4.36"/><rect class="cls-2" x="2.69" y="129.2" width="4.36" height="4.36"/><rect class="cls-2" x="2.69" y="141.42" width="4.36" height="4.36"/><rect class="cls-2" x="2.69" y="153.64" width="4.36" height="4.36"/><rect class="cls-2" x="2.69" y="165.87" width="4.36" height="4.36"/><rect class="cls-2" x="2.69" y="178.09" width="4.36" height="4.36"/><rect class="cls-2" x="2.69" y="190.31" width="4.36" height="4.36"/><rect class="cls-2" x="2.69" y="202.53" width="4.36" height="4.36"/><rect class="cls-2" x="2.69" y="214.75" width="4.36" height="4.36"/><rect class="cls-2" x="2.69" y="226.97" width="4.36" height="4.36"/><polygon class="cls-3" points="236.94 202.82 190.24 249.53 118.8 249.53 118.8 243.27 151.1 243.27 195.18 199.19 224.43 199.19 224.43 48.3 128.98 48.3 128.98 45.69 236.94 45.69 236.94 202.82"/><rect class="cls-2" x="131.31" y="38.93" width="14.55" height="4.87"/><rect class="cls-2" x="233.08" y="165.87" width="6.53" height="26.63"/><rect class="cls-2" x="16.47" y="87.59" width="8.62" height="99.81"/><rect class="cls-2" x="221.88" y="57.03" width="4.88" height="30.55"/><rect class="cls-2" x="128.98" y="266.55" width="31.82" height="5.43"/><rect class="cls-2" x="37.88" width="4.8" height="4.8"/><rect class="cls-2" x="46.85" width="4.8" height="4.8"/><rect class="cls-2" x="55.83" width="4.8" height="4.8"/><rect class="cls-2" x="64.8" width="4.8" height="4.8"/><text class="cls-4" transform="translate(180.94 61.48)">ベクター<tspan x="12.19" y="14.4">背景</tspan></text><path class="cls-5" d="M162.74,144.22h-32.3a1,1,0,0,0-.8.38L124,151.5v-6.25a1,1,0,0,0-1-1h-2.31a1,1,0,0,0-1,1v6.28L114,144.6a1,1,0,0,0-.8-.38h-3.28a1,1,0,0,0-.81,1.69l4.57,5.65,5.17,6.3.58.71a1,1,0,0,1,.24.65v3.93a1,1,0,0,1-1,1h-3.68a1,1,0,0,0-.81.38l-5,6.18a1,1,0,0,0,.8,1.69h3.7a1,1,0,0,0,.8-.38l3.41-4.19a1,1,0,0,1,1.84.65v2.89a1,1,0,0,0,1,1H123a1,1,0,0,0,1-1V159.19a1.06,1.06,0,0,1,.23-.66l.56-.68,5.15-6.29,3.77-4.66a1,1,0,0,1,1.84.66h0a1,1,0,0,0,1,1h21.77a1,1,0,0,1,1,1v9a1,1,0,0,1-1,1H145.48l5.34-6.56a1,1,0,0,0-.81-1.69h-3.7a1,1,0,0,0-.8.38l-6.39,7.87h-2.28a1.28,1.28,0,0,0-1.28,1.28V171.4a1,1,0,0,0,1,1h26.15a1,1,0,0,0,1-1v-2.31a1,1,0,0,0-1-1H141a1,1,0,0,1-1-1v-1.91a1,1,0,0,1,1-1h21.77a1,1,0,0,0,1-1V145.25A1,1,0,0,0,162.74,144.22Z"/><path class="cls-5" d="M190.81,159.81h-8.19a2.19,2.19,0,0,1-1.7-3.57l6.88-8.46a2.18,2.18,0,0,0-1.7-3.56h-.73a2.16,2.16,0,0,0-1.69.8l-12,14.79h0V146.4a2.18,2.18,0,0,0-2.18-2.18h0a2.19,2.19,0,0,0-2.19,2.18v13.41h0v4.37h0v6.06a2.19,2.19,0,0,0,2.19,2.19h0a2.18,2.18,0,0,0,2.18-2.19v-3.87a2.19,2.19,0,0,1,2.19-2.19h10.78a.42.42,0,0,1,.32.68l-3.26,4a2.18,2.18,0,0,0,1.7,3.56h.73a2.17,2.17,0,0,0,1.69-.81l6-7.44.66-.81A2.18,2.18,0,0,0,190.81,159.81Z"/><path class="cls-5" d="M195.73,159.65a5.4,5.4,0,0,0-4.92-3.1h-5.94l5.46-6.71.3-.41h0c4-4.9,3.75-13,1.05-18.32h0a13.75,13.75,0,0,0-5.61-5.63c6,9.06-5.57,11.86-6.46,3.86-1.46-13-13.67-17.63-13.67-17.63s8.63,7.86,4.47,18.55-18.45,8.2-10-.32c8.17-8.19,5.12-24.76-6.08-27.17-15.43-3.32-12.32-18-12.32-18s-7.23,15.36,3.47,20.78c15.39,7.8,9.18,20.73,1.08,20.29s-16-10-13.16-19.69-5.64-14.4-5.64-14.4,6.08,5.34-1,16.77,4.64,15.87,3.15,21.51-11.62,3.88-7.46-4.88-4.21-14.25-4.21-14.25,3.09,7.19-.11,12.37c-3.75,5.31-21.39,12.61-11.58,24.64l4.59,5.67,5.24,6.4v.9h-1.46a4.25,4.25,0,0,0-3.33,1.59l-5,6.18a4.3,4.3,0,0,0,3.33,7h3.7a4.27,4.27,0,0,0,3.33-1.59l.22-.27a4.29,4.29,0,0,0,3.53,1.86H123a4.3,4.3,0,0,0,4.29-4.29V160l5.21-6.37,1.92-2.37a4.2,4.2,0,0,0,2.19.61h4.71l-3.74,4.6h-.72A4.54,4.54,0,0,0,132.3,161V171.4a4.3,4.3,0,0,0,4.29,4.29h26.15a4.28,4.28,0,0,0,3.13-1.37,5.43,5.43,0,0,0,9-4.08v-2.8h3.8a5.45,5.45,0,0,0,4.67,8.25h.73a5.42,5.42,0,0,0,4.22-2l6.71-8.25A5.41,5.41,0,0,0,195.73,159.65Zm-1.47,5.14-6.71,8.26a4.41,4.41,0,0,1-3.44,1.64h-.73a4.45,4.45,0,0,1-3.45-7.25l.82-1h-6.84v3.8a4.43,4.43,0,0,1-7.71,3l-.42-.46-.36.51a3.31,3.31,0,0,1-2.68,1.4H136.59a3.3,3.3,0,0,1-3.29-3.29V161a3.54,3.54,0,0,1,3.54-3.53H138l5.37-6.6h-6.82a3.28,3.28,0,0,1-2-.68l-.39-.29-7.94,9.74V171.4a3.3,3.3,0,0,1-3.29,3.29h-2.31a3.3,3.3,0,0,1-3-1.95l-.33-.74-1.2,1.47a3.26,3.26,0,0,1-2.55,1.22h-3.7a3.29,3.29,0,0,1-2.55-5.37l5-6.18a3.29,3.29,0,0,1,2.56-1.21h2.46v-2.27L111.91,153l-4.58-5.67a3.29,3.29,0,0,1,2.56-5.36h3.28a3.25,3.25,0,0,1,2.54,1.21l1.55,1.9.29-.86a3.29,3.29,0,0,1,3.12-2.25H123a3.29,3.29,0,0,1,3.11,2.22l.29.85,1.51-1.86a3.32,3.32,0,0,1,2.55-1.21h32.3a3.28,3.28,0,0,1,2.68,1.4l.36.5.42-.45a4.43,4.43,0,0,1,7.71,3v7.06l8-9.86a4.41,4.41,0,0,1,3.44-1.64h.73a4.45,4.45,0,0,1,3.45,7.25l-6.79,8.34h8.05a4.43,4.43,0,0,1,3.45,7.24Z"/><path class="cls-5" d="M150.22,157.45h6.92v-6.6h-4.2l.21.65a3.26,3.26,0,0,1-.58,3.06Zm3.12-2.26a4.24,4.24,0,0,0,.92-3.34h1.88v4.6h-3.81Z"/><path class="cls-5" d="M110.17,181l-.25-.8a1.06,1.06,0,0,0-.41-.56,1.11,1.11,0,0,0-.66-.22l.91,2.87Z"/><path class="cls-5" d="M114.88,184.48l.25.79a1.13,1.13,0,0,0,1.07.79l-.91-2.87Z"/><polygon class="cls-5" points="111.51 181.17 110.51 184.3 111.33 184.3 112.33 181.17 111.51 181.17"/><path class="cls-5" d="M110.41,181.17l-1.56,4.89a1.13,1.13,0,0,0,1.07-.79l1.31-4.1Z"/><path class="cls-5" d="M115.13,180.19l-1.3,4.11h.82l1.55-4.89A1.13,1.13,0,0,0,115.13,180.19Z"/><polygon class="cls-5" points="112.61 181.17 111.62 184.3 112.44 184.3 113.44 181.17 112.61 181.17"/><polygon class="cls-5" points="113.72 181.17 112.72 184.3 113.54 184.3 114.54 181.17 113.72 181.17"/><path class="cls-5" d="M187,181l-.26-.8a1.14,1.14,0,0,0-1.07-.78l.92,2.87Z"/><path class="cls-5" d="M191.68,184.48l.25.79a1.14,1.14,0,0,0,1.08.79l-.92-2.87Z"/><polygon class="cls-5" points="188.31 181.17 187.31 184.3 188.14 184.3 189.13 181.17 188.31 181.17"/><path class="cls-5" d="M187.21,181.17l-1.56,4.89a1.13,1.13,0,0,0,1.07-.79l1.31-4.1Z"/><path class="cls-5" d="M191.94,180.19l-1.31,4.11h.82l1.56-4.89A1.12,1.12,0,0,0,191.94,180.19Z"/><polygon class="cls-5" points="189.42 181.17 188.42 184.3 189.24 184.3 190.24 181.17 189.42 181.17"/><polygon class="cls-5" points="190.52 181.17 189.52 184.3 190.34 184.3 191.34 181.17 190.52 181.17"/><text class="cls-6" transform="translate(143.62 185.91)">侵略</text></g></g></svg>