<svg xmlns="http://www.w3.org/2000/svg" viewBox="0 0 262.05 263.05"><defs><style>.cls-1{fill:#491d7f;}.cls-2{fill:#642ab6;}.cls-3{fill:#f46188;}.cls-4{font-size:12px;font-family:MS-UIGothic, MS UI Gothic;}.cls-4,.cls-5,.cls-6{fill:#fff;}.cls-6{font-size:9.43px;font-family:KozGoPr6N-Regular-90ms-RKSJ-H, Kozuka Gothic Pr6N;}</style></defs><g id="Layer_2" data-name="Layer 2"><g id="Layer_2-2" data-name="Layer 2"><path class="cls-1" d="M88.72,9.07V1.26H40.45V9.07h-24v245.6h245.6V9.07ZM20.43,111.8H33.07L20.43,124.45Zm0,21.7,21.69-21.7H59.78L20.43,151.15Zm0,26.71,48.4-48.41H86.48L20.43,177.86Zm0,26.7L95.54,111.8h17.65L20.43,204.56Zm0,26.71L122.24,111.8H139.9L20.43,231.27ZM157,248.38H145.91L157,237.29Zm0-20.15-20.14,20.15H119.2l37.8-37.8Zm0-26.7-46.85,46.85H92.5L157,183.87Zm0-26.71L83.44,248.38H65.79L157,157.17Zm0-26.71L56.74,248.38H39.09L157,130.46Zm0-26.7-127,127h-9.6v-8.06L149,111.8H157Z"/><polygon class="cls-2" points="94.02 15.22 140.57 15.22 144.79 11.01 192.37 11.01 192.37 15.22 248.82 15.22 248.82 46.94 254.35 46.94 254.35 74.01 250.79 77.56 250.79 162.6 254.35 162.6 254.35 82.48 261 75.83 261 33.85 256.95 29.8 256.95 6.79 200.81 6.79 195.28 1.26 137.66 1.26 126.61 12.31 94.02 12.31 94.02 15.22"/><polygon class="cls-3" points="256.37 247.49 256.37 196 247.05 205.31 247.05 238.18 214.19 238.18 204.87 247.49 256.37 247.49"/><polygon class="cls-3" points="12.22 21.43 12.22 83.42 6.11 83.42 6.11 116.01 12.22 116.01 12.22 221.74 9.17 221.74 9.17 121.59 0 121.59 0 72.71 9.63 63.08 9.63 21.43 12.22 21.43"/><rect class="cls-3" x="9.64" y="16.65" width="2.59" height="2.59"/><rect class="cls-3" x="9.64" y="11.99" width="2.59" height="2.59"/><polygon class="cls-3" points="239.85 34.9 233.96 34.9 233.96 29 230.62 29 230.62 34.9 224.72 34.9 224.72 38.23 230.62 38.23 230.62 44.13 233.96 44.13 233.96 38.23 239.85 38.23 239.85 34.9"/><polygon class="cls-3" points="24.39 33.36 24.39 18.96 38.8 18.96 38.8 14.74 20.18 14.74 20.18 33.36 24.39 33.36"/><circle class="cls-2" cx="215.82" cy="260.92" r="2.13"/><circle class="cls-2" cx="224.16" cy="260.92" r="2.13"/><circle class="cls-2" cx="232.5" cy="260.92" r="2.13"/><circle class="cls-2" cx="240.84" cy="260.92" r="2.13"/><circle class="cls-2" cx="249.19" cy="260.92" r="2.13"/><circle class="cls-2" cx="257.53" cy="260.92" r="2.13"/><rect class="cls-3" x="204.71" y="0.48" width="2.33" height="2.33" transform="translate(61.46 -145.1) rotate(45)"/><rect class="cls-3" x="209.51" y="0.48" width="2.33" height="2.33" transform="translate(62.87 -148.49) rotate(45)"/><rect class="cls-3" x="214.32" y="0.48" width="2.33" height="2.33" transform="translate(64.28 -151.89) rotate(45)"/><rect class="cls-3" x="219.12" y="0.48" width="2.33" height="2.33" transform="translate(65.68 -155.28) rotate(45)"/><rect class="cls-3" x="223.92" y="0.48" width="2.33" height="2.33" transform="translate(67.09 -158.68) rotate(45)"/><rect class="cls-3" x="228.72" y="0.48" width="2.33" height="2.33" transform="translate(68.5 -162.07) rotate(45)"/><polygon class="cls-2" points="21.69 106.6 94.12 106.6 105.76 94.96 33.33 94.96 21.69 106.6"/><text class="cls-4" transform="translate(47.43 75.65)">ベクター<tspan x="6.09" y="14.4">背景</tspan></text><path class="cls-5" d="M92.51,200.48H80.28v9.2h1.28l-3.09,3.8h14a.78.78,0,0,0,.77-.78v-3.26a.77.77,0,1,1,0-1.54v-6.65A.78.78,0,0,0,92.51,200.48Zm-10.21,2h9v5.17h-9Zm9,9H83l1.45-1.78h6.78Z"/><polygon class="cls-5" points="72.06 203.84 72.06 200.48 70.05 200.48 70.05 203.85 67.3 200.48 64.56 200.48 67.3 203.86 69.68 206.76 70.05 207.22 70.05 213.48 72.06 213.48 72.06 207.21 72.43 206.76 74.8 203.86 77.54 200.48 74.8 200.48 72.06 203.84"/><polygon class="cls-5" points="49.41 213.48 50.53 213.48 51.42 213.48 60.39 213.48 62.41 213.48 62.41 211.46 62.41 209.68 60.39 209.68 60.39 211.46 52.16 211.46 53.62 209.68 55.25 207.66 52.32 207.66 51.42 208.76 51.42 202.49 60.39 202.49 60.39 204.28 62.41 204.28 62.41 202.49 62.41 200.48 60.39 200.48 51.42 200.48 49.41 200.48 49.41 202.49 49.41 211.24 47.59 213.48 49.41 213.48"/><polygon class="cls-5" points="94.28 213.48 96.09 213.48 97.21 213.48 109.09 213.48 109.09 211.46 98.85 211.46 100.3 209.68 100.3 209.68 105.36 209.68 105.36 207.66 101.94 207.66 101.94 207.66 99 207.66 99 207.66 98.11 207.66 98.11 202.49 109.09 202.49 109.09 200.48 98.11 200.48 96.09 200.48 96.09 202.49 96.09 209.68 97.37 209.68 97.37 209.68 94.28 213.48"/><path class="cls-5" d="M125.06,209.68v-9.2h-13v13h2v-3.8h5l3.09,3.8h2.93l-3.09-3.8h3.09Zm-4.73-2h-6.25v-5.17h9v5.17Z"/><path class="cls-5" d="M117.67,131.8c-5.21-2.32-17.15,10.07-25.54,23.18a12.05,12.05,0,0,0-11.61,0C72.13,141.87,60.19,129.48,55,131.8c-2.6,1.16-2.9,5.08-.92,12,3.41,11.85,9.83,18.16,15,21.45-3.23,4.62-5.09,9.65-5.09,14a12.25,12.25,0,0,0,5.19,10.32c3.79,2.76,9.56,4.16,17.15,4.16s13.35-1.4,17.15-4.16a12.27,12.27,0,0,0,5.19-10.32c0-4.32-1.87-9.35-5.1-14,5.19-3.29,11.62-9.6,15-21.45C120.57,136.88,120.27,133,117.67,131.8ZM56.35,143.12C54.6,137,55,134.38,56,134c2.65-1.18,13.13,7.58,22.47,22.15a31.71,31.71,0,0,0-6.86,5.94c-.36.41-.7.83-1,1.25C65.67,160.29,59.59,154.39,56.35,143.12Zm10,36.08a16,16,0,0,1,.46-3.67l7,4.38a8.05,8.05,0,0,1,3.79,6.85v3.72a18.43,18.43,0,0,1-7-2.89A9.82,9.82,0,0,1,66.37,179.2Zm12.3,11.49v-3.93a9.1,9.1,0,0,0-4.3-7.77l-7.25-4.56a29.87,29.87,0,0,1,6.23-10.79c4.21-4.79,9.19-7.76,13-7.76s8.76,3,13,7.76a29.87,29.87,0,0,1,6.23,10.79L98.28,179a9.13,9.13,0,0,0-4.3,7.77v3.93a49.13,49.13,0,0,1-15.31,0Zm23.41-3.1a18.48,18.48,0,0,1-7,2.89v-3.72a8,8,0,0,1,3.8-6.85l7-4.38a16,16,0,0,1,.46,3.67A9.84,9.84,0,0,1,102.08,187.59Zm14.22-44.47c-3.24,11.27-9.32,17.17-14.17,20.2-.34-.42-.68-.84-1-1.25a31.71,31.71,0,0,0-6.86-5.94c9.34-14.57,19.82-23.33,22.47-22.15C117.61,134.38,118.05,137,116.3,143.12Z"/><path class="cls-5" d="M89.22,181.69A2.36,2.36,0,0,1,87,180l3.44-4.33H82.24L85.68,180a2.36,2.36,0,0,1-4.61-.68H80a3.44,3.44,0,0,0,6.34,1.84,3.43,3.43,0,0,0,6.33-1.84H91.58A2.36,2.36,0,0,1,89.22,181.69Zm-1.06-4.93-1.83,2.32-1.84-2.32Z"/><path class="cls-5" d="M81.87,136.22l-.49-1.52a2.09,2.09,0,0,0-.77-1.07,2.13,2.13,0,0,0-1.26-.41l1.74,5.44Z"/><path class="cls-5" d="M90.79,142.82l.48,1.52a2.13,2.13,0,0,0,2,1.48l-1.74-5.44Z"/><polygon class="cls-5" points="84.4 136.56 82.51 142.49 84.06 142.49 85.96 136.56 84.4 136.56"/><path class="cls-5" d="M82.31,136.55l-3,9.27a2.13,2.13,0,0,0,2-1.48l2.48-7.79Z"/><path class="cls-5" d="M91.27,134.7l-2.48,7.79h1.55l3-9.27A2.13,2.13,0,0,0,91.27,134.7Z"/><polygon class="cls-5" points="86.49 136.56 84.6 142.49 86.16 142.49 88.05 136.56 86.49 136.56"/><polygon class="cls-5" points="88.59 136.56 86.69 142.49 88.25 142.49 90.14 136.56 88.59 136.56"/><path class="cls-5" d="M77.47,174.1h0a1.63,1.63,0,0,1-1.62-1.62v-2.92a1.63,1.63,0,0,1,1.62-1.62h0a1.63,1.63,0,0,1,1.62,1.62v2.92A1.63,1.63,0,0,1,77.47,174.1Z"/><path class="cls-5" d="M95.18,174.1h0a1.63,1.63,0,0,1-1.62-1.62v-2.92a1.63,1.63,0,0,1,1.62-1.62h0a1.63,1.63,0,0,1,1.62,1.62v2.92A1.63,1.63,0,0,1,95.18,174.1Z"/><text class="cls-6" transform="translate(61.19 225.15)">ウサギるい</text></g></g></svg>