<svg xmlns="http://www.w3.org/2000/svg" viewBox="0 0 263.45 260.34"><defs><style>.cls-1{fill:#491d7f;}.cls-2{fill:#f46188;}.cls-3{fill:#642ab6;}.cls-4{font-size:12px;font-family:MS-UIGothic, MS UI Gothic;}.cls-4,.cls-5,.cls-7{fill:#fff;}.cls-6{fill:none;stroke:#fff;stroke-miterlimit:10;stroke-width:2.38px;}.cls-7{font-size:28.42px;font-family:KozGoPr6N-Regular-90ms-RKSJ-H, Kozuka Gothic Pr6N;}</style></defs><g id="Layer_2" data-name="Layer 2"><g id="Layer_2-2" data-name="Layer 2"><polygon class="cls-1" points="195.05 260.34 260.35 260.34 260.35 195.04 195.05 260.34"/><polygon class="cls-1" points="166.75 18.27 166.75 20.11 210.05 20.11 218 11.67 260.35 11.67 260.35 3.6 3.61 3.6 3.61 260.34 17.7 260.34 17.7 243.24 9.26 235.5 9.26 207.77 19.15 207.77 19.15 170.71 16.53 170.71 16.53 143.52 9.26 143.52 9.26 138.99 11.2 138.99 11.2 101.92 11.88 101.92 11.88 138.99 13.72 138.99 13.72 101.92 14.4 101.92 14.4 138.99 16.24 138.99 16.24 101.92 16.92 101.92 16.92 138.99 18.76 138.99 18.76 101.92 19.44 101.92 19.44 138.99 21.29 138.99 21.29 101.92 21.96 101.92 21.96 138.99 23.81 138.99 23.81 96.86 15.37 89.13 15.37 29.4 13.82 29.4 13.82 23.54 20.22 23.54 20.22 29.4 18.52 29.4 18.52 77.41 27.23 85.39 27.23 144.59 21.77 144.59 21.77 163.78 27.23 163.78 27.23 168.22 23.37 168.22 23.37 170.36 27.23 170.36 27.23 172.49 23.37 172.49 23.37 174.62 27.23 174.62 27.23 176.76 23.37 176.76 23.37 178.89 27.23 178.89 27.23 181.02 23.37 181.02 23.37 183.16 27.23 183.16 27.23 185.29 23.37 185.29 23.37 187.42 27.23 187.42 27.23 189.56 23.37 189.56 23.37 191.69 27.23 191.69 27.23 193.82 23.37 193.82 23.37 195.95 27.23 195.95 27.23 198.09 23.37 198.09 23.37 200.22 27.23 200.22 27.23 202.35 23.37 202.35 23.37 204.49 27.23 204.49 27.23 206.62 23.37 206.62 23.37 208.75 27.23 208.75 27.23 210.88 23.37 210.88 23.37 213.02 27.23 213.02 27.23 215.15 23.37 215.15 23.37 217.28 27.23 217.28 27.23 219.98 20.02 226.58 20.02 260.34 182.7 260.34 260.35 182.69 260.35 14.82 230.05 14.82 221.84 23.54 160.99 23.54 160.99 18.07 141.26 18.07 141.26 23.54 136.69 23.54 136.69 19.68 134.5 19.68 134.5 23.54 132.3 23.54 132.3 19.68 130.11 19.68 130.11 23.54 127.92 23.54 127.92 19.68 125.72 19.68 125.72 23.54 123.53 23.54 123.53 19.68 121.34 19.68 121.34 23.54 119.15 23.54 119.15 19.68 116.95 19.68 116.95 23.54 114.76 23.54 114.76 19.68 112.57 19.68 112.57 23.54 110.38 23.54 110.38 19.68 108.18 19.68 108.18 23.54 105.99 23.54 105.99 19.68 103.8 19.68 103.8 23.54 101.6 23.54 101.6 19.68 99.41 19.68 99.41 23.54 97.22 23.54 97.22 19.68 95.03 19.68 95.03 23.54 92.83 23.54 92.83 19.68 90.64 19.68 90.64 23.54 88.45 23.54 88.45 19.68 86.25 19.68 86.25 23.54 83.48 23.54 76.69 16.33 33.26 16.33 33.26 18.37 27.23 18.37 27.23 11.96 33.26 11.96 33.26 14 59.58 14 67.53 5.56 96.03 5.56 96.03 15.46 134.13 15.46 134.13 12.84 162.09 12.84 162.09 5.56 166.75 5.56 166.75 7.5 204.85 7.5 204.85 8.18 166.75 8.18 166.75 10.02 204.85 10.02 204.85 10.7 166.75 10.7 166.75 12.55 204.85 12.55 204.85 13.22 166.75 13.22 166.75 15.07 204.85 15.07 204.85 15.75 166.75 15.75 166.75 17.59 204.85 17.59 204.85 18.27 166.75 18.27"/><polygon class="cls-2" points="257.66 257.2 257.66 231.31 252.98 236 252.98 252.51 236.46 252.51 231.78 257.2 257.66 257.2"/><polygon class="cls-3" points="247.03 246.28 247.03 220.4 242.35 225.08 242.35 241.6 225.83 241.6 221.15 246.28 247.03 246.28"/><rect class="cls-2" x="257.66" y="26.77" width="5.79" height="81.09"/><rect class="cls-2" y="32.01" width="6.98" height="66.35"/><rect class="cls-2" y="110" width="6.98" height="6.69"/><path class="cls-3" d="M251.18,116.69v60.82h-4.66v-8.73h-3.88v8.73H238v-8.73h-3.88v8.73h-4.66v-8.73h-3.88v8.73h-4.66v-8.73H217v8.73h-4.65v-8.73h-16l-49.54,49.53v28H43.45v3.59s135.61,1,136.58,0,74.69-73,74.69-74.69V116.69Z"/><path class="cls-2" d="M239.2,39.37v77.9H207.77v85.51l-.18.17L203,207.32c-2.76,2.66-6.5,6.26-10.37,10-7.73,7.53-16,15.77-18.21,18.44a5.8,5.8,0,0,0-.46.63h0l-.11.3-.19.14-.25.1a5.05,5.05,0,0,1-.57.1q-.69.09-1.95.15c-1.66.09-4.07.16-7.09.22-6,.1-14.45.15-24.08.15-31.61,0-76.18-.47-91.15-.63a2.57,2.57,0,0,1-2.52,2,2.63,2.63,0,1,1,0-5.25,2.6,2.6,0,0,1,2.5,2.08c15,.17,59.53.63,91.13.63,16.06,0,28.8-.12,32.5-.45a6,6,0,0,0,.75-.1l.05-.09.32-.45c.26-.34.63-.78,1.1-1.3.93-1,2.25-2.43,3.84-4.05,3.17-3.24,7.39-7.42,11.61-11.54,7.76-7.58,15.5-15,16.7-16.13V116.11H238V40.53H44L19.16,15.71h-8.1V5.13A2.59,2.59,0,0,1,9,2.63a2.63,2.63,0,1,1,5.26,0,2.59,2.59,0,0,1-2,2.5v9.42h7.42L44.46,39.37Z"/><path class="cls-2" d="M78.78,221.56h6.15l-11,11H67.77Zm24.7,0H97.33l-11,11h6.15Zm-9.27,0H88.06l-11,11h6.14Zm46.37,0h-6.15l-11,11h6.15Zm-27.82,0h-6.15l-11,11h6.15Zm18.55,0h-6.15l-11,11h6.15Zm-9.28,0h-6.15l-11,11H111Z"/><text class="cls-4" transform="translate(94.78 201.7)">ベクター<tspan x="6.09" y="14.4">背景</tspan></text><path class="cls-5" d="M87.23,97.69a4.29,4.29,0,0,0,1.46,5c1.33,1,3.4,1.06,4.2-.67s-.11-3.88-1.46-5A2.7,2.7,0,0,0,87.23,97.69Zm3.94-.09a3.47,3.47,0,0,1,1.14,4,2.14,2.14,0,0,1-3.35.51,3.42,3.42,0,0,1-1.15-4A2.17,2.17,0,0,1,91.17,97.6Z"/><path class="cls-5" d="M84.56,96c-1.67,3.3.34,7.26,3,9.36s6.37,1.65,8-1.63-.41-7.26-3-9.36A5,5,0,0,0,84.56,96Zm7.71-.94c2.38,1.86,4,5.38,2.6,8.27s-4.64,3.22-7,1.34-4.11-5.38-2.6-8.28S89.9,93.19,92.27,95.05Z"/><path class="cls-5" d="M86.51,89.37a11.38,11.38,0,0,0-5.29,5.45c-2.69,5.38,1.54,10.71,5.64,13.87,2,1.5,4.28,2.66,6.76,1.65a11.36,11.36,0,0,0,5.28-5.45c2.7-5.38-1.54-10.71-5.64-13.88C91.31,89.51,89,88.35,86.51,89.37Zm6.65,2.45c3.8,3,7.38,8,4.93,12.91a9.57,9.57,0,0,1-4.87,4.76c-2.25.82-4.48-.2-6.26-1.6-3.79-3-7.38-8-4.93-12.92a9.48,9.48,0,0,1,4.87-4.75C89.17,89.42,91.37,90.41,93.16,91.82Z"/><path class="cls-5" d="M83.91,85.38a36,36,0,0,0-7.12,10.28,9.56,9.56,0,0,0-1.3,4.66,6.37,6.37,0,0,0,2,3.83,77.75,77.75,0,0,0,10,9c2.68,2.11,5.85,3.93,8.81,1.2s5.34-6.71,7.12-10.27a9.51,9.51,0,0,0,1.3-4.66,6.36,6.36,0,0,0-1.95-3.83,79.2,79.2,0,0,0-10-9C90,84.48,86.88,82.64,83.91,85.38ZM93,87.5a49.86,49.86,0,0,1,9,8.64c2.11,2.76,1.91,5.26.43,8.29a26.86,26.86,0,0,1-6.8,9.17c-3,2.32-5.91.57-8.46-1.4a50.48,50.48,0,0,1-9-8.63c-2.1-2.74-1.9-5.21-.43-8.3,1.63-3.23,3.93-6.94,6.81-9.17S90.43,85.53,93,87.5Z"/><path class="cls-5" d="M84.13,78.19c-2.29.14-3.52,2.51-4.42,4.3-1.38,2.75-2.45,5.7-3.83,8.48s-3,5.41-4.31,8.15c-.86,1.74-2,4-1.5,6s2.55,2.8,4.2,3.51a50.57,50.57,0,0,1,7.57,3.72c2.73,1.8,5.2,4,7.75,6,1.66,1.3,3.82,3.15,6.08,3.19H96c2.29-.14,3.53-2.52,4.42-4.31,1.38-2.75,2.45-5.7,3.83-8.47s2.94-5.4,4.31-8.15c.86-1.76,2-4,1.51-6s-2.56-2.8-4.2-3.51a49.23,49.23,0,0,1-7.57-3.73c-2.74-1.79-5.21-4-7.76-6C88.8,80,86.51,78,84.13,78.19ZM91,82.4c2.42,1.9,4.75,4,7.29,5.75a62.45,62.45,0,0,0,7,3.95c1.52.78,3.3,1.74,3.7,3.56s-.67,4.06-1.5,5.73c-1.27,2.58-2.78,5.08-4.13,7.64s-2.47,5.26-3.89,7.75c-.94,1.64-2.19,3.61-4.33,3.63s-4.41-1.8-6.07-3.11c-2.42-1.89-4.76-4-7.29-5.74a61,61,0,0,0-7-4c-1.52-.79-3.29-1.74-3.69-3.57s.67-4,1.49-5.72c1.3-2.59,2.79-5.08,4.13-7.64s2.48-5.27,3.89-7.75c.94-1.64,2.19-3.62,4.33-3.64S89.38,81.1,91,82.4Z"/><path class="cls-5" d="M107.83,107.51c-1.35,3.53-2.09,7.37-3.28,10.95-.3.91-.66,2-1.12,3.07h1.29c.38-1,.69-2,1-2.84,1.17-3.77,1.81-7.8,3.13-11.51a64.17,64.17,0,0,1,4-8.35V97.45C111.1,100.78,109.16,104,107.83,107.51ZM79.53,72.8c-2.93,1.31-4.22,5.45-5.08,8.22-1.17,3.77-1.81,7.8-3.14,11.51s-3.37,7.08-5.1,10.56c-1.11,2.23-2.76,5.53-1.35,8s4.61,3.19,7.08,3.65c3.35.62,6.94.72,10.08,2a30.62,30.62,0,0,1,7.39,4.78h.89A41.27,41.27,0,0,0,82,115.78c-3-1.37-6.38-1.65-9.6-2.36-2.27-.49-5.31-1.25-6.48-3.51s.39-5.44,1.41-7.54a106.43,106.43,0,0,0,5-10.18c1.36-3.53,2.09-7.36,3.28-11,.83-2.51,2.08-6.37,4.87-7.39s6,1.65,8,3.25c3.1,2.43,6.14,5.18,9.7,6.82,3,1.38,6.37,1.66,9.59,2.36a13.81,13.81,0,0,1,5,1.85v-1.8A17.17,17.17,0,0,0,108.18,85c-3.35-.62-6.93-.72-10.08-2-3.74-1.53-6.89-4.44-10.09-7C85.86,74.32,82.5,71.48,79.53,72.8Z"/><path class="cls-5" d="M86.85,71.41c3.46,2.72,7,6.35,11.44,7.18,3.75.71,7.78.07,11.54.61a21.1,21.1,0,0,1,2.93.64V78.32a19.25,19.25,0,0,0-2.51-.57c-3.83-.59-7.86.26-11.74-.32-4.63-.71-8.17-4.42-11.67-7.17-.59-.46-1.2-.93-1.84-1.36H83.18A25.8,25.8,0,0,1,86.85,71.41Zm23.66,48c-.19.67-.39,1.38-.63,2.1h1.26c.22-.66.41-1.3.59-1.92a42.45,42.45,0,0,0,1-4.6v-7C111.94,111.79,111.56,115.71,110.51,119.43ZM68.39,80.1c-1.23,4.25-1.5,8.76-2.52,13.06s-3.48,7.91-5.41,11.77l-.33.68v2.93a24.74,24.74,0,0,1,1.49-3.63c2-3.84,4.3-7.47,5.38-11.66s1.41-8.75,2.61-13c1.11-4,2.85-8.9,6.24-11.38H74.09C71.17,71.78,69.49,76.29,68.39,80.1Zm-8.26,36.72a14.17,14.17,0,0,0,7.72,4.71H83.42a11,11,0,0,0-1.59-.42c-3.78-.68-7.77-.06-11.54-.61-3.5-.51-7.62-2-9.59-5.11a7.88,7.88,0,0,1-.57-1.12Z"/><path class="cls-5" d="M107.26,68.84l-.44.06c-1.66.24-3.28.76-4.92,1a8.75,8.75,0,0,1-5.73-1H93.54c2.24,1.63,4.69,2.82,7.49,2.49,1.82-.22,3.62-.73,5.46-.94a14.13,14.13,0,0,1,6,.65l.24.09V69.62a12.49,12.49,0,0,0-2.68-.72A11.06,11.06,0,0,0,107.26,68.84ZM61.54,78.35a33.9,33.9,0,0,0-1.41,3.27v8.9a.13.13,0,0,0,0-.06c.47-4.09,1-7.83,2.58-11.66a45.32,45.32,0,0,1,5.71-9.9h-1A53.62,53.62,0,0,0,61.54,78.35Z"/><path class="cls-5" d="M88.09,68.9c3.25,2.69,6.73,6.09,11.08,6.31,4,.2,7.94-.85,11.87-.07a14.91,14.91,0,0,1,1.72.43V74c-.4-.12-.81-.23-1.22-.32a19.43,19.43,0,0,0-6.14-.36c-1.89.17-3.77.56-5.66.58-3.79,0-6.93-2.51-9.81-4.95ZM64.89,79.43c-1.41,4.11-1.75,8.29-2.44,12.55a20.34,20.34,0,0,1-2.32,6.33v2.85a29.5,29.5,0,0,0,3.62-8.56c.85-4.3,1.09-8.69,2.43-12.89a34,34,0,0,1,5.4-10.81H70.33A37.28,37.28,0,0,0,64.89,79.43Zm-4.76,42.1H62a16.94,16.94,0,0,1-1.9-1.58Z"/><path class="cls-5" d="M110.27,106.78c-1.29,4-1.78,8.2-2.93,12.19-.23.8-.49,1.67-.8,2.56h1.23c.27-.83.51-1.63.72-2.39,1.16-4.1,1.61-8.49,2.8-12.56a29.48,29.48,0,0,1,1.47-3.86V101A39.23,39.23,0,0,0,110.27,106.78ZM77.45,70.34c-3.3,2-4.84,6.75-5.82,10.23-1.16,4.1-1.61,8.48-2.8,12.55s-3.45,7.61-5.3,11.33c-1.36,2.72-3,6.41-1.14,9.33s5.51,3.87,8.58,4.31c3.62.53,7.55.16,11,1.15a16.9,16.9,0,0,1,4.72,2.29H88a21.12,21.12,0,0,0-5.91-3.33c-3.36-1.12-7.17-.93-10.69-1.48-2.82-.44-6.35-1.34-8-4s0-6.2,1.24-8.75c1.85-3.65,4-7.17,5.23-11s1.78-8.21,2.94-12.19c.92-3.18,2.32-7.7,5.48-9.42s6.84,1.27,9.17,3.09c3.34,2.62,6.63,5.76,10.63,7.09,3.36,1.12,7.18.94,10.7,1.49a19.71,19.71,0,0,1,4,1V82.44a21.4,21.4,0,0,0-3.6-.83c-3.62-.53-7.56-.15-11.06-1.14-4.17-1.19-7.55-4.48-11-7.15C84.65,71.36,80.76,68.31,77.45,70.34Z"/><path class="cls-5" d="M82,75.67c-2.53.64-3.76,3.88-4.59,6-1.26,3.25-2.13,6.7-3.51,9.9s-3.21,6.28-4.76,9.42c-1,2-2.34,4.59-1.47,6.86.8,2.09,3.56,2.86,5.46,3.4,3,.86,6,1.48,8.71,3,3.23,1.75,6.06,4.28,9,6.55l1,.76h.89c-.86-.59-1.66-1.25-2.36-1.8a82.72,82.72,0,0,0-8.36-6.26,42.89,42.89,0,0,0-8.34-3.35c-1.82-.63-4.25-1.43-4.93-3.48s.62-4.59,1.52-6.43c1.48-2.95,3.15-5.79,4.53-8.79s2.38-6.34,3.71-9.42c.85-2,2.07-4.92,4.55-5.28s5,1.83,6.87,3.25a81.34,81.34,0,0,0,8.36,6.27,43.18,43.18,0,0,0,8.33,3.35c1.81.62,4.26,1.43,4.94,3.47s-.62,4.6-1.53,6.44c-1.45,2.94-3.15,5.79-4.53,8.79s-2.38,6.33-3.7,9.42a14.91,14.91,0,0,1-2.11,3.82h1.5a21.07,21.07,0,0,0,1.61-3.52c1.26-3.24,2.14-6.69,3.51-9.89s3.18-6.28,4.76-9.43c.73-1.49,1.78-3.47,1.78-5.3a3.81,3.81,0,0,0-.31-1.56c-.91-2.09-3.48-2.83-5.45-3.4-3-.86-6-1.48-8.72-3-3.23-1.74-6.06-4.27-9-6.54C87.46,77.48,84.61,75,82,75.67Z"/><path class="cls-5" d="M82,83.73c-1.47,2-2.65,4.39-3.93,6.6s-2.69,4.5-3.83,6.83c-.78,1.57-1.73,3.46-1.44,5.29s1.63,2.76,2.94,3.67c2,1.4,4.11,2.71,6.07,4.22,2.23,1.73,4.35,3.62,6.55,5.35,1.56,1.22,3.48,2.81,5.57,3,1.91.13,3.2-1.26,4.21-2.67a75.86,75.86,0,0,0,3.93-6.59c1.31-2.26,2.67-4.5,3.84-6.83.76-1.59,1.72-3.46,1.44-5.3s-1.63-2.76-3-3.67c-2-1.39-4.11-2.7-6.06-4.21C96.09,87.64,94,85.74,91.78,84c-1.57-1.23-3.48-2.81-5.58-3C84.29,80.94,83,82.32,82,83.73Zm5-1.5c2,.23,3.75,1.65,5.26,2.83,3.88,3,7.78,6.24,11.53,9.38a5.93,5.93,0,0,1,2.52,3.74c.2,1.76-.65,3.52-1.39,5-1.06,2.15-2.36,4.23-3.63,6.3a46.55,46.55,0,0,1-3.91,5.85c-1.08,1.25-2.36,2.3-4.13,2.1-2-.22-3.76-1.64-5.27-2.82-3.88-3-7.77-6.24-11.53-9.38a6,6,0,0,1-2.52-3.74c-.2-1.76.66-3.51,1.4-5,1.07-2.16,2.36-4.23,3.63-6.29a46.19,46.19,0,0,1,3.91-5.85C83.87,83.09,85.16,82,86.94,82.23Z"/><path class="cls-5" d="M85.48,87.48c-2.71,1.57-4.81,4.64-6.19,7.37a7.56,7.56,0,0,0,.13,7.85,31.63,31.63,0,0,0,7.46,7.93c2.28,1.77,5,3.21,7.77,1.59s4.83-4.63,6.18-7.36A7.56,7.56,0,0,0,100.7,97a31.41,31.41,0,0,0-7.46-7.92C91,87.31,88.27,85.86,85.48,87.48Zm7.82,2.41A25.59,25.59,0,0,1,100,97.38a7.71,7.71,0,0,1,0,7.56c-1.25,2.51-3.27,5.23-5.83,6.52s-5.23,0-7.37-1.64a25.9,25.9,0,0,1-6.72-7.49,7.7,7.7,0,0,1,0-7.57c1.25-2.5,3.26-5.23,5.82-6.51S91.14,88.23,93.3,89.89Z"/><path class="cls-5" d="M87.31,91.2a7.86,7.86,0,0,0-4.39,4c-2.14,4.33.82,9,4.22,11.74a6.22,6.22,0,0,0,5.67,1.51,7.78,7.78,0,0,0,4.39-4c2.18-4.35-.79-9-4.21-11.75A6.27,6.27,0,0,0,87.31,91.2Zm5.47,2.32c3,2.31,5.55,6.79,3.62,10.61a6.68,6.68,0,0,1-3.94,3.47,6,6,0,0,1-5.12-1.41c-3.08-2.33-5.53-6.78-3.61-10.61a6.49,6.49,0,0,1,3.93-3.47A6,6,0,0,1,92.78,93.52Z"/><path class="cls-5" d="M85.8,96.72c-1.29,2.59.15,5.72,2.27,7.4s5,1.4,6.26-1.13-.16-5.73-2.27-7.4S87.06,94.19,85.8,96.72Zm5.92-.33c1.72,1.37,2.84,4,1.8,6.07a3.26,3.26,0,0,1-5.11.85c-1.69-1.37-2.85-4-1.81-6.06S90.08,95.1,91.72,96.39Z"/><path class="cls-5" d="M87.23,97.69a4.29,4.29,0,0,0,1.46,5c1.33,1,3.4,1.06,4.2-.67s-.11-3.88-1.46-5A2.7,2.7,0,0,0,87.23,97.69Zm3.94-.09a3.47,3.47,0,0,1,1.14,4,2.14,2.14,0,0,1-3.35.51,3.42,3.42,0,0,1-1.15-4A2.17,2.17,0,0,1,91.17,97.6Z"/><path class="cls-5" d="M88.48,98.62a2.56,2.56,0,0,0,.8,2.81,1.54,1.54,0,0,0,2.36-.34,2.43,2.43,0,0,0-.8-2.82A1.53,1.53,0,0,0,88.48,98.62Zm2.08.23a1.53,1.53,0,0,1,.5,1.79,1,1,0,0,1-1.5.22,1.55,1.55,0,0,1-.5-1.79A1,1,0,0,1,90.56,98.85Z"/><path class="cls-5" d="M60.13,74.35v1.73c1.71-2.43,3.55-4.85,5.51-7.18h-.83C63.22,70.7,61.66,72.53,60.13,74.35Z"/><path class="cls-5" d="M60.13,70.18v1.18c.94-.79,1.85-1.61,2.75-2.46H61.75C61.22,69.34,60.68,69.76,60.13,70.18Z"/><path class="cls-5" d="M120,85.83s1.52-1,1.62.14a2.67,2.67,0,0,1-.78,2s.85-.28,1.21,1.06a1.62,1.62,0,0,1-.43,1.89,1.14,1.14,0,0,1,1.29.9,1.62,1.62,0,0,1-.16,1.59s.8-.26,1.32.73a1.83,1.83,0,0,1,.21,1.62,1.19,1.19,0,0,1,1.41.09,1.64,1.64,0,0,1,.76,1.42.86.86,0,0,1,.87-.83,4,4,0,0,1,1.83.91s-.4-.83,0-1.29,1.44.52,1.47.54a2.56,2.56,0,0,1-.23-1.29,2.15,2.15,0,0,1,1.87-1.38s-.77-.3-.18-1.84,3.05-3.83,3.12-3.91-2.2,1.15-1.87-.51a2.75,2.75,0,0,1,1.51-2.12A1.43,1.43,0,0,1,133.48,84a2.62,2.62,0,0,1,1.5-2.18c-.09,0-1.22.32-1.42-1.45a2.59,2.59,0,0,1,.72-2.49s-.94.41-1.43-1.61a6.27,6.27,0,0,1,.53-4c-.1.18-1.19,2.06-1.79.62a3.27,3.27,0,0,1-.17-2.51,1.4,1.4,0,0,1-1.95-.16c-.91-1-.86-1.57-.86-1.57a1.23,1.23,0,0,1-1.47,1c-1.29-.11-1.62-.72-1.64-.76A2,2,0,0,1,125,71a3.82,3.82,0,0,1-2.24.77,1.76,1.76,0,0,1,.45,1.87c-.42,1.08-1.91,1.06-1.91,1.06a2,2,0,0,1,.85,2.26c-.44,1.42-1.48,1.23-1.55,1.22s1.22.46,1,1.44a1.45,1.45,0,0,1-1.17,1.14s1.2.2,1.06,2A5,5,0,0,1,120,85.83Zm3.43-5.19c.21-1.85,1.23-.33,1.23-.33s-.74-3-.24-4.31,1.52-.21,1.57-.16-1.12-1.49-.33-2.66,1.21-.22,1.21-.22.52-1.81,1.58-1,.43,1.6.43,1.6a1.39,1.39,0,0,1,1.5,1,1.23,1.23,0,0,1-.55,1.64,2.14,2.14,0,0,1,1.58,2c.27,1.79-1.08,1.46-1.13,1.45a3.67,3.67,0,0,1,1.37,2.68c.07,1.74-.83,1.72-.83,1.72s1.13.36.63,1.77a1.64,1.64,0,0,1-1.26.89s1.49.31,1.2,1.16a1,1,0,0,1-1.18.62,1.39,1.39,0,0,1,.6,1.77c-.46,1.18-1.28.86-1.32.85a2,2,0,0,1-.26,2.38c-1,1.35-1.45-.13-1.45-.13a1.09,1.09,0,0,1-1.63.4c-1-.69-.45-2.07-.43-2.11s-.68.41-1.23-.93a1.53,1.53,0,0,1,.56-2,1.54,1.54,0,0,1-1.37-1.29c-.23-1.21,1.07-1.27,1.07-1.27a2.31,2.31,0,0,1-1.39-1.9c-.09-1.39.81-1.63.81-1.63S123.19,82.5,123.4,80.64Z"/><rect class="cls-6" x="53.68" y="62.29" width="90.14" height="94.85" rx="9.7"/><path class="cls-5" d="M120.12,99.5h-2.88v.73h1.61l-1.16,1.88-.45.72h0v2.6h6.12v-3.33h-4.85l1.16-1.88h3.69V99.5Zm2.51,3.34v1.87H118v-1.87h4.66Z"/><path class="cls-5" d="M127.41,99.5h-2.89v.73h1.61L125,102.11l-.45.72h0v2.6h6.12v-3.33h-4.85l1.16-1.88h3.69V99.5h-3.23Zm2.5,3.34v1.87h-4.65v-1.87h4.65Z"/><path class="cls-5" d="M134.69,99.5h-2.88v.73h1.6l-1.16,1.88-.44.72h0v2.6h6.12v-3.33h-4.84l1.15-1.88h3.69V99.5Zm2.5,3.34v1.87h-4.65v-1.87h4.65Z"/><path class="cls-5" d="M120.12,107.54h-2.88v.73h1.61l-1.16,1.88-.45.72h0v2.61h6.12v-3.34h-4.85l1.16-1.88h3.69v-.73Zm2.51,3.34v1.87H118v-1.87h4.66Z"/><path class="cls-5" d="M127.41,107.54h-2.89v.73h1.61L125,110.15l-.45.72h0v2.61h6.12v-3.34h-4.85l1.16-1.88h3.69v-.73h-3.23Zm2.5,3.34v1.87h-4.65v-1.87h4.65Z"/><path class="cls-5" d="M134.69,107.54h-2.88v.73h1.6l-1.16,1.88-.44.72h0v2.61h6.12v-3.34h-4.84l1.15-1.88h3.69v-.73Zm2.5,3.34v1.87h-4.65v-1.87h4.65Z"/><path class="cls-5" d="M120.12,115.58h-2.88v.73h1.61l-1.16,1.88-.45.72h0v2.61h6.12v-3.34h-4.85l1.16-1.88h3.69v-.73Zm2.51,3.34v1.87H118v-1.87h4.66Z"/><path class="cls-5" d="M127.41,115.58h-2.89v.73h1.61L125,118.19l-.45.72h0v2.61h6.12v-3.34h-4.85l1.16-1.88h3.69v-.73h-3.23Zm2.5,3.34v1.87h-4.65v-1.87h4.65Z"/><path class="cls-5" d="M134.69,115.58h-2.88v.73h1.6l-1.16,1.88-.44.72h0v2.61h6.12v-3.34h-4.84l1.15-1.88h3.69v-.73Zm2.5,3.34v1.87h-4.65v-1.87h4.65Z"/><text class="cls-7" transform="translate(59.13 150.28)">ボイド</text></g></g></svg>