<svg xmlns="http://www.w3.org/2000/svg" viewBox="0 0 252.68 265.63"><defs><style>.cls-1{fill:#491d7f;}.cls-2{fill:#f46188;}.cls-3{fill:#642ab6;}.cls-4{font-size:12px;font-family:MS-UIGothic, MS UI Gothic;}.cls-4,.cls-5,.cls-6{fill:#fff;}.cls-6{font-size:12.9px;font-family:KozGoPr6N-Regular-90ms-RKSJ-H, Kozuka Gothic Pr6N;}</style></defs><g id="Layer_2" data-name="Layer 2"><g id="Layer_2-2" data-name="Layer 2"><path class="cls-1" d="M41.41,7.62,20.76,28.27v61.5H11.25V129H2.83V250.4H245.61V7.62ZM172.66,209.49h-52.6L92.73,236.82H15.53V100.25H34.92v16.1h54.9l16.1-16.1h66.74Z"/><polygon class="cls-2" points="211.99 13.16 206.38 18.77 200.76 13.16 197.58 16.34 203.2 21.95 197.58 27.57 200.76 30.75 206.38 25.13 211.99 30.75 215.17 27.57 209.56 21.95 215.17 16.34 211.99 13.16"/><polygon class="cls-3" points="15.93 76.52 12.68 76.52 12.68 73.26 10.83 73.26 10.83 76.52 7.58 76.52 7.58 78.36 10.83 78.36 10.83 81.61 12.68 81.62 12.68 78.36 15.93 78.36 15.93 76.52"/><polygon class="cls-3" points="15.93 64.84 12.68 64.84 12.68 61.59 10.83 61.59 10.83 64.84 7.58 64.84 7.58 66.69 10.83 66.69 10.83 69.94 12.68 69.94 12.68 66.69 15.93 66.69 15.93 64.84"/><polygon class="cls-3" points="15.93 53.17 12.68 53.17 12.68 49.92 10.83 49.91 10.83 53.17 7.58 53.17 7.58 55.01 10.83 55.01 10.83 58.27 12.68 58.27 12.68 55.01 15.93 55.01 15.93 53.17"/><polygon class="cls-3" points="15.93 41.5 12.68 41.5 12.68 38.24 10.83 38.24 10.83 41.5 7.58 41.5 7.58 43.34 10.83 43.34 10.83 46.59 12.68 46.6 12.68 43.34 15.93 43.34 15.93 41.5"/><polygon class="cls-3" points="15.93 29.82 12.68 29.82 12.68 26.57 10.83 26.57 10.83 29.82 7.58 29.82 7.58 31.67 10.83 31.67 10.83 34.92 12.68 34.92 12.68 31.67 15.93 31.67 15.93 29.82"/><path class="cls-3" d="M236.67,229V160.74H222.12V0H153.65L134.49,19.16H39.38V35.45h149V51.16H134.15V72.5h68.77V215.14H126L78.71,262.43H24.15a2.6,2.6,0,0,0-2.51-2.05,2.63,2.63,0,1,0,0,5.25,2.6,2.6,0,0,0,2.51-2H79.2l47.28-47.28h77.6v-145H135.31v-19h54.22v-18h-149v-14H135L154.13,1.16H221V161.9h14.55v65.9H179.64v4.47a2.58,2.58,0,0,0-2,2.5,2.63,2.63,0,1,0,5.25,0,2.59,2.59,0,0,0-2-2.5V229Z"/><rect class="cls-3" x="238.13" y="17.41" width="11.93" height="104.47"/><polygon class="cls-3" points="4.04 253.87 7.98 253.87 14.92 246.93 10.98 246.93 4.04 253.87"/><polygon class="cls-3" points="9.79 253.87 13.72 253.87 20.66 246.93 16.72 246.93 9.79 253.87"/><polygon class="cls-3" points="15.53 253.87 19.46 253.87 26.4 246.93 22.46 246.93 15.53 253.87"/><polygon class="cls-3" points="21.27 253.87 25.2 253.87 32.14 246.93 28.2 246.93 21.27 253.87"/><polygon class="cls-3" points="27 253.87 30.94 253.87 37.88 246.93 33.94 246.93 27 253.87"/><rect class="cls-2" y="145.41" width="5.35" height="5.35"/><rect class="cls-2" y="162.87" width="5.35" height="5.35"/><rect class="cls-2" y="180.33" width="5.35" height="5.35"/><rect class="cls-2" y="197.79" width="5.35" height="5.35"/><rect class="cls-2" x="121.25" y="97.72" width="33.56" height="4.85"/><rect class="cls-2" x="168.78" y="138.27" width="6.98" height="30.26"/><rect class="cls-2" x="168.78" y="175.52" width="6.98" height="8.15"/><rect class="cls-2" x="249.19" y="129.01" width="3.49" height="10.38"/><rect class="cls-2" x="249.19" y="141.81" width="3.49" height="9.5"/><rect class="cls-2" x="249.19" y="154.61" width="3.49" height="8.62"/><rect class="cls-2" x="249.19" y="167.4" width="3.49" height="7.74"/><rect class="cls-2" x="249.19" y="180.2" width="3.49" height="6.87"/><rect class="cls-2" x="249.19" y="193" width="3.49" height="5.99"/><rect class="cls-2" x="249.19" y="205.8" width="3.49" height="5.11"/><rect class="cls-2" x="249.19" y="218.59" width="3.49" height="4.23"/><rect class="cls-2" x="249.19" y="231.39" width="3.49" height="3.35"/><rect class="cls-2" x="249.19" y="244.19" width="3.49" height="2.47"/><path class="cls-2" d="M54.12,23h4L51,30.11H47ZM70,23H66L59,30.11h3.95Zm-6,0h-4L53,30.11h4Zm29.79,0H89.87L82.8,30.11h4ZM76,23H72l-7.08,7.08h4Zm11.92,0h-4l-7.08,7.08h4Zm-6,0H78l-7.08,7.08h4Z"/><rect class="cls-2" x="186.25" y="235.99" width="7.82" height="7.82" transform="translate(225.32 -64.2) rotate(45)"/><rect class="cls-2" x="202.21" y="235.99" width="7.82" height="7.82" transform="translate(230 -75.48) rotate(45)"/><rect class="cls-2" x="218.17" y="235.99" width="7.82" height="7.82" transform="translate(234.67 -86.77) rotate(45)"/><rect class="cls-2" x="234.12" y="235.99" width="7.82" height="7.82" transform="translate(239.34 -98.05) rotate(45)"/><text class="cls-4" transform="translate(44.83 95.31)">ベクター<tspan x="6.09" y="14.4">背景</tspan></text><path class="cls-5" d="M113.88,183.71a31.16,31.16,0,0,1-3.16,3.73l-.52-.52a31.25,31.25,0,0,0,2.77-3.21Z"/><path class="cls-5" d="M98.49,192.86l0,1.22c-.53-.74-1-1.48-1.52-2.24a.92.92,0,0,1,.57,0,1.09,1.09,0,0,1,.48.38Z"/><path class="cls-5" d="M105.42,194.75a1,1,0,0,1-1.26-.12l-.55-.53c-.06-.41-.13-.81-.2-1.21Q104.39,193.85,105.42,194.75Z"/><path class="cls-5" d="M100.27,192.36l-.66.26c.08,1,.14,2,.15,3,.25-.08.49-.18.73-.27C100.44,194.32,100.37,193.33,100.27,192.36Z"/><path class="cls-5" d="M99.39,192.7l-.33.13-.33.12c0,.76,0,1.54,0,2.32s0,1.56,0,2.33a1,1,0,0,0,.56-.38,1,1,0,0,0,.22-.61C99.52,195.29,99.48,194,99.39,192.7Z"/><path class="cls-5" d="M102.46,189.51a1,1,0,0,0-.43,1c.25,1.26.46,2.56.62,3.85l.69-.35C103.11,192.51,102.82,191,102.46,189.51Z"/><path class="cls-5" d="M101.13,192l-.64.29c.11,1,.19,2,.25,3l.72-.29C101.37,193.93,101.26,193,101.13,192Z"/><path class="cls-5" d="M102,191.56a6.14,6.14,0,0,1-.63.31c.14,1,.26,2,.35,2.95l.7-.31c-.05-.5-.11-1-.18-1.48S102.07,192.05,102,191.56Z"/><path class="cls-5" d="M89.19,196.36v-.74a32.41,32.41,0,0,0,4.72-.37,30.4,30.4,0,0,0,4.61-1.13v.77a31.68,31.68,0,0,1-4.62,1.1A35.46,35.46,0,0,1,89.19,196.36Z"/><path class="cls-5" d="M110.2,186.92l.52.52a32.64,32.64,0,0,1-3.46,3,30.83,30.83,0,0,1-3.86,2.42l-.14-.75a31,31,0,0,0,3.66-2.33A32.62,32.62,0,0,0,110.2,186.92Z"/><path class="cls-5" d="M76.7,191.54c-.27.3-.55.59-.83.89.15-.9.32-1.79.51-2.66a.82.82,0,0,1,.38.42,1,1,0,0,1,.07.61Z"/><path class="cls-5" d="M80.26,197.78a1.06,1.06,0,0,1-.8-1V196c.24-.33.48-.65.71-1C80.17,196,80.21,196.86,80.26,197.78Z"/><path class="cls-5" d="M78.32,192.44l-.33-.13-.32-.14c-.64.74-1.3,1.48-2,2.2l.7.32C77.05,194,77.69,193.22,78.32,192.44Z"/><path class="cls-5" d="M77.45,192.07l-.64-.29c-1,1.13-2.13,2.23-3.29,3.29a1.09,1.09,0,0,0,1.26-.15C75.71,194,76.6,193,77.45,192.07Z"/><path class="cls-5" d="M81.88,192a1,1,0,0,0-1,.44c-.71,1.06-1.48,2.12-2.28,3.15l.73.25C80.21,194.58,81.08,193.29,81.88,192Z"/><path class="cls-5" d="M79.2,192.79l-.65-.26c-.62.77-1.27,1.54-1.93,2.27l.72.3C78,194.34,78.61,193.57,79.2,192.79Z"/><path class="cls-5" d="M80.09,193.1l-.66-.23c-.59.8-1.2,1.56-1.84,2.33l.72.28C78.93,194.7,79.52,193.9,80.09,193.1Z"/><path class="cls-5" d="M67.65,187.44l.52-.52A31.14,31.14,0,0,0,71.78,190c.33.23.64.47,1,.68l1,.64,1,.59a5.36,5.36,0,0,0,.53.28l.52.28-.53.54A30.6,30.6,0,0,1,67.65,187.44Z"/><path class="cls-5" d="M89.19,195.62v.74a34.7,34.7,0,0,1-4.55-.34,33.57,33.57,0,0,1-4.44-1l.43-.64,1,.3,1.06.24c.18,0,.35.09.53.12l.53.1c.36.06.71.13,1.07.18A32.93,32.93,0,0,0,89.19,195.62Z"/><path class="cls-5" d="M68.17,186.92l-.52.52a32.64,32.64,0,0,1-3-3.46l-.2-.27h.91A34,34,0,0,0,68.17,186.92Z"/><path class="cls-5" d="M68.17,144.89a31.25,31.25,0,0,0-2.77,3.21h-.91a32.12,32.12,0,0,1,3.16-3.73Z"/><path class="cls-5" d="M79.88,139l0-1.22c.53.74,1,1.48,1.52,2.24a.92.92,0,0,1-.57,0,1.09,1.09,0,0,1-.48-.38Z"/><path class="cls-5" d="M73,137.06a1,1,0,0,1,1.26.12l.55.53c.06.41.13.81.2,1.21Q74,138,73,137.06Z"/><path class="cls-5" d="M78.1,139.45l.66-.26c-.08-1-.14-2-.15-3-.25.08-.49.18-.73.27C77.93,137.49,78,138.48,78.1,139.45Z"/><path class="cls-5" d="M79,139.11l.33-.13.33-.12c0-.76,0-1.54,0-2.31s0-1.57,0-2.34a1,1,0,0,0-.57.38,1,1,0,0,0-.22.61C78.85,136.52,78.89,137.8,79,139.11Z"/><path class="cls-5" d="M75.91,142.3a1,1,0,0,0,.43-1c-.25-1.26-.46-2.56-.62-3.85l-.69.35C75.26,139.3,75.55,140.8,75.91,142.3Z"/><path class="cls-5" d="M77.24,139.84l.64-.29c-.11-1-.19-2-.25-3l-.72.29C77,137.88,77.11,138.86,77.24,139.84Z"/><path class="cls-5" d="M76.39,140.25a6.14,6.14,0,0,1,.63-.31c-.14-1-.26-2-.35-2.95l-.7.32q.07.74.18,1.47T76.39,140.25Z"/><path class="cls-5" d="M89.19,135.45v.74a32.44,32.44,0,0,0-4.73.37,30.4,30.4,0,0,0-4.61,1.13v-.77a31.68,31.68,0,0,1,4.62-1.1A35.48,35.48,0,0,1,89.19,135.45Z"/><path class="cls-5" d="M68.17,144.89l-.52-.52a32.64,32.64,0,0,1,3.46-3A30.83,30.83,0,0,1,75,139l.14.75a31,31,0,0,0-3.66,2.33A34,34,0,0,0,68.17,144.89Z"/><path class="cls-5" d="M101.67,140.27c.27-.3.55-.59.83-.89-.15.9-.32,1.79-.51,2.66a.86.86,0,0,1-.38-.42,1,1,0,0,1-.07-.61Z"/><path class="cls-5" d="M98.11,134a1.06,1.06,0,0,1,.8,1v.77c-.24.33-.48.65-.71,1C98.2,135.86,98.16,135,98.11,134Z"/><path class="cls-5" d="M100.05,139.37l.33.13.32.14c.64-.74,1.3-1.48,2-2.2l-.7-.32C101.32,137.85,100.68,138.59,100.05,139.37Z"/><path class="cls-5" d="M100.92,139.74l.64.29c1-1.13,2.13-2.23,3.29-3.29a1.09,1.09,0,0,0-1.26.15C102.66,137.8,101.77,138.77,100.92,139.74Z"/><path class="cls-5" d="M96.49,139.83a1,1,0,0,0,1-.44c.71-1.06,1.48-2.11,2.28-3.15l-.73-.25C98.16,137.23,97.29,138.52,96.49,139.83Z"/><path class="cls-5" d="M99.17,139l.66.26c.61-.77,1.26-1.54,1.92-2.27l-.72-.3C100.39,137.47,99.76,138.24,99.17,139Z"/><path class="cls-5" d="M98.28,138.71l.66.23c.59-.8,1.2-1.56,1.84-2.33l-.72-.28C99.44,137.11,98.85,137.91,98.28,138.71Z"/><path class="cls-5" d="M110.72,144.37l-.52.52a31.14,31.14,0,0,0-3.61-3.07c-.33-.23-.64-.47-1-.68l-1-.64-1-.59a5.36,5.36,0,0,0-.53-.28l-.52-.27.53-.55A30.6,30.6,0,0,1,110.72,144.37Z"/><path class="cls-5" d="M89.19,136.19v-.74a34.55,34.55,0,0,1,4.54.34,33.57,33.57,0,0,1,4.44,1l-.43.64-1-.29-1.06-.25c-.18,0-.35-.09-.53-.12l-.53-.1c-.36-.06-.71-.13-1.07-.18A32.91,32.91,0,0,0,89.19,136.19Z"/><path class="cls-5" d="M113.89,148.1H113a34,34,0,0,0-2.78-3.21l.52-.52a32.64,32.64,0,0,1,3,3.46Z"/><path class="cls-5" d="M51.83,146.35c-13.22-3.62-8.86,3-2.22,8.32s-18.1-2.22-10.16,8.37,35.15,7.84,25.78,10.75c-15.62,4.87-26.88-15.13-33.78-8.36-5.08,5,6.81,13.55,24.32,15.12,11.49,1,24.59-5.67,16.86-11.08S42.12,163.8,50,162.39s6-6,6-6,3.35,9.89,11.61,9.57S60.9,148.83,51.83,146.35Z"/><path class="cls-5" d="M126.54,146.35c13.22-3.62,8.86,3,2.22,8.32s18.1-2.22,10.16,8.37-35.15,7.84-25.78,10.75c15.62,4.87,26.88-15.13,33.78-8.36,5.08,5-6.81,13.55-24.32,15.12-11.49,1-24.59-5.67-16.86-11.08s30.51-5.67,22.66-7.08-6-6-6-6-3.35,9.89-11.61,9.57S117.47,148.83,126.54,146.35Z"/><path class="cls-5" d="M41.59,150.89c-5-4.12-11.29-2.08-4.28,1.3S43.91,152.79,41.59,150.89Z"/><path class="cls-5" d="M136.15,150.89c5-4.12,11.29-2.08,4.28,1.3S133.83,152.79,136.15,150.89Z"/><polygon class="cls-5" points="83.24 186.39 83.85 186.39 84.34 186.39 89.25 186.39 90.35 186.39 90.35 185.29 90.35 184.31 89.25 184.31 89.25 185.29 84.75 185.29 85.54 184.31 86.44 183.21 84.83 183.21 84.34 183.81 84.34 180.38 89.25 180.38 89.25 181.36 90.35 181.36 90.35 180.38 90.35 179.28 89.25 179.28 84.34 179.28 83.24 179.28 83.24 180.38 83.24 185.17 82.25 186.39 83.24 186.39"/><polygon class="cls-5" points="82.25 186.39 82.25 180.38 82.25 179.28 81.15 179.28 76.24 179.28 75.14 179.28 75.14 180.38 75.14 186.39 76.24 186.39 76.24 180.38 79.54 180.38 78.65 181.48 76.96 183.56 78.56 183.56 80.25 181.48 81.15 180.38 81.15 186.39 82.25 186.39"/><polygon class="cls-5" points="96.15 180.39 102.13 180.39 102.13 183.21 98.63 183.21 98.64 183.19 100.32 181.12 98.72 181.12 97.04 183.19 97.03 183.21 96.15 183.21 96.15 184.31 102.13 184.31 102.13 185.29 96.15 185.29 96.15 186.39 103.23 186.39 103.23 186.39 103.23 185.29 103.23 184.31 103.23 183.21 103.23 180.39 103.23 179.31 103.23 179.29 96.15 179.29 96.15 180.39"/><polygon class="cls-5" points="94.01 179.31 94.01 179.31 92.83 180.77 94.01 180.77 94.01 186.39 95.11 186.39 95.11 179.8 95.11 179.31 94.01 179.31 94.01 179.31"/><path class="cls-5" d="M89.18,142.93a5.17,5.17,0,1,0,5.17,5.17A5.17,5.17,0,0,0,89.18,142.93Zm.9,3.46a.38.38,0,0,1,.37-.37.35.35,0,0,1,.26.11.36.36,0,0,1,.11.26v.77a.37.37,0,0,1-.37.37.38.38,0,0,1-.37-.37Zm-2.53,0a.37.37,0,0,1,.37-.37.38.38,0,0,1,.37.37v.77a.38.38,0,0,1-.37.37.37.37,0,0,1-.37-.37Zm1.63,5.32a3.61,3.61,0,0,1-3.61-3.61h.55a3.07,3.07,0,1,0,6.13,0h.55A3.62,3.62,0,0,1,89.18,151.71Z"/><text class="cls-6" transform="translate(70.5 166.5)">ペシー</text><path class="cls-5" d="M79.05,171.85c0-.92.52-1.49,1.21-1.49s1.22.57,1.22,1.49-.53,1.5-1.22,1.5S79.05,172.76,79.05,171.85Zm2.22,0c0-.79-.4-1.3-1-1.3s-1,.51-1,1.3.41,1.31,1,1.31S81.27,172.63,81.27,171.85Zm-1.7,0a.78.78,0,0,1,.74-.85.63.63,0,0,1,.47.21l-.15.17a.45.45,0,0,0-.3-.13c-.28,0-.46.25-.46.6s.17.64.44.64a.5.5,0,0,0,.36-.16l.14.2a.74.74,0,0,1-.51.21C79.89,172.74,79.57,172.41,79.57,171.85Z"/><path class="cls-5" d="M83.31,173l.19-.24a1.17,1.17,0,0,0,.82.33c.4,0,.69-.2.69-.52s-.29-.57-1-.57v-.28c.68,0,.94-.24.94-.54s-.24-.45-.59-.45a1.05,1.05,0,0,0-.7.29l-.2-.23a1.38,1.38,0,0,1,.92-.36c.54,0,1,.26,1,.72s-.26.57-.61.69v0a.79.79,0,0,1,.71.73c0,.5-.47.81-1,.81A1.41,1.41,0,0,1,83.31,173Z"/><path class="cls-5" d="M87.52,171.86c0-1,.39-1.48,1-1.48s1,.51,1,1.48-.39,1.49-1,1.49S87.52,172.81,87.52,171.86Zm1.71,0c0-.83-.28-1.18-.68-1.18s-.69.35-.69,1.18.29,1.19.69,1.19S89.23,172.68,89.23,171.86Zm-1,0a.28.28,0,1,1,.56,0,.28.28,0,1,1-.56,0Z"/><path class="cls-5" d="M93.31,170.75H91.66v-.32h2.08v.23a3.62,3.62,0,0,0-1,2.64h-.4A3.87,3.87,0,0,1,93.31,170.75Z"/><path class="cls-5" d="M97.45,170.75H95.8v-.32h2.08v.23a3.62,3.62,0,0,0-1,2.64H96.5A3.86,3.86,0,0,1,97.45,170.75Z"/></g></g></svg>