<svg xmlns="http://www.w3.org/2000/svg" viewBox="0 0 267.95 282.71"><defs><style>.cls-1{fill:#491d7f;}.cls-2{fill:#f46188;}.cls-3{fill:#642ab6;}.cls-4{font-size:12px;font-family:MS-UIGothic, MS UI Gothic;}.cls-4,.cls-5,.cls-6,.cls-7{fill:#fff;}.cls-6{font-size:2.93px;}.cls-6,.cls-7{font-family:KozGoPr6N-Regular-90ms-RKSJ-H, Kozuka Gothic Pr6N;}.cls-7{font-size:4.02px;}</style></defs><g id="Layer_2" data-name="Layer 2"><g id="Layer_2-2" data-name="Layer 2"><path class="cls-1" d="M268,45.82V13.24H11.87V269.32H199.54l17.9-17.9h37.64V204.86L268,192V169.91L255.33,157.3V145L268,157.56v-6.27l-12.62-12.62V126.33L268,138.94v-6.28l-12.62-12.61V107.7L268,120.32V114l-12.62-12.61V89.08L268,101.69V95.42L255.33,82.8V70.46L268,83.07V76.79L255.33,64.18V51.83L268,64.45V58.17L255.33,45.56V33.21ZM20.35,240.17V48.5H89.41v7.37H77.33v3.78H89.41v4.66H77.33v3.78H89.41v4.66H77.33v3.78H89.41v4.66H77.33V85H89.41v4.66H77.33v3.78H89.41v4.65H77.33v3.79H89.41v4.65H77.33v3.79H89.41v4.65H77.33v3.79H89.41v4.65H77.33v3.78H89.41v4.66H77.33v3.78H89.41v4.66H77.33V144H89.41v4.66H77.33v3.78H89.41v4.66H77.33v3.78H89.41v4.65H77.33v3.79H89.41V174H77.33v3.79H89.41v4.65H77.33v3.79H89.41v4.65H77.33v3.78H89.41v4.66H77.33v3.78H89.41v4.66H77.33v3.78H89.41v4.66H77.33V220H89.41v4.66H77.33v3.78H89.41v4.66H77.33v3.78H89.41v3.3Z"/><path class="cls-2" d="M21.05,38.93H19.5L36.83,21.6h4.85L34,29.28H30.7Zm17.09-9.65h3.3l7.68-7.68H44.27L26.94,38.93h1.55Zm7.43,0h3.31l7.68-7.68H51.7L34.38,38.93h1.55Zm7.44,0h3.3L64,21.6H59.14L41.81,38.93h1.56Zm7.44,0h3.3l7.69-7.68H66.58L49.25,38.93h1.56Zm7.44,0h3.3l7.68-7.68H74L56.69,38.93h1.55Zm7.44,0h3.3l7.68-7.68H81.46L64.13,38.93h1.55Zm7.44,0h3.3l7.68-7.68H88.9L71.57,38.93h1.55Z"/><circle class="cls-2" cx="30.09" cy="251.03" r="5.01"/><circle class="cls-2" cx="47.78" cy="251.03" r="5.01"/><circle class="cls-2" cx="65.47" cy="251.03" r="5.01"/><circle class="cls-2" cx="83.16" cy="251.03" r="5.01"/><polygon class="cls-3" points="105.12 9.6 8.22 9.6 8.22 87.59 4.29 83.66 4.29 39.58 0 35.28 0 0 21.02 0 24.95 3.93 77.28 3.93 80.51 7.16 105.12 7.16 105.12 9.6"/><polygon class="cls-2" points="188.4 15.3 184.23 11.13 188.4 6.96 186.04 4.6 181.87 8.77 177.7 4.6 175.34 6.96 179.51 11.13 175.34 15.3 177.7 17.66 181.87 13.49 186.04 17.66 188.4 15.3"/><polygon class="cls-2" points="214 15.3 209.84 11.13 214 6.96 211.64 4.6 207.47 8.77 203.3 4.6 200.94 6.96 205.11 11.13 200.94 15.3 203.3 17.66 207.47 13.49 211.64 17.66 214 15.3"/><polygon class="cls-2" points="239.61 15.3 235.44 11.13 239.61 6.96 237.25 4.6 233.08 8.77 228.91 4.6 226.55 6.96 230.72 11.13 226.55 15.3 228.91 17.66 233.08 13.49 237.25 17.66 239.61 15.3"/><polygon class="cls-3" points="251.08 247.03 251.08 215.5 245.38 221.2 245.38 241.33 225.25 241.33 219.55 247.03 251.08 247.03"/><path class="cls-2" d="M259.73,21a2.19,2.19,0,0,1-2.18,2.19,2.15,2.15,0,0,1-2.07-1.61h-8.94V204.91l-53.3,53.3H114.48L91.59,281.1H36.24a2.15,2.15,0,0,1-2.07,1.61,2.19,2.19,0,0,1,0-4.38,2.16,2.16,0,0,1,2.07,1.61H91.11L114,257h78.76l52.62-52.62v-184h10.1a2.15,2.15,0,0,1,2.07-1.61A2.19,2.19,0,0,1,259.73,21Z"/><rect class="cls-2" x="2.69" y="116.98" width="4.36" height="4.36"/><rect class="cls-2" x="2.69" y="129.2" width="4.36" height="4.36"/><rect class="cls-2" x="2.69" y="141.42" width="4.36" height="4.36"/><rect class="cls-2" x="2.69" y="153.64" width="4.36" height="4.36"/><rect class="cls-2" x="2.69" y="165.87" width="4.36" height="4.36"/><rect class="cls-2" x="2.69" y="178.09" width="4.36" height="4.36"/><rect class="cls-2" x="2.69" y="190.31" width="4.36" height="4.36"/><rect class="cls-2" x="2.69" y="202.53" width="4.36" height="4.36"/><rect class="cls-2" x="2.69" y="214.75" width="4.36" height="4.36"/><rect class="cls-2" x="2.69" y="226.97" width="4.36" height="4.36"/><polygon class="cls-3" points="236.94 202.82 190.24 249.53 118.8 249.53 118.8 243.27 151.1 243.27 195.18 199.19 224.43 199.19 224.43 48.3 128.98 48.3 128.98 45.69 236.94 45.69 236.94 202.82"/><rect class="cls-2" x="131.31" y="38.93" width="14.55" height="4.87"/><rect class="cls-2" x="233.08" y="165.87" width="6.53" height="26.63"/><rect class="cls-2" x="16.47" y="87.59" width="8.62" height="99.81"/><rect class="cls-2" x="221.88" y="57.03" width="4.88" height="30.55"/><rect class="cls-2" x="128.98" y="266.55" width="31.82" height="5.43"/><rect class="cls-2" x="37.88" width="4.8" height="4.8"/><rect class="cls-2" x="46.85" width="4.8" height="4.8"/><rect class="cls-2" x="55.83" width="4.8" height="4.8"/><rect class="cls-2" x="64.8" width="4.8" height="4.8"/><text class="cls-4" transform="translate(180.94 61.48)">ベクター<tspan x="12.19" y="14.4">背景</tspan></text><path class="cls-5" d="M129.73,112.64v13h13v-13Zm2,2H139l-5.66,7-1.63,2Zm2.93,9,1.64-2,4.4-5.43v7.45Z"/><polygon class="cls-5" points="126.05 119.82 119.62 119.82 119.64 119.8 122.73 116 119.79 116 117.08 119.34 117.08 112.66 115.06 112.66 115.06 119.82 115.06 121.84 117.08 121.84 126.05 121.84 126.05 125.66 128.07 125.66 128.07 121.84 128.07 119.82 128.07 112.66 126.05 112.66 126.05 119.82"/><polygon class="cls-5" points="155.39 119.82 148.96 119.82 148.98 119.8 152.07 116 149.14 116 146.42 119.34 146.42 112.66 144.41 112.66 144.41 119.82 144.41 121.84 146.42 121.84 155.39 121.84 155.39 125.66 157.41 125.66 157.41 121.84 157.41 119.82 157.41 112.66 155.39 112.66 155.39 119.82"/><path class="cls-5" d="M131.82,128.11h-2v9.18h1.27L128,141.08h2.93l3.08-3.79h6.76v3.79h2v-13h-11Zm9,7.17h-9v-5.16h9Z"/><path class="cls-5" d="M144.44,141.08h12a1,1,0,0,0,1-1v-11a1,1,0,0,0-1-1h-12v10.73l-1.81,2.23Zm11-11v8.94h-8.21l1.45-1.78,1.63-2h-2.92l-.9,1.1v-6.25Z"/><polygon class="cls-5" points="115.06 128.11 115.06 137.29 117.08 137.29 123.47 137.29 122.02 139.07 115.06 139.07 115.06 141.09 123.15 141.09 123.15 141.08 123.32 141.08 126.4 137.29 128.04 137.29 128.04 135.28 128.03 135.28 128.04 135.27 117.08 135.28 117.08 130.12 128.04 130.12 128.04 128.11 117.08 128.11 115.06 128.11"/><path class="cls-5" d="M107.11,93.1v81H208v-81Zm99.19,7.55H146.14l4.31-5.87H206.3Zm-77.21-.89a2.51,2.51,0,1,1-2.51-2.51A2.51,2.51,0,0,1,129.09,99.76Zm-6.4,0a2.51,2.51,0,1,1-2.51-2.51A2.51,2.51,0,0,1,122.69,99.76Zm-6.41,0a2.51,2.51,0,1,1-2.51-2.51A2.5,2.5,0,0,1,116.28,99.76Zm-7.49,72.63V105.57h33.74l2.66-3.62H206.3v70.44Z"/><path class="cls-5" d="M207.06,182.67h-3.49a3.59,3.59,0,0,0-3.43-2.6H197a3.57,3.57,0,0,0-3.42,2.6h-.28a3.59,3.59,0,0,0-3.43-2.6h-3.14a3.59,3.59,0,0,0-3.43,2.6H183a3.57,3.57,0,0,0-3.42-2.6h-3.15a3.59,3.59,0,0,0-3.43,2.6h-.27a3.59,3.59,0,0,0-3.43-2.6h-3.15a3.57,3.57,0,0,0-3.42,2.6h-.26a3.57,3.57,0,0,0-3.43-2.6H155.9a3.57,3.57,0,0,0-3.42,2.6h-.27a3.59,3.59,0,0,0-3.43-2.6h-3.15a3.59,3.59,0,0,0-3.43,2.6h-.27a3.59,3.59,0,0,0-3.43-2.6h-3.14a3.57,3.57,0,0,0-3.43,2.6h-.28a3.57,3.57,0,0,0-3.43-2.6h-3.14a3.59,3.59,0,0,0-3.43,2.6h-.26a3.59,3.59,0,0,0-3.43-2.6h-3.14a3.59,3.59,0,0,0-3.43,2.6H108a.88.88,0,0,0-.88.89v.14a.88.88,0,0,0,.88.89h3.36a3.59,3.59,0,0,0,3.43,2.6H118a3.59,3.59,0,0,0,3.43-2.6h.26a3.59,3.59,0,0,0,3.43,2.6h3.14a3.57,3.57,0,0,0,3.43-2.6h.28a3.57,3.57,0,0,0,3.43,2.6h3.14a3.59,3.59,0,0,0,3.43-2.6h.27a3.59,3.59,0,0,0,3.43,2.6h3.15a3.59,3.59,0,0,0,3.43-2.6h.27a3.57,3.57,0,0,0,3.42,2.6h3.15a3.57,3.57,0,0,0,3.43-2.6h.26a3.57,3.57,0,0,0,3.42,2.6h3.15a3.59,3.59,0,0,0,3.43-2.6H173a3.59,3.59,0,0,0,3.43,2.6h3.15a3.57,3.57,0,0,0,3.42-2.6h.28a3.59,3.59,0,0,0,3.43,2.6h3.14a3.59,3.59,0,0,0,3.43-2.6h.28a3.57,3.57,0,0,0,3.42,2.6h3.15a3.59,3.59,0,0,0,3.43-2.6h3.49a.88.88,0,0,0,.88-.89v-.14A.88.88,0,0,0,207.06,182.67ZM197,180.57h3.15a3.08,3.08,0,0,1,2.91,2.1h-1a2.14,2.14,0,0,0-1.91-1.18H197a2.15,2.15,0,0,0-1.91,1.18h-1A3.07,3.07,0,0,1,197,180.57Zm3.48,4h1a1.64,1.64,0,0,1-1.33.68H197a1.62,1.62,0,0,1-1.32-.68h1.13a.88.88,0,0,0,.88-.89v-.14a.88.88,0,0,0-.88-.89h-1.13A1.62,1.62,0,0,1,197,182h3.15a1.64,1.64,0,0,1,1.33.68h-1a.89.89,0,0,0-.89.89v.14A.89.89,0,0,0,200.47,184.59Zm-13.75-4h3.14a3.08,3.08,0,0,1,2.91,2.1h-1a2.13,2.13,0,0,0-1.91-1.18h-3.14a2.13,2.13,0,0,0-1.91,1.18h-1A3.08,3.08,0,0,1,186.72,180.57Zm3.47,4h1a1.63,1.63,0,0,1-1.33.68h-3.14a1.63,1.63,0,0,1-1.33-.68h1.13a.89.89,0,0,0,.89-.89v-.14a.89.89,0,0,0-.89-.89h-1.13a1.63,1.63,0,0,1,1.33-.68h3.14a1.63,1.63,0,0,1,1.33.68h-1a.88.88,0,0,0-.88.89v.14A.88.88,0,0,0,190.19,184.59Zm-13.75-4h3.15a3.07,3.07,0,0,1,2.9,2.1h-1a2.15,2.15,0,0,0-1.91-1.18h-3.15a2.13,2.13,0,0,0-1.91,1.18h-1A3.08,3.08,0,0,1,176.44,180.57Zm3.48,4h1a1.62,1.62,0,0,1-1.32.68h-3.15a1.64,1.64,0,0,1-1.33-.68h1.13a.89.89,0,0,0,.89-.89v-.14a.89.89,0,0,0-.89-.89h-1.13a1.64,1.64,0,0,1,1.33-.68h3.15a1.62,1.62,0,0,1,1.32.68h-1a.89.89,0,0,0-.89.89v.14A.89.89,0,0,0,179.92,184.59Zm-13.76-4h3.15a3.08,3.08,0,0,1,2.91,2.1h-1a2.13,2.13,0,0,0-1.91-1.18h-3.15a2.15,2.15,0,0,0-1.91,1.18h-1A3.07,3.07,0,0,1,166.16,180.57Zm3.48,4h1a1.64,1.64,0,0,1-1.33.68h-3.15a1.62,1.62,0,0,1-1.32-.68H166a.89.89,0,0,0,.89-.89v-.14a.89.89,0,0,0-.89-.89h-1.13a1.62,1.62,0,0,1,1.32-.68h3.15a1.64,1.64,0,0,1,1.33.68h-1a.89.89,0,0,0-.89.89v.14A.89.89,0,0,0,169.64,184.59Zm-10.59-4a3.08,3.08,0,0,1,2.91,2.1h-1a2.13,2.13,0,0,0-1.91-1.18H155.9a2.15,2.15,0,0,0-1.91,1.18h-1a3.08,3.08,0,0,1,2.91-2.1Zm.33,2.1a.89.89,0,0,0-.89.89v.14a.89.89,0,0,0,.89.89h1a1.66,1.66,0,0,1-1.33.68h-3.14a1.63,1.63,0,0,1-1.33-.68h1.13a.89.89,0,0,0,.89-.89v-.14a.89.89,0,0,0-.89-.89h-1.13a1.63,1.63,0,0,1,1.33-.68h3.14a1.66,1.66,0,0,1,1.33.68Zm-13.75-2.1h3.15a3.08,3.08,0,0,1,2.91,2.1h-1a2.14,2.14,0,0,0-1.91-1.18h-3.15a2.14,2.14,0,0,0-1.91,1.18h-1A3.08,3.08,0,0,1,145.63,180.57Zm3.48,2.1a.89.89,0,0,0-.89.89v.14a.89.89,0,0,0,.89.89h1a1.66,1.66,0,0,1-1.33.68h-3.15a1.66,1.66,0,0,1-1.33-.68h1.14a.89.89,0,0,0,.88-.89v-.14a.89.89,0,0,0-.88-.89H144.3a1.66,1.66,0,0,1,1.33-.68h3.15a1.66,1.66,0,0,1,1.33.68h-1Zm-13.75-2.1h3.14a3.08,3.08,0,0,1,2.91,2.1h-1a2.13,2.13,0,0,0-1.91-1.18h-3.14a2.13,2.13,0,0,0-1.91,1.18h-1A3.07,3.07,0,0,1,135.36,180.57Zm3.47,4h1a1.63,1.63,0,0,1-1.33.68h-3.14a1.63,1.63,0,0,1-1.33-.68h1.13a.89.89,0,0,0,.89-.89v-.14a.89.89,0,0,0-.89-.89H134a1.63,1.63,0,0,1,1.33-.68h3.14a1.63,1.63,0,0,1,1.33.68h-1a.89.89,0,0,0-.89.89v.14A.89.89,0,0,0,138.83,184.59Zm-13.75-4h3.14a3.07,3.07,0,0,1,2.91,2.1h-1a2.13,2.13,0,0,0-1.91-1.18h-3.14a2.13,2.13,0,0,0-1.91,1.18h-1A3.08,3.08,0,0,1,125.08,180.57Zm3.47,4h1a1.63,1.63,0,0,1-1.33.68h-3.14a1.63,1.63,0,0,1-1.33-.68h1.13a.89.89,0,0,0,.89-.89v-.14a.89.89,0,0,0-.89-.89h-1.13a1.63,1.63,0,0,1,1.33-.68h3.14a1.63,1.63,0,0,1,1.33.68h-1a.89.89,0,0,0-.88.89v.14A.89.89,0,0,0,128.55,184.59Zm-13.73-4H118a3.07,3.07,0,0,1,2.91,2.1h-1a2.13,2.13,0,0,0-1.91-1.18h-3.14a2.13,2.13,0,0,0-1.91,1.18h-1A3.08,3.08,0,0,1,114.82,180.57Zm3.47,4h1a1.63,1.63,0,0,1-1.33.68h-3.14a1.63,1.63,0,0,1-1.33-.68h1.13a.89.89,0,0,0,.89-.89v-.14a.89.89,0,0,0-.89-.89h-1.13a1.63,1.63,0,0,1,1.33-.68H118a1.63,1.63,0,0,1,1.33.68h-1a.88.88,0,0,0-.88.89v.14A.88.88,0,0,0,118.29,184.59Zm-10.26-.5a.39.39,0,0,1-.39-.39v-.14a.39.39,0,0,1,.39-.39h6.59a.38.38,0,0,1,.39.39v.14a.38.38,0,0,1-.39.39Zm9.93,2.6h-3.14a3.09,3.09,0,0,1-2.91-2.1h1a2.13,2.13,0,0,0,1.91,1.18H118a2.13,2.13,0,0,0,1.91-1.18h1A3.08,3.08,0,0,1,118,186.69Zm.33-2.6a.39.39,0,0,1-.39-.39v-.14a.39.39,0,0,1,.39-.39h6.59a.38.38,0,0,1,.39.39v.14a.38.38,0,0,1-.39.39Zm9.93,2.6h-3.14a3.09,3.09,0,0,1-2.91-2.1h1a2.13,2.13,0,0,0,1.91,1.18h3.14a2.13,2.13,0,0,0,1.91-1.18h1A3.08,3.08,0,0,1,128.22,186.69Zm.35-2.6a.39.39,0,0,1-.39-.39v-.14a.39.39,0,0,1,.39-.39h6.57a.38.38,0,0,1,.39.39v.14a.38.38,0,0,1-.39.39Zm9.93,2.6h-3.14a3.08,3.08,0,0,1-2.91-2.1h1a2.13,2.13,0,0,0,1.91,1.18h3.14a2.13,2.13,0,0,0,1.91-1.18h1A3.09,3.09,0,0,1,138.5,186.69Zm.35-2.6a.38.38,0,0,1-.39-.39v-.14a.38.38,0,0,1,.39-.39h6.57a.39.39,0,0,1,.39.39v.14a.39.39,0,0,1-.39.39Zm9.93,2.6h-3.15a3.09,3.09,0,0,1-2.91-2.1h1a2.14,2.14,0,0,0,1.91,1.18h3.15a2.14,2.14,0,0,0,1.91-1.18h1A3.09,3.09,0,0,1,148.78,186.69Zm.34-2.6a.39.39,0,0,1-.39-.39v-.14a.39.39,0,0,1,.39-.39h6.58a.39.39,0,0,1,.39.39v.14a.39.39,0,0,1-.39.39Zm6.79,2.6a3.09,3.09,0,0,1-2.91-2.1h1a2.15,2.15,0,0,0,1.91,1.18h3.15a2.13,2.13,0,0,0,1.91-1.18h1a3.09,3.09,0,0,1-2.91,2.1Zm3.47-2.6a.39.39,0,0,1-.39-.39v-.14a.39.39,0,0,1,.39-.39H166a.39.39,0,0,1,.39.39v.14a.39.39,0,0,1-.39.39Zm9.93,2.6h-3.15a3.08,3.08,0,0,1-2.9-2.1h1a2.15,2.15,0,0,0,1.91,1.18h3.15a2.13,2.13,0,0,0,1.91-1.18h1A3.09,3.09,0,0,1,169.31,186.69Zm.35-2.6a.38.38,0,0,1-.39-.39v-.14a.38.38,0,0,1,.39-.39h6.57a.39.39,0,0,1,.39.39v.14a.39.39,0,0,1-.39.39Zm9.93,2.6h-3.15a3.09,3.09,0,0,1-2.91-2.1h1a2.13,2.13,0,0,0,1.91,1.18h3.15a2.15,2.15,0,0,0,1.91-1.18h1A3.08,3.08,0,0,1,179.59,186.69Zm.34-2.6a.39.39,0,0,1-.39-.39v-.14a.39.39,0,0,1,.39-.39h6.57a.38.38,0,0,1,.39.39v.14a.38.38,0,0,1-.39.39Zm9.93,2.6h-3.14a3.09,3.09,0,0,1-2.91-2.1h1a2.13,2.13,0,0,0,1.91,1.18h3.14a2.13,2.13,0,0,0,1.91-1.18h1A3.09,3.09,0,0,1,189.86,186.69Zm.35-2.6a.38.38,0,0,1-.39-.39v-.14a.38.38,0,0,1,.39-.39h6.57a.38.38,0,0,1,.39.39v.14a.38.38,0,0,1-.39.39Zm9.93,2.6H197a3.08,3.08,0,0,1-2.9-2.1h1a2.15,2.15,0,0,0,1.91,1.18h3.15a2.14,2.14,0,0,0,1.91-1.18h1A3.09,3.09,0,0,1,200.14,186.69Zm7.31-3a.39.39,0,0,1-.39.39h-6.59a.38.38,0,0,1-.39-.39v-.14a.38.38,0,0,1,.39-.39h6.59a.39.39,0,0,1,.39.39Z"/><rect class="cls-5" x="158.25" y="151.74" width="1.96" height="14.66"/><rect class="cls-5" x="152.71" y="151.74" width="1.96" height="14.66"/><rect class="cls-5" x="156.57" y="151.74" width="0.98" height="14.66"/><rect class="cls-5" x="155.37" y="151.74" width="0.49" height="14.66"/><rect class="cls-5" x="150.03" y="151.74" width="1.96" height="14.66"/><rect class="cls-5" x="148.35" y="151.74" width="0.98" height="14.66"/><rect class="cls-5" x="147.15" y="151.74" width="0.49" height="14.66"/><rect class="cls-5" x="115.06" y="151.74" width="1.96" height="14.66"/><rect class="cls-5" x="120.6" y="151.74" width="1.96" height="14.66"/><rect class="cls-5" x="117.73" y="151.74" width="0.98" height="14.66"/><rect class="cls-5" x="119.41" y="151.74" width="0.49" height="14.66"/><rect class="cls-5" x="123.28" y="151.74" width="1.96" height="14.66"/><rect class="cls-5" x="125.95" y="151.74" width="0.98" height="14.66"/><rect class="cls-5" x="127.63" y="151.74" width="0.49" height="14.66"/><rect class="cls-5" x="142.57" y="151.74" width="3.92" height="14.66"/><rect class="cls-5" x="139.91" y="151.74" width="1.96" height="14.66"/><rect class="cls-5" x="134.37" y="151.74" width="1.96" height="14.66"/><rect class="cls-5" x="138.23" y="151.74" width="0.98" height="14.66"/><rect class="cls-5" x="137.03" y="151.74" width="0.49" height="14.66"/><rect class="cls-5" x="131.69" y="151.74" width="1.96" height="14.66"/><rect class="cls-5" x="130.01" y="151.74" width="0.98" height="14.66"/><rect class="cls-5" x="128.81" y="151.74" width="0.49" height="14.66"/><rect class="cls-5" x="194.19" y="151.74" width="0.98" height="14.66"/><rect class="cls-5" x="193" y="151.74" width="0.49" height="14.66"/><rect class="cls-5" x="166.45" y="151.74" width="1.96" height="14.66"/><polygon class="cls-5" points="163.57 151.74 162.87 151.74 160.91 151.74 160.91 166.41 162.87 166.41 163.57 166.41 164.55 166.41 164.83 166.41 164.83 151.74 164.55 151.74 163.57 151.74"/><rect class="cls-5" x="165.25" y="151.74" width="0.49" height="14.66"/><rect class="cls-5" x="169.13" y="151.74" width="1.96" height="14.66"/><rect class="cls-5" x="171.79" y="151.74" width="0.98" height="14.66"/><rect class="cls-5" x="173.47" y="151.74" width="0.49" height="14.66"/><rect class="cls-5" x="188.42" y="151.74" width="3.92" height="14.66"/><rect class="cls-5" x="185.75" y="151.74" width="1.96" height="14.66"/><rect class="cls-5" x="180.22" y="151.74" width="1.96" height="14.66"/><rect class="cls-5" x="184.07" y="151.74" width="0.98" height="14.66"/><rect class="cls-5" x="182.88" y="151.74" width="0.49" height="14.66"/><rect class="cls-5" x="177.53" y="151.74" width="1.96" height="14.66"/><rect class="cls-5" x="175.85" y="151.74" width="0.98" height="14.66"/><rect class="cls-5" x="174.66" y="151.74" width="0.49" height="14.66"/><text class="cls-6" transform="translate(163.03 113.66)">見つかりませんでした<tspan x="0" y="7.02">見つかりませんでした</tspan><tspan x="0" y="14.05">見つかりませんでした</tspan><tspan x="0" y="21.07">見つかりませんでした</tspan><tspan x="0" y="28.1">見つかりませんでした</tspan></text><text class="cls-7" transform="translate(122.59 146.78)">見当たらない</text></g></g></svg>