<svg xmlns="http://www.w3.org/2000/svg" viewBox="0 0 262.05 263.05"><defs><style>.cls-1{fill:#491d7f;}.cls-2{fill:#642ab6;}.cls-3{fill:#f46188;}.cls-4{font-size:12px;font-family:MS-UIGothic, MS UI Gothic;}.cls-4,.cls-6{fill:#fff;}.cls-5{fill:none;stroke:#fff;stroke-miterlimit:10;stroke-width:1.26px;}</style></defs><g id="Layer_2" data-name="Layer 2"><g id="Layer_2-2" data-name="Layer 2"><path class="cls-1" d="M88.72,9.07V1.26H40.45V9.07h-24v245.6h245.6V9.07ZM20.43,111.8H33.07L20.43,124.45Zm0,21.7,21.69-21.7H59.78L20.43,151.15Zm0,26.71,48.4-48.41H86.48L20.43,177.86Zm0,26.7L95.54,111.8h17.65L20.43,204.56Zm0,26.71L122.24,111.8H139.9L20.43,231.27ZM157,248.38H145.91L157,237.29Zm0-20.15-20.14,20.15H119.2l37.8-37.8Zm0-26.7-46.85,46.85H92.5L157,183.87Zm0-26.71L83.44,248.38H65.79L157,157.17Zm0-26.71L56.74,248.38H39.09L157,130.46Zm0-26.7-127,127h-9.6v-8.06L149,111.8H157Z"/><polygon class="cls-2" points="94.02 15.22 140.57 15.22 144.79 11.01 192.37 11.01 192.37 15.22 248.82 15.22 248.82 46.94 254.35 46.94 254.35 74.01 250.79 77.56 250.79 162.6 254.35 162.6 254.35 82.48 261 75.83 261 33.85 256.95 29.8 256.95 6.79 200.81 6.79 195.28 1.26 137.66 1.26 126.61 12.31 94.02 12.31 94.02 15.22"/><polygon class="cls-3" points="256.37 247.49 256.37 196 247.05 205.31 247.05 238.18 214.19 238.18 204.87 247.49 256.37 247.49"/><polygon class="cls-3" points="12.22 21.43 12.22 83.42 6.11 83.42 6.11 116.01 12.22 116.01 12.22 221.74 9.17 221.74 9.17 121.59 0 121.59 0 72.71 9.63 63.08 9.63 21.43 12.22 21.43"/><rect class="cls-3" x="9.64" y="16.65" width="2.59" height="2.59"/><rect class="cls-3" x="9.64" y="11.99" width="2.59" height="2.59"/><polygon class="cls-3" points="239.85 34.9 233.96 34.9 233.96 29 230.62 29 230.62 34.9 224.72 34.9 224.72 38.23 230.62 38.23 230.62 44.13 233.96 44.13 233.96 38.23 239.85 38.23 239.85 34.9"/><polygon class="cls-3" points="24.39 33.36 24.39 18.96 38.8 18.96 38.8 14.74 20.18 14.74 20.18 33.36 24.39 33.36"/><circle class="cls-2" cx="215.82" cy="260.92" r="2.13"/><circle class="cls-2" cx="224.16" cy="260.92" r="2.13"/><circle class="cls-2" cx="232.5" cy="260.92" r="2.13"/><circle class="cls-2" cx="240.84" cy="260.92" r="2.13"/><circle class="cls-2" cx="249.19" cy="260.92" r="2.13"/><circle class="cls-2" cx="257.53" cy="260.92" r="2.13"/><rect class="cls-3" x="204.71" y="0.48" width="2.33" height="2.33" transform="translate(61.46 -145.1) rotate(45)"/><rect class="cls-3" x="209.51" y="0.48" width="2.33" height="2.33" transform="translate(62.87 -148.49) rotate(45)"/><rect class="cls-3" x="214.32" y="0.48" width="2.33" height="2.33" transform="translate(64.28 -151.89) rotate(45)"/><rect class="cls-3" x="219.12" y="0.48" width="2.33" height="2.33" transform="translate(65.68 -155.28) rotate(45)"/><rect class="cls-3" x="223.92" y="0.48" width="2.33" height="2.33" transform="translate(67.09 -158.68) rotate(45)"/><rect class="cls-3" x="228.72" y="0.48" width="2.33" height="2.33" transform="translate(68.5 -162.07) rotate(45)"/><polygon class="cls-2" points="21.69 106.6 94.12 106.6 105.76 94.96 33.33 94.96 21.69 106.6"/><text class="cls-4" transform="translate(47.43 75.65)">ベクター<tspan x="6.09" y="14.4">背景</tspan></text><path class="cls-5" d="M86.22,172.28,38.69,219.81a1.49,1.49,0,0,0,1.38,2.51h0a78.55,78.55,0,0,0,38.68-21.18L96.92,183l-.73-8.69-6-6Z"/><path class="cls-6" d="M116.52,139.49l-26.9,26.9a1.33,1.33,0,0,0,0,1.88l6.12,6.12a2.73,2.73,0,0,0,3.87,0l25.9-25.91a2.73,2.73,0,0,0,0-3.87l-5.12-5.12A2.73,2.73,0,0,0,116.52,139.49Z"/><polygon class="cls-6" points="96.59 183.31 89.69 176.41 96.89 182.67 96.59 183.31"/><path class="cls-6" d="M48.86,210.17l-.62.62-.91.26-.24-.38C47.69,210.51,48.28,210.35,48.86,210.17Z"/><path class="cls-6" d="M48.85,210l-.23-.36c-.95.26-1.92.5-2.89.7a.64.64,0,0,0,.7.31C47.24,210.48,48.05,210.26,48.85,210Z"/><path class="cls-6" d="M48,211l-.43.44-.17-.26Z"/><path class="cls-6" d="M45.34,204.56l.47-.06a11.18,11.18,0,0,0,.78,2.69,20.69,20.69,0,0,0,1.28,2.53l-.48.12a18.75,18.75,0,0,1-1.26-2.54A11.51,11.51,0,0,1,45.34,204.56Z"/><path class="cls-6" d="M50.45,201.65l.4-.67q0,.87-.06,1.74a.49.49,0,0,1-.25-.22.69.69,0,0,1-.09-.36Z"/><path class="cls-6" d="M47,198.68a.77.77,0,0,1,.91.27,3.68,3.68,0,0,1,.23.44q-.09.39-.15.78a8.46,8.46,0,0,0-.44-.77A7.61,7.61,0,0,0,47,198.68Z"/><path class="cls-6" d="M49.46,201.35l.39.06a15.92,15.92,0,0,1,.91-1.67l-.47-.11A15.07,15.07,0,0,0,49.46,201.35Z"/><path class="cls-6" d="M50,201.43l.39.09A23.13,23.13,0,0,1,52,199a.66.66,0,0,0-.76.25A21.17,21.17,0,0,0,50,201.43Z"/><path class="cls-6" d="M48.07,202.4c.1,0,.2-.23.21-.51a7.31,7.31,0,0,1,.17-1.22,8.59,8.59,0,0,1,.34-1.2h-.52c-.06.25-.12.49-.16.73A6.49,6.49,0,0,0,48,201,5.4,5.4,0,0,0,48.07,202.4Z"/><path class="cls-6" d="M49,201.3l.38,0c.11-.29.23-.59.37-.88s.27-.57.42-.85a4,4,0,0,0-.48-.07c-.14.29-.27.58-.38.87S49,201,49,201.3Z"/><path class="cls-6" d="M48.46,201.3h.36a10.88,10.88,0,0,1,.65-1.78l-.5,0a8.06,8.06,0,0,0-.3.91A7.62,7.62,0,0,0,48.46,201.3Z"/><path class="cls-6" d="M56.2,203l-.26.4A19.24,19.24,0,0,0,50.87,201l.27-.42A20.05,20.05,0,0,1,56.2,203Z"/><path class="cls-6" d="M45.81,204.5l-.47.06a5.85,5.85,0,0,1-.05-1.39,3.76,3.76,0,0,1,.36-1.38,2.78,2.78,0,0,1,1-1.08,3.26,3.26,0,0,1,1.34-.5c0,.16,0,.32-.05.48a2.88,2.88,0,0,0-1.11.46,2.37,2.37,0,0,0-.75.91,3.35,3.35,0,0,0-.28,1.18A5.91,5.91,0,0,0,45.81,204.5Z"/><path class="cls-6" d="M61.53,209.19l.7-.36c-.3.5-.6,1-.91,1.49a.54.54,0,0,1-.14-.34.7.7,0,0,1,.1-.38Z"/><path class="cls-6" d="M61.24,204.79a.62.62,0,0,1,.14.74l-.21.44-.68.4C60.75,205.84,61,205.32,61.24,204.79Z"/><path class="cls-6" d="M60.82,208.31l.3.3c.55-.3,1.12-.6,1.68-.88l-.31-.33C61.93,207.7,61.37,208,60.82,208.31Z"/><path class="cls-6" d="M61.22,208.72l.3.31c.88-.46,1.77-.91,2.67-1.33a.65.65,0,0,0-.75-.13C62.69,207.94,62,208.32,61.22,208.72Z"/><path class="cls-6" d="M58.66,207.68a.58.58,0,0,0,.71,0c.71-.43,1.42-.86,2.15-1.27l-.33-.31C60.33,206.63,59.48,207.15,58.66,207.68Z"/><path class="cls-6" d="M60.4,207.9l.31.3c.55-.31,1.11-.61,1.67-.91l-.32-.32C61.5,207.27,61,207.58,60.4,207.9Z"/><path class="cls-6" d="M60,207.5l.32.3c.54-.32,1.09-.63,1.65-.94l-.32-.31Z"/><path class="cls-6" d="M66.18,213l-.39.26a33.82,33.82,0,0,0-3.54-4.46l.44-.22A33.73,33.73,0,0,1,66.18,213Z"/><path class="cls-6" d="M55.94,203.44l.26-.4a34.42,34.42,0,0,1,4.26,3.34l-.42.26A32.48,32.48,0,0,0,55.94,203.44Z"/><path class="cls-6" d="M67.82,220.62c.26.07.5.14.74.23a7.91,7.91,0,0,1-.85.13,8.07,8.07,0,0,1-.85,0c0-.07.07-.11.15-.17a1,1,0,0,1,.34-.12Z"/><path class="cls-6" d="M70.06,216.84a.66.66,0,0,1-.22.76l-.41.27h-.79C69.13,217.55,69.6,217.2,70.06,216.84Z"/><path class="cls-6" d="M67.86,219.64l0,.38a11.32,11.32,0,0,1,1.85.45c0-.18,0-.34,0-.51A12,12,0,0,0,67.86,219.64Z"/><path class="cls-6" d="M67.92,220.15c0,.12,0,.25,0,.37.24.06.47.13.71.21a6.46,6.46,0,0,1,.69.26,7.92,7.92,0,0,1,1.34.73.75.75,0,0,0-.35-.85A10.64,10.64,0,0,0,67.92,220.15Z"/><path class="cls-6" d="M66.41,218.15a.58.58,0,0,0,.59.33,20.7,20.7,0,0,1,2.49,0c0-.16-.08-.31-.12-.47-.5,0-1,0-1.49,0S66.9,218.1,66.41,218.15Z"/><path class="cls-6" d="M67.76,219.11c0,.13,0,.26.08.39a15.27,15.27,0,0,1,1.88.29l-.06-.49A17.46,17.46,0,0,0,67.76,219.11Z"/><path class="cls-6" d="M67.63,218.59c0,.13.07.26.1.39a17.36,17.36,0,0,1,1.9.15l0-.24,0-.23c-.32,0-.63,0-1-.06Z"/><path class="cls-6" d="M64.66,223.88l.07-.46a6.28,6.28,0,0,0,1.37,0,3.36,3.36,0,0,0,1.26-.38,2.41,2.41,0,0,0,.89-.93,3.47,3.47,0,0,0,.34-1.29l.46.18a3.46,3.46,0,0,1-.44,1.42,2.66,2.66,0,0,1-1.07,1.06,3.85,3.85,0,0,1-1.43.41A5.84,5.84,0,0,1,64.66,223.88Z"/><path class="cls-6" d="M65.79,213.28l.39-.26a22.72,22.72,0,0,1,1.37,2.34,16.28,16.28,0,0,1,1.06,2.51l-.49,0a15.53,15.53,0,0,0-1-2.37A23.82,23.82,0,0,0,65.79,213.28Z"/><path class="cls-6" d="M58,219.43l-.61.48c.19-.55.4-1.09.61-1.63a.51.51,0,0,1,.19.3.65.65,0,0,1,0,.39Z"/><path class="cls-6" d="M59.19,223.68a.64.64,0,0,1-.32-.7l.11-.47.57-.54Q59.36,222.81,59.19,223.68Z"/><path class="cls-6" d="M58.83,220.14l-.36-.23L57,221.11l.37.25C57.86,221,58.35,220.56,58.83,220.14Z"/><path class="cls-6" d="M58.35,219.82l-.35-.24c-.77.62-1.56,1.22-2.36,1.81a.63.63,0,0,0,.76,0C57.06,220.88,57.72,220.35,58.35,219.82Z"/><path class="cls-6" d="M61,220.27a.58.58,0,0,0-.69.14c-.59.58-1.2,1.15-1.82,1.7l.39.24C59.65,221.68,60.36,221,61,220.27Z"/><path class="cls-6" d="M59.31,220.45l-.36-.23c-.47.42-1,.83-1.45,1.23l.38.25C58.36,221.3,58.84,220.87,59.31,220.45Z"/><path class="cls-6" d="M59.8,220.75l-.36-.22c-.47.42-.95.85-1.43,1.26l.39.24Z"/><path class="cls-6" d="M57.33,219.92l-.39.31a32.68,32.68,0,0,1-2.58-2.09l.46-.21C55.63,218.63,56.46,219.3,57.33,219.92Z"/><path class="cls-6" d="M64.73,223.42l-.07.46a11.51,11.51,0,0,1-2.64-.74,19.71,19.71,0,0,1-2.44-1.2l.35-.34a18.46,18.46,0,0,0,2.33,1.12A11.38,11.38,0,0,0,64.73,223.42Z"/><path class="cls-6" d="M54.84,197.26l.4-.67q0,.87-.06,1.74a.49.49,0,0,1-.25-.22.69.69,0,0,1-.09-.36Z"/><path class="cls-6" d="M51.36,194.29a.77.77,0,0,1,.91.27c.08.14.16.3.23.44s-.11.52-.15.78a8.46,8.46,0,0,0-.44-.77A7.61,7.61,0,0,0,51.36,194.29Z"/><path class="cls-6" d="M53.85,197c.13,0,.26,0,.39.06a15.92,15.92,0,0,1,.91-1.67l-.47-.11A15.07,15.07,0,0,0,53.85,197Z"/><path class="cls-6" d="M54.37,197l.39.09a23.13,23.13,0,0,1,1.63-2.49.66.66,0,0,0-.76.25A21.17,21.17,0,0,0,54.37,197Z"/><path class="cls-6" d="M52.46,198c.1,0,.2-.23.21-.51a7.31,7.31,0,0,1,.17-1.22,8.59,8.59,0,0,1,.34-1.2h-.52c-.06.25-.12.49-.16.73a4.82,4.82,0,0,0-.09.74A5.4,5.4,0,0,0,52.46,198Z"/><path class="cls-6" d="M53.34,196.91l.38,0c.11-.29.23-.59.36-.88s.28-.57.43-.85a4,4,0,0,0-.48-.07c-.14.29-.27.58-.38.87S53.43,196.61,53.34,196.91Z"/><path class="cls-6" d="M52.85,196.91h.36a10.88,10.88,0,0,1,.65-1.78l-.5,0a8.06,8.06,0,0,0-.3.91A7.62,7.62,0,0,0,52.85,196.91Z"/><path class="cls-6" d="M60.59,198.65l-.26.4a19.24,19.24,0,0,0-5.07-2.48l.27-.42A20.39,20.39,0,0,1,60.59,198.65Z"/><path class="cls-6" d="M52.34,195.82c0,.16,0,.32-.05.48a2.81,2.81,0,0,0-1.11.46,2.37,2.37,0,0,0-.75.91,3.07,3.07,0,0,0-.27,1.05l-.46-.13A3.67,3.67,0,0,1,50,197.4a2.77,2.77,0,0,1,1-1.08A3.12,3.12,0,0,1,52.34,195.82Z"/><path class="cls-6" d="M65.92,204.8l.7-.36c-.3.5-.6,1-.91,1.49a.52.52,0,0,1-.14-.34.7.7,0,0,1,.1-.38Z"/><path class="cls-6" d="M65.63,200.4a.62.62,0,0,1,.14.74l-.21.44-.68.4C65.14,201.45,65.39,200.93,65.63,200.4Z"/><path class="cls-6" d="M65.21,203.92l.3.3c.55-.3,1.12-.6,1.68-.88l-.31-.33C66.32,203.31,65.76,203.61,65.21,203.92Z"/><path class="cls-6" d="M65.61,204.33l.3.31c.88-.46,1.77-.91,2.67-1.33a.65.65,0,0,0-.75-.13C67.08,203.55,66.35,203.93,65.61,204.33Z"/><path class="cls-6" d="M63.05,203.29a.58.58,0,0,0,.71,0c.7-.43,1.42-.86,2.15-1.27l-.33-.31C64.72,202.24,63.87,202.76,63.05,203.29Z"/><path class="cls-6" d="M64.79,203.51l.31.3c.55-.31,1.11-.61,1.67-.91-.1-.11-.21-.21-.32-.32Z"/><path class="cls-6" d="M64.37,203.11l.32.3c.54-.32,1.09-.63,1.65-.94l-.32-.31Z"/><path class="cls-6" d="M70.57,208.63l-.39.26a33.82,33.82,0,0,0-3.54-4.46l.44-.22A33.73,33.73,0,0,1,70.57,208.63Z"/><path class="cls-6" d="M60.33,199.05l.26-.4A34.42,34.42,0,0,1,64.85,202l-.42.26A32.48,32.48,0,0,0,60.33,199.05Z"/><path class="cls-6" d="M72.21,216.23c.26.07.5.14.74.23a7.91,7.91,0,0,1-.85.13,8.07,8.07,0,0,1-.85,0c0-.06.07-.11.15-.17a1,1,0,0,1,.34-.12Z"/><path class="cls-6" d="M74.45,212.45a.65.65,0,0,1-.23.76l-.4.28c-.26,0-.52,0-.79,0C73.52,213.16,74,212.81,74.45,212.45Z"/><path class="cls-6" d="M72.25,215.25l0,.38a11,11,0,0,1,1.84.45,4.26,4.26,0,0,0,0-.51A12,12,0,0,0,72.25,215.25Z"/><path class="cls-6" d="M72.31,215.76c0,.12,0,.25,0,.37.24.06.47.13.71.21a6.46,6.46,0,0,1,.69.26,7.92,7.92,0,0,1,1.34.73.75.75,0,0,0-.35-.85A10.64,10.64,0,0,0,72.31,215.76Z"/><path class="cls-6" d="M70.8,213.76a.58.58,0,0,0,.59.33,20.7,20.7,0,0,1,2.49,0c0-.16-.08-.31-.12-.46-.5,0-1,0-1.49,0S71.29,213.71,70.8,213.76Z"/><path class="cls-6" d="M72.15,214.72c0,.13,0,.26.08.39a15.27,15.27,0,0,1,1.88.29l-.06-.49A17.46,17.46,0,0,0,72.15,214.72Z"/><path class="cls-6" d="M72,214.2c0,.13.07.26.1.39a17.36,17.36,0,0,1,1.9.15l0-.24,0-.23c-.32,0-.63-.05-1-.06Z"/><path class="cls-6" d="M73.44,216.65a3.79,3.79,0,0,1-.44,1.42,2.69,2.69,0,0,1-1.08,1.06,3.63,3.63,0,0,1-1.35.4c0-.15-.07-.31-.11-.46h0a3.36,3.36,0,0,0,1.26-.38,2.41,2.41,0,0,0,.89-.93,3.47,3.47,0,0,0,.34-1.29Z"/><path class="cls-6" d="M70.18,208.89l.39-.26A22.72,22.72,0,0,1,71.94,211,16.28,16.28,0,0,1,73,213.48l-.49,0a15.53,15.53,0,0,0-1-2.37A23.82,23.82,0,0,0,70.18,208.89Z"/><path class="cls-6" d="M59.23,192.87c.13-.22.27-.44.4-.67q0,.87-.06,1.74a.49.49,0,0,1-.25-.22.69.69,0,0,1-.09-.36Z"/><path class="cls-6" d="M55.75,189.9a.77.77,0,0,1,.91.27c.08.14.16.3.23.44s-.11.52-.15.78a8.46,8.46,0,0,0-.44-.77A7.61,7.61,0,0,0,55.75,189.9Z"/><path class="cls-6" d="M58.24,192.57l.39.06a15.92,15.92,0,0,1,.91-1.67l-.47-.11A15.07,15.07,0,0,0,58.24,192.57Z"/><path class="cls-6" d="M58.76,192.65l.39.09a23.13,23.13,0,0,1,1.63-2.49.66.66,0,0,0-.76.25A21.17,21.17,0,0,0,58.76,192.65Z"/><path class="cls-6" d="M56.85,193.62c.1,0,.19-.23.21-.51a7.45,7.45,0,0,1,.17-1.22,8.59,8.59,0,0,1,.34-1.2,4.61,4.61,0,0,0-.52,0c-.06.24-.12.48-.16.73a6.09,6.09,0,0,0-.1.73A5.84,5.84,0,0,0,56.85,193.62Z"/><path class="cls-6" d="M57.73,192.52l.38,0c.11-.29.23-.59.36-.88s.28-.57.43-.85a4,4,0,0,0-.48-.07c-.14.29-.27.58-.38.87S57.82,192.22,57.73,192.52Z"/><path class="cls-6" d="M57.24,192.52h.36a10.88,10.88,0,0,1,.65-1.78l-.5,0a8.06,8.06,0,0,0-.3.91A7.62,7.62,0,0,0,57.24,192.52Z"/><path class="cls-6" d="M65,194.26l-.26.4a19.24,19.24,0,0,0-5.07-2.48l.27-.42A20.39,20.39,0,0,1,65,194.26Z"/><path class="cls-6" d="M56.73,191.43c0,.16,0,.32,0,.49a2.66,2.66,0,0,0-1.11.45,2.37,2.37,0,0,0-.75.91,3.13,3.13,0,0,0-.27,1.05l-.46-.13a3.67,3.67,0,0,1,.34-1.19,2.77,2.77,0,0,1,1-1.08A3.12,3.12,0,0,1,56.73,191.43Z"/><path class="cls-6" d="M70.31,200.41l.69-.36c-.29.5-.59,1-.9,1.49a.52.52,0,0,1-.14-.34.65.65,0,0,1,.1-.37Z"/><path class="cls-6" d="M70,196a.62.62,0,0,1,.14.74l-.21.44-.68.4C69.53,197.06,69.78,196.54,70,196Z"/><path class="cls-6" d="M69.6,199.53l.3.3c.55-.3,1.12-.6,1.68-.88l-.31-.33C70.71,198.92,70.15,199.22,69.6,199.53Z"/><path class="cls-6" d="M70,199.94l.3.31c.88-.46,1.77-.9,2.67-1.33a.65.65,0,0,0-.75-.13C71.47,199.16,70.74,199.54,70,199.94Z"/><path class="cls-6" d="M67.44,198.9a.58.58,0,0,0,.71,0c.7-.43,1.42-.86,2.15-1.27l-.33-.31C69.11,197.85,68.26,198.37,67.44,198.9Z"/><path class="cls-6" d="M69.18,199.12l.31.3c.55-.31,1.11-.61,1.67-.91l-.32-.32Z"/><path class="cls-6" d="M68.76,198.72l.32.3c.54-.32,1.09-.63,1.65-.94l-.32-.31Z"/><path class="cls-6" d="M75,204.24l-.39.26A33.82,33.82,0,0,0,71,200l.44-.22A33.73,33.73,0,0,1,75,204.24Z"/><path class="cls-6" d="M64.72,194.66l.26-.4a34.42,34.42,0,0,1,4.26,3.34l-.42.26A32.48,32.48,0,0,0,64.72,194.66Z"/><path class="cls-6" d="M76.6,211.84c.26.07.5.14.74.23a7.91,7.91,0,0,1-.85.13,8.07,8.07,0,0,1-.85,0c0-.06.07-.11.15-.17a1,1,0,0,1,.34-.12Z"/><path class="cls-6" d="M78.84,208.06a.65.65,0,0,1-.23.76l-.4.28h-.79C77.9,208.77,78.38,208.42,78.84,208.06Z"/><path class="cls-6" d="M76.64,210.86l0,.38a11,11,0,0,1,1.84.45,4.26,4.26,0,0,0,0-.51A12,12,0,0,0,76.64,210.86Z"/><path class="cls-6" d="M76.7,211.37c0,.12,0,.25,0,.37l.71.21c.23.08.46.16.69.26a7.92,7.92,0,0,1,1.34.73.75.75,0,0,0-.35-.85A11.18,11.18,0,0,0,76.7,211.37Z"/><path class="cls-6" d="M75.19,209.37a.57.57,0,0,0,.59.33,20.7,20.7,0,0,1,2.49,0c0-.16-.08-.31-.12-.46-.5,0-1,0-1.49,0S75.68,209.32,75.19,209.37Z"/><path class="cls-6" d="M76.54,210.33c0,.13,0,.26.08.39a15.27,15.27,0,0,1,1.88.29l-.06-.49A17.46,17.46,0,0,0,76.54,210.33Z"/><path class="cls-6" d="M76.41,209.81c0,.13.07.26.1.39a17.36,17.36,0,0,1,1.9.15l0-.24,0-.23-1-.06Z"/><path class="cls-6" d="M77.83,212.26a3.79,3.79,0,0,1-.44,1.42,2.69,2.69,0,0,1-1.08,1.06,3.63,3.63,0,0,1-1.35.4c0-.15-.07-.31-.11-.46h0a3.36,3.36,0,0,0,1.26-.38,2.41,2.41,0,0,0,.89-.93,3.47,3.47,0,0,0,.34-1.29Z"/><path class="cls-6" d="M74.57,204.5l.39-.26a23.83,23.83,0,0,1,1.37,2.34,16.28,16.28,0,0,1,1.06,2.51l-.49,0a15.53,15.53,0,0,0-1-2.37A23.82,23.82,0,0,0,74.57,204.5Z"/><path class="cls-6" d="M63.62,188.48c.13-.22.27-.44.4-.67q0,.87-.06,1.74a.49.49,0,0,1-.25-.22.69.69,0,0,1-.09-.36Z"/><path class="cls-6" d="M60.14,185.51a.77.77,0,0,1,.91.27c.08.14.16.3.23.44s-.11.52-.15.78a8.46,8.46,0,0,0-.44-.77A7.61,7.61,0,0,0,60.14,185.51Z"/><path class="cls-6" d="M62.63,188.18c.13,0,.26,0,.39.06a15.92,15.92,0,0,1,.91-1.67l-.47-.11A15.07,15.07,0,0,0,62.63,188.18Z"/><path class="cls-6" d="M63.15,188.26l.39.09a23.13,23.13,0,0,1,1.63-2.49.66.66,0,0,0-.76.25A21.17,21.17,0,0,0,63.15,188.26Z"/><path class="cls-6" d="M61.24,189.23c.1,0,.19-.23.21-.51a7.45,7.45,0,0,1,.17-1.22,9,9,0,0,1,.34-1.2,4.61,4.61,0,0,0-.52,0c-.06.24-.12.48-.16.73a6.09,6.09,0,0,0-.1.73A5.84,5.84,0,0,0,61.24,189.23Z"/><path class="cls-6" d="M62.12,188.13l.38,0c.11-.29.23-.59.36-.88s.28-.57.43-.85a4,4,0,0,0-.48-.07c-.14.29-.27.58-.38.87S62.21,187.83,62.12,188.13Z"/><path class="cls-6" d="M61.63,188.13H62a10.88,10.88,0,0,1,.65-1.78l-.51,0c-.11.3-.21.61-.3.91S61.68,187.82,61.63,188.13Z"/><path class="cls-6" d="M69.37,189.87l-.26.4A19.24,19.24,0,0,0,64,187.79l.26-.42A20.29,20.29,0,0,1,69.37,189.87Z"/><path class="cls-6" d="M61.12,187c0,.16,0,.32,0,.49A2.66,2.66,0,0,0,60,188a2.37,2.37,0,0,0-.75.91,3.13,3.13,0,0,0-.27,1.05l-.46-.13a3.67,3.67,0,0,1,.34-1.19,2.77,2.77,0,0,1,1-1.08A3.26,3.26,0,0,1,61.12,187Z"/><path class="cls-6" d="M74.7,196l.69-.36c-.29.5-.59,1-.9,1.49a.52.52,0,0,1-.14-.34.65.65,0,0,1,.1-.37Z"/><path class="cls-6" d="M74.41,191.62a.62.62,0,0,1,.14.74l-.21.44-.68.4C73.92,192.67,74.17,192.15,74.41,191.62Z"/><path class="cls-6" d="M74,195.14l.3.3c.55-.3,1.12-.6,1.68-.88l-.31-.33C75.1,194.53,74.54,194.83,74,195.14Z"/><path class="cls-6" d="M74.39,195.55l.3.31c.87-.46,1.77-.9,2.67-1.33a.65.65,0,0,0-.75-.13C75.86,194.77,75.13,195.15,74.39,195.55Z"/><path class="cls-6" d="M71.82,194.51a.6.6,0,0,0,.72,0c.7-.43,1.42-.86,2.15-1.27l-.33-.31C73.5,193.46,72.65,194,71.82,194.51Z"/><path class="cls-6" d="M73.57,194.73l.31.3c.55-.31,1.11-.61,1.67-.91l-.32-.32Z"/><path class="cls-6" d="M73.15,194.33l.32.3c.54-.32,1.09-.63,1.65-.94l-.32-.31Z"/><path class="cls-6" d="M79.35,199.85l-.39.26a34.49,34.49,0,0,0-3.54-4.46l.44-.22A33.73,33.73,0,0,1,79.35,199.85Z"/><path class="cls-6" d="M69.11,190.27l.26-.4a34.42,34.42,0,0,1,4.26,3.34l-.42.26A32.48,32.48,0,0,0,69.11,190.27Z"/><path class="cls-6" d="M81,207.45c.26.07.5.14.74.23a8.32,8.32,0,0,1-.85.13,8.07,8.07,0,0,1-.85,0c0-.06.07-.11.15-.17a1,1,0,0,1,.34-.12Z"/><path class="cls-6" d="M83.23,203.67a.65.65,0,0,1-.23.76l-.4.28c-.26,0-.52,0-.79,0C82.29,204.38,82.77,204,83.23,203.67Z"/><path class="cls-6" d="M81,206.47l0,.38a11,11,0,0,1,1.84.45,4.26,4.26,0,0,0,0-.51A12,12,0,0,0,81,206.47Z"/><path class="cls-6" d="M81.09,207c0,.13,0,.25,0,.37l.71.21c.23.08.46.16.69.26a7.33,7.33,0,0,1,1.34.74.76.76,0,0,0-.35-.86A11.18,11.18,0,0,0,81.09,207Z"/><path class="cls-6" d="M79.58,205a.57.57,0,0,0,.59.33,20.7,20.7,0,0,1,2.49,0c0-.16-.08-.31-.12-.46-.5,0-1,0-1.49,0S80.07,204.93,79.58,205Z"/><path class="cls-6" d="M80.93,205.94c0,.13,0,.26.08.39a15.27,15.27,0,0,1,1.88.29l-.06-.49A17.46,17.46,0,0,0,80.93,205.94Z"/><path class="cls-6" d="M80.8,205.42c0,.13.07.26.1.39a17.36,17.36,0,0,1,1.9.15l0-.24,0-.23-1-.06Z"/><path class="cls-6" d="M82.22,207.87a3.89,3.89,0,0,1-.44,1.43,2.73,2.73,0,0,1-1.08,1,3.62,3.62,0,0,1-1.36.4c0-.15-.06-.31-.1-.46h0a3.36,3.36,0,0,0,1.26-.38,2.41,2.41,0,0,0,.89-.93,3.47,3.47,0,0,0,.34-1.29Z"/><path class="cls-6" d="M79,200.11l.39-.26a23.83,23.83,0,0,1,1.37,2.34,16.28,16.28,0,0,1,1.06,2.51l-.49,0a15.53,15.53,0,0,0-1-2.37A23.82,23.82,0,0,0,79,200.11Z"/><path class="cls-6" d="M68,184.09l.4-.67q0,.87-.06,1.74a.49.49,0,0,1-.25-.22.6.6,0,0,1-.09-.36Z"/><path class="cls-6" d="M64.53,181.12a.77.77,0,0,1,.91.27c.08.14.16.3.23.44a7.14,7.14,0,0,0-.15.78,8.46,8.46,0,0,0-.44-.77A7.61,7.61,0,0,0,64.53,181.12Z"/><path class="cls-6" d="M67,183.79l.39.06a15.92,15.92,0,0,1,.91-1.67l-.47-.11A15.07,15.07,0,0,0,67,183.79Z"/><path class="cls-6" d="M67.54,183.87l.39.09a23.13,23.13,0,0,1,1.63-2.49.66.66,0,0,0-.76.25A21.17,21.17,0,0,0,67.54,183.87Z"/><path class="cls-6" d="M65.63,184.84c.1,0,.19-.23.21-.51a7.45,7.45,0,0,1,.17-1.22,9,9,0,0,1,.34-1.2,4.61,4.61,0,0,0-.52,0c-.06.24-.12.48-.16.73a6.09,6.09,0,0,0-.1.73A5.84,5.84,0,0,0,65.63,184.84Z"/><path class="cls-6" d="M66.51,183.74l.38,0c.11-.29.23-.58.36-.88s.28-.57.43-.85a4,4,0,0,0-.48-.07c-.14.29-.27.58-.38.87S66.6,183.44,66.51,183.74Z"/><path class="cls-6" d="M66,183.74h.36A10.88,10.88,0,0,1,67,182l-.51,0c-.11.3-.21.61-.3.91S66.07,183.43,66,183.74Z"/><path class="cls-6" d="M73.76,185.48l-.26.4a19.24,19.24,0,0,0-5.07-2.48l.26-.41A19.92,19.92,0,0,1,73.76,185.48Z"/><path class="cls-6" d="M65.51,182.65c0,.16,0,.32-.05.49a2.66,2.66,0,0,0-1.11.45,2.37,2.37,0,0,0-.75.91,3.13,3.13,0,0,0-.27,1.05l-.46-.13a3.67,3.67,0,0,1,.34-1.19,2.77,2.77,0,0,1,1-1.08A3.26,3.26,0,0,1,65.51,182.65Z"/><path class="cls-6" d="M79.09,191.63l.69-.36c-.29.5-.59,1-.9,1.49a.52.52,0,0,1-.14-.34.65.65,0,0,1,.1-.37Z"/><path class="cls-6" d="M78.8,187.23a.62.62,0,0,1,.14.74l-.21.44-.68.4C78.31,188.29,78.56,187.76,78.8,187.23Z"/><path class="cls-6" d="M78.38,190.75l.3.3c.55-.3,1.12-.6,1.68-.88l-.31-.33C79.49,190.14,78.93,190.44,78.38,190.75Z"/><path class="cls-6" d="M78.78,191.16l.3.31c.87-.46,1.77-.9,2.67-1.33A.65.65,0,0,0,81,190C80.25,190.38,79.52,190.76,78.78,191.16Z"/><path class="cls-6" d="M76.21,190.12a.6.6,0,0,0,.72,0c.7-.43,1.42-.86,2.15-1.27l-.33-.31C77.89,189.07,77,189.59,76.21,190.12Z"/><path class="cls-6" d="M78,190.34l.31.3c.55-.31,1.11-.61,1.67-.91l-.32-.32Z"/><path class="cls-6" d="M77.54,189.94l.32.3c.54-.32,1.09-.63,1.65-.94l-.32-.31Z"/><path class="cls-6" d="M83.74,195.46l-.39.26a34.49,34.49,0,0,0-3.54-4.46l.44-.22A33.73,33.73,0,0,1,83.74,195.46Z"/><path class="cls-6" d="M73.5,185.88l.26-.4A34.42,34.42,0,0,1,78,188.82l-.42.26A32.48,32.48,0,0,0,73.5,185.88Z"/><path class="cls-6" d="M85.38,203.06c.26.07.5.15.74.23a8.32,8.32,0,0,1-.85.13,8.07,8.07,0,0,1-.85,0c0-.06.07-.11.15-.17a.76.76,0,0,1,.34-.11C85.07,203.12,85.23,203.1,85.38,203.06Z"/><path class="cls-6" d="M87.62,199.28a.66.66,0,0,1-.23.76l-.4.28H86.2C86.68,200,87.16,199.64,87.62,199.28Z"/><path class="cls-6" d="M85.42,202.08l0,.38a11,11,0,0,1,1.84.45,4.26,4.26,0,0,0,0-.51A12.19,12.19,0,0,0,85.42,202.08Z"/><path class="cls-6" d="M85.48,202.59c0,.13,0,.25,0,.37l.71.21c.23.08.46.16.69.26a7.33,7.33,0,0,1,1.34.74.76.76,0,0,0-.35-.86A11.18,11.18,0,0,0,85.48,202.59Z"/><path class="cls-6" d="M84,200.59a.57.57,0,0,0,.59.33,20.7,20.7,0,0,1,2.49,0c0-.16-.08-.31-.12-.46-.5,0-1,0-1.49,0S84.46,200.54,84,200.59Z"/><path class="cls-6" d="M85.32,201.55c0,.13.05.26.08.39a15.27,15.27,0,0,1,1.88.29l-.06-.49A17.46,17.46,0,0,0,85.32,201.55Z"/><path class="cls-6" d="M85.19,201c0,.13.07.26.1.39a17.36,17.36,0,0,1,1.9.15l0-.24,0-.23-1-.06Z"/><path class="cls-6" d="M86.61,203.48a3.89,3.89,0,0,1-.44,1.43A2.73,2.73,0,0,1,85.09,206a3.83,3.83,0,0,1-1.36.41c0-.16-.06-.32-.1-.47h0a3.36,3.36,0,0,0,1.26-.38,2.41,2.41,0,0,0,.89-.93,3.47,3.47,0,0,0,.34-1.29Z"/><path class="cls-6" d="M83.35,195.72l.39-.26a25.06,25.06,0,0,1,1.37,2.34,16.28,16.28,0,0,1,1.06,2.51l-.49,0a16,16,0,0,0-1-2.37A23.82,23.82,0,0,0,83.35,195.72Z"/><path class="cls-6" d="M72.4,179.7l.4-.67q0,.87-.06,1.74a.45.45,0,0,1-.25-.22.6.6,0,0,1-.09-.36Z"/><path class="cls-6" d="M68.92,176.73a.77.77,0,0,1,.91.27c.08.14.16.3.23.44a7.14,7.14,0,0,0-.15.78,8.46,8.46,0,0,0-.44-.77A7.61,7.61,0,0,0,68.92,176.73Z"/><path class="cls-6" d="M71.41,179.4c.13,0,.26,0,.39.06a15.92,15.92,0,0,1,.91-1.67l-.47-.11A15.07,15.07,0,0,0,71.41,179.4Z"/><path class="cls-6" d="M71.93,179.48l.39.09A23.13,23.13,0,0,1,74,177.08a.66.66,0,0,0-.76.25A21.17,21.17,0,0,0,71.93,179.48Z"/><path class="cls-6" d="M70,180.45c.1,0,.19-.23.21-.51a7.45,7.45,0,0,1,.17-1.22,9,9,0,0,1,.34-1.2,4.61,4.61,0,0,0-.52,0,5.93,5.93,0,0,0-.16.73,6.09,6.09,0,0,0-.1.73A5.84,5.84,0,0,0,70,180.45Z"/><path class="cls-6" d="M70.9,179.35l.38,0q.16-.44.36-.87c.14-.29.28-.58.43-.86a3.85,3.85,0,0,0-.49-.07c-.13.29-.26.58-.37.87S71,179.05,70.9,179.35Z"/><path class="cls-6" d="M70.41,179.35h.36a10.88,10.88,0,0,1,.65-1.78l-.51,0c-.11.3-.21.61-.3.91S70.46,179,70.41,179.35Z"/><path class="cls-6" d="M78.15,181.09l-.26.4A19.24,19.24,0,0,0,72.82,179l.26-.41A19.92,19.92,0,0,1,78.15,181.09Z"/><path class="cls-6" d="M69.9,178.26a3.87,3.87,0,0,0-.05.49,2.66,2.66,0,0,0-1.11.45,2.45,2.45,0,0,0-.75.91,3.13,3.13,0,0,0-.27,1l-.46-.13a3.44,3.44,0,0,1,.34-1.19,2.77,2.77,0,0,1,1-1.08A3.26,3.26,0,0,1,69.9,178.26Z"/><path class="cls-6" d="M83.48,187.24l.69-.36c-.29.5-.59,1-.9,1.49a.52.52,0,0,1-.14-.34.65.65,0,0,1,.1-.37Z"/><path class="cls-6" d="M83.19,182.84a.62.62,0,0,1,.14.74l-.21.44-.68.4C82.7,183.9,83,183.37,83.19,182.84Z"/><path class="cls-6" d="M82.76,186.36l.31.3c.55-.3,1.12-.6,1.68-.88l-.31-.33Z"/><path class="cls-6" d="M83.17,186.77l.3.31c.87-.46,1.77-.9,2.67-1.33a.65.65,0,0,0-.75-.13C84.64,186,83.91,186.37,83.17,186.77Z"/><path class="cls-6" d="M80.6,185.73a.6.6,0,0,0,.72,0c.7-.43,1.42-.86,2.15-1.27l-.33-.31C82.28,184.68,81.43,185.2,80.6,185.73Z"/><path class="cls-6" d="M82.35,186l.31.3c.55-.31,1.11-.61,1.67-.91L84,185Z"/><path class="cls-6" d="M81.93,185.55l.32.3c.54-.32,1.09-.63,1.65-.94l-.32-.31Z"/><path class="cls-6" d="M88.13,191.07l-.39.26a34.49,34.49,0,0,0-3.54-4.46l.44-.22A34.6,34.6,0,0,1,88.13,191.07Z"/><path class="cls-6" d="M77.89,181.49l.26-.4a34.42,34.42,0,0,1,4.26,3.34l-.42.26A32.48,32.48,0,0,0,77.89,181.49Z"/><path class="cls-6" d="M89.77,198.67l.74.23a8.32,8.32,0,0,1-.85.13,6,6,0,0,1-.85,0c0-.06.07-.11.15-.17a.91.91,0,0,1,.34-.11C89.46,198.73,89.62,198.71,89.77,198.67Z"/><path class="cls-6" d="M92,194.89a.66.66,0,0,1-.23.76l-.4.28c-.26,0-.52,0-.79,0C91.07,195.6,91.55,195.25,92,194.89Z"/><path class="cls-6" d="M89.81,197.69l0,.38a11,11,0,0,1,1.84.45,4.26,4.26,0,0,0,0-.51A13.54,13.54,0,0,0,89.81,197.69Z"/><path class="cls-6" d="M89.87,198.2c0,.13,0,.25,0,.37l.71.21c.23.08.46.16.69.26a7.33,7.33,0,0,1,1.34.74.76.76,0,0,0-.35-.86A11.18,11.18,0,0,0,89.87,198.2Z"/><path class="cls-6" d="M88.36,196.2a.57.57,0,0,0,.59.33,20.7,20.7,0,0,1,2.49,0c0-.16-.08-.31-.12-.46-.5,0-1,0-1.49,0S88.85,196.15,88.36,196.2Z"/><path class="cls-6" d="M89.71,197.16c0,.13.05.26.08.39a15.27,15.27,0,0,1,1.88.29l-.06-.49A17.46,17.46,0,0,0,89.71,197.16Z"/><path class="cls-6" d="M89.58,196.64c0,.13.07.26.1.39a17.56,17.56,0,0,1,1.9.15l0-.24,0-.23-1-.06Z"/><path class="cls-6" d="M91,199.09a3.89,3.89,0,0,1-.44,1.43,2.73,2.73,0,0,1-1.08,1,3.83,3.83,0,0,1-1.36.41c0-.16-.06-.32-.1-.47h0a3.36,3.36,0,0,0,1.26-.38,2.41,2.41,0,0,0,.89-.93,3.47,3.47,0,0,0,.34-1.29Z"/><path class="cls-6" d="M87.74,191.33l.39-.26a25.06,25.06,0,0,1,1.37,2.34,16.7,16.7,0,0,1,1.06,2.51l-.49,0a16.44,16.44,0,0,0-1-2.37A23.82,23.82,0,0,0,87.74,191.33Z"/><path class="cls-6" d="M76.79,175.31l.4-.67q0,.87-.06,1.74a.42.42,0,0,1-.25-.22.6.6,0,0,1-.09-.36Z"/><path class="cls-6" d="M73.31,172.34a.77.77,0,0,1,.91.27c.08.14.16.3.23.45a6.55,6.55,0,0,0-.15.77,8.46,8.46,0,0,0-.44-.77A7.61,7.61,0,0,0,73.31,172.34Z"/><path class="cls-6" d="M75.8,175l.39.06a15.92,15.92,0,0,1,.91-1.67l-.47-.11A13.56,13.56,0,0,0,75.8,175Z"/><path class="cls-6" d="M76.32,175.09l.39.09a23.13,23.13,0,0,1,1.63-2.49.66.66,0,0,0-.76.25A19.46,19.46,0,0,0,76.32,175.09Z"/><path class="cls-6" d="M74.41,176.06c.1,0,.19-.23.21-.51a7.45,7.45,0,0,1,.17-1.22,9,9,0,0,1,.34-1.2,4.61,4.61,0,0,0-.52,0,5.93,5.93,0,0,0-.16.73,6.09,6.09,0,0,0-.1.73A5.84,5.84,0,0,0,74.41,176.06Z"/><path class="cls-6" d="M75.29,175l.38,0q.17-.44.36-.87l.43-.86-.49-.07c-.13.29-.26.58-.37.87S75.38,174.66,75.29,175Z"/><path class="cls-6" d="M74.8,175h.36a10.88,10.88,0,0,1,.65-1.78l-.51,0c-.11.3-.21.61-.3.91S74.85,174.65,74.8,175Z"/><path class="cls-6" d="M82.54,176.7l-.26.4a19.24,19.24,0,0,0-5.07-2.48l.26-.41A19.92,19.92,0,0,1,82.54,176.7Z"/><path class="cls-6" d="M74.29,173.87a3.87,3.87,0,0,0-.05.49,2.66,2.66,0,0,0-1.11.45,2.45,2.45,0,0,0-.75.91,3.19,3.19,0,0,0-.27,1.05l-.46-.13a3.44,3.44,0,0,1,.34-1.19,2.77,2.77,0,0,1,1-1.08A3.26,3.26,0,0,1,74.29,173.87Z"/><path class="cls-6" d="M87.87,182.85l.69-.36c-.29.5-.59,1-.9,1.49a.52.52,0,0,1-.14-.34.65.65,0,0,1,.1-.37Z"/><path class="cls-6" d="M87.58,178.45a.62.62,0,0,1,.14.74l-.21.44-.68.4C87.09,179.51,87.34,179,87.58,178.45Z"/><path class="cls-6" d="M87.15,182l.31.3c.55-.3,1.12-.6,1.68-.88l-.31-.33Z"/><path class="cls-6" d="M87.56,182.38l.3.31c.87-.46,1.77-.9,2.67-1.32a.64.64,0,0,0-.75-.14C89,181.6,88.29,182,87.56,182.38Z"/><path class="cls-6" d="M85,181.34a.6.6,0,0,0,.72,0c.7-.43,1.42-.86,2.15-1.27l-.33-.31C86.67,180.29,85.82,180.81,85,181.34Z"/><path class="cls-6" d="M86.74,181.56l.31.3c.55-.31,1.11-.61,1.67-.91-.11-.1-.21-.21-.32-.32Z"/><path class="cls-6" d="M86.32,181.16l.32.3c.54-.32,1.09-.63,1.65-.94l-.32-.31Z"/><path class="cls-6" d="M92.52,186.68l-.39.26a34.49,34.49,0,0,0-3.54-4.46l.44-.22A34.6,34.6,0,0,1,92.52,186.68Z"/><path class="cls-6" d="M82.28,177.1l.26-.4A34.42,34.42,0,0,1,86.8,180l-.42.26A32.48,32.48,0,0,0,82.28,177.1Z"/><path class="cls-6" d="M94.16,194.28l.74.23a8.32,8.32,0,0,1-.85.13,6,6,0,0,1-.85,0c0-.06.07-.11.15-.17a.91.91,0,0,1,.34-.11C93.85,194.34,94,194.32,94.16,194.28Z"/><path class="cls-6" d="M96.4,190.5a.67.67,0,0,1-.23.76l-.4.28H95C95.46,191.21,95.94,190.86,96.4,190.5Z"/><path class="cls-6" d="M94.2,193.3l0,.38a11,11,0,0,1,1.84.45,4.35,4.35,0,0,0,0-.51A13.54,13.54,0,0,0,94.2,193.3Z"/><path class="cls-6" d="M94.25,193.81c0,.13,0,.25,0,.37l.71.21c.23.08.46.16.69.26a7.33,7.33,0,0,1,1.34.74.76.76,0,0,0-.35-.86A11.1,11.1,0,0,0,94.25,193.81Z"/><path class="cls-6" d="M92.75,191.81a.57.57,0,0,0,.59.33,20.7,20.7,0,0,1,2.49,0c0-.16-.08-.31-.12-.46-.5,0-1,0-1.49,0S93.24,191.76,92.75,191.81Z"/><path class="cls-6" d="M94.1,192.77c0,.14.05.26.08.39a15.27,15.27,0,0,1,1.88.29L96,193A17.46,17.46,0,0,0,94.1,192.77Z"/><path class="cls-6" d="M94,192.25c0,.13.07.26.1.39.63,0,1.26.07,1.9.15l0-.24,0-.23-1-.06Z"/><path class="cls-6" d="M95.39,194.7a3.89,3.89,0,0,1-.44,1.43,2.73,2.73,0,0,1-1.08,1.05,3.64,3.64,0,0,1-1.36.41c0-.16-.06-.32-.1-.47h0a3.42,3.42,0,0,0,1.26-.38,2.32,2.32,0,0,0,.88-.93,3.3,3.3,0,0,0,.35-1.29Z"/><path class="cls-6" d="M92.13,186.94l.39-.26A25.06,25.06,0,0,1,93.89,189,16.39,16.39,0,0,1,95,191.54h-.49a16.44,16.44,0,0,0-1-2.37C93,188.41,92.6,187.66,92.13,186.94Z"/><path class="cls-6" d="M77.3,157.72c-15.95-4.87-21.62-7.31-5.51-6.3,8.94.56,12.36-4.86-10.33-15.2-17.28-7.87-22.28,1.17-20.29,18.05,2,16.65,21.2,4.41,11.18-.7h0c-.17-.1-5.21-2.21-5.74-6.7-.85-7.26,4-2.36,6.17-4.39,3.62-3.4-.24-7,4.74-4.94,12.5,5.3,13.88,9.26-2.93,7.93C43,144.55,52.65,156.17,71,160.05l1.12.25c-12.25-.08-28,2.6-28.8,7h0c-.72,2.51,4.27,5,12.12,4.18C77.25,169.15,92.62,162.4,77.3,157.72Z"/><path class="cls-6" d="M108,193a24,24,0,0,0-7.71,6.71,44.79,44.79,0,0,0-5.72,9.72,44,44,0,0,0-3.12,10.05c-.42,2.46-.71,5.34.1,7.74a3.61,3.61,0,0,0,3.89,2.75c3.92-.39,5.94-4.29,7.31-9.4.87,2.48,4.49,5.13,11.51,7.52,14.24,4.84,23.86.23,20.88-7.3s-32.29,3.71-8.94-4.9l.3-.12h0c5.76-2.16,6.59-5.49,4.47-7.55-1.81-1.74-4.19-1.74-6.36-1.94a1.39,1.39,0,0,1-.66-.18.32.32,0,0,1-.12-.14c-.06-.16.07-.32.18-.42,1.33-1.21,3.48-2.11,3.86-4.34s-1.79-4-3.06-5.08a20.42,20.42,0,0,0-6.55-3.87,13.74,13.74,0,0,0-3.42-.68A13.13,13.13,0,0,0,108,193Zm.32,20.88a16,16,0,0,0-2.81,1.39,10.07,10.07,0,0,0-1.07.78c-.26.21-.68.78-.76.27a6,6,0,0,1,.28-1.43l.54-2.85c.4-2.11.8-4.23,1.27-6.33.79-3.58,1.87-7.64,4.35-10,2.75-2.67,7.58-2.1,10.34.26a4.62,4.62,0,0,1,1.83,3.82c-.2,2-2,3.33-3.31,4.11a23.88,23.88,0,0,0-3.91,2.66c-.78.68-2.69,2.32-1.64,3.69a4,4,0,0,0,2.57,1,8,8,0,0,0,2.88.09c-.84.22-1.7.4-2.55.57A45.07,45.07,0,0,0,108.28,213.83Z"/></g></g></svg>