<svg xmlns="http://www.w3.org/2000/svg" viewBox="0 0 263.45 260.34"><defs><style>.cls-1{fill:#491d7f;}.cls-2{fill:#f46188;}.cls-3{fill:#642ab6;}.cls-4{font-size:12px;font-family:MS-UIGothic, MS UI Gothic;}.cls-4,.cls-5{fill:#fff;}.cls-6{fill:none;stroke:#fff;stroke-miterlimit:10;stroke-width:2.38px;}</style></defs><g id="Layer_2" data-name="Layer 2"><g id="Layer_2-2" data-name="Layer 2"><polygon class="cls-1" points="195.05 260.34 260.35 260.34 260.35 195.04 195.05 260.34"/><polygon class="cls-1" points="166.75 18.27 166.75 20.11 210.05 20.11 218 11.67 260.35 11.67 260.35 3.6 3.61 3.6 3.61 260.34 17.7 260.34 17.7 243.24 9.26 235.5 9.26 207.77 19.15 207.77 19.15 170.71 16.53 170.71 16.53 143.52 9.26 143.52 9.26 138.99 11.2 138.99 11.2 101.92 11.88 101.92 11.88 138.99 13.72 138.99 13.72 101.92 14.4 101.92 14.4 138.99 16.24 138.99 16.24 101.92 16.92 101.92 16.92 138.99 18.76 138.99 18.76 101.92 19.44 101.92 19.44 138.99 21.29 138.99 21.29 101.92 21.96 101.92 21.96 138.99 23.81 138.99 23.81 96.86 15.37 89.13 15.37 29.4 13.82 29.4 13.82 23.54 20.22 23.54 20.22 29.4 18.52 29.4 18.52 77.41 27.23 85.39 27.23 144.59 21.77 144.59 21.77 163.78 27.23 163.78 27.23 168.22 23.37 168.22 23.37 170.36 27.23 170.36 27.23 172.49 23.37 172.49 23.37 174.62 27.23 174.62 27.23 176.76 23.37 176.76 23.37 178.89 27.23 178.89 27.23 181.02 23.37 181.02 23.37 183.16 27.23 183.16 27.23 185.29 23.37 185.29 23.37 187.42 27.23 187.42 27.23 189.56 23.37 189.56 23.37 191.69 27.23 191.69 27.23 193.82 23.37 193.82 23.37 195.95 27.23 195.95 27.23 198.09 23.37 198.09 23.37 200.22 27.23 200.22 27.23 202.35 23.37 202.35 23.37 204.49 27.23 204.49 27.23 206.62 23.37 206.62 23.37 208.75 27.23 208.75 27.23 210.88 23.37 210.88 23.37 213.02 27.23 213.02 27.23 215.15 23.37 215.15 23.37 217.28 27.23 217.28 27.23 219.98 20.02 226.58 20.02 260.34 182.7 260.34 260.35 182.69 260.35 14.82 230.05 14.82 221.84 23.54 160.99 23.54 160.99 18.07 141.26 18.07 141.26 23.54 136.69 23.54 136.69 19.68 134.5 19.68 134.5 23.54 132.3 23.54 132.3 19.68 130.11 19.68 130.11 23.54 127.92 23.54 127.92 19.68 125.72 19.68 125.72 23.54 123.53 23.54 123.53 19.68 121.34 19.68 121.34 23.54 119.15 23.54 119.15 19.68 116.95 19.68 116.95 23.54 114.76 23.54 114.76 19.68 112.57 19.68 112.57 23.54 110.38 23.54 110.38 19.68 108.18 19.68 108.18 23.54 105.99 23.54 105.99 19.68 103.8 19.68 103.8 23.54 101.6 23.54 101.6 19.68 99.41 19.68 99.41 23.54 97.22 23.54 97.22 19.68 95.03 19.68 95.03 23.54 92.83 23.54 92.83 19.68 90.64 19.68 90.64 23.54 88.45 23.54 88.45 19.68 86.25 19.68 86.25 23.54 83.48 23.54 76.69 16.33 33.26 16.33 33.26 18.37 27.23 18.37 27.23 11.96 33.26 11.96 33.26 14 59.58 14 67.53 5.56 96.03 5.56 96.03 15.46 134.13 15.46 134.13 12.84 162.09 12.84 162.09 5.56 166.75 5.56 166.75 7.5 204.85 7.5 204.85 8.18 166.75 8.18 166.75 10.02 204.85 10.02 204.85 10.7 166.75 10.7 166.75 12.55 204.85 12.55 204.85 13.22 166.75 13.22 166.75 15.07 204.85 15.07 204.85 15.75 166.75 15.75 166.75 17.59 204.85 17.59 204.85 18.27 166.75 18.27"/><polygon class="cls-2" points="257.66 257.2 257.66 231.31 252.98 236 252.98 252.51 236.46 252.51 231.78 257.2 257.66 257.2"/><polygon class="cls-3" points="247.03 246.28 247.03 220.4 242.35 225.08 242.35 241.6 225.83 241.6 221.15 246.28 247.03 246.28"/><rect class="cls-2" x="257.66" y="26.77" width="5.79" height="81.09"/><rect class="cls-2" y="32.01" width="6.98" height="66.35"/><rect class="cls-2" y="110" width="6.98" height="6.69"/><path class="cls-3" d="M251.18,116.69v60.82h-4.66v-8.73h-3.88v8.73H238v-8.73h-3.88v8.73h-4.66v-8.73h-3.88v8.73h-4.66v-8.73H217v8.73h-4.65v-8.73h-16l-49.54,49.53v28H43.45v3.59s135.61,1,136.58,0,74.69-73,74.69-74.69V116.69Z"/><path class="cls-2" d="M239.2,39.37v77.9H207.77v85.51l-.18.17L203,207.32c-2.76,2.66-6.5,6.26-10.37,10-7.73,7.53-16,15.77-18.21,18.44a5.8,5.8,0,0,0-.46.63h0l-.11.3-.19.14-.25.1a5.05,5.05,0,0,1-.57.1q-.69.09-1.95.15c-1.66.09-4.07.16-7.09.22-6,.1-14.45.15-24.08.15-31.61,0-76.18-.47-91.15-.63a2.57,2.57,0,0,1-2.52,2,2.63,2.63,0,1,1,0-5.25,2.6,2.6,0,0,1,2.5,2.08c15,.17,59.53.63,91.13.63,16.06,0,28.8-.12,32.5-.45a6,6,0,0,0,.75-.1l.05-.09.32-.45c.26-.34.63-.78,1.1-1.3.93-1,2.25-2.43,3.84-4.05,3.17-3.24,7.39-7.42,11.61-11.54,7.76-7.58,15.5-15,16.7-16.13V116.11H238V40.53H44L19.16,15.71h-8.1V5.13A2.59,2.59,0,0,1,9,2.63a2.63,2.63,0,1,1,5.26,0,2.59,2.59,0,0,1-2,2.5v9.42h7.42L44.46,39.37Z"/><path class="cls-2" d="M78.78,221.56h6.15l-11,11H67.77Zm24.7,0H97.33l-11,11h6.15Zm-9.27,0H88.06l-11,11h6.14Zm46.37,0h-6.15l-11,11h6.15Zm-27.82,0h-6.15l-11,11h6.15Zm18.55,0h-6.15l-11,11h6.15Zm-9.28,0h-6.15l-11,11H111Z"/><text class="cls-4" transform="translate(94.78 201.7)">ベクター<tspan x="6.09" y="14.4">背景</tspan></text><path class="cls-5" d="M120.85,133.66h-2.46a2.53,2.53,0,0,0-2.41-1.83h-2.22a2.52,2.52,0,0,0-2.41,1.83h-.18a2.52,2.52,0,0,0-2.41-1.83h-2.21a2.53,2.53,0,0,0-2.42,1.83h-.19a2.52,2.52,0,0,0-2.41-1.83H99.32a2.52,2.52,0,0,0-2.41,1.83h-.2a2.52,2.52,0,0,0-2.41-1.83H92.09a2.52,2.52,0,0,0-2.41,1.83h-.19a2.53,2.53,0,0,0-2.41-1.83H84.86a2.52,2.52,0,0,0-2.41,1.83h-.18a2.52,2.52,0,0,0-2.41-1.83H77.64a2.52,2.52,0,0,0-2.41,1.83H72.87a.63.63,0,0,0-.62.63v.1a.62.62,0,0,0,.62.62h2.36a2.52,2.52,0,0,0,2.41,1.83h2.22A2.52,2.52,0,0,0,82.27,135h.18a2.52,2.52,0,0,0,2.41,1.83h2.22A2.53,2.53,0,0,0,89.49,135h.19a2.52,2.52,0,0,0,2.41,1.83H94.3A2.52,2.52,0,0,0,96.71,135h.2a2.52,2.52,0,0,0,2.41,1.83h2.21a2.52,2.52,0,0,0,2.41-1.83h.19a2.53,2.53,0,0,0,2.42,1.83h2.21a2.52,2.52,0,0,0,2.41-1.83h.18a2.52,2.52,0,0,0,2.41,1.83H116a2.53,2.53,0,0,0,2.41-1.83h2.46a.63.63,0,0,0,.63-.62v-.1A.63.63,0,0,0,120.85,133.66Zm-7.09-1.48H116a2.17,2.17,0,0,1,2,1.48h-.7a1.52,1.52,0,0,0-1.34-.83h-2.22a1.51,1.51,0,0,0-1.34.83h-.7A2.15,2.15,0,0,1,113.76,132.18Zm2.45,2.83h.7a1.14,1.14,0,0,1-.93.48h-2.22a1.14,1.14,0,0,1-.93-.48h.8a.62.62,0,0,0,.62-.62v-.1a.63.63,0,0,0-.62-.63h-.8a1.16,1.16,0,0,1,.93-.48H116a1.16,1.16,0,0,1,.93.48h-.7a.63.63,0,0,0-.63.63v.1A.63.63,0,0,0,116.21,135Zm-9.66-2.83h2.21a2.16,2.16,0,0,1,2,1.48h-.7a1.5,1.5,0,0,0-1.34-.83h-2.21a1.52,1.52,0,0,0-1.35.83h-.7A2.18,2.18,0,0,1,106.55,132.18ZM109,135h.7a1.12,1.12,0,0,1-.93.48h-2.21a1.16,1.16,0,0,1-.94-.48h.8a.63.63,0,0,0,.63-.62v-.1a.63.63,0,0,0-.63-.63h-.8a1.18,1.18,0,0,1,.94-.48h2.21a1.15,1.15,0,0,1,.93.48H109a.63.63,0,0,0-.62.63v.1A.62.62,0,0,0,109,135Zm-9.67-2.83h2.21a2.18,2.18,0,0,1,2,1.48h-.7a1.52,1.52,0,0,0-1.35-.83H99.32a1.51,1.51,0,0,0-1.34.83h-.71A2.18,2.18,0,0,1,99.32,132.18Zm2.44,2.83h.71a1.16,1.16,0,0,1-.94.48H99.32a1.12,1.12,0,0,1-.93-.48h.79a.62.62,0,0,0,.62-.62v-.1a.62.62,0,0,0-.62-.63h-.79a1.15,1.15,0,0,1,.93-.48h2.21a1.18,1.18,0,0,1,.94.48h-.71a.63.63,0,0,0-.62.63v.1A.62.62,0,0,0,101.76,135Zm-9.67-2.83H94.3a2.18,2.18,0,0,1,2,1.48h-.7a1.52,1.52,0,0,0-1.35-.83H92.09a1.51,1.51,0,0,0-1.34.83h-.7A2.15,2.15,0,0,1,92.09,132.18ZM94.54,135h.7a1.14,1.14,0,0,1-.94.48H92.09a1.12,1.12,0,0,1-.93-.48H92a.63.63,0,0,0,.63-.62v-.1a.63.63,0,0,0-.63-.63h-.79a1.15,1.15,0,0,1,.93-.48H94.3a1.17,1.17,0,0,1,.94.48h-.7a.63.63,0,0,0-.63.63v.1A.63.63,0,0,0,94.54,135Zm-9.68-2.83h2.22a2.17,2.17,0,0,1,2,1.48h-.7a1.52,1.52,0,0,0-1.34-.83H84.86a1.51,1.51,0,0,0-1.34.83h-.7A2.15,2.15,0,0,1,84.86,132.18ZM87.31,135H88a1.14,1.14,0,0,1-.93.48H84.86a1.14,1.14,0,0,1-.93-.48h.79a.63.63,0,0,0,.63-.62v-.1a.63.63,0,0,0-.63-.63h-.79a1.16,1.16,0,0,1,.93-.48h2.22a1.16,1.16,0,0,1,.93.48h-.7a.63.63,0,0,0-.63.63v.1A.63.63,0,0,0,87.31,135Zm-9.67-2.83h2.22a2.16,2.16,0,0,1,2,1.48h-.7a1.52,1.52,0,0,0-1.34-.83H77.64a1.52,1.52,0,0,0-1.34.83h-.7A2.16,2.16,0,0,1,77.64,132.18ZM80.09,135h.7a1.14,1.14,0,0,1-.93.48H77.64a1.14,1.14,0,0,1-.93-.48h.8a.62.62,0,0,0,.62-.62v-.1a.63.63,0,0,0-.62-.63h-.8a1.16,1.16,0,0,1,.93-.48h2.22a1.16,1.16,0,0,1,.93.48h-.7a.63.63,0,0,0-.63.63v.1A.63.63,0,0,0,80.09,135Zm-7.22-.35a.27.27,0,0,1-.27-.27v-.1a.28.28,0,0,1,.27-.28h4.64a.28.28,0,0,1,.27.28v.1a.27.27,0,0,1-.27.27Zm7,1.83H77.64a2.16,2.16,0,0,1-2-1.48h.7a1.5,1.5,0,0,0,1.34.83h2.22A1.5,1.5,0,0,0,81.2,135h.7A2.16,2.16,0,0,1,79.86,136.49Zm.23-1.83a.27.27,0,0,1-.27-.27v-.1a.28.28,0,0,1,.27-.28h4.63a.28.28,0,0,1,.28.28v.1a.27.27,0,0,1-.28.27Zm7,1.83H84.86a2.15,2.15,0,0,1-2-1.48h.7a1.49,1.49,0,0,0,1.34.83h2.22a1.5,1.5,0,0,0,1.34-.83h.7A2.17,2.17,0,0,1,87.08,136.49Zm.24-1.83a.28.28,0,0,1-.28-.27v-.1a.29.29,0,0,1,.28-.28h4.62a.29.29,0,0,1,.28.28v.1a.28.28,0,0,1-.28.27Zm7,1.83H92.09a2.15,2.15,0,0,1-2-1.48h.7a1.49,1.49,0,0,0,1.34.83H94.3a1.5,1.5,0,0,0,1.35-.83h.7A2.18,2.18,0,0,1,94.3,136.49Zm.25-1.83a.28.28,0,0,1-.28-.27v-.1a.29.29,0,0,1,.28-.28h4.62a.28.28,0,0,1,.27.28v.1a.27.27,0,0,1-.27.27Zm7,1.83H99.32a2.18,2.18,0,0,1-2-1.48H98a1.49,1.49,0,0,0,1.34.83h2.21a1.5,1.5,0,0,0,1.35-.83h.7A2.18,2.18,0,0,1,101.53,136.49Zm.25-1.83a.27.27,0,0,1-.28-.27v-.1a.28.28,0,0,1,.28-.28h4.62a.28.28,0,0,1,.27.28v.1a.27.27,0,0,1-.27.27Zm7,1.83h-2.21a2.18,2.18,0,0,1-2-1.48h.7a1.5,1.5,0,0,0,1.35.83h2.21a1.48,1.48,0,0,0,1.34-.83h.7A2.16,2.16,0,0,1,108.76,136.49Zm.23-1.83a.27.27,0,0,1-.27-.27v-.1A.28.28,0,0,1,109,134h4.63a.28.28,0,0,1,.28.28v.1a.27.27,0,0,1-.28.27Zm7,1.83h-2.22a2.15,2.15,0,0,1-2-1.48h.7a1.49,1.49,0,0,0,1.34.83H116a1.5,1.5,0,0,0,1.34-.83h.7A2.17,2.17,0,0,1,116,136.49Zm5.14-2.1a.28.28,0,0,1-.28.27h-4.62a.27.27,0,0,1-.27-.27v-.1a.28.28,0,0,1,.27-.28h4.62a.29.29,0,0,1,.28.28Z"/><rect class="cls-5" x="83.15" y="106.56" width="7.45" height="19.76"/><path class="cls-5" d="M108.49,106.56H93v19.76h15.47a2.09,2.09,0,0,0,2.08-2.09V108.64A2.08,2.08,0,0,0,108.49,106.56Zm-.41,17.27h-7.61V109.05h7.61Z"/><polygon class="cls-5" points="78.23 106.56 78.23 118.92 70.62 118.92 70.62 106.56 63.17 106.56 63.17 118.92 63.17 121.41 63.17 126.32 70.62 126.32 70.62 121.41 75.42 121.41 77.91 126.32 80.72 126.32 78.24 121.41 80.72 121.41 80.72 118.92 80.72 106.56 78.23 106.56"/><polygon class="cls-5" points="130.55 109.05 130.55 106.56 120.45 106.56 113 106.56 113 109.05 113 118.92 113 121.41 120.45 121.41 128.06 121.41 128.06 123.83 113 123.83 113 126.32 130.55 126.32 130.55 126.2 130.55 123.83 130.55 121.41 130.55 118.92 128.06 118.92 120.45 118.92 120.45 109.05 130.55 109.05"/><path class="cls-6" d="M54,57.2h85.71a4.7,4.7,0,0,1,4.7,4.7V165.47a4.7,4.7,0,0,1-4.7,4.7H54a4.7,4.7,0,0,1-4.7-4.7V61.91A4.71,4.71,0,0,1,54,57.2Z"/><path class="cls-5" d="M139.72,57.2H54a4.71,4.71,0,0,0-4.71,4.7V75.24h95.12V61.9A4.7,4.7,0,0,0,139.72,57.2ZM57.85,69.61a3.39,3.39,0,1,1,3.38-3.39A3.39,3.39,0,0,1,57.85,69.61Zm8.82,0a3.39,3.39,0,1,1,3.38-3.39A3.38,3.38,0,0,1,66.67,69.61Zm8.83,0a3.39,3.39,0,1,1,3.38-3.39A3.39,3.39,0,0,1,75.5,69.61Z"/><rect class="cls-5" x="99.99" y="142.36" width="1.96" height="14.66"/><rect class="cls-5" x="94.46" y="142.36" width="1.96" height="14.66"/><rect class="cls-5" x="98.31" y="142.36" width="0.98" height="14.66"/><rect class="cls-5" x="97.12" y="142.36" width="0.49" height="14.66"/><rect class="cls-5" x="91.77" y="142.36" width="1.96" height="14.66"/><rect class="cls-5" x="90.09" y="142.36" width="0.98" height="14.66"/><rect class="cls-5" x="88.9" y="142.36" width="0.49" height="14.66"/><rect class="cls-5" x="56.81" y="142.36" width="1.96" height="14.66"/><rect class="cls-5" x="62.34" y="142.36" width="1.96" height="14.66"/><rect class="cls-5" x="59.47" y="142.36" width="0.98" height="14.66"/><rect class="cls-5" x="61.15" y="142.36" width="0.49" height="14.66"/><rect class="cls-5" x="65.03" y="142.36" width="1.96" height="14.66"/><rect class="cls-5" x="67.69" y="142.36" width="0.98" height="14.66"/><rect class="cls-5" x="69.37" y="142.36" width="0.49" height="14.66"/><rect class="cls-5" x="84.31" y="142.36" width="3.92" height="14.66"/><rect class="cls-5" x="81.65" y="142.36" width="1.96" height="14.66"/><rect class="cls-5" x="76.12" y="142.36" width="1.96" height="14.66"/><rect class="cls-5" x="79.97" y="142.36" width="0.98" height="14.66"/><rect class="cls-5" x="78.78" y="142.36" width="0.49" height="14.66"/><rect class="cls-5" x="73.43" y="142.36" width="1.96" height="14.66"/><rect class="cls-5" x="71.75" y="142.36" width="0.98" height="14.66"/><rect class="cls-5" x="70.56" y="142.36" width="0.49" height="14.66"/><rect class="cls-5" x="135.94" y="142.36" width="0.98" height="14.66"/><rect class="cls-5" x="134.74" y="142.36" width="0.49" height="14.66"/><rect class="cls-5" x="108.19" y="142.36" width="1.96" height="14.66"/><polygon class="cls-5" points="105.32 142.36 104.61 142.36 102.65 142.36 102.65 157.02 104.61 157.02 105.32 157.02 106.3 157.02 106.57 157.02 106.57 142.36 106.3 142.36 105.32 142.36"/><rect class="cls-5" x="107" y="142.36" width="0.49" height="14.66"/><rect class="cls-5" x="110.87" y="142.36" width="1.96" height="14.66"/><rect class="cls-5" x="113.54" y="142.36" width="0.98" height="14.66"/><rect class="cls-5" x="115.22" y="142.36" width="0.49" height="14.66"/><rect class="cls-5" x="130.16" y="142.36" width="3.92" height="14.66"/><rect class="cls-5" x="127.5" y="142.36" width="1.96" height="14.66"/><rect class="cls-5" x="121.96" y="142.36" width="1.96" height="14.66"/><rect class="cls-5" x="125.82" y="142.36" width="0.98" height="14.66"/><rect class="cls-5" x="124.62" y="142.36" width="0.49" height="14.66"/><rect class="cls-5" x="119.28" y="142.36" width="1.96" height="14.66"/><rect class="cls-5" x="117.6" y="142.36" width="0.98" height="14.66"/><rect class="cls-5" x="116.4" y="142.36" width="0.49" height="14.66"/><path class="cls-5" d="M83,176.81c0-1.25.72-2,1.66-2s1.65.77,1.65,2-.72,2.05-1.65,2.05S83,178.07,83,176.81Zm3,0c0-1.07-.55-1.77-1.37-1.77s-1.38.7-1.38,1.77.55,1.8,1.38,1.8S86,177.89,86,176.81Zm-2.32,0a1.07,1.07,0,0,1,1-1.16.86.86,0,0,1,.64.29l-.21.24a.59.59,0,0,0-.41-.18c-.37,0-.62.34-.62.81s.24.88.6.88a.76.76,0,0,0,.49-.21l.19.26a1,1,0,0,1-.7.29C84.1,178,83.66,177.57,83.66,176.81Z"/><path class="cls-5" d="M88.75,178.32,89,178a1.61,1.61,0,0,0,1.12.46c.54,0,.94-.28.94-.72s-.4-.78-1.42-.78v-.38c.93,0,1.28-.32,1.28-.73s-.32-.61-.8-.61a1.47,1.47,0,0,0-1,.39l-.27-.32a1.92,1.92,0,0,1,1.25-.49c.74,0,1.3.36,1.3,1,0,.47-.35.77-.84.93v0a1.08,1.08,0,0,1,1,1c0,.7-.64,1.12-1.42,1.12A1.92,1.92,0,0,1,88.75,178.32Z"/><path class="cls-5" d="M94.48,176.83c0-1.32.53-2,1.4-2s1.41.7,1.41,2-.53,2-1.41,2S94.48,178.13,94.48,176.83Zm2.34,0c0-1.13-.39-1.61-.94-1.61s-.93.48-.93,1.61.39,1.63.93,1.63S96.82,178,96.82,176.83Zm-1.32-.05a.39.39,0,1,1,.77,0,.39.39,0,1,1-.77,0Z"/><path class="cls-5" d="M102.36,175.32h-2.25v-.44H103v.31a5,5,0,0,0-1.35,3.61h-.54A5.27,5.27,0,0,1,102.36,175.32Z"/><path class="cls-5" d="M108,175.32h-2.25v-.44h2.84v.31a5,5,0,0,0-1.35,3.61h-.54A5.27,5.27,0,0,1,108,175.32Z"/><path class="cls-5" d="M61.22,161.68h.47l.25,2.08c0,.28.05.44.06.77h0c.06-.33.09-.49.16-.76l.32-1.24h.41l.31,1.24c.07.27.11.43.17.76h0c0-.33,0-.49.06-.76l.23-2.09h.46L63.67,165h-.53l-.32-1.34q-.07-.3-.12-.6h0a4.25,4.25,0,0,1-.12.6L62.24,165h-.52Z"/><path class="cls-5" d="M65.85,164.65h.82V162h-.82v-.36h2.08V162H67.1v2.61h.83V165H65.85Z"/><path class="cls-5" d="M70.87,162h-1.1v-.36H72.4V162H71.3v3h-.43Z"/><path class="cls-5" d="M74.17,161.68h.43v1.39H76v-1.39h.43V165H76v-1.57H74.6V165h-.43Z"/><path class="cls-5" d="M82.51,164.18a1,1,0,0,1,.69-.86v0a.91.91,0,0,1-.49-.76.89.89,0,0,1,1-.83c.63,0,1,.36,1,.86a1,1,0,0,1-.49.77v0c.36.18.63.38.63.84s-.42.87-1.16.87S82.51,164.69,82.51,164.18Zm1.94,0c0-.45-.45-.56-1-.75-.31.17-.55.38-.55.7s.32.61.82.61S84.45,164.52,84.45,164.19Zm-.1-1.6a.57.57,0,0,0-.65-.56.53.53,0,0,0-.6.51c0,.39.37.55.85.7A.82.82,0,0,0,84.35,162.59Z"/><path class="cls-5" d="M87.63,163.29l-.93-1.61h.47l.47.85.26.48h0l.24-.48.46-.85h.45l-.93,1.63,1,1.7h-.48l-.5-.9-.29-.53h0c-.1.2-.18.37-.27.53l-.5.9h-.45Z"/><path class="cls-5" d="M95.1,164.57l.26-.29a1.37,1.37,0,0,0,1,.41c.46,0,.72-.22.72-.52s-.26-.46-.59-.6l-.49-.21a1,1,0,0,1-.71-.86,1,1,0,0,1,1.09-.88,1.44,1.44,0,0,1,1,.41l-.22.28a1.14,1.14,0,0,0-.82-.31c-.38,0-.64.18-.64.48s.31.43.59.54l.47.21a.94.94,0,0,1,.73.89c0,.53-.44.95-1.17.95A1.7,1.7,0,0,1,95.1,164.57Z"/><path class="cls-5" d="M99.29,163.34a1.53,1.53,0,0,1,1.49-1.72,1.21,1.21,0,0,1,.91.41l-.24.26a.89.89,0,0,0-.67-.29c-.63,0-1,.51-1,1.33s.42,1.36,1,1.36a1,1,0,0,0,.75-.36l.24.25a1.28,1.28,0,0,1-1,.49C99.92,165.07,99.29,164.43,99.29,163.34Z"/><path class="cls-5" d="M103.41,163.33c0-1.08.52-1.71,1.27-1.71s1.28.63,1.28,1.71-.53,1.74-1.28,1.74S103.41,164.42,103.41,163.33Zm2.11,0c0-.84-.34-1.33-.84-1.33s-.83.49-.83,1.33.33,1.36.83,1.36S105.52,164.18,105.52,163.33Z"/><path class="cls-5" d="M107.88,161.68h1c.74,0,1.23.25,1.23,1s-.5,1-1.23,1h-.57V165h-.43Zm1,1.66c.58,0,.86-.21.86-.68s-.29-.63-.86-.63h-.52v1.31Z"/><path class="cls-5" d="M112.14,161.68h2.06V162h-1.64v1h1.38v.36h-1.38v1.21h1.69V165h-2.11Z"/><path class="cls-5" d="M120.3,164.57l.25-.29a1.41,1.41,0,0,0,1,.41c.45,0,.72-.22.72-.52s-.26-.46-.6-.6l-.48-.21a1,1,0,0,1-.71-.86,1,1,0,0,1,1.09-.88,1.46,1.46,0,0,1,1,.41l-.22.28a1.14,1.14,0,0,0-.82-.31c-.38,0-.64.18-.64.48s.31.43.59.54l.47.21a.94.94,0,0,1,.73.89c0,.53-.44.95-1.17.95A1.7,1.7,0,0,1,120.3,164.57Z"/><path class="cls-5" d="M124.53,161.68H125l.47,1.42.16.54h0l.16-.54.47-1.42h.52V165h-.41v-1.67c0-.32,0-.89.07-1.17h0l-.19.65-.48,1.3h-.3l-.47-1.3-.19-.65h0c0,.28.07.85.07,1.17V165h-.39Z"/><path class="cls-5" d="M128.63,163.34c0-1.07.61-1.72,1.47-1.72a1.23,1.23,0,0,1,.92.41l-.24.26a.9.9,0,0,0-.68-.29c-.62,0-1,.51-1,1.33s.37,1.36,1,1.36a.86.86,0,0,0,.58-.19v-.87H130v-.35h1.05v1.4a1.41,1.41,0,0,1-1,.39C129.23,165.07,128.63,164.43,128.63,163.34Z"/><path class="cls-5" d="M63.37,93.76c0-4.74,2.77-7.63,6.61-7.63a5.54,5.54,0,0,1,4,1.79l-1.08,1.19a4,4,0,0,0-3-1.32c-2.81,0-4.65,2.27-4.65,5.93s1.84,6,4.65,6a4.27,4.27,0,0,0,3.3-1.62l1.08,1.15a5.73,5.73,0,0,1-4.56,2.13C66.16,101.4,63.37,98.57,63.37,93.76Z"/><path class="cls-5" d="M76.47,93.7c0-4.77,2.34-7.57,5.66-7.57s5.66,2.8,5.66,7.57-2.34,7.7-5.66,7.7S76.47,98.53,76.47,93.7Zm9.37,0c0-3.71-1.49-5.91-3.71-5.91S78.42,90,78.42,93.7s1.49,6,3.71,6S85.84,97.47,85.84,93.7Z"/><path class="cls-5" d="M90,93.7c0-4.77,2.33-7.57,5.66-7.57s5.66,2.8,5.66,7.57-2.34,7.7-5.66,7.7S90,98.53,90,93.7Zm9.36,0c0-3.71-1.48-5.91-3.7-5.91S91.9,90,91.9,93.7s1.48,6,3.71,6S99.31,97.47,99.31,93.7Z"/><path class="cls-5" d="M105.36,86.4h1.86V99.54h7.28v1.59h-9.14Z"/></g></g></svg>