<svg xmlns="http://www.w3.org/2000/svg" viewBox="0 0 252.68 265.63"><defs><style>.cls-1{fill:#491d7f;}.cls-2{fill:#f46188;}.cls-3{fill:#642ab6;}.cls-4{font-size:12px;font-family:MS-UIGothic, MS UI Gothic;}.cls-4,.cls-5{fill:#fff;}</style></defs><g id="Layer_2" data-name="Layer 2"><g id="Layer_2-2" data-name="Layer 2"><path class="cls-1" d="M41.41,7.62,20.76,28.27v61.5H11.25V129H2.83V250.4H245.61V7.62ZM172.66,209.49h-52.6L92.73,236.82H15.53V100.25H34.92v16.1h54.9l16.1-16.1h66.74Z"/><polygon class="cls-2" points="211.99 13.16 206.38 18.77 200.76 13.16 197.58 16.34 203.2 21.95 197.58 27.57 200.76 30.75 206.38 25.13 211.99 30.75 215.17 27.57 209.56 21.95 215.17 16.34 211.99 13.16"/><polygon class="cls-3" points="15.93 76.52 12.68 76.52 12.68 73.26 10.83 73.26 10.83 76.52 7.58 76.52 7.58 78.36 10.83 78.36 10.83 81.61 12.68 81.62 12.68 78.36 15.93 78.36 15.93 76.52"/><polygon class="cls-3" points="15.93 64.84 12.68 64.84 12.68 61.59 10.83 61.59 10.83 64.84 7.58 64.84 7.58 66.69 10.83 66.69 10.83 69.94 12.68 69.94 12.68 66.69 15.93 66.69 15.93 64.84"/><polygon class="cls-3" points="15.93 53.17 12.68 53.17 12.68 49.92 10.83 49.91 10.83 53.17 7.58 53.17 7.58 55.01 10.83 55.01 10.83 58.27 12.68 58.27 12.68 55.01 15.93 55.01 15.93 53.17"/><polygon class="cls-3" points="15.93 41.5 12.68 41.5 12.68 38.24 10.83 38.24 10.83 41.5 7.58 41.5 7.58 43.34 10.83 43.34 10.83 46.59 12.68 46.6 12.68 43.34 15.93 43.34 15.93 41.5"/><polygon class="cls-3" points="15.93 29.82 12.68 29.82 12.68 26.57 10.83 26.57 10.83 29.82 7.58 29.82 7.58 31.67 10.83 31.67 10.83 34.92 12.68 34.92 12.68 31.67 15.93 31.67 15.93 29.82"/><path class="cls-3" d="M236.67,229V160.74H222.12V0H153.65L134.49,19.16H39.38V35.45h149V51.16H134.15V72.5h68.77V215.14H126L78.71,262.43H24.15a2.6,2.6,0,0,0-2.51-2.05,2.63,2.63,0,1,0,0,5.25,2.6,2.6,0,0,0,2.51-2H79.2l47.28-47.28h77.6v-145H135.31v-19h54.22v-18h-149v-14H135L154.13,1.16H221V161.9h14.55v65.9H179.64v4.47a2.58,2.58,0,0,0-2,2.5,2.63,2.63,0,1,0,5.25,0,2.59,2.59,0,0,0-2-2.5V229Z"/><rect class="cls-3" x="238.13" y="17.41" width="11.93" height="104.47"/><polygon class="cls-3" points="4.04 253.87 7.98 253.87 14.92 246.93 10.98 246.93 4.04 253.87"/><polygon class="cls-3" points="9.79 253.87 13.72 253.87 20.66 246.93 16.72 246.93 9.79 253.87"/><polygon class="cls-3" points="15.53 253.87 19.46 253.87 26.4 246.93 22.46 246.93 15.53 253.87"/><polygon class="cls-3" points="21.27 253.87 25.2 253.87 32.14 246.93 28.2 246.93 21.27 253.87"/><polygon class="cls-3" points="27 253.87 30.94 253.87 37.88 246.93 33.94 246.93 27 253.87"/><rect class="cls-2" y="145.41" width="5.35" height="5.35"/><rect class="cls-2" y="162.87" width="5.35" height="5.35"/><rect class="cls-2" y="180.33" width="5.35" height="5.35"/><rect class="cls-2" y="197.79" width="5.35" height="5.35"/><rect class="cls-2" x="121.25" y="97.72" width="33.56" height="4.85"/><rect class="cls-2" x="168.78" y="138.27" width="6.98" height="30.26"/><rect class="cls-2" x="168.78" y="175.52" width="6.98" height="8.15"/><rect class="cls-2" x="249.19" y="129.01" width="3.49" height="10.38"/><rect class="cls-2" x="249.19" y="141.81" width="3.49" height="9.5"/><rect class="cls-2" x="249.19" y="154.61" width="3.49" height="8.62"/><rect class="cls-2" x="249.19" y="167.4" width="3.49" height="7.74"/><rect class="cls-2" x="249.19" y="180.2" width="3.49" height="6.87"/><rect class="cls-2" x="249.19" y="193" width="3.49" height="5.99"/><rect class="cls-2" x="249.19" y="205.8" width="3.49" height="5.11"/><rect class="cls-2" x="249.19" y="218.59" width="3.49" height="4.23"/><rect class="cls-2" x="249.19" y="231.39" width="3.49" height="3.35"/><rect class="cls-2" x="249.19" y="244.19" width="3.49" height="2.47"/><path class="cls-2" d="M54.12,23h4L51,30.11H47ZM70,23H66L59,30.11h3.95Zm-6,0h-4L53,30.11h4Zm29.79,0H89.87L82.8,30.11h4ZM76,23H72l-7.08,7.08h4Zm11.92,0h-4l-7.08,7.08h4Zm-6,0H78l-7.08,7.08h4Z"/><rect class="cls-2" x="186.25" y="235.99" width="7.82" height="7.82" transform="translate(225.32 -64.2) rotate(45)"/><rect class="cls-2" x="202.21" y="235.99" width="7.82" height="7.82" transform="translate(230 -75.48) rotate(45)"/><rect class="cls-2" x="218.17" y="235.99" width="7.82" height="7.82" transform="translate(234.67 -86.77) rotate(45)"/><rect class="cls-2" x="234.12" y="235.99" width="7.82" height="7.82" transform="translate(239.34 -98.05) rotate(45)"/><text class="cls-4" transform="translate(44.83 95.31)">ベクター<tspan x="6.09" y="14.4">背景</tspan></text><polygon class="cls-5" points="80.94 213.93 75.27 213.93 75.27 201.83 73.05 201.83 73.05 213.93 73.05 216.14 75.27 216.14 79.14 216.14 81.05 216.14 82.15 216.14 85.55 211.96 87.36 209.74 84.34 209.74 80.94 213.93"/><polygon class="cls-5" points="81.32 209.74 84.33 209.74 87.73 205.56 90.74 201.83 87.73 201.83 81.32 209.74"/><polygon class="cls-5" points="86.67 216.14 88.66 216.14 89.89 216.14 102.97 216.14 102.97 213.93 91.7 213.93 93.29 211.96 93.29 211.96 102.97 211.96 102.97 209.74 95.1 209.74 95.1 209.74 91.87 209.74 91.87 209.74 90.88 209.74 90.88 204.05 102.97 204.05 102.97 201.83 90.88 201.83 88.66 201.83 88.66 204.05 88.66 211.96 90.07 211.96 90.06 211.96 86.67 216.14"/><polygon class="cls-5" points="45.31 211.96 47.11 209.74 43.88 209.74 42.89 210.96 42.89 201.83 40.68 201.83 40.68 213.68 38.68 216.14 41.91 216.14 41.91 216.14 42.89 216.14 54.99 216.14 54.99 213.93 43.71 213.93 45.31 211.96"/><path class="cls-5" d="M59.2,216.14H71.29V201.83H57v11.84l-2,2.46H59.2Zm9.88-12.09v9.88H60l1.61-2,1.8-2.22H60.19l-1,1.22v-6.9Z"/><path class="cls-5" d="M120.1,156.07a5.9,5.9,0,0,0-3.88-6.42c2.09,1.07,2.63,5.67-.38,6.36s-5.35-2.51-3.35-6.86-3.6-8.16-3.75-8.26c.07.17,3.49,8.12-.76,9.3s-1.59-4.73-1.59-4.73c-4.57,3.55-1.2,10.47-6.39,13.22a7.12,7.12,0,0,1-5.73.4l-.06,0c-5.08-2-4.43-7.84-1.49-12l0,0h0a7.37,7.37,0,0,0,1.5-4,5.91,5.91,0,0,0-3.89-6.42C92.45,137.7,93,142.3,90,143s-5.35-2.51-3.35-6.86S83,128,82.88,127.87c.07.17,3.49,8.12-.76,9.3s-1.59-4.73-1.59-4.73c-4.58,3.55-1.2,10.47-6.39,13.22a7.07,7.07,0,0,1-6.63,0c-5.19-2.75-1.81-9.67-6.39-13.22,0,0,2.7,5.91-1.59,4.73s-.82-9.13-.75-9.3c-.15.1-5.73,4-3.76,8.26s-.34,7.55-3.35,6.86-2.47-5.29-.37-6.36a5.89,5.89,0,0,0-3.88,6.42,7.21,7.21,0,0,0,1.49,4l0,0c2.94,4.17,3.59,10-1.49,12l-.06,0a7.12,7.12,0,0,1-5.73-.4c-5.19-2.75-1.82-9.67-6.39-13.22,0,0,2.69,5.91-1.59,4.73s-.83-9.13-.76-9.3c-.15.1-5.73,4-3.75,8.26s-.35,7.55-3.35,6.86-2.47-5.29-.38-6.36a5.9,5.9,0,0,0-3.88,6.42c.47,5.1,4.23,5,4.45,9.11a3.91,3.91,0,0,1-.05.92c-.05.17-.09.35-.13.52a10.89,10.89,0,0,0,2.92,10.16l15.63,15.63.59.6.6-.6,15.63-15.63a10.85,10.85,0,0,0,2.51-3.92l6.22,6.22a9,9,0,1,0,1.81,0L78,172.87a10.9,10.9,0,0,0,2.51,3.91l15.63,15.63.6.6.59-.6,15.63-15.63a10.89,10.89,0,0,0,2.92-10.16c0-.17-.08-.35-.13-.52a4.52,4.52,0,0,1,0-.92C115.87,161.11,119.63,161.17,120.1,156.07ZM58.56,174.15,45,187.75l-13.59-13.6A7.2,7.2,0,1,1,41.55,164l3.42,3.4,3.4-3.41a7.13,7.13,0,0,1,4.71-2.09,10.86,10.86,0,0,0,1.52,1.89l6,6A7.16,7.16,0,0,1,58.56,174.15Zm16.1,9H71.2v-3.36h0C72.64,180.05,73.87,181.32,74.66,183.2Zm4.39,4.49H76.33a13.75,13.75,0,0,0-.6-3.74H78A8.32,8.32,0,0,1,79.05,187.69Zm-7.82,8.6h0v-3.36h3.46C73.87,194.81,72.64,196.08,71.23,196.29ZM67,192.93h3.46v3.36h0C69,196.08,67.78,194.81,67,192.93Zm-4.39-4.49h2.72a13.75,13.75,0,0,0,.6,3.74H63.7A8.2,8.2,0,0,1,62.6,188.44Zm7.82-8.6h0v3.36H67C67.78,181.32,69,180.05,70.42,179.84Zm0,4.11v3.74H66.07A13.12,13.12,0,0,1,66.7,184Zm-5.13,3.74H62.6A8.2,8.2,0,0,1,63.7,184h2.22A13.75,13.75,0,0,0,65.32,187.69Zm.75.75h4.38v3.74H66.7A13.12,13.12,0,0,1,66.07,188.44Zm5.13,3.74v-3.74h4.38a13.12,13.12,0,0,1-.63,3.74Zm5.13-3.74h2.72a8.32,8.32,0,0,1-1.1,3.74H75.73A13.75,13.75,0,0,0,76.33,188.44Zm-.75-.75H71.2V184H75A13.12,13.12,0,0,1,75.58,187.69ZM68,180.33a8.26,8.26,0,0,0-1.81,2.87h-2A8.36,8.36,0,0,1,68,180.33Zm-3.81,12.6h2A8.26,8.26,0,0,0,68,195.8,8.36,8.36,0,0,1,64.19,192.93Zm9.46,2.87a8.26,8.26,0,0,0,1.81-2.87h2A8.36,8.36,0,0,1,73.65,195.8Zm3.81-12.6h-2a8.26,8.26,0,0,0-1.81-2.87A8.36,8.36,0,0,1,77.46,183.2Zm-.16-14.95h0l-6.47,6.47-6.48-6.48-7.12-7.12a7.15,7.15,0,0,1-1.74-2.82,7.27,7.27,0,0,1,.42-5.56A7.27,7.27,0,0,1,60.84,149a7.29,7.29,0,0,1,1.48-.16,7.19,7.19,0,0,1,5.1,2.12l3.41,3.4,3.41-3.41a7.12,7.12,0,0,1,5.09-2.11,6.94,6.94,0,0,1,1.52.17l.43.1.06,0a7.51,7.51,0,0,1,.94.34h0a7.34,7.34,0,0,1,1.73,1.1l0,0a4,4,0,0,1,.37.35l.35.37.07.08c.11.13.22.27.31.4l0,0a4.94,4.94,0,0,1,.27.42l0,0c.09.15.17.3.25.45l0,0,.14.27,0,.08a2.44,2.44,0,0,1,.1.24.56.56,0,0,1,0,.12,1.8,1.8,0,0,1,.08.21s0,.09,0,.13l.06.21a.74.74,0,0,0,0,.14,1.46,1.46,0,0,0,0,.2l0,.15c0,.06,0,.13,0,.19s0,.1,0,.15l0,.21s0,.09,0,.13a1.8,1.8,0,0,1,0,.22s0,.09,0,.13a1.69,1.69,0,0,1,0,.23v.11a1,1,0,0,1,0,.25v.09a2.62,2.62,0,0,1,0,.28v.07a2.83,2.83,0,0,1,0,.29v.05c0,.11,0,.21,0,.32v0a7.24,7.24,0,0,1-.74,2.15l0,0c0,.1-.11.2-.17.3l-.06.09-.15.24a1,1,0,0,0-.08.11l-.16.21a.76.76,0,0,1-.08.11,2,2,0,0,1-.19.22l-.07.09a3.83,3.83,0,0,1-.28.29Zm33,5.9-13.59,13.6-13.6-13.6A7.16,7.16,0,0,1,81,169.79h0l6-6a10.36,10.36,0,0,0,1.51-1.89h0A7.13,7.13,0,0,1,93.28,164l3.4,3.41,3.42-3.4a7.2,7.2,0,0,1,10.18,10.18Z"/><rect class="cls-5" x="40.45" y="170.43" width="1.08" height="8.74"/><rect class="cls-5" x="48.37" y="174.26" width="1.08" height="4.91"/><rect class="cls-5" x="44.41" y="166.47" width="1.08" height="8.99" transform="translate(215.91 126.02) rotate(90)"/><rect class="cls-5" x="44.41" y="170.3" width="1.08" height="8.99" transform="translate(219.75 129.85) rotate(90)"/><rect class="cls-5" x="44.41" y="174.14" width="1.08" height="8.99" transform="translate(223.58 133.69) rotate(90)"/><rect class="cls-5" x="92.46" y="170.43" width="1.08" height="8.74"/><rect class="cls-5" x="100.38" y="174.26" width="1.08" height="4.91"/><rect class="cls-5" x="96.42" y="166.47" width="1.08" height="8.99" transform="translate(267.93 74) rotate(90)"/><rect class="cls-5" x="96.42" y="170.3" width="1.08" height="8.99" transform="translate(271.76 77.84) rotate(90)"/><rect class="cls-5" x="96.42" y="174.14" width="1.08" height="8.99" transform="translate(275.6 81.67) rotate(90)"/><rect class="cls-5" x="66.33" y="157.41" width="1.08" height="8.74"/><rect class="cls-5" x="74.25" y="161.24" width="1.08" height="4.91"/><rect class="cls-5" x="70.29" y="153.45" width="1.08" height="8.99" transform="translate(228.77 87.12) rotate(90)"/><rect class="cls-5" x="70.29" y="157.28" width="1.08" height="8.99" transform="translate(232.61 90.95) rotate(90)"/><rect class="cls-5" x="70.29" y="161.12" width="1.08" height="8.99" transform="translate(236.44 94.79) rotate(90)"/></g></g></svg>