<svg xmlns="http://www.w3.org/2000/svg" viewBox="0 0 267.95 282.71"><defs><style>.cls-1{fill:#491d7f;}.cls-2{fill:#f46188;}.cls-3{fill:#642ab6;}.cls-4{font-size:12px;font-family:MS-UIGothic, MS UI Gothic;}.cls-4,.cls-5,.cls-6{fill:#fff;}.cls-6{font-size:10.92px;font-family:KozGoPr6N-Regular-90ms-RKSJ-H, Kozuka Gothic Pr6N;}</style></defs><g id="Layer_2" data-name="Layer 2"><g id="Layer_2-2" data-name="Layer 2"><path class="cls-1" d="M268,45.82V13.24H11.87V269.32H199.54l17.9-17.9h37.64V204.86L268,192V169.91L255.33,157.3V145L268,157.56v-6.27l-12.62-12.62V126.33L268,138.94v-6.28l-12.62-12.61V107.7L268,120.32V114l-12.62-12.61V89.08L268,101.69V95.42L255.33,82.8V70.46L268,83.07V76.79L255.33,64.18V51.83L268,64.45V58.17L255.33,45.56V33.21ZM20.35,240.17V48.5H89.41v7.37H77.33v3.78H89.41v4.66H77.33v3.78H89.41v4.66H77.33v3.78H89.41v4.66H77.33V85H89.41v4.66H77.33v3.78H89.41v4.65H77.33v3.79H89.41v4.65H77.33v3.79H89.41v4.65H77.33v3.79H89.41v4.65H77.33v3.78H89.41v4.66H77.33v3.78H89.41v4.66H77.33V144H89.41v4.66H77.33v3.78H89.41v4.66H77.33v3.78H89.41v4.65H77.33v3.79H89.41V174H77.33v3.79H89.41v4.65H77.33v3.79H89.41v4.65H77.33v3.78H89.41v4.66H77.33v3.78H89.41v4.66H77.33v3.78H89.41v4.66H77.33V220H89.41v4.66H77.33v3.78H89.41v4.66H77.33v3.78H89.41v3.3Z"/><path class="cls-2" d="M21.05,38.93H19.5L36.83,21.6h4.85L34,29.28H30.7Zm17.09-9.65h3.3l7.68-7.68H44.27L26.94,38.93h1.55Zm7.43,0h3.31l7.68-7.68H51.7L34.38,38.93h1.55Zm7.44,0h3.3L64,21.6H59.14L41.81,38.93h1.56Zm7.44,0h3.3l7.69-7.68H66.58L49.25,38.93h1.56Zm7.44,0h3.3l7.68-7.68H74L56.69,38.93h1.55Zm7.44,0h3.3l7.68-7.68H81.46L64.13,38.93h1.55Zm7.44,0h3.3l7.68-7.68H88.9L71.57,38.93h1.55Z"/><circle class="cls-2" cx="30.09" cy="251.03" r="5.01"/><circle class="cls-2" cx="47.78" cy="251.03" r="5.01"/><circle class="cls-2" cx="65.47" cy="251.03" r="5.01"/><circle class="cls-2" cx="83.16" cy="251.03" r="5.01"/><polygon class="cls-3" points="105.12 9.6 8.22 9.6 8.22 87.59 4.29 83.66 4.29 39.58 0 35.28 0 0 21.02 0 24.95 3.93 77.28 3.93 80.51 7.16 105.12 7.16 105.12 9.6"/><polygon class="cls-2" points="188.4 15.3 184.23 11.13 188.4 6.96 186.04 4.6 181.87 8.77 177.7 4.6 175.34 6.96 179.51 11.13 175.34 15.3 177.7 17.66 181.87 13.49 186.04 17.66 188.4 15.3"/><polygon class="cls-2" points="214 15.3 209.84 11.13 214 6.96 211.64 4.6 207.47 8.77 203.3 4.6 200.94 6.96 205.11 11.13 200.94 15.3 203.3 17.66 207.47 13.49 211.64 17.66 214 15.3"/><polygon class="cls-2" points="239.61 15.3 235.44 11.13 239.61 6.96 237.25 4.6 233.08 8.77 228.91 4.6 226.55 6.96 230.72 11.13 226.55 15.3 228.91 17.66 233.08 13.49 237.25 17.66 239.61 15.3"/><polygon class="cls-3" points="251.08 247.03 251.08 215.5 245.38 221.2 245.38 241.33 225.25 241.33 219.55 247.03 251.08 247.03"/><path class="cls-2" d="M259.73,21a2.19,2.19,0,0,1-2.18,2.19,2.15,2.15,0,0,1-2.07-1.61h-8.94V204.91l-53.3,53.3H114.48L91.59,281.1H36.24a2.15,2.15,0,0,1-2.07,1.61,2.19,2.19,0,0,1,0-4.38,2.16,2.16,0,0,1,2.07,1.61H91.11L114,257h78.76l52.62-52.62v-184h10.1a2.15,2.15,0,0,1,2.07-1.61A2.19,2.19,0,0,1,259.73,21Z"/><rect class="cls-2" x="2.69" y="116.98" width="4.36" height="4.36"/><rect class="cls-2" x="2.69" y="129.2" width="4.36" height="4.36"/><rect class="cls-2" x="2.69" y="141.42" width="4.36" height="4.36"/><rect class="cls-2" x="2.69" y="153.64" width="4.36" height="4.36"/><rect class="cls-2" x="2.69" y="165.87" width="4.36" height="4.36"/><rect class="cls-2" x="2.69" y="178.09" width="4.36" height="4.36"/><rect class="cls-2" x="2.69" y="190.31" width="4.36" height="4.36"/><rect class="cls-2" x="2.69" y="202.53" width="4.36" height="4.36"/><rect class="cls-2" x="2.69" y="214.75" width="4.36" height="4.36"/><rect class="cls-2" x="2.69" y="226.97" width="4.36" height="4.36"/><polygon class="cls-3" points="236.94 202.82 190.24 249.53 118.8 249.53 118.8 243.27 151.1 243.27 195.18 199.19 224.43 199.19 224.43 48.3 128.98 48.3 128.98 45.69 236.94 45.69 236.94 202.82"/><rect class="cls-2" x="131.31" y="38.93" width="14.55" height="4.87"/><rect class="cls-2" x="233.08" y="165.87" width="6.53" height="26.63"/><rect class="cls-2" x="16.47" y="87.59" width="8.62" height="99.81"/><rect class="cls-2" x="221.88" y="57.03" width="4.88" height="30.55"/><rect class="cls-2" x="128.98" y="266.55" width="31.82" height="5.43"/><rect class="cls-2" x="37.88" width="4.8" height="4.8"/><rect class="cls-2" x="46.85" width="4.8" height="4.8"/><rect class="cls-2" x="55.83" width="4.8" height="4.8"/><rect class="cls-2" x="64.8" width="4.8" height="4.8"/><text class="cls-4" transform="translate(180.94 61.48)">ベクター<tspan x="12.19" y="14.4">背景</tspan></text><rect class="cls-5" x="138.82" y="147.82" width="34.17" height="5.7" transform="translate(311.82 301.35) rotate(180)"/><rect class="cls-5" x="95.22" y="146.31" width="35.95" height="5.7" transform="translate(262.35 35.97) rotate(90)"/><rect class="cls-5" x="106.61" y="115.61" width="35.95" height="5.7" transform="translate(243.04 -6.13) rotate(90)"/><rect class="cls-5" x="169.26" y="115.61" width="35.95" height="5.7" transform="translate(305.69 -68.78) rotate(90)"/><rect class="cls-5" x="180.65" y="146.31" width="35.95" height="5.7" transform="translate(347.78 -49.47) rotate(90)"/><rect class="cls-5" x="116.04" y="125.49" width="5.7" height="5.7"/><rect class="cls-5" x="121.74" y="172.83" width="68.35" height="5.7" transform="translate(311.82 351.36) rotate(180)"/><rect class="cls-5" x="127.43" y="94.71" width="56.96" height="5.7" transform="translate(311.82 195.12) rotate(180)"/><rect class="cls-5" x="190.08" y="167.14" width="5.7" height="5.7" transform="translate(385.86 339.97) rotate(180)"/><rect class="cls-5" x="116.04" y="167.14" width="5.7" height="5.7" transform="translate(237.77 339.97) rotate(180)"/><rect class="cls-5" x="121.74" y="130.74" width="5.7" height="5.7"/><rect class="cls-5" x="127.43" y="136.43" width="5.7" height="5.7"/><rect class="cls-5" x="133.13" y="142.13" width="5.7" height="5.7"/><rect class="cls-5" x="190.08" y="125.49" width="5.7" height="5.7" transform="translate(385.86 256.67) rotate(180)"/><rect class="cls-5" x="184.39" y="130.74" width="5.7" height="5.7" transform="translate(374.47 267.17) rotate(180)"/><rect class="cls-5" x="178.69" y="136.43" width="5.7" height="5.7" transform="translate(363.08 278.56) rotate(180)"/><rect class="cls-5" x="173" y="142.13" width="5.7" height="5.7" transform="translate(351.69 289.95) rotate(180)"/><rect class="cls-5" x="139.24" y="119.32" width="5.35" height="16.03"/><rect class="cls-5" x="156.85" y="119.32" width="5.35" height="16.03"/><rect class="cls-5" x="167.24" y="119.32" width="5.35" height="14.17"/><rect class="cls-5" x="149.62" y="119.32" width="5.35" height="16.03"/><rect class="cls-5" x="144.43" y="125.73" width="5.35" height="13.89" transform="translate(279.78 -14.43) rotate(90)"/><rect class="cls-5" x="162.04" y="114.12" width="5.35" height="15.73" transform="translate(286.7 -42.73) rotate(90)"/><rect class="cls-5" x="162.04" y="122.95" width="5.35" height="15.73" transform="translate(295.53 -33.9) rotate(90)"/><polygon class="cls-5" points="130.15 166.8 128.22 166.8 127.43 165.69 127.43 162.96 130.15 166.8"/><polygon class="cls-5" points="132.39 166.8 134.32 166.8 129.41 159.87 127.49 159.87 132.39 166.8"/><polygon class="cls-5" points="136.56 166.8 138.49 166.8 133.59 159.87 131.66 159.87 136.56 166.8"/><polygon class="cls-5" points="140.73 166.8 142.66 166.8 137.76 159.87 135.83 159.87 140.73 166.8"/><polygon class="cls-5" points="144.91 166.8 146.83 166.8 141.93 159.87 140 159.87 144.91 166.8"/><polygon class="cls-5" points="149.08 166.8 151.01 166.8 146.1 159.87 144.17 159.87 149.08 166.8"/><polygon class="cls-5" points="153.25 166.8 155.18 166.8 150.28 159.87 148.35 159.87 153.25 166.8"/><polygon class="cls-5" points="157.42 166.8 159.35 166.8 154.45 159.87 152.52 159.87 157.42 166.8"/><polygon class="cls-5" points="161.59 166.8 163.52 166.8 158.62 159.87 156.69 159.87 161.59 166.8"/><polygon class="cls-5" points="165.76 166.8 167.69 166.8 162.79 159.87 160.86 159.87 165.76 166.8"/><polygon class="cls-5" points="169.94 166.8 171.87 166.8 166.97 159.87 165.03 159.87 169.94 166.8"/><polygon class="cls-5" points="174.11 166.8 176.04 166.8 171.14 159.87 169.21 159.87 174.11 166.8"/><polygon class="cls-5" points="178.28 166.8 180.21 166.8 175.31 159.87 173.38 159.87 178.28 166.8"/><polygon class="cls-5" points="182.45 166.8 184.38 166.8 179.48 159.87 177.55 159.87 182.45 166.8"/><polygon class="cls-5" points="184.38 160.9 184.38 163.63 181.72 159.87 183.65 159.87 184.38 160.9"/><text class="cls-6" transform="translate(130.85 113.68)">ブレーク</text></g></g></svg>