<svg xmlns="http://www.w3.org/2000/svg" viewBox="0 0 262.05 263.05"><defs><style>.cls-1{fill:#491d7f;}.cls-2{fill:#642ab6;}.cls-3{fill:#f46188;}.cls-4{font-size:12px;font-family:MS-UIGothic, MS UI Gothic;}.cls-4,.cls-5,.cls-7{fill:#fff;}.cls-6{fill:none;stroke:#fff;stroke-miterlimit:10;stroke-width:2.38px;}.cls-7{font-size:8.93px;font-family:KozGoPr6N-Regular-90ms-RKSJ-H, Kozuka Gothic Pr6N;}</style></defs><g id="Layer_2" data-name="Layer 2"><g id="Layer_2-2" data-name="Layer 2"><path class="cls-1" d="M88.72,9.07V1.26H40.45V9.07h-24v245.6h245.6V9.07ZM20.43,111.8H33.07L20.43,124.45Zm0,21.7,21.69-21.7H59.78L20.43,151.15Zm0,26.71,48.4-48.41H86.48L20.43,177.86Zm0,26.7L95.54,111.8h17.65L20.43,204.56Zm0,26.71L122.24,111.8H139.9L20.43,231.27ZM157,248.38H145.91L157,237.29Zm0-20.15-20.14,20.15H119.2l37.8-37.8Zm0-26.7-46.85,46.85H92.5L157,183.87Zm0-26.71L83.44,248.38H65.79L157,157.17Zm0-26.71L56.74,248.38H39.09L157,130.46Zm0-26.7-127,127h-9.6v-8.06L149,111.8H157Z"/><polygon class="cls-2" points="94.02 15.22 140.57 15.22 144.79 11.01 192.37 11.01 192.37 15.22 248.82 15.22 248.82 46.94 254.35 46.94 254.35 74.01 250.79 77.56 250.79 162.6 254.35 162.6 254.35 82.48 261 75.83 261 33.85 256.95 29.8 256.95 6.79 200.81 6.79 195.28 1.26 137.66 1.26 126.61 12.31 94.02 12.31 94.02 15.22"/><polygon class="cls-3" points="256.37 247.49 256.37 196 247.05 205.31 247.05 238.18 214.19 238.18 204.87 247.49 256.37 247.49"/><polygon class="cls-3" points="12.22 21.43 12.22 83.42 6.11 83.42 6.11 116.01 12.22 116.01 12.22 221.74 9.17 221.74 9.17 121.59 0 121.59 0 72.71 9.63 63.08 9.63 21.43 12.22 21.43"/><rect class="cls-3" x="9.64" y="16.65" width="2.59" height="2.59"/><rect class="cls-3" x="9.64" y="11.99" width="2.59" height="2.59"/><polygon class="cls-3" points="239.85 34.9 233.96 34.9 233.96 29 230.62 29 230.62 34.9 224.72 34.9 224.72 38.23 230.62 38.23 230.62 44.13 233.96 44.13 233.96 38.23 239.85 38.23 239.85 34.9"/><polygon class="cls-3" points="24.39 33.36 24.39 18.96 38.8 18.96 38.8 14.74 20.18 14.74 20.18 33.36 24.39 33.36"/><circle class="cls-2" cx="215.82" cy="260.92" r="2.13"/><circle class="cls-2" cx="224.16" cy="260.92" r="2.13"/><circle class="cls-2" cx="232.5" cy="260.92" r="2.13"/><circle class="cls-2" cx="240.84" cy="260.92" r="2.13"/><circle class="cls-2" cx="249.19" cy="260.92" r="2.13"/><circle class="cls-2" cx="257.53" cy="260.92" r="2.13"/><rect class="cls-3" x="204.71" y="0.48" width="2.33" height="2.33" transform="translate(61.46 -145.1) rotate(45)"/><rect class="cls-3" x="209.51" y="0.48" width="2.33" height="2.33" transform="translate(62.87 -148.49) rotate(45)"/><rect class="cls-3" x="214.32" y="0.48" width="2.33" height="2.33" transform="translate(64.28 -151.89) rotate(45)"/><rect class="cls-3" x="219.12" y="0.48" width="2.33" height="2.33" transform="translate(65.68 -155.28) rotate(45)"/><rect class="cls-3" x="223.92" y="0.48" width="2.33" height="2.33" transform="translate(67.09 -158.68) rotate(45)"/><rect class="cls-3" x="228.72" y="0.48" width="2.33" height="2.33" transform="translate(68.5 -162.07) rotate(45)"/><polygon class="cls-2" points="21.69 106.6 94.12 106.6 105.76 94.96 33.33 94.96 21.69 106.6"/><text class="cls-4" transform="translate(47.43 75.65)">ベクター<tspan x="6.09" y="14.4">背景</tspan></text><path class="cls-5" d="M76.67,169.54c-3.14-7.94-34,3.9-9.42-5.18l.32-.12h0c6.08-2.27,7-5.79,4.71-8-1.9-1.83-4.41-1.83-6.7-2a1.49,1.49,0,0,1-.69-.19.38.38,0,0,1-.13-.15c-.06-.16.07-.34.19-.44,1.4-1.27,3.67-2.22,4.07-4.58s-1.89-4.22-3.22-5.35a21.62,21.62,0,0,0-6.91-4.08,14.27,14.27,0,0,0-3.61-.72,13.84,13.84,0,0,0-7.24,1.52,25.31,25.31,0,0,0-8.13,7.07,47.06,47.06,0,0,0-6,10.24,46.16,46.16,0,0,0-3.29,10.6c-.45,2.6-.75,5.63.1,8.16a3.81,3.81,0,0,0,4.1,2.9c3.46-.34,5.51-3.28,6.94-7.37a.36.36,0,0,1,0-.11c.57-1.79,1.18-4.37,1.71-6.91.09-.44.21-1.11.29-1.51l.57-3c.24-1.27.48-2.54.74-3.81v-.08s0,0,0,0c.18-.91.38-1.83.58-2.74.83-3.78,2-8.06,4.58-10.59,2.9-2.81,8-2.21,10.91.28a4.88,4.88,0,0,1,1.92,4c-.2,2.15-2,3.51-3.49,4.33a25.29,25.29,0,0,0-4.11,2.8c-.83.72-2.84,2.44-1.73,3.89a4.23,4.23,0,0,0,2.7,1.09,8.41,8.41,0,0,0,3,.09c-.89.23-1.79.42-2.69.6l-3.36.66-.36.08-.21,0c-6.66,1.65-12.86,10.27-.61,15.43.74.29,1.53.58,2.36.86C69.67,182.33,79.81,177.47,76.67,169.54Z"/><path class="cls-5" d="M78.8,142.31a2.88,2.88,0,0,0-2.88,2.88v31.26a2.88,2.88,0,0,0,2.88,2.88h27.74a2.27,2.27,0,0,0,2.26-2.27v-.13a2.26,2.26,0,0,0-2.26-2.27H92.14a2.27,2.27,0,0,1-2.27-2.27h0a2.27,2.27,0,0,1,2.27-2.26h14.4a2.27,2.27,0,0,0,2.26-2.27v-.13a2.27,2.27,0,0,0-2.26-2.27H92.14a2.27,2.27,0,0,1-2.27-2.26v-14A2.27,2.27,0,0,1,92.14,147h14.4a2.26,2.26,0,0,0,2.26-2.26v-.13a2.26,2.26,0,0,0-2.26-2.27H78.8Z"/><path class="cls-5" d="M116.53,142.31a4.62,4.62,0,0,0-4.61,4.61v27.79a4.62,4.62,0,0,0,4.61,4.62h23.66a4.61,4.61,0,0,0,4.61-4.62V147h0a4.61,4.61,0,0,0-4.6-4.61l-14.33-.05Zm23.61,9.28v18.46a4.62,4.62,0,0,1-4.62,4.61h-5a4.62,4.62,0,0,1-4.62-4.61V151.59a4.62,4.62,0,0,1,4.62-4.62h5A4.62,4.62,0,0,1,140.14,151.59Z"/><path class="cls-5" d="M43.81,160v0a0,0,0,0,1,0,0Z"/><path class="cls-6" d="M37.42,208.94h0a5.82,5.82,0,0,1,1.67-9.09h0a42.61,42.61,0,0,1,17.19-4.61l63.64-3.31a28.33,28.33,0,0,1,16.71,4.4h0a6.54,6.54,0,0,1,2.83,7.09h0a12.57,12.57,0,0,1-12.19,9.51H46.39A12.08,12.08,0,0,1,37.42,208.94Z"/><circle class="cls-6" cx="56" cy="205.56" r="7.37" transform="translate(-127.59 97.46) rotate(-44.27)"/><path class="cls-6" d="M60.14,205.56A4.14,4.14,0,1,1,56,201.42,4.13,4.13,0,0,1,60.14,205.56Z"/><path class="cls-6" d="M123.6,205.56a4.14,4.14,0,1,1-4.13-4.14A4.13,4.13,0,0,1,123.6,205.56Z"/><circle class="cls-6" cx="119.47" cy="205.56" r="7.37" transform="translate(-102.98 289.47) rotate(-80.5)"/><path class="cls-6" d="M60.72,195,72,189.76a53.19,53.19,0,0,1,22.34-4.93h0a53,53,0,0,1,15.36,2.28l18.88,5.71"/><path class="cls-6" d="M62.79,194.9l12.78,10.89A14.44,14.44,0,0,0,85,209.25h28.13"/><path class="cls-6" d="M123.28,192l10.79-4.42a3.5,3.5,0,0,1,4.06,5.42l-2.3,2.89"/><line class="cls-6" x1="35.96" y1="204.32" x2="48.73" y2="204.32"/><line class="cls-6" x1="63.38" y1="204.32" x2="112.2" y2="204.32"/><line class="cls-6" x1="126.73" y1="204.32" x2="139.2" y2="204.32"/><polygon class="cls-5" points="86.35 201.03 85 201.03 84.44 200.25 84.44 198.33 86.35 201.03"/><polygon class="cls-5" points="87.93 201.03 89.29 201.03 85.84 196.15 84.48 196.15 87.93 201.03"/><polygon class="cls-5" points="90.87 201.03 92.22 201.03 88.78 196.15 87.42 196.15 90.87 201.03"/><polygon class="cls-5" points="93.8 201.03 95.16 201.03 91.71 196.15 90.35 196.15 93.8 201.03"/><polygon class="cls-5" points="96.74 201.03 98.1 201.03 94.65 196.15 93.29 196.15 96.74 201.03"/><polygon class="cls-5" points="99.67 201.03 101.03 201.03 97.58 196.15 96.23 196.15 99.67 201.03"/><polygon class="cls-5" points="102.61 201.03 103.97 201.03 100.52 196.15 99.16 196.15 102.61 201.03"/><polygon class="cls-5" points="105.55 201.03 106.91 201.03 103.45 196.15 102.1 196.15 105.55 201.03"/><polygon class="cls-5" points="108.45 201.03 109.81 201.03 106.36 196.15 105 196.15 108.45 201.03"/><polygon class="cls-5" points="109.81 196.88 109.81 198.8 107.94 196.15 109.3 196.15 109.81 196.88"/><line class="cls-6" x1="90.88" y1="184.83" x2="104.5" y2="192.73"/><line class="cls-6" x1="74.96" y1="188.51" x2="70.84" y2="194.48"/><line class="cls-6" x1="56" y1="201.42" x2="56" y2="209.69"/><line class="cls-6" x1="119.47" y1="201.42" x2="119.47" y2="209.69"/><text class="cls-7" transform="translate(30.03 226.97)">サイバーワイヤーシティ</text></g></g></svg>