<svg xmlns="http://www.w3.org/2000/svg" viewBox="0 0 263.45 260.34"><defs><style>.cls-1{fill:#491d7f;}.cls-2{fill:#f46188;}.cls-3{fill:#642ab6;}.cls-4{font-size:12px;font-family:MS-UIGothic, MS UI Gothic;}.cls-4,.cls-6{fill:#fff;}.cls-5{fill:#56f163;}.cls-7{fill:none;stroke:#fff;stroke-miterlimit:10;stroke-width:1.41px;}</style></defs><g id="Layer_2" data-name="Layer 2"><g id="Layer_2-2" data-name="Layer 2"><polygon class="cls-1" points="195.05 260.34 260.35 260.34 260.35 195.04 195.05 260.34"/><polygon class="cls-1" points="166.75 18.27 166.75 20.11 210.05 20.11 218 11.67 260.35 11.67 260.35 3.6 3.61 3.6 3.61 260.34 17.7 260.34 17.7 243.24 9.26 235.5 9.26 207.77 19.15 207.77 19.15 170.71 16.53 170.71 16.53 143.52 9.26 143.52 9.26 138.99 11.2 138.99 11.2 101.92 11.88 101.92 11.88 138.99 13.72 138.99 13.72 101.92 14.4 101.92 14.4 138.99 16.24 138.99 16.24 101.92 16.92 101.92 16.92 138.99 18.76 138.99 18.76 101.92 19.44 101.92 19.44 138.99 21.29 138.99 21.29 101.92 21.96 101.92 21.96 138.99 23.81 138.99 23.81 96.86 15.37 89.13 15.37 29.4 13.82 29.4 13.82 23.54 20.22 23.54 20.22 29.4 18.52 29.4 18.52 77.41 27.23 85.39 27.23 144.59 21.77 144.59 21.77 163.78 27.23 163.78 27.23 168.22 23.37 168.22 23.37 170.36 27.23 170.36 27.23 172.49 23.37 172.49 23.37 174.62 27.23 174.62 27.23 176.76 23.37 176.76 23.37 178.89 27.23 178.89 27.23 181.02 23.37 181.02 23.37 183.16 27.23 183.16 27.23 185.29 23.37 185.29 23.37 187.42 27.23 187.42 27.23 189.56 23.37 189.56 23.37 191.69 27.23 191.69 27.23 193.82 23.37 193.82 23.37 195.95 27.23 195.95 27.23 198.09 23.37 198.09 23.37 200.22 27.23 200.22 27.23 202.35 23.37 202.35 23.37 204.49 27.23 204.49 27.23 206.62 23.37 206.62 23.37 208.75 27.23 208.75 27.23 210.88 23.37 210.88 23.37 213.02 27.23 213.02 27.23 215.15 23.37 215.15 23.37 217.28 27.23 217.28 27.23 219.98 20.02 226.58 20.02 260.34 182.7 260.34 260.35 182.69 260.35 14.82 230.05 14.82 221.84 23.54 160.99 23.54 160.99 18.07 141.26 18.07 141.26 23.54 136.69 23.54 136.69 19.68 134.5 19.68 134.5 23.54 132.3 23.54 132.3 19.68 130.11 19.68 130.11 23.54 127.92 23.54 127.92 19.68 125.72 19.68 125.72 23.54 123.53 23.54 123.53 19.68 121.34 19.68 121.34 23.54 119.15 23.54 119.15 19.68 116.95 19.68 116.95 23.54 114.76 23.54 114.76 19.68 112.57 19.68 112.57 23.54 110.38 23.54 110.38 19.68 108.18 19.68 108.18 23.54 105.99 23.54 105.99 19.68 103.8 19.68 103.8 23.54 101.6 23.54 101.6 19.68 99.41 19.68 99.41 23.54 97.22 23.54 97.22 19.68 95.03 19.68 95.03 23.54 92.83 23.54 92.83 19.68 90.64 19.68 90.64 23.54 88.45 23.54 88.45 19.68 86.25 19.68 86.25 23.54 83.48 23.54 76.69 16.33 33.26 16.33 33.26 18.37 27.23 18.37 27.23 11.96 33.26 11.96 33.26 14 59.58 14 67.53 5.56 96.03 5.56 96.03 15.46 134.13 15.46 134.13 12.84 162.09 12.84 162.09 5.56 166.75 5.56 166.75 7.5 204.85 7.5 204.85 8.18 166.75 8.18 166.75 10.02 204.85 10.02 204.85 10.7 166.75 10.7 166.75 12.55 204.85 12.55 204.85 13.22 166.75 13.22 166.75 15.07 204.85 15.07 204.85 15.75 166.75 15.75 166.75 17.59 204.85 17.59 204.85 18.27 166.75 18.27"/><polygon class="cls-2" points="257.66 257.2 257.66 231.31 252.98 236 252.98 252.51 236.46 252.51 231.78 257.2 257.66 257.2"/><polygon class="cls-3" points="247.03 246.28 247.03 220.4 242.35 225.08 242.35 241.6 225.83 241.6 221.15 246.28 247.03 246.28"/><rect class="cls-2" x="257.66" y="26.77" width="5.79" height="81.09"/><rect class="cls-2" y="32.01" width="6.98" height="66.35"/><rect class="cls-2" y="110" width="6.98" height="6.69"/><path class="cls-3" d="M251.18,116.69v60.82h-4.66v-8.73h-3.88v8.73H238v-8.73h-3.88v8.73h-4.66v-8.73h-3.88v8.73h-4.66v-8.73H217v8.73h-4.65v-8.73h-16l-49.54,49.53v28H43.45v3.59s135.61,1,136.58,0,74.69-73,74.69-74.69V116.69Z"/><path class="cls-2" d="M239.2,39.37v77.9H207.77v85.51l-.18.17L203,207.32c-2.76,2.66-6.5,6.26-10.37,10-7.73,7.53-16,15.77-18.21,18.44a5.8,5.8,0,0,0-.46.63h0l-.11.3-.19.14-.25.1a5.05,5.05,0,0,1-.57.1q-.69.09-1.95.15c-1.66.09-4.07.16-7.09.22-6,.1-14.45.15-24.08.15-31.61,0-76.18-.47-91.15-.63a2.57,2.57,0,0,1-2.52,2,2.63,2.63,0,1,1,0-5.25,2.6,2.6,0,0,1,2.5,2.08c15,.17,59.53.63,91.13.63,16.06,0,28.8-.12,32.5-.45a6,6,0,0,0,.75-.1l.05-.09.32-.45c.26-.34.63-.78,1.1-1.3.93-1,2.25-2.43,3.84-4.05,3.17-3.24,7.39-7.42,11.61-11.54,7.76-7.58,15.5-15,16.7-16.13V116.11H238V40.53H44L19.16,15.71h-8.1V5.13A2.59,2.59,0,0,1,9,2.63a2.63,2.63,0,1,1,5.26,0,2.59,2.59,0,0,1-2,2.5v9.42h7.42L44.46,39.37Z"/><path class="cls-2" d="M78.78,221.56h6.15l-11,11H67.77Zm24.7,0H97.33l-11,11h6.15Zm-9.27,0H88.06l-11,11h6.14Zm46.37,0h-6.15l-11,11h6.15Zm-27.82,0h-6.15l-11,11h6.15Zm18.55,0h-6.15l-11,11h6.15Zm-9.28,0h-6.15l-11,11H111Z"/><text class="cls-4" transform="translate(94.78 201.7)">ベクター<tspan x="6.09" y="14.4">背景</tspan></text><path class="cls-5" d="M90.16,103c-.3-.27-.59-.55-.89-.84.9.15,1.8.32,2.68.51a.93.93,0,0,1-.43.4,1,1,0,0,1-.61.06Z"/><path class="cls-5" d="M83.89,106.53a1.07,1.07,0,0,1,1-.81h.77c.33.25.66.48,1,.72C85.73,106.44,84.81,106.47,83.89,106.53Z"/><path class="cls-5" d="M89.26,104.58c0-.11.08-.22.13-.33l.14-.32c-.75-.65-1.49-1.31-2.21-2l-.33.71C87.73,103.3,88.48,104,89.26,104.58Z"/><path class="cls-5" d="M89.63,103.71l.29-.65q-1.69-1.56-3.31-3.3a1.08,1.08,0,0,0,.16,1.26C87.68,102,88.65,102.85,89.63,103.71Z"/><path class="cls-5" d="M89.72,108.16a1,1,0,0,0-.44-1c-1.07-.72-2.13-1.48-3.17-2.29l-.25.73C87.11,106.48,88.41,107.36,89.72,108.16Z"/><path class="cls-5" d="M88.91,105.46l.26-.66c-.78-.61-1.55-1.26-2.29-1.93-.11.24-.2.48-.3.72C87.35,104.24,88.12,104.87,88.91,105.46Z"/><path class="cls-5" d="M88.6,106.36l.22-.67c-.79-.59-1.56-1.21-2.33-1.85l-.29.72Q87.39,105.51,88.6,106.36Z"/><path class="cls-6" d="M94.29,93.86l.52.52A31.51,31.51,0,0,0,91.72,98c-.23.33-.47.64-.68,1l-.65,1-.59,1a5.36,5.36,0,0,0-.28.53l-.28.53-.55-.54A30.66,30.66,0,0,1,94.29,93.86Z"/><path class="cls-5" d="M87.32,106.9l-.3,1c-.09.34-.16.69-.24,1H86c.18-.85.4-1.69.65-2.52Z"/><path class="cls-6" d="M106.58,88.41c0-.41,0-.82,0-1.23.53.74,1,1.48,1.53,2.26a1,1,0,0,1-.58,0A1.09,1.09,0,0,1,107,89Z"/><path class="cls-6" d="M99.62,86.5a1.05,1.05,0,0,1,1.26.13l.55.53c.07.41.13.81.2,1.22C101,87.73,100.31,87.11,99.62,86.5Z"/><path class="cls-6" d="M104.79,88.91l.66-.26c-.08-1-.14-2-.15-3a6.39,6.39,0,0,0-.73.27C104.62,86.94,104.69,87.93,104.79,88.91Z"/><path class="cls-6" d="M105.68,88.56l.33-.13.33-.11c0-.77,0-1.55-.06-2.33s0-1.57,0-2.35a1,1,0,0,0-.78,1C105.54,86,105.58,87.25,105.68,88.56Z"/><path class="cls-6" d="M102.59,91.78a1,1,0,0,0,.43-1c-.25-1.27-.46-2.57-.62-3.87-.24.1-.46.23-.7.35C101.93,88.76,102.22,90.27,102.59,91.78Z"/><path class="cls-6" d="M103.92,89.3l.65-.29c-.12-1-.19-2-.25-3l-.72.28C103.68,87.33,103.79,88.32,103.92,89.3Z"/><path class="cls-6" d="M103.07,89.71c.21-.11.42-.22.63-.31-.14-1-.26-2-.35-3l-.71.32c.06.5.12,1,.19,1.48S103,89.22,103.07,89.71Z"/><path class="cls-6" d="M115.93,84.89v.74a31.47,31.47,0,0,0-4.75.38,29.5,29.5,0,0,0-4.63,1.13v-.78a32.25,32.25,0,0,1,4.64-1.1A32.82,32.82,0,0,1,115.93,84.89Z"/><path class="cls-6" d="M94.81,94.38l-.52-.52a31.81,31.81,0,0,1,3.47-3,31.2,31.2,0,0,1,3.88-2.44l.14.76a30.12,30.12,0,0,0-7,5.19Z"/><path class="cls-6" d="M128.48,89.73c.27-.3.55-.6.84-.89q-.23,1.35-.51,2.67a.84.84,0,0,1-.39-.42,1,1,0,0,1-.07-.61Z"/><path class="cls-6" d="M124.9,83.46a1.06,1.06,0,0,1,.81,1v.77c-.25.33-.48.66-.72,1C125,85.3,125,84.38,124.9,83.46Z"/><path class="cls-6" d="M126.85,88.82l.33.14.32.14c.65-.75,1.31-1.49,2-2.22l-.71-.32C128.13,87.3,127.48,88.05,126.85,88.82Z"/><path class="cls-6" d="M127.72,89.2l.65.29q1.56-1.71,3.3-3.31a1.08,1.08,0,0,0-1.26.16C129.48,87.25,128.58,88.22,127.72,89.2Z"/><path class="cls-6" d="M123.27,89.29a1,1,0,0,0,1-.44c.72-1.07,1.48-2.13,2.29-3.17l-.73-.25C125,86.67,124.07,88,123.27,89.29Z"/><path class="cls-6" d="M126,88.48l.66.26c.61-.78,1.26-1.55,1.93-2.29l-.72-.3C127.19,86.92,126.57,87.69,126,88.48Z"/><path class="cls-6" d="M125.07,88.17l.67.22c.59-.8,1.21-1.57,1.85-2.34l-.72-.28Q125.92,87,125.07,88.17Z"/><path class="cls-6" d="M137.57,93.86l-.52.52a30.54,30.54,0,0,0-3.63-3.09c-.32-.23-.64-.47-1-.68l-1-.65-1-.59-.53-.29-.53-.27.54-.55A30.66,30.66,0,0,1,137.57,93.86Z"/><path class="cls-6" d="M115.93,85.63v-.74a34.88,34.88,0,0,1,4.57.34,32.84,32.84,0,0,1,4.47,1l-.44.64-1-.3-1.06-.25-.53-.12-.54-.09c-.36-.06-.71-.14-1.07-.18A31.71,31.71,0,0,0,115.93,85.63Z"/><path class="cls-5" d="M143,106.15q.61,0,1.23,0c-.74.53-1.48,1-2.25,1.52a.86.86,0,0,1,0-.57,1.09,1.09,0,0,1,.38-.48Z"/><path class="cls-5" d="M144.93,99.18a1.06,1.06,0,0,1-.13,1.27l-.53.55-1.22.2C143.7,100.54,144.32,99.87,144.93,99.18Z"/><path class="cls-5" d="M142.52,104.36l.26.66c1-.08,2-.14,3-.15-.08-.25-.18-.49-.28-.73C144.49,104.19,143.5,104.26,142.52,104.36Z"/><path class="cls-5" d="M142.87,105.24l.13.33.11.34c.77,0,1.55-.06,2.33-.06s1.57,0,2.35.05a1.07,1.07,0,0,0-.38-.57,1,1,0,0,0-.62-.22C145.47,105.11,144.18,105.15,142.87,105.24Z"/><path class="cls-5" d="M139.65,102.16a1,1,0,0,0,1,.43c1.27-.25,2.57-.46,3.87-.62-.1-.24-.23-.47-.35-.7C142.67,101.5,141.17,101.79,139.65,102.16Z"/><path class="cls-5" d="M142.13,103.49l.29.65c1-.12,2-.2,3-.25l-.28-.72C144.11,103.25,143.11,103.36,142.13,103.49Z"/><path class="cls-5" d="M141.72,102.63c.11.21.22.42.31.64,1-.14,2-.26,3-.35l-.32-.71-1.48.19Z"/><path class="cls-5" d="M145.84,109h-.75c-.22-1-.49-1.93-.8-2.87h.78C145.37,107.05,145.63,108,145.84,109Z"/><path class="cls-6" d="M137.05,94.38l.52-.52a30.89,30.89,0,0,1,3,3.47,31.2,31.2,0,0,1,2.44,3.88l-.76.14a31.35,31.35,0,0,0-2.34-3.68A31.85,31.85,0,0,0,137.05,94.38Z"/><path class="cls-6" d="M167.05,70.78,136.86,101a1.48,1.48,0,0,0,0,2.1l6.86,6.87a3.08,3.08,0,0,0,4.35,0l29.07-29.07a3.08,3.08,0,0,0,0-4.35l-5.74-5.75A3.08,3.08,0,0,0,167.05,70.78Z"/><path class="cls-7" d="M133,107.59,79.7,160.93a1.67,1.67,0,0,0,1.54,2.82h0A88.19,88.19,0,0,0,124.66,140l20.39-20.39-.82-9.75-6.72-6.72Z"/><polygon class="cls-6" points="144.68 119.96 136.94 112.22 145.02 119.25 144.68 119.96"/><path class="cls-6" d="M60.29,70.78l-5.75,5.75a3.08,3.08,0,0,0,0,4.35L83.61,110A3.08,3.08,0,0,0,88,110l6.87-6.87a1.48,1.48,0,0,0,0-2.1l-30.2-30.2A3.07,3.07,0,0,0,60.29,70.78Z"/><path class="cls-7" d="M127.85,136.79,152,160.93a1.68,1.68,0,0,1-1.55,2.82h0a88.21,88.21,0,0,1-34.6-16.05"/><polyline class="cls-7" points="103.83 136.79 86.64 119.59 87.45 109.84 94.18 103.12 98.64 107.58 115.84 124.78"/><polygon class="cls-6" points="87 119.96 94.75 112.22 86.67 119.25 87 119.96"/><path class="cls-6" d="M160.83,133.89c0,7.6-20.46,13.76-45.7,13.76s-45.71-6.16-45.71-13.76c0-2.71,2.59-5.23,7.06-7.35-2.18,1.53-3.38,3.22-3.38,5,0,7,18.82,12.66,42,12.66s42-5.67,42-12.66c0-1.77-1.2-3.46-3.38-5C158.24,128.66,160.83,131.18,160.83,133.89Z"/><path class="cls-6" d="M160.83,124c0,7.6-20.46,13.76-45.7,13.76S69.42,131.6,69.42,124c0-2.7,2.59-5.22,7.06-7.35-2.18,1.53-3.38,3.22-3.38,5,0,7,18.82,12.65,42,12.65s42-5.66,42-12.65c0-1.77-1.2-3.46-3.38-5C158.24,118.78,160.83,121.3,160.83,124Z"/><path class="cls-6" d="M115.12,96a8.15,8.15,0,1,0,8.15,8.15A8.15,8.15,0,0,0,115.12,96Zm1.42,5.45a.58.58,0,0,1,.58-.58.59.59,0,0,1,.42.17.61.61,0,0,1,.17.41v1.21a.59.59,0,1,1-1.17,0Zm-4,0a.58.58,0,0,1,.59-.58.58.58,0,0,1,.58.58v1.21a.59.59,0,1,1-1.17,0Zm2.58,8.39a5.69,5.69,0,0,1-5.69-5.69h.86a4.84,4.84,0,1,0,9.67,0h.86A5.7,5.7,0,0,1,115.12,109.86Z"/></g></g></svg>