<svg xmlns="http://www.w3.org/2000/svg" viewBox="0 0 252.68 265.63"><defs><style>.cls-1{fill:#491d7f;}.cls-2{fill:#f46188;}.cls-3{fill:#642ab6;}.cls-4{font-size:12px;font-family:MS-UIGothic, MS UI Gothic;}.cls-4,.cls-5,.cls-6{fill:#fff;}.cls-6{font-size:14.88px;font-family:KozGoPr6N-Regular-90ms-RKSJ-H, Kozuka Gothic Pr6N;}</style></defs><g id="Layer_2" data-name="Layer 2"><g id="Layer_2-2" data-name="Layer 2"><path class="cls-1" d="M41.41,7.62,20.76,28.27v61.5H11.25V129H2.83V250.4H245.61V7.62ZM172.66,209.49h-52.6L92.73,236.82H15.53V100.25H34.92v16.1h54.9l16.1-16.1h66.74Z"/><polygon class="cls-2" points="211.99 13.16 206.38 18.77 200.76 13.16 197.58 16.34 203.2 21.95 197.58 27.57 200.76 30.75 206.38 25.13 211.99 30.75 215.17 27.57 209.56 21.95 215.17 16.34 211.99 13.16"/><polygon class="cls-3" points="15.93 76.52 12.68 76.52 12.68 73.26 10.83 73.26 10.83 76.52 7.58 76.52 7.58 78.36 10.83 78.36 10.83 81.61 12.68 81.62 12.68 78.36 15.93 78.36 15.93 76.52"/><polygon class="cls-3" points="15.93 64.84 12.68 64.84 12.68 61.59 10.83 61.59 10.83 64.84 7.58 64.84 7.58 66.69 10.83 66.69 10.83 69.94 12.68 69.94 12.68 66.69 15.93 66.69 15.93 64.84"/><polygon class="cls-3" points="15.93 53.17 12.68 53.17 12.68 49.92 10.83 49.91 10.83 53.17 7.58 53.17 7.58 55.01 10.83 55.01 10.83 58.27 12.68 58.27 12.68 55.01 15.93 55.01 15.93 53.17"/><polygon class="cls-3" points="15.93 41.5 12.68 41.5 12.68 38.24 10.83 38.24 10.83 41.5 7.58 41.5 7.58 43.34 10.83 43.34 10.83 46.59 12.68 46.6 12.68 43.34 15.93 43.34 15.93 41.5"/><polygon class="cls-3" points="15.93 29.82 12.68 29.82 12.68 26.57 10.83 26.57 10.83 29.82 7.58 29.82 7.58 31.67 10.83 31.67 10.83 34.92 12.68 34.92 12.68 31.67 15.93 31.67 15.93 29.82"/><path class="cls-3" d="M236.67,229V160.74H222.12V0H153.65L134.49,19.16H39.38V35.45h149V51.16H134.15V72.5h68.77V215.14H126L78.71,262.43H24.15a2.6,2.6,0,0,0-2.51-2.05,2.63,2.63,0,1,0,0,5.25,2.6,2.6,0,0,0,2.51-2H79.2l47.28-47.28h77.6v-145H135.31v-19h54.22v-18h-149v-14H135L154.13,1.16H221V161.9h14.55v65.9H179.64v4.47a2.58,2.58,0,0,0-2,2.5,2.63,2.63,0,1,0,5.25,0,2.59,2.59,0,0,0-2-2.5V229Z"/><rect class="cls-3" x="238.13" y="17.41" width="11.93" height="104.47"/><polygon class="cls-3" points="4.04 253.87 7.98 253.87 14.92 246.93 10.98 246.93 4.04 253.87"/><polygon class="cls-3" points="9.79 253.87 13.72 253.87 20.66 246.93 16.72 246.93 9.79 253.87"/><polygon class="cls-3" points="15.53 253.87 19.46 253.87 26.4 246.93 22.46 246.93 15.53 253.87"/><polygon class="cls-3" points="21.27 253.87 25.2 253.87 32.14 246.93 28.2 246.93 21.27 253.87"/><polygon class="cls-3" points="27 253.87 30.94 253.87 37.88 246.93 33.94 246.93 27 253.87"/><rect class="cls-2" y="145.41" width="5.35" height="5.35"/><rect class="cls-2" y="162.87" width="5.35" height="5.35"/><rect class="cls-2" y="180.33" width="5.35" height="5.35"/><rect class="cls-2" y="197.79" width="5.35" height="5.35"/><rect class="cls-2" x="121.25" y="97.72" width="33.56" height="4.85"/><rect class="cls-2" x="168.78" y="138.27" width="6.98" height="30.26"/><rect class="cls-2" x="168.78" y="175.52" width="6.98" height="8.15"/><rect class="cls-2" x="249.19" y="129.01" width="3.49" height="10.38"/><rect class="cls-2" x="249.19" y="141.81" width="3.49" height="9.5"/><rect class="cls-2" x="249.19" y="154.61" width="3.49" height="8.62"/><rect class="cls-2" x="249.19" y="167.4" width="3.49" height="7.74"/><rect class="cls-2" x="249.19" y="180.2" width="3.49" height="6.87"/><rect class="cls-2" x="249.19" y="193" width="3.49" height="5.99"/><rect class="cls-2" x="249.19" y="205.8" width="3.49" height="5.11"/><rect class="cls-2" x="249.19" y="218.59" width="3.49" height="4.23"/><rect class="cls-2" x="249.19" y="231.39" width="3.49" height="3.35"/><rect class="cls-2" x="249.19" y="244.19" width="3.49" height="2.47"/><path class="cls-2" d="M54.12,23h4L51,30.11H47ZM70,23H66L59,30.11h3.95Zm-6,0h-4L53,30.11h4Zm29.79,0H89.87L82.8,30.11h4ZM76,23H72l-7.08,7.08h4Zm11.92,0h-4l-7.08,7.08h4Zm-6,0H78l-7.08,7.08h4Z"/><rect class="cls-2" x="186.25" y="235.99" width="7.82" height="7.82" transform="translate(225.32 -64.2) rotate(45)"/><rect class="cls-2" x="202.21" y="235.99" width="7.82" height="7.82" transform="translate(230 -75.48) rotate(45)"/><rect class="cls-2" x="218.17" y="235.99" width="7.82" height="7.82" transform="translate(234.67 -86.77) rotate(45)"/><rect class="cls-2" x="234.12" y="235.99" width="7.82" height="7.82" transform="translate(239.34 -98.05) rotate(45)"/><text class="cls-4" transform="translate(44.83 95.31)">ベクター<tspan x="6.09" y="14.4">背景</tspan></text><path class="cls-5" d="M132,153.6c-13,1.12-7.79-5.92-15.25-.57s-3.86-3,.41-5.43,8.44,6.29,8.72-4.95-4.22-15.38-7.66-5.4-4.89,4.13-6.43,10.45c-1,4-6.39,3-2.18-4.47s-4.37-15.12-8.11-4.67c-3.68,10.27,9.09,14.54,1.42,23.75-.13-3.46-2.25-5.25-7.89-2-12.15,7-14,11-8,8.8s-1.2,3.14-5.13,5.52-7.8-1.14-1.24-6.83,7.88-10.44,3.92-8.62-2.34-1.81,3.59-5.89,10.86-15.89-1-13a26.87,26.87,0,0,0-12.54,6.58h0a31.51,31.51,0,0,0-5.46,5.88c2-7.16,2.75-16.1-2.72-7.18C60,156,60.33,158.27,58.54,159.88c-2.18,2-2.13-.62-.92-2.84s-.92-3.18-2.61-2.75-3.25-1.81-1.74-3.58c6.42-5.26,6.94-15.54-4.56-9.9s-13.68,8.05-5,4.61c7.08-2.81,4,.88,2.71,2.31a5.9,5.9,0,0,0-.49.51l0,0h0c-3.09,3.62-2.25,11.07,1.78,11.16,4.63.1,8.92-4,7.69-.84s-5,9-1.31,6.85,5.9-5.69,3.3-.51c-1.1,2.19-3,4.84-4.67,7.6h0c-4,6.27-5.73,5.53-4.87,2.29,1.46-5.55,5.38-13,0-6.81s-5.13,19.31,5.09,18.29h0c4-.3,9.36-3.72,9-9-.56-8.29-.33-23.8.59-19.42.68,3.18,1.86,4.53,3.51,2.34-.52,4.08,1.63,6.73,5.82,6,5.9-1.08,3.44-6.89,8-11.49,4.89-4.25,8.13-5.42,8.13-5.42-4.75,5.12-13.36,12.45-8.88,12.94s-9.63,5.76-8.34,15.2,19.9,6.51,27.1-1.72a19.65,19.65,0,0,0,2.54-3.87c2.07,2.18,6.84,2.25,10.37-.16,6.35-4.33-8-13.4-.8-18.6,3.4-2.47-4.3,10.91,4.69,5.28,5.13-3.22,2.78,2.72,1.77,7.38-.81,2.89-5.14,17.37,4.93,15.08,14.16-3.21,15.14-11.63,5.13-8.67s-10.79.68-2.85-4.44h0C133.37,161.76,143.6,152.6,132,153.6Z"/><path class="cls-5" d="M133,141.16c-3.63,2.12-5.54,5.62-4.26,7.8s5.26,2.23,8.89.11,5.54-5.62,4.26-7.8S136.63,139,133,141.16Z"/><path class="cls-5" d="M89.68,155.63l-.6.42-.79.57.56.8a1.26,1.26,0,0,0,.11.17,3.67,3.67,0,0,1,.5,1.23l.29,1.39,1.21-.75c.81-.5,1.69-1,2.62-1.56h0c1.23-.71,4.49-2.61,7.55-2l1.65.33-.51-1.6a23.12,23.12,0,0,0-1.54-3.37,27.91,27.91,0,0,1-2.18-5.05l-.93-3.16-1,3.14A19.65,19.65,0,0,1,89.68,155.63Zm7.87-6.36c.47,1.08,1,2.06,1.42,2.92.3.57.57,1.11.81,1.61a15.27,15.27,0,0,0-7.2,2.38l-1.44.85A22,22,0,0,0,97.55,149.27Z"/><path class="cls-5" d="M146,138.84c-2.7-4.61-9.34-5.4-15.45-1.82l-.21.12c-.77-5.94-3.21-9.57-6.9-10.24-2.7-.49-6.38.41-9.15,7a12.55,12.55,0,0,0-.69-1.18,8.54,8.54,0,0,0-8.19-4c-2.17.27-6.16,1.69-8.5,8.22l-.15.44c-1.75-1.7-5-3.15-10.81-1.73a33.61,33.61,0,0,0-11.17,4.88,5.44,5.44,0,0,0-2.88-3c-1.05-.46-3.79-1.22-6.66,1.61a20.19,20.19,0,0,0-2.7,3.55,8.48,8.48,0,0,0-1.27-4.73c-1.27-2-5.24-6.08-14.7-1.45-3.41,1.67-6.25,3.18-8.21,4.37A21.39,21.39,0,0,0,36,142.49c-3.27,2.61-2.31,5.54-1.94,6.37a4.94,4.94,0,0,0,5.36,2.89,13.38,13.38,0,0,0,.9,7.35,8.54,8.54,0,0,0,4.83,4.66c-.35.37-.67.74-1,1.08-4.72,5.39-6.08,14.17-3.08,20a11.24,11.24,0,0,0,7,5.82l.09,0a16.65,16.65,0,0,0,12.31-2.07,13.38,13.38,0,0,0,6-8.37,11.39,11.39,0,0,0,7.85,7.11,21.26,21.26,0,0,0,8.15.62c7.31-.72,14.74-4.3,18.95-9.11.24-.28.49-.57.73-.89a14.43,14.43,0,0,0,8-.63,10.38,10.38,0,0,0,2.6,5.83,9,9,0,0,0,7.83,2.63,14.23,14.23,0,0,0,1.81-.3c8.25-1.87,14-5.68,15.24-10.19a6.43,6.43,0,0,0-1.61-6.44,7.09,7.09,0,0,0-3-1.74c1.32-1,2.53-2,3.55-2.91,3.12-2.82,6.52-6.6,5.15-10.85a6.25,6.25,0,0,0-.33-.81l-.08-.1C146.49,148.81,148.55,143.15,146,138.84ZM66.41,172c0-.58,0-1.14,0-1.67a5.89,5.89,0,0,0,.58.24A13.06,13.06,0,0,0,66.41,172Zm72.81-20.56-.76.43a11.89,11.89,0,0,1,1.07,1.6,3.76,3.76,0,0,1,.23.55c1,3.17-1.92,6.35-4.59,8.76a58.7,58.7,0,0,1-5.29,4.17l-2.39,1.69,2.93.12a5.9,5.9,0,0,1,4.11,1.56,4.49,4.49,0,0,1,1.1,4.49c-1.09,3.8-6.24,7.08-13.77,8.79a12.24,12.24,0,0,1-1.57.26,7.12,7.12,0,0,1-6.19-2,9.13,9.13,0,0,1-2.19-6l-.08-1.47-1.34.63a12.5,12.5,0,0,1-8.55.9l-.67-.19-.4.56c-.33.46-.68.89-1,1.28C96,182,89,185.31,82.21,186a19.32,19.32,0,0,1-7.39-.56c-3.92-1.17-6.46-4-7-7.64a12,12,0,0,1,1.37-7.44l.6-1.14-1.27-.29A6.8,6.8,0,0,1,66,167.75l-1.6-1.18v2c0,2.22.09,5.51.29,8.54a11,11,0,0,1-5.32,9.84,14.85,14.85,0,0,1-10.7,1.81l-.06,0a9.32,9.32,0,0,1-5.75-4.82c-2.64-5.14-1.41-12.94,2.83-17.78A18,18,0,0,1,47.77,164l1.87-1.55-2.42-.21a6.22,6.22,0,0,1-5.13-3.92,11.7,11.7,0,0,1-.55-7.29l.21-.94-1.66-.43-.23,0c-2,.39-3.38-.15-4-1.61-.36-.81-.66-2.41,1.36-4a21.25,21.25,0,0,1,2.21-1.48c1.92-1.16,4.7-2.64,8.06-4.28,8-3.93,11.18-.8,12.16.73,1.81,2.81,1,7.44-2,11.27l-.8,1,1.2.5.42.2.89.48.46-.9c1.18-2.3,2.56-4.74,4.22-7.45a19.75,19.75,0,0,1,2.67-3.6c1.93-1.9,3.62-1.57,4.46-1.2a3.8,3.8,0,0,1,2.16,3l.32,1.6,1.28-1,.1-.08.12-.09h0a31.18,31.18,0,0,1,11.34-5.17c6.19-1.51,8.81.52,9.91,2.49l1.33,2.36.51-2.66a15.58,15.58,0,0,1,.6-2.16c2-5.52,5.16-6.71,6.87-6.92h.15a6.62,6.62,0,0,1,6.15,3.15,9.34,9.34,0,0,1,1.34,3.2l.7,3.39,1.2-3.25c.1-.26.19-.54.3-.84,1.31-3.8,3.69-8.18,7.59-7.48,2.86.52,4.76,3.71,5.35,9l.12,3.08,1-.84a15.36,15.36,0,0,1,2-1.36,14.1,14.1,0,0,1,5.62-1.92c3.09-.3,5.77.74,7.12,3C146.42,143.44,144.23,148.38,139.22,151.39Z"/><text class="cls-6" transform="translate(67.95 202.26)">キッズ</text></g></g></svg>