<svg xmlns="http://www.w3.org/2000/svg" viewBox="0 0 267.95 282.71"><defs><style>.cls-1{fill:#491d7f;}.cls-2{fill:#f46188;}.cls-3{fill:#642ab6;}.cls-4{font-size:12px;font-family:MS-UIGothic, MS UI Gothic;}.cls-4,.cls-5,.cls-8{fill:#fff;}.cls-6,.cls-7{fill:none;stroke:#fff;stroke-miterlimit:10;}.cls-6{stroke-width:2.99px;}.cls-7{stroke-width:1px;}.cls-8{font-size:11.56px;font-family:KozGoPr6N-Regular-90ms-RKSJ-H, Kozuka Gothic Pr6N;}</style></defs><g id="Layer_2" data-name="Layer 2"><g id="Layer_2-2" data-name="Layer 2"><path class="cls-1" d="M268,45.82V13.24H11.87V269.32H199.54l17.9-17.9h37.64V204.86L268,192V169.91L255.33,157.3V145L268,157.56v-6.27l-12.62-12.62V126.33L268,138.94v-6.28l-12.62-12.61V107.7L268,120.32V114l-12.62-12.61V89.08L268,101.69V95.42L255.33,82.8V70.46L268,83.07V76.79L255.33,64.18V51.83L268,64.45V58.17L255.33,45.56V33.21ZM20.35,240.17V48.5H89.41v7.37H77.33v3.78H89.41v4.66H77.33v3.78H89.41v4.66H77.33v3.78H89.41v4.66H77.33V85H89.41v4.66H77.33v3.78H89.41v4.65H77.33v3.79H89.41v4.65H77.33v3.79H89.41v4.65H77.33v3.79H89.41v4.65H77.33v3.78H89.41v4.66H77.33v3.78H89.41v4.66H77.33V144H89.41v4.66H77.33v3.78H89.41v4.66H77.33v3.78H89.41v4.65H77.33v3.79H89.41V174H77.33v3.79H89.41v4.65H77.33v3.79H89.41v4.65H77.33v3.78H89.41v4.66H77.33v3.78H89.41v4.66H77.33v3.78H89.41v4.66H77.33V220H89.41v4.66H77.33v3.78H89.41v4.66H77.33v3.78H89.41v3.3Z"/><path class="cls-2" d="M21.05,38.93H19.5L36.83,21.6h4.85L34,29.28H30.7Zm17.09-9.65h3.3l7.68-7.68H44.27L26.94,38.93h1.55Zm7.43,0h3.31l7.68-7.68H51.7L34.38,38.93h1.55Zm7.44,0h3.3L64,21.6H59.14L41.81,38.93h1.56Zm7.44,0h3.3l7.69-7.68H66.58L49.25,38.93h1.56Zm7.44,0h3.3l7.68-7.68H74L56.69,38.93h1.55Zm7.44,0h3.3l7.68-7.68H81.46L64.13,38.93h1.55Zm7.44,0h3.3l7.68-7.68H88.9L71.57,38.93h1.55Z"/><circle class="cls-2" cx="30.09" cy="251.03" r="5.01"/><circle class="cls-2" cx="47.78" cy="251.03" r="5.01"/><circle class="cls-2" cx="65.47" cy="251.03" r="5.01"/><circle class="cls-2" cx="83.16" cy="251.03" r="5.01"/><polygon class="cls-3" points="105.12 9.6 8.22 9.6 8.22 87.59 4.29 83.66 4.29 39.58 0 35.28 0 0 21.02 0 24.95 3.93 77.28 3.93 80.51 7.16 105.12 7.16 105.12 9.6"/><polygon class="cls-2" points="188.4 15.3 184.23 11.13 188.4 6.96 186.04 4.6 181.87 8.77 177.7 4.6 175.34 6.96 179.51 11.13 175.34 15.3 177.7 17.66 181.87 13.49 186.04 17.66 188.4 15.3"/><polygon class="cls-2" points="214 15.3 209.84 11.13 214 6.96 211.64 4.6 207.47 8.77 203.3 4.6 200.94 6.96 205.11 11.13 200.94 15.3 203.3 17.66 207.47 13.49 211.64 17.66 214 15.3"/><polygon class="cls-2" points="239.61 15.3 235.44 11.13 239.61 6.96 237.25 4.6 233.08 8.77 228.91 4.6 226.55 6.96 230.72 11.13 226.55 15.3 228.91 17.66 233.08 13.49 237.25 17.66 239.61 15.3"/><polygon class="cls-3" points="251.08 247.03 251.08 215.5 245.38 221.2 245.38 241.33 225.25 241.33 219.55 247.03 251.08 247.03"/><path class="cls-2" d="M259.73,21a2.19,2.19,0,0,1-2.18,2.19,2.15,2.15,0,0,1-2.07-1.61h-8.94V204.91l-53.3,53.3H114.48L91.59,281.1H36.24a2.15,2.15,0,0,1-2.07,1.61,2.19,2.19,0,0,1,0-4.38,2.16,2.16,0,0,1,2.07,1.61H91.11L114,257h78.76l52.62-52.62v-184h10.1a2.15,2.15,0,0,1,2.07-1.61A2.19,2.19,0,0,1,259.73,21Z"/><rect class="cls-2" x="2.69" y="116.98" width="4.36" height="4.36"/><rect class="cls-2" x="2.69" y="129.2" width="4.36" height="4.36"/><rect class="cls-2" x="2.69" y="141.42" width="4.36" height="4.36"/><rect class="cls-2" x="2.69" y="153.64" width="4.36" height="4.36"/><rect class="cls-2" x="2.69" y="165.87" width="4.36" height="4.36"/><rect class="cls-2" x="2.69" y="178.09" width="4.36" height="4.36"/><rect class="cls-2" x="2.69" y="190.31" width="4.36" height="4.36"/><rect class="cls-2" x="2.69" y="202.53" width="4.36" height="4.36"/><rect class="cls-2" x="2.69" y="214.75" width="4.36" height="4.36"/><rect class="cls-2" x="2.69" y="226.97" width="4.36" height="4.36"/><polygon class="cls-3" points="236.94 202.82 190.24 249.53 118.8 249.53 118.8 243.27 151.1 243.27 195.18 199.19 224.43 199.19 224.43 48.3 128.98 48.3 128.98 45.69 236.94 45.69 236.94 202.82"/><rect class="cls-2" x="131.31" y="38.93" width="14.55" height="4.87"/><rect class="cls-2" x="233.08" y="165.87" width="6.53" height="26.63"/><rect class="cls-2" x="16.47" y="87.59" width="8.62" height="99.81"/><rect class="cls-2" x="221.88" y="57.03" width="4.88" height="30.55"/><rect class="cls-2" x="128.98" y="266.55" width="31.82" height="5.43"/><rect class="cls-2" x="37.88" width="4.8" height="4.8"/><rect class="cls-2" x="46.85" width="4.8" height="4.8"/><rect class="cls-2" x="55.83" width="4.8" height="4.8"/><rect class="cls-2" x="64.8" width="4.8" height="4.8"/><text class="cls-4" transform="translate(180.94 61.48)">ベクター<tspan x="12.19" y="14.4">背景</tspan></text><path class="cls-5" d="M159.2,145.29l-9.47,15.78a7,7,0,0,1-6,3.4H139V136.89a3.24,3.24,0,0,1,3.24-3.24h9.09v7H146v12.13l11.5-19.18h8.66v16.74l-7,11.6Z"/><path class="cls-5" d="M182.85,139.47l-4,6.68H192.5V152H175.35l-4,6.67H191l-3.51,5.83H159.2v-.09l7-11.6v.05l4.95-8.27,4.51-7.51a7,7,0,0,1,6-3.4H192.5v5.82Z"/><path class="cls-5" d="M216.08,133.65v27.58a3.24,3.24,0,0,1-3.24,3.24h-9.09v-7.06h5.35V145.29l-11.51,19.18h-8.68l3.51-5.83h0l2-3.34,6.12-10.18,4.84-8.07a7,7,0,0,1,6-3.4Z"/><polygon class="cls-5" points="200.57 145.13 194.43 155.3 200.55 145.12 200.57 145.13"/><path class="cls-5" d="M120.92,126.64a18.92,18.92,0,1,0,18.91,18.91A18.94,18.94,0,0,0,120.92,126.64Zm.84,36.13h-.05v-7H129C127.3,159.68,124.71,162.34,121.76,162.77Zm-8.88-7h7.25v7h-.06C117.12,162.34,114.54,159.68,112.88,155.75Zm-9.18-9.41h5.68a28.33,28.33,0,0,0,1.27,7.83H106A17.05,17.05,0,0,1,103.7,146.34Zm16.37-18h.06v7h-7.25C114.54,131.43,117.12,128.76,120.07,128.33Zm8.89,7h-7.25v-7h.05C124.71,128.76,127.3,131.43,129,135.36Zm.59,1.58a26.76,26.76,0,0,1,1.32,7.82h-9.16v-7.82Zm-9.42,0v7.82H111a27.44,27.44,0,0,1,1.32-7.82Zm-10.75,7.82H103.7a17,17,0,0,1,2.29-7.82h4.66A28.26,28.26,0,0,0,109.38,144.76Zm1.58,1.58h9.17v7.83h-7.85A27.51,27.51,0,0,1,111,146.34Zm10.75,7.83v-7.83h9.16a26.83,26.83,0,0,1-1.32,7.83Zm10.74-7.83h5.69a17.06,17.06,0,0,1-2.3,7.83h-4.65A28.71,28.71,0,0,0,132.45,146.34Zm0-1.58a28.64,28.64,0,0,0-1.26-7.82h4.65a17.06,17.06,0,0,1,2.3,7.82Zm2.36-9.4h-4.18a17.3,17.3,0,0,0-3.79-6A17.38,17.38,0,0,1,134.81,135.36Zm-19.81-6a17,17,0,0,0-3.79,6H107A17.4,17.4,0,0,1,115,129.36Zm-8,26.39h4.19a17.2,17.2,0,0,0,3.79,6A17.4,17.4,0,0,1,107,155.75Zm19.82,6a17.49,17.49,0,0,0,3.79-6h4.18A17.38,17.38,0,0,1,126.84,161.75Z"/><path class="cls-6" d="M151.92,107.13c6.13-3.1,9.84-6.2,9.2-8.11-1-3-12.09-1.92-24.81,2.33s-22.23,10.09-21.24,13.05c.64,1.9,5.47,2.15,12.23.95"/><path class="cls-6" d="M126.23,105.34a11.19,11.19,0,0,1,21.24-7"/><path class="cls-7" d="M178.35,135.71l-30-32.43c-1-1.1-5.39-.85-11.06,1s-9.3,4.33-9.47,5.82L126,128.33"/><path class="cls-5" d="M152.54,120.22c-.07-1.63.48-4.31-1.07-5s-6-2.64-8.61-1.64c-4,1.53-5.71,2.28-5.91,4.57s-.7,4.86-1.49,5.4l-.51.36a1.41,1.41,0,0,1-.81-.68,1.42,1.42,0,0,0,.42,1.13,1.21,1.21,0,0,0,0,.42c.11.64-1.64.28-1.64.28a1.28,1.28,0,0,0,1.61.68,1.91,1.91,0,0,1,1.32,1.76c.23,1.55,0,1.46,1,1.17s1.52-1.6,1.51-2.68.63-2.92,1.78-2.33.65,1.22,1.61,1.27-.35,1.43.62,2.1,1.75.24,1.27-.33,1.53-.31.74-1-1.48-.76-1.32-1.4-.63-.31-.79-1.26,1.41-1,1.46-1.78c0,0,1.29.85,2,.46s-.36,1.65.41,1.16.48.68.87.37.28,2.69,1.18,3.68.88-.17.61-.9a3.74,3.74,0,0,1-.31-2.84c.46-1.08.79,1,.77,2.27s.29,3,.65,1.92-.29-2.13,0-3,.9-1.79.3-3,1.1-1,1.35-3.16c0,0,.36,3.29,1.6,4.13S152.62,121.84,152.54,120.22Z"/><text class="cls-8" transform="translate(121.27 178.17)">アポカリプス</text><path class="cls-5" d="M148.84,187c0-1.17.68-1.9,1.56-1.9s1.56.73,1.56,1.9-.68,1.93-1.56,1.93S148.84,188.15,148.84,187Zm2.85,0c0-1-.52-1.66-1.29-1.66s-1.29.65-1.29,1.66.52,1.69,1.29,1.69S151.69,188,151.69,187Zm-2.18,0a1,1,0,0,1,1-1.09.81.81,0,0,1,.6.27l-.19.23a.56.56,0,0,0-.39-.17c-.35,0-.58.31-.58.76s.22.82.56.82a.67.67,0,0,0,.46-.19l.18.24a.93.93,0,0,1-.66.27C149.93,188.11,149.51,187.69,149.51,187Z"/><path class="cls-5" d="M154.3,188.39l.24-.32a1.53,1.53,0,0,0,1.06.44c.5,0,.88-.26.88-.67s-.37-.73-1.34-.73v-.37c.88,0,1.21-.3,1.21-.68s-.31-.58-.75-.58a1.38,1.38,0,0,0-.91.37l-.25-.3a1.76,1.76,0,0,1,1.18-.46c.69,0,1.21.34,1.21.93a1,1,0,0,1-.78.88v0a1,1,0,0,1,.91.94c0,.65-.6,1-1.33,1A1.81,1.81,0,0,1,154.3,188.39Z"/><path class="cls-5" d="M159.69,187c0-1.23.5-1.89,1.32-1.89s1.32.66,1.32,1.89-.5,1.93-1.32,1.93S159.69,188.21,159.69,187Zm2.2,0c0-1-.37-1.51-.88-1.51s-.88.46-.88,1.51.37,1.54.88,1.54S161.89,188,161.89,187Zm-1.24,0a.36.36,0,1,1,.36.39A.36.36,0,0,1,160.65,186.94Z"/><path class="cls-5" d="M167.1,185.57H165v-.41h2.66v.29a4.68,4.68,0,0,0-1.27,3.39h-.5A5,5,0,0,1,167.1,185.57Z"/><path class="cls-5" d="M172.41,185.57h-2.12v-.41H173v.29a4.64,4.64,0,0,0-1.27,3.39h-.5A4.9,4.9,0,0,1,172.41,185.57Z"/></g></g></svg>