<svg xmlns="http://www.w3.org/2000/svg" viewBox="0 0 262.05 263.05"><defs><style>.cls-1{fill:#491d7f;}.cls-2{fill:#642ab6;}.cls-3{fill:#f46188;}.cls-4{font-size:12px;font-family:MS-UIGothic, MS UI Gothic;}.cls-4,.cls-5,.cls-6{fill:#fff;}.cls-6{font-size:12.5px;font-family:KozGoPr6N-Regular-90ms-RKSJ-H, Kozuka Gothic Pr6N;}</style></defs><g id="Layer_2" data-name="Layer 2"><g id="Layer_2-2" data-name="Layer 2"><path class="cls-1" d="M88.72,9.07V1.26H40.45V9.07h-24v245.6h245.6V9.07ZM20.43,111.8H33.07L20.43,124.45Zm0,21.7,21.69-21.7H59.78L20.43,151.15Zm0,26.71,48.4-48.41H86.48L20.43,177.86Zm0,26.7L95.54,111.8h17.65L20.43,204.56Zm0,26.71L122.24,111.8H139.9L20.43,231.27ZM157,248.38H145.91L157,237.29Zm0-20.15-20.14,20.15H119.2l37.8-37.8Zm0-26.7-46.85,46.85H92.5L157,183.87Zm0-26.71L83.44,248.38H65.79L157,157.17Zm0-26.71L56.74,248.38H39.09L157,130.46Zm0-26.7-127,127h-9.6v-8.06L149,111.8H157Z"/><polygon class="cls-2" points="94.02 15.22 140.57 15.22 144.79 11.01 192.37 11.01 192.37 15.22 248.82 15.22 248.82 46.94 254.35 46.94 254.35 74.01 250.79 77.56 250.79 162.6 254.35 162.6 254.35 82.48 261 75.83 261 33.85 256.95 29.8 256.95 6.79 200.81 6.79 195.28 1.26 137.66 1.26 126.61 12.31 94.02 12.31 94.02 15.22"/><polygon class="cls-3" points="256.37 247.49 256.37 196 247.05 205.31 247.05 238.18 214.19 238.18 204.87 247.49 256.37 247.49"/><polygon class="cls-3" points="12.22 21.43 12.22 83.42 6.11 83.42 6.11 116.01 12.22 116.01 12.22 221.74 9.17 221.74 9.17 121.59 0 121.59 0 72.71 9.63 63.08 9.63 21.43 12.22 21.43"/><rect class="cls-3" x="9.64" y="16.65" width="2.59" height="2.59"/><rect class="cls-3" x="9.64" y="11.99" width="2.59" height="2.59"/><polygon class="cls-3" points="239.85 34.9 233.96 34.9 233.96 29 230.62 29 230.62 34.9 224.72 34.9 224.72 38.23 230.62 38.23 230.62 44.13 233.96 44.13 233.96 38.23 239.85 38.23 239.85 34.9"/><polygon class="cls-3" points="24.39 33.36 24.39 18.96 38.8 18.96 38.8 14.74 20.18 14.74 20.18 33.36 24.39 33.36"/><circle class="cls-2" cx="215.82" cy="260.92" r="2.13"/><circle class="cls-2" cx="224.16" cy="260.92" r="2.13"/><circle class="cls-2" cx="232.5" cy="260.92" r="2.13"/><circle class="cls-2" cx="240.84" cy="260.92" r="2.13"/><circle class="cls-2" cx="249.19" cy="260.92" r="2.13"/><circle class="cls-2" cx="257.53" cy="260.92" r="2.13"/><rect class="cls-3" x="204.71" y="0.48" width="2.33" height="2.33" transform="translate(61.46 -145.1) rotate(45)"/><rect class="cls-3" x="209.51" y="0.48" width="2.33" height="2.33" transform="translate(62.87 -148.49) rotate(45)"/><rect class="cls-3" x="214.32" y="0.48" width="2.33" height="2.33" transform="translate(64.28 -151.89) rotate(45)"/><rect class="cls-3" x="219.12" y="0.48" width="2.33" height="2.33" transform="translate(65.68 -155.28) rotate(45)"/><rect class="cls-3" x="223.92" y="0.48" width="2.33" height="2.33" transform="translate(67.09 -158.68) rotate(45)"/><rect class="cls-3" x="228.72" y="0.48" width="2.33" height="2.33" transform="translate(68.5 -162.07) rotate(45)"/><polygon class="cls-2" points="21.69 106.6 94.12 106.6 105.76 94.96 33.33 94.96 21.69 106.6"/><text class="cls-4" transform="translate(47.43 75.65)">ベクター<tspan x="6.09" y="14.4">背景</tspan></text><path class="cls-5" d="M85.73,182.58,74.85,198,76,199l10.52-15.36Zm.79-1.12.76,1.12,9.44-13.77,2.52-5.4Zm35-15.14a8.62,8.62,0,0,0-12.17-.31L101,174l5.1,5.37,6.94-6.59v-.37a1.8,1.8,0,0,1,.55-1.32,1.77,1.77,0,0,1,2.44,2.57,1.72,1.72,0,0,1-1.34.48l-.37,0-6.94,6.59,4.31,4.53L97.6,197.63l1,1.41,14.31-12.6,8.37-7.95a8.61,8.61,0,0,0,.32-12.17Zm.68,6.1a6.93,6.93,0,0,1-2.16,4.85l-7.15,6.79-3.17-3.33,5.2-4.94a3.45,3.45,0,1,0-2.53-5.95,3.42,3.42,0,0,0-1.05,2.17l-5.2,4.94L103.39,174l7.16-6.79a6.92,6.92,0,0,1,11.69,5.19ZM96.63,198.49l-17.06,15A6.84,6.84,0,0,0,71.26,206l3.84-5.6-1.2-1L68,207.74a6.84,6.84,0,0,0,9.47,9.88l20.15-17.76ZM76.35,216.38a5.17,5.17,0,1,1,.19-7.3A5.17,5.17,0,0,1,76.35,216.38Z"/><path class="cls-5" d="M106.56,207.74,75.33,163.41l2.52,5.4L103.31,206A6.84,6.84,0,0,0,95,213.53l-7.72-6.8L86,207.86l11.08,9.76a6.84,6.84,0,0,0,9.47-9.88Zm-1,8.45a5.16,5.16,0,1,1-.18-7.3A5.17,5.17,0,0,1,105.52,216.19Zm-42.64-31,4.31-4.53-6.94-6.59-.37,0a1.72,1.72,0,0,1-1.34-.48A1.77,1.77,0,1,1,61,171.05a1.8,1.8,0,0,1,.55,1.32v.37l6.94,6.59L73.55,174l-8.37-8a8.6,8.6,0,1,0-11.85,12.48l8.37,7.95,23.19,20.43,1.24-1.16Zm-1.24-1.14-7.15-6.79a6.92,6.92,0,1,1,9.53-10L71.18,174,68.39,177,63.19,172a3.42,3.42,0,0,0-1-2.17,3.45,3.45,0,1,0-2.53,5.95l5.2,4.94Z"/><path class="cls-5" d="M91.22,160a2.57,2.57,0,0,0-1.83-.76,2.54,2.54,0,0,0-1.83.76l-.28.27L87,160a2.54,2.54,0,0,0-1.83-.76,2.59,2.59,0,0,0-1.83,4.42l.27.27,3.66,3.66L91,163.92l.27-.27A2.59,2.59,0,0,0,91.22,160Z"/><path class="cls-5" d="M51.65,194l-.41-1.29a1.85,1.85,0,0,0-.66-.91,1.8,1.8,0,0,0-1.07-.35L51,196.07Z"/><path class="cls-5" d="M59.23,199.61l.41,1.29a1.82,1.82,0,0,0,1.73,1.26l-1.48-4.63Z"/><polygon class="cls-5" points="53.8 194.28 52.19 199.32 53.52 199.32 55.13 194.28 53.8 194.28"/><path class="cls-5" d="M52,194.28l-2.51,7.88a1.82,1.82,0,0,0,1.73-1.26l2.11-6.62Z"/><path class="cls-5" d="M59.64,192.7l-2.11,6.62h1.33l2.51-7.88A1.82,1.82,0,0,0,59.64,192.7Z"/><polygon class="cls-5" points="55.58 194.28 53.97 199.32 55.3 199.32 56.91 194.28 55.58 194.28"/><polygon class="cls-5" points="57.36 194.28 55.75 199.32 57.08 199.32 58.68 194.28 57.36 194.28"/><path class="cls-5" d="M113.82,194l-.41-1.29a1.85,1.85,0,0,0-.66-.91,1.8,1.8,0,0,0-1.07-.35l1.48,4.63Z"/><path class="cls-5" d="M121.4,199.61l.41,1.29a1.82,1.82,0,0,0,1.73,1.26l-1.48-4.63Z"/><polygon class="cls-5" points="115.97 194.28 114.36 199.32 115.69 199.32 117.3 194.28 115.97 194.28"/><path class="cls-5" d="M114.19,194.28l-2.51,7.88a1.82,1.82,0,0,0,1.73-1.26l2.11-6.62Z"/><path class="cls-5" d="M121.81,192.7l-2.11,6.62H121l2.51-7.88A1.82,1.82,0,0,0,121.81,192.7Z"/><polygon class="cls-5" points="117.75 194.28 116.14 199.32 117.47 199.32 119.08 194.28 117.75 194.28"/><polygon class="cls-5" points="119.53 194.28 117.92 199.32 119.25 199.32 120.86 194.28 119.53 194.28"/><text class="cls-6" transform="matrix(0.66, -0.75, 0.75, 0.66, 52.17, 161.08)">私の痛みを取る</text><path class="cls-5" d="M75.42,153.74c0-1.06.61-1.71,1.41-1.71s1.4.65,1.4,1.71-.61,1.74-1.4,1.74S75.42,154.8,75.42,153.74Zm2.57,0c0-.91-.46-1.5-1.16-1.5s-1.17.59-1.17,1.5.47,1.52,1.17,1.52S78,154.65,78,153.74Zm-2,0a.9.9,0,0,1,.86-1,.72.72,0,0,1,.54.24l-.18.21a.5.5,0,0,0-.35-.16c-.32,0-.52.29-.52.69s.19.74.5.74a.67.67,0,0,0,.42-.17l.16.22a.84.84,0,0,1-.59.24C76.4,154.77,76,154.39,76,153.74Z"/><path class="cls-5" d="M80.36,155l.22-.28a1.33,1.33,0,0,0,1,.39c.45,0,.79-.24.79-.61s-.33-.66-1.2-.66v-.32c.78,0,1.09-.28,1.09-.62s-.28-.52-.68-.52a1.28,1.28,0,0,0-.82.33l-.23-.27a1.63,1.63,0,0,1,1.06-.42c.63,0,1.1.31,1.1.84s-.29.66-.71.8v0a.91.91,0,0,1,.83.84c0,.59-.54,1-1.21,1A1.62,1.62,0,0,1,80.36,155Z"/><path class="cls-5" d="M85.22,153.75c0-1.11.46-1.71,1.2-1.71s1.19.6,1.19,1.71-.46,1.74-1.19,1.74S85.22,154.86,85.22,153.75Zm2,0c0-.95-.33-1.36-.79-1.36s-.8.41-.8,1.36.33,1.39.8,1.39S87.21,154.71,87.21,153.75Zm-1.12,0a.33.33,0,1,1,.33.35A.33.33,0,0,1,86.09,153.72Z"/><path class="cls-5" d="M91.92,152.48H90v-.38h2.41v.27a4.18,4.18,0,0,0-1.15,3h-.45A4.47,4.47,0,0,1,91.92,152.48Z"/><path class="cls-5" d="M96.72,152.48H94.81v-.38h2.4v.27a4.17,4.17,0,0,0-1.14,3h-.46A4.43,4.43,0,0,1,96.72,152.48Z"/></g></g></svg>