<svg xmlns="http://www.w3.org/2000/svg" viewBox="0 0 263.45 260.34"><defs><style>.cls-1{fill:#491d7f;}.cls-2{fill:#f46188;}.cls-3{fill:#642ab6;}.cls-4{font-size:12px;font-family:MS-UIGothic, MS UI Gothic;}.cls-4,.cls-5,.cls-6{fill:#fff;}.cls-6{font-size:10.53px;font-family:KozGoPr6N-Regular-90ms-RKSJ-H, Kozuka Gothic Pr6N;}</style></defs><g id="Layer_2" data-name="Layer 2"><g id="Layer_2-2" data-name="Layer 2"><polygon class="cls-1" points="195.05 260.34 260.35 260.34 260.35 195.04 195.05 260.34"/><polygon class="cls-1" points="166.75 18.27 166.75 20.11 210.05 20.11 218 11.67 260.35 11.67 260.35 3.6 3.61 3.6 3.61 260.34 17.7 260.34 17.7 243.24 9.26 235.5 9.26 207.77 19.15 207.77 19.15 170.71 16.53 170.71 16.53 143.52 9.26 143.52 9.26 138.99 11.2 138.99 11.2 101.92 11.88 101.92 11.88 138.99 13.72 138.99 13.72 101.92 14.4 101.92 14.4 138.99 16.24 138.99 16.24 101.92 16.92 101.92 16.92 138.99 18.76 138.99 18.76 101.92 19.44 101.92 19.44 138.99 21.29 138.99 21.29 101.92 21.96 101.92 21.96 138.99 23.81 138.99 23.81 96.86 15.37 89.13 15.37 29.4 13.82 29.4 13.82 23.54 20.22 23.54 20.22 29.4 18.52 29.4 18.52 77.41 27.23 85.39 27.23 144.59 21.77 144.59 21.77 163.78 27.23 163.78 27.23 168.22 23.37 168.22 23.37 170.36 27.23 170.36 27.23 172.49 23.37 172.49 23.37 174.62 27.23 174.62 27.23 176.76 23.37 176.76 23.37 178.89 27.23 178.89 27.23 181.02 23.37 181.02 23.37 183.16 27.23 183.16 27.23 185.29 23.37 185.29 23.37 187.42 27.23 187.42 27.23 189.56 23.37 189.56 23.37 191.69 27.23 191.69 27.23 193.82 23.37 193.82 23.37 195.95 27.23 195.95 27.23 198.09 23.37 198.09 23.37 200.22 27.23 200.22 27.23 202.35 23.37 202.35 23.37 204.49 27.23 204.49 27.23 206.62 23.37 206.62 23.37 208.75 27.23 208.75 27.23 210.88 23.37 210.88 23.37 213.02 27.23 213.02 27.23 215.15 23.37 215.15 23.37 217.28 27.23 217.28 27.23 219.98 20.02 226.58 20.02 260.34 182.7 260.34 260.35 182.69 260.35 14.82 230.05 14.82 221.84 23.54 160.99 23.54 160.99 18.07 141.26 18.07 141.26 23.54 136.69 23.54 136.69 19.68 134.5 19.68 134.5 23.54 132.3 23.54 132.3 19.68 130.11 19.68 130.11 23.54 127.92 23.54 127.92 19.68 125.72 19.68 125.72 23.54 123.53 23.54 123.53 19.68 121.34 19.68 121.34 23.54 119.15 23.54 119.15 19.68 116.95 19.68 116.95 23.54 114.76 23.54 114.76 19.68 112.57 19.68 112.57 23.54 110.38 23.54 110.38 19.68 108.18 19.68 108.18 23.54 105.99 23.54 105.99 19.68 103.8 19.68 103.8 23.54 101.6 23.54 101.6 19.68 99.41 19.68 99.41 23.54 97.22 23.54 97.22 19.68 95.03 19.68 95.03 23.54 92.83 23.54 92.83 19.68 90.64 19.68 90.64 23.54 88.45 23.54 88.45 19.68 86.25 19.68 86.25 23.54 83.48 23.54 76.69 16.33 33.26 16.33 33.26 18.37 27.23 18.37 27.23 11.96 33.26 11.96 33.26 14 59.58 14 67.53 5.56 96.03 5.56 96.03 15.46 134.13 15.46 134.13 12.84 162.09 12.84 162.09 5.56 166.75 5.56 166.75 7.5 204.85 7.5 204.85 8.18 166.75 8.18 166.75 10.02 204.85 10.02 204.85 10.7 166.75 10.7 166.75 12.55 204.85 12.55 204.85 13.22 166.75 13.22 166.75 15.07 204.85 15.07 204.85 15.75 166.75 15.75 166.75 17.59 204.85 17.59 204.85 18.27 166.75 18.27"/><polygon class="cls-2" points="257.66 257.2 257.66 231.31 252.98 236 252.98 252.51 236.46 252.51 231.78 257.2 257.66 257.2"/><polygon class="cls-3" points="247.03 246.28 247.03 220.4 242.35 225.08 242.35 241.6 225.83 241.6 221.15 246.28 247.03 246.28"/><rect class="cls-2" x="257.66" y="26.77" width="5.79" height="81.09"/><rect class="cls-2" y="32.01" width="6.98" height="66.35"/><rect class="cls-2" y="110" width="6.98" height="6.69"/><path class="cls-3" d="M251.18,116.69v60.82h-4.66v-8.73h-3.88v8.73H238v-8.73h-3.88v8.73h-4.66v-8.73h-3.88v8.73h-4.66v-8.73H217v8.73h-4.65v-8.73h-16l-49.54,49.53v28H43.45v3.59s135.61,1,136.58,0,74.69-73,74.69-74.69V116.69Z"/><path class="cls-2" d="M239.2,39.37v77.9H207.77v85.51l-.18.17L203,207.32c-2.76,2.66-6.5,6.26-10.37,10-7.73,7.53-16,15.77-18.21,18.44a5.8,5.8,0,0,0-.46.63h0l-.11.3-.19.14-.25.1a5.05,5.05,0,0,1-.57.1q-.69.09-1.95.15c-1.66.09-4.07.16-7.09.22-6,.1-14.45.15-24.08.15-31.61,0-76.18-.47-91.15-.63a2.57,2.57,0,0,1-2.52,2,2.63,2.63,0,1,1,0-5.25,2.6,2.6,0,0,1,2.5,2.08c15,.17,59.53.63,91.13.63,16.06,0,28.8-.12,32.5-.45a6,6,0,0,0,.75-.1l.05-.09.32-.45c.26-.34.63-.78,1.1-1.3.93-1,2.25-2.43,3.84-4.05,3.17-3.24,7.39-7.42,11.61-11.54,7.76-7.58,15.5-15,16.7-16.13V116.11H238V40.53H44L19.16,15.71h-8.1V5.13A2.59,2.59,0,0,1,9,2.63a2.63,2.63,0,1,1,5.26,0,2.59,2.59,0,0,1-2,2.5v9.42h7.42L44.46,39.37Z"/><path class="cls-2" d="M78.78,221.56h6.15l-11,11H67.77Zm24.7,0H97.33l-11,11h6.15Zm-9.27,0H88.06l-11,11h6.14Zm46.37,0h-6.15l-11,11h6.15Zm-27.82,0h-6.15l-11,11h6.15Zm18.55,0h-6.15l-11,11h6.15Zm-9.28,0h-6.15l-11,11H111Z"/><text class="cls-4" transform="translate(94.78 201.7)">ベクター<tspan x="6.09" y="14.4">背景</tspan></text><path class="cls-5" d="M120.48,106.33l-.9.7a14,14,0,0,1-2.54,1.51h2.57a8.84,8.84,0,0,1,.47-1.1l.58-1.11Zm-38.61,0a3.29,3.29,0,0,0,.28,2.21H96l.26-.11a52.5,52.5,0,0,1,4.88-2.1Zm38.61,0-.9.7a14,14,0,0,1-2.54,1.51h2.57a8.84,8.84,0,0,1,.47-1.1l.58-1.11Zm43.87,8.73a7.64,7.64,0,0,1-7.63-7.63v-1.1H139.56c-.53.81-1,1.54-1.55,2.21h16.56a9.87,9.87,0,0,0,7.11,8.37H69.6a9.86,9.86,0,0,0,7.1-8.37h3.49a5.1,5.1,0,0,1-.16-2.21H74.55v1.1a7.63,7.63,0,0,1-7.62,7.63H65.28v35.67h1.65a7.64,7.64,0,0,1,7.62,7.63v1.11h82.17v-1.11a7.64,7.64,0,0,1,7.63-7.63H166V115.06Zm-9.78,42.19H76.7a9.86,9.86,0,0,0-7.11-8.36h92.09A9.86,9.86,0,0,0,154.57,157.25Zm9.2-9.1H67.5v-30.5h96.27Zm-26.41-41.82H123c-.3.38-.59.78-.87,1.21a7.1,7.1,0,0,0-.57,1h14.11A25.56,25.56,0,0,0,137.36,106.33Zm-17.75,2.21a8.84,8.84,0,0,1,.47-1.1l.58-1.11h-.18l-.9.7a14,14,0,0,1-2.54,1.51Zm-16.48-2.21a10,10,0,0,1-1.39,2.21h10.43a31.62,31.62,0,0,0,5.18-2.21Z"/><path class="cls-5" d="M146.16,130.61h-5.6a6.42,6.42,0,0,0-12,0h-6.73a6.42,6.42,0,0,0-12,0H103.1a6.42,6.42,0,0,0-12,0H85.49a2.29,2.29,0,0,0,0,4.58H91.1a6.42,6.42,0,0,0,12,0h6.73a6.42,6.42,0,0,0,12,0h6.73a6.42,6.42,0,0,0,12,0h5.6a2.29,2.29,0,0,0,0-4.58Zm0,3.84H140l-.08.25a5.68,5.68,0,0,1-10.78,0l-.09-.25H121.3l-.08.25a5.68,5.68,0,0,1-10.78,0l-.09-.25h-7.78l-.08.25a5.69,5.69,0,0,1-10.79,0l-.08-.25H85.49a1.55,1.55,0,0,1,0-3.1h6.13l.08-.26a5.69,5.69,0,0,1,10.79,0l.08.26h7.78l.09-.26a5.68,5.68,0,0,1,10.78,0l.08.26h7.78l.09-.26a5.68,5.68,0,0,1,10.78,0l.08.26h6.13a1.55,1.55,0,1,1,0,3.1Z"/><path class="cls-5" d="M117.35,106.33a31.62,31.62,0,0,1-5.18,2.21,63.1,63.1,0,0,1-8.43,2.25c-3.63.69-3-.76-2-2.25a10,10,0,0,0,1.39-2.21c.08-.45-.37-.56-1.95,0a52.5,52.5,0,0,0-4.88,2.1l-.26.11c-7.41,3.43-12.53,2.54-13.89,0a3.29,3.29,0,0,1-.28-2.21c.54-2.62,3.82-5.9,10.64-8.41,5.21-1.91,8.16-3.49,9.56-4.69,5.05-3.66,5.55-7.8,2-6.09s-9.86,1.43-4.74-3.9-2.81-8.19-8.93,1.81S69,89.47,79.52,80.72,98,69.34,104.31,73.86s-6.61,11.69,1.82,9.6,7.94,2.73,1.83,8.88c-2.65,3.27-8.35,5.51-13.2,8-7.58,3.88,2.44,2.1,14.5-2s-5,2.88,6,4.18C120.62,103.15,120.21,104.7,117.35,106.33Z"/><path class="cls-5" d="M146.86,85.79a7.85,7.85,0,0,1-.89,3.06S142,99.6,137.36,106.33a25.56,25.56,0,0,1-1.69,2.21,8.91,8.91,0,0,1-3.94,3c-6.16,1.68-12.14,1.3-10.17-3a7.1,7.1,0,0,1,.57-1c.28-.43.57-.83.87-1.21,2.59-3.31,5.72-4.89,9.65-8.3a36.82,36.82,0,0,0,4.59-4.83c2.9-3.6,5.51-5.93,3.91-5.16-3.58,1.71-9.86,1.43-4.74-3.91s-2.81-8.18-8.92,1.81-21.38,4.43-10.86-4.33c.51-.42,1-.83,1.51-1.22.21-.16,7.78-6.18,0-3.68s-8.94.92-2.36-4.13c3.77-2.9,6.17-1.93,1.54,1.27s4.18-1.77,12.62-4c5.36-1.4,3.92,1,2.15,3a11.48,11.48,0,0,1,9.34,1.91c6.28,4.52-6.64,11.62,1.81,9.59C145.84,83.73,146.86,84.38,146.86,85.79Z"/><path class="cls-5" d="M121.62,99.83c4.54-1.24,9.91-6,2-4.8C116.23,96.19,117.09,101.07,121.62,99.83Z"/><path class="cls-5" d="M92.63,88.17c-5.82,2-6,8,0,5S96.65,86.8,92.63,88.17Z"/><path class="cls-5" d="M136.24,90.75a4.06,4.06,0,0,1-3-1.53c-1.19-1.65-.55-3.84,1.86-6.34a5.44,5.44,0,0,0,1-1.3l.26-.53-.59,0c-.34,0-3.44.46-6.7,5.79A12.23,12.23,0,0,1,117.14,93a7.31,7.31,0,0,1-4.73-2.39l-.27-.32-.25.33a30.69,30.69,0,0,1-2.58,2.95,17.74,17.74,0,0,1-4.4,3.59l-2.27,1.39,2.54-.79c1.14-.36,2.32-.74,3.5-1.14,1.73-.59,2.83-.94,3.57-1.14,1.14-.3,2.39-.46,3.1.69.83,1.36-.34,2.49-1,3.1-.15.14-.39.38-.62.62l-.38.4.54.15a13.81,13.81,0,0,0,1.59.28l1.09.14.79.13-.47-.65a3.18,3.18,0,0,1-.41-3c.71-2.07,3.19-3.58,6.81-4.14,1.5-.24,5.5-.86,6.1,1.91.68,3.15-5.21,5.85-7.32,6.43a6.61,6.61,0,0,1-1.43.25l-.72,0,.51.52a2.48,2.48,0,0,1,.78,1.77,2.23,2.23,0,0,1,0,.5l-.18,1.19.76-.93a31.17,31.17,0,0,1,5.77-5.18c1.23-.92,2.51-1.89,3.9-3.09a35.77,35.77,0,0,0,4.36-4.59l.64-.79.39-.47Zm-20.65,9.31c-.34,0-.65-.09-.93-.14l.18-.18a6.51,6.51,0,0,0,.83-.91,3.81,3.81,0,0,0,.35,1.28Zm.61-3.61a2.65,2.65,0,0,0-.29-.62,2.51,2.51,0,0,0-2.3-1.23,5.82,5.82,0,0,0-1.53.24c-.76.21-1.87.56-3.61,1.15l-1.27.43A15.77,15.77,0,0,0,109.8,94a32.32,32.32,0,0,0,2.37-2.67,8.2,8.2,0,0,0,4.88,2.32,11.48,11.48,0,0,0,2.29.06A6.73,6.73,0,0,0,116.2,96.45Zm5.67,7.36a3,3,0,0,0-.53-1.39c.31,0,.63-.12.94-.2a16,16,0,0,0,2-.75A24.21,24.21,0,0,0,121.87,103.81ZM135.3,91.65A33.86,33.86,0,0,1,131,96.16c-.43.38-.85.73-1.27,1.07a3.27,3.27,0,0,0,.32-2.22c-.47-2.18-2.48-2.67-4.31-2.67a13.9,13.9,0,0,0-1.82.14,13.59,13.59,0,0,0,5.66-5.24c2.05-3.35,4.13-4.81,5.44-5.29-.12.14-.25.3-.42.47-3.36,3.49-2.9,5.84-1.92,7.19a4.51,4.51,0,0,0,2.88,1.7C135.49,91.43,135.4,91.54,135.3,91.65Z"/><path class="cls-5" d="M98.63,80.21c-1.51.13-4.16,1.69-6.61,5.65l-.46.73.83-.24a6.25,6.25,0,0,1,2.84-.23l.32,0,.06-.31A8.25,8.25,0,0,1,98,82a5.72,5.72,0,0,0,1-1.3l.26-.53Zm-1.12,1.31A9.45,9.45,0,0,0,95,85.42a6.88,6.88,0,0,0-2,.1c1.87-2.77,3.71-4,4.9-4.47C97.81,81.19,97.68,81.35,97.51,81.52Z"/><path class="cls-5" d="M120.48,106.33h.18l.12-.24Zm0,0h.18l.12-.24Zm0,0h.18l.12-.24Zm28-23.2a4.41,4.41,0,0,0-3.82-1.48,9.6,9.6,0,0,0,.92-2.42,6.12,6.12,0,0,0-2.67-6.48,13.64,13.64,0,0,0-6.7-2.57,3.12,3.12,0,0,0-.45-1.6c-1.46-2.39-4.81-1.52-6.41-1.1A69.32,69.32,0,0,0,122,69.89a2.76,2.76,0,0,0-1.37-1.26c-2.11-.91-4.9.85-6.38,2-3.9,3-6.24,5.52-4.93,8,.94,1.8,3,1.93,5,1.63L113,81.31a8.1,8.1,0,0,0-5.36-.67,9.18,9.18,0,0,0,.84-2.29,6.14,6.14,0,0,0-2.68-6.5c-9.35-6.73-20.36.75-27.83,7-4.85,4-4.76,7.5-4.27,9.2.73,2.54,3.08,4.31,6.28,4.75A12.09,12.09,0,0,0,85.75,92a3.87,3.87,0,0,0,1.52,3.69,4.16,4.16,0,0,0,2.16.76c-5.9,2.59-9.53,6.06-10.05,9.72,0,0,0,.08,0,.12a6,6,0,0,0,.14,2.21,5.71,5.71,0,0,0,2.18,3.13c3.3,2.44,9.16,2.07,15.67-1l1.13-.52a3,3,0,0,0,.49,1.77,3.57,3.57,0,0,0,3.26,1.53,10.46,10.46,0,0,0,2-.22,64.15,64.15,0,0,0,10.8-3.08,28.32,28.32,0,0,0,3.47-1.61c.19-.11.38-.21.55-.32,0,.11-.07.22-.1.32a4.48,4.48,0,0,0,.59,4.06c1.12,1.54,3.17,2.32,6.1,2.32a27.54,27.54,0,0,0,6.77-1c2.08-.57,4.21-2.33,6.44-5.35.51-.67,1-1.41,1.52-2.21a64.69,64.69,0,0,0,3.17-5.65,117.17,117.17,0,0,0,4.74-10.86C149.13,87.92,150.11,85.16,148.45,83.13Zm-.81,6.43a115.65,115.65,0,0,1-4.73,10.82,65,65,0,0,1-3.35,6c-.53.81-1,1.54-1.55,2.21-2,2.65-3.95,4.2-5.8,4.71a26.51,26.51,0,0,1-6.6,1c-2.7,0-4.58-.69-5.56-2.05a3.93,3.93,0,0,1-.44-3.67,8.84,8.84,0,0,1,.47-1.1l.58-1.11.12-.24-.3.24-.9.7a14,14,0,0,1-2.54,1.51q-1,.49-2.28,1a64,64,0,0,1-10.68,3,10.42,10.42,0,0,1-1.85.21,3,3,0,0,1-2.71-1.22,2.46,2.46,0,0,1-.32-1.9l.14-.64-.6.27-1.67.77c-6.29,3-11.89,3.36-15,1.06a5,5,0,0,1-1.88-2.59,5.1,5.1,0,0,1-.16-2.21v0c.55-3.84,4.87-7.52,11.85-10.08,6-2.2,8.21-3.68,9-4.36l.12-.1a14.6,14.6,0,0,0,1.93-1.65l.8-.82-1.12.27a9.57,9.57,0,0,1-4,.2l-.33-.07-.06.33c-.33,1.74-2,3.4-4.73,4.79C91,96,89,96.16,87.66,95.19A3.22,3.22,0,0,1,86.42,92a3,3,0,0,1,.09-.43l.16-.64-.62.26a11.47,11.47,0,0,1-6,.89c-2.94-.39-5.08-2-5.74-4.28-.44-1.54-.5-4.7,4.07-8.5,7.29-6.07,18-13.4,27-6.93a5.49,5.49,0,0,1,2.41,5.82,9.43,9.43,0,0,1-1.09,2.7l-.35.62.7-.13c2.57-.47,4.5-.27,5.74.59l.2.14,4-3.11-1.42.32c-3.14.71-4.86.39-5.61-1-1.09-2.08,1.11-4.37,4.76-7.17,1.36-1,3.9-2.68,5.71-1.9a2.12,2.12,0,0,1,1.16,1.19l.12.31.3-.12a71.47,71.47,0,0,1,7.52-2.5c1.46-.38,4.48-1.17,5.68.8a2.42,2.42,0,0,1,.35,1.53l0,.33.33,0a13,13,0,0,1,6.68,2.47,5.48,5.48,0,0,1,2.41,5.81,9.46,9.46,0,0,1-1.14,2.77l-.33.57.65-.07a4.06,4.06,0,0,1,3.86,1.19,3.45,3.45,0,0,1,.75,2.24A9.42,9.42,0,0,1,147.64,89.56Zm-51.06,4a6.31,6.31,0,0,0,2.18-3.13,9.56,9.56,0,0,0,2.87,0c-.32.27-.66.54-1,.8l-.15.12A17.1,17.1,0,0,1,96.58,93.59Zm23.9,12.74h.18l.12-.24Zm0,0h.18l.12-.24Z"/><polygon class="cls-5" points="88.16 123.4 88.55 123.95 89.51 123.95 88.16 122.04 88.16 123.4"/><polygon class="cls-5" points="88.19 120.5 90.63 123.95 91.59 123.95 89.15 120.5 88.19 120.5"/><polygon class="cls-5" points="90.27 120.5 92.71 123.95 93.67 123.95 91.23 120.5 90.27 120.5"/><polygon class="cls-5" points="92.34 120.5 94.78 123.95 95.74 123.95 93.3 120.5 92.34 120.5"/><polygon class="cls-5" points="94.42 120.5 96.86 123.95 97.82 123.95 95.38 120.5 94.42 120.5"/><polygon class="cls-5" points="96.49 120.5 98.93 123.95 99.89 123.95 97.45 120.5 96.49 120.5"/><polygon class="cls-5" points="98.57 120.5 101.01 123.95 101.97 123.95 99.53 120.5 98.57 120.5"/><polygon class="cls-5" points="100.65 120.5 103.09 123.95 104.05 123.95 101.61 120.5 100.65 120.5"/><polygon class="cls-5" points="102.72 120.5 105.16 123.95 106.12 123.95 103.68 120.5 102.72 120.5"/><polygon class="cls-5" points="104.8 120.5 107.24 123.95 108.2 123.95 105.76 120.5 104.8 120.5"/><polygon class="cls-5" points="106.88 120.5 109.31 123.95 110.27 123.95 107.83 120.5 106.88 120.5"/><polygon class="cls-5" points="108.95 120.5 111.39 123.95 112.35 123.95 109.91 120.5 108.95 120.5"/><polygon class="cls-5" points="111.03 120.5 113.47 123.95 114.43 123.95 111.99 120.5 111.03 120.5"/><polygon class="cls-5" points="113.1 120.5 115.15 123.4 115.15 123.4 115.54 123.95 115.54 123.95 116.5 123.95 116.5 123.95 114.06 120.5 113.1 120.5"/><polygon class="cls-5" points="116.5 121.02 116.14 120.5 115.18 120.5 115.18 120.5 115.18 120.5 117.62 123.95 118.58 123.95 116.5 121.02 116.5 121.02"/><polygon class="cls-5" points="117.25 120.5 119.69 123.95 120.65 123.95 118.21 120.5 117.25 120.5"/><polygon class="cls-5" points="119.33 120.5 121.77 123.95 122.73 123.95 120.29 120.5 119.33 120.5"/><polygon class="cls-5" points="121.41 120.5 123.84 123.95 124.81 123.95 122.36 120.5 121.41 120.5"/><polygon class="cls-5" points="123.48 120.5 125.92 123.95 126.88 123.95 124.44 120.5 123.48 120.5"/><polygon class="cls-5" points="125.56 120.5 128 123.95 128.96 123.95 126.52 120.5 125.56 120.5"/><polygon class="cls-5" points="127.63 120.5 130.07 123.95 131.03 123.95 128.59 120.5 127.63 120.5"/><polygon class="cls-5" points="129.71 120.5 132.15 123.95 133.11 123.95 130.67 120.5 129.71 120.5"/><polygon class="cls-5" points="131.78 120.5 134.22 123.95 135.19 123.95 132.75 120.5 131.78 120.5"/><polygon class="cls-5" points="133.86 120.5 136.3 123.95 137.26 123.95 134.82 120.5 133.86 120.5"/><polygon class="cls-5" points="135.94 120.5 138.38 123.95 139.34 123.95 136.9 120.5 135.94 120.5"/><polygon class="cls-5" points="138.01 120.5 140.45 123.95 141.41 123.95 138.97 120.5 138.01 120.5"/><polygon class="cls-5" points="140.09 120.5 142.53 123.95 143.49 123.95 141.05 120.5 140.09 120.5"/><polygon class="cls-5" points="143.13 120.5 142.17 120.5 143.49 122.37 143.49 121.02 143.13 120.5"/><polygon class="cls-5" points="88.16 144.79 88.55 145.34 89.51 145.34 88.16 143.43 88.16 144.79"/><polygon class="cls-5" points="88.19 141.89 90.63 145.34 91.59 145.34 89.15 141.89 88.19 141.89"/><polygon class="cls-5" points="90.27 141.89 92.71 145.34 93.67 145.34 91.23 141.89 90.27 141.89"/><polygon class="cls-5" points="92.34 141.89 94.78 145.34 95.74 145.34 93.3 141.89 92.34 141.89"/><polygon class="cls-5" points="94.42 141.89 96.86 145.34 97.82 145.34 95.38 141.89 94.42 141.89"/><polygon class="cls-5" points="96.49 141.89 98.93 145.34 99.89 145.34 97.45 141.89 96.49 141.89"/><polygon class="cls-5" points="98.57 141.89 101.01 145.34 101.97 145.34 99.53 141.89 98.57 141.89"/><polygon class="cls-5" points="100.65 141.89 103.09 145.34 104.05 145.34 101.61 141.89 100.65 141.89"/><polygon class="cls-5" points="102.72 141.89 105.16 145.34 106.12 145.34 103.68 141.89 102.72 141.89"/><polygon class="cls-5" points="104.8 141.89 107.24 145.34 108.2 145.34 105.76 141.89 104.8 141.89"/><polygon class="cls-5" points="106.88 141.89 109.31 145.34 110.27 145.34 107.83 141.89 106.88 141.89"/><polygon class="cls-5" points="108.95 141.89 111.39 145.34 112.35 145.34 109.91 141.89 108.95 141.89"/><polygon class="cls-5" points="111.03 141.89 113.47 145.34 114.43 145.34 111.99 141.89 111.03 141.89"/><polygon class="cls-5" points="113.1 141.89 115.15 144.79 115.15 144.79 115.54 145.34 115.54 145.34 116.5 145.34 116.5 145.34 114.06 141.89 113.1 141.89"/><polygon class="cls-5" points="116.5 142.41 116.14 141.89 115.18 141.89 115.18 141.89 115.18 141.89 117.62 145.34 118.58 145.34 116.5 142.41 116.5 142.41"/><polygon class="cls-5" points="117.25 141.89 119.69 145.34 120.65 145.34 118.21 141.89 117.25 141.89"/><polygon class="cls-5" points="119.33 141.89 121.77 145.34 122.73 145.34 120.29 141.89 119.33 141.89"/><polygon class="cls-5" points="121.41 141.89 123.84 145.34 124.81 145.34 122.36 141.89 121.41 141.89"/><polygon class="cls-5" points="123.48 141.89 125.92 145.34 126.88 145.34 124.44 141.89 123.48 141.89"/><polygon class="cls-5" points="125.56 141.89 128 145.34 128.96 145.34 126.52 141.89 125.56 141.89"/><polygon class="cls-5" points="127.63 141.89 130.07 145.34 131.03 145.34 128.59 141.89 127.63 141.89"/><polygon class="cls-5" points="129.71 141.89 132.15 145.34 133.11 145.34 130.67 141.89 129.71 141.89"/><polygon class="cls-5" points="131.78 141.89 134.22 145.34 135.19 145.34 132.75 141.89 131.78 141.89"/><polygon class="cls-5" points="133.86 141.89 136.3 145.34 137.26 145.34 134.82 141.89 133.86 141.89"/><polygon class="cls-5" points="135.94 141.89 138.38 145.34 139.34 145.34 136.9 141.89 135.94 141.89"/><polygon class="cls-5" points="138.01 141.89 140.45 145.34 141.41 145.34 138.97 141.89 138.01 141.89"/><polygon class="cls-5" points="140.09 141.89 142.53 145.34 143.49 145.34 141.05 141.89 140.09 141.89"/><polygon class="cls-5" points="143.13 141.89 142.17 141.89 143.49 143.76 143.49 142.41 143.13 141.89"/><path class="cls-5" d="M78.88,130.73a2.05,2.05,0,0,0-2.88,0l-.21.21-.22-.21a2,2,0,0,0-2.87,2.88l.21.21,2.88,2.88,2.87-2.88.22-.21A2,2,0,0,0,78.88,130.73Z"/><path class="cls-5" d="M158.57,130.73a2,2,0,0,0-1.44-.59,2,2,0,0,0-1.43.59l-.22.21-.21-.21a2,2,0,0,0-2.88,2.88l.22.21,2.87,2.88,2.88-2.88.21-.21A2,2,0,0,0,158.57,130.73Z"/><path class="cls-5" d="M96.25,154.41l.25-.29a1.37,1.37,0,0,0,1,.4c.45,0,.71-.21.71-.51s-.25-.45-.58-.59l-.48-.21a.93.93,0,0,1-.7-.84,1,1,0,0,1,1.07-.87,1.43,1.43,0,0,1,1,.4l-.22.27a1.13,1.13,0,0,0-.8-.3c-.38,0-.64.18-.64.47s.31.43.59.54l.46.2c.4.16.72.39.72.88s-.44.93-1.16.93A1.65,1.65,0,0,1,96.25,154.41Z"/><path class="cls-5" d="M101.34,151.91h-1.08v-.35h2.58v.35h-1.08v2.92h-.42Z"/><path class="cls-5" d="M104.76,151.56h2v.35h-1.61v1h1.36v.35h-1.36v1.19h1.66v.35h-2.08Z"/><path class="cls-5" d="M108.9,151.56h2v.35h-1.61v1h1.36v.35h-1.36v1.19H111v.35H108.9Z"/><path class="cls-5" d="M113.14,151.56h.41v2.92h1.62v.35h-2Z"/><path class="cls-5" d="M121,151.56h.45l.52,1.76c.12.39.2.7.32,1.08h0c.12-.38.2-.69.31-1.08l.52-1.76h.43l-1,3.27H122Z"/><path class="cls-5" d="M125.46,151.56h2v.35h-1.6v1h1.35v.35h-1.35v1.19h1.65v.35h-2.07Z"/><path class="cls-5" d="M129.5,154.48h.82v-2.57h-.82v-.35h2.05v.35h-.81v2.57h.81v.35H129.5Z"/><path class="cls-5" d="M133.58,151.56H134l1,2.05.32.68h0c0-.32-.06-.69-.06-1v-1.69h.4v3.27h-.46l-1-2.05-.32-.68h0c0,.33.06.68.06,1v1.71h-.4Z"/><text class="cls-6" transform="translate(148.67 75.16) rotate(90)">倶楽部</text></g></g></svg>