<svg xmlns="http://www.w3.org/2000/svg" viewBox="0 0 252.68 265.63"><defs><style>.cls-1{fill:#491d7f;}.cls-2{fill:#f46188;}.cls-3{fill:#642ab6;}.cls-4{font-size:12px;font-family:MS-UIGothic, MS UI Gothic;}.cls-4,.cls-5,.cls-6{fill:#fff;}.cls-6{font-size:9.27px;font-family:KozGoPr6N-Regular-90ms-RKSJ-H, Kozuka Gothic Pr6N;}</style></defs><g id="Layer_2" data-name="Layer 2"><g id="Layer_2-2" data-name="Layer 2"><path class="cls-1" d="M41.41,7.62,20.76,28.27v61.5H11.25V129H2.83V250.4H245.61V7.62ZM172.66,209.49h-52.6L92.73,236.82H15.53V100.25H34.92v16.1h54.9l16.1-16.1h66.74Z"/><polygon class="cls-2" points="211.99 13.16 206.38 18.77 200.76 13.16 197.58 16.34 203.2 21.95 197.58 27.57 200.76 30.75 206.38 25.13 211.99 30.75 215.17 27.57 209.56 21.95 215.17 16.34 211.99 13.16"/><polygon class="cls-3" points="15.93 76.52 12.68 76.52 12.68 73.26 10.83 73.26 10.83 76.52 7.58 76.52 7.58 78.36 10.83 78.36 10.83 81.61 12.68 81.62 12.68 78.36 15.93 78.36 15.93 76.52"/><polygon class="cls-3" points="15.93 64.84 12.68 64.84 12.68 61.59 10.83 61.59 10.83 64.84 7.58 64.84 7.58 66.69 10.83 66.69 10.83 69.94 12.68 69.94 12.68 66.69 15.93 66.69 15.93 64.84"/><polygon class="cls-3" points="15.93 53.17 12.68 53.17 12.68 49.92 10.83 49.91 10.83 53.17 7.58 53.17 7.58 55.01 10.83 55.01 10.83 58.27 12.68 58.27 12.68 55.01 15.93 55.01 15.93 53.17"/><polygon class="cls-3" points="15.93 41.5 12.68 41.5 12.68 38.24 10.83 38.24 10.83 41.5 7.58 41.5 7.58 43.34 10.83 43.34 10.83 46.59 12.68 46.6 12.68 43.34 15.93 43.34 15.93 41.5"/><polygon class="cls-3" points="15.93 29.82 12.68 29.82 12.68 26.57 10.83 26.57 10.83 29.82 7.58 29.82 7.58 31.67 10.83 31.67 10.83 34.92 12.68 34.92 12.68 31.67 15.93 31.67 15.93 29.82"/><path class="cls-3" d="M236.67,229V160.74H222.12V0H153.65L134.49,19.16H39.38V35.45h149V51.16H134.15V72.5h68.77V215.14H126L78.71,262.43H24.15a2.6,2.6,0,0,0-2.51-2.05,2.63,2.63,0,1,0,0,5.25,2.6,2.6,0,0,0,2.51-2H79.2l47.28-47.28h77.6v-145H135.31v-19h54.22v-18h-149v-14H135L154.13,1.16H221V161.9h14.55v65.9H179.64v4.47a2.58,2.58,0,0,0-2,2.5,2.63,2.63,0,1,0,5.25,0,2.59,2.59,0,0,0-2-2.5V229Z"/><rect class="cls-3" x="238.13" y="17.41" width="11.93" height="104.47"/><polygon class="cls-3" points="4.04 253.87 7.98 253.87 14.92 246.93 10.98 246.93 4.04 253.87"/><polygon class="cls-3" points="9.79 253.87 13.72 253.87 20.66 246.93 16.72 246.93 9.79 253.87"/><polygon class="cls-3" points="15.53 253.87 19.46 253.87 26.4 246.93 22.46 246.93 15.53 253.87"/><polygon class="cls-3" points="21.27 253.87 25.2 253.87 32.14 246.93 28.2 246.93 21.27 253.87"/><polygon class="cls-3" points="27 253.87 30.94 253.87 37.88 246.93 33.94 246.93 27 253.87"/><rect class="cls-2" y="145.41" width="5.35" height="5.35"/><rect class="cls-2" y="162.87" width="5.35" height="5.35"/><rect class="cls-2" y="180.33" width="5.35" height="5.35"/><rect class="cls-2" y="197.79" width="5.35" height="5.35"/><rect class="cls-2" x="121.25" y="97.72" width="33.56" height="4.85"/><rect class="cls-2" x="168.78" y="138.27" width="6.98" height="30.26"/><rect class="cls-2" x="168.78" y="175.52" width="6.98" height="8.15"/><rect class="cls-2" x="249.19" y="129.01" width="3.49" height="10.38"/><rect class="cls-2" x="249.19" y="141.81" width="3.49" height="9.5"/><rect class="cls-2" x="249.19" y="154.61" width="3.49" height="8.62"/><rect class="cls-2" x="249.19" y="167.4" width="3.49" height="7.74"/><rect class="cls-2" x="249.19" y="180.2" width="3.49" height="6.87"/><rect class="cls-2" x="249.19" y="193" width="3.49" height="5.99"/><rect class="cls-2" x="249.19" y="205.8" width="3.49" height="5.11"/><rect class="cls-2" x="249.19" y="218.59" width="3.49" height="4.23"/><rect class="cls-2" x="249.19" y="231.39" width="3.49" height="3.35"/><rect class="cls-2" x="249.19" y="244.19" width="3.49" height="2.47"/><path class="cls-2" d="M54.12,23h4L51,30.11H47ZM70,23H66L59,30.11h3.95Zm-6,0h-4L53,30.11h4Zm29.79,0H89.87L82.8,30.11h4ZM76,23H72l-7.08,7.08h4Zm11.92,0h-4l-7.08,7.08h4Zm-6,0H78l-7.08,7.08h4Z"/><rect class="cls-2" x="186.25" y="235.99" width="7.82" height="7.82" transform="translate(225.32 -64.2) rotate(45)"/><rect class="cls-2" x="202.21" y="235.99" width="7.82" height="7.82" transform="translate(230 -75.48) rotate(45)"/><rect class="cls-2" x="218.17" y="235.99" width="7.82" height="7.82" transform="translate(234.67 -86.77) rotate(45)"/><rect class="cls-2" x="234.12" y="235.99" width="7.82" height="7.82" transform="translate(239.34 -98.05) rotate(45)"/><text class="cls-4" transform="translate(44.83 95.31)">ベクター<tspan x="6.09" y="14.4">背景</tspan></text><path class="cls-5" d="M47.09,155.32c-8.27.61,1-8.37-12.29-3.74-13.1,4.55-5.4,13.22-.71,12.39s-11.41,8.62-4,8.73-5.5,7.2,1.68,7,10.6.33,7.4-3.91-.31-4.62,5.43,1.15S64.86,154,47.09,155.32Zm1.81,16.93c-3.45,4.19-3.69-4.16-12.51-2.61s6.19-6.69-.82-7.23-3.59-7.07,4.21-6.1c3.41.42-2.49,4.76,5.06,4.83S52.36,168.07,48.9,172.25Z"/><path class="cls-5" d="M143.21,171.78c-8.11-.48-9.54-1.49-2.6-5s3,7.49,8.49,2.86,7-12.68,1.21-9.14-13.38,7-11.4,4.48,1-4.53-1.36-3.38.59-5,6.18-6.2-4.74,5.07,1.5,4.35,13.71-8.51,2.17-8.24-18,16.46-12.06,13.55-10.32,9.41-2,9.63,9,6.25,14.36,5.32C156.49,178.48,151.33,172.26,143.21,171.78Z"/><path class="cls-5" d="M65.5,176.34c-8.11-.48-9.54-1.48-2.6-5s3,7.49,8.49,2.86,7-12.69,1.21-9.15-13.39,7-11.4,4.48,1-4.52-1.36-3.37.59-5,6.18-6.2-4.74,5.07,1.5,4.35,13.71-8.52,2.17-8.25-18,16.46-12.06,13.55-10.32,9.42-2,9.63,9,6.25,14.36,5.32C78.78,183.05,73.62,176.83,65.5,176.34Z"/><path class="cls-5" d="M51.26,153.54c3.51,1.35,4.08-1.33,1.16-3.18C47.93,147.52,47.75,152.18,51.26,153.54Z"/><path class="cls-5" d="M94.05,174.49c-1.86,1.4-.18-3.2-4.17-2.49s-4.85.83-4.79-.88,0-2.32-3.21-2.72c-5.16-.65,10.1-5.93,7.1-1.46s7.58,6.18,7.81,2.1c.14-2.63-1.06-8.88-9.91-8.21-11.11.85-11,8.83-6.89,9.69s.15,4.28,3.77,4.21,5-2.49,6,.74,3.2,2.27,4.45,1.12,4.12,5.75-8.22,2.26S73,184,82.84,186.6s18.3-1.56,17.5-6.34S95.91,173.1,94.05,174.49Z"/><path class="cls-5" d="M98,158.73c3.18-.08,5.72-1.69,5.68-3.6s-2.66-3.4-5.84-3.33-5.72,1.69-5.67,3.6S94.77,158.8,98,158.73Z"/><path class="cls-5" d="M108.85,175.37l-.07,0c-2.14-.38-.68-2.08.59-3.79a2.62,2.62,0,0,1,3-.88,8.81,8.81,0,0,0,1.91.44c7.12,1-6.06,5.1-1.14,5.95s-3,4,1.29,4.77-8.24,5.63-.41,5.34,16-3.79,8.62-5.27-7.23-1.27-6.25-2.89a4.1,4.1,0,0,0,.46-1.05h0c.7-2.46-1.06-2.23.44-3.33s4-.77,2.82,1.66-.21,2.86,3,2.17c3.74-.8-2.73,4.75,2.23,3s-2.39,7.25,3.43,4.52,16.17-9.37,7.67-8.74-10.56,2.92-9.61.77-5.29.1-4.51-.92c.34-.44,1-1.19,1.66-1.91a2.8,2.8,0,0,1,.73-.55c4.6-2.41,8.73-6.84,6.85-11.1-2.28-5.15-6-6.53-12.67-4.06h0c-.34.13-.68.26-1,.41l-.16,0c-1.35.46-3.26.82-2.22-1.21,1.55-3-5.54.95-4.18-.14s1.29-3-.79-1.35-2.16,3.67,1.06,2.82.42,2.39-1.19,5h0a4.26,4.26,0,0,0-.74,2.87,4,4,0,0,0-.41-.11c-5-1.05,3.81-10.52-5-9.07-8.19,1.35-9.82,11-2,10.94s-4.85,4.91.11,7.2-5,6.19-.15,7c4.47.78,9.8-6.44,7.38-8.19Zm10.13-5h0c-2.52-1.9-6.63-2.73-3.09-5,3.73-2.38,12.59-1.95,8,3.49-.46.55-.94,1.06-1.41,1.55C121.54,171.41,120.17,171.29,119,170.37Z"/><path class="cls-5" d="M44.83,163a8,8,0,0,1-4.57-1.08l-.8-.59-.34-.88a3.83,3.83,0,0,1-.22-1.66l.06-.72h-.73a6.42,6.42,0,0,0-4,1.11l-1.07.81,1.29.37a6,6,0,0,0,1.24.2,5.17,5.17,0,0,1,2.41.7l.8.52.3.9c.38,1.12,0,2.3-1.19,3.82l-.85,1.09h1.38a10.81,10.81,0,0,1,7.6,3.2l.39.33.53.45.43-.54c1.59-2,2.2-4.53,1.46-6.12C48.4,163.67,47,163,44.83,163Zm-7.51-3.53.23,0v.09Zm9.56,10.15a12.25,12.25,0,0,0-7.06-3.31,5.39,5.39,0,0,0,.89-2.61,11.58,11.58,0,0,0,4.1.65c.91,0,2.49.17,2.94,1.13h0C48.21,166.45,47.82,168.17,46.88,169.61Z"/><path class="cls-5" d="M143.1,167.85l-.54.14a5.94,5.94,0,0,0-1.12.44l-2.23,1.18,2.3.19,1.39.1,1,.06-.31-1a6.28,6.28,0,0,0-.26-.65Z"/><path class="cls-5" d="M152,171.32c4-3.88,6.62-9.84,4.23-13.12a4.15,4.15,0,0,0-.84-.86,5.93,5.93,0,0,0,1.22-3.82,5.15,5.15,0,0,0-3.4-4.39,14.39,14.39,0,0,0-5.9-.83c-7.26.17-12.74,5.23-15.48,9.85-3.1-3.27-7.61-3.93-13.43-1.94a3.65,3.65,0,0,0-.48-.66,3.89,3.89,0,0,0-3.62-1.15,3.58,3.58,0,0,0-1.23-.8c-1.45-.56-3-.18-4.63,1.13a9.37,9.37,0,0,0-.86.79,6.18,6.18,0,0,0-.77-.13c0-.11,0-.23,0-.34-.09-3.8-4-6.58-9.11-6.46s-8.9,3.07-8.81,6.88a5.34,5.34,0,0,0,.51,2.15,19.87,19.87,0,0,0-2.78,0,17.25,17.25,0,0,0-8,2.35,4.94,4.94,0,0,0-3.15-6.28,14.54,14.54,0,0,0-5.9-.84,17.48,17.48,0,0,0-11.58,5,9.51,9.51,0,0,0-1.44-2.43,4.79,4.79,0,0,0,.46-.71c1-2,.48-4.95-2.91-7.1-3.14-2-5.26-1.5-6.49-.75a4.2,4.2,0,0,0-2,3.31,4.77,4.77,0,0,0-2.06-2.42c-2-1.19-4.87-1-9.82.76-10.39,3.61-9.64,9.9-9.16,11.74a9.47,9.47,0,0,0,4.14,5.48c-2.63,2.39-4.57,4.65-3.58,7.32a4,4,0,0,0,2.46,2.4c-.94,1.29-1.88,3.09-.9,5.07.81,1.63,2.54,2.42,5.14,2.36l2.24,0h.1l1.59,0c3.44-.08,6.17-.34,7.37-2.8l.05-.1a6,6,0,0,0,6.79-.14c.13-.07.26-.16.38-.24.56,1.26,1.91,2.78,5.16,2.87a10.06,10.06,0,0,1,6.68,2.63c1.67,1.27,3.74,2.85,6.84,2.78h0a10,10,0,0,0,1.45-.14A12,12,0,0,0,75.17,186,15.07,15.07,0,0,0,82,189.68a26.25,26.25,0,0,0,7.44.91c4.57-.11,8.66-1.49,11.25-3.79a8,8,0,0,0,1,.23,9.07,9.07,0,0,0,6.81-1.92,3.41,3.41,0,0,0-.1,2.68c1,2.7,4.22,2.62,5.29,2.6l.46,0a33.88,33.88,0,0,0,8.66-1.45c.38-.12.86-.28,1.36-.48.11.12.23.23.35.34,2.05,1.74,4.71.5,5.6.08a58.19,58.19,0,0,0,7.7-4.41,19.79,19.79,0,0,0,3.51-2.92,9,9,0,0,0,5.47,1.77,9.15,9.15,0,0,0,1.45-.15c6.81-1.17,7.34-5,7.26-6.52A7.17,7.17,0,0,0,152,171.32Zm-4,10.5a7.66,7.66,0,0,1-6.43-1.74,1.32,1.32,0,0,1-.49-.63,6.24,6.24,0,0,1-.44.76,16.4,16.4,0,0,1-3.61,3.13,57.2,57.2,0,0,1-7.52,4.3c-1.29.6-2.92,1.16-4.14.11a2.15,2.15,0,0,1-.46-.5l-.31-.46-.51.22a18.22,18.22,0,0,1-1.72.63,33.27,33.27,0,0,1-8.31,1.39h-.43c-2.31.05-3.54-.47-4-1.71-.52-1.44.4-2.54,2.06-3.85l.54-.43-.45-.54a2.38,2.38,0,0,1-.43-.77l-.42-1.17-.75,1c-1.74,2.27-5,4.72-8.3,4.14a5.81,5.81,0,0,1-1.1-.3l-.44-.16-.28.31-.18.17c-2.36,2.14-6.17,3.42-10.47,3.52a24.66,24.66,0,0,1-7.06-.86,13.53,13.53,0,0,1-6.6-3.69,2,2,0,0,1-.41-.6,3.71,3.71,0,0,1-.52.52,9.89,9.89,0,0,1-4.54,1.78,9,9,0,0,1-1.26.12h0c-2.63.07-4.34-1.24-6-2.51a11.42,11.42,0,0,0-7.46-2.9c-2,0-3.39-.77-4-2.08a2.59,2.59,0,0,1-.2-.53v0h0a4.23,4.23,0,0,1-.1-1.32l-1,.82a8.4,8.4,0,0,1-1,.71c-2.19,1.34-4.37,1.21-6-.35l-.92-.91-.22,1.28a2.73,2.73,0,0,1-.25.78c-.8,1.64-2.56,2-6.19,2l-1.58,0h-.1l-2.26,0c-1.31,0-3.14-.11-3.89-1.62s.21-3,1.36-4.44l.69-.88-1.1-.2a3,3,0,0,1-2.46-1.81c-.77-2.1,1.31-4.18,3.91-6.48l.74-.65-.88-.45a8.37,8.37,0,0,1-4.29-5.1c-.4-1.56-1-6.9,8.3-10.13,4.54-1.58,7.06-1.83,8.7-.87a4.27,4.27,0,0,1,1.89,3.3v0c0,.2.08.46.13.64l.1.39.4.09a4.9,4.9,0,0,0,1.45.07h0l1.08,0-.53-.95h0A4.06,4.06,0,0,1,47,151a3,3,0,0,1,1.37-2.9c1.29-.8,3-.54,5.07.74,2.68,1.7,3.15,3.91,2.42,5.35a2.47,2.47,0,0,1-.62.81h0a2.08,2.08,0,0,1-.61.45s.41.34.58.52h0A7.75,7.75,0,0,1,57,159c0,.08.05.17.08.25h0a11.46,11.46,0,0,1,.26,1.21s.56-.6.87-.91h0a16.59,16.59,0,0,1,11.42-5.36,13.34,13.34,0,0,1,5.34.73,3.84,3.84,0,0,1,2.57,3.24,5,5,0,0,1-1.36,3.47l-.54.65.75.38a1.18,1.18,0,0,1,.19.11h0a2.18,2.18,0,0,1,.54.54,2.53,2.53,0,0,1,.47-.8c1.4-1.44,4.1-3.17,9.13-3.55a16,16,0,0,1,3.63.1l.37,0a9.82,9.82,0,0,1,2,.29s-1-.87-1.51-1.39a4.15,4.15,0,0,1-1-2.59c-.07-3,3.15-5.39,7.49-5.49s7.66,2.11,7.73,5.14a3.55,3.55,0,0,1-.06.81,2.85,2.85,0,0,1-.41,1,2.76,2.76,0,0,1,1.06-.17,5.6,5.6,0,0,1,1.54.23l.42.13.29-.33a8,8,0,0,1,1-.94c1.22-1,2.32-1.3,3.3-.92a2.17,2.17,0,0,1,.93.68l.25.31.4-.07a2.76,2.76,0,0,1,2.76.67,2.8,2.8,0,0,1,.47.82l.21.66.66-.24c6-2.21,10.31-1.53,13.15,2.05a3.62,3.62,0,0,1,.62,1.14,9,9,0,0,1,.5-1.25c2.38-4.5,7.68-9.82,14.8-10a13.21,13.21,0,0,1,5.35.72,3.86,3.86,0,0,1,2.58,3.24,5.08,5.08,0,0,1-1.37,3.47l-.54.65.75.38a3,3,0,0,1,1,.89c2,2.81-.83,8.54-4.7,11.91l-.7.61.8.48c2.17,1.28,3.47,3,3.57,4.71C154.19,177.91,153.73,180.83,148,181.82Z"/><path class="cls-5" d="M65.4,172.41l-.55.14a6.84,6.84,0,0,0-1.12.44l-.08,0-.08,0-2.27,1.07,2.5.21,1.39.1,1,.07-.34-1a6.54,6.54,0,0,0-.24-.64Z"/><path class="cls-5" d="M81.21,176.12l-.58-1A3.84,3.84,0,0,1,80.2,173l0-.48-.46-.17-.09,0-.06,0a5,5,0,0,1-2.32-1.17c-.28-.24-.62-.61-.62-.61a3.74,3.74,0,0,1-.41.75,17.88,17.88,0,0,1-3.51,4.17l-.7.61.8.48a9.67,9.67,0,0,1,1.76,1.3l.46.47a4.24,4.24,0,0,1,.46-.47,7,7,0,0,1,4.56-1.67Zm-6.13.36q-.37-.31-.78-.6a20.1,20.1,0,0,0,2.7-3.24,6.33,6.33,0,0,0,1.85.89,5.47,5.47,0,0,0,.21,1.4A8.15,8.15,0,0,0,75.08,176.48Z"/><path class="cls-5" d="M88.67,177.72l-.56-1.32-.26-.62-.57.15-.14,0-2.19.88,2.33.41Z"/><path class="cls-5" d="M123,167l.52-.81-.94-.21a9.16,9.16,0,0,0-4.46.37l-1.42.5,1.31.73a18.17,18.17,0,0,1,2.07,1.29l0,0a1.73,1.73,0,0,0,.41.25l.43.19.33-.33c.45-.47.85-.91,1.2-1.34A7,7,0,0,0,123,167Z"/><path class="cls-5" d="M94,131.19l.53-1.66,1.18,3.69a1.43,1.43,0,0,1-.86-.28,1.39,1.39,0,0,1-.52-.73Z"/><path class="cls-5" d="M86.25,124.66a1.45,1.45,0,0,1,1.38,1l.32,1-.52,1.66Z"/><polygon class="cls-5" points="91.23 130.96 92.29 130.96 93.57 126.93 92.52 126.93 91.23 130.96"/><path class="cls-5" d="M92.65,131h1.06l2-6.3h0a1.45,1.45,0,0,0-1.38,1Z"/><path class="cls-5" d="M86.25,133.22h0a1.45,1.45,0,0,0,1.38-1l1.68-5.28H88.25Z"/><polygon class="cls-5" points="89.81 130.96 90.87 130.96 92.15 126.93 91.1 126.93 89.81 130.96"/><polygon class="cls-5" points="88.39 130.96 89.45 130.96 90.73 126.93 89.67 126.93 88.39 130.96"/><polygon class="cls-5" points="108.32 128.43 108.32 129.47 94.56 129.47 94.89 128.43 108.32 128.43"/><polygon class="cls-5" points="74.49 129.47 74.49 128.43 87.4 128.43 87.07 129.47 74.49 129.47"/><path class="cls-5" d="M60.23,201.24l.52-1.65,1.18,3.69a1.42,1.42,0,0,1-.85-.28,1.47,1.47,0,0,1-.53-.73Z"/><path class="cls-5" d="M52.46,194.72a1.45,1.45,0,0,1,1.38,1l.33,1-.53,1.66Z"/><polygon class="cls-5" points="57.45 201.01 58.51 201.01 59.79 196.99 58.73 196.99 57.45 201.01"/><path class="cls-5" d="M58.87,201h1.06l2-6.3h0a1.45,1.45,0,0,0-1.38,1Z"/><path class="cls-5" d="M52.46,203.28h0a1.45,1.45,0,0,0,1.38-1L55.53,197H54.47Z"/><polygon class="cls-5" points="56.03 201.01 57.08 201.01 58.37 196.99 57.31 196.99 56.03 201.01"/><polygon class="cls-5" points="54.61 201.01 55.66 201.01 56.95 196.99 55.89 196.99 54.61 201.01"/><polygon class="cls-5" points="74.54 198.49 74.54 199.53 60.78 199.53 61.11 198.49 74.54 198.49"/><polygon class="cls-5" points="40.71 199.53 40.71 198.49 53.61 198.49 53.28 199.53 40.71 199.53"/><path class="cls-5" d="M94.05,201.24l.53-1.65,1.18,3.69a1.46,1.46,0,0,1-1.38-1Z"/><path class="cls-5" d="M86.29,194.72a1.45,1.45,0,0,1,1.38,1l.33,1-.53,1.66Z"/><polygon class="cls-5" points="91.28 201.01 92.33 201.01 93.62 196.99 92.56 196.99 91.28 201.01"/><path class="cls-5" d="M92.7,201h1l2-6.3h0a1.45,1.45,0,0,0-1.38,1Z"/><path class="cls-5" d="M86.29,203.28h0a1.45,1.45,0,0,0,1.38-1L89.35,197h-1Z"/><polygon class="cls-5" points="89.86 201.01 90.91 201.01 92.2 196.99 91.14 196.99 89.86 201.01"/><polygon class="cls-5" points="88.43 201.01 89.49 201.01 90.78 196.99 89.72 196.99 88.43 201.01"/><polygon class="cls-5" points="108.36 198.49 108.36 199.53 94.61 199.53 94.93 198.49 108.36 198.49"/><polygon class="cls-5" points="74.54 199.53 74.54 198.49 87.44 198.49 87.11 199.53 74.54 199.53"/><path class="cls-5" d="M127.88,201.24l.53-1.65,1.18,3.69a1.43,1.43,0,0,1-.86-.28,1.39,1.39,0,0,1-.52-.73Z"/><path class="cls-5" d="M120.12,194.72a1.45,1.45,0,0,1,1.38,1l.32,1-.52,1.66Z"/><polygon class="cls-5" points="125.1 201.01 126.16 201.01 127.44 196.99 126.39 196.99 125.1 201.01"/><path class="cls-5" d="M126.52,201h1.06l2-6.3h0a1.45,1.45,0,0,0-1.38,1Z"/><path class="cls-5" d="M120.12,203.28h0a1.45,1.45,0,0,0,1.38-1l1.68-5.28h-1.06Z"/><polygon class="cls-5" points="123.68 201.01 124.74 201.01 126.02 196.99 124.97 196.99 123.68 201.01"/><polygon class="cls-5" points="122.26 201.01 123.32 201.01 124.6 196.99 123.55 196.99 122.26 201.01"/><polygon class="cls-5" points="142.19 198.49 142.19 199.53 128.43 199.53 128.76 198.49 142.19 198.49"/><polygon class="cls-5" points="108.36 199.53 108.36 198.49 121.27 198.49 120.94 199.53 108.36 199.53"/><text class="cls-6" transform="translate(63.31 144.69)">これは私の</text></g></g></svg>